<svg width="59" height="52" viewBox="0 0 59 52" fill="none" xmlns="http://www.w3.org/2000/svg">
<path d="M56.5402 23.8763H2.45992C1.14743 23.8763 0.083374 24.9389 0.083374 26.2498C0.083374 27.5606 1.14743 28.6232 2.45992 28.6232H56.5402C57.8528 28.6232 58.9167 27.5606 58.9167 26.2498C58.9167 24.939 57.8528 23.8763 56.5402 23.8763Z" fill="#FFE15A"/>
<path d="M56.5402 0.499634H2.45992C1.14743 0.499634 0.083374 1.56229 0.083374 2.87305C0.083374 4.18381 1.14743 5.24646 2.45992 5.24646H56.5402C57.8528 5.24646 58.9167 4.18381 58.9167 2.87305C58.9167 1.56229 57.8528 0.499634 56.5402 0.499634Z" fill="#FFE15A"/>
<path d="M56.5402 47.2532H2.45992C1.14743 47.2532 0.083374 48.3157 0.083374 49.6266C0.083374 50.9375 1.14743 52 2.45992 52H56.5402C57.8528 52 58.9167 50.9375 58.9167 49.6266C58.9167 48.3157 57.8528 47.2532 56.5402 47.2532Z" fill="#FFE15A"/>
</svg>
