<svg id="banana-contur" x="60px" width="234" height="693" viewBox="0 0 234 693" fill="none" xmlns="http://www.w3.org/2000/svg" xmlns:xlink="http://www.w3.org/1999/xlink">
    <defs>
        <mask id="mask">
            <path d="M290.05 47.9588C152.719 236.685 161.991 288.603 158.514 335.595C158.514 423.137 184.01 482.256 184.01 482.256C197.337 508.973 213.562 536.069 217.039 550.47C228.048 589.693 236.933 596.515 249.488 607.884C265.133 623.8 290.243 634.412 303.377 634.601C290.629 656.202 301.639 675.53 303.377 677.803C276.722 663.592 264.168 662.076 245.432 650.518C239.786 639.717 171.841 631.19 171.841 631.19C171.841 631.19 36.829 639.717 12.4919 372.545C-1.87852 208.831 91.1043 93.2455 139.392 55.9171C152.14 42.2743 241.762 4.75647 265.133 7.59873C299.9 7.59873 297.003 34.5055 291.209 47.9588H290.05Z" fill="#C4C4C4"/>
        </mask>
    </defs>
    <image x="-400" y="0" height="100%" xlink:href="../img/bg-banana-clip/slide3.jpg" mask="url(#mask)" id="image"></image>
</svg>
