<svg id="banana-contur" x="-60px" width="234" height="693" viewBox="0 0 234 693" fill="none" xmlns="http://www.w3.org/2000/svg" xmlns:xlink="http://www.w3.org/1999/xlink">
    <defs>
        <mask id="mask">
            <path d="M-44.6725 41.3007C92.6578 230.027 83.3865 281.945 86.8632 328.937C86.8632 416.479 61.3673 475.598 61.3673 475.598C48.0399 502.315 31.8152 529.411 28.3385 543.812C17.3289 583.035 8.44398 589.857 -4.11082 601.226C-19.7561 617.142 -44.8658 627.754 -58 627.943C-45.2521 649.544 -56.2617 668.872 -58 671.145C-31.3452 656.934 -18.7903 655.418 -0.0546722 643.86C5.59128 633.059 73.5358 624.532 73.5358 624.532C73.5358 624.532 208.548 633.059 232.885 365.887C247.256 202.172 154.273 86.5874 105.985 49.2591C93.2371 35.6162 3.61519 -1.90161 -19.7561 0.940646C-54.5233 0.940646 -51.626 27.8474 -45.8315 41.3007H-44.6725Z" fill="#C4C4C4"/>
        </mask>
    </defs>
    <image x="-50" y="0" width="auto" height="100%" xlink:href="../img/bg-banana-clip/slide2.png" id="image" mask="url(#mask)"></image>
</svg>

