<svg id="banana-contur" width="11" height="26" viewBox="0 0 11 26" fill="none" xmlns="http://www.w3.org/2000/svg">
<path id="banana-contur-path" d="M8.34117 22.4968C7.95471 22.0897 7.68121 21.8455 7.34231 20.4412C7.23529 19.9257 6.73586 18.9556 6.32562 17.999C6.32562 17.999 5.5408 15.8825 5.5408 12.7483C5.64782 11.0659 5.36243 9.20717 9.58975 2.45044H9.62543C9.80379 1.96879 9.89298 1.00548 8.82277 1.00548C8.10335 0.903721 5.3446 2.24693 4.95218 2.73536C3.46578 4.07179 0.603571 8.20994 1.04592 14.0712C1.79507 23.6364 5.95104 23.3312 5.95104 23.3312C5.95104 23.3312 8.04252 23.6364 8.21632 24.0231M8.34117 22.4968C7.9559 23.0829 8.0974 23.7586 8.21632 24.0231M8.34117 22.4968C8.82277 23.0666 9.5957 23.4465 10 23.4533C9.60759 24.2266 9.94649 24.9186 10 25C9.17951 24.4912 8.79304 24.4369 8.21632 24.0231" stroke="#FFE15A"/>
</svg>
