<svg width="319" height="320" viewBox="0 0 319 320" fill="none" xmlns="http://www.w3.org/2000/svg">
<g clip-path="url(#clip0)">
<path d="M262.655 259.499C257.967 258.372 253.725 255.867 250.473 252.305C241.545 243.19 228.363 239.658 216.073 243.088C206.674 245.807 196.543 243.092 189.765 236.039C180.839 226.922 167.655 223.389 155.366 226.822C145.972 229.542 135.845 226.828 129.069 219.775C124.77 215.195 119.232 211.959 113.132 210.462C107.102 208.711 100.694 208.746 94.6828 210.561C90.0939 212.024 85.1715 212.074 80.5548 210.706C75.8729 209.58 71.6366 207.078 68.3926 203.521C64.0958 198.94 58.562 195.705 52.4642 194.206C46.4343 192.455 40.0263 192.49 34.0175 194.306C29.4286 195.769 24.5062 195.819 19.8874 194.45C17.5759 193.83 15.1996 195.202 14.5803 197.514C13.9603 199.828 15.3329 202.202 17.6444 202.821C23.6758 204.575 30.0858 204.54 36.0963 202.718C40.6835 201.262 45.6033 201.213 50.2211 202.578C54.903 203.703 59.1408 206.208 62.3857 209.769C66.6816 214.346 72.2133 217.581 78.3117 219.077C84.3416 220.828 90.7501 220.791 96.7595 218.973C101.347 217.515 106.27 217.464 110.888 218.833C115.572 219.961 119.81 222.466 123.055 226.025C131.982 235.14 145.162 238.672 157.45 235.242C166.845 232.519 176.976 235.234 183.751 242.289C192.678 251.403 205.858 254.935 218.146 251.505C227.551 248.785 237.688 251.502 244.474 258.559C248.774 263.138 254.309 266.373 260.412 267.87C262.723 268.49 265.099 267.12 265.719 264.806C266.338 262.495 264.966 260.119 262.655 259.499Z" fill="#0B5A5A" fill-opacity="0.48"/>
<path d="M19.0665 180.771C18.4466 183.085 19.8191 185.459 22.1306 186.079C28.1496 187.838 34.5535 187.802 40.5522 185.974C45.1564 184.52 50.089 184.473 54.7196 185.838C59.4207 186.982 63.6716 189.503 66.9275 193.081C71.2095 197.628 76.7144 200.84 82.7816 202.33C88.8243 204.083 95.2451 204.049 101.271 202.233C105.849 200.765 110.762 200.715 115.371 202.09C120.086 203.231 124.352 205.758 127.619 209.343C136.545 218.418 149.698 221.923 161.955 218.493C166.535 217.024 171.453 216.975 176.062 218.352C180.777 219.493 185.044 222.021 188.311 225.606C197.234 234.684 210.386 238.193 222.644 234.766C227.243 233.315 232.17 233.266 236.795 234.625C237.703 234.869 238.531 235.128 239.356 235.434C243.022 236.754 246.313 238.943 248.946 241.818C253.252 246.397 258.793 249.632 264.898 251.128C267.21 251.747 269.585 250.377 270.205 248.064C270.825 245.752 269.453 243.376 267.141 242.757C262.45 241.633 258.205 239.129 254.954 235.566C252.836 233.408 250.469 231.51 247.9 229.912L286.081 187.041C287.081 185.917 287.427 184.356 286.996 182.916C286.565 181.475 285.417 180.361 283.964 179.972L263.036 174.364L278.738 115.765C279.357 113.454 277.985 111.077 275.673 110.458L124.99 70.0825C122.679 69.4632 120.302 70.8351 119.683 73.1466L100.617 144.303L92.2455 142.06L109.069 79.2749C109.688 76.9634 108.316 74.587 106.005 73.9677L72.5194 64.9954C70.4526 64.4437 68.2934 65.4796 67.4336 67.4375L45.9771 116.203L41.1968 114.923C38.8853 114.303 36.5089 115.675 35.8896 117.987L25.7957 155.658C25.592 156.418 25.5985 157.219 25.8168 157.974L31.7398 178.682C29.2488 178.724 26.7671 178.397 24.3737 177.707C22.0621 177.088 19.6858 178.46 19.0665 180.771V180.771ZM233.736 166.513C232.831 166.271 231.871 166.329 231 166.678L212.235 174.211L209.444 173.463L213.93 156.72L255.786 167.936L254.665 172.121L233.736 166.513ZM159.216 160.004L163.702 143.262L205.558 154.477L201.072 171.22L159.216 160.004ZM120.204 104.689L162.06 115.905L157.574 132.647L115.717 121.432L120.204 104.689ZM258.029 159.564L216.173 148.349L220.659 131.606L262.515 142.822L258.029 159.564ZM207.802 146.106L165.945 134.89L170.431 118.148L212.288 129.363L207.802 146.106ZM264.759 134.45L222.902 123.235L227.388 106.492L269.245 117.708L264.759 134.45ZM214.531 120.992L172.674 109.776L177.161 93.0339L219.017 104.249L214.531 120.992ZM126.933 79.5754L168.789 90.7908L164.303 107.533L122.447 96.318L126.933 79.5754ZM113.474 129.803L155.331 141.019L150.845 157.761L108.988 146.546L113.474 129.803ZM73.8672 74.3288L99.5758 81.2174L85.4596 133.9L81.4978 127.038C80.9239 126.041 79.9768 125.316 78.8676 125.016L54.4486 118.473L73.8672 74.3288ZM43.1393 124.415L74.8914 132.923L83.186 147.29C83.76 148.287 84.707 149.012 85.8168 149.309L211.386 182.956C212.292 183.198 213.251 183.142 214.122 182.793L232.887 175.258L274.932 186.524L239.445 226.363C239.302 226.325 239.181 226.293 239.026 226.251C232.989 224.502 226.575 224.534 220.559 226.345C211.134 229.073 200.976 226.336 194.198 219.242C185.277 210.164 172.123 206.655 159.867 210.083C150.442 212.81 140.284 210.073 133.506 202.98C129.213 198.426 123.692 195.209 117.614 193.719C111.593 191.958 105.189 191.995 99.1915 193.825C94.5858 195.276 89.6532 195.324 85.0246 193.959C80.323 192.817 76.0742 190.296 72.8183 186.719C68.5342 182.171 63.0293 178.959 56.9627 177.467C55.9408 177.193 54.9789 176.982 54.0504 176.801C53.7384 176.739 53.4485 176.701 53.144 176.652C52.5462 176.553 51.9539 176.458 51.3869 176.392C51.0523 176.357 50.7356 176.329 50.4111 176.305C49.9104 176.261 49.4229 176.225 48.9474 176.209C48.631 176.196 48.3184 176.194 48.0146 176.191C47.5661 176.189 47.1148 176.198 46.6619 176.212C46.3856 176.221 46.1047 176.231 45.8349 176.249C45.3797 176.28 44.9488 176.327 44.5235 176.377C44.2998 176.403 44.0629 176.42 43.8524 176.454C43.3339 176.525 42.8321 176.607 42.3409 176.699L42.0218 176.754C41.4301 176.869 40.8496 176.992 40.2916 177.121L34.4775 156.742L43.1393 124.415Z" fill="#0B5A5A" fill-opacity="0.48"/>
<path d="M85.8975 82.0385L81.7118 80.917C79.4003 80.2976 77.0239 81.6696 76.4046 83.9811C75.7847 86.2947 77.1572 88.6689 79.4687 89.2883L83.6544 90.4099C85.9659 91.0292 88.3417 89.6593 88.9616 87.3457C89.581 85.0342 88.209 82.6579 85.8975 82.0385Z" fill="#0B5A5A" fill-opacity="0.48"/>
<path d="M64.5881 161.566L68.7738 162.687C71.0853 163.307 73.4611 161.937 74.081 159.623C74.7004 157.312 73.3284 154.935 71.0169 154.316L66.8312 153.194C64.5197 152.575 62.1433 153.947 61.524 156.258C60.904 158.572 62.2766 160.946 64.5881 161.566Z" fill="#0B5A5A" fill-opacity="0.48"/>
<path d="M85.5163 167.174L89.702 168.295C92.0135 168.914 94.3893 167.545 95.0092 165.231C95.6286 162.919 94.2566 160.543 91.9451 159.924L87.7594 158.802C85.4479 158.183 83.0716 159.555 82.4522 161.866C81.8323 164.18 83.2048 166.554 85.5163 167.174Z" fill="#0B5A5A" fill-opacity="0.48"/>
<path d="M106.445 172.781L110.63 173.903C112.942 174.522 115.318 173.152 115.937 170.839C116.557 168.527 115.185 166.151 112.873 165.531L108.688 164.41C106.376 163.791 104 165.162 103.38 167.474C102.76 169.788 104.133 172.162 106.445 172.781Z" fill="#0B5A5A" fill-opacity="0.48"/>
<path d="M127.373 178.389L131.558 179.51C133.87 180.13 136.246 178.76 136.866 176.446C137.485 174.135 136.113 171.758 133.802 171.139L129.616 170.018C127.304 169.398 124.928 170.77 124.309 173.082C123.689 175.395 125.061 177.77 127.373 178.389Z" fill="#0B5A5A" fill-opacity="0.48"/>
<path d="M148.301 183.997L152.487 185.118C154.798 185.737 157.174 184.368 157.794 182.054C158.413 179.742 157.041 177.366 154.73 176.747L150.544 175.625C148.233 175.006 145.856 176.378 145.237 178.689C144.617 181.003 145.989 183.377 148.301 183.997Z" fill="#0B5A5A" fill-opacity="0.48"/>
<path d="M169.229 189.604L173.415 190.726C175.726 191.345 178.102 189.975 178.722 187.662C179.341 185.35 177.97 182.974 175.658 182.354L171.472 181.233C169.161 180.614 166.784 181.985 166.165 184.297C165.545 186.611 166.918 188.985 169.229 189.604Z" fill="#0B5A5A" fill-opacity="0.48"/>
<path d="M190.157 195.212L194.343 196.333C196.655 196.953 199.03 195.583 199.65 193.269C200.27 190.958 198.898 188.581 196.586 187.962L192.401 186.841C190.089 186.221 187.713 187.593 187.093 189.905C186.473 192.218 187.846 194.593 190.157 195.212Z" fill="#0B5A5A" fill-opacity="0.48"/>
<path d="M211.086 200.82L215.271 201.941C217.583 202.561 219.959 201.191 220.579 198.877C221.198 196.566 219.826 194.189 217.514 193.57L213.329 192.448C211.017 191.829 208.641 193.201 208.022 195.513C207.402 197.826 208.774 200.2 211.086 200.82Z" fill="#0B5A5A" fill-opacity="0.48"/>
<path d="M232.014 206.427L236.2 207.549C238.511 208.168 240.887 206.798 241.507 204.485C242.126 202.173 240.754 199.797 238.443 199.178L234.257 198.056C231.945 197.437 229.569 198.809 228.95 201.12C228.33 203.434 229.702 205.808 232.014 206.427Z" fill="#0B5A5A" fill-opacity="0.48"/>
</g>
<defs>
<clipPath id="clip0">
<rect width="260" height="260" fill="white" transform="translate(67.293 0.787598) rotate(15)"/>
</clipPath>
</defs>
</svg>
