<svg width="219" height="219" viewBox="0 0 219 219" fill="none" xmlns="http://www.w3.org/2000/svg">
<g clip-path="url(#clip0)">
<path d="M146.262 113.227L128.352 108.428L133.151 90.5186C133.681 88.5403 132.507 86.5067 130.529 85.9766L101.873 78.2984C99.8948 77.7683 97.8612 78.9424 97.3311 80.9206L92.5322 98.8304L74.6224 94.0315C72.6442 93.5014 70.6106 94.6755 70.0805 96.6538L62.4023 125.309C61.8722 127.288 63.0463 129.321 65.0245 129.851L82.9343 134.65L78.1354 152.56C77.6053 154.538 78.7794 156.572 80.7577 157.102L109.413 164.78C111.392 165.31 113.425 164.136 113.955 162.158L118.754 144.248L136.664 149.047C138.642 149.577 140.676 148.403 141.206 146.425L148.884 117.769C149.414 115.791 148.24 113.757 146.262 113.227ZM135.001 140.923L117.092 136.124C115.113 135.594 113.08 136.768 112.55 138.746L107.751 156.656L86.259 150.897L91.058 132.988C91.588 131.009 90.4139 128.976 88.4357 128.446L70.5259 123.647L76.2846 102.155L94.1944 106.954C96.1727 107.484 98.2062 106.31 98.7363 104.332L103.535 86.4219L125.027 92.1807L120.228 110.09C119.698 112.069 120.872 114.102 122.85 114.632L140.76 119.431L135.001 140.923Z" fill="#0B5A5A" fill-opacity="0.48"/>
<path d="M187.298 78.1532L150.615 68.324L153.362 58.0724C155.552 49.8984 150.564 41.436 142.243 39.2064L113.83 31.5934C105.828 29.4492 98.3519 34.126 96.0503 42.7157L93.3034 52.9673L56.6205 43.1382C45.2294 40.0985 33.5278 46.8544 30.4646 58.2393L8.88671 138.769C5.84706 150.16 12.603 161.862 23.9878 164.925L154.665 199.94C166.056 202.98 177.758 196.224 180.821 184.839L202.399 104.309C205.439 92.9183 198.683 81.2164 187.298 78.1532ZM103.214 44.6354C104.236 40.8243 107.319 37.5272 111.911 38.7576L140.323 46.3707C144.693 47.5416 147.33 51.9297 146.198 56.1528L143.451 66.4044L100.468 54.887L103.214 44.6354ZM173.661 182.909C171.666 190.345 164.025 194.761 156.585 192.776L25.9073 157.761C18.4763 155.762 14.0669 148.124 16.0505 140.689L37.6285 60.1588C39.6283 52.7278 47.2657 48.3184 54.701 50.302L185.378 85.317C192.809 87.3167 197.219 94.9542 195.235 102.389L173.66 182.909L173.661 182.909Z" fill="#0B5A5A" fill-opacity="0.48"/>
</g>
<defs>
<clipPath id="clip0">
<rect width="178" height="178" fill="white" transform="translate(46.0698) rotate(15)"/>
</clipPath>
</defs>
</svg>
