<svg width="184" height="293" viewBox="0 0 184 293" fill="none" xmlns="http://www.w3.org/2000/svg">
<g clip-path="url(#clip0)">
<path d="M126.942 15.2201C110.071 10.7204 92.7422 20.7254 88.2038 37.5855L48.9938 183.919C33.1865 191.03 22.2799 205.929 20.2784 223.147C16.9482 250.394 36.3391 275.181 63.5849 278.509C88.2067 281.517 111.277 265.911 117.647 241.94C121.529 227.627 118.755 212.33 110.095 200.291L149.305 53.9576C153.807 37.0876 143.802 19.7585 126.942 15.2201V15.2201ZM108.919 239.601C103.135 261.301 80.8543 274.206 59.1532 268.421C37.4517 262.638 24.547 240.356 30.3316 218.655C33.6335 206.269 42.5806 196.165 54.4771 191.39C55.797 190.86 56.7908 189.74 57.1588 188.366L60.6814 175.22L69.4094 177.558L71.7481 168.83L63.02 166.492L66.5285 153.398L75.2566 155.737L77.5952 147.009L68.8672 144.67L72.3757 131.576L81.1037 133.915L83.4424 125.187L74.7143 122.848L78.2228 109.754L86.9509 112.093L89.2895 103.365L80.5615 101.026L84.07 87.9324L92.798 90.271L95.1367 81.543L86.4086 79.2043L89.9171 66.1105L98.6452 68.4492L100.984 59.7211L92.2558 57.3825L96.9336 39.9246C100.163 27.8717 112.55 20.7204 124.603 23.9499C136.654 27.179 143.807 39.566 140.577 51.6189L100.8 200.069C100.432 201.443 100.732 202.91 101.611 204.027C109.546 214.057 112.257 227.255 108.919 239.601Z" fill="#0B5A5A" fill-opacity="0.48"/>
<path d="M66.1309 242.168C58.8992 240.231 54.6078 232.798 56.5451 225.568C58.4829 218.336 65.9157 214.045 73.1474 215.983C80.3792 217.92 84.6705 225.353 82.7328 232.585C80.7955 239.815 73.3627 244.106 66.1309 242.168Z" fill="#0B5A5A" fill-opacity="0.48"/>
</g>
<defs>
<clipPath id="clip0">
<rect width="117" height="271" fill="white" transform="translate(70.1396) rotate(15)"/>
</clipPath>
</defs>
</svg>
