<svg width="22" height="22" viewBox="0 0 22 22" fill="none" xmlns="http://www.w3.org/2000/svg">
<path d="M14.5273 11.497L14.3234 11.6374L14.5574 11.7181C16.0953 12.2488 17.5051 13.1255 18.6898 14.3102C20.7145 16.3349 21.8423 19.0167 21.8743 21.875H20.4054C20.3383 16.7456 16.145 12.5938 11 12.5938C5.85499 12.5938 1.66171 16.7456 1.59457 21.875H0.125699C0.157663 19.0167 1.28553 16.3349 3.31023 14.3102C4.49497 13.1255 5.90475 12.2488 7.44266 11.7181L7.67661 11.6374L7.47278 11.497C5.83862 10.3715 4.76562 8.48835 4.76562 6.35938C4.76562 2.92186 7.56248 0.125 11 0.125C14.4375 0.125 17.2344 2.92186 17.2344 6.35938C17.2344 8.48835 16.1614 10.3715 14.5273 11.497ZM6.23438 6.35938C6.23438 8.98729 8.37213 11.125 11 11.125C13.6279 11.125 15.7656 8.98729 15.7656 6.35938C15.7656 3.73146 13.6279 1.59375 11 1.59375C8.37213 1.59375 6.23438 3.73146 6.23438 6.35938Z" fill="#FFE15A" stroke="#0B5A5A" stroke-width="0.25"/>
</svg>
