<?xml version="1.0" standalone="no"?>
<!DOCTYPE svg PUBLIC "-//W3C//DTD SVG 1.1//EN" "http://www.w3.org/Graphics/SVG/1.1/DTD/svg11.dtd" >
<svg xmlns="http://www.w3.org/2000/svg" xmlns:xlink="http://www.w3.org/1999/xlink" version="1.1">
<metadata>
Created by FontForge 20190801 at Thu Sep 18 14:45:05 2008
 By Jimmy Wärting
Copyright (c) 2008 by G-Type Designed and digitized by Nick Cooke. All rights reserved.
</metadata>
<defs>
<font id="HouschkaRounded-Light" horiz-adv-x="600" >
  <font-face 
    font-family="Houschka Rounded Light"
    font-weight="300"
    font-stretch="normal"
    units-per-em="1000"
    panose-1="2 15 5 3 2 0 0 2 0 3"
    ascent="760"
    descent="-240"
    x-height="448"
    cap-height="681"
    bbox="-155 -251 1328 1003"
    underline-thickness="50"
    underline-position="-100"
    stemh="42"
    stemv="44"
    unicode-range="U+0020-FB06"
  />
<missing-glyph horiz-adv-x="500" 
d="M0 690h500v-690h-500v690zM250 301l-181 -249h361zM69 638l181 -249l180 249h-361zM218 345l-166 229v-458zM282 345l166 -229v458z" />
    <glyph glyph-name="ff" unicode="ff" horiz-adv-x="578" 
d="M143 448h207v87c0 88 30 155 125 155c31 0 64 -7 91 -22c19 -10 33 -21 33 -33c0 -10 -7 -17 -17 -17c-9 0 -13 8 -34 19c-22 11 -44 16 -66 16c-68 0 -88 -41 -88 -114v-91h147c9 0 17 -8 17 -17c0 -11 -8 -18 -17 -18h-147v-402c0 -12 -10 -21 -22 -21s-22 9 -22 21
v402h-207v-402c0 -12 -10 -21 -22 -21s-22 9 -22 21v402h-56c-9 0 -17 7 -17 18c0 9 8 17 17 17h56v83c0 83 30 149 123 149c30 0 62 -7 88 -21c19 -10 31 -21 31 -34c0 -9 -6 -17 -15 -17c-7 0 -11 7 -32 18c-20 11 -41 15 -63 15c-68 0 -88 -43 -88 -112v-81z" />
    <glyph glyph-name="ffi" unicode="ffi" horiz-adv-x="715" 
d="M99 448v85c0 83 30 149 123 149c30 0 62 -7 88 -21c19 -10 31 -21 31 -34c0 -9 -6 -17 -15 -17c-7 0 -11 7 -32 18c-20 11 -41 15 -63 15c-68 0 -88 -43 -88 -112v-83h207v76c0 92 32 166 142 166c46 0 79 -11 104 -21c23 -10 35 -20 35 -33c0 -9 -6 -17 -20 -17
c-9 0 -12 4 -35 15c-20 10 -47 18 -80 18c-77 0 -102 -51 -102 -133v-71h223c14 0 22 -9 22 -21v-416c0 -12 -10 -21 -22 -21s-22 9 -22 21v402h-201v-402c0 -12 -10 -21 -22 -21s-22 9 -22 21v402h-207v-402c0 -12 -10 -21 -22 -21s-22 9 -22 21v402h-56c-9 0 -17 7 -17 18
c0 9 8 17 17 17h56z" />
    <glyph glyph-name="ffj" unicode="ffj" horiz-adv-x="715" 
d="M143 448h207v76c0 92 32 166 142 166c46 0 79 -11 104 -21c23 -10 35 -20 35 -33c0 -9 -6 -17 -20 -17c-9 0 -12 4 -35 15c-20 10 -47 18 -80 18c-77 0 -102 -51 -102 -133v-71h223c12 0 22 -9 22 -21v-478c0 -49 -8 -105 -33 -140c-16 -22 -43 -38 -63 -38
c-13 0 -23 7 -23 20c0 18 25 13 51 48c19 26 24 69 24 132v442h-201v-402c0 -12 -10 -21 -22 -21s-22 9 -22 21v402h-207v-402c0 -12 -10 -21 -22 -21s-22 9 -22 21v402h-56c-9 0 -17 7 -17 18c0 9 8 17 17 17h56v85c0 83 30 149 123 149c30 0 62 -7 88 -21
c19 -10 31 -21 31 -34c0 -9 -6 -17 -15 -17c-7 0 -11 7 -32 18c-20 11 -41 15 -63 15c-68 0 -88 -43 -88 -112v-83z" />
    <glyph glyph-name="ffl" unicode="ffl" horiz-adv-x="717" 
d="M143 448h207v77c0 92 33 166 142 166c40 0 77 -8 102 -21c37 -18 47 -36 47 -64v-595c0 -12 -10 -21 -22 -21s-22 9 -22 21v594c0 21 -36 48 -100 48c-76 0 -103 -50 -103 -133v-72h141c9 0 17 -8 17 -17c0 -11 -8 -18 -17 -18h-141v-402c0 -12 -10 -21 -22 -21
s-22 9 -22 21v402h-207v-402c0 -12 -10 -21 -22 -21s-22 9 -22 21v402h-56c-9 0 -17 7 -17 18c0 9 8 17 17 17h56v85c0 83 30 149 123 149c30 0 62 -7 88 -21c19 -10 31 -21 31 -34c0 -9 -6 -17 -15 -17c-7 0 -11 7 -32 18c-20 11 -41 15 -63 15c-68 0 -88 -43 -88 -112v-83
z" />
    <glyph glyph-name="fi" unicode="fi" horiz-adv-x="464" 
d="M143 448h223c14 0 22 -9 22 -21v-416c0 -12 -10 -21 -22 -21s-22 9 -22 21v402h-201v-402c0 -12 -10 -21 -22 -21s-22 9 -22 21v402h-56c-9 0 -17 7 -17 18c0 9 8 17 17 17h56v76c0 92 32 166 141 166c47 0 80 -11 105 -21c22 -10 35 -20 35 -33c0 -9 -7 -17 -21 -17
c-9 0 -12 4 -34 15c-20 10 -47 18 -80 18c-77 0 -102 -51 -102 -133v-71z" />
    <glyph glyph-name="fj" unicode="fj" horiz-adv-x="469" 
d="M143 448h223c12 0 22 -9 22 -21v-478c0 -49 -8 -105 -34 -140c-16 -22 -42 -38 -63 -38c-12 0 -22 7 -22 20c0 18 25 13 51 48c19 26 24 69 24 132v442h-201v-402c0 -12 -10 -21 -22 -21s-22 9 -22 21v402h-56c-9 0 -17 7 -17 18c0 9 8 17 17 17h56v76
c0 92 32 166 141 166c47 0 80 -11 105 -21c22 -10 35 -20 35 -33c0 -9 -7 -17 -21 -17c-9 0 -12 4 -34 15c-20 10 -47 18 -80 18c-77 0 -102 -51 -102 -133v-71z" />
    <glyph glyph-name="fl" unicode="fl" horiz-adv-x="465" 
d="M389 606v-595c0 -12 -10 -21 -22 -21s-21 9 -21 21v594c0 21 -36 48 -100 48c-77 0 -103 -50 -103 -133v-72h149c9 0 17 -8 17 -17c0 -11 -8 -18 -17 -18h-149v-402c0 -12 -10 -21 -22 -21s-22 9 -22 21v402h-56c-9 0 -17 7 -17 18c0 9 8 17 17 17h56v77
c0 92 34 166 142 166c42 0 79 -8 104 -21c37 -18 44 -36 44 -64z" />
    <glyph glyph-name=".notdef" horiz-adv-x="500" 
d="M0 690h500v-690h-500v690zM250 301l-181 -249h361zM69 638l181 -249l180 249h-361zM218 345l-166 229v-458zM282 345l166 -229v458z" />
    <glyph glyph-name="A" unicode="A" horiz-adv-x="689" 
d="M345 646c-69 0 -123 -28 -160 -70c-41 -48 -60 -115 -60 -184v-98h440v98c0 69 -20 136 -61 184c-37 42 -91 70 -159 70zM613 393v-380c0 -12 -11 -23 -24 -23c-14 0 -24 11 -24 23v239h-440v-239c0 -12 -11 -23 -24 -23c-14 0 -24 11 -24 23v380c0 77 23 158 76 216
c44 49 107 81 192 81c84 0 148 -32 191 -81c52 -59 77 -139 77 -216z" />
    <glyph glyph-name="A.2" unicode="&#xe000;" horiz-adv-x="691" 
d="M345 646c-69 0 -123 -28 -160 -70c-41 -48 -60 -115 -60 -184v-92h440v92c0 69 -20 136 -61 184c-37 42 -91 70 -159 70zM613 393v-380c0 -12 -11 -23 -24 -23c-14 0 -24 11 -24 23v244h-440v-244c0 -12 -11 -23 -24 -23c-14 0 -24 11 -24 23v380c0 77 23 158 76 216
c44 49 107 81 192 81c84 0 148 -32 191 -81c52 -59 77 -139 77 -216z" />
    <glyph glyph-name="A.3" unicode="&#xe001;" horiz-adv-x="630" 
d="M90 606c0 14 17 29 46 43c49 23 111 41 189 41c69 0 135 -16 179 -71c32 -40 50 -99 50 -187v-419c0 -12 -10 -23 -24 -23s-24 11 -24 23v31c-66 -40 -126 -54 -209 -54c-108 0 -240 48 -240 185c0 82 41 134 104 167c88 47 221 58 345 67v21c0 79 -15 128 -42 162
c-38 46 -91 56 -142 56c-78 0 -124 -22 -160 -41c-21 -11 -35 -23 -50 -23c-13 0 -22 10 -22 22zM108 177c0 -110 108 -147 204 -147c74 0 131 13 194 54v286c-104 -7 -222 -15 -300 -52c-60 -28 -98 -71 -98 -141z" />
    <glyph glyph-name="A.calt" unicode="&#xe002;" horiz-adv-x="617" 
d="M308 625l-167 -403h335zM561 10l-72 173h-361l-73 -173c-5 -13 -11 -20 -25 -20c-15 0 -22 10 -22 22c0 3 2 10 4 16l265 638c6 14 14 24 32 24c19 0 27 -11 32 -24l265 -638c2 -5 3 -12 3 -15c0 -14 -9 -23 -23 -23c-12 0 -20 7 -25 20z" />
    <glyph glyph-name="AE" unicode="&#xc6;" horiz-adv-x="1020" 
d="M609 639v-277h307c12 0 21 -10 21 -21c0 -12 -9 -22 -21 -22h-307v-277h359c11 0 20 -9 20 -21s-9 -21 -20 -21h-383c-12 0 -24 9 -24 23v229h-436v-239c0 -12 -11 -23 -24 -23c-14 0 -24 11 -24 23v380c0 77 24 157 76 216c43 49 106 81 190 81c95 0 170 -41 218 -118
v86c0 12 10 23 24 23h383c11 0 20 -10 20 -21c0 -12 -9 -21 -20 -21h-359zM343 646c-68 0 -122 -28 -158 -70c-41 -48 -60 -115 -60 -184v-98h436v98c0 66 -21 138 -60 184c-37 42 -90 70 -158 70z" />
    <glyph glyph-name="AE.3" unicode="&#xe003;" horiz-adv-x="1175" 
d="M57 175c0 88 61 138 145 165c92 30 212 35 303 36v54c0 79 -14 128 -42 162c-37 46 -91 56 -141 56c-79 0 -125 -22 -161 -41c-20 -11 -35 -23 -49 -23c-13 0 -23 10 -23 22c0 14 18 29 47 43c49 23 111 41 189 41c68 0 134 -16 178 -71c19 -24 33 -55 41 -96
c12 23 27 45 44 65c54 62 132 102 238 102c98 0 174 -40 224 -96c54 -59 79 -137 79 -224c0 -24 -11 -35 -32 -35h-539c2 -82 26 -150 66 -200c52 -65 129 -102 221 -102c65 0 113 13 148 28c51 21 73 47 87 47c12 0 21 -9 21 -22c0 -17 -30 -41 -77 -61
c-49 -20 -114 -35 -178 -35c-110 0 -197 39 -257 109c-63 -56 -144 -109 -291 -109c-110 0 -241 48 -241 185zM558 376h522c-2 82 -27 143 -67 188c-41 48 -106 82 -186 82c-91 0 -159 -35 -206 -93c-36 -44 -59 -109 -63 -177zM312 30c135 0 203 53 254 100
c-37 55 -59 124 -61 205c-80 0 -191 -3 -275 -29c-70 -23 -123 -62 -123 -129c0 -110 108 -147 205 -147z" />
    <glyph glyph-name="AE.calt" unicode="&#xe004;" horiz-adv-x="974" 
d="M562 319v-277h359c12 0 21 -9 21 -21s-9 -21 -21 -21h-383c-14 0 -24 11 -24 23v160h-324l-135 -177c-8 -10 -13 -16 -25 -16c-14 0 -22 9 -22 22c0 6 3 14 9 22l477 622c13 16 23 25 44 25h383c12 0 21 -10 21 -21c0 -12 -9 -21 -21 -21h-359v-277h308
c11 0 20 -10 20 -21c0 -12 -9 -22 -20 -22h-308zM220 222h294v384z" />
    <glyph glyph-name="AEsmall" unicode="&#xf7e6;" horiz-adv-x="873" 
d="M515 506v-214h283c10 0 19 -9 19 -20s-9 -19 -19 -19h-283v-215h322c11 0 20 -8 20 -19c0 -12 -9 -19 -20 -19h-344c-14 0 -22 10 -22 21v178h-348v-186c0 -12 -10 -21 -22 -21s-22 9 -22 21v300c0 60 18 124 58 169c36 41 88 70 160 70s136 -32 174 -88v59
c0 12 10 21 22 21h344c11 0 20 -8 20 -19c0 -12 -9 -19 -20 -19h-322zM297 511c-57 0 -100 -22 -129 -58c-31 -37 -45 -89 -45 -142v-74h348v77c0 54 -17 105 -45 139c-29 36 -72 58 -129 58z" />
    <glyph glyph-name="AEsmall.3" unicode="&#xe005;" horiz-adv-x="959" 
d="M485 76c-53 -43 -119 -84 -230 -84c-97 0 -194 48 -194 153c0 149 222 156 355 157v39c0 60 -12 101 -33 128c-30 36 -70 44 -109 44c-65 0 -103 -21 -128 -36c-14 -8 -25 -16 -37 -16s-21 10 -21 22c0 13 15 24 36 35c42 20 96 34 153 34c55 0 106 -13 142 -58
c13 -17 24 -40 31 -67c8 15 19 30 31 44c44 49 106 81 191 81c77 0 141 -33 180 -76c43 -47 63 -111 63 -181c0 -20 -9 -30 -27 -30h-425c3 -59 20 -114 50 -152c41 -52 102 -81 175 -81c51 0 87 10 115 22c40 17 60 38 71 38s19 -9 19 -21c0 -14 -25 -35 -65 -52
c-39 -16 -89 -27 -140 -27c-88 0 -156 30 -203 84zM465 102c-29 43 -48 98 -50 163c-120 0 -309 -5 -309 -118c0 -83 81 -117 157 -117c91 0 153 35 202 72zM463 301h408c-3 60 -20 113 -53 148c-32 35 -86 63 -145 63c-70 0 -123 -27 -159 -72c-30 -36 -47 -87 -51 -139z
" />
    <glyph glyph-name="Aacute" unicode="&#xc1;" horiz-adv-x="689" 
d="M345 646c-69 0 -123 -28 -160 -70c-41 -48 -60 -115 -60 -184v-98h440v98c0 69 -20 136 -61 184c-37 42 -91 70 -159 70zM613 393v-380c0 -12 -11 -23 -24 -23c-14 0 -24 11 -24 23v239h-440v-239c0 -12 -11 -23 -24 -23c-14 0 -24 11 -24 23v380c0 77 23 158 76 216
c44 49 107 81 192 81c84 0 148 -32 191 -81c52 -59 77 -139 77 -216zM279 788c0 4 2 8 4 13l88 155c4 9 11 15 19 15c11 0 19 -8 19 -18c0 -5 -1 -8 -6 -16l-91 -150c-5 -9 -10 -13 -17 -13c-9 0 -16 6 -16 14z" />
    <glyph glyph-name="Aacute.2" unicode="&#xe006;" horiz-adv-x="691" 
d="M345 646c-69 0 -123 -28 -160 -70c-41 -48 -60 -115 -60 -184v-92h440v92c0 69 -20 136 -61 184c-37 42 -91 70 -159 70zM613 393v-380c0 -12 -11 -23 -24 -23c-14 0 -24 11 -24 23v244h-440v-244c0 -12 -11 -23 -24 -23c-14 0 -24 11 -24 23v380c0 77 23 158 76 216
c44 49 107 81 192 81c84 0 148 -32 191 -81c52 -59 77 -139 77 -216zM280 788c0 4 2 8 4 13l88 155c4 9 11 15 19 15c11 0 19 -8 19 -18c0 -5 -1 -8 -6 -16l-91 -150c-5 -9 -10 -13 -17 -13c-9 0 -16 6 -16 14z" />
    <glyph glyph-name="Aacute.3" unicode="&#xe007;" horiz-adv-x="630" 
d="M90 606c0 14 17 29 46 43c49 23 111 41 189 41c69 0 135 -16 179 -71c32 -40 50 -99 50 -187v-419c0 -12 -10 -23 -24 -23s-24 11 -24 23v31c-66 -40 -126 -54 -209 -54c-108 0 -240 48 -240 185c0 82 41 134 104 167c88 47 221 58 345 67v21c0 79 -15 128 -42 162
c-38 46 -91 56 -142 56c-78 0 -124 -22 -160 -41c-21 -11 -35 -23 -50 -23c-13 0 -22 10 -22 22zM108 177c0 -110 108 -147 204 -147c74 0 131 13 194 54v286c-104 -7 -222 -15 -300 -52c-60 -28 -98 -71 -98 -141zM256 788c0 4 2 8 4 13l88 155c4 9 11 15 19 15
c11 0 19 -8 19 -18c0 -5 -1 -8 -6 -16l-91 -150c-5 -9 -10 -13 -17 -13c-9 0 -16 6 -16 14z" />
    <glyph glyph-name="Aacute.calt" unicode="&#xe008;" horiz-adv-x="617" 
d="M308 625l-167 -403h335zM561 10l-72 173h-361l-73 -173c-5 -13 -11 -20 -25 -20c-15 0 -22 10 -22 22c0 3 2 10 4 16l265 638c6 14 14 24 32 24c19 0 27 -11 32 -24l265 -638c2 -5 3 -12 3 -15c0 -14 -9 -23 -23 -23c-12 0 -20 7 -25 20zM244 788c0 4 2 8 4 13l88 155
c4 9 11 15 19 15c11 0 19 -8 19 -18c0 -5 -1 -8 -6 -16l-91 -150c-5 -9 -10 -13 -17 -13c-9 0 -16 6 -16 14z" />
    <glyph glyph-name="Abreve" unicode="&#x102;" horiz-adv-x="689" 
d="M345 646c-69 0 -123 -28 -160 -70c-41 -48 -60 -115 -60 -184v-98h440v98c0 69 -20 136 -61 184c-37 42 -91 70 -159 70zM613 393v-380c0 -12 -11 -23 -24 -23c-14 0 -24 11 -24 23v239h-440v-239c0 -12 -11 -23 -24 -23c-14 0 -24 11 -24 23v380c0 77 23 158 76 216
c44 49 107 81 192 81c84 0 148 -32 191 -81c52 -59 77 -139 77 -216zM344 871c37 0 62 17 82 44c16 22 24 43 36 43c10 0 18 -7 18 -16c0 -31 -54 -105 -136 -105s-136 74 -136 105c0 9 8 16 18 16c12 0 20 -21 36 -43c19 -26 45 -44 82 -44z" />
    <glyph glyph-name="Abreve.2" unicode="&#xe009;" horiz-adv-x="691" 
d="M345 646c-69 0 -123 -28 -160 -70c-41 -48 -60 -115 -60 -184v-92h440v92c0 69 -20 136 -61 184c-37 42 -91 70 -159 70zM613 393v-380c0 -12 -11 -23 -24 -23c-14 0 -24 11 -24 23v244h-440v-244c0 -12 -11 -23 -24 -23c-14 0 -24 11 -24 23v380c0 77 23 158 76 216
c44 49 107 81 192 81c84 0 148 -32 191 -81c52 -59 77 -139 77 -216zM344 871c37 0 62 17 82 44c16 22 24 43 36 43c10 0 18 -7 18 -16c0 -31 -54 -105 -136 -105s-136 74 -136 105c0 9 8 16 18 16c12 0 20 -21 36 -43c19 -26 45 -44 82 -44z" />
    <glyph glyph-name="Abreve.3" unicode="&#xe00a;" horiz-adv-x="630" 
d="M90 606c0 14 17 29 46 43c49 23 111 41 189 41c69 0 135 -16 179 -71c32 -40 50 -99 50 -187v-419c0 -12 -10 -23 -24 -23s-24 11 -24 23v31c-66 -40 -126 -54 -209 -54c-108 0 -240 48 -240 185c0 82 41 134 104 167c88 47 221 58 345 67v21c0 79 -15 128 -42 162
c-38 46 -91 56 -142 56c-78 0 -124 -22 -160 -41c-21 -11 -35 -23 -50 -23c-13 0 -22 10 -22 22zM108 177c0 -110 108 -147 204 -147c74 0 131 13 194 54v286c-104 -7 -222 -15 -300 -52c-60 -28 -98 -71 -98 -141zM320 871c37 0 62 17 82 44c16 22 24 43 36 43
c10 0 18 -7 18 -16c0 -31 -54 -105 -136 -105s-136 74 -136 105c0 9 8 16 18 16c12 0 20 -21 36 -43c19 -26 45 -44 82 -44z" />
    <glyph glyph-name="Abreve.calt" unicode="&#xe00b;" horiz-adv-x="617" 
d="M308 625l-167 -403h335zM561 10l-72 173h-361l-73 -173c-5 -13 -11 -20 -25 -20c-15 0 -22 10 -22 22c0 3 2 10 4 16l265 638c6 14 14 24 32 24c19 0 27 -11 32 -24l265 -638c2 -5 3 -12 3 -15c0 -14 -9 -23 -23 -23c-12 0 -20 7 -25 20zM303 871c37 0 62 17 82 44
c16 22 24 43 36 43c10 0 18 -7 18 -16c0 -31 -54 -105 -136 -105s-136 74 -136 105c0 9 8 16 18 16c12 0 20 -21 36 -43c19 -26 45 -44 82 -44z" />
    <glyph glyph-name="Acircumflex" unicode="&#xc2;" horiz-adv-x="689" 
d="M345 646c-69 0 -123 -28 -160 -70c-41 -48 -60 -115 -60 -184v-98h440v98c0 69 -20 136 -61 184c-37 42 -91 70 -159 70zM613 393v-380c0 -12 -11 -23 -24 -23c-14 0 -24 11 -24 23v239h-440v-239c0 -12 -11 -23 -24 -23c-14 0 -24 11 -24 23v380c0 77 23 158 76 216
c44 49 107 81 192 81c84 0 148 -32 191 -81c52 -59 77 -139 77 -216zM345 970c8 0 14 -4 18 -9l131 -140c5 -5 8 -10 8 -15c0 -10 -8 -17 -17 -17c-5 0 -9 2 -13 6l-127 134l-127 -134c-4 -4 -8 -6 -13 -6c-9 0 -16 7 -16 17c0 5 2 10 7 15l132 140c4 5 10 9 17 9z" />
    <glyph glyph-name="Acircumflex.2" unicode="&#xe00c;" horiz-adv-x="691" 
d="M345 646c-69 0 -123 -28 -160 -70c-41 -48 -60 -115 -60 -184v-92h440v92c0 69 -20 136 -61 184c-37 42 -91 70 -159 70zM613 393v-380c0 -12 -11 -23 -24 -23c-14 0 -24 11 -24 23v244h-440v-244c0 -12 -11 -23 -24 -23c-14 0 -24 11 -24 23v380c0 77 23 158 76 216
c44 49 107 81 192 81c84 0 148 -32 191 -81c52 -59 77 -139 77 -216zM345 970c8 0 14 -4 18 -9l131 -140c5 -5 8 -10 8 -15c0 -10 -8 -17 -17 -17c-5 0 -9 2 -13 6l-127 134l-127 -134c-4 -4 -8 -6 -13 -6c-9 0 -16 7 -16 17c0 5 2 10 7 15l132 140c4 5 10 9 17 9z" />
    <glyph glyph-name="Acircumflex.3" unicode="&#xe00d;" horiz-adv-x="630" 
d="M90 606c0 14 17 29 46 43c49 23 111 41 189 41c69 0 135 -16 179 -71c32 -40 50 -99 50 -187v-419c0 -12 -10 -23 -24 -23s-24 11 -24 23v31c-66 -40 -126 -54 -209 -54c-108 0 -240 48 -240 185c0 82 41 134 104 167c88 47 221 58 345 67v21c0 79 -15 128 -42 162
c-38 46 -91 56 -142 56c-78 0 -124 -22 -160 -41c-21 -11 -35 -23 -50 -23c-13 0 -22 10 -22 22zM108 177c0 -110 108 -147 204 -147c74 0 131 13 194 54v286c-104 -7 -222 -15 -300 -52c-60 -28 -98 -71 -98 -141zM319 970c8 0 14 -4 18 -9l131 -140c5 -5 8 -10 8 -15
c0 -10 -8 -17 -17 -17c-5 0 -9 2 -13 6l-127 134l-127 -134c-4 -4 -8 -6 -13 -6c-9 0 -16 7 -16 17c0 5 2 10 7 15l132 140c4 5 10 9 17 9z" />
    <glyph glyph-name="Acircumflex.calt" unicode="&#xe00e;" horiz-adv-x="617" 
d="M308 625l-167 -403h335zM561 10l-72 173h-361l-73 -173c-5 -13 -11 -20 -25 -20c-15 0 -22 10 -22 22c0 3 2 10 4 16l265 638c6 14 14 24 32 24c19 0 27 -11 32 -24l265 -638c2 -5 3 -12 3 -15c0 -14 -9 -23 -23 -23c-12 0 -20 7 -25 20zM307 970c8 0 14 -4 18 -9
l131 -140c5 -5 8 -10 8 -15c0 -10 -8 -17 -17 -17c-5 0 -9 2 -13 6l-127 134l-127 -134c-4 -4 -8 -6 -13 -6c-9 0 -16 7 -16 17c0 5 2 10 7 15l132 140c4 5 10 9 17 9z" />
    <glyph glyph-name="Adieresis" unicode="&#xc4;" horiz-adv-x="689" 
d="M345 646c-69 0 -123 -28 -160 -70c-41 -48 -60 -115 -60 -184v-98h440v98c0 69 -20 136 -61 184c-37 42 -91 70 -159 70zM613 393v-380c0 -12 -11 -23 -24 -23c-14 0 -24 11 -24 23v239h-440v-239c0 -12 -11 -23 -24 -23c-14 0 -24 11 -24 23v380c0 77 23 158 76 216
c44 49 107 81 192 81c84 0 148 -32 191 -81c52 -59 77 -139 77 -216zM262 846c-16 0 -28 12 -28 28c0 15 12 27 28 27c15 0 28 -12 28 -27c0 -16 -13 -28 -28 -28zM428 846c-16 0 -28 12 -28 28c0 15 12 27 28 27c15 0 27 -12 27 -27c0 -16 -12 -28 -27 -28z" />
    <glyph glyph-name="Adieresis.2" unicode="&#xe00f;" horiz-adv-x="691" 
d="M345 646c-69 0 -123 -28 -160 -70c-41 -48 -60 -115 -60 -184v-92h440v92c0 69 -20 136 -61 184c-37 42 -91 70 -159 70zM613 393v-380c0 -12 -11 -23 -24 -23c-14 0 -24 11 -24 23v244h-440v-244c0 -12 -11 -23 -24 -23c-14 0 -24 11 -24 23v380c0 77 23 158 76 216
c44 49 107 81 192 81c84 0 148 -32 191 -81c52 -59 77 -139 77 -216zM263 846c-16 0 -28 12 -28 28c0 15 12 27 28 27c15 0 28 -12 28 -27c0 -16 -13 -28 -28 -28zM429 846c-16 0 -28 12 -28 28c0 15 12 27 28 27c15 0 27 -12 27 -27c0 -16 -12 -28 -27 -28z" />
    <glyph glyph-name="Adieresis.3" unicode="&#xe010;" horiz-adv-x="630" 
d="M90 606c0 14 17 29 46 43c49 23 111 41 189 41c69 0 135 -16 179 -71c32 -40 50 -99 50 -187v-419c0 -12 -10 -23 -24 -23s-24 11 -24 23v31c-66 -40 -126 -54 -209 -54c-108 0 -240 48 -240 185c0 82 41 134 104 167c88 47 221 58 345 67v21c0 79 -15 128 -42 162
c-38 46 -91 56 -142 56c-78 0 -124 -22 -160 -41c-21 -11 -35 -23 -50 -23c-13 0 -22 10 -22 22zM108 177c0 -110 108 -147 204 -147c74 0 131 13 194 54v286c-104 -7 -222 -15 -300 -52c-60 -28 -98 -71 -98 -141zM233 846c-16 0 -28 12 -28 28c0 15 12 27 28 27
c15 0 28 -12 28 -27c0 -16 -13 -28 -28 -28zM399 846c-16 0 -28 12 -28 28c0 15 12 27 28 27c15 0 27 -12 27 -27c0 -16 -12 -28 -27 -28z" />
    <glyph glyph-name="Adieresis.calt" unicode="&#xe011;" horiz-adv-x="617" 
d="M308 625l-167 -403h335zM561 10l-72 173h-361l-73 -173c-5 -13 -11 -20 -25 -20c-15 0 -22 10 -22 22c0 3 2 10 4 16l265 638c6 14 14 24 32 24c19 0 27 -11 32 -24l265 -638c2 -5 3 -12 3 -15c0 -14 -9 -23 -23 -23c-12 0 -20 7 -25 20zM225 846c-16 0 -28 12 -28 28
c0 15 12 27 28 27c15 0 28 -12 28 -27c0 -16 -13 -28 -28 -28zM391 846c-16 0 -28 12 -28 28c0 15 12 27 28 27c15 0 27 -12 27 -27c0 -16 -12 -28 -27 -28z" />
    <glyph glyph-name="Agrave" unicode="&#xc0;" horiz-adv-x="689" 
d="M345 646c-69 0 -123 -28 -160 -70c-41 -48 -60 -115 -60 -184v-98h440v98c0 69 -20 136 -61 184c-37 42 -91 70 -159 70zM613 393v-380c0 -12 -11 -23 -24 -23c-14 0 -24 11 -24 23v239h-440v-239c0 -12 -11 -23 -24 -23c-14 0 -24 11 -24 23v380c0 77 23 158 76 216
c44 49 107 81 192 81c84 0 148 -32 191 -81c52 -59 77 -139 77 -216zM409 788c0 -8 -7 -14 -15 -14s-13 4 -18 13l-91 150c-5 8 -6 11 -6 16c0 10 8 18 19 18c8 0 14 -6 19 -15l88 -155c3 -5 4 -9 4 -13z" />
    <glyph glyph-name="Agrave.2" unicode="&#xe012;" horiz-adv-x="691" 
d="M345 646c-69 0 -123 -28 -160 -70c-41 -48 -60 -115 -60 -184v-92h440v92c0 69 -20 136 -61 184c-37 42 -91 70 -159 70zM613 393v-380c0 -12 -11 -23 -24 -23c-14 0 -24 11 -24 23v244h-440v-244c0 -12 -11 -23 -24 -23c-14 0 -24 11 -24 23v380c0 77 23 158 76 216
c44 49 107 81 192 81c84 0 148 -32 191 -81c52 -59 77 -139 77 -216zM410 788c0 -8 -7 -14 -15 -14s-13 4 -18 13l-91 150c-5 8 -6 11 -6 16c0 10 8 18 19 18c8 0 14 -6 19 -15l88 -155c3 -5 4 -9 4 -13z" />
    <glyph glyph-name="Agrave.3" unicode="&#xe013;" horiz-adv-x="630" 
d="M90 606c0 14 17 29 46 43c49 23 111 41 189 41c69 0 135 -16 179 -71c32 -40 50 -99 50 -187v-419c0 -12 -10 -23 -24 -23s-24 11 -24 23v31c-66 -40 -126 -54 -209 -54c-108 0 -240 48 -240 185c0 82 41 134 104 167c88 47 221 58 345 67v21c0 79 -15 128 -42 162
c-38 46 -91 56 -142 56c-78 0 -124 -22 -160 -41c-21 -11 -35 -23 -50 -23c-13 0 -22 10 -22 22zM108 177c0 -110 108 -147 204 -147c74 0 131 13 194 54v286c-104 -7 -222 -15 -300 -52c-60 -28 -98 -71 -98 -141zM388 788c0 -8 -7 -14 -15 -14s-13 4 -18 13l-91 150
c-5 8 -6 11 -6 16c0 10 8 18 19 18c8 0 14 -6 19 -15l88 -155c3 -5 4 -9 4 -13z" />
    <glyph glyph-name="Agrave.calt" unicode="&#xe014;" horiz-adv-x="617" 
d="M308 625l-167 -403h335zM561 10l-72 173h-361l-73 -173c-5 -13 -11 -20 -25 -20c-15 0 -22 10 -22 22c0 3 2 10 4 16l265 638c6 14 14 24 32 24c19 0 27 -11 32 -24l265 -638c2 -5 3 -12 3 -15c0 -14 -9 -23 -23 -23c-12 0 -20 7 -25 20zM372 788c0 -8 -7 -14 -15 -14
s-13 4 -18 13l-91 150c-5 8 -6 11 -6 16c0 10 8 18 19 18c8 0 14 -6 19 -15l88 -155c3 -5 4 -9 4 -13z" />
    <glyph glyph-name="Amacron" unicode="&#x100;" horiz-adv-x="689" 
d="M345 646c-69 0 -123 -28 -160 -70c-41 -48 -60 -115 -60 -184v-98h440v98c0 69 -20 136 -61 184c-37 42 -91 70 -159 70zM613 393v-380c0 -12 -11 -23 -24 -23c-14 0 -24 11 -24 23v239h-440v-239c0 -12 -11 -23 -24 -23c-14 0 -24 11 -24 23v380c0 77 23 158 76 216
c44 49 107 81 192 81c84 0 148 -32 191 -81c52 -59 77 -139 77 -216zM472 886c0 -11 -8 -18 -18 -18h-219c-9 0 -17 7 -17 18c0 10 8 18 17 18h219c10 0 18 -8 18 -18z" />
    <glyph glyph-name="Amacron.2" unicode="&#xe015;" horiz-adv-x="691" 
d="M345 646c-69 0 -123 -28 -160 -70c-41 -48 -60 -115 -60 -184v-92h440v92c0 69 -20 136 -61 184c-37 42 -91 70 -159 70zM613 393v-380c0 -12 -11 -23 -24 -23c-14 0 -24 11 -24 23v244h-440v-244c0 -12 -11 -23 -24 -23c-14 0 -24 11 -24 23v380c0 77 23 158 76 216
c44 49 107 81 192 81c84 0 148 -32 191 -81c52 -59 77 -139 77 -216zM473 886c0 -11 -8 -18 -18 -18h-219c-9 0 -17 7 -17 18c0 10 8 18 17 18h219c10 0 18 -8 18 -18z" />
    <glyph glyph-name="Amacron.3" unicode="&#xe016;" horiz-adv-x="630" 
d="M90 606c0 14 17 29 46 43c49 23 111 41 189 41c69 0 135 -16 179 -71c32 -40 50 -99 50 -187v-419c0 -12 -10 -23 -24 -23s-24 11 -24 23v31c-66 -40 -126 -54 -209 -54c-108 0 -240 48 -240 185c0 82 41 134 104 167c88 47 221 58 345 67v21c0 79 -15 128 -42 162
c-38 46 -91 56 -142 56c-78 0 -124 -22 -160 -41c-21 -11 -35 -23 -50 -23c-13 0 -22 10 -22 22zM108 177c0 -110 108 -147 204 -147c74 0 131 13 194 54v286c-104 -7 -222 -15 -300 -52c-60 -28 -98 -71 -98 -141zM447 886c0 -11 -8 -18 -18 -18h-219c-9 0 -17 7 -17 18
c0 10 8 18 17 18h219c10 0 18 -8 18 -18z" />
    <glyph glyph-name="Amacron.calt" unicode="&#xe017;" horiz-adv-x="617" 
d="M308 625l-167 -403h335zM561 10l-72 173h-361l-73 -173c-5 -13 -11 -20 -25 -20c-15 0 -22 10 -22 22c0 3 2 10 4 16l265 638c6 14 14 24 32 24c19 0 27 -11 32 -24l265 -638c2 -5 3 -12 3 -15c0 -14 -9 -23 -23 -23c-12 0 -20 7 -25 20zM435 886c0 -11 -8 -18 -18 -18
h-219c-9 0 -17 7 -17 18c0 10 8 18 17 18h219c10 0 18 -8 18 -18z" />
    <glyph glyph-name="Aogonek" unicode="&#x104;" horiz-adv-x="689" 
d="M613 393v-380c0 -12 -11 -23 -24 -23c-4 0 -7 1 -10 2c-14 -31 -24 -61 -24 -90c0 -27 7 -61 81 -61c30 0 42 8 50 8c9 0 15 -6 15 -14c0 -10 -5 -15 -16 -19c-12 -4 -34 -8 -51 -8c-89 0 -110 40 -110 85c0 36 17 83 41 125v234h-440v-239c0 -12 -11 -23 -24 -23
c-14 0 -24 11 -24 23v380c0 77 23 158 76 216c44 49 107 81 192 81c84 0 148 -32 191 -81c52 -59 77 -139 77 -216zM345 646c-69 0 -123 -28 -160 -70c-41 -48 -60 -115 -60 -184v-98h440v98c0 69 -20 136 -61 184c-37 42 -91 70 -159 70z" />
    <glyph glyph-name="Aogonek.2" unicode="&#xe018;" horiz-adv-x="691" 
d="M613 393v-380c0 -12 -11 -23 -24 -23c-4 0 -7 1 -10 2c-14 -31 -24 -61 -24 -90c0 -27 7 -61 81 -61c30 0 42 8 50 8c9 0 15 -6 15 -14c0 -10 -5 -15 -16 -19c-12 -4 -34 -8 -51 -8c-89 0 -110 40 -110 85c0 36 17 83 41 125v239h-440v-244c0 -12 -11 -23 -24 -23
c-14 0 -24 11 -24 23v380c0 77 23 158 76 216c44 49 107 81 192 81c84 0 148 -32 191 -81c52 -59 77 -139 77 -216zM345 646c-69 0 -123 -28 -160 -70c-41 -48 -60 -115 -60 -184v-92h440v92c0 69 -20 136 -61 184c-37 42 -91 70 -159 70z" />
    <glyph glyph-name="Aogonek.3" unicode="&#xe019;" horiz-adv-x="630" 
d="M90 606c0 14 17 29 46 43c49 23 111 41 189 41c69 0 135 -16 179 -71c32 -40 50 -99 50 -187v-419c0 -11 -8 -21 -20 -23c-14 -31 -24 -59 -24 -88c0 -27 7 -61 81 -61c30 0 42 8 50 8c9 0 14 -6 14 -14c0 -10 -5 -15 -15 -19c-13 -4 -34 -8 -52 -8
c-88 0 -109 40 -109 85c0 31 12 70 31 107c-3 4 -4 8 -4 13v31c-66 -40 -126 -54 -209 -54c-108 0 -240 48 -240 185c0 82 41 134 104 167c88 47 221 58 345 67v21c0 79 -15 128 -42 162c-38 46 -91 56 -142 56c-78 0 -124 -22 -160 -41c-21 -11 -35 -23 -50 -23
c-13 0 -22 10 -22 22zM108 177c0 -110 108 -147 204 -147c74 0 131 13 194 54v286c-104 -7 -222 -15 -300 -52c-60 -28 -98 -71 -98 -141z" />
    <glyph glyph-name="Aogonek.calt" unicode="&#xe01a;" horiz-adv-x="617" 
d="M524 -107c0 31 17 78 36 118l-71 172h-361l-73 -173c-5 -13 -11 -20 -25 -20c-15 0 -22 10 -22 22c0 3 2 10 4 16l265 638c6 14 14 24 32 24c19 0 27 -11 32 -24l265 -638c2 -5 3 -12 3 -15c0 -14 -9 -23 -23 -23c-3 0 -5 0 -7 1c-15 -33 -23 -62 -23 -89s7 -61 81 -61
c30 0 41 8 50 8s14 -6 14 -14c0 -10 -5 -15 -15 -19c-13 -4 -35 -8 -52 -8c-88 0 -110 40 -110 85zM308 625l-167 -403h335z" />
    <glyph glyph-name="Aring" unicode="&#xc5;" horiz-adv-x="689" 
d="M345 646c-69 0 -123 -28 -160 -70c-41 -48 -60 -115 -60 -184v-98h440v98c0 69 -20 136 -61 184c-37 42 -91 70 -159 70zM613 393v-380c0 -12 -11 -23 -24 -23c-14 0 -24 11 -24 23v239h-440v-239c0 -12 -11 -23 -24 -23c-14 0 -24 11 -24 23v380c0 77 23 158 76 216
c44 49 107 81 192 81c84 0 148 -32 191 -81c52 -59 77 -139 77 -216zM456 864c0 -63 -50 -113 -112 -113s-113 50 -113 113s51 113 113 113s112 -50 112 -113zM431 864c0 49 -39 89 -87 89s-88 -40 -88 -89s40 -88 88 -88s87 38 87 88z" />
    <glyph glyph-name="Aring.2" unicode="&#xe01b;" horiz-adv-x="691" 
d="M345 646c-69 0 -123 -28 -160 -70c-41 -48 -60 -115 -60 -184v-92h440v92c0 69 -20 136 -61 184c-37 42 -91 70 -159 70zM613 393v-380c0 -12 -11 -23 -24 -23c-14 0 -24 11 -24 23v244h-440v-244c0 -12 -11 -23 -24 -23c-14 0 -24 11 -24 23v380c0 77 23 158 76 216
c44 49 107 81 192 81c84 0 148 -32 191 -81c52 -59 77 -139 77 -216zM458 864c0 -63 -50 -113 -112 -113s-113 50 -113 113s51 113 113 113s112 -50 112 -113zM433 864c0 49 -39 89 -87 89s-88 -40 -88 -89s40 -88 88 -88s87 38 87 88z" />
    <glyph glyph-name="Aring.3" unicode="&#xe01c;" horiz-adv-x="630" 
d="M90 606c0 14 17 29 46 43c49 23 111 41 189 41c69 0 135 -16 179 -71c32 -40 50 -99 50 -187v-419c0 -12 -10 -23 -24 -23s-24 11 -24 23v31c-66 -40 -126 -54 -209 -54c-108 0 -240 48 -240 185c0 82 41 134 104 167c88 47 221 58 345 67v21c0 79 -15 128 -42 162
c-38 46 -91 56 -142 56c-78 0 -124 -22 -160 -41c-21 -11 -35 -23 -50 -23c-13 0 -22 10 -22 22zM108 177c0 -110 108 -147 204 -147c74 0 131 13 194 54v286c-104 -7 -222 -15 -300 -52c-60 -28 -98 -71 -98 -141zM430 864c0 -63 -50 -113 -112 -113s-113 50 -113 113
s51 113 113 113s112 -50 112 -113zM405 864c0 49 -39 89 -87 89s-88 -40 -88 -89s40 -88 88 -88s87 38 87 88z" />
    <glyph glyph-name="Aring.calt" unicode="&#xe01d;" horiz-adv-x="617" 
d="M308 625l-167 -403h335zM561 10l-72 173h-361l-73 -173c-5 -13 -11 -20 -25 -20c-15 0 -22 10 -22 22c0 3 2 10 4 16l265 638c6 14 14 24 32 24c19 0 27 -11 32 -24l265 -638c2 -5 3 -12 3 -15c0 -14 -9 -23 -23 -23c-12 0 -20 7 -25 20zM420 864
c0 -63 -50 -113 -112 -113s-113 50 -113 113s51 113 113 113s112 -50 112 -113zM395 864c0 49 -39 89 -87 89s-88 -40 -88 -89s40 -88 88 -88s87 38 87 88z" />
    <glyph glyph-name="Asmall" unicode="&#xf761;" horiz-adv-x="587" 
d="M294 511c-57 0 -100 -22 -129 -58c-31 -37 -45 -89 -45 -142v-74h348v74c0 53 -15 105 -45 142c-30 36 -72 58 -129 58zM511 313v-300c0 -12 -9 -21 -21 -21s-22 9 -22 21v186h-348v-186c0 -12 -10 -21 -22 -21s-22 9 -22 21v300c0 60 18 124 58 169c36 41 88 70 160 70
c71 0 124 -29 159 -70c40 -45 58 -109 58 -169z" />
    <glyph glyph-name="Asmall.2" unicode="&#xe01e;" horiz-adv-x="588" 
d="M294 511c-57 0 -100 -22 -129 -58c-31 -37 -45 -89 -45 -142v-72h348v72c0 53 -15 105 -45 142c-30 36 -72 58 -129 58zM511 313v-300c0 -12 -9 -21 -21 -21s-22 9 -22 21v189h-348v-189c0 -12 -10 -21 -22 -21s-22 9 -22 21v300c0 60 18 124 58 169c36 41 88 70 160 70
c71 0 124 -29 159 -70c40 -45 58 -109 58 -169z" />
    <glyph glyph-name="Asmall.3" unicode="&#xe01f;" horiz-adv-x="535" 
d="M61 145c0 72 41 115 97 140c76 34 183 39 258 42v14c0 60 -12 101 -33 128c-30 36 -69 44 -108 44c-43 0 -77 -10 -101 -21c-34 -14 -51 -31 -65 -31c-12 0 -21 10 -21 22c0 13 15 24 36 35c42 20 96 34 153 34c55 0 106 -13 142 -58c25 -32 40 -81 40 -151v-329
c0 -12 -9 -22 -22 -22c-12 0 -21 10 -21 22v20c-54 -32 -98 -42 -164 -42c-93 0 -191 48 -191 153zM263 30c59 0 103 11 153 42v219c-69 -3 -165 -7 -231 -36c-47 -21 -79 -54 -79 -108c0 -83 81 -117 157 -117z" />
    <glyph glyph-name="Asmall.calt" unicode="&#xe020;" horiz-adv-x="509" 
d="M453 8l-57 136h-283l-56 -136c-4 -10 -12 -16 -22 -16c-13 0 -21 9 -21 20c0 3 1 9 3 12l210 506c5 12 11 22 28 22s25 -11 29 -22l209 -506c1 -3 3 -9 3 -12c0 -11 -9 -20 -21 -20c-10 0 -19 6 -22 16zM255 491l-130 -313h259z" />
    <glyph glyph-name="Asmallacute" unicode="&#xe021;" horiz-adv-x="588" 
d="M294 511c-57 0 -100 -22 -129 -58c-31 -37 -45 -89 -45 -142v-74h348v74c0 53 -15 105 -45 142c-30 36 -72 58 -129 58zM511 313v-300c0 -12 -9 -21 -21 -21s-22 9 -22 21v186h-348v-186c0 -12 -10 -21 -22 -21s-22 9 -22 21v300c0 60 18 124 58 169c36 41 88 70 160 70
c71 0 124 -29 159 -70c40 -45 58 -109 58 -169zM228 645c0 4 2 8 4 13l88 155c4 9 11 15 19 15c11 0 19 -8 19 -18c0 -5 -1 -8 -6 -16l-91 -150c-5 -9 -10 -13 -17 -13c-9 0 -16 6 -16 14z" />
    <glyph glyph-name="Asmallacute.2" unicode="&#xe022;" horiz-adv-x="588" 
d="M294 511c-57 0 -100 -22 -129 -58c-31 -37 -45 -89 -45 -142v-72h348v72c0 53 -15 105 -45 142c-30 36 -72 58 -129 58zM511 313v-300c0 -12 -9 -21 -21 -21s-22 9 -22 21v189h-348v-189c0 -12 -10 -21 -22 -21s-22 9 -22 21v300c0 60 18 124 58 169c36 41 88 70 160 70
c71 0 124 -29 159 -70c40 -45 58 -109 58 -169zM234 645c0 4 2 8 4 13l88 155c4 9 11 15 19 15c11 0 19 -8 19 -18c0 -5 -1 -8 -6 -16l-91 -150c-5 -9 -10 -13 -17 -13c-9 0 -16 6 -16 14z" />
    <glyph glyph-name="Asmallacute.3" unicode="&#xe023;" horiz-adv-x="535" 
d="M61 145c0 72 41 115 97 140c76 34 183 39 258 42v14c0 60 -12 101 -33 128c-30 36 -69 44 -108 44c-43 0 -77 -10 -101 -21c-34 -14 -51 -31 -65 -31c-12 0 -21 10 -21 22c0 13 15 24 36 35c42 20 96 34 153 34c55 0 106 -13 142 -58c25 -32 40 -81 40 -151v-329
c0 -12 -9 -22 -22 -22c-12 0 -21 10 -21 22v20c-54 -32 -98 -42 -164 -42c-93 0 -191 48 -191 153zM263 30c59 0 103 11 153 42v219c-69 -3 -165 -7 -231 -36c-47 -21 -79 -54 -79 -108c0 -83 81 -117 157 -117zM211 645c0 4 2 8 4 13l88 155c4 9 11 15 19 15
c11 0 19 -8 19 -18c0 -5 -1 -8 -6 -16l-91 -150c-5 -9 -10 -13 -17 -13c-9 0 -16 6 -16 14z" />
    <glyph glyph-name="Asmallacute.calt" unicode="&#xe024;" horiz-adv-x="509" 
d="M453 8l-57 136h-283l-56 -136c-4 -10 -12 -16 -22 -16c-13 0 -21 9 -21 20c0 3 1 9 3 12l210 506c5 12 11 22 28 22s25 -11 29 -22l209 -506c1 -3 3 -9 3 -12c0 -11 -9 -20 -21 -20c-10 0 -19 6 -22 16zM255 491l-130 -313h259zM180 645c0 4 2 8 4 13l88 155
c4 9 11 15 19 15c11 0 19 -8 19 -18c0 -5 -1 -8 -6 -16l-91 -150c-5 -9 -10 -13 -17 -13c-9 0 -16 6 -16 14z" />
    <glyph glyph-name="Asmallbreve" unicode="&#xe025;" horiz-adv-x="587" 
d="M294 511c-57 0 -100 -22 -129 -58c-31 -37 -45 -89 -45 -142v-74h348v74c0 53 -15 105 -45 142c-30 36 -72 58 -129 58zM511 313v-300c0 -12 -9 -21 -21 -21s-22 9 -22 21v186h-348v-186c0 -12 -10 -21 -22 -21s-22 9 -22 21v300c0 60 18 124 58 169c36 41 88 70 160 70
c71 0 124 -29 159 -70c40 -45 58 -109 58 -169zM294 688c37 0 62 17 82 44c16 22 24 43 36 43c10 0 18 -7 18 -16c0 -31 -54 -105 -136 -105s-136 74 -136 105c0 9 8 16 18 16c12 0 20 -21 36 -43c19 -26 45 -44 82 -44z" />
    <glyph glyph-name="Asmallbreve.2" unicode="&#xe026;" horiz-adv-x="588" 
d="M294 511c-57 0 -100 -22 -129 -58c-31 -37 -45 -89 -45 -142v-72h348v72c0 53 -15 105 -45 142c-30 36 -72 58 -129 58zM511 313v-300c0 -12 -9 -21 -21 -21s-22 9 -22 21v189h-348v-189c0 -12 -10 -21 -22 -21s-22 9 -22 21v300c0 60 18 124 58 169c36 41 88 70 160 70
c71 0 124 -29 159 -70c40 -45 58 -109 58 -169zM294 688c37 0 62 17 82 44c16 22 24 43 36 43c10 0 18 -7 18 -16c0 -31 -54 -105 -136 -105s-136 74 -136 105c0 9 8 16 18 16c12 0 20 -21 36 -43c19 -26 45 -44 82 -44z" />
    <glyph glyph-name="Asmallbreve.3" unicode="&#xe027;" horiz-adv-x="535" 
d="M61 145c0 72 41 115 97 140c76 34 183 39 258 42v14c0 60 -12 101 -33 128c-30 36 -69 44 -108 44c-43 0 -77 -10 -101 -21c-34 -14 -51 -31 -65 -31c-12 0 -21 10 -21 22c0 13 15 24 36 35c42 20 96 34 153 34c55 0 106 -13 142 -58c25 -32 40 -81 40 -151v-329
c0 -12 -9 -22 -22 -22c-12 0 -21 10 -21 22v20c-54 -32 -98 -42 -164 -42c-93 0 -191 48 -191 153zM263 30c59 0 103 11 153 42v219c-69 -3 -165 -7 -231 -36c-47 -21 -79 -54 -79 -108c0 -83 81 -117 157 -117zM271 688c37 0 62 17 82 44c16 22 24 43 36 43
c10 0 18 -7 18 -16c0 -31 -54 -105 -136 -105s-136 74 -136 105c0 9 8 16 18 16c12 0 20 -21 36 -43c19 -26 45 -44 82 -44z" />
    <glyph glyph-name="Asmallbreve.calt" unicode="&#xe028;" horiz-adv-x="509" 
d="M453 8l-57 136h-283l-56 -136c-4 -10 -12 -16 -22 -16c-13 0 -21 9 -21 20c0 3 1 9 3 12l210 506c5 12 11 22 28 22s25 -11 29 -22l209 -506c1 -3 3 -9 3 -12c0 -11 -9 -20 -21 -20c-10 0 -19 6 -22 16zM255 491l-130 -313h259zM251 688c37 0 62 17 82 44
c16 22 24 43 36 43c10 0 18 -7 18 -16c0 -31 -54 -105 -136 -105s-136 74 -136 105c0 9 8 16 18 16c12 0 20 -21 36 -43c19 -26 45 -44 82 -44z" />
    <glyph glyph-name="Asmallcircumflex" unicode="&#xe029;" horiz-adv-x="588" 
d="M294 511c-57 0 -100 -22 -129 -58c-31 -37 -45 -89 -45 -142v-74h348v74c0 53 -15 105 -45 142c-30 36 -72 58 -129 58zM511 313v-300c0 -12 -9 -21 -21 -21s-22 9 -22 21v186h-348v-186c0 -12 -10 -21 -22 -21s-22 9 -22 21v300c0 60 18 124 58 169c36 41 88 70 160 70
c71 0 124 -29 159 -70c40 -45 58 -109 58 -169zM293 827c8 0 14 -4 18 -9l131 -140c5 -5 8 -10 8 -15c0 -10 -8 -17 -17 -17c-5 0 -9 2 -13 6l-127 134l-127 -134c-4 -4 -8 -6 -13 -6c-9 0 -16 7 -16 17c0 5 2 10 7 15l132 140c4 5 10 9 17 9z" />
    <glyph glyph-name="Asmallcircumflex.2" unicode="&#xe02a;" horiz-adv-x="588" 
d="M294 511c-57 0 -100 -22 -129 -58c-31 -37 -45 -89 -45 -142v-72h348v72c0 53 -15 105 -45 142c-30 36 -72 58 -129 58zM511 313v-300c0 -12 -9 -21 -21 -21s-22 9 -22 21v189h-348v-189c0 -12 -10 -21 -22 -21s-22 9 -22 21v300c0 60 18 124 58 169c36 41 88 70 160 70
c71 0 124 -29 159 -70c40 -45 58 -109 58 -169zM296 827c8 0 14 -4 18 -9l131 -140c5 -5 8 -10 8 -15c0 -10 -8 -17 -17 -17c-5 0 -9 2 -13 6l-127 134l-127 -134c-4 -4 -8 -6 -13 -6c-9 0 -16 7 -16 17c0 5 2 10 7 15l132 140c4 5 10 9 17 9z" />
    <glyph glyph-name="Asmallcircumflex.3" unicode="&#xe02b;" horiz-adv-x="535" 
d="M61 145c0 72 41 115 97 140c76 34 183 39 258 42v14c0 60 -12 101 -33 128c-30 36 -69 44 -108 44c-43 0 -77 -10 -101 -21c-34 -14 -51 -31 -65 -31c-12 0 -21 10 -21 22c0 13 15 24 36 35c42 20 96 34 153 34c55 0 106 -13 142 -58c25 -32 40 -81 40 -151v-329
c0 -12 -9 -22 -22 -22c-12 0 -21 10 -21 22v20c-54 -32 -98 -42 -164 -42c-93 0 -191 48 -191 153zM263 30c59 0 103 11 153 42v219c-69 -3 -165 -7 -231 -36c-47 -21 -79 -54 -79 -108c0 -83 81 -117 157 -117zM266 827c8 0 14 -4 18 -9l131 -140c5 -5 8 -10 8 -15
c0 -10 -8 -17 -17 -17c-5 0 -9 2 -13 6l-127 134l-127 -134c-4 -4 -8 -6 -13 -6c-9 0 -16 7 -16 17c0 5 2 10 7 15l132 140c4 5 10 9 17 9z" />
    <glyph glyph-name="Asmallcircumflex.calt" unicode="&#xe02c;" horiz-adv-x="509" 
d="M453 8l-57 136h-283l-56 -136c-4 -10 -12 -16 -22 -16c-13 0 -21 9 -21 20c0 3 1 9 3 12l210 506c5 12 11 22 28 22s25 -11 29 -22l209 -506c1 -3 3 -9 3 -12c0 -11 -9 -20 -21 -20c-10 0 -19 6 -22 16zM255 491l-130 -313h259zM254 827c8 0 14 -4 18 -9l131 -140
c5 -5 8 -10 8 -15c0 -10 -8 -17 -17 -17c-5 0 -9 2 -13 6l-127 134l-127 -134c-4 -4 -8 -6 -13 -6c-9 0 -16 7 -16 17c0 5 2 10 7 15l132 140c4 5 10 9 17 9z" />
    <glyph glyph-name="Asmalldieresis" unicode="&#xe02d;" horiz-adv-x="588" 
d="M294 511c-57 0 -100 -22 -129 -58c-31 -37 -45 -89 -45 -142v-74h348v74c0 53 -15 105 -45 142c-30 36 -72 58 -129 58zM511 313v-300c0 -12 -9 -21 -21 -21s-22 9 -22 21v186h-348v-186c0 -12 -10 -21 -22 -21s-22 9 -22 21v300c0 60 18 124 58 169c36 41 88 70 160 70
c71 0 124 -29 159 -70c40 -45 58 -109 58 -169zM211 703c-16 0 -28 12 -28 28c0 15 12 27 28 27c15 0 28 -12 28 -27c0 -16 -13 -28 -28 -28zM377 703c-16 0 -28 12 -28 28c0 15 12 27 28 27c15 0 27 -12 27 -27c0 -16 -12 -28 -27 -28z" />
    <glyph glyph-name="Asmalldieresis.2" unicode="&#xe02e;" horiz-adv-x="588" 
d="M294 511c-57 0 -100 -22 -129 -58c-31 -37 -45 -89 -45 -142v-72h348v72c0 53 -15 105 -45 142c-30 36 -72 58 -129 58zM511 313v-300c0 -12 -9 -21 -21 -21s-22 9 -22 21v189h-348v-189c0 -12 -10 -21 -22 -21s-22 9 -22 21v300c0 60 18 124 58 169c36 41 88 70 160 70
c71 0 124 -29 159 -70c40 -45 58 -109 58 -169zM214 703c-16 0 -28 12 -28 28c0 15 12 27 28 27c15 0 28 -12 28 -27c0 -16 -13 -28 -28 -28zM380 703c-16 0 -28 12 -28 28c0 15 12 27 28 27c15 0 27 -12 27 -27c0 -16 -12 -28 -27 -28z" />
    <glyph glyph-name="Asmalldieresis.3" unicode="&#xe02f;" horiz-adv-x="535" 
d="M61 145c0 72 41 115 97 140c76 34 183 39 258 42v14c0 60 -12 101 -33 128c-30 36 -69 44 -108 44c-43 0 -77 -10 -101 -21c-34 -14 -51 -31 -65 -31c-12 0 -21 10 -21 22c0 13 15 24 36 35c42 20 96 34 153 34c55 0 106 -13 142 -58c25 -32 40 -81 40 -151v-329
c0 -12 -9 -22 -22 -22c-12 0 -21 10 -21 22v20c-54 -32 -98 -42 -164 -42c-93 0 -191 48 -191 153zM263 30c59 0 103 11 153 42v219c-69 -3 -165 -7 -231 -36c-47 -21 -79 -54 -79 -108c0 -83 81 -117 157 -117zM188 703c-16 0 -28 12 -28 28c0 15 12 27 28 27
c15 0 28 -12 28 -27c0 -16 -13 -28 -28 -28zM354 703c-16 0 -28 12 -28 28c0 15 12 27 28 27c15 0 27 -12 27 -27c0 -16 -12 -28 -27 -28z" />
    <glyph glyph-name="Asmalldieresis.calt" unicode="&#xe030;" horiz-adv-x="509" 
d="M453 8l-57 136h-283l-56 -136c-4 -10 -12 -16 -22 -16c-13 0 -21 9 -21 20c0 3 1 9 3 12l210 506c5 12 11 22 28 22s25 -11 29 -22l209 -506c1 -3 3 -9 3 -12c0 -11 -9 -20 -21 -20c-10 0 -19 6 -22 16zM255 491l-130 -313h259zM172 703c-16 0 -28 12 -28 28
c0 15 12 27 28 27c15 0 28 -12 28 -27c0 -16 -13 -28 -28 -28zM338 703c-16 0 -28 12 -28 28c0 15 12 27 28 27c15 0 27 -12 27 -27c0 -16 -12 -28 -27 -28z" />
    <glyph glyph-name="Asmallgrave" unicode="&#xe031;" horiz-adv-x="588" 
d="M294 511c-57 0 -100 -22 -129 -58c-31 -37 -45 -89 -45 -142v-74h348v74c0 53 -15 105 -45 142c-30 36 -72 58 -129 58zM511 313v-300c0 -12 -9 -21 -21 -21s-22 9 -22 21v186h-348v-186c0 -12 -10 -21 -22 -21s-22 9 -22 21v300c0 60 18 124 58 169c36 41 88 70 160 70
c71 0 124 -29 159 -70c40 -45 58 -109 58 -169zM358 645c0 -8 -7 -14 -15 -14s-13 4 -18 13l-91 150c-5 8 -6 11 -6 16c0 10 8 18 19 18c8 0 14 -6 19 -15l88 -155c3 -5 4 -9 4 -13z" />
    <glyph glyph-name="Asmallgrave.2" unicode="&#xe032;" horiz-adv-x="588" 
d="M294 511c-57 0 -100 -22 -129 -58c-31 -37 -45 -89 -45 -142v-72h348v72c0 53 -15 105 -45 142c-30 36 -72 58 -129 58zM511 313v-300c0 -12 -9 -21 -21 -21s-22 9 -22 21v189h-348v-189c0 -12 -10 -21 -22 -21s-22 9 -22 21v300c0 60 18 124 58 169c36 41 88 70 160 70
c71 0 124 -29 159 -70c40 -45 58 -109 58 -169zM362 645c0 -8 -7 -14 -15 -14s-13 4 -18 13l-91 150c-5 8 -6 11 -6 16c0 10 8 18 19 18c8 0 14 -6 19 -15l88 -155c3 -5 4 -9 4 -13z" />
    <glyph glyph-name="Asmallgrave.3" unicode="&#xe033;" horiz-adv-x="535" 
d="M61 145c0 72 41 115 97 140c76 34 183 39 258 42v14c0 60 -12 101 -33 128c-30 36 -69 44 -108 44c-43 0 -77 -10 -101 -21c-34 -14 -51 -31 -65 -31c-12 0 -21 10 -21 22c0 13 15 24 36 35c42 20 96 34 153 34c55 0 106 -13 142 -58c25 -32 40 -81 40 -151v-329
c0 -12 -9 -22 -22 -22c-12 0 -21 10 -21 22v20c-54 -32 -98 -42 -164 -42c-93 0 -191 48 -191 153zM263 30c59 0 103 11 153 42v219c-69 -3 -165 -7 -231 -36c-47 -21 -79 -54 -79 -108c0 -83 81 -117 157 -117zM345 645c0 -8 -7 -14 -15 -14s-13 4 -18 13l-91 150
c-5 8 -6 11 -6 16c0 10 8 18 19 18c8 0 14 -6 19 -15l88 -155c3 -5 4 -9 4 -13z" />
    <glyph glyph-name="Asmallgrave.calt" unicode="&#xe034;" horiz-adv-x="509" 
d="M453 8l-57 136h-283l-56 -136c-4 -10 -12 -16 -22 -16c-13 0 -21 9 -21 20c0 3 1 9 3 12l210 506c5 12 11 22 28 22s25 -11 29 -22l209 -506c1 -3 3 -9 3 -12c0 -11 -9 -20 -21 -20c-10 0 -19 6 -22 16zM255 491l-130 -313h259zM326 645c0 -8 -7 -14 -15 -14
s-13 4 -18 13l-91 150c-5 8 -6 11 -6 16c0 10 8 18 19 18c8 0 14 -6 19 -15l88 -155c3 -5 4 -9 4 -13z" />
    <glyph glyph-name="Asmallmacron" unicode="&#xe035;" horiz-adv-x="588" 
d="M294 511c-57 0 -100 -22 -129 -58c-31 -37 -45 -89 -45 -142v-74h348v74c0 53 -15 105 -45 142c-30 36 -72 58 -129 58zM511 313v-300c0 -12 -9 -21 -21 -21s-22 9 -22 21v186h-348v-186c0 -12 -10 -21 -22 -21s-22 9 -22 21v300c0 60 18 124 58 169c36 41 88 70 160 70
c71 0 124 -29 159 -70c40 -45 58 -109 58 -169zM421 723c0 -11 -8 -18 -18 -18h-219c-9 0 -17 7 -17 18c0 10 8 18 17 18h219c10 0 18 -8 18 -18z" />
    <glyph glyph-name="Asmallmacron.2" unicode="&#xe036;" horiz-adv-x="588" 
d="M294 511c-57 0 -100 -22 -129 -58c-31 -37 -45 -89 -45 -142v-72h348v72c0 53 -15 105 -45 142c-30 36 -72 58 -129 58zM511 313v-300c0 -12 -9 -21 -21 -21s-22 9 -22 21v189h-348v-189c0 -12 -10 -21 -22 -21s-22 9 -22 21v300c0 60 18 124 58 169c36 41 88 70 160 70
c71 0 124 -29 159 -70c40 -45 58 -109 58 -169zM424 723c0 -11 -8 -18 -18 -18h-219c-9 0 -17 7 -17 18c0 10 8 18 17 18h219c10 0 18 -8 18 -18z" />
    <glyph glyph-name="Asmallmacron.3" unicode="&#xe037;" horiz-adv-x="535" 
d="M61 145c0 72 41 115 97 140c76 34 183 39 258 42v14c0 60 -12 101 -33 128c-30 36 -69 44 -108 44c-43 0 -77 -10 -101 -21c-34 -14 -51 -31 -65 -31c-12 0 -21 10 -21 22c0 13 15 24 36 35c42 20 96 34 153 34c55 0 106 -13 142 -58c25 -32 40 -81 40 -151v-329
c0 -12 -9 -22 -22 -22c-12 0 -21 10 -21 22v20c-54 -32 -98 -42 -164 -42c-93 0 -191 48 -191 153zM263 30c59 0 103 11 153 42v219c-69 -3 -165 -7 -231 -36c-47 -21 -79 -54 -79 -108c0 -83 81 -117 157 -117zM401 723c0 -11 -8 -18 -18 -18h-219c-9 0 -17 7 -17 18
c0 10 8 18 17 18h219c10 0 18 -8 18 -18z" />
    <glyph glyph-name="Asmallmacron.calt" unicode="&#xe038;" horiz-adv-x="509" 
d="M453 8l-57 136h-283l-56 -136c-4 -10 -12 -16 -22 -16c-13 0 -21 9 -21 20c0 3 1 9 3 12l210 506c5 12 11 22 28 22s25 -11 29 -22l209 -506c1 -3 3 -9 3 -12c0 -11 -9 -20 -21 -20c-10 0 -19 6 -22 16zM255 491l-130 -313h259zM382 723c0 -11 -8 -18 -18 -18h-219
c-9 0 -17 7 -17 18c0 10 8 18 17 18h219c10 0 18 -8 18 -18z" />
    <glyph glyph-name="Asmallogonek" unicode="&#xe039;" horiz-adv-x="588" 
d="M511 313v-300c0 -11 -8 -20 -19 -21c-14 -33 -24 -64 -24 -90c0 -27 7 -61 81 -61c30 0 42 8 50 8c9 0 14 -6 14 -14c0 -10 -5 -15 -15 -19c-13 -4 -34 -8 -52 -8c-88 0 -109 40 -109 85c0 27 12 70 33 111c-2 2 -2 6 -2 9v186h-348v-186c0 -12 -10 -21 -22 -21
s-22 9 -22 21v300c0 60 18 124 58 169c36 41 88 70 160 70c71 0 124 -29 159 -70c40 -45 58 -109 58 -169zM294 511c-57 0 -100 -22 -129 -58c-31 -37 -45 -89 -45 -142v-74h348v74c0 53 -15 105 -45 142c-30 36 -72 58 -129 58z" />
    <glyph glyph-name="Asmallogonek.2" unicode="&#xe03a;" horiz-adv-x="588" 
d="M511 313v-300c0 -11 -8 -20 -19 -21c-14 -33 -24 -64 -24 -90c0 -27 7 -61 81 -61c30 0 42 8 50 8c9 0 14 -6 14 -14c0 -10 -5 -15 -15 -19c-13 -4 -34 -8 -52 -8c-88 0 -109 40 -109 85c0 27 12 70 33 111c-2 2 -2 6 -2 9v189h-348v-189c0 -12 -10 -21 -22 -21
s-22 9 -22 21v300c0 60 18 124 58 169c36 41 88 70 160 70c71 0 124 -29 159 -70c40 -45 58 -109 58 -169zM294 511c-57 0 -100 -22 -129 -58c-31 -37 -45 -89 -45 -142v-72h348v72c0 53 -15 105 -45 142c-30 36 -72 58 -129 58z" />
    <glyph glyph-name="Asmallogonek.3" unicode="&#xe03b;" horiz-adv-x="535" 
d="M277 552c55 0 106 -13 142 -58c25 -32 40 -81 40 -151v-329c0 -11 -7 -19 -17 -21c-14 -32 -24 -61 -24 -91c0 -27 7 -61 81 -61c29 0 41 8 50 8s14 -6 14 -14c0 -10 -5 -15 -15 -19c-13 -4 -35 -8 -52 -8c-89 0 -110 40 -110 85c0 32 14 71 33 109c-2 4 -3 8 -3 12v20
c-54 -32 -98 -42 -164 -42c-93 0 -191 48 -191 153c0 72 41 115 97 140c76 34 183 39 258 42v14c0 60 -12 101 -33 128c-30 36 -69 44 -108 44c-43 0 -77 -10 -101 -21c-34 -14 -51 -31 -65 -31c-12 0 -21 10 -21 22c0 13 15 24 36 35c42 20 96 34 153 34zM263 30
c59 0 103 11 153 42v219c-69 -3 -165 -7 -231 -36c-47 -21 -79 -54 -79 -108c0 -83 81 -117 157 -117z" />
    <glyph glyph-name="Asmallogonek.calt" unicode="&#xe03c;" horiz-adv-x="509" 
d="M453 8l-57 136h-283l-56 -136c-4 -10 -12 -16 -22 -16c-13 0 -21 9 -21 20c0 3 1 9 3 12l210 506c5 12 11 22 28 22s25 -11 29 -22l209 -506c1 -3 3 -9 3 -12c0 -11 -9 -20 -21 -20c-14 -33 -24 -64 -24 -90c0 -27 7 -61 81 -61c30 0 42 8 50 8c9 0 14 -6 14 -14
c0 -10 -5 -15 -15 -19c-13 -4 -34 -8 -52 -8c-88 0 -109 40 -109 85c0 27 13 71 34 112c-1 1 -1 2 -1 3zM255 491l-130 -313h259z" />
    <glyph glyph-name="Asmallring" unicode="&#xe03d;" horiz-adv-x="588" 
d="M294 511c-57 0 -100 -22 -129 -58c-31 -37 -45 -89 -45 -142v-74h348v74c0 53 -15 105 -45 142c-30 36 -72 58 -129 58zM511 313v-300c0 -12 -9 -21 -21 -21s-22 9 -22 21v186h-348v-186c0 -12 -10 -21 -22 -21s-22 9 -22 21v300c0 60 18 124 58 169c36 41 88 70 160 70
c71 0 124 -29 159 -70c40 -45 58 -109 58 -169zM406 719c0 -63 -50 -113 -112 -113s-113 50 -113 113s51 113 113 113s112 -50 112 -113zM381 719c0 49 -39 89 -87 89s-88 -40 -88 -89s40 -88 88 -88s87 38 87 88z" />
    <glyph glyph-name="Asmallring.2" unicode="&#xe03e;" horiz-adv-x="588" 
d="M294 511c-57 0 -100 -22 -129 -58c-31 -37 -45 -89 -45 -142v-72h348v72c0 53 -15 105 -45 142c-30 36 -72 58 -129 58zM511 313v-300c0 -12 -9 -21 -21 -21s-22 9 -22 21v189h-348v-189c0 -12 -10 -21 -22 -21s-22 9 -22 21v300c0 60 18 124 58 169c36 41 88 70 160 70
c71 0 124 -29 159 -70c40 -45 58 -109 58 -169zM409 719c0 -63 -50 -113 -112 -113s-113 50 -113 113s51 113 113 113s112 -50 112 -113zM384 719c0 49 -39 89 -87 89s-88 -40 -88 -89s40 -88 88 -88s87 38 87 88z" />
    <glyph glyph-name="Asmallring.3" unicode="&#xe03f;" horiz-adv-x="535" 
d="M61 145c0 72 41 115 97 140c76 34 183 39 258 42v14c0 60 -12 101 -33 128c-30 36 -69 44 -108 44c-43 0 -77 -10 -101 -21c-34 -14 -51 -31 -65 -31c-12 0 -21 10 -21 22c0 13 15 24 36 35c42 20 96 34 153 34c55 0 106 -13 142 -58c25 -32 40 -81 40 -151v-329
c0 -12 -9 -22 -22 -22c-12 0 -21 10 -21 22v20c-54 -32 -98 -42 -164 -42c-93 0 -191 48 -191 153zM263 30c59 0 103 11 153 42v219c-69 -3 -165 -7 -231 -36c-47 -21 -79 -54 -79 -108c0 -83 81 -117 157 -117zM385 719c0 -63 -50 -113 -112 -113s-113 50 -113 113
s51 113 113 113s112 -50 112 -113zM360 719c0 49 -39 89 -87 89s-88 -40 -88 -89s40 -88 88 -88s87 38 87 88z" />
    <glyph glyph-name="Asmallring.calt" unicode="&#xe040;" horiz-adv-x="509" 
d="M453 8l-57 136h-283l-56 -136c-4 -10 -12 -16 -22 -16c-13 0 -21 9 -21 20c0 3 1 9 3 12l210 506c5 12 11 22 28 22s25 -11 29 -22l209 -506c1 -3 3 -9 3 -12c0 -11 -9 -20 -21 -20c-10 0 -19 6 -22 16zM255 491l-130 -313h259zM367 719c0 -63 -50 -113 -112 -113
s-113 50 -113 113s51 113 113 113s112 -50 112 -113zM342 719c0 49 -39 89 -87 89s-88 -40 -88 -89s40 -88 88 -88s87 38 87 88z" />
    <glyph glyph-name="Asmalltilde" unicode="&#xe041;" horiz-adv-x="588" 
d="M294 511c-57 0 -100 -22 -129 -58c-31 -37 -45 -89 -45 -142v-74h348v74c0 53 -15 105 -45 142c-30 36 -72 58 -129 58zM511 313v-300c0 -12 -9 -21 -21 -21s-22 9 -22 21v186h-348v-186c0 -12 -10 -21 -22 -21s-22 9 -22 21v300c0 60 18 124 58 169c36 41 88 70 160 70
c71 0 124 -29 159 -70c40 -45 58 -109 58 -169zM450 742c0 -12 -10 -25 -21 -35c-15 -14 -41 -23 -67 -23c-28 0 -50 14 -72 27c-20 13 -40 26 -65 26c-48 0 -51 -42 -71 -42c-9 0 -16 7 -16 17c0 12 11 25 20 34c16 15 42 24 67 24c31 0 54 -13 74 -25
c22 -14 40 -27 64 -27c47 0 53 41 70 41c10 0 17 -7 17 -17z" />
    <glyph glyph-name="Asmalltilde.2" unicode="&#xe042;" horiz-adv-x="588" 
d="M294 511c-57 0 -100 -22 -129 -58c-31 -37 -45 -89 -45 -142v-72h348v72c0 53 -15 105 -45 142c-30 36 -72 58 -129 58zM511 313v-300c0 -12 -9 -21 -21 -21s-22 9 -22 21v189h-348v-189c0 -12 -10 -21 -22 -21s-22 9 -22 21v300c0 60 18 124 58 169c36 41 88 70 160 70
c71 0 124 -29 159 -70c40 -45 58 -109 58 -169zM453 742c0 -12 -10 -25 -21 -35c-15 -14 -41 -23 -67 -23c-28 0 -50 14 -72 27c-20 13 -40 26 -65 26c-48 0 -51 -42 -71 -42c-9 0 -16 7 -16 17c0 12 11 25 20 34c16 15 42 24 67 24c31 0 54 -13 74 -25
c22 -14 40 -27 64 -27c47 0 53 41 70 41c10 0 17 -7 17 -17z" />
    <glyph glyph-name="Asmalltilde.3" unicode="&#xe043;" horiz-adv-x="535" 
d="M61 145c0 72 41 115 97 140c76 34 183 39 258 42v14c0 60 -12 101 -33 128c-30 36 -69 44 -108 44c-43 0 -77 -10 -101 -21c-34 -14 -51 -31 -65 -31c-12 0 -21 10 -21 22c0 13 15 24 36 35c42 20 96 34 153 34c55 0 106 -13 142 -58c25 -32 40 -81 40 -151v-329
c0 -12 -9 -22 -22 -22c-12 0 -21 10 -21 22v20c-54 -32 -98 -42 -164 -42c-93 0 -191 48 -191 153zM263 30c59 0 103 11 153 42v219c-69 -3 -165 -7 -231 -36c-47 -21 -79 -54 -79 -108c0 -83 81 -117 157 -117zM425 742c0 -12 -10 -25 -21 -35c-15 -14 -41 -23 -67 -23
c-28 0 -50 14 -72 27c-20 13 -40 26 -65 26c-48 0 -51 -42 -71 -42c-9 0 -16 7 -16 17c0 12 11 25 20 34c16 15 42 24 67 24c31 0 54 -13 74 -25c22 -14 40 -27 64 -27c47 0 53 41 70 41c10 0 17 -7 17 -17z" />
    <glyph glyph-name="Asmalltilde.calt" unicode="&#xe044;" horiz-adv-x="509" 
d="M453 8l-57 136h-283l-56 -136c-4 -10 -12 -16 -22 -16c-13 0 -21 9 -21 20c0 3 1 9 3 12l210 506c5 12 11 22 28 22s25 -11 29 -22l209 -506c1 -3 3 -9 3 -12c0 -11 -9 -20 -21 -20c-10 0 -19 6 -22 16zM255 491l-130 -313h259zM410 742c0 -12 -10 -25 -21 -35
c-15 -14 -41 -23 -67 -23c-28 0 -50 14 -72 27c-20 13 -40 26 -65 26c-48 0 -51 -42 -71 -42c-9 0 -16 7 -16 17c0 12 11 25 20 34c16 15 42 24 67 24c31 0 54 -13 74 -25c22 -14 40 -27 64 -27c47 0 53 41 70 41c10 0 17 -7 17 -17z" />
    <glyph glyph-name="Atilde" unicode="&#xc3;" horiz-adv-x="689" 
d="M345 646c-69 0 -123 -28 -160 -70c-41 -48 -60 -115 -60 -184v-98h440v98c0 69 -20 136 -61 184c-37 42 -91 70 -159 70zM613 393v-380c0 -12 -11 -23 -24 -23c-14 0 -24 11 -24 23v239h-440v-239c0 -12 -11 -23 -24 -23c-14 0 -24 11 -24 23v380c0 77 23 158 76 216
c44 49 107 81 192 81c84 0 148 -32 191 -81c52 -59 77 -139 77 -216zM501 917c0 -12 -10 -25 -21 -35c-15 -14 -41 -23 -67 -23c-28 0 -50 14 -72 27c-20 13 -40 26 -65 26c-48 0 -51 -42 -71 -42c-9 0 -16 7 -16 17c0 12 11 25 20 34c16 15 42 24 67 24c31 0 54 -13 74 -25
c22 -14 40 -27 64 -27c47 0 53 41 70 41c10 0 17 -7 17 -17z" />
    <glyph glyph-name="Atilde.2" unicode="&#xe045;" horiz-adv-x="691" 
d="M345 646c-69 0 -123 -28 -160 -70c-41 -48 -60 -115 -60 -184v-92h440v92c0 69 -20 136 -61 184c-37 42 -91 70 -159 70zM613 393v-380c0 -12 -11 -23 -24 -23c-14 0 -24 11 -24 23v244h-440v-244c0 -12 -11 -23 -24 -23c-14 0 -24 11 -24 23v380c0 77 23 158 76 216
c44 49 107 81 192 81c84 0 148 -32 191 -81c52 -59 77 -139 77 -216zM501 917c0 -12 -10 -25 -21 -35c-15 -14 -41 -23 -67 -23c-28 0 -50 14 -72 27c-20 13 -40 26 -65 26c-48 0 -51 -42 -71 -42c-9 0 -16 7 -16 17c0 12 11 25 20 34c16 15 42 24 67 24c31 0 54 -13 74 -25
c22 -14 40 -27 64 -27c47 0 53 41 70 41c10 0 17 -7 17 -17z" />
    <glyph glyph-name="Atilde.3" unicode="&#xe046;" horiz-adv-x="630" 
d="M90 606c0 14 17 29 46 43c49 23 111 41 189 41c69 0 135 -16 179 -71c32 -40 50 -99 50 -187v-419c0 -12 -10 -23 -24 -23s-24 11 -24 23v31c-66 -40 -126 -54 -209 -54c-108 0 -240 48 -240 185c0 82 41 134 104 167c88 47 221 58 345 67v21c0 79 -15 128 -42 162
c-38 46 -91 56 -142 56c-78 0 -124 -22 -160 -41c-21 -11 -35 -23 -50 -23c-13 0 -22 10 -22 22zM108 177c0 -110 108 -147 204 -147c74 0 131 13 194 54v286c-104 -7 -222 -15 -300 -52c-60 -28 -98 -71 -98 -141zM474 917c0 -12 -10 -25 -21 -35c-15 -14 -41 -23 -67 -23
c-28 0 -50 14 -72 27c-20 13 -40 26 -65 26c-48 0 -51 -42 -71 -42c-9 0 -16 7 -16 17c0 12 11 25 20 34c16 15 42 24 67 24c31 0 54 -13 74 -25c22 -14 40 -27 64 -27c47 0 53 41 70 41c10 0 17 -7 17 -17z" />
    <glyph glyph-name="Atilde.calt" unicode="&#xe047;" horiz-adv-x="617" 
d="M308 625l-167 -403h335zM561 10l-72 173h-361l-73 -173c-5 -13 -11 -20 -25 -20c-15 0 -22 10 -22 22c0 3 2 10 4 16l265 638c6 14 14 24 32 24c19 0 27 -11 32 -24l265 -638c2 -5 3 -12 3 -15c0 -14 -9 -23 -23 -23c-12 0 -20 7 -25 20zM463 917c0 -12 -10 -25 -21 -35
c-15 -14 -41 -23 -67 -23c-28 0 -50 14 -72 27c-20 13 -40 26 -65 26c-48 0 -51 -42 -71 -42c-9 0 -16 7 -16 17c0 12 11 25 20 34c16 15 42 24 67 24c31 0 54 -13 74 -25c22 -14 40 -27 64 -27c47 0 53 41 70 41c10 0 17 -7 17 -17z" />
    <glyph glyph-name="B" unicode="B" horiz-adv-x="640" 
d="M588 180c0 -127 -108 -180 -225 -180h-261c-13 0 -24 11 -24 23v635c0 12 11 23 24 23h223c106 0 207 -53 207 -173c0 -81 -39 -129 -92 -152v-2c96 -17 148 -85 148 -174zM483 504c0 94 -77 137 -163 137h-194v-275h214c80 0 143 41 143 138zM540 185
c0 75 -52 141 -159 141h-255v-286h230c97 0 183 39 184 145z" />
    <glyph glyph-name="B.2" unicode="&#xe048;" horiz-adv-x="674" 
d="M622 180c0 -127 -108 -180 -225 -180h-295c-13 0 -24 11 -24 23v635c0 12 11 23 24 23h257c106 0 207 -53 207 -173c0 -81 -39 -129 -92 -152v-2c96 -17 148 -85 148 -174zM517 504c0 94 -77 137 -163 137h-228v-275h248c80 0 143 41 143 138zM574 185
c0 75 -52 141 -159 141h-289v-286h264c97 0 183 39 184 145z" />
    <glyph glyph-name="Bsmall" unicode="&#xf762;" horiz-adv-x="540" 
d="M494 146c0 -108 -85 -146 -184 -146h-212c-12 0 -22 9 -22 21v502c0 12 8 21 21 21h181c92 0 171 -42 171 -139c0 -59 -29 -101 -72 -122c76 -14 117 -69 117 -137zM405 400c0 74 -59 106 -131 106h-154v-211h172c62 0 113 34 113 105zM449 150c0 58 -42 108 -125 108
h-204v-221h184c82 0 145 30 145 113z" />
    <glyph glyph-name="Bsmall.2" unicode="&#xe049;" horiz-adv-x="562" 
d="M516 146c0 -108 -85 -146 -184 -146h-234c-12 0 -22 9 -22 21v502c0 12 8 21 21 21h203c92 0 171 -42 171 -139c0 -59 -29 -101 -72 -122c76 -14 117 -69 117 -137zM427 400c0 74 -59 106 -131 106h-176v-211h194c62 0 113 34 113 105zM471 150c0 58 -42 108 -125 108
h-226v-221h206c82 0 145 30 145 113z" />
    <glyph glyph-name="C" unicode="C" horiz-adv-x="662" 
d="M618 612c0 -12 -10 -22 -22 -22c-15 0 -33 22 -78 38c-28 10 -65 19 -117 19c-163 0 -301 -141 -301 -306c0 -185 140 -308 302 -308c51 0 88 9 117 19c48 17 64 38 79 38c12 0 22 -10 22 -22c0 -17 -17 -28 -43 -40c-42 -21 -101 -38 -175 -38c-190 0 -351 139 -351 351
c0 189 160 349 350 349c75 0 132 -17 174 -38c26 -12 43 -23 43 -40z" />
    <glyph glyph-name="C.2" unicode="&#xe04a;" horiz-adv-x="703" 
d="M415 33c59 0 106 13 134 22c51 18 68 38 83 38c13 0 22 -8 22 -22c0 -18 -29 -34 -49 -42c-47 -20 -107 -39 -189 -39c-210 0 -365 135 -365 351c0 199 154 349 368 349c127 0 241 -46 241 -134c0 -47 -37 -74 -76 -74c-20 0 -35 6 -35 21c0 13 11 18 25 18
c21 0 38 13 38 36c0 47 -74 91 -193 91c-186 0 -319 -134 -319 -307c0 -189 135 -308 315 -308z" />
    <glyph glyph-name="CR" unicode="&#xe04b;" horiz-adv-x="500" 
 />
    <glyph glyph-name="Cacute" unicode="&#x106;" horiz-adv-x="662" 
d="M618 612c0 -12 -10 -22 -22 -22c-15 0 -33 22 -78 38c-28 10 -65 19 -117 19c-163 0 -301 -141 -301 -306c0 -185 140 -308 302 -308c51 0 88 9 117 19c48 17 64 38 79 38c12 0 22 -10 22 -22c0 -17 -17 -28 -43 -40c-42 -21 -101 -38 -175 -38c-190 0 -351 139 -351 351
c0 189 160 349 350 349c75 0 132 -17 174 -38c26 -12 43 -23 43 -40zM329 788c0 4 2 8 4 13l88 155c4 9 11 15 19 15c11 0 19 -8 19 -18c0 -5 -1 -8 -6 -16l-91 -150c-5 -9 -10 -13 -17 -13c-9 0 -16 6 -16 14z" />
    <glyph glyph-name="Cacute.2" unicode="&#xe04c;" horiz-adv-x="703" 
d="M415 33c59 0 106 13 134 22c51 18 68 38 83 38c13 0 22 -8 22 -22c0 -18 -29 -34 -49 -42c-47 -20 -107 -39 -189 -39c-210 0 -365 135 -365 351c0 199 154 349 368 349c127 0 241 -46 241 -134c0 -47 -37 -74 -76 -74c-20 0 -35 6 -35 21c0 13 11 18 25 18
c21 0 38 13 38 36c0 47 -74 91 -193 91c-186 0 -319 -134 -319 -307c0 -189 135 -308 315 -308zM346 788c0 4 2 8 4 13l88 155c4 9 11 15 19 15c11 0 19 -8 19 -18c0 -5 -1 -8 -6 -16l-91 -150c-5 -9 -10 -13 -17 -13c-9 0 -16 6 -16 14z" />
    <glyph glyph-name="Ccaron" unicode="&#x10c;" horiz-adv-x="662" 
d="M618 612c0 -12 -10 -22 -22 -22c-15 0 -33 22 -78 38c-28 10 -65 19 -117 19c-163 0 -301 -141 -301 -306c0 -185 140 -308 302 -308c51 0 88 9 117 19c48 17 64 38 79 38c12 0 22 -10 22 -22c0 -17 -17 -28 -43 -40c-42 -21 -101 -38 -175 -38c-190 0 -351 139 -351 351
c0 189 160 349 350 349c75 0 132 -17 174 -38c26 -12 43 -23 43 -40zM237 953c0 10 7 17 16 17c5 0 9 -2 13 -6l127 -134l127 134c4 4 8 6 13 6c9 0 17 -7 17 -17c0 -5 -4 -9 -8 -14l-131 -140c-5 -5 -10 -10 -18 -10c-7 0 -12 5 -17 10l-132 140c-4 5 -7 9 -7 14z" />
    <glyph glyph-name="Ccaron.2" unicode="&#xe04d;" horiz-adv-x="703" 
d="M415 33c59 0 106 13 134 22c51 18 68 38 83 38c13 0 22 -8 22 -22c0 -18 -29 -34 -49 -42c-47 -20 -107 -39 -189 -39c-210 0 -365 135 -365 351c0 199 154 349 368 349c127 0 241 -46 241 -134c0 -47 -37 -74 -76 -74c-20 0 -35 6 -35 21c0 13 11 18 25 18
c21 0 38 13 38 36c0 47 -74 91 -193 91c-186 0 -319 -134 -319 -307c0 -189 135 -308 315 -308zM254 953c0 10 7 17 16 17c5 0 9 -2 13 -6l127 -134l127 134c4 4 8 6 13 6c9 0 17 -7 17 -17c0 -5 -4 -9 -8 -14l-131 -140c-5 -5 -10 -10 -18 -10c-7 0 -12 5 -17 10l-132 140
c-4 5 -7 9 -7 14z" />
    <glyph glyph-name="Ccedilla" unicode="&#xc7;" horiz-adv-x="662" 
d="M501 -108c0 -62 -65 -81 -114 -81c-13 0 -23 1 -33 3c-8 2 -12 7 -12 14s6 13 13 13c9 0 17 -3 35 -3c36 0 78 14 78 54c0 34 -34 47 -66 47c-13 0 -20 6 -18 20l2 32c-182 7 -335 143 -335 350c0 189 160 349 350 349c75 0 132 -17 174 -38c26 -12 43 -23 43 -40
c0 -12 -10 -22 -22 -22c-15 0 -33 22 -78 38c-28 10 -65 19 -117 19c-163 0 -301 -141 -301 -306c0 -185 140 -308 302 -308c51 0 88 9 117 19c48 17 64 38 79 38c12 0 22 -10 22 -22c0 -17 -17 -28 -43 -40c-40 -20 -95 -36 -165 -38v-29c47 -1 89 -23 89 -69z" />
    <glyph glyph-name="Ccedilla.2" unicode="&#xe04e;" horiz-adv-x="703" 
d="M516 -108c0 -62 -65 -81 -114 -81c-13 0 -23 1 -33 3c-8 2 -12 7 -12 14s6 13 13 13c9 0 17 -3 35 -3c36 0 78 14 78 54c0 34 -34 47 -66 47c-13 0 -19 6 -18 20l2 32c-203 6 -350 139 -350 350c0 199 154 349 368 349c127 0 241 -46 241 -134c0 -47 -37 -74 -76 -74
c-20 0 -35 6 -35 21c0 13 11 18 25 18c21 0 38 13 38 36c0 47 -74 91 -193 91c-186 0 -319 -134 -319 -307c0 -189 135 -308 315 -308c59 0 106 13 134 22c51 18 68 38 83 38c13 0 22 -8 22 -22c0 -18 -29 -34 -49 -42c-45 -19 -102 -37 -178 -39v-29c47 -1 89 -23 89 -69z
" />
    <glyph glyph-name="Csmall" unicode="&#xf763;" horiz-adv-x="533" 
d="M330 552c52 0 100 -10 135 -27c24 -12 40 -24 40 -37c0 -12 -9 -21 -20 -21c-13 0 -27 14 -56 26c-23 10 -55 18 -99 18c-73 0 -140 -35 -184 -90c-33 -41 -53 -93 -53 -148c0 -70 26 -128 68 -170c44 -44 104 -70 169 -70c45 0 80 9 104 19c32 13 43 27 56 27
c11 0 19 -9 19 -21c0 -14 -17 -26 -42 -38c-35 -17 -87 -28 -137 -28c-77 0 -148 28 -200 80c-50 49 -82 118 -82 201c0 67 25 128 66 177c52 61 130 102 216 102z" />
    <glyph glyph-name="Csmall.2" unicode="&#xe04f;" horiz-adv-x="550" 
d="M339 512c-76 0 -146 -36 -191 -90c-34 -42 -55 -94 -55 -149c0 -70 27 -128 70 -171c45 -44 109 -69 176 -69c47 0 83 9 108 19c33 13 44 27 58 27c11 0 20 -9 20 -21c0 -14 -18 -26 -44 -38c-37 -17 -89 -28 -141 -28c-80 0 -154 28 -208 79c-52 49 -84 119 -84 202
c0 67 25 129 66 177c53 62 135 102 224 102c106 0 187 -43 187 -117c0 -44 -35 -69 -71 -69c-18 0 -29 6 -29 18s12 15 21 15c23 0 38 13 38 34c0 41 -50 79 -145 79z" />
    <glyph glyph-name="Csmallacute" unicode="&#xe050;" horiz-adv-x="538" 
d="M335 552c51 0 100 -10 135 -27c24 -12 40 -24 40 -37c0 -12 -9 -21 -20 -21c-13 0 -27 14 -56 26c-23 10 -56 18 -100 18c-73 0 -139 -35 -183 -90c-33 -41 -53 -93 -53 -148c0 -70 26 -128 68 -170c43 -44 104 -70 169 -70c45 0 80 10 103 19c33 14 43 27 57 27
c11 0 19 -9 19 -21c0 -14 -17 -26 -42 -38c-36 -17 -87 -28 -137 -28c-77 0 -148 28 -200 80c-50 49 -82 118 -82 201c0 67 25 128 66 177c52 61 130 102 216 102zM241 645c0 4 2 8 5 13l87 155c5 9 11 15 19 15c11 0 19 -8 19 -18c0 -5 -1 -8 -6 -16l-91 -150
c-5 -9 -10 -13 -17 -13c-8 0 -16 6 -16 14z" />
    <glyph glyph-name="Csmallacute.2" unicode="&#xe051;" horiz-adv-x="550" 
d="M339 512c-76 0 -146 -36 -191 -90c-34 -42 -55 -94 -55 -149c0 -70 27 -128 70 -171c45 -44 109 -69 176 -69c47 0 83 9 108 19c33 13 44 27 58 27c11 0 20 -9 20 -21c0 -14 -18 -26 -44 -38c-37 -17 -89 -28 -141 -28c-80 0 -154 28 -208 79c-52 49 -84 119 -84 202
c0 67 25 129 66 177c53 62 135 102 224 102c106 0 187 -43 187 -117c0 -44 -35 -69 -71 -69c-18 0 -29 6 -29 18s12 15 21 15c23 0 38 13 38 34c0 41 -50 79 -145 79zM260 645c0 4 2 8 4 13l88 155c4 9 11 15 19 15c11 0 19 -8 19 -18c0 -5 -1 -8 -6 -16l-91 -150
c-5 -9 -10 -13 -17 -13c-9 0 -16 6 -16 14z" />
    <glyph glyph-name="Csmallcaron" unicode="&#xe052;" horiz-adv-x="538" 
d="M335 552c51 0 100 -10 135 -27c24 -12 40 -24 40 -37c0 -12 -9 -21 -20 -21c-13 0 -27 14 -56 26c-23 10 -56 18 -100 18c-73 0 -139 -35 -183 -90c-33 -41 -53 -93 -53 -148c0 -70 26 -128 68 -170c43 -44 104 -70 169 -70c45 0 80 10 103 19c33 14 43 27 57 27
c11 0 19 -9 19 -21c0 -14 -17 -26 -42 -38c-36 -17 -87 -28 -137 -28c-77 0 -148 28 -200 80c-50 49 -82 118 -82 201c0 67 25 128 66 177c52 61 130 102 216 102zM172 810c0 10 8 17 17 17c5 0 8 -2 12 -6l128 -134l127 134c4 4 8 6 12 6c10 0 17 -7 17 -17
c0 -5 -3 -10 -7 -14l-132 -140c-5 -5 -10 -10 -17 -10c-8 0 -13 5 -18 10l-131 140c-5 4 -8 9 -8 14z" />
    <glyph glyph-name="Csmallcaron.2" unicode="&#xe053;" horiz-adv-x="550" 
d="M339 512c-76 0 -146 -36 -191 -90c-34 -42 -55 -94 -55 -149c0 -70 27 -128 70 -171c45 -44 109 -69 176 -69c47 0 83 9 108 19c33 13 44 27 58 27c11 0 20 -9 20 -21c0 -14 -18 -26 -44 -38c-37 -17 -89 -28 -141 -28c-80 0 -154 28 -208 79c-52 49 -84 119 -84 202
c0 67 25 129 66 177c53 62 135 102 224 102c106 0 187 -43 187 -117c0 -44 -35 -69 -71 -69c-18 0 -29 6 -29 18s12 15 21 15c23 0 38 13 38 34c0 41 -50 79 -145 79zM174 810c0 10 7 17 16 17c5 0 9 -2 13 -6l127 -134l127 134c4 4 8 6 13 6c9 0 17 -7 17 -17
c0 -5 -4 -9 -8 -14l-131 -140c-5 -5 -10 -10 -18 -10c-7 0 -12 5 -17 10l-132 140c-4 5 -7 9 -7 14z" />
    <glyph glyph-name="Csmallcedilla" unicode="&#xe054;" horiz-adv-x="538" 
d="M427 -108c0 -62 -65 -81 -114 -81c-13 0 -23 1 -33 3c-8 2 -12 7 -12 14s6 13 13 13c9 0 17 -3 35 -3c36 0 78 14 78 54c0 34 -34 47 -66 47c-13 0 -19 6 -18 20l2 34c-69 5 -131 32 -178 79c-50 49 -82 118 -82 201c0 67 25 128 66 177c52 61 130 102 216 102
c52 0 100 -10 135 -27c24 -12 40 -24 40 -37c0 -12 -9 -21 -20 -21c-13 0 -27 14 -56 26c-23 10 -55 18 -99 18c-73 0 -140 -35 -184 -90c-33 -41 -53 -93 -53 -148c0 -70 26 -128 68 -170c44 -44 104 -70 169 -70c45 0 80 9 104 19c32 13 43 27 56 27c11 0 19 -9 19 -21
c0 -14 -17 -26 -42 -38c-34 -17 -84 -27 -133 -28v-31c47 -1 89 -23 89 -69z" />
    <glyph glyph-name="Csmallcedilla.2" unicode="&#xe055;" horiz-adv-x="550" 
d="M437 -108c0 -62 -65 -81 -114 -81c-13 0 -23 1 -33 3c-8 2 -12 7 -12 14s6 13 13 13c9 0 17 -3 35 -3c36 0 78 14 78 54c0 34 -34 47 -66 47c-13 0 -19 6 -18 20l2 34c-73 4 -140 31 -190 78c-52 49 -84 119 -84 202c0 67 25 129 66 177c53 62 135 102 224 102
c106 0 187 -43 187 -117c0 -44 -35 -69 -71 -69c-18 0 -29 6 -29 18s12 15 21 15c23 0 38 13 38 34c0 41 -50 79 -145 79c-76 0 -146 -36 -191 -90c-34 -42 -55 -94 -55 -149c0 -70 27 -128 70 -171c45 -44 109 -69 176 -69c47 0 83 9 108 19c33 13 44 27 58 27
c11 0 20 -9 20 -21c0 -14 -18 -26 -44 -38c-35 -16 -84 -27 -133 -28v-31c47 -1 89 -23 89 -69z" />
    <glyph glyph-name="D" unicode="D" horiz-adv-x="736" 
d="M685 340c0 -134 -55 -226 -141 -280c-69 -44 -152 -60 -237 -60h-205c-13 0 -24 11 -24 23v635c0 12 11 23 24 23h220c119 0 218 -33 286 -109c48 -55 77 -132 77 -232zM126 640v-599h175c78 0 149 15 207 51c78 48 129 130 129 248c0 88 -27 155 -70 204
c-57 64 -146 96 -254 96h-187z" />
    <glyph glyph-name="DC1" unicode="&#xe056;" horiz-adv-x="500" 
 />
    <glyph glyph-name="DC2" unicode="&#xe057;" horiz-adv-x="500" 
 />
    <glyph glyph-name="DC3" unicode="&#xe058;" horiz-adv-x="500" 
 />
    <glyph glyph-name="DC4" unicode="&#xe059;" horiz-adv-x="500" 
 />
    <glyph glyph-name="DEL" unicode="&#xe05a;" horiz-adv-x="500" 
 />
    <glyph glyph-name="DLE" unicode="&#xe05b;" horiz-adv-x="500" 
 />
    <glyph glyph-name="Dcaron" unicode="&#x10e;" horiz-adv-x="736" 
d="M685 340c0 -134 -55 -226 -141 -280c-69 -44 -152 -60 -237 -60h-205c-13 0 -24 11 -24 23v635c0 12 11 23 24 23h220c119 0 218 -33 286 -109c48 -55 77 -132 77 -232zM126 640v-599h175c78 0 149 15 207 51c78 48 129 130 129 248c0 88 -27 155 -70 204
c-57 64 -146 96 -254 96h-187zM207 953c0 10 7 17 16 17c5 0 9 -2 13 -6l127 -134l127 134c4 4 8 6 13 6c9 0 17 -7 17 -17c0 -5 -4 -9 -8 -14l-131 -140c-5 -5 -10 -10 -18 -10c-7 0 -12 5 -17 10l-132 140c-4 5 -7 9 -7 14z" />
    <glyph glyph-name="Dcroat" unicode="&#x110;" horiz-adv-x="739" 
d="M299 320h-170v-279h174c74 0 143 12 201 44c83 46 135 132 135 255c0 88 -26 155 -69 204c-56 65 -146 96 -254 96h-187v-280h170c11 0 20 -9 20 -20s-9 -20 -20 -20zM81 23v297h-84c-10 0 -19 9 -19 20s9 20 19 20h84v298c0 12 10 23 24 23h220c118 0 218 -33 285 -109
c49 -55 78 -132 78 -232c0 -134 -55 -228 -142 -280c-67 -46 -151 -60 -236 -60h-205c-14 0 -24 11 -24 23z" />
    <glyph glyph-name="Delta" unicode="&#x394;" horiz-adv-x="598" 
d="M534 0h-470c-18 0 -27 11 -27 24c0 5 1 10 4 17l228 624c6 18 16 24 30 24s24 -6 30 -24l228 -624c3 -7 4 -12 4 -17c0 -13 -9 -24 -27 -24zM299 613l-207 -571h414z" />
    <glyph glyph-name="Delta" unicode="&#x2206;" horiz-adv-x="598" 
d="M534 0h-470c-18 0 -27 11 -27 24c0 5 1 10 4 17l228 624c6 18 16 24 30 24s24 -6 30 -24l228 -624c3 -7 4 -12 4 -17c0 -13 -9 -24 -27 -24zM299 613l-207 -571h414z" />
    <glyph glyph-name="Dsmall" unicode="&#xf764;" horiz-adv-x="613" 
d="M564 272c0 -186 -126 -272 -304 -272h-162c-12 0 -22 9 -22 21v502c0 12 10 21 22 21h176c180 0 290 -101 290 -272zM120 506v-468h139c165 0 260 83 260 234c0 141 -82 234 -249 234h-150z" />
    <glyph glyph-name="Dsmallcaron" unicode="&#xe05c;" horiz-adv-x="620" 
d="M567 272c0 -186 -126 -272 -303 -272h-163c-12 0 -22 9 -22 21v502c0 12 10 21 22 21h176c180 0 290 -101 290 -272zM123 506v-468h139c165 0 261 83 261 234c0 141 -83 234 -250 234h-150zM135 810c0 10 7 17 17 17c4 0 8 -2 12 -6l127 -134l128 134c4 4 7 6 12 6
c9 0 17 -7 17 -17c0 -5 -3 -10 -8 -14l-131 -140c-5 -5 -10 -10 -18 -10c-7 0 -12 5 -17 10l-132 140c-4 4 -7 9 -7 14z" />
    <glyph glyph-name="E" unicode="E" horiz-adv-x="589" 
d="M126 319v-277h411c11 0 20 -9 20 -21s-9 -21 -20 -21h-435c-13 0 -24 11 -24 23v635c0 12 11 23 24 23h435c11 0 20 -10 20 -21c0 -12 -9 -21 -20 -21h-411v-277h359c12 0 21 -10 21 -21c0 -12 -9 -22 -21 -22h-359z" />
    <glyph glyph-name="E.1" unicode="&#xe05d;" horiz-adv-x="563" 
d="M530 660c0 -12 -9 -21 -20 -21h-160c-94 0 -159 -26 -195 -80c-25 -37 -38 -88 -38 -151v-44h342c12 0 21 -9 21 -21s-9 -21 -21 -21h-342v-48c0 -74 16 -130 52 -169c38 -42 97 -63 181 -63h160c11 0 20 -9 20 -21s-9 -21 -20 -21h-160c-101 0 -174 25 -221 80
c-40 47 -60 113 -60 203v115c0 81 17 144 50 190c45 63 122 93 231 93h160c11 0 20 -10 20 -21z" />
    <glyph glyph-name="E.2" unicode="&#xe05e;" horiz-adv-x="627" 
d="M126 264v-222h449c11 0 20 -9 20 -21s-9 -21 -20 -21h-473c-13 0 -24 11 -24 23v635c0 12 11 23 24 23h473c11 0 20 -10 20 -21c0 -12 -9 -21 -20 -21h-449v-332h394c12 0 21 -10 21 -21c0 -12 -9 -22 -21 -22h-394z" />
    <glyph glyph-name="E.3" unicode="&#xe05f;" horiz-adv-x="720" 
d="M642 335h-539c2 -82 26 -150 66 -200c52 -65 130 -102 222 -102c64 0 112 13 147 28c51 21 74 47 87 47c12 0 21 -9 21 -22c0 -17 -30 -41 -77 -61c-49 -20 -114 -35 -177 -35c-114 0 -202 41 -262 115c-50 60 -79 144 -79 244c0 93 27 176 82 239c54 62 133 102 238 102
c98 0 174 -40 224 -96c54 -59 79 -137 79 -224c0 -24 -11 -35 -32 -35zM103 376h522c-2 82 -27 143 -66 188c-42 48 -107 82 -187 82c-91 0 -159 -35 -205 -93c-37 -44 -60 -109 -64 -177z" />
    <glyph glyph-name="Eacute" unicode="&#xc9;" horiz-adv-x="589" 
d="M126 319v-277h411c11 0 20 -9 20 -21s-9 -21 -20 -21h-435c-13 0 -24 11 -24 23v635c0 12 11 23 24 23h435c11 0 20 -10 20 -21c0 -12 -9 -21 -20 -21h-411v-277h359c12 0 21 -10 21 -21c0 -12 -9 -22 -21 -22h-359zM248 788c0 4 2 8 4 13l88 155c4 9 11 15 19 15
c11 0 19 -8 19 -18c0 -5 -1 -8 -6 -16l-91 -150c-5 -9 -10 -13 -17 -13c-9 0 -16 6 -16 14z" />
    <glyph glyph-name="Eacute.1" unicode="&#xe060;" horiz-adv-x="562" 
d="M530 660c0 -12 -9 -21 -20 -21h-160c-94 0 -159 -26 -195 -80c-25 -37 -38 -88 -38 -151v-44h342c12 0 21 -9 21 -21s-9 -21 -21 -21h-342v-48c0 -74 16 -130 52 -169c38 -42 97 -63 181 -63h160c11 0 20 -9 20 -21s-9 -21 -20 -21h-160c-101 0 -174 25 -221 80
c-40 47 -60 113 -60 203v115c0 81 17 144 50 190c45 63 122 93 231 93h160c11 0 20 -10 20 -21zM259 788c0 4 2 8 4 13l88 155c4 9 11 15 19 15c11 0 19 -8 19 -18c0 -5 -1 -8 -6 -16l-91 -150c-5 -9 -10 -13 -17 -13c-9 0 -16 6 -16 14z" />
    <glyph glyph-name="Eacute.2" unicode="&#xe061;" horiz-adv-x="627" 
d="M126 264v-222h449c11 0 20 -9 20 -21s-9 -21 -20 -21h-473c-13 0 -24 11 -24 23v635c0 12 11 23 24 23h473c11 0 20 -10 20 -21c0 -12 -9 -21 -20 -21h-449v-332h394c12 0 21 -10 21 -21c0 -12 -9 -22 -21 -22h-394zM272 788c0 4 2 8 4 13l88 155c4 9 11 15 19 15
c11 0 19 -8 19 -18c0 -5 -1 -8 -6 -16l-91 -150c-5 -9 -10 -13 -17 -13c-9 0 -16 6 -16 14z" />
    <glyph glyph-name="Eacute.3" unicode="&#xe062;" horiz-adv-x="720" 
d="M642 335h-539c2 -82 26 -150 66 -200c52 -65 130 -102 222 -102c64 0 112 13 147 28c51 21 74 47 87 47c12 0 21 -9 21 -22c0 -17 -30 -41 -77 -61c-49 -20 -114 -35 -177 -35c-114 0 -202 41 -262 115c-50 60 -79 144 -79 244c0 93 27 176 82 239c54 62 133 102 238 102
c98 0 174 -40 224 -96c54 -59 79 -137 79 -224c0 -24 -11 -35 -32 -35zM103 376h522c-2 82 -27 143 -66 188c-42 48 -107 82 -187 82c-91 0 -159 -35 -205 -93c-37 -44 -60 -109 -64 -177zM309 788c0 4 2 8 4 13l88 155c4 9 11 15 19 15c11 0 19 -8 19 -18
c0 -5 -1 -8 -6 -16l-91 -150c-5 -9 -10 -13 -17 -13c-9 0 -16 6 -16 14z" />
    <glyph glyph-name="Ecaron" unicode="&#x11a;" horiz-adv-x="589" 
d="M126 319v-277h411c11 0 20 -9 20 -21s-9 -21 -20 -21h-435c-13 0 -24 11 -24 23v635c0 12 11 23 24 23h435c11 0 20 -10 20 -21c0 -12 -9 -21 -20 -21h-411v-277h359c12 0 21 -10 21 -21c0 -12 -9 -22 -21 -22h-359zM166 953c0 10 7 17 16 17c5 0 9 -2 13 -6l127 -134
l127 134c4 4 8 6 13 6c9 0 17 -7 17 -17c0 -5 -4 -9 -8 -14l-131 -140c-5 -5 -10 -10 -18 -10c-7 0 -12 5 -17 10l-132 140c-4 5 -7 9 -7 14z" />
    <glyph glyph-name="Ecaron.1" unicode="&#xe063;" horiz-adv-x="562" 
d="M530 660c0 -12 -9 -21 -20 -21h-160c-94 0 -159 -26 -195 -80c-25 -37 -38 -88 -38 -151v-44h342c12 0 21 -9 21 -21s-9 -21 -21 -21h-342v-48c0 -74 16 -130 52 -169c38 -42 97 -63 181 -63h160c11 0 20 -9 20 -21s-9 -21 -20 -21h-160c-101 0 -174 25 -221 80
c-40 47 -60 113 -60 203v115c0 81 17 144 50 190c45 63 122 93 231 93h160c11 0 20 -10 20 -21zM187 953c0 10 7 17 16 17c5 0 9 -2 13 -6l127 -134l127 134c4 4 8 6 13 6c9 0 17 -7 17 -17c0 -5 -4 -9 -8 -14l-131 -140c-5 -5 -10 -10 -18 -10c-7 0 -12 5 -17 10l-132 140
c-4 5 -7 9 -7 14z" />
    <glyph glyph-name="Ecaron.2" unicode="&#xe064;" horiz-adv-x="627" 
d="M126 264v-222h449c11 0 20 -9 20 -21s-9 -21 -20 -21h-473c-13 0 -24 11 -24 23v635c0 12 11 23 24 23h473c11 0 20 -10 20 -21c0 -12 -9 -21 -20 -21h-449v-332h394c12 0 21 -10 21 -21c0 -12 -9 -22 -21 -22h-394zM188 953c0 10 7 17 16 17c5 0 9 -2 13 -6l127 -134
l127 134c4 4 8 6 13 6c9 0 17 -7 17 -17c0 -5 -4 -9 -8 -14l-131 -140c-5 -5 -10 -10 -18 -10c-7 0 -12 5 -17 10l-132 140c-4 5 -7 9 -7 14z" />
    <glyph glyph-name="Ecaron.3" unicode="&#xe065;" horiz-adv-x="720" 
d="M642 335h-539c2 -82 26 -150 66 -200c52 -65 130 -102 222 -102c64 0 112 13 147 28c51 21 74 47 87 47c12 0 21 -9 21 -22c0 -17 -30 -41 -77 -61c-49 -20 -114 -35 -177 -35c-114 0 -202 41 -262 115c-50 60 -79 144 -79 244c0 93 27 176 82 239c54 62 133 102 238 102
c98 0 174 -40 224 -96c54 -59 79 -137 79 -224c0 -24 -11 -35 -32 -35zM103 376h522c-2 82 -27 143 -66 188c-42 48 -107 82 -187 82c-91 0 -159 -35 -205 -93c-37 -44 -60 -109 -64 -177zM219 953c0 10 7 17 16 17c5 0 9 -2 13 -6l127 -134l127 134c4 4 8 6 13 6
c9 0 17 -7 17 -17c0 -5 -4 -9 -8 -14l-131 -140c-5 -5 -10 -10 -18 -10c-7 0 -12 5 -17 10l-132 140c-4 5 -7 9 -7 14z" />
    <glyph glyph-name="Ecircumflex" unicode="&#xca;" horiz-adv-x="589" 
d="M126 319v-277h411c11 0 20 -9 20 -21s-9 -21 -20 -21h-435c-13 0 -24 11 -24 23v635c0 12 11 23 24 23h435c11 0 20 -10 20 -21c0 -12 -9 -21 -20 -21h-411v-277h359c12 0 21 -10 21 -21c0 -12 -9 -22 -21 -22h-359zM303 970c8 0 14 -4 18 -9l131 -140c5 -5 8 -10 8 -15
c0 -10 -8 -17 -17 -17c-5 0 -9 2 -13 6l-127 134l-127 -134c-4 -4 -8 -6 -13 -6c-9 0 -16 7 -16 17c0 5 2 10 7 15l132 140c4 5 10 9 17 9z" />
    <glyph glyph-name="Ecircumflex.1" unicode="&#xe066;" horiz-adv-x="562" 
d="M530 660c0 -12 -9 -21 -20 -21h-160c-94 0 -159 -26 -195 -80c-25 -37 -38 -88 -38 -151v-44h342c12 0 21 -9 21 -21s-9 -21 -21 -21h-342v-48c0 -74 16 -130 52 -169c38 -42 97 -63 181 -63h160c11 0 20 -9 20 -21s-9 -21 -20 -21h-160c-101 0 -174 25 -221 80
c-40 47 -60 113 -60 203v115c0 81 17 144 50 190c45 63 122 93 231 93h160c11 0 20 -10 20 -21zM323 970c8 0 14 -4 18 -9l131 -140c5 -5 8 -10 8 -15c0 -10 -8 -17 -17 -17c-5 0 -9 2 -13 6l-127 134l-127 -134c-4 -4 -8 -6 -13 -6c-9 0 -16 7 -16 17c0 5 2 10 7 15
l132 140c4 5 10 9 17 9z" />
    <glyph glyph-name="Ecircumflex.2" unicode="&#xe067;" horiz-adv-x="627" 
d="M126 264v-222h449c11 0 20 -9 20 -21s-9 -21 -20 -21h-473c-13 0 -24 11 -24 23v635c0 12 11 23 24 23h473c11 0 20 -10 20 -21c0 -12 -9 -21 -20 -21h-449v-332h394c12 0 21 -10 21 -21c0 -12 -9 -22 -21 -22h-394zM334 970c8 0 14 -4 18 -9l131 -140c5 -5 8 -10 8 -15
c0 -10 -8 -17 -17 -17c-5 0 -9 2 -13 6l-127 134l-127 -134c-4 -4 -8 -6 -13 -6c-9 0 -16 7 -16 17c0 5 2 10 7 15l132 140c4 5 10 9 17 9z" />
    <glyph glyph-name="Ecircumflex.3" unicode="&#xe068;" horiz-adv-x="720" 
d="M642 335h-539c2 -82 26 -150 66 -200c52 -65 130 -102 222 -102c64 0 112 13 147 28c51 21 74 47 87 47c12 0 21 -9 21 -22c0 -17 -30 -41 -77 -61c-49 -20 -114 -35 -177 -35c-114 0 -202 41 -262 115c-50 60 -79 144 -79 244c0 93 27 176 82 239c54 62 133 102 238 102
c98 0 174 -40 224 -96c54 -59 79 -137 79 -224c0 -24 -11 -35 -32 -35zM103 376h522c-2 82 -27 143 -66 188c-42 48 -107 82 -187 82c-91 0 -159 -35 -205 -93c-37 -44 -60 -109 -64 -177zM374 970c8 0 14 -4 18 -9l131 -140c5 -5 8 -10 8 -15c0 -10 -8 -17 -17 -17
c-5 0 -9 2 -13 6l-127 134l-127 -134c-4 -4 -8 -6 -13 -6c-9 0 -16 7 -16 17c0 5 2 10 7 15l132 140c4 5 10 9 17 9z" />
    <glyph glyph-name="Edieresis" unicode="&#xcb;" horiz-adv-x="589" 
d="M126 319v-277h411c11 0 20 -9 20 -21s-9 -21 -20 -21h-435c-13 0 -24 11 -24 23v635c0 12 11 23 24 23h435c11 0 20 -10 20 -21c0 -12 -9 -21 -20 -21h-411v-277h359c12 0 21 -10 21 -21c0 -12 -9 -22 -21 -22h-359zM225 846c-16 0 -28 12 -28 28c0 15 12 27 28 27
c15 0 28 -12 28 -27c0 -16 -13 -28 -28 -28zM391 846c-16 0 -28 12 -28 28c0 15 12 27 28 27c15 0 27 -12 27 -27c0 -16 -12 -28 -27 -28z" />
    <glyph glyph-name="Edieresis.1" unicode="&#xe069;" horiz-adv-x="562" 
d="M530 660c0 -12 -9 -21 -20 -21h-160c-94 0 -159 -26 -195 -80c-25 -37 -38 -88 -38 -151v-44h342c12 0 21 -9 21 -21s-9 -21 -21 -21h-342v-48c0 -74 16 -130 52 -169c38 -42 97 -63 181 -63h160c11 0 20 -9 20 -21s-9 -21 -20 -21h-160c-101 0 -174 25 -221 80
c-40 47 -60 113 -60 203v115c0 81 17 144 50 190c45 63 122 93 231 93h160c11 0 20 -10 20 -21zM241 846c-16 0 -28 12 -28 28c0 15 12 27 28 27c15 0 28 -12 28 -27c0 -16 -13 -28 -28 -28zM407 846c-16 0 -28 12 -28 28c0 15 12 27 28 27c15 0 27 -12 27 -27
c0 -16 -12 -28 -27 -28z" />
    <glyph glyph-name="Edieresis.2" unicode="&#xe06a;" horiz-adv-x="627" 
d="M126 264v-222h449c11 0 20 -9 20 -21s-9 -21 -20 -21h-473c-13 0 -24 11 -24 23v635c0 12 11 23 24 23h473c11 0 20 -10 20 -21c0 -12 -9 -21 -20 -21h-449v-332h394c12 0 21 -10 21 -21c0 -12 -9 -22 -21 -22h-394zM257 846c-16 0 -28 12 -28 28c0 15 12 27 28 27
c15 0 28 -12 28 -27c0 -16 -13 -28 -28 -28zM423 846c-16 0 -28 12 -28 28c0 15 12 27 28 27c15 0 27 -12 27 -27c0 -16 -12 -28 -27 -28z" />
    <glyph glyph-name="Edieresis.3" unicode="&#xe06b;" horiz-adv-x="720" 
d="M642 335h-539c2 -82 26 -150 66 -200c52 -65 130 -102 222 -102c64 0 112 13 147 28c51 21 74 47 87 47c12 0 21 -9 21 -22c0 -17 -30 -41 -77 -61c-49 -20 -114 -35 -177 -35c-114 0 -202 41 -262 115c-50 60 -79 144 -79 244c0 93 27 176 82 239c54 62 133 102 238 102
c98 0 174 -40 224 -96c54 -59 79 -137 79 -224c0 -24 -11 -35 -32 -35zM103 376h522c-2 82 -27 143 -66 188c-42 48 -107 82 -187 82c-91 0 -159 -35 -205 -93c-37 -44 -60 -109 -64 -177zM291 846c-16 0 -28 12 -28 28c0 15 12 27 28 27c15 0 28 -12 28 -27
c0 -16 -13 -28 -28 -28zM457 846c-16 0 -28 12 -28 28c0 15 12 27 28 27c15 0 27 -12 27 -27c0 -16 -12 -28 -27 -28z" />
    <glyph glyph-name="Edotaccent" unicode="&#x116;" horiz-adv-x="589" 
d="M126 319v-277h411c11 0 20 -9 20 -21s-9 -21 -20 -21h-435c-13 0 -24 11 -24 23v635c0 12 11 23 24 23h435c11 0 20 -10 20 -21c0 -12 -9 -21 -20 -21h-411v-277h359c12 0 21 -10 21 -21c0 -12 -9 -22 -21 -22h-359zM314 851c-16 0 -28 12 -28 28c0 15 12 27 28 27
c15 0 27 -12 27 -27c0 -16 -12 -28 -27 -28z" />
    <glyph glyph-name="Edotaccent.1" unicode="&#xe06c;" horiz-adv-x="562" 
d="M530 660c0 -12 -9 -21 -20 -21h-160c-94 0 -159 -26 -195 -80c-25 -37 -38 -88 -38 -151v-44h342c12 0 21 -9 21 -21s-9 -21 -21 -21h-342v-48c0 -74 16 -130 52 -169c38 -42 97 -63 181 -63h160c11 0 20 -9 20 -21s-9 -21 -20 -21h-160c-101 0 -174 25 -221 80
c-40 47 -60 113 -60 203v115c0 81 17 144 50 190c45 63 122 93 231 93h160c11 0 20 -10 20 -21zM323 846c-16 0 -28 12 -28 28c0 15 12 27 28 27c15 0 27 -12 27 -27c0 -16 -12 -28 -27 -28z" />
    <glyph glyph-name="Edotaccent.2" unicode="&#xe06d;" horiz-adv-x="627" 
d="M126 264v-222h449c11 0 20 -9 20 -21s-9 -21 -20 -21h-473c-13 0 -24 11 -24 23v635c0 12 11 23 24 23h473c11 0 20 -10 20 -21c0 -12 -9 -21 -20 -21h-449v-332h394c12 0 21 -10 21 -21c0 -12 -9 -22 -21 -22h-394zM343 851c-16 0 -28 12 -28 28c0 15 12 27 28 27
c15 0 27 -12 27 -27c0 -16 -12 -28 -27 -28z" />
    <glyph glyph-name="Edotaccent.3" unicode="&#xe06e;" horiz-adv-x="720" 
d="M642 335h-539c2 -82 26 -150 66 -200c52 -65 130 -102 222 -102c64 0 112 13 147 28c51 21 74 47 87 47c12 0 21 -9 21 -22c0 -17 -30 -41 -77 -61c-49 -20 -114 -35 -177 -35c-114 0 -202 41 -262 115c-50 60 -79 144 -79 244c0 93 27 176 82 239c54 62 133 102 238 102
c98 0 174 -40 224 -96c54 -59 79 -137 79 -224c0 -24 -11 -35 -32 -35zM103 376h522c-2 82 -27 143 -66 188c-42 48 -107 82 -187 82c-91 0 -159 -35 -205 -93c-37 -44 -60 -109 -64 -177zM376 851c-16 0 -28 12 -28 28c0 15 12 27 28 27c15 0 27 -12 27 -27
c0 -16 -12 -28 -27 -28z" />
    <glyph glyph-name="Egrave" unicode="&#xc8;" horiz-adv-x="589" 
d="M126 319v-277h411c11 0 20 -9 20 -21s-9 -21 -20 -21h-435c-13 0 -24 11 -24 23v635c0 12 11 23 24 23h435c11 0 20 -10 20 -21c0 -12 -9 -21 -20 -21h-411v-277h359c12 0 21 -10 21 -21c0 -12 -9 -22 -21 -22h-359zM359 788c0 -8 -7 -14 -15 -14s-13 4 -18 13l-91 150
c-5 8 -6 11 -6 16c0 10 8 18 19 18c8 0 14 -6 19 -15l88 -155c3 -5 4 -9 4 -13z" />
    <glyph glyph-name="Egrave.1" unicode="&#xe06f;" horiz-adv-x="562" 
d="M530 660c0 -12 -9 -21 -20 -21h-160c-94 0 -159 -26 -195 -80c-25 -37 -38 -88 -38 -151v-44h342c12 0 21 -9 21 -21s-9 -21 -21 -21h-342v-48c0 -74 16 -130 52 -169c38 -42 97 -63 181 -63h160c11 0 20 -9 20 -21s-9 -21 -20 -21h-160c-101 0 -174 25 -221 80
c-40 47 -60 113 -60 203v115c0 81 17 144 50 190c45 63 122 93 231 93h160c11 0 20 -10 20 -21zM385 788c0 -8 -7 -14 -15 -14s-13 4 -18 13l-91 150c-5 8 -6 11 -6 16c0 10 8 18 19 18c8 0 14 -6 19 -15l88 -155c3 -5 4 -9 4 -13z" />
    <glyph glyph-name="Egrave.2" unicode="&#xe070;" horiz-adv-x="627" 
d="M126 264v-222h449c11 0 20 -9 20 -21s-9 -21 -20 -21h-473c-13 0 -24 11 -24 23v635c0 12 11 23 24 23h473c11 0 20 -10 20 -21c0 -12 -9 -21 -20 -21h-449v-332h394c12 0 21 -10 21 -21c0 -12 -9 -22 -21 -22h-394zM405 788c0 -8 -7 -14 -15 -14s-13 4 -18 13l-91 150
c-5 8 -6 11 -6 16c0 10 8 18 19 18c8 0 14 -6 19 -15l88 -155c3 -5 4 -9 4 -13z" />
    <glyph glyph-name="Egrave.3" unicode="&#xe071;" horiz-adv-x="720" 
d="M642 335h-539c2 -82 26 -150 66 -200c52 -65 130 -102 222 -102c64 0 112 13 147 28c51 21 74 47 87 47c12 0 21 -9 21 -22c0 -17 -30 -41 -77 -61c-49 -20 -114 -35 -177 -35c-114 0 -202 41 -262 115c-50 60 -79 144 -79 244c0 93 27 176 82 239c54 62 133 102 238 102
c98 0 174 -40 224 -96c54 -59 79 -137 79 -224c0 -24 -11 -35 -32 -35zM103 376h522c-2 82 -27 143 -66 188c-42 48 -107 82 -187 82c-91 0 -159 -35 -205 -93c-37 -44 -60 -109 -64 -177zM445 788c0 -8 -7 -14 -15 -14s-13 4 -18 13l-91 150c-5 8 -6 11 -6 16
c0 10 8 18 19 18c8 0 14 -6 19 -15l88 -155c3 -5 4 -9 4 -13z" />
    <glyph glyph-name="Emacron" unicode="&#x112;" horiz-adv-x="589" 
d="M126 319v-277h411c11 0 20 -9 20 -21s-9 -21 -20 -21h-435c-13 0 -24 11 -24 23v635c0 12 11 23 24 23h435c11 0 20 -10 20 -21c0 -12 -9 -21 -20 -21h-411v-277h359c12 0 21 -10 21 -21c0 -12 -9 -22 -21 -22h-359zM438 886c0 -11 -8 -18 -18 -18h-219
c-9 0 -17 7 -17 18c0 10 8 18 17 18h219c10 0 18 -8 18 -18z" />
    <glyph glyph-name="Emacron.1" unicode="&#xe072;" horiz-adv-x="562" 
d="M530 660c0 -12 -9 -21 -20 -21h-160c-94 0 -159 -26 -195 -80c-25 -37 -38 -88 -38 -151v-44h342c12 0 21 -9 21 -21s-9 -21 -21 -21h-342v-48c0 -74 16 -130 52 -169c38 -42 97 -63 181 -63h160c11 0 20 -9 20 -21s-9 -21 -20 -21h-160c-101 0 -174 25 -221 80
c-40 47 -60 113 -60 203v115c0 81 17 144 50 190c45 63 122 93 231 93h160c11 0 20 -10 20 -21zM448 886c0 -11 -8 -18 -18 -18h-219c-9 0 -17 7 -17 18c0 10 8 18 17 18h219c10 0 18 -8 18 -18z" />
    <glyph glyph-name="Emacron.2" unicode="&#xe073;" horiz-adv-x="627" 
d="M126 264v-222h449c11 0 20 -9 20 -21s-9 -21 -20 -21h-473c-13 0 -24 11 -24 23v635c0 12 11 23 24 23h473c11 0 20 -10 20 -21c0 -12 -9 -21 -20 -21h-449v-332h394c12 0 21 -10 21 -21c0 -12 -9 -22 -21 -22h-394zM462 886c0 -11 -8 -18 -18 -18h-219
c-9 0 -17 7 -17 18c0 10 8 18 17 18h219c10 0 18 -8 18 -18z" />
    <glyph glyph-name="Emacron.3" unicode="&#xe074;" horiz-adv-x="720" 
d="M642 335h-539c2 -82 26 -150 66 -200c52 -65 130 -102 222 -102c64 0 112 13 147 28c51 21 74 47 87 47c12 0 21 -9 21 -22c0 -17 -30 -41 -77 -61c-49 -20 -114 -35 -177 -35c-114 0 -202 41 -262 115c-50 60 -79 144 -79 244c0 93 27 176 82 239c54 62 133 102 238 102
c98 0 174 -40 224 -96c54 -59 79 -137 79 -224c0 -24 -11 -35 -32 -35zM103 376h522c-2 82 -27 143 -66 188c-42 48 -107 82 -187 82c-91 0 -159 -35 -205 -93c-37 -44 -60 -109 -64 -177zM502 886c0 -11 -8 -18 -18 -18h-219c-9 0 -17 7 -17 18c0 10 8 18 17 18h219
c10 0 18 -8 18 -18z" />
    <glyph glyph-name="Eogonek" unicode="&#x118;" horiz-adv-x="589" 
d="M126 319v-277h411c11 0 20 -9 20 -21s-9 -21 -20 -21h-97c-15 -34 -28 -70 -28 -98c0 -27 7 -61 81 -61c30 0 41 8 50 8s14 -6 14 -14c0 -10 -5 -15 -15 -19c-13 -4 -35 -8 -52 -8c-88 0 -110 40 -110 85c0 26 13 69 32 107h-310c-13 0 -24 11 -24 23v635
c0 12 11 23 24 23h435c11 0 20 -10 20 -21c0 -12 -9 -21 -20 -21h-411v-277h359c12 0 21 -10 21 -21c0 -12 -9 -22 -21 -22h-359z" />
    <glyph glyph-name="Eogonek.1" unicode="&#xe075;" horiz-adv-x="562" 
d="M530 660c0 -14 -9 -21 -21 -21h-156c-79 0 -145 -23 -187 -78c-31 -41 -50 -101 -50 -181v-19h343c12 0 22 -7 22 -21s-10 -21 -22 -21h-344v-18c0 -89 22 -152 61 -193c43 -46 104 -66 177 -66h156c12 0 21 -8 21 -22c0 -13 -9 -20 -21 -20h-96c-15 -34 -28 -70 -28 -98
c0 -27 7 -61 81 -61c30 0 42 8 50 8c9 0 14 -6 14 -14c0 -10 -5 -15 -15 -19c-13 -4 -34 -8 -52 -8c-88 0 -109 40 -109 85c0 29 14 69 32 107h-33c-83 0 -155 21 -206 72c-49 49 -78 125 -78 232v73c0 98 25 170 67 219c51 59 128 85 217 85h156c12 0 21 -8 21 -21z" />
    <glyph glyph-name="Eogonek.2" unicode="&#xe076;" horiz-adv-x="627" 
d="M126 264v-222h449c11 0 20 -9 20 -21s-9 -21 -20 -21h-97c-15 -34 -28 -70 -28 -98c0 -27 7 -61 81 -61c30 0 41 8 50 8s14 -6 14 -14c0 -10 -5 -15 -15 -19c-13 -4 -35 -8 -52 -8c-88 0 -110 40 -110 85c0 26 13 69 32 107h-348c-13 0 -24 11 -24 23v635
c0 12 11 23 24 23h473c11 0 20 -10 20 -21c0 -12 -9 -21 -20 -21h-449v-332h394c12 0 21 -10 21 -21c0 -12 -9 -22 -21 -22h-394z" />
    <glyph glyph-name="Eogonek.3" unicode="&#xe077;" horiz-adv-x="720" 
d="M642 335h-539c2 -82 26 -150 66 -200c52 -65 130 -102 222 -102c64 0 112 13 147 28c51 21 74 47 87 47c12 0 21 -9 21 -22c0 -17 -30 -41 -77 -61c-11 -5 -23 -9 -35 -13c-15 -31 -33 -73 -33 -110c0 -27 7 -61 81 -61c30 0 41 8 50 8s14 -6 14 -14
c0 -10 -5 -15 -15 -19c-13 -4 -35 -8 -52 -8c-88 0 -110 40 -110 85c0 35 14 74 33 110c-35 -8 -73 -13 -110 -13c-114 0 -202 41 -262 115c-50 60 -79 144 -79 244c0 93 27 176 82 239c54 62 133 102 238 102c98 0 174 -40 224 -96c54 -59 79 -137 79 -224
c0 -24 -11 -35 -32 -35zM103 376h522c-2 82 -27 143 -66 188c-42 48 -107 82 -187 82c-91 0 -159 -35 -205 -93c-37 -44 -60 -109 -64 -177z" />
    <glyph glyph-name="Esmall" unicode="&#xf765;" horiz-adv-x="478" 
d="M120 253v-215h323c10 0 19 -8 19 -19c0 -12 -9 -19 -19 -19h-345c-12 0 -22 9 -22 21v502c0 12 10 21 22 21h345c10 0 19 -8 19 -19c0 -12 -9 -19 -19 -19h-323v-214h283c11 0 19 -9 19 -20s-8 -19 -19 -19h-283z" />
    <glyph glyph-name="Esmall.1" unicode="&#xe078;" horiz-adv-x="476" 
d="M98 472c36 51 99 74 185 74h158c10 0 19 -9 19 -20s-9 -19 -19 -19h-159c-74 0 -123 -19 -151 -58c-19 -28 -28 -67 -28 -118v-37h298c10 0 19 -9 19 -19c0 -11 -9 -19 -19 -19h-299v-40c0 -51 10 -90 29 -118c28 -39 77 -59 151 -59h159c10 0 19 -8 19 -20
c0 -10 -9 -19 -19 -19h-158c-87 0 -150 24 -186 76c-26 36 -38 87 -38 151v92c0 65 12 117 39 153z" />
    <glyph glyph-name="Esmall.2" unicode="&#xe079;" horiz-adv-x="508" 
d="M120 214v-176h353c10 0 19 -8 19 -19c0 -12 -9 -19 -19 -19h-375c-12 0 -22 9 -22 21v502c0 12 10 21 22 21h375c10 0 19 -8 19 -19c0 -12 -9 -19 -19 -19h-353v-254h309c11 0 19 -8 19 -19c0 -12 -8 -19 -19 -19h-309z" />
    <glyph glyph-name="Esmall.3" unicode="&#xe07a;" horiz-adv-x="592" 
d="M321 32c51 0 89 10 117 22c40 17 58 38 69 38s19 -9 19 -21c0 -14 -25 -35 -65 -52c-39 -16 -89 -27 -140 -27c-92 0 -161 34 -209 92c-39 48 -64 115 -64 195c0 76 22 141 66 192c44 49 106 81 191 81c77 0 141 -33 180 -76c43 -47 63 -111 63 -181
c0 -20 -9 -30 -27 -30h-425c3 -59 20 -114 50 -152c41 -52 102 -81 175 -81zM96 301h408c-3 60 -20 113 -53 148c-32 35 -86 63 -145 63c-70 0 -123 -27 -159 -72c-30 -36 -47 -87 -51 -139z" />
    <glyph glyph-name="Esmallacute" unicode="&#xe07b;" horiz-adv-x="481" 
d="M123 253v-215h323c10 0 19 -8 19 -19c0 -12 -9 -19 -19 -19h-345c-12 0 -22 9 -22 21v502c0 12 10 21 22 21h345c10 0 19 -8 19 -19c0 -12 -9 -19 -19 -19h-323v-214h283c11 0 20 -9 20 -20s-9 -19 -20 -19h-283zM209 645c0 4 1 8 4 13l88 155c4 9 11 15 19 15
c10 0 19 -8 19 -18c0 -5 -2 -8 -6 -16l-91 -150c-5 -9 -10 -13 -18 -13s-15 6 -15 14z" />
    <glyph glyph-name="Esmallacute.1" unicode="&#xe07c;" horiz-adv-x="476" 
d="M98 472c37 50 99 74 185 74h158c10 0 19 -9 19 -20s-9 -19 -19 -19h-159c-74 0 -123 -19 -151 -58c-19 -28 -28 -67 -28 -118v-37h298c10 0 19 -9 19 -19c0 -11 -9 -19 -19 -19h-299v-40c0 -51 10 -90 29 -118c28 -39 77 -59 151 -59h159c10 0 19 -8 19 -20
c0 -10 -9 -19 -19 -19h-158c-87 0 -150 24 -186 76c-26 36 -38 87 -38 151v92c0 65 12 117 39 153zM234 645c0 4 1 8 4 13l88 155c5 9 11 15 19 15c11 0 19 -8 19 -18c0 -5 -1 -8 -6 -16l-91 -150c-5 -9 -10 -13 -17 -13c-9 0 -16 6 -16 14z" />
    <glyph glyph-name="Esmallacute.2" unicode="&#xe07d;" horiz-adv-x="508" 
d="M120 214v-176h353c10 0 19 -8 19 -19c0 -12 -9 -19 -19 -19h-375c-12 0 -22 9 -22 21v502c0 12 10 21 22 21h375c10 0 19 -8 19 -19c0 -12 -9 -19 -19 -19h-353v-254h309c11 0 19 -8 19 -19c0 -12 -8 -19 -19 -19h-309zM230 645c0 4 1 8 4 13l88 155c5 9 11 15 19 15
c11 0 19 -8 19 -18c0 -5 -1 -8 -6 -16l-91 -150c-5 -9 -10 -13 -17 -13c-9 0 -16 6 -16 14z" />
    <glyph glyph-name="Esmallacute.3" unicode="&#xe07e;" horiz-adv-x="592" 
d="M321 32c51 0 89 10 117 22c40 17 58 38 69 38s19 -9 19 -21c0 -14 -25 -35 -65 -52c-39 -16 -89 -27 -140 -27c-92 0 -161 34 -209 92c-39 48 -64 115 -64 195c0 76 22 141 66 192c44 49 106 81 191 81c77 0 141 -33 180 -76c43 -47 63 -111 63 -181
c0 -20 -9 -30 -27 -30h-425c3 -59 20 -114 50 -152c41 -52 102 -81 175 -81zM96 301h408c-3 60 -20 113 -53 148c-32 35 -86 63 -145 63c-70 0 -123 -27 -159 -72c-30 -36 -47 -87 -51 -139zM239 645c0 4 1 8 4 13l88 155c5 9 11 15 19 15c11 0 19 -8 19 -18
c0 -5 -1 -8 -6 -16l-91 -150c-5 -9 -10 -13 -17 -13c-9 0 -16 6 -16 14z" />
    <glyph glyph-name="Esmallcaron" unicode="&#xe07f;" horiz-adv-x="481" 
d="M123 253v-215h323c10 0 19 -8 19 -19c0 -12 -9 -19 -19 -19h-345c-12 0 -22 9 -22 21v502c0 12 10 21 22 21h345c10 0 19 -8 19 -19c0 -12 -9 -19 -19 -19h-323v-214h283c11 0 20 -9 20 -20s-9 -19 -20 -19h-283zM115 810c0 10 7 17 16 17c5 0 9 -2 13 -6l127 -134
l127 134c4 4 8 6 13 6c9 0 17 -7 17 -17c0 -5 -4 -9 -8 -14l-131 -140c-5 -5 -10 -10 -18 -10c-7 0 -12 5 -17 10l-132 140c-4 5 -7 9 -7 14z" />
    <glyph glyph-name="Esmallcaron.1" unicode="&#xe080;" horiz-adv-x="476" 
d="M98 472c36 51 99 74 185 74h158c10 0 19 -9 19 -20s-9 -19 -19 -19h-159c-74 0 -123 -19 -151 -58c-19 -28 -28 -67 -28 -118v-37h298c10 0 19 -9 19 -19c0 -11 -9 -19 -19 -19h-299v-40c0 -51 10 -90 29 -118c28 -39 77 -59 151 -59h159c10 0 19 -8 19 -20
c0 -10 -9 -19 -19 -19h-158c-87 0 -150 24 -186 76c-26 36 -38 87 -38 151v92c0 65 12 117 39 153zM124 810c0 10 7 17 16 17c5 0 9 -2 13 -6l127 -134l127 134c4 4 8 6 13 6c9 0 17 -7 17 -17c0 -5 -4 -9 -8 -14l-131 -140c-5 -5 -10 -10 -18 -10c-7 0 -12 5 -17 10
l-132 140c-4 5 -7 9 -7 14z" />
    <glyph glyph-name="Esmallcaron.2" unicode="&#xe081;" horiz-adv-x="508" 
d="M120 214v-176h353c10 0 19 -8 19 -19c0 -12 -9 -19 -19 -19h-375c-12 0 -22 9 -22 21v502c0 12 10 21 22 21h375c10 0 19 -8 19 -19c0 -12 -9 -19 -19 -19h-353v-254h309c11 0 19 -8 19 -19c0 -12 -8 -19 -19 -19h-309zM129 810c0 10 7 17 16 17c5 0 9 -2 13 -6l127 -134
l127 134c4 4 8 6 13 6c9 0 17 -7 17 -17c0 -5 -4 -9 -8 -14l-131 -140c-5 -5 -10 -10 -18 -10c-7 0 -12 5 -17 10l-132 140c-4 5 -7 9 -7 14z" />
    <glyph glyph-name="Esmallcaron.3" unicode="&#xe082;" horiz-adv-x="592" 
d="M321 32c51 0 89 11 117 22c39 18 58 38 69 38s19 -9 19 -21c0 -14 -25 -35 -65 -52c-39 -16 -89 -27 -140 -27c-92 0 -162 33 -209 92c-40 48 -64 115 -64 195c0 76 22 141 66 192c44 49 106 81 191 81c77 0 141 -33 180 -76c43 -47 63 -111 63 -181
c0 -20 -9 -30 -27 -30h-425c3 -59 20 -114 50 -152c41 -52 102 -81 175 -81zM96 301h408c-3 60 -20 113 -53 148c-32 35 -86 63 -145 63c-70 0 -123 -27 -159 -72c-30 -36 -47 -87 -51 -139zM153 810c0 10 7 17 16 17c5 0 9 -2 13 -6l127 -134l127 134c4 4 8 6 13 6
c9 0 17 -7 17 -17c0 -5 -4 -9 -8 -14l-131 -140c-5 -5 -10 -10 -18 -10c-7 0 -12 5 -17 10l-132 140c-4 5 -7 9 -7 14z" />
    <glyph glyph-name="Esmallcircumflex" unicode="&#xe083;" horiz-adv-x="481" 
d="M123 253v-215h323c10 0 19 -8 19 -19c0 -12 -9 -19 -19 -19h-345c-12 0 -22 9 -22 21v502c0 12 10 21 22 21h345c10 0 19 -8 19 -19c0 -12 -9 -19 -19 -19h-323v-214h283c11 0 19 -9 19 -20s-8 -19 -19 -19h-283zM267 827c8 0 14 -4 18 -9l131 -140c5 -5 8 -10 8 -15
c0 -10 -8 -17 -17 -17c-5 0 -9 2 -13 6l-127 134l-127 -134c-4 -4 -8 -6 -13 -6c-9 0 -16 7 -16 17c0 5 2 10 7 15l132 140c4 5 10 9 17 9z" />
    <glyph glyph-name="Esmallcircumflex.1" unicode="&#xe084;" horiz-adv-x="476" 
d="M98 472c36 51 99 74 185 74h158c10 0 19 -9 19 -20s-9 -19 -19 -19h-159c-74 0 -123 -19 -151 -58c-19 -28 -28 -67 -28 -118v-37h298c10 0 19 -9 19 -19c0 -11 -9 -19 -19 -19h-299v-40c0 -51 10 -90 29 -118c28 -39 77 -59 151 -59h159c10 0 19 -8 19 -20
c0 -10 -9 -19 -19 -19h-158c-87 0 -150 24 -186 76c-26 36 -38 87 -38 151v92c0 65 12 117 39 153zM278 827c8 0 14 -4 18 -9l131 -140c5 -5 8 -10 8 -15c0 -10 -8 -17 -17 -17c-5 0 -9 2 -13 6l-127 134l-127 -134c-4 -4 -8 -6 -13 -6c-9 0 -16 7 -16 17c0 5 2 10 7 15
l132 140c4 5 10 9 17 9z" />
    <glyph glyph-name="Esmallcircumflex.2" unicode="&#xe085;" horiz-adv-x="508" 
d="M120 214v-176h353c10 0 19 -8 19 -19c0 -12 -9 -19 -19 -19h-375c-12 0 -22 9 -22 21v502c0 12 10 21 22 21h375c10 0 19 -8 19 -19c0 -12 -9 -19 -19 -19h-353v-254h309c11 0 19 -8 19 -19c0 -12 -8 -19 -19 -19h-309zM281 827c8 0 14 -4 18 -9l131 -140
c5 -5 8 -10 8 -15c0 -10 -8 -17 -17 -17c-5 0 -9 2 -13 6l-127 134l-127 -134c-4 -4 -8 -6 -13 -6c-9 0 -16 7 -16 17c0 5 2 10 7 15l132 140c4 5 10 9 17 9z" />
    <glyph glyph-name="Esmallcircumflex.3" unicode="&#xe086;" horiz-adv-x="592" 
d="M321 32c51 0 89 11 117 22c39 18 58 38 69 38s19 -9 19 -21c0 -14 -25 -35 -65 -52c-39 -16 -89 -27 -140 -27c-92 0 -162 33 -209 92c-40 48 -64 115 -64 195c0 76 22 141 66 192c44 49 106 81 191 81c77 0 141 -33 180 -76c43 -47 63 -111 63 -181
c0 -20 -9 -30 -27 -30h-425c3 -59 20 -114 50 -152c41 -52 102 -81 175 -81zM96 301h408c-3 60 -20 113 -53 148c-32 35 -86 63 -145 63c-70 0 -123 -27 -159 -72c-30 -36 -47 -87 -51 -139zM303 827c8 0 14 -4 18 -9l131 -140c5 -5 8 -10 8 -15c0 -10 -8 -17 -17 -17
c-5 0 -9 2 -13 6l-127 134l-127 -134c-4 -4 -8 -6 -13 -6c-9 0 -16 7 -16 17c0 5 2 10 7 15l132 140c4 5 10 9 17 9z" />
    <glyph glyph-name="Esmalldieresis" unicode="&#xe087;" horiz-adv-x="481" 
d="M123 253v-215h323c10 0 19 -8 19 -19c0 -12 -9 -19 -19 -19h-345c-12 0 -22 9 -22 21v502c0 12 10 21 22 21h345c10 0 19 -8 19 -19c0 -12 -9 -19 -19 -19h-323v-214h283c11 0 19 -9 19 -20s-8 -19 -19 -19h-283zM187 703c-16 0 -28 12 -28 28c0 15 12 27 28 27
c15 0 28 -12 28 -27c0 -16 -13 -28 -28 -28zM353 703c-16 0 -28 12 -28 28c0 15 12 27 28 27c15 0 27 -12 27 -27c0 -16 -12 -28 -27 -28z" />
    <glyph glyph-name="Esmalldieresis.1" unicode="&#xe088;" horiz-adv-x="476" 
d="M98 472c37 50 99 74 185 74h158c10 0 19 -9 19 -20s-9 -19 -19 -19h-159c-74 0 -123 -19 -151 -58c-19 -28 -28 -67 -28 -118v-37h298c10 0 19 -9 19 -19c0 -11 -9 -19 -19 -19h-299v-40c0 -51 10 -90 29 -118c28 -39 77 -59 151 -59h159c10 0 19 -8 19 -20
c0 -10 -9 -19 -19 -19h-158c-87 0 -150 24 -186 76c-26 36 -38 87 -38 151v92c0 65 12 117 39 153zM208 703c-16 0 -28 12 -28 28c0 15 12 27 28 27c15 0 28 -12 28 -27c0 -16 -13 -28 -28 -28zM374 703c-16 0 -28 12 -28 28c0 15 12 27 28 27c15 0 27 -12 27 -27
c0 -16 -12 -28 -27 -28z" />
    <glyph glyph-name="Esmalldieresis.2" unicode="&#xe089;" horiz-adv-x="508" 
d="M120 214v-176h353c10 0 19 -8 19 -19c0 -12 -9 -19 -19 -19h-375c-12 0 -22 9 -22 21v502c0 12 10 21 22 21h375c10 0 19 -8 19 -19c0 -12 -9 -19 -19 -19h-353v-254h309c11 0 19 -8 19 -19c0 -12 -8 -19 -19 -19h-309zM200 703c-16 0 -28 12 -28 28c0 15 12 27 28 27
c15 0 28 -12 28 -27c0 -16 -13 -28 -28 -28zM366 703c-16 0 -28 12 -28 28c0 15 12 27 28 27c15 0 27 -12 27 -27c0 -16 -12 -28 -27 -28z" />
    <glyph glyph-name="Esmalldieresis.3" unicode="&#xe08a;" horiz-adv-x="592" 
d="M321 32c51 0 89 10 117 22c40 17 58 38 69 38s19 -9 19 -21c0 -14 -25 -35 -65 -52c-39 -16 -89 -27 -140 -27c-92 0 -161 34 -209 92c-39 48 -64 115 -64 195c0 76 22 141 66 192c44 49 106 81 191 81c77 0 141 -33 180 -76c43 -47 63 -111 63 -181
c0 -20 -9 -30 -27 -30h-425c3 -59 20 -114 50 -152c41 -52 102 -81 175 -81zM96 301h408c-3 60 -20 113 -53 148c-32 35 -86 63 -145 63c-70 0 -123 -27 -159 -72c-30 -36 -47 -87 -51 -139zM218 703c-16 0 -28 12 -28 28c0 15 12 27 28 27c15 0 28 -12 28 -27
c0 -16 -13 -28 -28 -28zM384 703c-16 0 -28 12 -28 28c0 15 12 27 28 27c15 0 27 -12 27 -27c0 -16 -12 -28 -27 -28z" />
    <glyph glyph-name="Esmalldotaccent" unicode="&#xe08b;" horiz-adv-x="481" 
d="M123 253v-215h323c10 0 19 -8 19 -19c0 -12 -9 -19 -19 -19h-345c-12 0 -22 9 -22 21v502c0 12 10 21 22 21h345c10 0 19 -8 19 -19c0 -12 -9 -19 -19 -19h-323v-214h283c11 0 19 -9 19 -20s-8 -19 -19 -19h-283zM279 703c-16 0 -28 12 -28 28c0 15 12 27 28 27
c15 0 27 -12 27 -27c0 -16 -12 -28 -27 -28z" />
    <glyph glyph-name="Esmalldotaccent.1" unicode="&#xe08c;" horiz-adv-x="476" 
d="M98 472c36 51 99 74 185 74h158c10 0 19 -9 19 -20s-9 -19 -19 -19h-159c-74 0 -123 -19 -151 -58c-19 -28 -28 -67 -28 -118v-37h298c10 0 19 -9 19 -19c0 -11 -9 -19 -19 -19h-299v-40c0 -51 10 -90 29 -118c28 -39 77 -59 151 -59h159c10 0 19 -8 19 -20
c0 -10 -9 -19 -19 -19h-158c-87 0 -150 24 -186 76c-26 36 -38 87 -38 151v92c0 65 12 117 39 153zM291 703c-16 0 -28 12 -28 28c0 15 12 27 28 27c15 0 27 -12 27 -27c0 -16 -12 -28 -27 -28z" />
    <glyph glyph-name="Esmalldotaccent.2" unicode="&#xe08d;" horiz-adv-x="508" 
d="M120 214v-176h353c10 0 19 -8 19 -19c0 -12 -9 -19 -19 -19h-375c-12 0 -22 9 -22 21v502c0 12 10 21 22 21h375c10 0 19 -8 19 -19c0 -12 -9 -19 -19 -19h-353v-254h309c11 0 19 -8 19 -19c0 -12 -8 -19 -19 -19h-309zM285 703c-16 0 -28 12 -28 28c0 15 12 27 28 27
c15 0 27 -12 27 -27c0 -16 -12 -28 -27 -28z" />
    <glyph glyph-name="Esmalldotaccent.3" unicode="&#xe08e;" horiz-adv-x="592" 
d="M321 32c51 0 89 11 117 22c39 18 58 38 69 38s19 -9 19 -21c0 -14 -25 -35 -65 -52c-39 -16 -89 -27 -140 -27c-92 0 -162 33 -209 92c-40 48 -64 115 -64 195c0 76 22 141 66 192c44 49 106 81 191 81c77 0 141 -33 180 -76c43 -47 63 -111 63 -181
c0 -20 -9 -30 -27 -30h-425c3 -59 20 -114 50 -152c41 -52 102 -81 175 -81zM96 301h408c-3 60 -20 113 -53 148c-32 35 -86 63 -145 63c-70 0 -123 -27 -159 -72c-30 -36 -47 -87 -51 -139zM300 703c-16 0 -28 12 -28 28c0 15 12 27 28 27c15 0 27 -12 27 -27
c0 -16 -12 -28 -27 -28z" />
    <glyph glyph-name="Esmallgrave" unicode="&#xe08f;" horiz-adv-x="481" 
d="M123 253v-215h323c10 0 19 -8 19 -19c0 -12 -9 -19 -19 -19h-345c-12 0 -22 9 -22 21v502c0 12 10 21 22 21h345c10 0 19 -8 19 -19c0 -12 -9 -19 -19 -19h-323v-214h283c11 0 20 -9 20 -20s-9 -19 -20 -19h-283zM343 645c0 -8 -8 -14 -16 -14c-7 0 -12 4 -17 13l-91 150
c-5 8 -6 11 -6 16c0 10 8 18 19 18c8 0 14 -6 19 -15l87 -155c3 -5 5 -9 5 -13z" />
    <glyph glyph-name="Esmallgrave.1" unicode="&#xe090;" horiz-adv-x="476" 
d="M98 472c36 51 99 74 185 74h158c10 0 19 -9 19 -20s-9 -19 -19 -19h-159c-74 0 -123 -19 -151 -58c-19 -28 -28 -67 -28 -118v-37h298c10 0 19 -9 19 -19c0 -11 -9 -19 -19 -19h-299v-40c0 -51 10 -90 29 -118c28 -39 77 -59 151 -59h159c10 0 19 -8 19 -20
c0 -10 -9 -19 -19 -19h-158c-87 0 -150 24 -186 76c-26 36 -38 87 -38 151v92c0 65 12 117 39 153zM350 645c0 -8 -7 -14 -15 -14s-13 4 -18 13l-91 150c-5 8 -6 11 -6 16c0 10 8 18 19 18c8 0 14 -6 19 -15l88 -155c3 -5 4 -9 4 -13z" />
    <glyph glyph-name="Esmallgrave.2" unicode="&#xe091;" horiz-adv-x="508" 
d="M120 214v-176h353c10 0 19 -8 19 -19c0 -12 -9 -19 -19 -19h-375c-12 0 -22 9 -22 21v502c0 12 10 21 22 21h375c10 0 19 -8 19 -19c0 -12 -9 -19 -19 -19h-353v-254h309c11 0 19 -8 19 -19c0 -12 -8 -19 -19 -19h-309zM354 645c0 -8 -7 -14 -15 -14s-13 4 -18 13
l-91 150c-5 8 -6 11 -6 16c0 10 8 18 19 18c8 0 14 -6 19 -15l88 -155c3 -5 4 -9 4 -13z" />
    <glyph glyph-name="Esmallgrave.3" unicode="&#xe092;" horiz-adv-x="592" 
d="M321 32c51 0 89 10 117 22c40 17 58 38 69 38s19 -9 19 -21c0 -14 -25 -35 -65 -52c-39 -16 -89 -27 -140 -27c-92 0 -161 34 -209 92c-39 48 -64 115 -64 195c0 76 22 141 66 192c44 49 106 81 191 81c77 0 141 -33 180 -76c43 -47 63 -111 63 -181
c0 -20 -9 -30 -27 -30h-425c3 -59 20 -114 50 -152c41 -52 102 -81 175 -81zM96 301h408c-3 60 -20 113 -53 148c-32 35 -86 63 -145 63c-70 0 -123 -27 -159 -72c-30 -36 -47 -87 -51 -139zM370 645c0 -8 -7 -14 -15 -14s-13 4 -18 13l-91 150c-5 8 -6 11 -6 16
c0 10 8 18 19 18c8 0 14 -6 19 -15l88 -155c3 -5 4 -9 4 -13z" />
    <glyph glyph-name="Esmallmacron" unicode="&#xe093;" horiz-adv-x="481" 
d="M123 253v-215h323c10 0 19 -8 19 -19c0 -12 -9 -19 -19 -19h-345c-12 0 -22 9 -22 21v502c0 12 10 21 22 21h345c10 0 19 -8 19 -19c0 -12 -9 -19 -19 -19h-323v-214h283c11 0 19 -9 19 -20s-8 -19 -19 -19h-283zM399 723c0 -11 -8 -18 -18 -18h-219c-9 0 -17 7 -17 18
c0 10 8 18 17 18h219c10 0 18 -8 18 -18z" />
    <glyph glyph-name="Esmallmacron.1" unicode="&#xe094;" horiz-adv-x="476" 
d="M98 472c37 50 99 74 185 74h158c10 0 19 -9 19 -20s-9 -19 -19 -19h-159c-74 0 -123 -19 -151 -58c-19 -28 -28 -67 -28 -118v-37h298c10 0 19 -9 19 -19c0 -11 -9 -19 -19 -19h-299v-40c0 -51 10 -90 29 -118c28 -39 77 -59 151 -59h159c10 0 19 -8 19 -20
c0 -10 -9 -19 -19 -19h-158c-87 0 -150 24 -186 76c-26 36 -38 87 -38 151v92c0 65 12 117 39 153zM410 723c0 -11 -8 -18 -18 -18h-219c-9 0 -17 7 -17 18c0 10 8 18 17 18h219c10 0 18 -8 18 -18z" />
    <glyph glyph-name="Esmallmacron.2" unicode="&#xe095;" horiz-adv-x="508" 
d="M120 214v-176h353c10 0 19 -8 19 -19c0 -12 -9 -19 -19 -19h-375c-12 0 -22 9 -22 21v502c0 12 10 21 22 21h375c10 0 19 -8 19 -19c0 -12 -9 -19 -19 -19h-353v-254h309c11 0 19 -8 19 -19c0 -12 -8 -19 -19 -19h-309zM411 723c0 -11 -8 -18 -18 -18h-219
c-9 0 -17 7 -17 18c0 10 8 18 17 18h219c10 0 18 -8 18 -18z" />
    <glyph glyph-name="Esmallmacron.3" unicode="&#xe096;" horiz-adv-x="592" 
d="M321 32c51 0 89 10 117 22c40 17 58 38 69 38s19 -9 19 -21c0 -14 -25 -35 -65 -52c-39 -16 -89 -27 -140 -27c-92 0 -161 34 -209 92c-39 48 -64 115 -64 195c0 76 22 141 66 192c44 49 106 81 191 81c77 0 141 -33 180 -76c43 -47 63 -111 63 -181
c0 -20 -9 -30 -27 -30h-425c3 -59 20 -114 50 -152c41 -52 102 -81 175 -81zM96 301h408c-3 60 -20 113 -53 148c-32 35 -86 63 -145 63c-70 0 -123 -27 -159 -72c-30 -36 -47 -87 -51 -139zM434 723c0 -11 -8 -18 -18 -18h-219c-9 0 -17 7 -17 18c0 10 8 18 17 18h219
c10 0 18 -8 18 -18z" />
    <glyph glyph-name="Esmallogonek" unicode="&#xe097;" horiz-adv-x="481" 
d="M123 253v-215h323c10 0 19 -8 19 -19c0 -12 -9 -19 -19 -19h-99c-17 -36 -28 -69 -28 -98c0 -27 7 -61 81 -61c30 0 42 8 50 8c9 0 14 -6 14 -14c0 -10 -5 -15 -15 -19c-13 -4 -34 -8 -52 -8c-88 0 -109 40 -109 85c0 26 12 67 31 107h-218c-12 0 -22 9 -22 21v502
c0 12 10 21 22 21h345c10 0 19 -8 19 -19c0 -12 -9 -19 -19 -19h-323v-214h283c11 0 19 -9 19 -20s-8 -19 -19 -19h-283z" />
    <glyph glyph-name="Esmallogonek.1" unicode="&#xe098;" horiz-adv-x="476" 
d="M98 472c36 51 99 74 185 74h158c10 0 19 -9 19 -20s-9 -19 -19 -19h-159c-74 0 -123 -19 -151 -58c-19 -28 -28 -67 -28 -118v-37h298c10 0 19 -9 19 -19c0 -11 -9 -19 -19 -19h-299v-40c0 -51 10 -90 29 -118c28 -39 77 -59 151 -59h159c10 0 19 -8 19 -20
c0 -10 -9 -19 -19 -19h-100c-17 -36 -28 -69 -28 -98c0 -27 7 -61 81 -61c30 0 42 8 50 8c9 0 14 -6 14 -14c0 -10 -5 -15 -15 -19c-13 -4 -34 -8 -52 -8c-88 0 -109 40 -109 85c0 26 12 67 31 107h-30c-87 0 -150 24 -186 76c-26 36 -38 87 -38 151v92c0 65 12 117 39 153z
" />
    <glyph glyph-name="Esmallogonek.2" unicode="&#xe099;" horiz-adv-x="508" 
d="M120 214v-176h353c10 0 19 -8 19 -19c0 -12 -9 -19 -19 -19h-101c-17 -36 -28 -69 -28 -98c0 -27 7 -61 81 -61c30 0 42 8 50 8c9 0 14 -6 14 -14c0 -10 -5 -15 -15 -19c-13 -4 -34 -8 -52 -8c-88 0 -109 40 -109 85c0 26 12 67 31 107h-246c-12 0 -22 9 -22 21v502
c0 12 10 21 22 21h375c10 0 19 -8 19 -19c0 -12 -9 -19 -19 -19h-353v-254h309c11 0 19 -8 19 -19c0 -12 -8 -19 -19 -19h-309z" />
    <glyph glyph-name="Esmallogonek.3" unicode="&#xe09a;" horiz-adv-x="592" 
d="M321 32c51 0 89 10 117 22c40 17 58 38 69 38s19 -9 19 -21c0 -14 -25 -35 -65 -52c-16 -7 -33 -12 -51 -17c-16 -35 -29 -72 -29 -100c0 -27 7 -61 81 -61c30 0 42 8 50 8c9 0 14 -6 14 -14c0 -10 -5 -15 -15 -19c-13 -4 -34 -8 -52 -8c-88 0 -109 40 -109 85
c0 24 12 66 29 104c-19 -3 -38 -5 -58 -5c-92 0 -161 34 -209 92c-39 48 -64 115 -64 195c0 76 22 141 66 192c44 49 106 81 191 81c77 0 141 -33 180 -76c43 -47 63 -111 63 -181c0 -20 -9 -30 -27 -30h-425c3 -59 20 -114 50 -152c41 -52 102 -81 175 -81zM96 301h408
c-3 60 -20 113 -53 148c-32 35 -86 63 -145 63c-70 0 -123 -27 -159 -72c-30 -36 -47 -87 -51 -139z" />
    <glyph glyph-name="Eth" unicode="&#xd0;" horiz-adv-x="739" 
d="M299 320h-170v-279h174c74 0 143 12 201 44c83 46 135 132 135 255c0 88 -26 155 -69 204c-56 65 -146 96 -254 96h-187v-280h170c11 0 20 -9 20 -20s-9 -20 -20 -20zM81 23v297h-84c-10 0 -19 9 -19 20s9 20 19 20h84v298c0 12 10 23 24 23h220c118 0 218 -33 285 -109
c49 -55 78 -132 78 -232c0 -134 -55 -228 -142 -280c-67 -46 -151 -60 -236 -60h-205c-14 0 -24 11 -24 23z" />
    <glyph glyph-name="Euro" unicode="&#x20ac;" 
d="M5 288h49c-2 17 -3 34 -3 53c0 17 1 34 3 51h-49c-7 0 -14 6 -14 14s7 15 14 15h55c37 155 179 269 335 269c73 0 128 -17 170 -38c26 -12 42 -23 42 -39c0 -13 -10 -23 -22 -23c-14 0 -31 22 -75 38c-28 10 -64 19 -115 19c-131 0 -250 -96 -285 -226h394
c8 0 14 -7 14 -15s-6 -14 -14 -14h-400c-3 -17 -4 -34 -4 -51c0 -19 1 -36 4 -53h342c8 0 14 -6 14 -14s-6 -14 -14 -14h-337c34 -141 155 -227 287 -227c50 0 85 8 114 19c46 17 64 38 79 38c12 0 20 -9 20 -22c0 -17 -17 -28 -42 -40c-42 -21 -99 -38 -172 -38
c-160 0 -301 104 -336 270h-54c-7 0 -14 6 -14 14s7 14 14 14z" />
    <glyph glyph-name="F" unicode="F" horiz-adv-x="551" 
d="M102 681h403c12 0 21 -10 21 -21c0 -12 -9 -21 -21 -21h-379v-277h328c12 0 21 -10 21 -21c0 -12 -9 -22 -21 -22h-328v-306c0 -12 -10 -23 -24 -23c-13 0 -24 11 -24 23v645c0 12 11 23 24 23z" />
    <glyph glyph-name="F.1" unicode="&#xe09b;" horiz-adv-x="538" 
d="M513 660c0 -13 -10 -21 -22 -21h-141c-94 0 -158 -26 -195 -79c-26 -37 -38 -88 -38 -152v-44h321c12 0 22 -8 22 -21s-10 -21 -22 -21h-321v-309c0 -12 -11 -23 -24 -23c-14 0 -24 11 -24 23v385c0 83 17 147 52 193c45 61 122 90 229 90h141c12 0 22 -8 22 -21z" />
    <glyph glyph-name="F.2" unicode="&#xe09c;" horiz-adv-x="589" 
d="M102 681h441c12 0 21 -10 21 -21c0 -12 -9 -21 -21 -21h-417v-332h364c12 0 21 -10 21 -21c0 -12 -9 -22 -21 -22h-364v-251c0 -12 -10 -23 -24 -23c-13 0 -24 11 -24 23v645c0 12 11 23 24 23z" />
    <glyph glyph-name="Fsmall" unicode="&#xf766;" horiz-adv-x="452" 
d="M98 544h320c10 0 19 -8 19 -19c0 -12 -9 -19 -19 -19h-298v-214h257c11 0 19 -9 19 -20s-8 -19 -19 -19h-257v-240c0 -12 -10 -21 -22 -21s-22 9 -22 21v510c0 12 10 21 22 21z" />
    <glyph glyph-name="Fsmall.1" unicode="&#xe09d;" horiz-adv-x="443" 
d="M59 13v306c0 65 12 117 39 153c36 51 99 74 185 74h134c11 0 19 -9 19 -20s-8 -19 -19 -19h-135c-74 0 -123 -19 -151 -58c-19 -28 -28 -67 -28 -118v-37h276c10 0 19 -9 19 -19c0 -11 -9 -19 -19 -19h-277v-243c0 -12 -10 -21 -22 -21s-21 9 -21 21z" />
    <glyph glyph-name="Fsmall.2" unicode="&#xe09e;" horiz-adv-x="482" 
d="M98 544h350c10 0 19 -8 19 -19c0 -12 -9 -19 -19 -19h-328v-254h283c11 0 19 -8 19 -19c0 -12 -8 -19 -19 -19h-283v-201c0 -12 -10 -21 -22 -21s-22 9 -22 21v510c0 12 10 21 22 21z" />
    <glyph glyph-name="G" unicode="G" horiz-adv-x="738" 
d="M388 323h251c15 0 22 -10 22 -23v-287c0 -13 -9 -23 -22 -23c-15 0 -23 10 -23 23v46c-53 -39 -128 -69 -216 -69c-189 0 -349 126 -349 351c0 189 157 349 350 349c74 0 128 -17 173 -38c26 -12 43 -23 43 -40c0 -12 -10 -22 -22 -22c-19 0 -31 20 -87 40
c-30 10 -64 17 -107 17c-165 0 -301 -141 -301 -306c0 -191 136 -308 301 -308c88 0 165 31 215 74v174h-228c-11 0 -20 9 -20 21c0 11 9 21 20 21z" />
    <glyph glyph-name="G.2" unicode="&#xe09f;" horiz-adv-x="789" 
d="M430 306h291c12 0 22 -7 22 -23c0 -97 -43 -174 -109 -224c-58 -44 -135 -69 -221 -69c-198 0 -362 126 -362 351c0 200 160 349 361 349c78 0 135 -17 181 -38c27 -12 45 -23 45 -40c0 -12 -10 -22 -24 -22c-19 0 -32 20 -90 40c-31 10 -66 17 -111 17
c-172 0 -313 -129 -313 -306c0 -191 142 -308 314 -308c71 0 136 19 185 55c54 38 89 98 94 176h-263c-12 0 -21 9 -21 21s9 21 21 21z" />
    <glyph glyph-name="Gbreve" unicode="&#x11e;" horiz-adv-x="738" 
d="M388 323h251c15 0 22 -10 22 -23v-287c0 -13 -9 -23 -22 -23c-15 0 -23 10 -23 23v46c-53 -39 -128 -69 -216 -69c-189 0 -349 126 -349 351c0 189 157 349 350 349c74 0 128 -17 173 -38c26 -12 43 -23 43 -40c0 -12 -10 -22 -22 -22c-19 0 -31 20 -87 40
c-30 10 -64 17 -107 17c-165 0 -301 -141 -301 -306c0 -191 136 -308 301 -308c88 0 165 31 215 74v174h-228c-11 0 -20 9 -20 21c0 11 9 21 20 21zM369 848c37 0 62 17 82 44c16 22 24 43 36 43c10 0 18 -7 18 -16c0 -31 -54 -105 -136 -105s-136 74 -136 105
c0 9 8 16 18 16c12 0 20 -21 36 -43c19 -26 45 -44 82 -44z" />
    <glyph glyph-name="Gbreve.2" unicode="&#xe0a0;" horiz-adv-x="789" 
d="M430 306h291c12 0 22 -7 22 -23c0 -97 -43 -174 -109 -224c-58 -44 -135 -69 -221 -69c-198 0 -362 126 -362 351c0 200 160 349 361 349c78 0 135 -17 181 -38c27 -12 45 -23 45 -40c0 -12 -10 -22 -24 -22c-19 0 -32 20 -90 40c-31 10 -66 17 -111 17
c-172 0 -313 -129 -313 -306c0 -191 142 -308 314 -308c71 0 136 19 185 55c54 38 89 98 94 176h-263c-12 0 -21 9 -21 21s9 21 21 21zM404 848c37 0 62 17 82 44c16 22 24 43 36 43c10 0 18 -7 18 -16c0 -31 -54 -105 -136 -105s-136 74 -136 105c0 9 8 16 18 16
c12 0 20 -21 36 -43c19 -26 45 -44 82 -44z" />
    <glyph glyph-name="Gcommaaccent" unicode="&#x122;" horiz-adv-x="738" 
d="M388 323h251c15 0 22 -10 22 -23v-287c0 -13 -9 -23 -22 -23c-15 0 -23 10 -23 23v46c-53 -39 -128 -69 -216 -69c-189 0 -349 126 -349 351c0 189 157 349 350 349c74 0 128 -17 173 -38c26 -12 43 -23 43 -40c0 -12 -10 -22 -22 -22c-19 0 -31 20 -87 40
c-30 10 -64 17 -107 17c-165 0 -301 -141 -301 -306c0 -191 136 -308 301 -308c88 0 165 31 215 74v174h-228c-11 0 -20 9 -20 21c0 11 9 21 20 21zM368 -172c0 13 21 18 21 40c0 18 -23 16 -23 41c0 15 10 29 30 29c24 0 36 -18 36 -45c0 -43 -37 -74 -55 -74
c-5 0 -9 3 -9 9z" />
    <glyph glyph-name="Gcommaaccent.2" unicode="&#xe0a1;" horiz-adv-x="789" 
d="M430 306h291c12 0 22 -7 22 -23c0 -97 -43 -174 -109 -224c-58 -44 -135 -69 -221 -69c-198 0 -362 126 -362 351c0 200 160 349 361 349c78 0 135 -17 181 -38c27 -12 45 -23 45 -40c0 -12 -10 -22 -24 -22c-19 0 -32 20 -90 40c-31 10 -66 17 -111 17
c-172 0 -313 -129 -313 -306c0 -191 142 -308 314 -308c71 0 136 19 185 55c54 38 89 98 94 176h-263c-12 0 -21 9 -21 21s9 21 21 21zM386 -172c0 13 21 18 21 40c0 18 -23 16 -23 41c0 15 10 29 30 29c24 0 36 -18 36 -45c0 -43 -37 -74 -55 -74c-5 0 -9 3 -9 9z" />
    <glyph glyph-name="Gsmall" unicode="&#xf767;" horiz-adv-x="612" 
d="M330 552c52 0 100 -10 135 -27c24 -12 40 -24 40 -37c0 -12 -9 -21 -20 -21c-13 0 -27 14 -56 26c-23 10 -55 18 -99 18c-73 0 -140 -35 -184 -90c-33 -41 -53 -93 -53 -148c0 -70 24 -129 65 -171c44 -45 109 -69 173 -69c79 0 134 29 165 56v135h-178
c-11 0 -20 7 -20 19c0 11 9 19 20 19h199c13 0 22 -8 22 -21v-228c0 -13 -10 -21 -22 -21c-11 0 -21 8 -21 21v28c-37 -26 -95 -49 -166 -49c-77 0 -151 27 -203 78c-50 49 -79 120 -79 203c0 67 25 128 66 177c52 61 130 102 216 102z" />
    <glyph glyph-name="Gsmall.2" unicode="&#xe0a2;" horiz-adv-x="645" 
d="M338 552c60 0 107 -14 143 -29c28 -12 39 -20 39 -34c0 -13 -9 -21 -22 -21c-14 0 -34 16 -70 29c-23 8 -52 15 -90 15c-134 0 -245 -101 -245 -239c0 -149 112 -242 247 -242c57 0 108 17 146 45c43 32 69 78 71 133h-183c-11 0 -20 8 -20 19s9 20 20 20h210
c11 0 20 -8 20 -21c0 -78 -32 -139 -86 -179c-49 -36 -111 -56 -179 -56c-160 0 -291 101 -291 281c0 161 128 279 290 279z" />
    <glyph glyph-name="Gsmallbreve" unicode="&#xe0a3;" horiz-adv-x="612" 
d="M330 552c52 0 100 -10 135 -27c24 -12 40 -24 40 -37c0 -12 -9 -21 -20 -21c-13 0 -27 14 -56 26c-23 10 -55 18 -99 18c-73 0 -140 -35 -184 -90c-33 -41 -53 -93 -53 -148c0 -70 24 -129 65 -171c44 -45 109 -69 173 -69c79 0 134 29 165 56v135h-178
c-11 0 -20 7 -20 19c0 11 9 19 20 19h199c13 0 22 -8 22 -21v-228c0 -13 -10 -21 -22 -21c-11 0 -21 8 -21 21v28c-37 -26 -95 -49 -166 -49c-77 0 -151 27 -203 78c-50 49 -79 120 -79 203c0 67 25 128 66 177c52 61 130 102 216 102zM327 688c37 0 62 17 82 44
c16 22 24 43 36 43c10 0 18 -7 18 -16c0 -31 -54 -105 -136 -105s-136 74 -136 105c0 9 8 16 18 16c12 0 20 -21 36 -43c19 -26 45 -44 82 -44z" />
    <glyph glyph-name="Gsmallbreve.2" unicode="&#xe0a4;" horiz-adv-x="645" 
d="M338 552c60 0 107 -14 143 -29c28 -12 39 -20 39 -34c0 -13 -9 -21 -22 -21c-14 0 -34 16 -70 29c-23 8 -52 15 -90 15c-134 0 -245 -101 -245 -239c0 -149 112 -242 247 -242c57 0 108 17 146 45c43 32 69 78 71 133h-183c-11 0 -20 8 -20 19s9 20 20 20h210
c11 0 20 -8 20 -21c0 -78 -32 -139 -86 -179c-49 -36 -111 -56 -179 -56c-160 0 -291 101 -291 281c0 161 128 279 290 279zM341 688c37 0 62 17 82 44c16 22 24 43 36 43c10 0 18 -7 18 -16c0 -31 -54 -105 -136 -105s-136 74 -136 105c0 9 8 16 18 16c12 0 20 -21 36 -43
c19 -26 45 -44 82 -44z" />
    <glyph glyph-name="Gsmallcommaaccent" unicode="&#xe0a5;" horiz-adv-x="612" 
d="M330 552c52 0 100 -10 135 -27c24 -12 40 -24 40 -37c0 -12 -9 -21 -20 -21c-13 0 -27 14 -56 26c-23 10 -55 18 -99 18c-73 0 -140 -35 -184 -90c-33 -41 -53 -93 -53 -148c0 -70 24 -129 65 -171c44 -45 109 -69 173 -69c79 0 134 29 165 56v135h-178
c-11 0 -20 7 -20 19c0 11 9 19 20 19h199c13 0 22 -8 22 -21v-228c0 -13 -10 -21 -22 -21c-11 0 -21 8 -21 21v28c-37 -26 -95 -49 -166 -49c-77 0 -151 27 -203 78c-50 49 -79 120 -79 203c0 67 25 128 66 177c52 61 130 102 216 102zM303 -172c0 13 22 18 22 40
c0 18 -23 16 -23 41c0 15 10 29 30 29c23 0 36 -18 36 -45c0 -43 -37 -74 -55 -74c-6 0 -10 3 -10 9z" />
    <glyph glyph-name="Gsmallcommaaccent.2" unicode="&#xe0a6;" horiz-adv-x="645" 
d="M338 552c60 0 107 -14 143 -29c28 -12 39 -20 39 -34c0 -13 -9 -21 -22 -21c-14 0 -34 16 -70 29c-23 8 -52 15 -90 15c-134 0 -245 -101 -245 -239c0 -149 112 -242 247 -242c57 0 108 17 146 45c43 32 69 78 71 133h-183c-11 0 -20 8 -20 19s9 20 20 20h210
c11 0 20 -8 20 -21c0 -78 -32 -139 -86 -179c-49 -36 -111 -56 -179 -56c-160 0 -291 101 -291 281c0 161 128 279 290 279zM311 -172c0 13 21 18 21 40c0 18 -23 16 -23 41c0 15 10 29 30 29c24 0 36 -18 36 -45c0 -43 -37 -74 -55 -74c-5 0 -9 3 -9 9z" />
    <glyph glyph-name="H" unicode="H" horiz-adv-x="711" 
d="M78 13v654c0 12 11 23 24 23c14 0 24 -11 24 -23v-304h459v304c0 12 10 23 24 23s24 -11 24 -23v-654c0 -12 -11 -23 -24 -23c-14 0 -24 11 -24 23v307h-459v-307c0 -12 -10 -23 -24 -23c-13 0 -24 11 -24 23z" />
    <glyph glyph-name="H.2" unicode="&#xe0a7;" horiz-adv-x="751" 
d="M78 13v654c0 12 11 23 24 23c14 0 24 -11 24 -23v-360h499v360c0 12 10 23 24 23s24 -11 24 -23v-654c0 -12 -11 -23 -24 -23c-14 0 -24 11 -24 23v252h-499v-252c0 -12 -10 -23 -24 -23c-13 0 -24 11 -24 23z" />
    <glyph glyph-name="HT" unicode="&#xe0a8;" horiz-adv-x="500" 
 />
    <glyph glyph-name="Hsmall" unicode="&#xf768;" horiz-adv-x="598" 
d="M478 531c0 12 10 21 22 21s22 -9 22 -21v-518c0 -12 -10 -21 -22 -21s-22 9 -22 21v240h-358v-240c0 -12 -10 -21 -22 -21s-22 9 -22 21v518c0 12 10 21 22 21s22 -9 22 -21v-239h358v239z" />
    <glyph glyph-name="Hsmall.2" unicode="&#xe0a9;" horiz-adv-x="630" 
d="M76 13v518c0 12 10 21 22 21s22 -9 22 -21v-279h390v279c0 12 10 21 22 21s22 -9 22 -21v-518c0 -12 -10 -21 -22 -21s-22 9 -22 21v201h-390v-201c0 -12 -10 -21 -22 -21s-22 9 -22 21z" />
    <glyph glyph-name="I" unicode="I" horiz-adv-x="204" 
d="M78 13v654c0 12 11 23 24 23c14 0 24 -11 24 -23v-654c0 -12 -10 -23 -24 -23c-13 0 -24 11 -24 23z" />
    <glyph glyph-name="Iacute" unicode="&#xcd;" horiz-adv-x="205" 
d="M78 13v654c0 12 11 23 24 23c14 0 24 -11 24 -23v-654c0 -12 -10 -23 -24 -23c-13 0 -24 11 -24 23zM40 788c0 4 2 8 4 13l88 155c4 9 11 15 19 15c11 0 19 -8 19 -18c0 -5 -1 -8 -6 -16l-91 -150c-5 -9 -10 -13 -17 -13c-9 0 -16 6 -16 14z" />
    <glyph glyph-name="Icircumflex" unicode="&#xce;" horiz-adv-x="205" 
d="M78 13v654c0 12 11 23 24 23c14 0 24 -11 24 -23v-654c0 -12 -10 -23 -24 -23c-13 0 -24 11 -24 23zM105 970c8 0 14 -4 18 -9l131 -140c5 -5 8 -10 8 -15c0 -10 -8 -17 -17 -17c-5 0 -9 2 -13 6l-127 134l-127 -134c-4 -4 -8 -6 -13 -6c-9 0 -16 7 -16 17c0 5 2 10 7 15
l132 140c4 5 10 9 17 9z" />
    <glyph glyph-name="Idieresis" unicode="&#xcf;" horiz-adv-x="205" 
d="M78 13v654c0 12 11 23 24 23c14 0 24 -11 24 -23v-654c0 -12 -10 -23 -24 -23c-13 0 -24 11 -24 23zM22 846c-16 0 -28 12 -28 28c0 15 12 27 28 27c15 0 28 -12 28 -27c0 -16 -13 -28 -28 -28zM188 846c-16 0 -28 12 -28 28c0 15 12 27 28 27c15 0 27 -12 27 -27
c0 -16 -12 -28 -27 -28z" />
    <glyph glyph-name="Idotaccent" unicode="&#x130;" horiz-adv-x="205" 
d="M78 13v654c0 12 11 23 24 23c14 0 24 -11 24 -23v-654c0 -12 -10 -23 -24 -23c-13 0 -24 11 -24 23zM103 851c-16 0 -28 12 -28 28c0 15 12 27 28 27c15 0 27 -12 27 -27c0 -16 -12 -28 -27 -28z" />
    <glyph glyph-name="Igrave" unicode="&#xcc;" horiz-adv-x="205" 
d="M78 13v654c0 12 11 23 24 23c14 0 24 -11 24 -23v-654c0 -12 -10 -23 -24 -23c-13 0 -24 11 -24 23zM170 788c0 -8 -7 -14 -15 -14s-13 4 -18 13l-91 150c-5 8 -6 11 -6 16c0 10 8 18 19 18c8 0 14 -6 19 -15l88 -155c3 -5 4 -9 4 -13z" />
    <glyph glyph-name="Imacron" unicode="&#x12a;" horiz-adv-x="205" 
d="M78 13v654c0 12 11 23 24 23c14 0 24 -11 24 -23v-654c0 -12 -10 -23 -24 -23c-13 0 -24 11 -24 23zM231 886c0 -11 -8 -18 -18 -18h-219c-9 0 -17 7 -17 18c0 10 8 18 17 18h219c10 0 18 -8 18 -18z" />
    <glyph glyph-name="Iogonek" unicode="&#x12e;" horiz-adv-x="205" 
d="M37 -107c0 37 20 83 41 125v649c0 12 11 23 24 23c14 0 24 -11 24 -23v-654c0 -12 -10 -23 -24 -23c-4 0 -7 1 -10 2c-15 -34 -23 -61 -23 -90c0 -27 7 -61 81 -61c30 0 41 8 50 8s14 -6 14 -14c0 -10 -5 -15 -15 -19c-13 -4 -35 -8 -52 -8c-88 0 -110 40 -110 85z" />
    <glyph glyph-name="Ismall" unicode="&#xf769;" horiz-adv-x="196" 
d="M76 13v518c0 12 10 21 22 21s22 -9 22 -21v-518c0 -12 -10 -21 -22 -21s-22 9 -22 21z" />
    <glyph glyph-name="Ismallacute" unicode="&#xe0aa;" horiz-adv-x="202" 
d="M79 13v518c0 12 10 21 22 21s22 -9 22 -21v-518c0 -12 -10 -21 -22 -21s-22 9 -22 21zM36 645c0 4 2 8 5 13l87 155c5 9 11 15 19 15c11 0 19 -8 19 -18c0 -5 -1 -8 -6 -16l-91 -150c-5 -9 -10 -13 -17 -13c-8 0 -16 6 -16 14z" />
    <glyph glyph-name="Ismallcircumflex" unicode="&#xe0ab;" horiz-adv-x="202" 
d="M79 13v518c0 12 10 21 22 21s22 -9 22 -21v-518c0 -12 -10 -21 -22 -21s-22 9 -22 21zM101 827c8 0 14 -4 18 -9l131 -140c5 -5 8 -10 8 -15c0 -10 -8 -17 -17 -17c-5 0 -9 2 -13 6l-127 134l-127 -134c-4 -4 -8 -6 -13 -6c-9 0 -16 7 -16 17c0 5 2 10 7 15l132 140
c4 5 10 9 17 9z" />
    <glyph glyph-name="Ismalldieresis" unicode="&#xe0ac;" horiz-adv-x="202" 
d="M79 13v518c0 12 10 21 22 21s22 -9 22 -21v-518c0 -12 -10 -21 -22 -21s-22 9 -22 21zM19 703c-16 0 -28 12 -28 28c0 15 12 27 28 27c15 0 28 -12 28 -27c0 -16 -13 -28 -28 -28zM185 703c-16 0 -28 12 -28 28c0 15 12 27 28 27c15 0 27 -12 27 -27
c0 -16 -12 -28 -27 -28z" />
    <glyph glyph-name="Ismallgrave" unicode="&#xe0ad;" horiz-adv-x="202" 
d="M79 13v518c0 12 10 21 22 21s22 -9 22 -21v-518c0 -12 -10 -21 -22 -21s-22 9 -22 21zM166 645c0 -8 -7 -14 -15 -14s-13 4 -18 13l-91 150c-4 8 -6 11 -6 16c0 10 9 18 19 18c8 0 15 -6 19 -15l88 -155c3 -5 4 -9 4 -13z" />
    <glyph glyph-name="Ismallmacron" unicode="&#xe0ae;" horiz-adv-x="202" 
d="M79 13v518c0 12 10 21 22 21s22 -9 22 -21v-518c0 -12 -10 -21 -22 -21s-22 9 -22 21zM229 723c0 -11 -8 -18 -18 -18h-219c-9 0 -17 7 -17 18c0 10 8 18 17 18h219c10 0 18 -8 18 -18z" />
    <glyph glyph-name="Ismallogonek" unicode="&#xe0af;" horiz-adv-x="202" 
d="M79 13v518c0 12 10 21 22 21s22 -9 22 -21v-518c0 -7 -3 -12 -7 -15c-16 -35 -27 -68 -27 -96c0 -27 7 -61 81 -61c30 0 42 8 50 8c9 0 14 -6 14 -14c0 -10 -5 -15 -15 -19c-13 -4 -34 -8 -52 -8c-88 0 -109 40 -109 85c0 25 11 65 29 104c-5 3 -8 9 -8 16z" />
    <glyph glyph-name="J" unicode="J" horiz-adv-x="503" 
d="M428 667v-422c0 -87 -25 -148 -68 -189c-48 -46 -115 -66 -179 -66c-56 0 -115 22 -159 59c-7 6 -11 13 -11 21c0 12 10 22 22 22c7 0 13 -3 18 -8c39 -34 84 -52 129 -52c55 0 110 17 149 59c32 34 51 86 51 156v420c0 12 10 23 24 23s24 -11 24 -23z" />
    <glyph glyph-name="Jsmall" unicode="&#xf76a;" horiz-adv-x="430" 
d="M355 531v-333c0 -62 -17 -108 -44 -140c-38 -47 -96 -66 -155 -66c-39 0 -79 11 -104 25c-20 12 -33 24 -33 36c0 11 9 20 20 20c9 0 20 -8 36 -18c19 -11 44 -23 81 -23c44 0 89 15 119 50c22 27 36 65 36 118v331c0 12 10 21 22 21s22 -9 22 -21z" />
    <glyph glyph-name="K" unicode="K" horiz-adv-x="580" 
d="M519 649l-276 -268l305 -353c4 -5 5 -10 5 -15c0 -12 -9 -23 -22 -23c-11 0 -19 6 -27 15l-294 343l-84 -81v-254c0 -12 -10 -23 -24 -23c-13 0 -24 11 -24 23v654c0 12 11 23 24 23c14 0 24 -11 24 -23v-341l359 355c6 6 12 9 20 9c12 0 22 -10 22 -23
c0 -5 -2 -11 -8 -18z" />
    <glyph glyph-name="K.2" unicode="&#xe0b0;" horiz-adv-x="655" 
d="M78 13v654c0 12 11 23 24 23c14 0 24 -11 24 -23v-400l409 414c6 6 12 9 20 9c12 0 22 -10 22 -23c0 -5 -2 -11 -8 -17l-295 -296c93 -8 172 -38 228 -89c61 -57 95 -139 95 -247c0 -18 -10 -28 -24 -28c-17 0 -24 11 -24 23c0 98 -31 173 -88 224
c-53 49 -130 77 -223 81l-112 -112v-193c0 -12 -10 -23 -24 -23c-13 0 -24 11 -24 23z" />
    <glyph glyph-name="Kcommaaccent" unicode="&#x136;" horiz-adv-x="580" 
d="M519 649l-276 -268l305 -353c4 -5 5 -10 5 -15c0 -12 -9 -23 -22 -23c-11 0 -19 6 -27 15l-294 343l-84 -81v-254c0 -12 -10 -23 -24 -23c-13 0 -24 11 -24 23v654c0 12 11 23 24 23c14 0 24 -11 24 -23v-341l359 355c6 6 12 9 20 9c12 0 22 -10 22 -23
c0 -5 -2 -11 -8 -18zM268 -172c0 13 21 18 21 40c0 18 -23 16 -23 41c0 15 10 29 30 29c24 0 36 -18 36 -45c0 -43 -37 -74 -55 -74c-5 0 -9 3 -9 9z" />
    <glyph glyph-name="Kcommaaccent.2" unicode="&#xe0b1;" horiz-adv-x="655" 
d="M78 13v654c0 12 11 23 24 23c14 0 24 -11 24 -23v-400l409 414c6 6 12 9 20 9c12 0 22 -10 22 -23c0 -5 -2 -11 -8 -17l-295 -296c93 -8 172 -38 228 -89c61 -57 95 -139 95 -247c0 -18 -10 -28 -24 -28c-17 0 -24 11 -24 23c0 98 -31 173 -88 224
c-53 49 -130 77 -223 81l-112 -112v-193c0 -12 -10 -23 -24 -23c-13 0 -24 11 -24 23zM308 -172c0 13 21 18 21 40c0 18 -23 16 -23 41c0 15 10 29 30 29c24 0 36 -18 36 -45c0 -43 -37 -74 -55 -74c-5 0 -9 3 -9 9z" />
    <glyph glyph-name="Ksmall" unicode="&#xf76b;" horiz-adv-x="492" 
d="M427 513l-212 -208l239 -272c5 -6 9 -13 9 -19c0 -12 -9 -22 -22 -22c-9 0 -14 4 -19 10l-237 271l-65 -63v-197c0 -12 -10 -21 -22 -21s-22 9 -22 21v518c0 12 10 21 22 21s22 -9 22 -21v-264l279 277c4 5 10 8 17 8c11 0 20 -10 20 -21c0 -6 -3 -12 -9 -18z" />
    <glyph glyph-name="Ksmall.2" unicode="&#xe0b2;" horiz-adv-x="539" 
d="M76 13v518c0 12 10 21 22 21s22 -9 22 -21v-311l319 323c5 5 10 9 18 9c13 0 21 -10 21 -21c0 -7 -3 -13 -9 -19l-229 -227c72 -7 132 -31 175 -72c49 -45 77 -111 77 -196c0 -17 -10 -25 -22 -25c-15 0 -22 11 -22 21c0 78 -26 137 -72 177c-42 38 -100 58 -170 61
l-86 -87v-151c0 -12 -10 -21 -22 -21s-22 9 -22 21z" />
    <glyph glyph-name="Ksmallcommaaccent" unicode="&#xe0b3;" horiz-adv-x="495" 
d="M431 513l-213 -208l239 -272c5 -6 9 -13 9 -19c0 -12 -9 -22 -21 -22c-9 0 -15 4 -19 10l-238 271l-65 -63v-197c0 -12 -10 -21 -22 -21s-22 9 -22 21v518c0 12 10 21 22 21s22 -9 22 -21v-264l279 277c5 5 10 8 17 8c11 0 20 -10 20 -21c0 -6 -3 -12 -8 -18zM229 -172
c0 13 21 18 21 40c0 18 -23 16 -23 41c0 15 10 29 30 29c24 0 36 -18 36 -45c0 -43 -37 -74 -55 -74c-5 0 -9 3 -9 9z" />
    <glyph glyph-name="Ksmallcommaaccent.2" unicode="&#xe0b4;" horiz-adv-x="539" 
d="M76 13v518c0 12 10 21 22 21s22 -9 22 -21v-311l319 323c5 5 10 9 18 9c13 0 21 -10 21 -21c0 -7 -3 -13 -9 -19l-229 -227c72 -7 132 -31 175 -72c49 -45 77 -111 77 -196c0 -17 -10 -25 -22 -25c-15 0 -22 11 -22 21c0 78 -26 137 -72 177c-42 38 -100 58 -170 61
l-86 -87v-151c0 -12 -10 -21 -22 -21s-22 9 -22 21zM248 -172c0 13 21 18 21 40c0 18 -23 16 -23 41c0 15 10 29 30 29c24 0 36 -18 36 -45c0 -43 -37 -74 -55 -74c-5 0 -9 3 -9 9z" />
    <glyph glyph-name="L" unicode="L" horiz-adv-x="529" 
d="M78 23v644c0 12 11 23 24 23c14 0 24 -11 24 -23v-625h364c11 0 20 -9 20 -21s-9 -21 -20 -21h-388c-13 0 -24 11 -24 23z" />
    <glyph glyph-name="L.1" unicode="&#xe0b5;" horiz-adv-x="520" 
d="M69 281v386c0 12 10 23 24 23s24 -11 24 -23v-391c0 -74 15 -132 49 -171c38 -43 98 -63 183 -63h131c12 0 21 -9 21 -21s-9 -21 -21 -21h-131c-103 0 -178 24 -224 80c-38 46 -56 113 -56 201z" />
    <glyph glyph-name="LF" unicode="&#xe0b6;" horiz-adv-x="500" 
 />
    <glyph glyph-name="Lacute" unicode="&#x139;" horiz-adv-x="529" 
d="M78 23v644c0 12 11 23 24 23c14 0 24 -11 24 -23v-625h364c11 0 20 -9 20 -21s-9 -21 -20 -21h-388c-13 0 -24 11 -24 23zM82 788c0 4 2 8 4 13l88 155c4 9 11 15 19 15c11 0 19 -8 19 -18c0 -5 -1 -8 -6 -16l-91 -150c-5 -9 -10 -13 -17 -13c-9 0 -16 6 -16 14z" />
    <glyph glyph-name="Lacute.1" unicode="&#xe0b7;" horiz-adv-x="520" 
d="M69 281v386c0 12 10 23 24 23s24 -11 24 -23v-391c0 -74 15 -132 49 -171c38 -43 98 -63 183 -63h131c12 0 21 -9 21 -21s-9 -21 -21 -21h-131c-103 0 -178 24 -224 80c-38 46 -56 113 -56 201zM73 788c0 4 2 8 4 13l88 155c4 9 11 15 19 15c11 0 19 -8 19 -18
c0 -5 -1 -8 -6 -16l-91 -150c-5 -9 -10 -13 -17 -13c-9 0 -16 6 -16 14z" />
    <glyph glyph-name="Lcaron" unicode="&#x13d;" horiz-adv-x="529" 
d="M78 23v644c0 12 11 23 24 23c14 0 24 -11 24 -23v-625h364c11 0 20 -9 20 -21s-9 -21 -20 -21h-388c-13 0 -24 11 -24 23zM281 580c0 13 21 18 21 40c0 18 -23 16 -23 41c0 15 10 29 30 29c24 0 36 -18 36 -45c0 -43 -37 -74 -55 -74c-5 0 -9 3 -9 9z" />
    <glyph glyph-name="Lcaron.1" unicode="&#xe0b8;" horiz-adv-x="520" 
d="M69 281v386c0 12 10 23 24 23s24 -11 24 -23v-391c0 -74 15 -132 49 -171c38 -43 98 -63 183 -63h131c12 0 21 -9 21 -21s-9 -21 -21 -21h-131c-103 0 -178 24 -224 80c-38 46 -56 113 -56 201zM272 580c0 13 21 18 21 40c0 18 -23 16 -23 41c0 15 10 29 30 29
c24 0 36 -18 36 -45c0 -43 -37 -74 -55 -74c-5 0 -9 3 -9 9z" />
    <glyph glyph-name="Lcommaaccent" unicode="&#x13b;" horiz-adv-x="529" 
d="M78 23v644c0 12 11 23 24 23c14 0 24 -11 24 -23v-625h364c11 0 20 -9 20 -21s-9 -21 -20 -21h-388c-13 0 -24 11 -24 23zM264 -172c0 13 21 18 21 40c0 18 -23 16 -23 41c0 15 10 29 30 29c24 0 36 -18 36 -45c0 -43 -37 -74 -55 -74c-5 0 -9 3 -9 9z" />
    <glyph glyph-name="Lcommaaccent.1" unicode="&#xe0b9;" horiz-adv-x="520" 
d="M69 281v386c0 12 10 23 24 23s24 -11 24 -23v-391c0 -74 15 -132 49 -171c38 -43 98 -63 183 -63h131c12 0 21 -9 21 -21s-9 -21 -21 -21h-131c-103 0 -178 24 -224 80c-38 46 -56 113 -56 201zM254 -172c0 13 21 18 21 40c0 18 -23 16 -23 41c0 15 10 29 30 29
c24 0 36 -18 36 -45c0 -43 -37 -74 -55 -74c-5 0 -9 3 -9 9z" />
    <glyph glyph-name="Lslash" unicode="&#x141;" horiz-adv-x="537" 
d="M83 23v251l-79 -51c-7 -4 -11 -5 -15 -5c-10 0 -18 9 -18 19c0 6 3 12 11 17l101 64v349c0 12 10 23 24 23c13 0 24 -11 24 -23v-318l105 67c6 4 10 5 15 5c10 0 18 -8 18 -18c0 -7 -3 -13 -11 -18l-127 -81v-262h363c11 0 20 -10 20 -21c0 -12 -9 -21 -20 -21h-387
c-14 0 -24 11 -24 23z" />
    <glyph glyph-name="Lsmall" unicode="&#xf76c;" horiz-adv-x="441" 
d="M76 21v510c0 12 10 21 22 21s22 -9 22 -21v-493h285c10 0 19 -8 19 -19c0 -12 -9 -19 -19 -19h-307c-12 0 -22 9 -22 21z" />
    <glyph glyph-name="Lsmall.1" unicode="&#xe0ba;" horiz-adv-x="429" 
d="M102 531v-314c0 -50 10 -91 29 -119c27 -39 75 -59 150 -59h112c10 0 19 -8 19 -20c0 -10 -9 -19 -19 -19h-110c-87 0 -150 23 -187 75c-26 37 -37 88 -37 152v304c0 12 9 21 21 21s22 -9 22 -21z" />
    <glyph glyph-name="Lsmallacute" unicode="&#xe0bb;" horiz-adv-x="444" 
d="M79 21v510c0 12 10 21 22 21s22 -9 22 -21v-493h285c11 0 19 -8 19 -19c0 -12 -8 -19 -19 -19h-307c-12 0 -22 9 -22 21zM79 645c0 4 1 8 4 13l88 155c4 9 11 15 19 15c11 0 19 -8 19 -18c0 -5 -2 -8 -6 -16l-91 -150c-5 -9 -10 -13 -18 -13s-15 6 -15 14z" />
    <glyph glyph-name="Lsmallacute.1" unicode="&#xe0bc;" horiz-adv-x="430" 
d="M59 645c0 4 1 8 4 13l88 155c4 9 11 15 19 15c10 0 19 -8 19 -18c0 -5 -2 -8 -6 -16l-91 -150c-5 -9 -10 -13 -18 -13s-15 6 -15 14zM103 531v-314c0 -50 9 -91 28 -119c28 -39 76 -59 151 -59h112c10 0 19 -8 19 -20c0 -10 -9 -19 -19 -19h-110c-87 0 -151 23 -188 75
c-26 37 -37 88 -37 152v304c0 12 10 21 22 21s22 -9 22 -21z" />
    <glyph glyph-name="Lsmallcaron" unicode="&#xe0bd;" horiz-adv-x="444" 
d="M79 21v510c0 12 10 21 22 21s22 -9 22 -21v-493h285c11 0 19 -8 19 -19c0 -12 -8 -19 -19 -19h-307c-12 0 -22 9 -22 21zM252 442c0 14 22 19 22 40c0 18 -23 17 -23 42c0 15 10 29 30 29c23 0 36 -18 36 -45c0 -44 -37 -75 -55 -75c-6 0 -10 4 -10 9z" />
    <glyph glyph-name="Lsmallcaron.1" unicode="&#xe0be;" horiz-adv-x="429" 
d="M102 531v-314c0 -50 10 -91 29 -119c27 -39 75 -59 150 -59h112c10 0 19 -8 19 -20c0 -10 -9 -19 -19 -19h-110c-87 0 -150 23 -187 75c-26 37 -37 88 -37 152v304c0 12 9 21 21 21s22 -9 22 -21zM232 442c0 13 21 18 21 40c0 18 -23 16 -23 41c0 15 10 29 30 29
c24 0 36 -18 36 -45c0 -43 -37 -74 -55 -74c-5 0 -9 3 -9 9z" />
    <glyph glyph-name="Lsmallcommaaccent" unicode="&#xe0bf;" horiz-adv-x="444" 
d="M79 21v510c0 12 10 21 22 21s22 -9 22 -21v-493h285c11 0 19 -8 19 -19c0 -12 -8 -19 -19 -19h-307c-12 0 -22 9 -22 21zM220 -172c0 13 21 18 21 40c0 18 -22 16 -22 41c0 15 10 29 30 29c23 0 36 -18 36 -45c0 -43 -37 -74 -56 -74c-5 0 -9 3 -9 9z" />
    <glyph glyph-name="Lsmallcommaaccent.1" unicode="&#xe0c0;" horiz-adv-x="429" 
d="M102 531v-314c0 -50 10 -91 29 -119c27 -39 75 -59 150 -59h112c10 0 19 -8 19 -20c0 -10 -9 -19 -19 -19h-110c-87 0 -150 23 -187 75c-26 37 -37 88 -37 152v304c0 12 9 21 21 21s22 -9 22 -21zM211 -172c0 13 21 18 21 40c0 18 -23 16 -23 41c0 15 10 29 30 29
c24 0 36 -18 36 -45c0 -43 -37 -74 -55 -74c-5 0 -9 3 -9 9z" />
    <glyph glyph-name="M" unicode="M" horiz-adv-x="828" 
d="M78 661c0 15 12 29 29 29c13 0 21 -7 26 -16l281 -455l281 455c6 9 14 16 27 16c17 0 28 -14 28 -29v-648c0 -12 -9 -23 -23 -23s-24 11 -24 23v585l-265 -426c-5 -8 -12 -15 -24 -15s-19 7 -24 15l-265 426v-585c0 -12 -9 -23 -23 -23s-24 11 -24 23v648z" />
    <glyph glyph-name="M.2" unicode="&#xe0c1;" horiz-adv-x="966" 
d="M78 661c0 15 12 29 29 29c13 0 21 -7 26 -16l349 -621l351 621c5 9 13 16 26 16c17 0 29 -14 29 -29v-648c0 -12 -10 -23 -24 -23s-23 11 -23 23v583l-335 -591c-5 -8 -12 -15 -23 -15c-12 0 -19 7 -24 15l-334 591v-583c0 -12 -9 -23 -23 -23s-24 11 -24 23v648z" />
    <glyph glyph-name="M.3" unicode="&#xe0c2;" horiz-adv-x="1179" 
d="M1054 13v369c0 150 -55 265 -219 265c-63 0 -118 -19 -158 -62c-38 -39 -63 -103 -63 -198v-374c0 -12 -11 -23 -24 -23c-14 0 -24 11 -24 23v375c0 81 -22 166 -78 213c-33 29 -80 46 -142 46c-63 0 -119 -19 -159 -63c-38 -41 -61 -105 -61 -205v-366
c0 -12 -10 -23 -24 -23c-13 0 -24 11 -24 23v654c0 12 11 23 24 23c14 0 24 -11 24 -23v-100c8 15 18 28 29 41c48 54 116 82 196 82c66 0 119 -17 159 -48c42 -33 69 -82 84 -141c12 53 34 92 64 121c48 47 111 68 181 68c186 0 263 -126 263 -308v-369
c0 -12 -10 -23 -24 -23c-13 0 -24 11 -24 23z" />
    <glyph glyph-name="Msmall" unicode="&#xf76d;" horiz-adv-x="684" 
d="M76 13v514c0 14 10 25 25 25c11 0 18 -6 23 -14l218 -358l218 358c5 8 13 14 23 14c15 0 25 -11 25 -25v-514c0 -12 -8 -21 -21 -21s-21 9 -21 21v457l-202 -329c-4 -8 -11 -14 -22 -14s-17 6 -22 14l-201 329v-457c0 -12 -9 -21 -21 -21c-13 0 -22 9 -22 21z" />
    <glyph glyph-name="Msmall.2" unicode="&#xe0c3;" horiz-adv-x="826" 
d="M76 13v514c0 14 10 25 25 25c11 0 18 -6 23 -14l289 -492l289 492c4 8 12 14 22 14c15 0 26 -11 26 -25v-514c0 -12 -9 -21 -22 -21c-12 0 -21 9 -21 21v457c-3 -6 -268 -457 -272 -463c-4 -7 -11 -14 -22 -14s-17 7 -22 14l-272 463v-457c0 -12 -9 -21 -21 -21
c-13 0 -22 9 -22 21z" />
    <glyph glyph-name="Msmall.3" unicode="&#xe0c4;" horiz-adv-x="950" 
d="M837 13v314c0 66 -16 113 -46 143c-30 28 -72 42 -120 42c-50 0 -101 -17 -132 -61c-27 -37 -38 -86 -38 -148v-290c0 -12 -10 -21 -22 -21s-22 9 -22 21v314c0 66 -17 113 -47 143c-28 29 -71 42 -120 42c-50 0 -100 -17 -132 -61c-22 -30 -38 -72 -38 -127v-311
c0 -12 -10 -21 -22 -21s-22 9 -22 21v518c0 12 10 21 22 21s22 -9 22 -21v-74c13 22 29 39 45 52c41 33 89 43 132 43c53 0 101 -13 137 -44c25 -21 42 -49 53 -87c10 34 31 71 71 99c35 24 79 32 120 32c55 0 108 -15 147 -52c34 -34 56 -86 56 -165v-322
c0 -12 -10 -21 -22 -21s-22 9 -22 21z" />
    <glyph glyph-name="N" unicode="N" horiz-adv-x="738" 
d="M660 668v-652c0 -15 -12 -26 -27 -26c-10 0 -18 5 -26 15l-482 600v-593c0 -12 -10 -22 -23 -22c-14 0 -24 10 -24 22v652c0 14 12 26 27 26c10 0 17 -5 25 -15l484 -600v593c0 12 9 22 23 22c13 0 23 -10 23 -22z" />
    <glyph glyph-name="N.2" unicode="&#xe0c5;" horiz-adv-x="771" 
d="M647 13c0 86 -192 237 -266 300c-63 53 -125 105 -181 163c-32 32 -58 63 -75 92v-555c0 -12 -10 -23 -23 -23c-14 0 -24 11 -24 23v655c0 12 10 22 24 22c13 0 23 -11 23 -22c0 -77 131 -189 265 -301c63 -52 125 -106 182 -164c31 -32 57 -63 75 -92v557
c0 12 10 22 23 22s23 -10 23 -22v-655c0 -12 -10 -23 -23 -23s-23 11 -23 23z" />
    <glyph glyph-name="N.3" unicode="&#xe0c6;" horiz-adv-x="723" 
d="M600 13v380c0 92 -19 159 -66 202c-35 33 -87 51 -158 51c-89 0 -160 -34 -205 -107c-29 -46 -43 -102 -45 -156v-370c0 -12 -10 -23 -24 -23c-13 0 -24 11 -24 23v654c0 12 11 23 24 23c14 0 24 -11 24 -23v-148c16 44 47 89 86 119c41 32 99 52 169 52
c81 0 142 -19 187 -59c53 -47 80 -126 80 -232v-386c0 -12 -10 -23 -24 -23c-13 0 -24 11 -24 23z" />
    <glyph glyph-name="Nacute" unicode="&#x143;" horiz-adv-x="738" 
d="M660 668v-652c0 -15 -12 -26 -27 -26c-10 0 -18 5 -26 15l-482 600v-593c0 -12 -10 -22 -23 -22c-14 0 -24 10 -24 22v652c0 14 12 26 27 26c10 0 17 -5 25 -15l484 -600v593c0 12 9 22 23 22c13 0 23 -10 23 -22zM305 788c0 4 2 8 4 13l88 155c4 9 11 15 19 15
c11 0 19 -8 19 -18c0 -5 -1 -8 -6 -16l-91 -150c-5 -9 -10 -13 -17 -13c-9 0 -16 6 -16 14z" />
    <glyph glyph-name="Nacute.2" unicode="&#xe0c7;" horiz-adv-x="771" 
d="M335 788c0 4 2 8 4 13l88 155c4 9 11 15 19 15c11 0 19 -8 19 -18c0 -5 -1 -8 -6 -16l-91 -150c-5 -9 -10 -13 -17 -13c-9 0 -16 6 -16 14zM647 13c0 86 -192 237 -266 300c-63 53 -125 105 -181 163c-32 32 -58 63 -75 92v-555c0 -12 -10 -23 -23 -23
c-14 0 -24 11 -24 23v655c0 12 10 22 24 22c13 0 23 -11 23 -22c0 -77 131 -189 265 -301c63 -52 125 -106 182 -164c31 -32 57 -63 75 -92v557c0 12 10 22 23 22s23 -10 23 -22v-655c0 -12 -10 -23 -23 -23s-23 11 -23 23z" />
    <glyph glyph-name="Nacute.3" unicode="&#xe0c8;" horiz-adv-x="723" 
d="M600 13v380c0 92 -19 159 -66 202c-35 33 -87 51 -158 51c-89 0 -160 -34 -205 -107c-31 -50 -45 -111 -45 -169v-357c0 -12 -10 -23 -24 -23c-13 0 -24 11 -24 23v654c0 12 11 23 24 23c14 0 24 -11 24 -23v-148c16 44 47 89 86 119c41 32 99 52 169 52
c81 0 142 -19 187 -59c53 -47 80 -126 80 -232v-386c0 -12 -10 -23 -24 -23c-13 0 -24 11 -24 23zM305 788c0 4 2 8 4 13l88 155c4 9 11 15 19 15c11 0 19 -8 19 -18c0 -5 -1 -8 -6 -16l-91 -150c-5 -9 -10 -13 -17 -13c-9 0 -16 6 -16 14z" />
    <glyph glyph-name="Ncaron" unicode="&#x147;" horiz-adv-x="738" 
d="M660 668v-652c0 -15 -12 -26 -27 -26c-10 0 -18 5 -26 15l-482 600v-593c0 -12 -10 -22 -23 -22c-14 0 -24 10 -24 22v652c0 14 12 26 27 26c10 0 17 -5 25 -15l484 -600v593c0 12 9 22 23 22c13 0 23 -10 23 -22zM215 953c0 10 7 17 16 17c5 0 9 -2 13 -6l127 -134
l127 134c4 4 8 6 13 6c9 0 17 -7 17 -17c0 -5 -4 -9 -8 -14l-131 -140c-5 -5 -10 -10 -18 -10c-7 0 -12 5 -17 10l-132 140c-4 5 -7 9 -7 14z" />
    <glyph glyph-name="Ncaron.2" unicode="&#xe0c9;" horiz-adv-x="771" 
d="M243 953c0 10 7 17 16 17c5 0 9 -2 13 -6l127 -134l127 134c4 4 8 6 13 6c9 0 17 -7 17 -17c0 -5 -4 -9 -8 -14l-131 -140c-5 -5 -10 -10 -18 -10c-7 0 -12 5 -17 10l-132 140c-4 5 -7 9 -7 14zM647 13c0 86 -192 237 -266 300c-63 53 -125 105 -181 163
c-32 32 -58 63 -75 92v-555c0 -12 -10 -23 -23 -23c-14 0 -24 11 -24 23v655c0 12 10 22 24 22c13 0 23 -11 23 -22c0 -77 131 -189 265 -301c63 -52 125 -106 182 -164c31 -32 57 -63 75 -92v557c0 12 10 22 23 22s23 -10 23 -22v-655c0 -12 -10 -23 -23 -23s-23 11 -23 23
z" />
    <glyph glyph-name="Ncaron.3" unicode="&#xe0ca;" horiz-adv-x="723" 
d="M600 13v380c0 92 -19 159 -66 202c-35 33 -87 51 -158 51c-89 0 -160 -34 -205 -107c-29 -46 -43 -102 -45 -156v-370c0 -12 -10 -23 -24 -23c-13 0 -24 11 -24 23v654c0 12 11 23 24 23c14 0 24 -11 24 -23v-148c16 44 47 89 86 119c41 32 99 52 169 52
c81 0 142 -19 187 -59c53 -47 80 -126 80 -232v-386c0 -12 -10 -23 -24 -23c-13 0 -24 11 -24 23zM232 953c0 10 7 17 16 17c5 0 9 -2 13 -6l127 -134l127 134c4 4 8 6 13 6c9 0 17 -7 17 -17c0 -5 -4 -9 -8 -14l-131 -140c-5 -5 -10 -10 -18 -10c-7 0 -12 5 -17 10
l-132 140c-4 5 -7 9 -7 14z" />
    <glyph glyph-name="Ncommaaccent" unicode="&#x145;" horiz-adv-x="738" 
d="M660 668v-652c0 -15 -12 -26 -27 -26c-10 0 -18 5 -26 15l-482 600v-593c0 -12 -10 -22 -23 -22c-14 0 -24 10 -24 22v652c0 14 12 26 27 26c10 0 17 -5 25 -15l484 -600v593c0 12 9 22 23 22c13 0 23 -10 23 -22zM340 -172c0 13 21 18 21 40c0 18 -23 16 -23 41
c0 15 10 29 30 29c24 0 36 -18 36 -45c0 -43 -37 -74 -55 -74c-5 0 -9 3 -9 9z" />
    <glyph glyph-name="Ncommaaccent.2" unicode="&#xe0cb;" horiz-adv-x="771" 
d="M359 -172c0 13 21 18 21 40c0 18 -23 16 -23 41c0 15 10 29 30 29c24 0 36 -18 36 -45c0 -43 -37 -74 -55 -74c-5 0 -9 3 -9 9zM647 13c0 86 -192 237 -266 300c-63 53 -125 105 -181 163c-32 32 -58 63 -75 92v-555c0 -12 -10 -23 -23 -23c-14 0 -24 11 -24 23v655
c0 12 10 22 24 22c13 0 23 -11 23 -22c0 -77 131 -189 265 -301c63 -52 125 -106 182 -164c31 -32 57 -63 75 -92v557c0 12 10 22 23 22s23 -10 23 -22v-655c0 -12 -10 -23 -23 -23s-23 11 -23 23z" />
    <glyph glyph-name="Ncommaaccent.3" unicode="&#xe0cc;" horiz-adv-x="723" 
d="M600 13v380c0 92 -19 159 -66 202c-35 33 -87 51 -158 51c-89 0 -160 -34 -205 -107c-29 -46 -43 -102 -45 -156v-370c0 -12 -10 -23 -24 -23c-13 0 -24 11 -24 23v654c0 12 11 23 24 23c14 0 24 -11 24 -23v-148c16 44 47 89 86 119c41 32 99 52 169 52
c81 0 142 -19 187 -59c53 -47 80 -126 80 -232v-386c0 -12 -10 -23 -24 -23c-13 0 -24 11 -24 23zM343 -172c0 13 21 18 21 40c0 18 -23 16 -23 41c0 15 10 29 30 29c24 0 36 -18 36 -45c0 -43 -37 -74 -55 -74c-5 0 -9 3 -9 9z" />
    <glyph glyph-name="Nsmall" unicode="&#xf76e;" horiz-adv-x="623" 
d="M547 532v-520c0 -11 -10 -20 -21 -20c-9 0 -17 8 -21 13l-387 469v-462c0 -11 -9 -20 -21 -20s-21 9 -21 20v520c0 11 10 20 21 20c9 0 17 -8 21 -13l387 -470v463c0 11 9 20 21 20s21 -9 21 -20z" />
    <glyph glyph-name="Nsmall.2" unicode="&#xe0cd;" horiz-adv-x="652" 
d="M575 532v-520c0 -11 -9 -20 -21 -20s-21 10 -21 20c0 60 -106 153 -211 238c-71 58 -160 129 -204 201v-439c0 -11 -9 -20 -21 -20s-21 9 -21 20v520c0 11 9 20 21 20s21 -10 21 -20c0 -60 107 -153 211 -238c71 -58 161 -129 204 -201v439c0 11 9 20 21 20s21 -9 21 -20
z" />
    <glyph glyph-name="Nsmall.3" unicode="&#xe0ce;" horiz-adv-x="609" 
d="M497 13v299c0 72 -16 125 -53 160c-29 26 -69 40 -126 40c-71 0 -127 -28 -163 -85c-23 -38 -35 -82 -35 -125v-289c0 -12 -10 -21 -22 -21s-22 9 -22 21v518c0 12 10 21 22 21s22 -9 22 -21v-111c14 34 38 66 70 90c33 25 80 42 136 42c63 0 114 -16 150 -48
c43 -38 64 -100 64 -185v-306c0 -12 -10 -21 -22 -21s-21 9 -21 21z" />
    <glyph glyph-name="Nsmallacute" unicode="&#xe0cf;" horiz-adv-x="629" 
d="M550 532v-520c0 -11 -10 -20 -21 -20c-9 0 -17 8 -21 13l-387 469v-462c0 -11 -9 -20 -21 -20s-21 9 -21 20v520c0 11 10 20 21 20c9 0 17 -8 22 -13l386 -470v463c0 11 9 20 21 20s21 -9 21 -20zM258 645c0 4 1 8 4 13l88 155c4 9 11 15 19 15c10 0 19 -8 19 -18
c0 -5 -2 -8 -6 -16l-91 -150c-5 -9 -10 -13 -18 -13s-15 6 -15 14z" />
    <glyph glyph-name="Nsmallacute.2" unicode="&#xe0d0;" horiz-adv-x="652" 
d="M274 645c0 4 2 8 4 13l88 155c4 9 11 15 19 15c11 0 19 -8 19 -18c0 -5 -1 -8 -6 -16l-91 -150c-5 -9 -10 -13 -17 -13c-9 0 -16 6 -16 14zM575 532v-520c0 -11 -9 -20 -21 -20s-21 10 -21 20c0 60 -106 153 -211 238c-71 58 -160 129 -204 201v-439
c0 -11 -9 -20 -21 -20s-21 9 -21 20v520c0 11 9 20 21 20s21 -10 21 -20c0 -60 107 -153 211 -238c71 -58 161 -129 204 -201v439c0 11 9 20 21 20s21 -9 21 -20z" />
    <glyph glyph-name="Nsmallacute.3" unicode="&#xe0d1;" horiz-adv-x="609" 
d="M497 13v299c0 72 -16 125 -53 160c-29 26 -69 40 -126 40c-71 0 -127 -28 -163 -85c-23 -38 -34 -82 -35 -125v-289c0 -12 -10 -21 -22 -21s-22 9 -22 21v518c0 12 10 21 22 21s22 -9 22 -21v-111c14 34 38 66 70 90c33 25 80 42 136 42c63 0 114 -16 150 -48
c43 -38 64 -100 64 -185v-306c0 -12 -10 -21 -22 -21s-21 9 -21 21zM258 645c0 4 2 8 4 13l88 155c4 9 11 15 19 15c11 0 19 -8 19 -18c0 -5 -1 -8 -6 -16l-91 -150c-5 -9 -10 -13 -17 -13c-9 0 -16 6 -16 14z" />
    <glyph glyph-name="Nsmallcaron" unicode="&#xe0d2;" horiz-adv-x="629" 
d="M550 532v-520c0 -11 -10 -20 -21 -20c-9 0 -17 8 -21 13l-387 469v-462c0 -11 -9 -20 -21 -20s-21 9 -21 20v520c0 11 10 20 21 20c9 0 17 -8 22 -13l386 -470v463c0 11 9 20 21 20s21 -9 21 -20zM158 810c0 10 8 17 17 17c5 0 8 -2 12 -6l128 -134l127 134c4 4 8 6 12 6
c10 0 17 -7 17 -17c0 -5 -3 -10 -7 -14l-132 -140c-5 -5 -10 -10 -17 -10c-8 0 -13 5 -18 10l-131 140c-5 4 -8 9 -8 14z" />
    <glyph glyph-name="Nsmallcaron.2" unicode="&#xe0d3;" horiz-adv-x="652" 
d="M169 810c0 10 7 17 16 17c5 0 9 -2 13 -6l127 -134l127 134c4 4 8 6 13 6c9 0 17 -7 17 -17c0 -5 -4 -9 -8 -14l-131 -140c-5 -5 -10 -10 -18 -10c-7 0 -12 5 -17 10l-132 140c-4 5 -7 9 -7 14zM575 532v-520c0 -11 -9 -20 -21 -20s-21 10 -21 20c0 60 -106 153 -211 238
c-71 58 -160 129 -204 201v-439c0 -11 -9 -20 -21 -20s-21 9 -21 20v520c0 11 9 20 21 20s21 -10 21 -20c0 -60 107 -153 211 -238c71 -58 161 -129 204 -201v439c0 11 9 20 21 20s21 -9 21 -20z" />
    <glyph glyph-name="Nsmallcaron.3" unicode="&#xe0d4;" horiz-adv-x="609" 
d="M497 13v299c0 72 -16 125 -53 160c-29 26 -69 40 -126 40c-71 0 -127 -28 -163 -85c-23 -38 -35 -82 -35 -125v-289c0 -12 -10 -21 -22 -21s-22 9 -22 21v518c0 12 10 21 22 21s22 -9 22 -21v-111c14 34 38 66 70 90c33 25 80 42 136 42c63 0 114 -16 150 -48
c43 -38 64 -100 64 -185v-306c0 -12 -10 -21 -22 -21s-21 9 -21 21zM160 810c0 10 7 17 16 17c5 0 9 -2 13 -6l127 -134l127 134c4 4 8 6 13 6c9 0 17 -7 17 -17c0 -5 -4 -9 -8 -14l-131 -140c-5 -5 -10 -10 -18 -10c-7 0 -12 5 -17 10l-132 140c-4 5 -7 9 -7 14z" />
    <glyph glyph-name="Nsmallcommaaccent" unicode="&#xe0d5;" horiz-adv-x="629" 
d="M550 532v-520c0 -11 -10 -20 -21 -20c-9 0 -17 8 -21 13l-387 469v-462c0 -11 -9 -20 -21 -20s-21 9 -21 20v520c0 11 10 20 21 20c9 0 17 -8 22 -13l386 -470v463c0 11 9 20 21 20s21 -9 21 -20zM285 -172c0 13 22 18 22 40c0 18 -23 16 -23 41c0 15 10 29 30 29
c23 0 36 -18 36 -45c0 -43 -37 -74 -55 -74c-6 0 -10 3 -10 9z" />
    <glyph glyph-name="Nsmallcommaaccent.2" unicode="&#xe0d6;" horiz-adv-x="652" 
d="M303 -172c0 13 21 18 21 40c0 18 -23 16 -23 41c0 15 10 29 30 29c24 0 36 -18 36 -45c0 -43 -37 -74 -55 -74c-5 0 -9 3 -9 9zM575 532v-520c0 -11 -9 -20 -21 -20s-21 10 -21 20c0 60 -106 153 -211 238c-71 58 -160 129 -204 201v-439c0 -11 -9 -20 -21 -20
s-21 9 -21 20v520c0 11 9 20 21 20s21 -10 21 -20c0 -60 107 -153 211 -238c71 -58 161 -129 204 -201v439c0 11 9 20 21 20s21 -9 21 -20z" />
    <glyph glyph-name="Nsmallcommaaccent.3" unicode="&#xe0d7;" horiz-adv-x="609" 
d="M497 13v299c0 72 -16 125 -53 160c-29 26 -69 40 -126 40c-71 0 -127 -28 -163 -85c-23 -38 -34 -82 -35 -125v-289c0 -12 -10 -21 -22 -21s-22 9 -22 21v518c0 12 10 21 22 21s22 -9 22 -21v-111c14 34 38 66 70 90c33 25 80 42 136 42c63 0 114 -16 150 -48
c43 -38 64 -100 64 -185v-306c0 -12 -10 -21 -22 -21s-21 9 -21 21zM283 -172c0 13 21 18 21 40c0 18 -23 16 -23 41c0 15 10 29 30 29c24 0 36 -18 36 -45c0 -43 -37 -74 -55 -74c-5 0 -9 3 -9 9z" />
    <glyph glyph-name="Nsmalltilde" unicode="&#xe0d8;" horiz-adv-x="629" 
d="M550 532v-520c0 -11 -10 -20 -21 -20c-9 0 -17 8 -21 13l-387 469v-462c0 -11 -9 -20 -21 -20s-21 9 -21 20v520c0 11 10 20 21 20c9 0 17 -8 22 -13l386 -470v463c0 11 9 20 21 20s21 -9 21 -20zM470 742c0 -12 -10 -25 -20 -34c-15 -15 -39 -24 -65 -24
c-29 0 -50 14 -72 27c-21 13 -40 26 -65 26c-21 0 -33 -8 -43 -17c-13 -11 -19 -25 -30 -25c-9 0 -16 7 -16 17c0 12 11 25 20 34c16 15 39 24 65 24c31 0 54 -13 74 -25c21 -14 40 -27 64 -27c20 0 32 7 41 15c15 11 21 26 31 26s16 -7 16 -17z" />
    <glyph glyph-name="Nsmalltilde.2" unicode="&#xe0d9;" horiz-adv-x="652" 
d="M481 742c0 -12 -10 -25 -21 -35c-15 -14 -41 -23 -67 -23c-28 0 -50 14 -72 27c-20 13 -40 26 -65 26c-48 0 -51 -42 -71 -42c-9 0 -16 7 -16 17c0 12 11 25 20 34c16 15 42 24 67 24c31 0 54 -13 74 -25c22 -14 40 -27 64 -27c47 0 53 41 70 41c10 0 17 -7 17 -17z
M575 532v-520c0 -11 -9 -20 -21 -20s-21 10 -21 20c0 60 -106 153 -211 238c-71 58 -160 129 -204 201v-439c0 -11 -9 -20 -21 -20s-21 9 -21 20v520c0 11 9 20 21 20s21 -10 21 -20c0 -60 107 -153 211 -238c71 -58 161 -129 204 -201v439c0 11 9 20 21 20s21 -9 21 -20z
" />
    <glyph glyph-name="Nsmalltilde.3" unicode="&#xe0da;" horiz-adv-x="609" 
d="M497 13v299c0 72 -16 125 -53 160c-29 26 -69 40 -126 40c-71 0 -127 -28 -163 -85c-23 -38 -34 -82 -35 -125v-289c0 -12 -10 -21 -22 -21s-22 9 -22 21v518c0 12 10 21 22 21s22 -9 22 -21v-111c14 34 38 66 70 90c33 25 80 42 136 42c63 0 114 -16 150 -48
c43 -38 64 -100 64 -185v-306c0 -12 -10 -21 -22 -21s-21 9 -21 21zM473 742c0 -12 -10 -25 -21 -35c-15 -14 -41 -23 -67 -23c-28 0 -50 14 -72 27c-20 13 -40 26 -65 26c-48 0 -51 -42 -71 -42c-9 0 -16 7 -16 17c0 12 11 25 20 34c16 15 42 24 67 24c31 0 54 -13 74 -25
c22 -14 40 -27 64 -27c47 0 53 41 70 41c10 0 17 -7 17 -17z" />
    <glyph glyph-name="Ntilde" unicode="&#xd1;" horiz-adv-x="738" 
d="M660 668v-652c0 -15 -12 -26 -27 -26c-10 0 -18 5 -26 15l-482 600v-593c0 -12 -10 -22 -23 -22c-14 0 -24 10 -24 22v652c0 14 12 26 27 26c10 0 17 -5 25 -15l484 -600v593c0 12 9 22 23 22c13 0 23 -10 23 -22zM527 917c0 -12 -10 -25 -21 -35
c-15 -14 -41 -23 -67 -23c-28 0 -50 14 -72 27c-20 13 -40 26 -65 26c-48 0 -51 -42 -71 -42c-9 0 -16 7 -16 17c0 12 11 25 20 34c16 15 42 24 67 24c31 0 54 -13 74 -25c22 -14 40 -27 64 -27c47 0 53 41 70 41c10 0 17 -7 17 -17z" />
    <glyph glyph-name="Ntilde.2" unicode="&#xe0db;" horiz-adv-x="771" 
d="M541 917c0 -12 -10 -25 -21 -35c-15 -14 -41 -23 -67 -23c-28 0 -50 14 -72 27c-20 13 -40 26 -65 26c-48 0 -51 -42 -71 -42c-9 0 -16 7 -16 17c0 12 11 25 20 34c16 15 42 24 67 24c31 0 54 -13 74 -25c22 -14 40 -27 64 -27c47 0 53 41 70 41c10 0 17 -7 17 -17z
M647 13c0 86 -192 237 -266 300c-63 53 -125 105 -181 163c-32 32 -58 63 -75 92v-555c0 -12 -10 -23 -23 -23c-14 0 -24 11 -24 23v655c0 12 10 22 24 22c13 0 23 -11 23 -22c0 -77 131 -189 265 -301c63 -52 125 -106 182 -164c31 -32 57 -63 75 -92v557c0 12 10 22 23 22
s23 -10 23 -22v-655c0 -12 -10 -23 -23 -23s-23 11 -23 23z" />
    <glyph glyph-name="Ntilde.3" unicode="&#xe0dc;" horiz-adv-x="723" 
d="M600 13v380c0 92 -19 159 -66 202c-35 33 -87 51 -158 51c-89 0 -160 -34 -205 -107c-29 -46 -43 -102 -45 -156v-370c0 -12 -10 -23 -24 -23c-13 0 -24 11 -24 23v654c0 12 11 23 24 23c14 0 24 -11 24 -23v-148c16 44 47 89 86 119c41 32 99 52 169 52
c81 0 142 -19 187 -59c53 -47 80 -126 80 -232v-386c0 -12 -10 -23 -24 -23c-13 0 -24 11 -24 23zM539 917c0 -12 -10 -25 -21 -35c-15 -14 -41 -23 -67 -23c-28 0 -50 14 -72 27c-20 13 -40 26 -65 26c-48 0 -51 -42 -71 -42c-9 0 -16 7 -16 17c0 12 11 25 20 34
c16 15 42 24 67 24c31 0 54 -13 74 -25c22 -14 40 -27 64 -27c47 0 53 41 70 41c10 0 17 -7 17 -17z" />
    <glyph glyph-name="O" unicode="O" horiz-adv-x="805" 
d="M754 339c0 -192 -158 -349 -352 -349s-351 156 -351 349s157 351 351 351s352 -158 352 -351zM704 339c0 166 -133 306 -302 306c-168 0 -301 -140 -301 -306s133 -305 301 -305c169 0 302 139 302 305z" />
    <glyph glyph-name="OE" unicode="&#x152;" horiz-adv-x="1216" 
d="M754 319v-277h410c11 0 20 -9 20 -21s-9 -21 -20 -21h-434c-14 0 -24 11 -24 23v140c-61 -103 -174 -173 -303 -173c-194 0 -352 156 -352 349s158 352 352 352c129 0 242 -71 303 -176v142c0 13 10 24 24 24h434c11 0 20 -10 20 -21c0 -12 -9 -21 -20 -21h-410v-277h358
c12 0 21 -10 21 -21c0 -12 -9 -22 -21 -22h-358zM704 339c0 164 -134 307 -302 307c-167 0 -301 -143 -301 -307c0 -165 134 -305 301 -305c168 0 302 141 302 305z" />
    <glyph glyph-name="OE.1" unicode="&#xe0dd;" horiz-adv-x="1199" 
d="M1167 660c0 -12 -9 -21 -20 -21h-160c-95 0 -159 -26 -195 -80c-25 -37 -38 -88 -38 -151v-44h342c12 0 21 -9 21 -21s-9 -21 -21 -21h-342v-48c0 -74 16 -130 51 -169c38 -42 98 -63 182 -63h160c11 0 20 -9 20 -21s-9 -21 -20 -21h-161c-100 0 -173 25 -220 80
c-24 27 -40 61 -50 102c-58 -114 -177 -192 -313 -192c-194 0 -352 156 -352 349s158 352 352 352c136 0 255 -80 313 -194c8 35 22 66 40 91c45 63 122 93 230 93h161c11 0 20 -10 20 -21zM704 339c0 164 -134 307 -302 307c-167 0 -301 -143 -301 -307
c0 -165 134 -305 301 -305c168 0 302 141 302 305z" />
    <glyph glyph-name="OE.2" unicode="&#xe0de;" horiz-adv-x="1255" 
d="M754 264v-222h449c11 0 20 -9 20 -21s-9 -21 -20 -21h-473c-13 0 -24 11 -24 23v140c-61 -103 -174 -173 -303 -173c-194 0 -352 156 -352 349s158 352 352 352c129 0 242 -71 303 -176v143c0 12 11 23 24 23h473c11 0 20 -10 20 -21c0 -12 -9 -21 -20 -21h-449v-332h394
c12 0 21 -10 21 -21c0 -12 -9 -22 -21 -22h-394zM704 339c0 164 -134 307 -302 307c-167 0 -301 -143 -301 -307c0 -165 134 -305 301 -305c168 0 302 141 302 305z" />
    <glyph glyph-name="OE.3" unicode="&#xe0df;" horiz-adv-x="1372" 
d="M1295 335h-539c3 -82 27 -150 67 -200c51 -65 129 -102 221 -102c64 0 112 13 147 28c52 21 74 47 88 47c12 0 21 -9 21 -22c0 -17 -31 -41 -78 -61c-48 -20 -113 -35 -177 -35c-113 0 -202 41 -262 115c-23 28 -43 62 -56 100c-53 -126 -179 -215 -324 -215
c-194 0 -352 156 -352 349s158 352 352 352c143 0 267 -88 321 -212c14 40 35 77 63 109c53 62 132 102 238 102c97 0 174 -40 224 -96c53 -59 79 -137 79 -224c0 -24 -12 -35 -33 -35zM704 339c0 171 -138 307 -302 307c-167 0 -301 -143 -301 -307
c0 -165 134 -305 301 -305c168 0 302 140 302 305zM757 376h522c-3 82 -28 143 -67 188c-41 48 -106 82 -187 82c-91 0 -158 -36 -205 -93c-36 -45 -59 -109 -63 -177z" />
    <glyph glyph-name="OEsmall" unicode="&#xf6fa;" horiz-adv-x="975" 
d="M53 272c0 70 24 134 64 182c51 61 129 98 218 98c90 0 167 -37 218 -98c7 -9 14 -17 20 -27v96c0 12 10 21 22 21h344c11 0 19 -8 19 -19c0 -12 -8 -19 -19 -19h-323v-214h284c10 0 19 -9 19 -20s-9 -19 -19 -19h-284v-215h323c11 0 19 -8 19 -19c0 -12 -8 -19 -19 -19
h-344c-12 0 -22 9 -22 21v95c-6 -9 -13 -18 -20 -26c-51 -61 -128 -98 -218 -98c-89 0 -167 37 -218 98c-40 48 -64 112 -64 182zM98 272c0 -62 21 -116 57 -158c43 -50 107 -81 180 -81c74 0 138 31 181 81c34 40 57 96 57 158s-21 116 -57 158c-43 50 -107 81 -181 81
c-73 0 -137 -31 -180 -81c-36 -42 -57 -96 -57 -158z" />
    <glyph glyph-name="OEsmall.2" unicode="&#xe0e0;" horiz-adv-x="1005" 
d="M616 214v-176h353c11 0 19 -8 19 -19c0 -12 -8 -19 -19 -19h-374c-12 0 -22 9 -22 21v95c-6 -9 -13 -18 -20 -26c-51 -61 -128 -98 -218 -98c-89 0 -167 37 -218 98c-40 48 -64 112 -64 182s24 134 64 182c51 61 129 98 218 98c90 0 167 -37 218 -98c7 -9 14 -17 20 -27
v96c0 12 10 21 22 21h374c11 0 19 -8 19 -19c0 -12 -8 -19 -19 -19h-353v-254h310c10 0 19 -8 19 -19c0 -12 -9 -19 -19 -19h-310zM98 272c0 -62 21 -116 57 -158c43 -50 107 -81 180 -81c74 0 138 31 181 81c34 40 57 96 57 158s-23 118 -57 158c-43 50 -107 81 -181 81
c-73 0 -137 -31 -180 -81c-36 -42 -57 -96 -57 -158z" />
    <glyph glyph-name="OEsmall.3" unicode="&#xe0e1;" horiz-adv-x="1112" 
d="M841 32c51 0 88 10 116 22c40 17 59 38 69 38c12 0 20 -9 20 -21c0 -14 -25 -35 -66 -52c-39 -16 -89 -27 -140 -27c-91 0 -162 33 -209 92c-17 20 -31 44 -42 71c-10 -24 -24 -46 -40 -65c-51 -61 -129 -98 -218 -98c-90 0 -167 37 -218 98c-41 48 -65 112 -65 182
s24 134 65 182c51 61 128 98 218 98c89 0 167 -37 218 -98c15 -19 28 -39 38 -61c11 28 27 55 47 78c43 49 105 81 190 81c77 0 142 -33 181 -76c42 -47 63 -111 63 -181c0 -20 -10 -30 -28 -30h-424c2 -59 20 -114 50 -152c41 -51 102 -81 175 -81zM93 272
c0 -62 21 -116 57 -158c43 -50 107 -81 181 -81c73 0 137 31 180 81c36 42 57 96 57 158s-21 116 -57 158c-43 50 -107 81 -180 81c-74 0 -138 -31 -181 -81c-36 -42 -57 -96 -57 -158zM616 301h407c-2 60 -20 113 -52 148c-33 35 -87 63 -145 63c-71 0 -123 -27 -159 -72
c-30 -36 -48 -87 -51 -139z" />
    <glyph glyph-name="Oacute" unicode="&#xd3;" horiz-adv-x="805" 
d="M754 339c0 -192 -158 -349 -352 -349s-351 156 -351 349s157 351 351 351s352 -158 352 -351zM704 339c0 166 -133 306 -302 306c-168 0 -301 -140 -301 -306s133 -305 301 -305c169 0 302 139 302 305zM337 788c0 4 2 8 4 13l88 155c4 9 11 15 19 15c11 0 19 -8 19 -18
c0 -5 -1 -8 -6 -16l-91 -150c-5 -9 -10 -13 -17 -13c-9 0 -16 6 -16 14z" />
    <glyph glyph-name="Ocircumflex" unicode="&#xd4;" horiz-adv-x="805" 
d="M754 339c0 -192 -158 -349 -352 -349s-351 156 -351 349s157 351 351 351s352 -158 352 -351zM704 339c0 166 -133 306 -302 306c-168 0 -301 -140 -301 -306s133 -305 301 -305c169 0 302 139 302 305zM401 970c8 0 14 -4 18 -9l131 -140c5 -5 8 -10 8 -15
c0 -10 -8 -17 -17 -17c-5 0 -9 2 -13 6l-127 134l-127 -134c-4 -4 -8 -6 -13 -6c-9 0 -16 7 -16 17c0 5 2 10 7 15l132 140c4 5 10 9 17 9z" />
    <glyph glyph-name="Odieresis" unicode="&#xd6;" horiz-adv-x="805" 
d="M754 339c0 -192 -158 -349 -352 -349s-351 156 -351 349s157 351 351 351s352 -158 352 -351zM704 339c0 166 -133 306 -302 306c-168 0 -301 -140 -301 -306s133 -305 301 -305c169 0 302 139 302 305zM319 846c-16 0 -28 12 -28 28c0 15 12 27 28 27
c15 0 28 -12 28 -27c0 -16 -13 -28 -28 -28zM485 846c-16 0 -28 12 -28 28c0 15 12 27 28 27c15 0 27 -12 27 -27c0 -16 -12 -28 -27 -28z" />
    <glyph glyph-name="Ograve" unicode="&#xd2;" horiz-adv-x="805" 
d="M754 339c0 -192 -158 -349 -352 -349s-351 156 -351 349s157 351 351 351s352 -158 352 -351zM704 339c0 166 -133 306 -302 306c-168 0 -301 -140 -301 -306s133 -305 301 -305c169 0 302 139 302 305zM466 788c0 -8 -7 -14 -15 -14s-13 4 -18 13l-91 150
c-5 8 -6 11 -6 16c0 10 8 18 19 18c8 0 14 -6 19 -15l88 -155c3 -5 4 -9 4 -13z" />
    <glyph glyph-name="Ohungarumlaut" unicode="&#x150;" horiz-adv-x="805" 
d="M754 339c0 -192 -158 -349 -352 -349s-351 156 -351 349s157 351 351 351s352 -158 352 -351zM704 339c0 166 -133 306 -302 306c-168 0 -301 -140 -301 -306s133 -305 301 -305c169 0 302 139 302 305zM250 788c0 4 1 8 4 13l88 155c5 9 11 15 19 15c10 0 19 -8 19 -18
c0 -5 -1 -8 -6 -16l-91 -150c-5 -9 -10 -13 -18 -13s-15 6 -15 14zM424 788c0 4 1 8 4 13l88 155c5 9 11 15 19 15c10 0 19 -8 19 -18c0 -5 -1 -8 -6 -16l-91 -150c-5 -9 -10 -13 -18 -13s-15 6 -15 14z" />
    <glyph glyph-name="Omacron" unicode="&#x14c;" horiz-adv-x="805" 
d="M754 339c0 -192 -158 -349 -352 -349s-351 156 -351 349s157 351 351 351s352 -158 352 -351zM704 339c0 166 -133 306 -302 306c-168 0 -301 -140 -301 -306s133 -305 301 -305c169 0 302 139 302 305zM530 886c0 -11 -8 -18 -18 -18h-219c-9 0 -17 7 -17 18
c0 10 8 18 17 18h219c10 0 18 -8 18 -18z" />
    <glyph glyph-name="Omega" unicode="&#x3a9;" horiz-adv-x="756" 
d="M378 690c169 0 283 -94 283 -282c0 -109 -45 -186 -96 -246c-52 -61 -86 -92 -97 -124h189c11 0 19 -8 19 -19c0 -10 -8 -19 -19 -19h-212c-12 0 -20 8 -20 21c0 37 37 68 94 137c45 54 94 132 94 244c0 164 -90 246 -235 246s-235 -82 -235 -246c0 -112 50 -190 94 -244
c58 -69 95 -100 95 -137c0 -13 -8 -21 -22 -21h-210c-11 0 -20 9 -20 19c0 11 9 19 20 19h188c-10 32 -45 63 -97 124c-50 60 -97 137 -97 246c0 188 115 282 284 282z" />
    <glyph glyph-name="Omega" unicode="&#x2126;" horiz-adv-x="756" 
d="M378 690c169 0 283 -94 283 -282c0 -109 -45 -186 -96 -246c-52 -61 -86 -92 -97 -124h189c11 0 19 -8 19 -19c0 -10 -8 -19 -19 -19h-212c-12 0 -20 8 -20 21c0 37 37 68 94 137c45 54 94 132 94 244c0 164 -90 246 -235 246s-235 -82 -235 -246c0 -112 50 -190 94 -244
c58 -69 95 -100 95 -137c0 -13 -8 -21 -22 -21h-210c-11 0 -20 9 -20 19c0 11 9 19 20 19h188c-10 32 -45 63 -97 124c-50 60 -97 137 -97 246c0 188 115 282 284 282z" />
    <glyph glyph-name="Oslash" unicode="&#xd8;" horiz-adv-x="805" 
d="M671 678c4 4 8 7 14 7c8 0 16 -7 16 -17c0 -5 -2 -10 -5 -12l-53 -62c68 -64 111 -155 111 -255c0 -192 -158 -349 -351 -349c-82 0 -157 27 -216 74l-55 -64c-4 -5 -8 -7 -14 -7c-9 0 -16 6 -16 17c0 4 2 9 5 12l54 63c-68 63 -110 154 -110 254c0 193 158 351 352 351
c81 0 154 -28 214 -75zM704 339c0 83 -36 162 -94 217l-391 -457c50 -41 113 -65 183 -65c168 0 302 141 302 305zM101 339c0 -84 35 -162 92 -217l392 457c-50 41 -113 66 -183 66c-167 0 -301 -142 -301 -306z" />
    <glyph glyph-name="Osmall" unicode="&#xf76f;" horiz-adv-x="662" 
d="M93 272c0 -62 21 -116 57 -158c43 -50 107 -81 181 -81c73 0 137 31 180 81c36 42 57 96 57 158s-21 116 -57 158c-43 50 -107 81 -180 81c-74 0 -138 -31 -181 -81c-36 -42 -57 -96 -57 -158zM48 272c0 70 24 134 65 182c51 61 128 98 218 98c89 0 167 -37 218 -98
c40 -48 64 -112 64 -182s-24 -134 -64 -182c-51 -61 -129 -98 -218 -98c-90 0 -167 37 -218 98c-41 48 -65 112 -65 182z" />
    <glyph glyph-name="Osmallacute" unicode="&#xe0e2;" horiz-adv-x="671" 
d="M98 272c0 -62 21 -116 57 -158c43 -50 107 -81 180 -81c74 0 138 31 181 81c36 42 57 96 57 158s-21 116 -57 158c-43 50 -107 81 -181 81c-73 0 -137 -31 -180 -81c-36 -42 -57 -96 -57 -158zM53 272c0 70 24 134 64 182c51 61 129 98 218 98c90 0 167 -37 218 -98
c41 -48 65 -112 65 -182s-24 -134 -65 -182c-51 -61 -128 -98 -218 -98c-89 0 -167 37 -218 98c-40 48 -64 112 -64 182zM270 645c0 4 2 8 5 13l87 155c5 9 11 15 20 15c10 0 19 -8 19 -18c0 -5 -2 -8 -7 -16l-91 -150c-5 -9 -9 -13 -17 -13s-16 6 -16 14z" />
    <glyph glyph-name="Osmallcircumflex" unicode="&#xe0e3;" horiz-adv-x="671" 
d="M97 272c0 -62 21 -116 57 -158c43 -50 107 -81 181 -81c73 0 137 31 180 81c36 42 57 96 57 158s-21 116 -57 158c-43 50 -107 81 -180 81c-74 0 -138 -31 -181 -81c-36 -42 -57 -96 -57 -158zM52 272c0 70 24 134 65 182c51 61 128 98 218 98c89 0 167 -37 218 -98
c40 -48 64 -112 64 -182s-24 -134 -64 -182c-51 -61 -129 -98 -218 -98c-90 0 -167 37 -218 98c-41 48 -65 112 -65 182zM335 827c8 0 14 -4 18 -9l131 -140c5 -5 8 -10 8 -15c0 -10 -8 -17 -17 -17c-5 0 -9 2 -13 6l-127 134l-127 -134c-4 -4 -8 -6 -13 -6
c-9 0 -16 7 -16 17c0 5 2 10 7 15l132 140c4 5 10 9 17 9z" />
    <glyph glyph-name="Osmalldieresis" unicode="&#xe0e4;" horiz-adv-x="671" 
d="M97 272c0 -62 21 -116 57 -158c43 -50 107 -81 181 -81c73 0 137 31 180 81c36 42 57 96 57 158s-21 116 -57 158c-43 50 -107 81 -180 81c-74 0 -138 -31 -181 -81c-36 -42 -57 -96 -57 -158zM52 272c0 70 24 134 65 182c51 61 128 98 218 98c89 0 167 -37 218 -98
c40 -48 64 -112 64 -182s-24 -134 -64 -182c-51 -61 -129 -98 -218 -98c-90 0 -167 37 -218 98c-41 48 -65 112 -65 182zM253 703c-16 0 -28 12 -28 28c0 15 12 27 28 27c15 0 28 -12 28 -27c0 -16 -13 -28 -28 -28zM419 703c-16 0 -28 12 -28 28c0 15 12 27 28 27
c15 0 27 -12 27 -27c0 -16 -12 -28 -27 -28z" />
    <glyph glyph-name="Osmallgrave" unicode="&#xe0e5;" horiz-adv-x="671" 
d="M98 272c0 -62 21 -116 57 -158c43 -50 107 -81 180 -81c74 0 138 31 181 81c36 42 57 96 57 158s-21 116 -57 158c-43 50 -107 81 -181 81c-73 0 -137 -31 -180 -81c-36 -42 -57 -96 -57 -158zM53 272c0 70 24 134 64 182c51 61 129 98 218 98c90 0 167 -37 218 -98
c41 -48 65 -112 65 -182s-24 -134 -65 -182c-51 -61 -128 -98 -218 -98c-89 0 -167 37 -218 98c-40 48 -64 112 -64 182zM401 645c0 -8 -8 -14 -16 -14s-13 4 -17 13l-91 150c-5 8 -7 11 -7 16c0 10 9 18 19 18c9 0 15 -6 20 -15l87 -155c3 -5 5 -9 5 -13z" />
    <glyph glyph-name="Osmallhungarumlaut" unicode="&#xe0e6;" horiz-adv-x="671" 
d="M97 272c0 -62 21 -116 57 -158c43 -50 107 -81 181 -81c73 0 137 31 180 81c36 42 57 96 57 158s-21 116 -57 158c-43 50 -107 81 -180 81c-74 0 -138 -31 -181 -81c-36 -42 -57 -96 -57 -158zM52 272c0 70 24 134 65 182c51 61 128 98 218 98c89 0 167 -37 218 -98
c40 -48 64 -112 64 -182s-24 -134 -64 -182c-51 -61 -129 -98 -218 -98c-90 0 -167 37 -218 98c-41 48 -65 112 -65 182zM165 645c0 4 1 8 4 13l88 155c5 9 11 15 19 15c10 0 19 -8 19 -18c0 -5 -1 -8 -6 -16l-91 -150c-5 -9 -10 -13 -18 -13s-15 6 -15 14zM339 645
c0 4 1 8 4 13l88 155c5 9 11 15 19 15c10 0 19 -8 19 -18c0 -5 -1 -8 -6 -16l-91 -150c-5 -9 -10 -13 -18 -13s-15 6 -15 14z" />
    <glyph glyph-name="Osmallmacron" unicode="&#xe0e7;" horiz-adv-x="671" 
d="M97 272c0 -62 21 -116 57 -158c43 -50 107 -81 181 -81c73 0 137 31 180 81c36 42 57 96 57 158s-21 116 -57 158c-43 50 -107 81 -180 81c-74 0 -138 -31 -181 -81c-36 -42 -57 -96 -57 -158zM52 272c0 70 24 134 65 182c51 61 128 98 218 98c89 0 167 -37 218 -98
c40 -48 64 -112 64 -182s-24 -134 -64 -182c-51 -61 -129 -98 -218 -98c-90 0 -167 37 -218 98c-41 48 -65 112 -65 182zM463 723c0 -11 -8 -18 -18 -18h-219c-9 0 -17 7 -17 18c0 10 8 18 17 18h219c10 0 18 -8 18 -18z" />
    <glyph glyph-name="Osmalltilde" unicode="&#xe0e8;" horiz-adv-x="671" 
d="M98 272c0 -62 21 -116 57 -158c43 -50 107 -81 180 -81c74 0 138 31 181 81c36 42 57 96 57 158s-21 116 -57 158c-43 50 -107 81 -181 81c-73 0 -137 -31 -180 -81c-36 -42 -57 -96 -57 -158zM53 272c0 70 24 134 64 182c51 61 129 98 218 98c90 0 167 -37 218 -98
c41 -48 65 -112 65 -182s-24 -134 -65 -182c-51 -61 -128 -98 -218 -98c-89 0 -167 37 -218 98c-40 48 -64 112 -64 182zM491 742c0 -12 -11 -25 -20 -34c-16 -15 -39 -24 -65 -24c-29 0 -51 14 -72 27s-40 26 -66 26c-20 0 -32 -8 -42 -17c-14 -11 -20 -25 -30 -25
s-16 7 -16 17c0 12 11 25 20 34c16 15 39 24 65 24c30 0 54 -13 74 -25c21 -14 40 -27 64 -27c20 0 31 7 41 15c15 11 21 26 31 26s16 -7 16 -17z" />
    <glyph glyph-name="Otilde" unicode="&#xd5;" horiz-adv-x="805" 
d="M754 339c0 -192 -158 -349 -352 -349s-351 156 -351 349s157 351 351 351s352 -158 352 -351zM704 339c0 166 -133 306 -302 306c-168 0 -301 -140 -301 -306s133 -305 301 -305c169 0 302 139 302 305zM557 917c0 -12 -10 -25 -21 -35c-15 -14 -41 -23 -67 -23
c-28 0 -50 14 -72 27c-20 13 -40 26 -65 26c-48 0 -51 -42 -71 -42c-9 0 -16 7 -16 17c0 12 11 25 20 34c16 15 42 24 67 24c31 0 54 -13 74 -25c22 -14 40 -27 64 -27c47 0 53 41 70 41c10 0 17 -7 17 -17z" />
    <glyph glyph-name="P" unicode="P" horiz-adv-x="615" 
d="M102 681h243c60 0 109 -12 154 -46c50 -38 79 -95 79 -171c0 -74 -32 -138 -85 -175c-47 -34 -104 -42 -163 -42h-204v-234c0 -12 -10 -23 -24 -23c-13 0 -24 11 -24 23v644c0 13 11 24 24 24zM529 464c0 64 -24 110 -65 139c-37 26 -77 36 -127 36h-211v-350h196
c49 0 97 6 136 32c43 29 71 81 71 143z" />
    <glyph glyph-name="P.2" unicode="&#xe0e9;" horiz-adv-x="647" 
d="M102 681h275c60 0 109 -12 154 -46c50 -38 79 -95 79 -171c0 -74 -32 -138 -85 -175c-47 -34 -104 -42 -163 -42h-236v-234c0 -12 -10 -23 -24 -23c-13 0 -24 11 -24 23v644c0 13 11 24 24 24zM561 464c0 64 -24 110 -65 139c-37 26 -77 36 -127 36h-243v-350h228
c49 0 97 6 136 32c43 30 71 81 71 143z" />
    <glyph glyph-name="Psmall" unicode="&#xf770;" horiz-adv-x="511" 
d="M98 544h184c54 0 98 -11 136 -41c37 -30 60 -74 60 -132c0 -61 -23 -105 -60 -133c-37 -29 -87 -42 -143 -42h-155v-183c0 -12 -10 -21 -22 -21s-22 9 -22 21v509c0 13 10 22 22 22zM434 371c0 48 -20 83 -49 106c-30 24 -66 29 -107 29h-158v-272h153c41 0 81 8 110 29
c31 22 51 57 51 108z" />
    <glyph glyph-name="Psmall.2" unicode="&#xe0ea;" horiz-adv-x="541" 
d="M464 371c0 48 -20 83 -49 106c-30 24 -66 29 -107 29h-188v-272h183c41 0 81 8 110 29c31 22 51 57 51 108zM98 544h214c54 0 98 -11 136 -41c37 -30 60 -74 60 -132c0 -61 -23 -105 -60 -133c-37 -29 -87 -42 -143 -42h-185v-183c0 -12 -10 -21 -22 -21s-22 9 -22 21
v509c0 13 10 22 22 22z" />
    <glyph glyph-name="Q" unicode="Q" horiz-adv-x="806" 
d="M361 -15c0 3 0 5 1 7c-175 20 -311 167 -311 347c0 193 158 351 352 351c193 0 352 -158 352 -351c0 -180 -139 -328 -314 -347c5 -8 23 -13 45 -20c88 -27 169 -52 231 -68c38 -10 63 -13 63 -33c0 -13 -9 -20 -28 -20c-46 0 -209 59 -375 114c-10 4 -16 10 -16 20z
M704 339c0 165 -132 306 -301 306s-302 -141 -302 -306c0 -167 133 -305 302 -305s301 139 301 305z" />
    <glyph glyph-name="Qsmall" unicode="&#xf771;" horiz-adv-x="661" 
d="M48 272c0 158 120 280 282 280c161 0 282 -120 282 -280c0 -151 -105 -265 -251 -278c0 -3 2 -6 8 -8c97 -36 211 -61 243 -70c31 -8 62 -16 62 -32c0 -14 -10 -20 -26 -20c-37 0 -158 40 -302 89c-23 8 -53 16 -53 31c0 4 0 6 2 10c-141 16 -247 128 -247 278zM93 272
c0 -135 103 -239 237 -239c136 0 237 105 237 239c0 133 -100 239 -237 239c-135 0 -237 -105 -237 -239z" />
    <glyph glyph-name="R" unicode="R" horiz-adv-x="637" 
d="M126 280v-267c0 -12 -10 -23 -24 -23c-13 0 -24 11 -24 23v644c0 13 11 24 24 24h242c65 0 117 -6 163 -35c49 -31 81 -84 81 -166c0 -79 -33 -129 -81 -161c-40 -27 -80 -36 -128 -38l204 -252c4 -6 6 -10 6 -16c0 -12 -11 -23 -25 -23c-10 0 -17 4 -22 11l-222 279
h-194zM335 640h-209v-319h208c54 0 98 4 137 26c39 23 68 64 68 133c0 68 -27 111 -67 134c-38 23 -83 26 -137 26z" />
    <glyph glyph-name="R.2" unicode="&#xe0eb;" horiz-adv-x="708" 
d="M126 262v-249c0 -13 -11 -23 -24 -23c-14 0 -24 10 -24 23v643c0 14 11 25 25 25h232c139 0 287 -30 287 -209c0 -150 -113 -202 -240 -209c44 -100 125 -229 228 -229c60 0 63 30 81 30c12 0 21 -10 21 -22c0 -24 -42 -51 -102 -51c-142 0 -226 151 -279 271h-205z
M347 640h-221v-337h213c104 0 234 14 234 168c0 140 -105 169 -226 169z" />
    <glyph glyph-name="RS" unicode="&#xe0ec;" horiz-adv-x="500" 
 />
    <glyph glyph-name="Racute" unicode="&#x154;" horiz-adv-x="636" 
d="M126 280v-267c0 -12 -10 -23 -24 -23c-13 0 -24 11 -24 23v644c0 13 11 24 24 24h242c65 0 117 -6 163 -35c49 -31 81 -84 81 -166c0 -79 -33 -129 -81 -161c-40 -27 -80 -36 -128 -38l204 -252c4 -6 6 -10 6 -16c0 -12 -11 -23 -25 -23c-10 0 -17 4 -22 11l-222 279
h-194zM335 640h-209v-319h208c54 0 98 4 137 26c39 23 68 64 68 133c0 68 -27 111 -67 134c-38 23 -83 26 -137 26zM251 788c0 4 2 8 4 13l88 155c4 9 11 15 19 15c11 0 19 -8 19 -18c0 -5 -1 -8 -6 -16l-91 -150c-5 -9 -10 -13 -17 -13c-9 0 -16 6 -16 14z" />
    <glyph glyph-name="Racute.2" unicode="&#xe0ed;" horiz-adv-x="708" 
d="M126 262v-249c0 -13 -11 -23 -24 -23c-14 0 -24 10 -24 23v643c0 14 11 25 25 25h232c139 0 287 -30 287 -209c0 -150 -113 -202 -240 -209c44 -100 125 -229 228 -229c60 0 63 30 81 30c12 0 21 -10 21 -22c0 -24 -42 -51 -102 -51c-142 0 -226 151 -279 271h-205z
M347 640h-221v-337h213c104 0 234 14 234 168c0 140 -105 169 -226 169zM272 788c0 4 2 8 4 13l88 155c4 9 11 15 19 15c11 0 19 -8 19 -18c0 -5 -1 -8 -6 -16l-91 -150c-5 -9 -10 -13 -17 -13c-9 0 -16 6 -16 14z" />
    <glyph glyph-name="Rcaron" unicode="&#x158;" horiz-adv-x="636" 
d="M126 280v-267c0 -12 -10 -23 -24 -23c-13 0 -24 11 -24 23v644c0 13 11 24 24 24h242c65 0 117 -6 163 -35c49 -31 81 -84 81 -166c0 -79 -33 -129 -81 -161c-40 -27 -80 -36 -128 -38l204 -252c4 -6 6 -10 6 -16c0 -12 -11 -23 -25 -23c-10 0 -17 4 -22 11l-222 279
h-194zM335 640h-209v-319h208c54 0 98 4 137 26c39 23 68 64 68 133c0 68 -27 111 -67 134c-38 23 -83 26 -137 26zM159 953c0 10 7 17 16 17c5 0 9 -2 13 -6l127 -134l127 134c4 4 8 6 13 6c9 0 17 -7 17 -17c0 -5 -4 -9 -8 -14l-131 -140c-5 -5 -10 -10 -18 -10
c-7 0 -12 5 -17 10l-132 140c-4 5 -7 9 -7 14z" />
    <glyph glyph-name="Rcaron.2" unicode="&#xe0ee;" horiz-adv-x="708" 
d="M126 262v-249c0 -13 -11 -23 -24 -23c-14 0 -24 10 -24 23v643c0 14 11 25 25 25h232c139 0 287 -30 287 -209c0 -150 -113 -202 -240 -209c44 -100 125 -229 228 -229c60 0 63 30 81 30c12 0 21 -10 21 -22c0 -24 -42 -51 -102 -51c-142 0 -226 151 -279 271h-205z
M347 640h-221v-337h213c104 0 234 14 234 168c0 140 -105 169 -226 169zM182 953c0 10 7 17 16 17c5 0 9 -2 13 -6l127 -134l127 134c4 4 8 6 13 6c9 0 17 -7 17 -17c0 -5 -4 -9 -8 -14l-131 -140c-5 -5 -10 -10 -18 -10c-7 0 -12 5 -17 10l-132 140c-4 5 -7 9 -7 14z" />
    <glyph glyph-name="Rcommaaccent" unicode="&#x156;" horiz-adv-x="636" 
d="M126 280v-267c0 -12 -10 -23 -24 -23c-13 0 -24 11 -24 23v644c0 13 11 24 24 24h242c65 0 117 -6 163 -35c49 -31 81 -84 81 -166c0 -79 -33 -129 -81 -161c-40 -27 -80 -36 -128 -38l204 -252c4 -6 6 -10 6 -16c0 -12 -11 -23 -25 -23c-10 0 -17 4 -22 11l-222 279
h-194zM335 640h-209v-319h208c54 0 98 4 137 26c39 23 68 64 68 133c0 68 -27 111 -67 134c-38 23 -83 26 -137 26zM283 -172c0 13 21 18 21 40c0 18 -23 16 -23 41c0 15 10 29 30 29c24 0 36 -18 36 -45c0 -43 -37 -74 -55 -74c-5 0 -9 3 -9 9z" />
    <glyph glyph-name="Rcommaaccent.2" unicode="&#xe0ef;" horiz-adv-x="708" 
d="M126 262v-249c0 -13 -11 -23 -24 -23c-14 0 -24 10 -24 23v643c0 14 11 25 25 25h232c139 0 287 -30 287 -209c0 -150 -113 -202 -240 -209c44 -100 125 -229 228 -229c60 0 63 30 81 30c12 0 21 -10 21 -22c0 -24 -42 -51 -102 -51c-142 0 -226 151 -279 271h-205z
M347 640h-221v-337h213c104 0 234 14 234 168c0 140 -105 169 -226 169zM320 -172c0 13 21 18 21 40c0 18 -23 16 -23 41c0 15 10 29 30 29c24 0 36 -18 36 -45c0 -43 -37 -74 -55 -74c-5 0 -9 3 -9 9z" />
    <glyph glyph-name="Rsmall" unicode="&#xf772;" horiz-adv-x="539" 
d="M445 2l-173 219h-152v-208c0 -12 -10 -21 -22 -21s-22 9 -22 21v509c0 13 10 22 22 22h195c101 0 193 -37 193 -161c0 -110 -76 -151 -164 -160l155 -191c6 -8 8 -14 8 -19c0 -14 -10 -21 -22 -21c-8 0 -14 4 -18 10zM291 506h-171v-248h168c81 0 153 25 153 124
c0 101 -71 124 -150 124z" />
    <glyph glyph-name="Rsmall.2" unicode="&#xe0f0;" horiz-adv-x="569" 
d="M486 28c47 0 48 23 63 23c10 0 17 -9 17 -18c0 -18 -30 -40 -88 -40c-88 0 -157 83 -211 203h-148v-183c0 -12 -9 -21 -21 -21s-22 9 -22 21v509c0 12 10 22 22 22h200c106 0 196 -56 196 -174c0 -113 -79 -168 -183 -174c54 -109 113 -168 175 -168zM450 370
c0 98 -76 136 -156 136h-175v-273h170c85 0 161 38 161 137z" />
    <glyph glyph-name="Rsmallacute" unicode="&#xe0f1;" horiz-adv-x="539" 
d="M445 2l-173 219h-152v-208c0 -12 -10 -21 -22 -21s-22 9 -22 21v509c0 13 10 22 22 22h195c101 0 193 -37 193 -161c0 -110 -76 -151 -164 -160l155 -191c6 -8 8 -14 8 -19c0 -14 -10 -21 -22 -21c-8 0 -14 4 -18 10zM291 506h-171v-248h168c81 0 153 25 153 124
c0 101 -71 124 -150 124zM203 645c0 4 2 8 4 13l88 155c4 9 11 15 19 15c11 0 19 -8 19 -18c0 -5 -1 -8 -6 -16l-91 -150c-5 -9 -10 -13 -17 -13c-9 0 -16 6 -16 14z" />
    <glyph glyph-name="Rsmallacute.2" unicode="&#xe0f2;" horiz-adv-x="569" 
d="M486 28c47 0 48 23 63 23c10 0 17 -9 17 -18c0 -18 -30 -40 -88 -40c-88 0 -157 83 -211 203h-148v-183c0 -12 -9 -21 -21 -21s-22 9 -22 21v509c0 12 10 22 22 22h200c106 0 196 -56 196 -174c0 -113 -79 -168 -183 -174c54 -109 113 -168 175 -168zM450 370
c0 98 -76 136 -156 136h-175v-273h170c85 0 161 38 161 137zM226 645c0 4 2 8 4 13l88 155c4 9 11 15 19 15c11 0 19 -8 19 -18c0 -5 -1 -8 -6 -16l-91 -150c-5 -9 -10 -13 -17 -13c-9 0 -16 6 -16 14z" />
    <glyph glyph-name="Rsmallcaron" unicode="&#xe0f3;" horiz-adv-x="539" 
d="M445 2l-173 219h-152v-208c0 -12 -10 -21 -22 -21s-22 9 -22 21v509c0 13 10 22 22 22h195c101 0 193 -37 193 -161c0 -110 -76 -151 -164 -160l155 -191c6 -8 8 -14 8 -19c0 -14 -10 -21 -22 -21c-8 0 -14 4 -18 10zM291 506h-171v-248h168c81 0 153 25 153 124
c0 101 -71 124 -150 124zM118 810c0 10 7 17 16 17c5 0 9 -2 13 -6l127 -134l127 134c4 4 8 6 13 6c9 0 17 -7 17 -17c0 -5 -4 -9 -8 -14l-131 -140c-5 -5 -10 -10 -18 -10c-7 0 -12 5 -17 10l-132 140c-4 5 -7 9 -7 14z" />
    <glyph glyph-name="Rsmallcaron.2" unicode="&#xe0f4;" horiz-adv-x="569" 
d="M486 28c47 0 48 23 63 23c10 0 17 -9 17 -18c0 -18 -30 -40 -88 -40c-88 0 -157 83 -211 203h-148v-183c0 -12 -9 -21 -21 -21s-22 9 -22 21v509c0 12 10 22 22 22h200c106 0 196 -56 196 -174c0 -113 -79 -168 -183 -174c54 -109 113 -168 175 -168zM450 370
c0 98 -76 136 -156 136h-175v-273h170c85 0 161 38 161 137zM139 810c0 10 7 17 16 17c5 0 9 -2 13 -6l127 -134l127 134c4 4 8 6 13 6c9 0 17 -7 17 -17c0 -5 -4 -9 -8 -14l-131 -140c-5 -5 -10 -10 -18 -10c-7 0 -12 5 -17 10l-132 140c-4 5 -7 9 -7 14z" />
    <glyph glyph-name="Rsmallcommaaccent" unicode="&#xe0f5;" horiz-adv-x="539" 
d="M445 2l-173 219h-152v-208c0 -12 -10 -21 -22 -21s-22 9 -22 21v509c0 13 10 22 22 22h195c101 0 193 -37 193 -161c0 -110 -76 -151 -164 -160l155 -191c6 -8 8 -14 8 -19c0 -14 -10 -21 -22 -21c-8 0 -14 4 -18 10zM291 506h-171v-248h168c81 0 153 25 153 124
c0 101 -71 124 -150 124zM232 -172c0 13 21 18 21 40c0 18 -23 16 -23 41c0 15 10 29 30 29c24 0 36 -18 36 -45c0 -43 -37 -74 -55 -74c-5 0 -9 3 -9 9z" />
    <glyph glyph-name="Rsmallcommaaccent.2" unicode="&#xe0f6;" horiz-adv-x="569" 
d="M486 28c47 0 48 23 63 23c10 0 17 -9 17 -18c0 -18 -30 -40 -88 -40c-88 0 -157 83 -211 203h-148v-183c0 -12 -9 -21 -21 -21s-22 9 -22 21v509c0 12 10 22 22 22h200c106 0 196 -56 196 -174c0 -113 -79 -168 -183 -174c54 -109 113 -168 175 -168zM450 370
c0 98 -76 136 -156 136h-175v-273h170c85 0 161 38 161 137zM258 -172c0 13 21 18 21 40c0 18 -23 16 -23 41c0 15 10 29 30 29c24 0 36 -18 36 -45c0 -43 -37 -74 -55 -74c-5 0 -9 3 -9 9z" />
    <glyph glyph-name="S" unicode="S" horiz-adv-x="545" 
d="M474 627c0 -13 -9 -22 -23 -22s-30 14 -64 25c-29 10 -64 18 -106 18c-122 0 -181 -47 -181 -133c0 -57 40 -90 104 -114c72 -28 140 -35 207 -70c48 -26 93 -72 93 -145c0 -125 -92 -196 -232 -196c-82 0 -155 28 -201 54c-13 7 -24 19 -24 31c0 15 11 24 24 24
c16 0 25 -18 76 -41c33 -15 73 -26 125 -26c119 0 181 60 181 150c0 57 -37 93 -87 116c-62 29 -128 36 -206 70c-64 28 -110 72 -110 146c0 112 82 176 233 176c57 0 116 -13 154 -30c18 -8 37 -18 37 -33z" />
    <glyph glyph-name="Sacute" unicode="&#x15a;" horiz-adv-x="545" 
d="M474 627c0 -13 -9 -22 -23 -22s-30 14 -64 25c-29 10 -64 18 -106 18c-122 0 -181 -47 -181 -133c0 -57 40 -90 104 -114c72 -28 140 -35 207 -70c48 -26 93 -72 93 -145c0 -125 -92 -196 -232 -196c-82 0 -155 28 -201 54c-13 7 -24 19 -24 31c0 15 11 24 24 24
c16 0 25 -18 76 -41c33 -15 73 -26 125 -26c119 0 181 60 181 150c0 57 -37 93 -87 116c-62 29 -128 36 -206 70c-64 28 -110 72 -110 146c0 112 82 176 233 176c57 0 116 -13 154 -30c18 -8 37 -18 37 -33zM208 788c0 4 2 8 4 13l88 155c4 9 11 15 19 15c11 0 19 -8 19 -18
c0 -5 -1 -8 -6 -16l-91 -150c-5 -9 -10 -13 -17 -13c-9 0 -16 6 -16 14z" />
    <glyph glyph-name="Scaron" unicode="&#x160;" horiz-adv-x="545" 
d="M474 627c0 -13 -9 -22 -23 -22s-30 14 -64 25c-29 10 -64 18 -106 18c-122 0 -181 -47 -181 -133c0 -57 40 -90 104 -114c72 -28 140 -35 207 -70c48 -26 93 -72 93 -145c0 -125 -92 -196 -232 -196c-82 0 -156 27 -201 55c-13 8 -24 18 -24 30c0 15 11 24 24 24
c16 0 23 -18 74 -41c33 -15 75 -26 127 -26c119 0 181 60 181 150c0 57 -37 93 -87 116c-62 29 -128 36 -206 70c-64 28 -110 72 -110 146c0 112 82 176 233 176c57 0 116 -13 154 -30c18 -8 37 -18 37 -33zM116 953c0 10 7 17 16 17c5 0 9 -2 13 -6l127 -134l127 134
c4 4 8 6 13 6c9 0 17 -7 17 -17c0 -5 -4 -9 -8 -14l-131 -140c-5 -5 -10 -10 -18 -10c-7 0 -12 5 -17 10l-132 140c-4 5 -7 9 -7 14z" />
    <glyph glyph-name="Scedilla" unicode="&#x15e;" horiz-adv-x="545" 
d="M372 -108c0 -62 -65 -81 -114 -81c-13 0 -23 1 -33 3c-8 2 -12 7 -12 14s6 13 13 13c9 0 17 -3 35 -3c36 0 78 14 78 54c0 34 -34 47 -66 47c-13 0 -19 6 -18 20l2 31c-76 3 -143 29 -186 54c-13 7 -24 19 -24 31c0 15 11 24 24 24c16 0 25 -18 76 -41
c33 -15 73 -26 125 -26c119 0 181 60 181 150c0 57 -37 93 -87 116c-62 29 -128 36 -206 70c-64 28 -110 72 -110 146c0 112 82 176 233 176c57 0 116 -13 154 -30c18 -8 37 -18 37 -33c0 -13 -9 -22 -23 -22s-30 14 -64 25c-29 10 -64 18 -106 18
c-122 0 -181 -47 -181 -133c0 -57 40 -90 104 -114c72 -28 140 -35 207 -70c48 -26 93 -72 93 -145c0 -122 -87 -192 -221 -196v-29c47 -1 89 -23 89 -69z" />
    <glyph glyph-name="Scommaaccent" unicode="&#x218;" horiz-adv-x="545" 
d="M474 627c0 -13 -9 -22 -23 -22s-30 14 -64 25c-29 10 -64 18 -106 18c-122 0 -181 -47 -181 -133c0 -57 40 -90 104 -114c72 -28 140 -35 207 -70c48 -26 93 -72 93 -145c0 -125 -92 -196 -232 -196c-82 0 -155 28 -201 54c-13 7 -24 19 -24 31c0 15 11 24 24 24
c16 0 25 -18 76 -41c33 -15 73 -26 125 -26c119 0 181 60 181 150c0 57 -37 93 -87 116c-62 29 -128 36 -206 70c-64 28 -110 72 -110 146c0 112 82 176 233 176c57 0 116 -13 154 -30c18 -8 37 -18 37 -33zM249 -172c0 13 21 18 21 40c0 18 -23 16 -23 41c0 15 10 29 30 29
c24 0 36 -18 36 -45c0 -43 -37 -74 -55 -74c-5 0 -9 3 -9 9z" />
    <glyph glyph-name="Ssmall" unicode="&#xf773;" horiz-adv-x="446" 
d="M383 497c0 -11 -9 -20 -20 -20c-12 0 -24 13 -54 24c-21 7 -46 15 -82 15c-92 0 -143 -32 -143 -103c0 -52 37 -77 87 -95c57 -20 128 -31 178 -64c34 -22 58 -54 58 -107c0 -99 -74 -155 -186 -155c-50 0 -97 10 -133 27c-25 13 -48 29 -48 43c0 12 9 19 20 19
c14 0 26 -14 56 -30c28 -14 61 -23 105 -23c91 0 143 44 143 117c0 58 -45 85 -100 103c-55 19 -119 31 -165 60c-34 22 -57 54 -57 105c0 92 68 139 187 139c39 0 85 -9 116 -22c23 -10 38 -20 38 -33z" />
    <glyph glyph-name="Ssmallacute" unicode="&#xe0f7;" horiz-adv-x="446" 
d="M383 497c0 -11 -9 -20 -20 -20c-12 0 -24 13 -54 24c-21 7 -46 15 -82 15c-92 0 -143 -32 -143 -103c0 -52 37 -77 87 -95c57 -20 128 -31 178 -64c34 -22 58 -54 58 -107c0 -99 -74 -155 -186 -155c-50 0 -97 10 -133 27c-25 13 -48 29 -48 43c0 12 9 19 20 19
c14 0 26 -14 56 -30c28 -14 61 -23 105 -23c91 0 143 44 143 117c0 58 -45 85 -100 103c-55 19 -119 31 -165 60c-34 22 -57 54 -57 105c0 92 68 139 187 139c39 0 85 -9 116 -22c23 -10 38 -20 38 -33zM157 645c0 4 2 8 4 13l88 155c4 9 11 15 19 15c11 0 19 -8 19 -18
c0 -5 -1 -8 -6 -16l-91 -150c-5 -9 -10 -13 -17 -13c-9 0 -16 6 -16 14z" />
    <glyph glyph-name="Ssmallcaron" unicode="&#xe0f8;" horiz-adv-x="446" 
d="M383 497c0 -11 -9 -20 -20 -20c-12 0 -24 13 -54 24c-21 7 -46 15 -82 15c-92 0 -143 -32 -143 -103c0 -52 37 -77 87 -95c57 -20 128 -31 178 -64c34 -22 58 -54 58 -107c0 -99 -74 -155 -186 -155c-50 0 -97 10 -133 27c-25 13 -48 29 -48 43c0 12 9 19 20 19
c14 0 26 -14 56 -30c28 -14 61 -23 105 -23c91 0 143 44 143 117c0 58 -45 85 -100 103c-55 19 -119 31 -165 60c-34 22 -57 54 -57 105c0 92 68 139 187 139c39 0 85 -9 116 -22c23 -10 38 -20 38 -33zM66 810c0 10 7 17 16 17c5 0 9 -2 13 -6l127 -134l127 134
c4 4 8 6 13 6c9 0 17 -7 17 -17c0 -5 -4 -9 -8 -14l-131 -140c-5 -5 -10 -10 -18 -10c-7 0 -12 5 -17 10l-132 140c-4 5 -7 9 -7 14z" />
    <glyph glyph-name="Ssmallcedilla" unicode="&#xe0f9;" horiz-adv-x="446" 
d="M320 -108c0 -62 -65 -81 -114 -81c-13 0 -23 1 -33 3c-8 2 -12 7 -12 14s6 13 13 13c9 0 17 -3 35 -3c36 0 78 14 78 54c0 34 -34 47 -66 47c-13 0 -19 6 -18 20l2 33c-44 2 -85 12 -117 27c-25 13 -48 29 -48 43c0 12 9 19 20 19c14 0 26 -14 56 -30
c28 -14 61 -23 105 -23c91 0 143 44 143 117c0 58 -45 85 -100 103c-55 19 -119 31 -165 60c-34 22 -57 54 -57 105c0 92 68 139 187 139c39 0 85 -9 116 -22c23 -10 38 -20 38 -33c0 -11 -9 -20 -20 -20c-12 0 -24 13 -54 24c-21 7 -46 15 -82 15c-92 0 -143 -32 -143 -103
c0 -52 37 -77 87 -95c57 -20 128 -31 178 -64c34 -22 58 -54 58 -107c0 -96 -70 -152 -176 -155v-31c47 -1 89 -23 89 -69z" />
    <glyph glyph-name="Ssmallcommaaccent" unicode="&#xe0fa;" horiz-adv-x="446" 
d="M383 497c0 -11 -9 -20 -20 -20c-12 0 -24 13 -54 24c-21 7 -46 15 -82 15c-92 0 -143 -32 -143 -103c0 -52 37 -77 87 -95c57 -20 128 -31 178 -64c34 -22 58 -54 58 -107c0 -99 -74 -155 -186 -155c-50 0 -97 10 -133 27c-25 13 -48 29 -48 43c0 12 9 19 20 19
c14 0 26 -14 56 -30c28 -14 61 -23 105 -23c91 0 143 44 143 117c0 58 -45 85 -100 103c-55 19 -119 31 -165 60c-34 22 -57 54 -57 105c0 92 68 139 187 139c39 0 85 -9 116 -22c23 -10 38 -20 38 -33zM202 -172c0 13 21 18 21 40c0 18 -23 16 -23 41c0 15 10 29 30 29
c24 0 36 -18 36 -45c0 -43 -37 -74 -55 -74c-5 0 -9 3 -9 9z" />
    <glyph glyph-name="T" unicode="T" horiz-adv-x="547" 
d="M526 639h-228v-626c0 -12 -11 -23 -24 -23c-14 0 -24 11 -24 23v626h-229c-12 0 -21 9 -21 21c0 11 9 21 21 21h505c12 0 21 -10 21 -21c0 -12 -9 -21 -21 -21z" />
    <glyph glyph-name="T.2" unicode="&#xe0fb;" horiz-adv-x="672" 
d="M243 681h408c12 0 21 -10 21 -21c0 -12 -9 -21 -21 -21h-258v-626c0 -12 -11 -23 -24 -23c-14 0 -24 11 -24 23v626h-103c-119 0 -183 -17 -183 -64c0 -22 15 -34 39 -36c9 -1 23 -4 23 -18c0 -15 -14 -21 -34 -21c-39 0 -76 27 -76 74c0 88 105 107 232 107z" />
    <glyph glyph-name="Tcaron" unicode="&#x164;" horiz-adv-x="547" 
d="M526 639h-228v-626c0 -12 -11 -23 -24 -23c-14 0 -24 11 -24 23v626h-229c-12 0 -21 9 -21 21c0 11 9 21 21 21h505c12 0 21 -10 21 -21c0 -12 -9 -21 -21 -21zM118 953c0 10 7 17 16 17c5 0 9 -2 13 -6l127 -134l127 134c4 4 8 6 13 6c9 0 17 -7 17 -17
c0 -5 -4 -9 -8 -14l-131 -140c-5 -5 -10 -10 -18 -10c-7 0 -12 5 -17 10l-132 140c-4 5 -7 9 -7 14z" />
    <glyph glyph-name="Tcaron.2" unicode="&#xe0fc;" horiz-adv-x="672" 
d="M212 953c0 10 7 17 16 17c5 0 9 -2 13 -6l127 -134l127 134c4 4 8 6 13 6c9 0 17 -7 17 -17c0 -5 -4 -9 -8 -14l-131 -140c-5 -5 -10 -10 -18 -10c-7 0 -12 5 -17 10l-132 140c-4 5 -7 9 -7 14zM243 681h408c12 0 21 -10 21 -21c0 -12 -9 -21 -21 -21h-258v-626
c0 -12 -11 -23 -24 -23c-14 0 -24 11 -24 23v626h-103c-119 0 -183 -17 -183 -64c0 -22 15 -34 39 -36c9 -1 23 -4 23 -18c0 -15 -14 -21 -34 -21c-39 0 -76 27 -76 74c0 88 105 107 232 107z" />
    <glyph glyph-name="Tcommaaccent" unicode="&#x162;" horiz-adv-x="547" 
d="M526 639h-228v-626c0 -12 -11 -23 -24 -23c-14 0 -24 11 -24 23v626h-229c-12 0 -21 9 -21 21c0 11 9 21 21 21h505c12 0 21 -10 21 -21c0 -12 -9 -21 -21 -21zM243 -172c0 13 21 18 21 40c0 18 -23 16 -23 41c0 15 10 29 30 29c24 0 36 -18 36 -45
c0 -43 -37 -74 -55 -74c-5 0 -9 3 -9 9z" />
    <glyph glyph-name="Tcommaaccent.2" unicode="&#xe0fd;" horiz-adv-x="672" 
d="M243 681h408c12 0 21 -10 21 -21c0 -12 -9 -21 -21 -21h-258v-626c0 -12 -11 -23 -24 -23c-14 0 -24 11 -24 23v626h-103c-119 0 -183 -17 -183 -64c0 -22 15 -34 39 -36c9 -1 23 -4 23 -18c0 -15 -14 -21 -34 -21c-39 0 -76 27 -76 74c0 88 105 107 232 107zM338 -172
c0 13 21 18 21 40c0 18 -23 16 -23 41c0 15 10 29 30 29c24 0 36 -18 36 -45c0 -43 -37 -74 -55 -74c-5 0 -9 3 -9 9z" />
    <glyph glyph-name="Thorn" unicode="&#xde;" horiz-adv-x="616" 
d="M78 -127v794c0 12 11 23 24 23c14 0 24 -11 24 -23v-133h219c60 0 109 -11 154 -46c50 -38 79 -95 79 -171c0 -75 -32 -138 -85 -176c-47 -34 -104 -41 -163 -41h-204v-227c0 -12 -10 -23 -24 -23c-13 0 -24 11 -24 23zM529 317c0 62 -23 107 -63 137
c-36 28 -77 38 -129 38h-211v-350h196c50 0 100 6 139 33c42 30 68 81 68 142z" />
    <glyph glyph-name="Tsmall" unicode="&#xf774;" horiz-adv-x="453" 
d="M428 505h-179v-492c0 -12 -11 -21 -22 -21c-12 0 -22 9 -22 21v492h-179c-11 0 -20 8 -20 19c0 12 9 20 20 20h402c10 0 19 -8 19 -20c0 -11 -9 -19 -19 -19z" />
    <glyph glyph-name="Tsmall.2" unicode="&#xe0fe;" horiz-adv-x="571" 
d="M206 544h339c11 0 20 -8 20 -20c0 -11 -9 -19 -20 -19h-218v-492c0 -12 -11 -21 -22 -21c-12 0 -22 9 -22 21v492h-78c-100 0 -153 -13 -153 -53c0 -18 14 -29 33 -31c8 -1 20 -3 20 -15s-13 -20 -31 -20c-34 0 -66 24 -66 67c0 74 90 91 198 91z" />
    <glyph glyph-name="Tsmallcaron" unicode="&#xe0ff;" horiz-adv-x="451" 
d="M69 810c0 10 7 17 17 17c4 0 8 -2 12 -6l127 -134l128 134c4 4 7 6 12 6c9 0 17 -7 17 -17c0 -5 -3 -10 -8 -14l-131 -140c-5 -5 -10 -10 -18 -10c-7 0 -12 5 -17 10l-132 140c-4 4 -7 9 -7 14zM427 505h-179v-492c0 -12 -11 -21 -22 -21c-12 0 -22 9 -22 21v492h-179
c-11 0 -20 8 -20 19c0 12 9 20 20 20h402c10 0 19 -8 19 -20c0 -11 -9 -19 -19 -19z" />
    <glyph glyph-name="Tsmallcaron.2" unicode="&#xe100;" horiz-adv-x="571" 
d="M148 810c0 10 7 17 16 17c5 0 9 -2 13 -6l127 -134l127 134c4 4 8 6 13 6c9 0 17 -7 17 -17c0 -5 -4 -9 -8 -14l-131 -140c-5 -5 -10 -10 -18 -10c-7 0 -12 5 -17 10l-132 140c-4 5 -7 9 -7 14zM206 544h339c11 0 20 -8 20 -20c0 -11 -9 -19 -20 -19h-218v-492
c0 -12 -11 -21 -22 -21c-12 0 -22 9 -22 21v492h-78c-100 0 -153 -13 -153 -53c0 -18 14 -29 33 -31c8 -1 20 -3 20 -15s-13 -20 -31 -20c-34 0 -66 24 -66 67c0 74 90 91 198 91z" />
    <glyph glyph-name="Tsmallcommaaccent" unicode="&#xe101;" horiz-adv-x="453" 
d="M428 505h-179v-492c0 -12 -11 -21 -22 -21c-12 0 -22 9 -22 21v492h-179c-11 0 -20 8 -20 19c0 12 9 20 20 20h402c10 0 19 -8 19 -20c0 -11 -9 -19 -19 -19zM196 -172c0 13 21 18 21 40c0 18 -23 16 -23 41c0 15 10 29 30 29c24 0 36 -18 36 -45c0 -43 -37 -74 -55 -74
c-5 0 -9 3 -9 9z" />
    <glyph glyph-name="Tsmallcommaaccent.2" unicode="&#xe102;" horiz-adv-x="571" 
d="M206 544h339c11 0 20 -8 20 -20c0 -11 -9 -19 -20 -19h-218v-492c0 -12 -11 -21 -22 -21c-12 0 -22 9 -22 21v492h-78c-100 0 -153 -13 -153 -53c0 -18 14 -29 33 -31c8 -1 20 -3 20 -15s-13 -20 -31 -20c-34 0 -66 24 -66 67c0 74 90 91 198 91zM274 -172
c0 13 21 18 21 40c0 18 -23 16 -23 41c0 15 10 29 30 29c24 0 36 -18 36 -45c0 -43 -37 -74 -55 -74c-5 0 -9 3 -9 9z" />
    <glyph glyph-name="U" unicode="U" horiz-adv-x="721" 
d="M360 33c77 0 136 24 177 67c39 42 59 102 59 176v391c0 12 11 23 24 23c14 0 24 -11 24 -23v-398c0 -81 -23 -148 -67 -196c-49 -53 -123 -83 -217 -83c-93 0 -167 30 -216 83c-44 48 -67 115 -67 196v398c0 12 10 23 24 23c13 0 24 -11 24 -23v-391
c0 -74 20 -134 59 -176c41 -43 100 -67 176 -67z" />
    <glyph glyph-name="US" unicode="&#xe103;" horiz-adv-x="500" 
 />
    <glyph glyph-name="Uacute" unicode="&#xda;" horiz-adv-x="721" 
d="M360 33c77 0 136 24 177 67c39 42 59 102 59 176v391c0 12 11 23 24 23c14 0 24 -11 24 -23v-398c0 -81 -23 -148 -67 -196c-49 -53 -123 -83 -217 -83c-93 0 -167 30 -216 83c-44 48 -67 115 -67 196v398c0 12 10 23 24 23c13 0 24 -11 24 -23v-391
c0 -74 20 -134 59 -176c41 -43 100 -67 176 -67zM295 788c0 4 2 8 4 13l88 155c4 9 11 15 19 15c11 0 19 -8 19 -18c0 -5 -1 -8 -6 -16l-91 -150c-5 -9 -10 -13 -17 -13c-9 0 -16 6 -16 14z" />
    <glyph glyph-name="Ucircumflex" unicode="&#xdb;" horiz-adv-x="721" 
d="M360 33c77 0 136 24 177 67c39 42 59 102 59 176v391c0 12 11 23 24 23c14 0 24 -11 24 -23v-398c0 -81 -23 -148 -67 -196c-49 -53 -123 -83 -217 -83c-93 0 -167 30 -216 83c-44 48 -67 115 -67 196v398c0 12 10 23 24 23c13 0 24 -11 24 -23v-391
c0 -74 20 -134 59 -176c41 -43 100 -67 176 -67zM360 970c8 0 14 -4 18 -9l131 -140c5 -5 8 -10 8 -15c0 -10 -8 -17 -17 -17c-5 0 -9 2 -13 6l-127 134l-127 -134c-4 -4 -8 -6 -13 -6c-9 0 -16 7 -16 17c0 5 2 10 7 15l132 140c4 5 10 9 17 9z" />
    <glyph glyph-name="Udieresis" unicode="&#xdc;" horiz-adv-x="721" 
d="M360 33c77 0 136 24 177 67c39 42 59 102 59 176v391c0 12 11 23 24 23c14 0 24 -11 24 -23v-398c0 -81 -23 -148 -67 -196c-49 -53 -123 -83 -217 -83c-93 0 -167 30 -216 83c-44 48 -67 115 -67 196v398c0 12 10 23 24 23c13 0 24 -11 24 -23v-391
c0 -74 20 -134 59 -176c41 -43 100 -67 176 -67zM274 846c-16 0 -28 12 -28 28c0 15 12 27 28 27c15 0 28 -12 28 -27c0 -16 -13 -28 -28 -28zM440 846c-16 0 -28 12 -28 28c0 15 12 27 28 27c15 0 27 -12 27 -27c0 -16 -12 -28 -27 -28z" />
    <glyph glyph-name="Ugrave" unicode="&#xd9;" horiz-adv-x="721" 
d="M360 33c77 0 136 24 177 67c39 42 59 102 59 176v391c0 12 11 23 24 23c14 0 24 -11 24 -23v-398c0 -81 -23 -148 -67 -196c-49 -53 -123 -83 -217 -83c-93 0 -167 30 -216 83c-44 48 -67 115 -67 196v398c0 12 10 23 24 23c13 0 24 -11 24 -23v-391
c0 -74 20 -134 59 -176c41 -43 100 -67 176 -67zM423 788c0 -8 -7 -14 -15 -14s-13 4 -18 13l-91 150c-5 8 -6 11 -6 16c0 10 8 18 19 18c8 0 14 -6 19 -15l88 -155c3 -5 4 -9 4 -13z" />
    <glyph glyph-name="Uhungarumlaut" unicode="&#x170;" horiz-adv-x="721" 
d="M360 33c77 0 136 24 177 67c39 42 59 102 59 176v391c0 12 11 23 24 23c14 0 24 -11 24 -23v-398c0 -81 -23 -148 -67 -196c-49 -53 -123 -83 -217 -83c-93 0 -167 30 -216 83c-44 48 -67 115 -67 196v398c0 12 10 23 24 23c13 0 24 -11 24 -23v-391
c0 -74 20 -134 59 -176c41 -43 100 -67 176 -67zM208 788c0 4 1 8 4 13l88 155c5 9 11 15 19 15c10 0 19 -8 19 -18c0 -5 -1 -8 -6 -16l-91 -150c-5 -9 -10 -13 -18 -13s-15 6 -15 14zM382 788c0 4 1 8 4 13l88 155c5 9 11 15 19 15c10 0 19 -8 19 -18c0 -5 -1 -8 -6 -16
l-91 -150c-5 -9 -10 -13 -18 -13s-15 6 -15 14z" />
    <glyph glyph-name="Umacron" unicode="&#x16a;" horiz-adv-x="721" 
d="M360 33c77 0 136 24 177 67c39 42 59 102 59 176v391c0 12 11 23 24 23c14 0 24 -11 24 -23v-398c0 -81 -23 -148 -67 -196c-49 -53 -123 -83 -217 -83c-93 0 -167 30 -216 83c-44 48 -67 115 -67 196v398c0 12 10 23 24 23c13 0 24 -11 24 -23v-391
c0 -74 20 -134 59 -176c41 -43 100 -67 176 -67zM487 886c0 -11 -8 -18 -18 -18h-219c-9 0 -17 7 -17 18c0 10 8 18 17 18h219c10 0 18 -8 18 -18z" />
    <glyph glyph-name="Uogonek" unicode="&#x172;" horiz-adv-x="721" 
d="M360 33c77 0 136 24 177 67c39 42 59 102 59 176v391c0 12 11 23 24 23c14 0 24 -11 24 -23v-398c0 -81 -23 -148 -67 -196c-46 -51 -116 -80 -204 -83c-15 -33 -22 -61 -22 -88s7 -61 81 -61c29 0 41 8 50 8s14 -6 14 -14c0 -10 -5 -15 -15 -19c-13 -4 -35 -8 -52 -8
c-89 0 -110 40 -110 85c0 26 10 62 26 98c-87 3 -155 32 -201 82c-44 48 -67 115 -67 196v398c0 12 10 23 24 23c13 0 24 -11 24 -23v-391c0 -74 20 -134 59 -176c41 -43 100 -67 176 -67z" />
    <glyph glyph-name="Uring" unicode="&#x16e;" horiz-adv-x="721" 
d="M360 33c77 0 136 24 177 67c39 42 59 102 59 176v391c0 12 11 23 24 23c14 0 24 -11 24 -23v-398c0 -81 -23 -148 -67 -196c-49 -53 -123 -83 -217 -83c-93 0 -167 30 -216 83c-44 48 -67 115 -67 196v398c0 12 10 23 24 23c13 0 24 -11 24 -23v-391
c0 -74 20 -134 59 -176c41 -43 100 -67 176 -67zM472 864c0 -63 -50 -113 -112 -113s-113 50 -113 113s51 113 113 113s112 -50 112 -113zM447 864c0 49 -39 89 -87 89s-88 -40 -88 -89s40 -88 88 -88s87 38 87 88z" />
    <glyph glyph-name="Usmall" unicode="&#xf775;" horiz-adv-x="609" 
d="M304 33c58 0 104 14 136 43c37 33 56 80 56 141v314c0 12 10 21 22 21s22 -9 22 -21v-315c0 -72 -24 -132 -68 -171c-40 -34 -96 -53 -168 -53c-71 0 -127 19 -167 53c-44 39 -68 99 -68 171v315c0 12 10 21 22 21s22 -9 22 -21v-314c0 -61 19 -108 56 -141
c31 -29 78 -43 135 -43z" />
    <glyph glyph-name="Usmallacute" unicode="&#xe104;" horiz-adv-x="611" 
d="M243 645c0 4 1 8 4 13l88 155c4 9 11 15 19 15c10 0 19 -8 19 -18c0 -5 -2 -8 -6 -16l-91 -150c-5 -9 -10 -13 -18 -13s-15 6 -15 14zM306 33c57 0 104 14 135 43c37 33 56 80 56 141v314c0 12 10 21 22 21s22 -9 22 -21v-315c0 -72 -24 -132 -68 -171
c-40 -34 -96 -53 -167 -53c-72 0 -128 19 -168 53c-44 39 -68 99 -68 171v315c0 12 10 21 22 21s22 -9 22 -21v-314c0 -61 19 -108 56 -141c32 -29 78 -43 136 -43z" />
    <glyph glyph-name="Usmallcircumflex" unicode="&#xe105;" horiz-adv-x="611" 
d="M305 33c58 0 104 14 136 43c37 33 56 80 56 141v314c0 12 10 21 22 21s22 -9 22 -21v-315c0 -72 -24 -132 -68 -171c-40 -34 -96 -53 -168 -53c-71 0 -127 19 -167 53c-44 39 -68 99 -68 171v315c0 12 10 21 22 21s22 -9 22 -21v-314c0 -61 19 -108 56 -141
c31 -29 78 -43 135 -43zM305 827c8 0 14 -4 18 -9l131 -140c5 -5 8 -10 8 -15c0 -10 -8 -17 -17 -17c-5 0 -9 2 -13 6l-127 134l-127 -134c-4 -4 -8 -6 -13 -6c-9 0 -16 7 -16 17c0 5 2 10 7 15l132 140c4 5 10 9 17 9z" />
    <glyph glyph-name="Usmalldieresis" unicode="&#xe106;" horiz-adv-x="611" 
d="M305 33c58 0 104 14 136 43c37 33 56 80 56 141v314c0 12 10 21 22 21s22 -9 22 -21v-315c0 -72 -24 -132 -68 -171c-40 -34 -96 -53 -168 -53c-71 0 -127 19 -167 53c-44 39 -68 99 -68 171v315c0 12 10 21 22 21s22 -9 22 -21v-314c0 -61 19 -108 56 -141
c31 -29 78 -43 135 -43zM223 703c-16 0 -28 12 -28 28c0 15 12 27 28 27c15 0 28 -12 28 -27c0 -16 -13 -28 -28 -28zM389 703c-16 0 -28 12 -28 28c0 15 12 27 28 27c15 0 27 -12 27 -27c0 -16 -12 -28 -27 -28z" />
    <glyph glyph-name="Usmallgrave" unicode="&#xe107;" horiz-adv-x="611" 
d="M368 645c0 -8 -7 -14 -15 -14s-13 4 -18 13l-91 150c-4 8 -6 11 -6 16c0 10 8 18 19 18c8 0 15 -6 19 -15l88 -155c3 -5 4 -9 4 -13zM306 33c57 0 104 14 135 43c37 33 56 80 56 141v314c0 12 10 21 22 21s22 -9 22 -21v-315c0 -72 -24 -132 -68 -171
c-40 -34 -96 -53 -167 -53c-72 0 -128 19 -168 53c-44 39 -68 99 -68 171v315c0 12 10 21 22 21s22 -9 22 -21v-314c0 -61 19 -108 56 -141c32 -29 78 -43 136 -43z" />
    <glyph glyph-name="Usmallhungarumlaut" unicode="&#xe108;" horiz-adv-x="611" 
d="M305 33c58 0 104 14 136 43c37 33 56 80 56 141v314c0 12 10 21 22 21s22 -9 22 -21v-315c0 -72 -24 -132 -68 -171c-40 -34 -96 -53 -168 -53c-71 0 -127 19 -167 53c-44 39 -68 99 -68 171v315c0 12 10 21 22 21s22 -9 22 -21v-314c0 -61 19 -108 56 -141
c31 -29 78 -43 135 -43zM173 645c0 4 1 8 4 13l88 155c5 9 11 15 19 15c10 0 19 -8 19 -18c0 -5 -1 -8 -6 -16l-91 -150c-5 -9 -10 -13 -18 -13s-15 6 -15 14zM347 645c0 4 1 8 4 13l88 155c5 9 11 15 19 15c10 0 19 -8 19 -18c0 -5 -1 -8 -6 -16l-91 -150
c-5 -9 -10 -13 -18 -13s-15 6 -15 14z" />
    <glyph glyph-name="Usmallmacron" unicode="&#xe109;" horiz-adv-x="611" 
d="M305 33c58 0 104 14 136 43c37 33 56 80 56 141v314c0 12 10 21 22 21s22 -9 22 -21v-315c0 -72 -24 -132 -68 -171c-40 -34 -96 -53 -168 -53c-71 0 -127 19 -167 53c-44 39 -68 99 -68 171v315c0 12 10 21 22 21s22 -9 22 -21v-314c0 -61 19 -108 56 -141
c31 -29 78 -43 135 -43zM433 723c0 -11 -8 -18 -18 -18h-219c-9 0 -17 7 -17 18c0 10 8 18 17 18h219c10 0 18 -8 18 -18z" />
    <glyph glyph-name="Usmallogonek" unicode="&#xe10a;" horiz-adv-x="611" 
d="M305 33c58 0 104 14 136 43c37 33 56 80 56 141v314c0 12 10 21 22 21s22 -9 22 -21v-315c0 -72 -24 -132 -68 -171c-36 -31 -85 -49 -146 -52c-15 -33 -25 -64 -25 -91s7 -61 81 -61c30 0 42 8 50 8c9 0 14 -6 14 -14c0 -10 -5 -15 -15 -19c-13 -4 -34 -8 -52 -8
c-88 0 -109 40 -109 85c0 24 10 62 27 99c-68 1 -121 20 -160 53c-44 39 -68 99 -68 171v315c0 12 10 21 22 21s22 -9 22 -21v-314c0 -61 19 -108 56 -141c31 -29 78 -43 135 -43z" />
    <glyph glyph-name="Usmallring" unicode="&#xe10b;" horiz-adv-x="611" 
d="M419 719c0 -63 -51 -113 -112 -113c-63 0 -113 50 -113 113s50 113 113 113c61 0 112 -50 112 -113zM394 719c0 49 -40 89 -87 89c-49 0 -88 -40 -88 -89s39 -88 88 -88c47 0 87 38 87 88zM306 33c57 0 104 14 135 43c37 33 56 80 56 141v314c0 12 10 21 22 21
s22 -9 22 -21v-315c0 -72 -24 -132 -68 -171c-40 -34 -96 -53 -167 -53c-72 0 -128 19 -168 53c-44 39 -68 99 -68 171v315c0 12 10 21 22 21s22 -9 22 -21v-314c0 -61 19 -108 56 -141c32 -29 78 -43 136 -43z" />
    <glyph glyph-name="V" unicode="V" horiz-adv-x="604" 
d="M301 56l249 616c4 11 12 18 24 18c13 0 24 -9 24 -23c0 -4 -2 -9 -4 -14l-260 -638c-6 -14 -16 -25 -33 -25s-27 11 -32 25l-260 638c-1 4 -3 10 -3 13c0 14 10 24 24 24c12 0 20 -7 24 -18z" />
    <glyph glyph-name="Vsmall" unicode="&#xf776;" horiz-adv-x="528" 
d="M263 50l209 487c4 9 10 15 21 15c14 0 22 -9 22 -20c0 -4 -1 -9 -4 -16l-219 -503c-6 -13 -14 -21 -29 -21s-23 8 -29 21l-218 504c-2 6 -4 11 -4 14c0 12 9 21 23 21c10 0 17 -5 21 -16z" />
    <glyph glyph-name="W" unicode="W" horiz-adv-x="1087" 
d="M543 162c-18 -62 -50 -104 -89 -131c-40 -29 -88 -41 -133 -41c-70 0 -140 21 -186 74c-36 41 -58 101 -58 185v418c0 12 10 23 24 23c13 0 24 -11 24 -23v-419c0 -72 18 -121 47 -154c39 -44 95 -59 151 -59c47 0 90 15 122 44c44 39 74 103 74 184v404
c0 12 11 23 24 23c14 0 24 -11 24 -23v-404c0 -81 30 -145 74 -184c33 -29 75 -44 122 -44c56 0 112 15 151 59c30 33 48 82 48 154v419c0 12 10 23 24 23c13 0 24 -11 24 -23v-418c0 -84 -23 -144 -59 -185c-46 -53 -116 -74 -186 -74c-45 0 -93 12 -133 41
c-38 27 -71 69 -89 131z" />
    <glyph glyph-name="W.2" unicode="&#xe10c;" horiz-adv-x="992" 
d="M690 56l248 616c4 11 13 18 24 18c13 0 24 -9 24 -23c0 -4 -2 -9 -3 -14l-261 -638c-5 -14 -15 -25 -33 -25c-17 0 -27 11 -32 25l-162 394l-161 -394c-6 -14 -16 -25 -33 -25s-27 11 -32 25l-260 638c-1 4 -3 10 -3 13c0 14 10 24 24 24c12 0 20 -7 24 -18l247 -616
l169 419l-72 178c-2 4 -4 10 -4 13c0 14 10 24 24 24c12 0 20 -7 24 -18z" />
    <glyph glyph-name="W.calt" unicode="&#xe10d;" horiz-adv-x="1020" 
d="M752 56l214 616c4 11 12 18 24 18c13 0 24 -9 24 -23c0 -3 -2 -8 -4 -14l-225 -638c-5 -15 -15 -25 -33 -25s-28 10 -33 25l-210 586l-209 -586c-5 -15 -14 -25 -32 -25s-28 10 -33 25l-226 638c-2 6 -3 10 -3 14c0 13 10 23 24 23c13 0 20 -7 24 -19l214 -615l216 614
c4 12 11 20 26 20s21 -7 25 -20z" />
    <glyph glyph-name="Wcircumflex" unicode="&#x174;" horiz-adv-x="1087" 
d="M543 162c-18 -62 -50 -104 -89 -131c-40 -29 -88 -41 -133 -41c-70 0 -140 21 -186 74c-36 41 -58 101 -58 185v418c0 12 10 23 24 23c13 0 24 -11 24 -23v-419c0 -72 18 -121 47 -154c39 -44 95 -59 151 -59c47 0 90 15 122 44c44 39 74 103 74 184v404
c0 12 11 23 24 23c14 0 24 -11 24 -23v-404c0 -81 30 -145 74 -184c33 -29 75 -44 122 -44c56 0 112 15 151 59c30 33 48 82 48 154v419c0 12 10 23 24 23c13 0 24 -11 24 -23v-418c0 -84 -23 -144 -59 -185c-46 -53 -116 -74 -186 -74c-45 0 -93 12 -133 41
c-38 27 -71 69 -89 131zM542 970c8 0 14 -4 18 -9l131 -140c5 -5 8 -10 8 -15c0 -10 -8 -17 -17 -17c-5 0 -9 2 -13 6l-127 134l-127 -134c-4 -4 -8 -6 -13 -6c-9 0 -16 7 -16 17c0 5 2 10 7 15l132 140c4 5 10 9 17 9z" />
    <glyph glyph-name="Wcircumflex.2" unicode="&#xe10e;" horiz-adv-x="992" 
d="M690 56l248 616c4 11 13 18 24 18c13 0 24 -9 24 -23c0 -4 -2 -9 -3 -14l-261 -638c-5 -14 -15 -25 -33 -25c-17 0 -27 11 -32 25l-162 394l-161 -394c-6 -14 -16 -25 -33 -25s-27 11 -32 25l-260 638c-1 4 -3 10 -3 13c0 14 10 24 24 24c12 0 20 -7 24 -18l247 -616
l169 419l-72 178c-2 4 -4 10 -4 13c0 14 10 24 24 24c12 0 20 -7 24 -18zM494 970c8 0 14 -4 18 -9l131 -140c5 -5 8 -10 8 -15c0 -10 -8 -17 -17 -17c-5 0 -9 2 -13 6l-127 134l-127 -134c-4 -4 -8 -6 -13 -6c-9 0 -16 7 -16 17c0 5 2 10 7 15l132 140c4 5 10 9 17 9z" />
    <glyph glyph-name="Wsmall" unicode="&#xf777;" horiz-adv-x="901" 
d="M429 217v314c0 12 10 21 22 21s22 -9 22 -21v-314c0 -61 16 -108 46 -140c27 -29 65 -44 112 -44s85 15 111 44c31 32 46 79 46 140v314c0 12 10 21 23 21c12 0 21 -9 21 -21v-315c0 -72 -20 -131 -58 -170c-34 -35 -82 -54 -143 -54c-53 0 -96 16 -127 45
c-24 22 -42 52 -53 87c-10 -36 -29 -65 -54 -87c-31 -29 -73 -45 -126 -45c-61 0 -109 19 -143 54c-39 39 -59 98 -59 170v315c0 12 10 21 22 21s22 -9 22 -21v-314c0 -61 16 -108 47 -140c26 -29 64 -44 111 -44s85 15 112 44c30 32 46 79 46 140z" />
    <glyph glyph-name="Wsmall.2" unicode="&#xe10f;" horiz-adv-x="886" 
d="M621 50l209 487c4 9 10 15 21 15c14 0 22 -9 22 -20c0 -4 -1 -9 -4 -16l-219 -503c-6 -13 -14 -21 -29 -21s-23 8 -29 21l-150 346l-150 -346c-6 -13 -14 -21 -29 -21s-23 8 -29 21l-218 504c-2 6 -4 11 -4 14c0 12 9 21 23 21c10 0 17 -5 21 -16l207 -486l155 364
l-44 103c-2 6 -4 11 -4 14c0 12 9 21 23 21c10 0 17 -5 21 -16z" />
    <glyph glyph-name="Wsmall.calt" unicode="&#xe110;" horiz-adv-x="838" 
d="M443 533l167 -479l174 480c3 10 10 18 22 18c15 0 23 -12 23 -23c0 -5 -2 -11 -5 -18l-184 -498c-4 -12 -11 -21 -30 -21c-18 0 -26 9 -30 22l-161 454l-164 -454c-4 -13 -12 -22 -30 -22s-25 9 -30 21l-182 498c-2 7 -4 12 -4 18c0 11 8 23 23 23c11 0 19 -7 22 -18
l172 -480l169 479c3 9 9 19 24 19c14 0 21 -10 24 -19z" />
    <glyph glyph-name="Wsmallcircumflex" unicode="&#xe111;" horiz-adv-x="901" 
d="M429 217v314c0 12 10 21 22 21s22 -9 22 -21v-314c0 -61 16 -108 46 -140c27 -29 65 -44 112 -44s85 15 111 44c31 32 46 79 46 140v314c0 12 10 21 23 21c12 0 21 -9 21 -21v-315c0 -72 -20 -131 -58 -170c-34 -35 -82 -54 -143 -54c-53 0 -96 16 -127 45
c-24 22 -42 52 -53 87c-10 -36 -29 -65 -54 -87c-31 -29 -73 -45 -126 -45c-61 0 -109 19 -143 54c-39 39 -59 98 -59 170v315c0 12 10 21 22 21s22 -9 22 -21v-314c0 -61 16 -108 47 -140c26 -29 64 -44 111 -44s85 15 112 44c30 32 46 79 46 140zM450 827c8 0 14 -4 18 -9
l131 -140c5 -5 8 -10 8 -15c0 -10 -8 -17 -17 -17c-5 0 -9 2 -13 6l-127 134l-127 -134c-4 -4 -8 -6 -13 -6c-9 0 -16 7 -16 17c0 5 2 10 7 15l132 140c4 5 10 9 17 9z" />
    <glyph glyph-name="Wsmallcircumflex.2" unicode="&#xe112;" horiz-adv-x="886" 
d="M621 50l209 487c4 9 10 15 21 15c14 0 22 -9 22 -20c0 -4 -1 -9 -4 -16l-219 -503c-6 -13 -14 -21 -29 -21s-23 8 -29 21l-150 346l-150 -346c-6 -13 -14 -21 -29 -21s-23 8 -29 21l-218 504c-2 6 -4 11 -4 14c0 12 9 21 23 21c10 0 17 -5 21 -16l207 -486l155 364
l-44 103c-2 6 -4 11 -4 14c0 12 9 21 23 21c10 0 17 -5 21 -16zM440 827c8 0 14 -4 18 -9l131 -140c5 -5 8 -10 8 -15c0 -10 -8 -17 -17 -17c-5 0 -9 2 -13 6l-127 134l-127 -134c-4 -4 -8 -6 -13 -6c-9 0 -16 7 -16 17c0 5 2 10 7 15l132 140c4 5 10 9 17 9z" />
    <glyph glyph-name="X" unicode="X" horiz-adv-x="607" 
d="M56 675l248 -297l248 297c8 11 14 15 24 15c13 0 27 -11 27 -25c0 -7 -4 -13 -9 -19l-259 -306l261 -306c5 -6 8 -12 8 -19c0 -14 -13 -25 -26 -25c-10 0 -16 4 -24 14l-249 299l-250 -299c-8 -10 -15 -14 -24 -14c-13 0 -27 11 -27 25c0 7 4 13 9 19l261 306l-260 306
c-5 6 -8 12 -8 19c0 13 12 25 26 25c10 0 16 -4 24 -15z" />
    <glyph glyph-name="Xsmall" unicode="&#xf778;" horiz-adv-x="510" 
d="M57 541l199 -238l198 238c6 8 12 11 20 11c11 0 23 -8 23 -22c0 -5 -4 -12 -9 -19l-205 -240l208 -239c5 -6 9 -13 9 -18c0 -13 -10 -22 -22 -22c-9 0 -16 4 -21 11c-6 8 -195 227 -201 236l-201 -236c-6 -8 -13 -11 -21 -11c-12 0 -23 8 -23 22c0 5 4 12 9 18l209 238
l-205 241c-6 7 -9 14 -9 19c0 12 10 22 22 22c8 0 15 -3 20 -11z" />
    <glyph glyph-name="Y" unicode="Y" horiz-adv-x="565" 
d="M557 649l-251 -342v-294c0 -12 -11 -23 -24 -23c-14 0 -24 11 -24 23v294l-250 342c-4 5 -6 12 -6 19c0 12 10 22 23 22c9 0 16 -4 23 -14l234 -322l236 322c7 9 13 14 22 14c13 0 23 -10 23 -23c0 -7 -2 -12 -6 -18z" />
    <glyph glyph-name="Y.2" unicode="&#xe113;" horiz-adv-x="619" 
d="M610 649l-277 -379v-257c0 -12 -11 -23 -24 -23c-14 0 -24 11 -24 23v257l-277 379c-3 6 -6 12 -6 19c0 12 10 22 23 22c9 0 16 -4 23 -14l260 -359l263 359c6 10 14 14 23 14c13 0 23 -10 23 -23c0 -7 -3 -12 -7 -18z" />
    <glyph glyph-name="Y.3" unicode="&#xe114;" horiz-adv-x="560" 
d="M62 32c100 0 153 60 203 148l-250 471c-2 5 -4 10 -4 16c0 13 10 23 23 23s19 -6 24 -17l231 -441l217 440c6 12 13 18 25 18s22 -9 22 -22c0 -6 -2 -12 -5 -17l-220 -447c-62 -126 -133 -214 -265 -214c-17 0 -25 9 -25 21s8 21 24 21z" />
    <glyph glyph-name="Yacute" unicode="&#xdd;" horiz-adv-x="565" 
d="M557 649l-251 -342v-294c0 -12 -11 -23 -24 -23c-14 0 -24 11 -24 23v294l-250 342c-4 5 -6 12 -6 19c0 12 10 22 23 22c9 0 16 -4 23 -14l234 -322l236 322c7 9 13 14 22 14c13 0 23 -10 23 -23c0 -7 -2 -12 -6 -18zM218 788c0 4 1 8 4 13l88 155c5 9 11 15 19 15
c11 0 19 -8 19 -18c0 -5 -1 -8 -6 -16l-91 -150c-5 -9 -10 -13 -17 -13c-9 0 -16 6 -16 14z" />
    <glyph glyph-name="Yacute.2" unicode="&#xe115;" horiz-adv-x="619" 
d="M610 649l-277 -379v-257c0 -12 -11 -23 -24 -23c-14 0 -24 11 -24 23v257l-277 379c-3 6 -6 12 -6 19c0 12 10 22 23 22c9 0 16 -4 23 -14l260 -359l263 359c6 10 14 14 23 14c13 0 23 -10 23 -23c0 -7 -3 -12 -7 -18zM245 788c0 4 2 8 4 13l88 155c4 9 11 15 19 15
c11 0 19 -8 19 -18c0 -5 -1 -8 -6 -16l-91 -150c-5 -9 -10 -13 -17 -13c-9 0 -16 6 -16 14z" />
    <glyph glyph-name="Yacute.3" unicode="&#xe116;" horiz-adv-x="560" 
d="M62 32c100 0 153 60 203 148l-250 471c-2 5 -4 10 -4 16c0 13 10 23 23 23s19 -6 24 -17l231 -441l217 440c6 12 13 18 25 18s22 -9 22 -22c0 -6 -2 -12 -5 -17l-220 -447c-62 -126 -133 -214 -265 -214c-17 0 -25 9 -25 21s8 21 24 21zM219 788c0 4 2 8 4 13l88 155
c4 9 11 15 19 15c11 0 19 -8 19 -18c0 -5 -1 -8 -6 -16l-91 -150c-5 -9 -10 -13 -17 -13c-9 0 -16 6 -16 14z" />
    <glyph glyph-name="Ycircumflex" unicode="&#x176;" horiz-adv-x="565" 
d="M557 649l-251 -342v-294c0 -12 -11 -23 -24 -23c-14 0 -24 11 -24 23v294l-250 342c-4 5 -6 12 -6 19c0 12 10 22 23 22c9 0 16 -4 23 -14l234 -322l236 322c7 9 13 14 22 14c13 0 23 -10 23 -23c0 -7 -2 -12 -6 -18zM281 970c8 0 14 -4 18 -9l131 -140c5 -5 8 -10 8 -15
c0 -10 -8 -17 -17 -17c-5 0 -9 2 -13 6l-127 134l-127 -134c-4 -4 -8 -6 -13 -6c-9 0 -16 7 -16 17c0 5 2 10 7 15l132 140c4 5 10 9 17 9z" />
    <glyph glyph-name="Ycircumflex.2" unicode="&#xe117;" horiz-adv-x="619" 
d="M610 649l-277 -379v-257c0 -12 -11 -23 -24 -23c-14 0 -24 11 -24 23v257l-277 379c-3 6 -6 12 -6 19c0 12 10 22 23 22c9 0 16 -4 23 -14l260 -359l263 359c6 10 14 14 23 14c13 0 23 -10 23 -23c0 -7 -3 -12 -7 -18zM308 970c8 0 14 -4 18 -9l131 -140
c5 -5 8 -10 8 -15c0 -10 -8 -17 -17 -17c-5 0 -9 2 -13 6l-127 134l-127 -134c-4 -4 -8 -6 -13 -6c-9 0 -16 7 -16 17c0 5 2 10 7 15l132 140c4 5 10 9 17 9z" />
    <glyph glyph-name="Ycircumflex.3" unicode="&#xe118;" horiz-adv-x="560" 
d="M62 32c100 0 153 60 203 148l-250 471c-2 5 -4 10 -4 16c0 13 10 23 23 23s19 -6 24 -17l231 -441l217 440c6 12 13 18 25 18s22 -9 22 -22c0 -6 -2 -12 -5 -17l-220 -447c-62 -126 -133 -214 -265 -214c-17 0 -25 9 -25 21s8 21 24 21zM282 970c8 0 14 -4 18 -9
l131 -140c5 -5 8 -10 8 -15c0 -10 -8 -17 -17 -17c-5 0 -9 2 -13 6l-127 134l-127 -134c-4 -4 -8 -6 -13 -6c-9 0 -16 7 -16 17c0 5 2 10 7 15l132 140c4 5 10 9 17 9z" />
    <glyph glyph-name="Ydieresis" unicode="&#x178;" horiz-adv-x="565" 
d="M557 649l-251 -342v-294c0 -12 -11 -23 -24 -23c-14 0 -24 11 -24 23v294l-250 342c-4 5 -6 12 -6 19c0 12 10 22 23 22c9 0 16 -4 23 -14l234 -322l236 322c7 9 13 14 22 14c13 0 23 -10 23 -23c0 -7 -2 -12 -6 -18zM199 878c-16 0 -28 12 -28 28c0 15 12 27 28 27
c15 0 28 -12 28 -27c0 -16 -13 -28 -28 -28zM365 878c-16 0 -28 12 -28 28c0 15 12 27 28 27c15 0 27 -12 27 -27c0 -16 -12 -28 -27 -28z" />
    <glyph glyph-name="Ydieresis.2" unicode="&#xe119;" horiz-adv-x="619" 
d="M610 649l-277 -379v-257c0 -12 -11 -23 -24 -23c-14 0 -24 11 -24 23v257l-277 379c-3 6 -6 12 -6 19c0 12 10 22 23 22c9 0 16 -4 23 -14l260 -359l263 359c6 10 14 14 23 14c13 0 23 -10 23 -23c0 -7 -3 -12 -7 -18zM226 846c-16 0 -28 12 -28 28c0 15 12 27 28 27
c15 0 28 -12 28 -27c0 -16 -13 -28 -28 -28zM392 846c-16 0 -28 12 -28 28c0 15 12 27 28 27c15 0 27 -12 27 -27c0 -16 -12 -28 -27 -28z" />
    <glyph glyph-name="Ydieresis.3" unicode="&#xe11a;" horiz-adv-x="560" 
d="M62 32c100 0 153 60 203 148l-250 471c-2 5 -4 10 -4 16c0 13 10 23 23 23s19 -6 24 -17l231 -441l217 440c6 12 13 18 25 18s22 -9 22 -22c0 -6 -2 -12 -5 -17l-220 -447c-62 -126 -133 -214 -265 -214c-17 0 -25 9 -25 21s8 21 24 21zM203 846c-16 0 -28 12 -28 28
c0 15 12 27 28 27c15 0 28 -12 28 -27c0 -16 -13 -28 -28 -28zM369 846c-16 0 -28 12 -28 28c0 15 12 27 28 27c15 0 27 -12 27 -27c0 -16 -12 -28 -27 -28z" />
    <glyph glyph-name="Ysmall" unicode="&#xf779;" horiz-adv-x="473" 
d="M453 510l-195 -265v-232c0 -12 -8 -21 -22 -21c-13 0 -21 9 -21 21v232l-195 265c-5 7 -9 15 -9 22c0 12 9 20 20 20c10 0 15 -4 21 -12l184 -253l186 254c5 8 11 11 20 11c11 0 20 -8 20 -20c0 -7 -4 -15 -9 -22z" />
    <glyph glyph-name="Ysmall.2" unicode="&#xe11b;" horiz-adv-x="518" 
d="M497 511l-216 -296v-202c0 -12 -9 -21 -22 -21c-14 0 -22 9 -22 21v202l-217 296c-5 7 -9 14 -9 21c0 12 9 20 20 20c10 0 15 -4 21 -12l206 -284l209 285c5 8 11 11 20 11c10 0 20 -8 20 -20c0 -7 -4 -14 -10 -21z" />
    <glyph glyph-name="Ysmall.3" unicode="&#xe11c;" horiz-adv-x="460" 
d="M54 29c79 0 121 48 159 115l-196 371c-3 5 -6 11 -6 16c0 11 9 21 21 21c11 0 16 -6 21 -15l183 -347l172 347c4 10 10 15 21 15s20 -8 20 -20c0 -3 -1 -7 -4 -14l-176 -355c-49 -100 -108 -171 -214 -171c-16 0 -23 8 -23 19c0 10 7 18 22 18z" />
    <glyph glyph-name="Ysmallacute" unicode="&#xe11d;" horiz-adv-x="473" 
d="M453 510l-195 -265v-232c0 -12 -8 -21 -22 -21c-13 0 -21 9 -21 21v232l-195 265c-5 7 -9 15 -9 22c0 12 9 20 20 20c10 0 15 -4 21 -12l184 -253l186 254c5 8 11 11 20 11c11 0 20 -8 20 -20c0 -7 -4 -15 -9 -22zM171 645c0 4 2 8 4 13l88 155c4 9 11 15 19 15
c11 0 19 -8 19 -18c0 -5 -1 -8 -6 -16l-91 -150c-5 -9 -10 -13 -17 -13c-9 0 -16 6 -16 14z" />
    <glyph glyph-name="Ysmallacute.2" unicode="&#xe11e;" horiz-adv-x="518" 
d="M497 511l-216 -296v-202c0 -12 -9 -21 -22 -21c-14 0 -22 9 -22 21v202l-217 296c-5 7 -9 14 -9 21c0 12 9 20 20 20c10 0 15 -4 21 -12l206 -284l209 285c5 8 11 11 20 11c10 0 20 -8 20 -20c0 -7 -4 -14 -10 -21zM193 645c0 4 2 8 4 13l88 155c4 9 11 15 19 15
c11 0 19 -8 19 -18c0 -5 -1 -8 -6 -16l-91 -150c-5 -9 -10 -13 -17 -13c-9 0 -16 6 -16 14z" />
    <glyph glyph-name="Ysmallacute.3" unicode="&#xe11f;" horiz-adv-x="460" 
d="M54 29c79 0 121 48 159 115l-196 371c-3 5 -6 11 -6 16c0 11 9 21 21 21c11 0 16 -6 21 -15l183 -347l172 347c5 10 10 15 21 15s20 -8 20 -20c0 -3 -1 -7 -4 -14l-176 -355c-49 -100 -108 -171 -214 -171c-16 0 -23 8 -23 19c0 10 7 18 22 18zM170 645c0 4 2 8 4 13
l88 155c4 9 11 15 19 15c11 0 19 -8 19 -18c0 -5 -1 -8 -6 -16l-91 -150c-5 -9 -10 -13 -17 -13c-9 0 -16 6 -16 14z" />
    <glyph glyph-name="Ysmallcircumflex" unicode="&#xe120;" horiz-adv-x="473" 
d="M453 510l-195 -265v-232c0 -12 -8 -21 -22 -21c-13 0 -21 9 -21 21v232l-195 265c-5 7 -9 15 -9 22c0 12 9 20 20 20c10 0 15 -4 21 -12l184 -253l186 254c5 8 11 11 20 11c11 0 20 -8 20 -20c0 -7 -4 -15 -9 -22zM236 827c8 0 14 -4 18 -9l131 -140c5 -5 8 -10 8 -15
c0 -10 -8 -17 -17 -17c-5 0 -9 2 -13 6l-127 134l-127 -134c-4 -4 -8 -6 -13 -6c-9 0 -16 7 -16 17c0 5 2 10 7 15l132 140c4 5 10 9 17 9z" />
    <glyph glyph-name="Ysmallcircumflex.2" unicode="&#xe121;" horiz-adv-x="518" 
d="M497 511l-216 -296v-202c0 -12 -9 -21 -22 -21c-14 0 -22 9 -22 21v202l-217 296c-5 7 -9 14 -9 21c0 12 9 20 20 20c10 0 15 -4 21 -12l206 -284l209 285c5 8 11 11 20 11c10 0 20 -8 20 -20c0 -7 -4 -14 -10 -21zM258 827c8 0 14 -4 18 -9l131 -140c5 -5 8 -10 8 -15
c0 -10 -8 -17 -17 -17c-5 0 -9 2 -13 6l-127 134l-127 -134c-4 -4 -8 -6 -13 -6c-9 0 -16 7 -16 17c0 5 2 10 7 15l132 140c4 5 10 9 17 9z" />
    </font>
</defs>
</svg>
