<?xml version="1.0" standalone="no"?>
<!DOCTYPE svg PUBLIC "-//W3C//DTD SVG 1.1//EN" "http://www.w3.org/Graphics/SVG/1.1/DTD/svg11.dtd" >
<svg xmlns="http://www.w3.org/2000/svg" xmlns:xlink="http://www.w3.org/1999/xlink" version="1.1">
<metadata>
Created by FontForge 20190801 at Thu Sep 18 14:45:21 2008
 By Jimmy Wärting
Copyright (c) 2008 by G-Type Designed and digitized by Nick Cooke. All rights reserved.
</metadata>
<defs>
<font id="HouschkaRounded-Medium" horiz-adv-x="600" >
  <font-face 
    font-family="Houschka Rounded Medium"
    font-weight="500"
    font-stretch="normal"
    units-per-em="1000"
    panose-1="2 15 6 3 2 0 0 2 0 3"
    ascent="760"
    descent="-240"
    x-height="452"
    cap-height="681"
    bbox="-159 -251 1308 996"
    underline-thickness="50"
    underline-position="-100"
    unicode-range="U+0020-FB06"
  />
<missing-glyph horiz-adv-x="500" 
d="M0 690h500v-690h-500v690zM250 301l-181 -249h361zM69 638l181 -249l180 249h-361zM218 345l-166 229v-458zM282 345l166 -229v458z" />
    <glyph glyph-name="ff" unicode="ff" horiz-adv-x="612" 
d="M168 451h194v70c0 93 32 169 134 169c34 0 68 -7 96 -21c24 -12 40 -25 40 -44c0 -15 -12 -28 -28 -28c-10 0 -17 9 -35 18c-20 10 -40 13 -59 13c-58 0 -75 -34 -75 -101v-76h127c15 0 28 -13 28 -28c0 -17 -13 -30 -28 -30h-127v-368c0 -19 -17 -35 -37 -35
s-36 16 -36 35v368h-194v-368c0 -19 -16 -35 -36 -35s-37 16 -37 35v368h-48c-16 0 -29 13 -29 30c0 15 13 28 29 28h48v71c0 84 33 158 132 158c32 0 62 -7 88 -20c23 -11 38 -25 38 -43c0 -16 -10 -28 -24 -28c-8 0 -14 5 -31 14s-35 12 -54 12c-59 0 -76 -40 -76 -98v-66
z" />
    <glyph glyph-name="ffi" unicode="ffi" horiz-adv-x="761" 
d="M95 451v75c0 84 33 158 132 158c32 0 62 -7 88 -20c23 -11 38 -25 38 -43c0 -16 -10 -28 -24 -28c-8 0 -14 5 -31 14s-35 12 -54 12c-59 0 -76 -40 -76 -98v-70h194v68c0 91 33 171 154 171c49 0 86 -10 115 -22c29 -11 45 -25 45 -44c0 -16 -10 -30 -34 -30
c-12 0 -20 6 -41 16c-20 10 -46 18 -75 18c-69 0 -91 -46 -91 -119v-58h217c24 0 37 -15 37 -35v-391c0 -19 -17 -35 -37 -35s-36 16 -36 35v368h-181v-368c0 -19 -17 -35 -37 -35s-36 16 -36 35v368h-194v-368c0 -19 -16 -35 -36 -35s-37 16 -37 35v368h-48
c-16 0 -29 13 -29 30c0 15 13 28 29 28h48z" />
    <glyph glyph-name="ffj" unicode="ffj" horiz-adv-x="761" 
d="M168 451h194v68c0 91 33 171 154 171c49 0 86 -10 115 -22c29 -11 45 -25 45 -44c0 -16 -10 -30 -34 -30c-12 0 -20 6 -41 16c-20 10 -46 18 -75 18c-69 0 -91 -46 -91 -119v-58h217c20 0 37 -15 37 -35v-446c0 -60 -11 -120 -39 -159c-18 -26 -48 -43 -75 -43
c-21 0 -38 10 -38 31c0 27 27 22 55 62c18 25 24 66 24 131v401h-181v-368c0 -19 -17 -35 -37 -35s-36 16 -36 35v368h-194v-368c0 -19 -16 -35 -36 -35s-37 16 -37 35v368h-48c-16 0 -29 13 -29 30c0 15 13 28 29 28h48v75c0 84 33 158 132 158c32 0 62 -7 88 -20
c23 -11 38 -25 38 -43c0 -16 -10 -28 -24 -28c-8 0 -14 5 -31 14s-35 12 -54 12c-59 0 -76 -40 -76 -98v-70z" />
    <glyph glyph-name="ffl" unicode="ffl" horiz-adv-x="763" 
d="M168 451h194v69c0 91 34 170 154 170c45 0 85 -9 113 -21c48 -21 61 -43 61 -84v-560c0 -19 -16 -35 -36 -35s-37 16 -37 35v559c0 21 -35 44 -90 44c-68 0 -92 -44 -92 -118v-59h115c15 0 28 -13 28 -28c0 -17 -13 -30 -28 -30h-115v-368c0 -19 -17 -35 -37 -35
s-36 16 -36 35v368h-194v-368c0 -19 -16 -35 -36 -35s-37 16 -37 35v368h-48c-16 0 -29 13 -29 30c0 15 13 28 29 28h48v75c0 84 33 158 132 158c32 0 62 -7 88 -20c23 -11 38 -25 38 -43c0 -16 -10 -28 -24 -28c-8 0 -14 5 -31 14s-35 12 -54 12c-59 0 -76 -40 -76 -98v-70
z" />
    <glyph glyph-name="fi" unicode="fi" horiz-adv-x="495" 
d="M168 451h218c24 0 36 -15 36 -35v-391c0 -19 -17 -35 -36 -35c-21 0 -37 16 -37 35v368h-181v-368c0 -19 -16 -35 -36 -35s-37 16 -37 35v368h-48c-16 0 -29 13 -29 30c0 15 13 28 29 28h48v68c0 91 34 171 154 171c49 0 87 -9 115 -20c29 -12 45 -27 45 -46
c0 -16 -10 -30 -34 -30c-12 0 -21 5 -42 15c-20 10 -44 18 -74 18c-69 0 -91 -45 -91 -118v-58z" />
    <glyph glyph-name="fj" unicode="fj" horiz-adv-x="498" 
d="M168 451h218c20 0 36 -15 36 -35v-446c0 -60 -10 -120 -39 -159c-18 -26 -47 -43 -75 -43c-21 0 -38 10 -38 31c0 27 26 23 55 62c19 25 24 66 24 131v401h-181v-368c0 -19 -16 -35 -36 -35s-37 16 -37 35v368h-48c-16 0 -29 13 -29 30c0 15 13 28 29 28h48v68
c0 91 34 171 154 171c49 0 87 -11 115 -22c29 -12 45 -25 45 -44c0 -16 -9 -31 -33 -31c-28 0 -59 35 -117 35c-69 0 -91 -46 -91 -119v-58z" />
    <glyph glyph-name="fl" unicode="fl" horiz-adv-x="496" 
d="M423 585v-560c0 -19 -17 -35 -36 -35c-20 0 -37 16 -37 35v559c0 21 -34 44 -89 44c-69 0 -93 -44 -93 -118v-59h121c16 0 28 -13 28 -28c0 -17 -12 -30 -28 -30h-121v-368c0 -19 -16 -35 -36 -35s-37 16 -37 35v368h-48c-16 0 -29 13 -29 30c0 15 13 28 29 28h48v69
c0 91 37 170 157 170c45 0 86 -8 115 -21c47 -20 56 -43 56 -84z" />
    <glyph glyph-name=".notdef" horiz-adv-x="500" 
d="M0 690h500v-690h-500v690zM250 301l-181 -249h361zM69 638l181 -249l180 249h-361zM218 345l-166 229v-458zM282 345l166 -229v458z" />
    <glyph glyph-name="A" unicode="A" horiz-adv-x="691" 
d="M345 616c-57 0 -105 -22 -138 -59c-36 -39 -54 -98 -54 -162v-87h385v87c0 64 -19 122 -55 162c-33 36 -80 59 -138 59zM618 397v-368c0 -21 -19 -39 -40 -39c-23 0 -40 18 -40 39v208h-385v-208c0 -21 -18 -39 -40 -39s-40 18 -40 39v368c0 79 26 160 84 219
c44 44 107 74 188 74c82 0 145 -29 189 -74c57 -59 84 -140 84 -219z" />
    <glyph glyph-name="A.2" unicode="&#xe000;" horiz-adv-x="692" 
d="M345 616c-57 0 -106 -22 -139 -59c-36 -39 -53 -98 -53 -162v-83h385v83c0 64 -18 122 -54 162c-33 36 -81 59 -139 59zM618 397v-368c0 -21 -19 -39 -40 -39c-23 0 -40 18 -40 39v212h-385v-212c0 -21 -18 -39 -40 -39s-40 18 -40 39v368c0 79 26 160 84 219
c44 44 107 74 188 74c82 0 145 -29 189 -74c57 -59 84 -140 84 -219z" />
    <glyph glyph-name="A.3" unicode="&#xe001;" horiz-adv-x="640" 
d="M84 597c0 21 21 39 53 53c55 26 117 40 191 40c75 0 142 -18 187 -72c33 -41 52 -101 52 -187v-402c0 -21 -17 -39 -40 -39s-40 18 -40 39v13c-61 -38 -115 -52 -200 -52c-109 0 -234 55 -234 189c0 80 39 132 102 167c83 44 207 58 332 66v14c0 70 -14 115 -39 145
c-31 37 -80 48 -126 48c-67 0 -108 -19 -141 -36c-23 -12 -40 -23 -60 -23c-21 0 -37 16 -37 37zM139 182c0 -93 89 -125 175 -125c64 0 118 13 173 50v241c-91 -6 -192 -13 -260 -44c-54 -24 -88 -62 -88 -122z" />
    <glyph glyph-name="A.calt" unicode="&#xe002;" horiz-adv-x="617" 
d="M308 587l-141 -354h282zM529 19l-59 149h-323l-61 -149c-7 -18 -18 -29 -40 -29c-24 0 -38 17 -38 37c0 5 3 14 6 21l240 601c9 23 23 41 55 41c33 0 47 -18 56 -41l239 -601c3 -6 5 -16 5 -21c0 -23 -17 -37 -40 -37c-20 0 -33 10 -40 29z" />
    <glyph glyph-name="AE" unicode="&#xc6;" horiz-adv-x="1006" 
d="M610 306v-235h330c19 0 34 -17 34 -36s-15 -35 -34 -35h-370c-23 0 -40 18 -40 39v198h-377v-208c0 -21 -18 -39 -40 -39s-40 18 -40 39v368c0 79 26 161 83 219c43 45 105 74 186 74c80 0 142 -29 188 -77v29c0 21 17 39 40 39h370c19 0 34 -17 34 -35
c0 -20 -15 -36 -34 -36h-330v-233h278c19 0 35 -17 35 -36s-16 -35 -35 -35h-278zM342 616c-57 0 -104 -23 -136 -59c-35 -40 -53 -98 -53 -162v-87h377v87c0 64 -18 122 -53 162c-32 36 -78 59 -135 59z" />
    <glyph glyph-name="AE.3" unicode="&#xe003;" horiz-adv-x="1161" 
d="M53 179c0 89 59 140 140 169c89 32 206 38 294 40v38c0 70 -14 115 -39 145c-33 40 -80 49 -126 49c-68 0 -109 -19 -142 -37c-22 -11 -39 -23 -59 -23c-21 0 -37 16 -37 37s21 39 53 53c55 26 117 40 191 40c75 0 142 -18 186 -72c13 -17 25 -37 34 -60
c7 11 16 22 25 32c54 60 134 100 239 100c101 0 177 -39 227 -93c57 -61 80 -138 80 -219c0 -40 -21 -58 -51 -58h-493c5 -71 28 -130 65 -173c47 -54 115 -85 195 -85c59 0 102 11 133 24c48 19 70 43 88 43c20 0 35 -15 35 -37c0 -24 -32 -49 -78 -68
c-52 -21 -119 -34 -178 -34c-113 0 -198 37 -258 102c-64 -55 -150 -102 -288 -102c-112 0 -236 55 -236 189zM576 389h460c-3 68 -24 120 -58 158c-37 41 -94 69 -165 69c-78 0 -139 -30 -180 -79c-32 -37 -52 -91 -57 -148zM314 57c112 0 178 46 224 87
c-29 49 -46 108 -50 176c-74 0 -171 -3 -244 -27c-61 -20 -105 -53 -105 -111c0 -93 89 -125 175 -125z" />
    <glyph glyph-name="AE.calt" unicode="&#xe004;" horiz-adv-x="979" 
d="M583 306v-235h330c19 0 35 -17 35 -36s-16 -35 -35 -35h-370c-23 0 -40 18 -40 39v129h-300l-116 -151c-13 -17 -20 -27 -41 -27c-24 0 -38 15 -38 37c0 10 5 21 13 32l449 583c19 25 36 39 69 39h374c19 0 35 -17 35 -35c0 -20 -16 -36 -35 -36h-330v-233h278
c19 0 35 -17 35 -36s-16 -35 -35 -35h-278zM252 233h251v327z" />
    <glyph glyph-name="AEsmall" unicode="&#xf7e6;" horiz-adv-x="865" 
d="M521 240v-175h295c18 0 32 -14 32 -33s-14 -32 -32 -32h-331c-20 0 -37 16 -37 35v152h-300v-160c0 -19 -17 -35 -37 -35s-36 16 -36 35v289c0 60 19 123 60 168c36 40 90 68 163 68c65 0 114 -22 150 -55v11c0 20 17 36 37 36h331c18 0 32 -13 32 -32
c0 -20 -14 -33 -32 -33h-295v-174h255c18 0 32 -13 32 -32c0 -20 -14 -33 -32 -33h-255zM298 484c-48 0 -86 -19 -111 -50c-26 -31 -39 -74 -39 -121v-63h300v63c0 45 -13 90 -39 121c-26 32 -63 50 -111 50z" />
    <glyph glyph-name="AEsmall.3" unicode="&#xe005;" horiz-adv-x="945" 
d="M677 59c45 0 79 9 104 19c37 15 55 34 70 34c18 0 32 -15 32 -35s-26 -42 -69 -59c-41 -17 -92 -26 -139 -26c-89 0 -156 29 -204 79c-50 -40 -117 -79 -223 -79c-99 0 -191 52 -191 156c0 151 206 162 341 165v25c0 52 -9 88 -29 111c-25 30 -59 37 -94 37
c-55 0 -88 -19 -112 -32c-16 -9 -29 -16 -44 -16c-21 0 -36 15 -36 35c0 21 19 34 43 46c46 22 99 33 154 33c60 0 113 -15 149 -59c9 -11 17 -24 23 -39c45 65 122 98 206 98c80 0 143 -32 183 -75c45 -48 64 -111 64 -176c0 -34 -18 -49 -45 -49h-381
c5 -50 20 -94 46 -126c36 -44 89 -67 152 -67zM480 311h349c-2 50 -18 94 -46 123s-73 51 -123 51c-59 0 -103 -22 -135 -59c-25 -30 -41 -72 -45 -115zM263 55c76 0 131 29 175 61c-22 38 -36 84 -40 136c-106 0 -266 -6 -266 -101c0 -68 67 -96 131 -96z" />
    <glyph glyph-name="Aacute" unicode="&#xc1;" horiz-adv-x="691" 
d="M345 616c-57 0 -105 -22 -138 -59c-36 -39 -54 -98 -54 -162v-87h385v87c0 64 -19 122 -55 162c-33 36 -80 59 -138 59zM618 397v-368c0 -21 -19 -39 -40 -39c-23 0 -40 18 -40 39v208h-385v-208c0 -21 -18 -39 -40 -39s-40 18 -40 39v368c0 79 26 160 84 219
c44 44 107 74 188 74c82 0 145 -29 189 -74c57 -59 84 -140 84 -219zM275 794c0 6 2 12 6 19l76 138c6 12 15 21 28 21c17 0 30 -13 30 -28c0 -7 -2 -12 -8 -22l-81 -134c-7 -11 -15 -18 -26 -18c-13 0 -25 10 -25 24z" />
    <glyph glyph-name="Aacute.2" unicode="&#xe006;" horiz-adv-x="692" 
d="M345 616c-57 0 -106 -22 -139 -59c-36 -39 -53 -98 -53 -162v-83h385v83c0 64 -18 122 -54 162c-33 36 -81 59 -139 59zM618 397v-368c0 -21 -19 -39 -40 -39c-23 0 -40 18 -40 39v212h-385v-212c0 -21 -18 -39 -40 -39s-40 18 -40 39v368c0 79 26 160 84 219
c44 44 107 74 188 74c82 0 145 -29 189 -74c57 -59 84 -140 84 -219zM275 794c0 6 2 12 6 19l76 138c6 12 15 21 28 21c17 0 30 -13 30 -28c0 -7 -2 -12 -8 -22l-81 -134c-7 -11 -15 -18 -26 -18c-13 0 -25 10 -25 24z" />
    <glyph glyph-name="Aacute.3" unicode="&#xe007;" horiz-adv-x="640" 
d="M84 597c0 21 21 39 53 53c55 26 117 40 191 40c75 0 142 -18 187 -72c33 -41 52 -101 52 -187v-402c0 -21 -17 -39 -40 -39s-40 18 -40 39v13c-61 -38 -115 -52 -200 -52c-109 0 -234 55 -234 189c0 80 39 132 102 167c83 44 207 58 332 66v14c0 70 -14 115 -39 145
c-31 37 -80 48 -126 48c-67 0 -108 -19 -141 -36c-23 -12 -40 -23 -60 -23c-21 0 -37 16 -37 37zM139 182c0 -93 89 -125 175 -125c64 0 118 13 173 50v241c-91 -6 -192 -13 -260 -44c-54 -24 -88 -62 -88 -122zM252 794c0 6 2 12 6 19l76 138c6 12 15 21 28 21
c17 0 30 -13 30 -28c0 -7 -2 -12 -8 -22l-81 -134c-7 -11 -15 -18 -26 -18c-13 0 -25 10 -25 24z" />
    <glyph glyph-name="Aacute.calt" unicode="&#xe008;" horiz-adv-x="617" 
d="M308 587l-141 -354h282zM529 19l-59 149h-323l-61 -149c-7 -18 -18 -29 -40 -29c-24 0 -38 17 -38 37c0 5 3 14 6 21l240 601c9 23 23 41 55 41c33 0 47 -18 56 -41l239 -601c3 -6 5 -16 5 -21c0 -23 -17 -37 -40 -37c-20 0 -33 10 -40 29zM239 794c0 6 2 12 6 19l76 138
c6 12 15 21 28 21c17 0 30 -13 30 -28c0 -7 -2 -12 -8 -22l-81 -134c-7 -11 -15 -18 -26 -18c-13 0 -25 10 -25 24z" />
    <glyph glyph-name="Abreve" unicode="&#x102;" horiz-adv-x="691" 
d="M345 616c-57 0 -105 -22 -138 -59c-36 -39 -54 -98 -54 -162v-87h385v87c0 64 -19 122 -55 162c-33 36 -80 59 -138 59zM618 397v-368c0 -21 -19 -39 -40 -39c-23 0 -40 18 -40 39v208h-385v-208c0 -21 -18 -39 -40 -39s-40 18 -40 39v368c0 79 26 160 84 219
c44 44 107 74 188 74c82 0 145 -29 189 -74c57 -59 84 -140 84 -219zM345 879c72 0 83 84 117 84c15 0 28 -11 28 -26s-16 -37 -30 -54c-29 -36 -68 -58 -115 -58s-86 22 -115 58c-14 17 -30 39 -30 54s13 26 28 26c34 0 45 -84 117 -84z" />
    <glyph glyph-name="Abreve.2" unicode="&#xe009;" horiz-adv-x="692" 
d="M345 616c-57 0 -106 -22 -139 -59c-36 -39 -53 -98 -53 -162v-83h385v83c0 64 -18 122 -54 162c-33 36 -81 59 -139 59zM618 397v-368c0 -21 -19 -39 -40 -39c-23 0 -40 18 -40 39v212h-385v-212c0 -21 -18 -39 -40 -39s-40 18 -40 39v368c0 79 26 160 84 219
c44 44 107 74 188 74c82 0 145 -29 189 -74c57 -59 84 -140 84 -219zM345 879c72 0 83 84 117 84c15 0 28 -11 28 -26s-16 -37 -30 -54c-29 -36 -68 -58 -115 -58s-86 22 -115 58c-14 17 -30 39 -30 54s13 26 28 26c34 0 45 -84 117 -84z" />
    <glyph glyph-name="Abreve.3" unicode="&#xe00a;" horiz-adv-x="640" 
d="M84 597c0 21 21 39 53 53c55 26 117 40 191 40c75 0 142 -18 187 -72c33 -41 52 -101 52 -187v-402c0 -21 -17 -39 -40 -39s-40 18 -40 39v13c-61 -38 -115 -52 -200 -52c-109 0 -234 55 -234 189c0 80 39 132 102 167c83 44 207 58 332 66v14c0 70 -14 115 -39 145
c-31 37 -80 48 -126 48c-67 0 -108 -19 -141 -36c-23 -12 -40 -23 -60 -23c-21 0 -37 16 -37 37zM139 182c0 -93 89 -125 175 -125c64 0 118 13 173 50v241c-91 -6 -192 -13 -260 -44c-54 -24 -88 -62 -88 -122zM317 879c72 0 83 84 117 84c15 0 28 -11 28 -26
s-16 -37 -30 -54c-29 -36 -68 -58 -115 -58s-86 22 -115 58c-14 17 -30 39 -30 54s13 26 28 26c34 0 45 -84 117 -84z" />
    <glyph glyph-name="Abreve.calt" unicode="&#xe00b;" horiz-adv-x="617" 
d="M308 587l-141 -354h282zM529 19l-59 149h-323l-61 -149c-7 -18 -18 -29 -40 -29c-24 0 -38 17 -38 37c0 5 3 14 6 21l240 601c9 23 23 41 55 41c33 0 47 -18 56 -41l239 -601c3 -6 5 -16 5 -21c0 -23 -17 -37 -40 -37c-20 0 -33 10 -40 29zM304 879c72 0 83 84 117 84
c15 0 28 -11 28 -26s-16 -37 -30 -54c-29 -36 -68 -58 -115 -58s-86 22 -115 58c-14 17 -30 39 -30 54s13 26 28 26c34 0 45 -84 117 -84z" />
    <glyph glyph-name="Acircumflex" unicode="&#xc2;" horiz-adv-x="691" 
d="M345 616c-57 0 -105 -22 -138 -59c-36 -39 -54 -98 -54 -162v-87h385v87c0 64 -19 122 -55 162c-33 36 -80 59 -138 59zM618 397v-368c0 -21 -19 -39 -40 -39c-23 0 -40 18 -40 39v208h-385v-208c0 -21 -18 -39 -40 -39s-40 18 -40 39v368c0 79 26 160 84 219
c44 44 107 74 188 74c82 0 145 -29 189 -74c57 -59 84 -140 84 -219zM345 971c11 0 18 -6 24 -12l123 -127c7 -8 13 -14 13 -22c0 -17 -13 -27 -27 -27c-8 0 -13 2 -19 8l-114 117l-113 -117c-6 -6 -12 -8 -19 -8c-15 0 -27 10 -27 27c0 8 5 15 12 22l124 127
c6 6 13 12 23 12z" />
    <glyph glyph-name="Acircumflex.2" unicode="&#xe00c;" horiz-adv-x="692" 
d="M345 616c-57 0 -106 -22 -139 -59c-36 -39 -53 -98 -53 -162v-83h385v83c0 64 -18 122 -54 162c-33 36 -81 59 -139 59zM618 397v-368c0 -21 -19 -39 -40 -39c-23 0 -40 18 -40 39v212h-385v-212c0 -21 -18 -39 -40 -39s-40 18 -40 39v368c0 79 26 160 84 219
c44 44 107 74 188 74c82 0 145 -29 189 -74c57 -59 84 -140 84 -219zM345 971c11 0 18 -6 24 -12l123 -127c7 -8 13 -14 13 -22c0 -17 -13 -27 -27 -27c-8 0 -13 2 -19 8l-114 117l-113 -117c-6 -6 -12 -8 -19 -8c-15 0 -27 10 -27 27c0 8 5 15 12 22l124 127
c6 6 13 12 23 12z" />
    <glyph glyph-name="Acircumflex.3" unicode="&#xe00d;" horiz-adv-x="640" 
d="M84 597c0 21 21 39 53 53c55 26 117 40 191 40c75 0 142 -18 187 -72c33 -41 52 -101 52 -187v-402c0 -21 -17 -39 -40 -39s-40 18 -40 39v13c-61 -38 -115 -52 -200 -52c-109 0 -234 55 -234 189c0 80 39 132 102 167c83 44 207 58 332 66v14c0 70 -14 115 -39 145
c-31 37 -80 48 -126 48c-67 0 -108 -19 -141 -36c-23 -12 -40 -23 -60 -23c-21 0 -37 16 -37 37zM139 182c0 -93 89 -125 175 -125c64 0 118 13 173 50v241c-91 -6 -192 -13 -260 -44c-54 -24 -88 -62 -88 -122zM324 971c11 0 18 -6 24 -12l123 -127c7 -8 13 -14 13 -22
c0 -17 -13 -27 -27 -27c-8 0 -13 2 -19 8l-114 117l-113 -117c-6 -6 -12 -8 -19 -8c-15 0 -27 10 -27 27c0 8 5 15 12 22l124 127c6 6 13 12 23 12z" />
    <glyph glyph-name="Acircumflex.calt" unicode="&#xe00e;" horiz-adv-x="617" 
d="M308 587l-141 -354h282zM529 19l-59 149h-323l-61 -149c-7 -18 -18 -29 -40 -29c-24 0 -38 17 -38 37c0 5 3 14 6 21l240 601c9 23 23 41 55 41c33 0 47 -18 56 -41l239 -601c3 -6 5 -16 5 -21c0 -23 -17 -37 -40 -37c-20 0 -33 10 -40 29zM307 971c11 0 18 -6 24 -12
l123 -127c7 -8 13 -14 13 -22c0 -17 -13 -27 -27 -27c-8 0 -13 2 -19 8l-114 117l-113 -117c-6 -6 -12 -8 -19 -8c-15 0 -27 10 -27 27c0 8 5 15 12 22l124 127c6 6 13 12 23 12z" />
    <glyph glyph-name="Adieresis" unicode="&#xc4;" horiz-adv-x="691" 
d="M345 616c-57 0 -105 -22 -138 -59c-36 -39 -54 -98 -54 -162v-87h385v87c0 64 -19 122 -55 162c-33 36 -80 59 -138 59zM618 397v-368c0 -21 -19 -39 -40 -39c-23 0 -40 18 -40 39v208h-385v-208c0 -21 -18 -39 -40 -39s-40 18 -40 39v368c0 79 26 160 84 219
c44 44 107 74 188 74c82 0 145 -29 189 -74c57 -59 84 -140 84 -219zM251 825c-24 0 -44 20 -44 45c0 24 20 43 44 43c25 0 44 -19 44 -43c0 -25 -19 -45 -44 -45zM439 825c-24 0 -44 20 -44 45c0 24 20 43 44 43s44 -19 44 -43c0 -25 -20 -45 -44 -45z" />
    <glyph glyph-name="Adieresis.2" unicode="&#xe00f;" horiz-adv-x="692" 
d="M345 616c-57 0 -106 -22 -139 -59c-36 -39 -53 -98 -53 -162v-83h385v83c0 64 -18 122 -54 162c-33 36 -81 59 -139 59zM618 397v-368c0 -21 -19 -39 -40 -39c-23 0 -40 18 -40 39v212h-385v-212c0 -21 -18 -39 -40 -39s-40 18 -40 39v368c0 79 26 160 84 219
c44 44 107 74 188 74c82 0 145 -29 189 -74c57 -59 84 -140 84 -219zM252 825c-24 0 -44 20 -44 45c0 24 20 43 44 43c25 0 44 -19 44 -43c0 -25 -19 -45 -44 -45zM440 825c-24 0 -44 20 -44 45c0 24 20 43 44 43s44 -19 44 -43c0 -25 -20 -45 -44 -45z" />
    <glyph glyph-name="Adieresis.3" unicode="&#xe010;" horiz-adv-x="640" 
d="M84 597c0 21 21 39 53 53c55 26 117 40 191 40c75 0 142 -18 187 -72c33 -41 52 -101 52 -187v-402c0 -21 -17 -39 -40 -39s-40 18 -40 39v13c-61 -38 -115 -52 -200 -52c-109 0 -234 55 -234 189c0 80 39 132 102 167c83 44 207 58 332 66v14c0 70 -14 115 -39 145
c-31 37 -80 48 -126 48c-67 0 -108 -19 -141 -36c-23 -12 -40 -23 -60 -23c-21 0 -37 16 -37 37zM139 182c0 -93 89 -125 175 -125c64 0 118 13 173 50v241c-91 -6 -192 -13 -260 -44c-54 -24 -88 -62 -88 -122zM227 825c-24 0 -44 20 -44 45c0 24 20 43 44 43
c25 0 44 -19 44 -43c0 -25 -19 -45 -44 -45zM415 825c-24 0 -44 20 -44 45c0 24 20 43 44 43s44 -19 44 -43c0 -25 -20 -45 -44 -45z" />
    <glyph glyph-name="Adieresis.calt" unicode="&#xe011;" horiz-adv-x="617" 
d="M308 587l-141 -354h282zM529 19l-59 149h-323l-61 -149c-7 -18 -18 -29 -40 -29c-24 0 -38 17 -38 37c0 5 3 14 6 21l240 601c9 23 23 41 55 41c33 0 47 -18 56 -41l239 -601c3 -6 5 -16 5 -21c0 -23 -17 -37 -40 -37c-20 0 -33 10 -40 29zM214 825c-24 0 -44 20 -44 45
c0 24 20 43 44 43c25 0 44 -19 44 -43c0 -25 -19 -45 -44 -45zM402 825c-24 0 -44 20 -44 45c0 24 20 43 44 43s44 -19 44 -43c0 -25 -20 -45 -44 -45z" />
    <glyph glyph-name="Agrave" unicode="&#xc0;" horiz-adv-x="691" 
d="M345 616c-57 0 -105 -22 -138 -59c-36 -39 -54 -98 -54 -162v-87h385v87c0 64 -19 122 -55 162c-33 36 -80 59 -138 59zM618 397v-368c0 -21 -19 -39 -40 -39c-23 0 -40 18 -40 39v208h-385v-208c0 -21 -18 -39 -40 -39s-40 18 -40 39v368c0 79 26 160 84 219
c44 44 107 74 188 74c82 0 145 -29 189 -74c57 -59 84 -140 84 -219zM416 794c0 -14 -12 -24 -26 -24c-11 0 -19 6 -26 18l-81 134c-6 10 -8 15 -8 22c0 15 14 28 30 28c13 0 22 -10 28 -21l77 -138c4 -7 6 -13 6 -19z" />
    <glyph glyph-name="Agrave.2" unicode="&#xe012;" horiz-adv-x="692" 
d="M345 616c-57 0 -106 -22 -139 -59c-36 -39 -53 -98 -53 -162v-83h385v83c0 64 -18 122 -54 162c-33 36 -81 59 -139 59zM618 397v-368c0 -21 -19 -39 -40 -39c-23 0 -40 18 -40 39v212h-385v-212c0 -21 -18 -39 -40 -39s-40 18 -40 39v368c0 79 26 160 84 219
c44 44 107 74 188 74c82 0 145 -29 189 -74c57 -59 84 -140 84 -219zM416 794c0 -14 -12 -24 -26 -24c-11 0 -19 6 -26 18l-81 134c-6 10 -8 15 -8 22c0 15 14 28 30 28c13 0 22 -10 28 -21l77 -138c4 -7 6 -13 6 -19z" />
    <glyph glyph-name="Agrave.3" unicode="&#xe013;" horiz-adv-x="640" 
d="M84 597c0 21 21 39 53 53c55 26 117 40 191 40c75 0 142 -18 187 -72c33 -41 52 -101 52 -187v-402c0 -21 -17 -39 -40 -39s-40 18 -40 39v13c-61 -38 -115 -52 -200 -52c-109 0 -234 55 -234 189c0 80 39 132 102 167c83 44 207 58 332 66v14c0 70 -14 115 -39 145
c-31 37 -80 48 -126 48c-67 0 -108 -19 -141 -36c-23 -12 -40 -23 -60 -23c-21 0 -37 16 -37 37zM139 182c0 -93 89 -125 175 -125c64 0 118 13 173 50v241c-91 -6 -192 -13 -260 -44c-54 -24 -88 -62 -88 -122zM395 794c0 -14 -12 -24 -26 -24c-11 0 -19 6 -26 18l-81 134
c-6 10 -8 15 -8 22c0 15 14 28 30 28c13 0 22 -10 28 -21l77 -138c4 -7 6 -13 6 -19z" />
    <glyph glyph-name="Agrave.calt" unicode="&#xe014;" horiz-adv-x="617" 
d="M308 587l-141 -354h282zM529 19l-59 149h-323l-61 -149c-7 -18 -18 -29 -40 -29c-24 0 -38 17 -38 37c0 5 3 14 6 21l240 601c9 23 23 41 55 41c33 0 47 -18 56 -41l239 -601c3 -6 5 -16 5 -21c0 -23 -17 -37 -40 -37c-20 0 -33 10 -40 29zM378 794
c0 -14 -12 -24 -26 -24c-11 0 -19 6 -26 18l-81 134c-6 10 -8 15 -8 22c0 15 14 28 30 28c13 0 22 -10 28 -21l77 -138c4 -7 6 -13 6 -19z" />
    <glyph glyph-name="Amacron" unicode="&#x100;" horiz-adv-x="691" 
d="M345 616c-57 0 -105 -22 -138 -59c-36 -39 -54 -98 -54 -162v-87h385v87c0 64 -19 122 -55 162c-33 36 -80 59 -138 59zM618 397v-368c0 -21 -19 -39 -40 -39c-23 0 -40 18 -40 39v208h-385v-208c0 -21 -18 -39 -40 -39s-40 18 -40 39v368c0 79 26 160 84 219
c44 44 107 74 188 74c82 0 145 -29 189 -74c57 -59 84 -140 84 -219zM478 881c0 -17 -13 -30 -30 -30h-206c-16 0 -30 13 -30 30c0 16 14 30 30 30h206c17 0 30 -14 30 -30z" />
    <glyph glyph-name="Amacron.2" unicode="&#xe015;" horiz-adv-x="692" 
d="M345 616c-57 0 -106 -22 -139 -59c-36 -39 -53 -98 -53 -162v-83h385v83c0 64 -18 122 -54 162c-33 36 -81 59 -139 59zM618 397v-368c0 -21 -19 -39 -40 -39c-23 0 -40 18 -40 39v212h-385v-212c0 -21 -18 -39 -40 -39s-40 18 -40 39v368c0 79 26 160 84 219
c44 44 107 74 188 74c82 0 145 -29 189 -74c57 -59 84 -140 84 -219zM479 881c0 -17 -13 -30 -30 -30h-206c-16 0 -30 13 -30 30c0 16 14 30 30 30h206c17 0 30 -14 30 -30z" />
    <glyph glyph-name="Amacron.3" unicode="&#xe016;" horiz-adv-x="640" 
d="M84 597c0 21 21 39 53 53c55 26 117 40 191 40c75 0 142 -18 187 -72c33 -41 52 -101 52 -187v-402c0 -21 -17 -39 -40 -39s-40 18 -40 39v13c-61 -38 -115 -52 -200 -52c-109 0 -234 55 -234 189c0 80 39 132 102 167c83 44 207 58 332 66v14c0 70 -14 115 -39 145
c-31 37 -80 48 -126 48c-67 0 -108 -19 -141 -36c-23 -12 -40 -23 -60 -23c-21 0 -37 16 -37 37zM139 182c0 -93 89 -125 175 -125c64 0 118 13 173 50v241c-91 -6 -192 -13 -260 -44c-54 -24 -88 -62 -88 -122zM458 881c0 -17 -13 -30 -30 -30h-206c-16 0 -30 13 -30 30
c0 16 14 30 30 30h206c17 0 30 -14 30 -30z" />
    <glyph glyph-name="Amacron.calt" unicode="&#xe017;" horiz-adv-x="617" 
d="M308 587l-141 -354h282zM529 19l-59 149h-323l-61 -149c-7 -18 -18 -29 -40 -29c-24 0 -38 17 -38 37c0 5 3 14 6 21l240 601c9 23 23 41 55 41c33 0 47 -18 56 -41l239 -601c3 -6 5 -16 5 -21c0 -23 -17 -37 -40 -37c-20 0 -33 10 -40 29zM441 881
c0 -17 -13 -30 -30 -30h-206c-16 0 -30 13 -30 30c0 16 14 30 30 30h206c17 0 30 -14 30 -30z" />
    <glyph glyph-name="Aogonek" unicode="&#x104;" horiz-adv-x="691" 
d="M618 397v-368c0 -21 -19 -39 -40 -39c-6 0 -12 1 -17 3c-11 -27 -19 -54 -19 -80s8 -58 74 -58c26 0 39 7 49 7c15 0 22 -9 22 -22c0 -14 -7 -23 -23 -28c-14 -5 -35 -9 -53 -9c-90 0 -118 40 -118 93c0 42 21 93 45 137v204h-385v-208c0 -21 -18 -39 -40 -39
s-40 18 -40 39v368c0 79 26 160 84 219c44 44 107 74 188 74c82 0 145 -29 189 -74c57 -59 84 -140 84 -219zM345 616c-57 0 -105 -22 -138 -59c-36 -39 -54 -98 -54 -162v-87h385v87c0 64 -19 122 -55 162c-33 36 -80 59 -138 59z" />
    <glyph glyph-name="Aogonek.2" unicode="&#xe018;" horiz-adv-x="692" 
d="M618 397v-368c0 -21 -19 -39 -40 -39c-6 0 -12 1 -17 3c-11 -27 -19 -54 -19 -80s8 -58 74 -58c26 0 39 7 49 7c15 0 22 -9 22 -22c0 -14 -7 -23 -23 -28c-14 -5 -35 -9 -53 -9c-90 0 -118 40 -118 93c0 42 21 93 45 137v208h-385v-212c0 -21 -18 -39 -40 -39
s-40 18 -40 39v368c0 79 26 160 84 219c44 44 107 74 188 74c82 0 145 -29 189 -74c57 -59 84 -140 84 -219zM345 616c-57 0 -106 -22 -139 -59c-36 -39 -53 -98 -53 -162v-83h385v83c0 64 -18 122 -54 162c-33 36 -81 59 -139 59z" />
    <glyph glyph-name="Aogonek.3" unicode="&#xe019;" horiz-adv-x="640" 
d="M84 597c0 21 21 39 53 53c55 26 117 40 191 40c75 0 142 -18 187 -72c33 -41 52 -101 52 -187v-402c0 -19 -14 -35 -33 -38c-12 -27 -20 -52 -20 -78s8 -58 75 -58c26 0 38 7 49 7c14 0 22 -9 22 -22c0 -14 -7 -23 -23 -28c-14 -5 -36 -9 -53 -9c-90 0 -119 40 -119 93
c0 33 13 72 31 108c-6 7 -9 16 -9 25v13c-61 -38 -115 -52 -200 -52c-109 0 -234 55 -234 189c0 80 39 132 102 167c83 44 207 58 332 66v14c0 70 -14 115 -39 145c-31 37 -80 48 -126 48c-67 0 -108 -19 -141 -36c-23 -12 -40 -23 -60 -23c-21 0 -37 16 -37 37zM139 182
c0 -93 89 -125 175 -125c64 0 118 13 173 50v241c-91 -6 -192 -13 -260 -44c-54 -24 -88 -62 -88 -122z" />
    <glyph glyph-name="Aogonek.calt" unicode="&#xe01a;" horiz-adv-x="617" 
d="M491 -104c0 35 17 82 37 124l-58 148h-323l-61 -149c-7 -18 -18 -29 -40 -29c-24 0 -38 17 -38 37c0 5 3 14 6 21l240 601c9 23 23 41 55 41c33 0 47 -18 56 -41l239 -601c3 -6 5 -16 5 -21c0 -23 -17 -37 -40 -37c-4 0 -8 0 -11 1c-12 -28 -18 -54 -18 -78
c0 -26 8 -58 75 -58c25 0 38 7 49 7c14 0 21 -9 21 -22c0 -14 -7 -23 -22 -28s-36 -9 -54 -9c-90 0 -118 40 -118 93zM308 587l-141 -354h282z" />
    <glyph glyph-name="Aring" unicode="&#xc5;" horiz-adv-x="691" 
d="M345 616c-57 0 -105 -22 -138 -59c-36 -39 -54 -98 -54 -162v-87h385v87c0 64 -19 122 -55 162c-33 36 -80 59 -138 59zM618 397v-368c0 -21 -19 -39 -40 -39c-23 0 -40 18 -40 39v208h-385v-208c0 -21 -18 -39 -40 -39s-40 18 -40 39v368c0 79 26 160 84 219
c44 44 107 74 188 74c82 0 145 -29 189 -74c57 -59 84 -140 84 -219zM460 862c0 -65 -51 -116 -115 -116s-116 51 -116 116c0 64 52 116 116 116s115 -52 115 -116zM424 862c0 44 -35 80 -79 80s-79 -36 -79 -80c0 -45 35 -80 79 -80s79 35 79 80z" />
    <glyph glyph-name="Aring.2" unicode="&#xe01b;" horiz-adv-x="692" 
d="M345 616c-57 0 -106 -22 -139 -59c-36 -39 -53 -98 -53 -162v-83h385v83c0 64 -18 122 -54 162c-33 36 -81 59 -139 59zM618 397v-368c0 -21 -19 -39 -40 -39c-23 0 -40 18 -40 39v212h-385v-212c0 -21 -18 -39 -40 -39s-40 18 -40 39v368c0 79 26 160 84 219
c44 44 107 74 188 74c82 0 145 -29 189 -74c57 -59 84 -140 84 -219zM461 862c0 -65 -51 -116 -115 -116s-116 51 -116 116c0 64 52 116 116 116s115 -52 115 -116zM425 862c0 44 -35 80 -79 80s-79 -36 -79 -80c0 -45 35 -80 79 -80s79 35 79 80z" />
    <glyph glyph-name="Aring.3" unicode="&#xe01c;" horiz-adv-x="640" 
d="M84 597c0 21 21 39 53 53c55 26 117 40 191 40c75 0 142 -18 187 -72c33 -41 52 -101 52 -187v-402c0 -21 -17 -39 -40 -39s-40 18 -40 39v13c-61 -38 -115 -52 -200 -52c-109 0 -234 55 -234 189c0 80 39 132 102 167c83 44 207 58 332 66v14c0 70 -14 115 -39 145
c-31 37 -80 48 -126 48c-67 0 -108 -19 -141 -36c-23 -12 -40 -23 -60 -23c-21 0 -37 16 -37 37zM139 182c0 -93 89 -125 175 -125c64 0 118 13 173 50v241c-91 -6 -192 -13 -260 -44c-54 -24 -88 -62 -88 -122zM438 862c0 -65 -51 -116 -115 -116s-116 51 -116 116
c0 64 52 116 116 116s115 -52 115 -116zM402 862c0 44 -35 80 -79 80s-79 -36 -79 -80c0 -45 35 -80 79 -80s79 35 79 80z" />
    <glyph glyph-name="Aring.calt" unicode="&#xe01d;" horiz-adv-x="617" 
d="M308 587l-141 -354h282zM529 19l-59 149h-323l-61 -149c-7 -18 -18 -29 -40 -29c-24 0 -38 17 -38 37c0 5 3 14 6 21l240 601c9 23 23 41 55 41c33 0 47 -18 56 -41l239 -601c3 -6 5 -16 5 -21c0 -23 -17 -37 -40 -37c-20 0 -33 10 -40 29zM423 862
c0 -65 -51 -116 -115 -116s-116 51 -116 116c0 64 52 116 116 116s115 -52 115 -116zM387 862c0 44 -35 80 -79 80s-79 -36 -79 -80c0 -45 35 -80 79 -80s79 35 79 80z" />
    <glyph glyph-name="Asmall" unicode="&#xf761;" horiz-adv-x="591" 
d="M295 484c-47 0 -85 -19 -111 -50s-38 -74 -38 -121v-63h300v63c0 47 -13 90 -39 121c-26 32 -64 50 -112 50zM519 316v-289c0 -19 -17 -35 -37 -35s-36 16 -36 35v160h-300v-160c0 -19 -17 -35 -37 -35s-37 16 -37 35v289c0 60 19 123 60 168c37 40 90 68 163 68
c74 0 127 -28 164 -68c41 -45 60 -108 60 -168z" />
    <glyph glyph-name="Asmall.2" unicode="&#xe01e;" horiz-adv-x="591" 
d="M295 484c-47 0 -85 -19 -111 -50s-38 -74 -38 -121v-64h300v64c0 47 -13 90 -39 121c-26 32 -64 50 -112 50zM519 316v-289c0 -19 -17 -35 -37 -35s-36 16 -36 35v159h-300v-159c0 -19 -17 -35 -37 -35s-37 16 -37 35v289c0 60 19 123 60 168c37 40 90 68 163 68
c74 0 127 -28 164 -68c41 -45 60 -108 60 -168z" />
    <glyph glyph-name="Asmall.3" unicode="&#xe01f;" horiz-adv-x="544" 
d="M57 148c0 73 40 117 97 142c71 33 170 39 244 41v7c0 52 -9 88 -29 111c-25 30 -58 37 -92 37c-38 0 -69 -10 -93 -20c-31 -13 -49 -28 -65 -28c-21 0 -36 15 -36 35c0 21 19 34 43 46c46 22 99 33 154 33c60 0 113 -15 149 -59c27 -33 42 -82 42 -152v-313
c0 -20 -16 -36 -36 -36c-21 0 -37 16 -37 36v3c-50 -30 -92 -39 -154 -39c-94 0 -187 52 -187 156zM263 55c53 0 92 11 135 38v178c-60 -3 -139 -6 -196 -30c-41 -17 -70 -45 -70 -90c0 -68 67 -96 131 -96z" />
    <glyph glyph-name="Asmall.calt" unicode="&#xe020;" horiz-adv-x="511" 
d="M428 17l-47 115h-252l-46 -115c-6 -15 -18 -25 -36 -25c-21 0 -34 15 -34 34c0 4 2 13 4 17l191 472c8 19 20 37 48 37c29 0 42 -19 49 -37l189 -472c1 -3 4 -12 4 -17c0 -19 -14 -34 -34 -34c-17 0 -32 10 -36 25zM256 454l-108 -265h215z" />
    <glyph glyph-name="Asmallacute" unicode="&#xe021;" horiz-adv-x="591" 
d="M295 484c-47 0 -85 -19 -111 -50s-38 -74 -38 -121v-63h300v63c0 47 -13 90 -39 121c-26 32 -64 50 -112 50zM519 316v-289c0 -19 -17 -35 -37 -35s-36 16 -36 35v160h-300v-160c0 -19 -17 -35 -37 -35s-37 16 -37 35v289c0 60 19 123 60 168c37 40 90 68 163 68
c74 0 127 -28 164 -68c41 -45 60 -108 60 -168zM225 652c0 6 2 12 6 19l76 138c6 12 15 21 28 21c17 0 30 -13 30 -28c0 -7 -2 -12 -8 -22l-81 -134c-7 -11 -15 -18 -26 -18c-13 0 -25 10 -25 24z" />
    <glyph glyph-name="Asmallacute.2" unicode="&#xe022;" horiz-adv-x="591" 
d="M295 484c-47 0 -85 -19 -111 -50s-38 -74 -38 -121v-64h300v64c0 47 -13 90 -39 121c-26 32 -64 50 -112 50zM519 316v-289c0 -19 -17 -35 -37 -35s-36 16 -36 35v159h-300v-159c0 -19 -17 -35 -37 -35s-37 16 -37 35v289c0 60 19 123 60 168c37 40 90 68 163 68
c74 0 127 -28 164 -68c41 -45 60 -108 60 -168zM232 652c0 6 2 12 6 19l76 138c6 12 15 21 28 21c17 0 30 -13 30 -28c0 -7 -2 -12 -8 -22l-81 -134c-7 -11 -15 -18 -26 -18c-13 0 -25 10 -25 24z" />
    <glyph glyph-name="Asmallacute.3" unicode="&#xe023;" horiz-adv-x="544" 
d="M57 148c0 73 40 117 97 142c71 33 170 39 244 41v7c0 52 -9 88 -29 111c-25 30 -58 37 -92 37c-38 0 -69 -10 -93 -20c-31 -13 -49 -28 -65 -28c-21 0 -36 15 -36 35c0 21 19 34 43 46c46 22 99 33 154 33c60 0 113 -15 149 -59c27 -33 42 -82 42 -152v-313
c0 -20 -16 -36 -36 -36c-21 0 -37 16 -37 36v3c-50 -30 -92 -39 -154 -39c-94 0 -187 52 -187 156zM263 55c53 0 92 11 135 38v178c-60 -3 -139 -6 -196 -30c-41 -17 -70 -45 -70 -90c0 -68 67 -96 131 -96zM207 652c0 6 2 12 6 19l76 138c6 12 15 21 28 21
c17 0 30 -13 30 -28c0 -7 -2 -12 -8 -22l-81 -134c-7 -11 -15 -18 -26 -18c-13 0 -25 10 -25 24z" />
    <glyph glyph-name="Asmallacute.calt" unicode="&#xe024;" horiz-adv-x="511" 
d="M428 17l-47 115h-252l-46 -115c-6 -15 -18 -25 -36 -25c-21 0 -34 15 -34 34c0 4 2 13 4 17l191 472c8 19 20 37 48 37c29 0 42 -19 49 -37l189 -472c1 -3 4 -12 4 -17c0 -19 -14 -34 -34 -34c-17 0 -32 10 -36 25zM256 454l-108 -265h215zM176 652c0 6 2 12 6 19l76 138
c6 12 15 21 28 21c17 0 30 -13 30 -28c0 -7 -2 -12 -8 -22l-81 -134c-7 -11 -15 -18 -26 -18c-13 0 -25 10 -25 24z" />
    <glyph glyph-name="Asmallbreve" unicode="&#xe025;" horiz-adv-x="591" 
d="M295 484c-47 0 -85 -19 -111 -50s-38 -74 -38 -121v-63h300v63c0 47 -13 90 -39 121c-26 32 -64 50 -112 50zM519 316v-289c0 -19 -17 -35 -37 -35s-36 16 -36 35v160h-300v-160c0 -19 -17 -35 -37 -35s-37 16 -37 35v289c0 60 19 123 60 168c37 40 90 68 163 68
c74 0 127 -28 164 -68c41 -45 60 -108 60 -168zM294 700c72 0 83 84 117 84c15 0 28 -11 28 -26s-16 -37 -30 -54c-29 -36 -68 -58 -115 -58s-86 22 -115 58c-14 17 -30 39 -30 54s13 26 28 26c34 0 45 -84 117 -84z" />
    <glyph glyph-name="Asmallbreve.2" unicode="&#xe026;" horiz-adv-x="591" 
d="M295 484c-47 0 -85 -19 -111 -50s-38 -74 -38 -121v-64h300v64c0 47 -13 90 -39 121c-26 32 -64 50 -112 50zM519 316v-289c0 -19 -17 -35 -37 -35s-36 16 -36 35v159h-300v-159c0 -19 -17 -35 -37 -35s-37 16 -37 35v289c0 60 19 123 60 168c37 40 90 68 163 68
c74 0 127 -28 164 -68c41 -45 60 -108 60 -168zM294 700c72 0 83 84 117 84c15 0 28 -11 28 -26s-16 -37 -30 -54c-29 -36 -68 -58 -115 -58s-86 22 -115 58c-14 17 -30 39 -30 54s13 26 28 26c34 0 45 -84 117 -84z" />
    <glyph glyph-name="Asmallbreve.3" unicode="&#xe027;" horiz-adv-x="544" 
d="M57 148c0 73 40 117 97 142c71 33 170 39 244 41v7c0 52 -9 88 -29 111c-25 30 -58 37 -92 37c-38 0 -69 -10 -93 -20c-31 -13 -49 -28 -65 -28c-21 0 -36 15 -36 35c0 21 19 34 43 46c46 22 99 33 154 33c60 0 113 -15 149 -59c27 -33 42 -82 42 -152v-313
c0 -20 -16 -36 -36 -36c-21 0 -37 16 -37 36v3c-50 -30 -92 -39 -154 -39c-94 0 -187 52 -187 156zM263 55c53 0 92 11 135 38v178c-60 -3 -139 -6 -196 -30c-41 -17 -70 -45 -70 -90c0 -68 67 -96 131 -96zM272 700c72 0 83 84 117 84c15 0 28 -11 28 -26s-16 -37 -30 -54
c-29 -36 -68 -58 -115 -58s-86 22 -115 58c-14 17 -30 39 -30 54s13 26 28 26c34 0 45 -84 117 -84z" />
    <glyph glyph-name="Asmallbreve.calt" unicode="&#xe028;" horiz-adv-x="511" 
d="M428 17l-47 115h-252l-46 -115c-6 -15 -18 -25 -36 -25c-21 0 -34 15 -34 34c0 4 2 13 4 17l191 472c8 19 20 37 48 37c29 0 42 -19 49 -37l189 -472c1 -3 4 -12 4 -17c0 -19 -14 -34 -34 -34c-17 0 -32 10 -36 25zM256 454l-108 -265h215zM253 700c72 0 83 84 117 84
c15 0 28 -11 28 -26s-16 -37 -30 -54c-29 -36 -68 -58 -115 -58s-86 22 -115 58c-14 17 -30 39 -30 54s13 26 28 26c34 0 45 -84 117 -84z" />
    <glyph glyph-name="Asmallcircumflex" unicode="&#xe029;" horiz-adv-x="591" 
d="M295 484c-47 0 -85 -19 -111 -50s-38 -74 -38 -121v-63h300v63c0 47 -13 90 -39 121c-26 32 -64 50 -112 50zM519 316v-289c0 -19 -17 -35 -37 -35s-36 16 -36 35v160h-300v-160c0 -19 -17 -35 -37 -35s-37 16 -37 35v289c0 60 19 123 60 168c37 40 90 68 163 68
c74 0 127 -28 164 -68c41 -45 60 -108 60 -168zM295 829c11 0 18 -6 24 -12l123 -127c7 -8 13 -14 13 -22c0 -17 -13 -27 -27 -27c-8 0 -13 2 -19 8l-114 117l-113 -117c-6 -6 -12 -8 -19 -8c-15 0 -27 10 -27 27c0 8 5 15 12 22l124 127c6 6 13 12 23 12z" />
    <glyph glyph-name="Asmallcircumflex.2" unicode="&#xe02a;" horiz-adv-x="591" 
d="M295 484c-47 0 -85 -19 -111 -50s-38 -74 -38 -121v-64h300v64c0 47 -13 90 -39 121c-26 32 -64 50 -112 50zM519 316v-289c0 -19 -17 -35 -37 -35s-36 16 -36 35v159h-300v-159c0 -19 -17 -35 -37 -35s-37 16 -37 35v289c0 60 19 123 60 168c37 40 90 68 163 68
c74 0 127 -28 164 -68c41 -45 60 -108 60 -168zM297 829c11 0 18 -6 24 -12l123 -127c7 -8 13 -14 13 -22c0 -17 -13 -27 -27 -27c-8 0 -13 2 -19 8l-114 117l-113 -117c-6 -6 -12 -8 -19 -8c-15 0 -27 10 -27 27c0 8 5 15 12 22l124 127c6 6 13 12 23 12z" />
    <glyph glyph-name="Asmallcircumflex.3" unicode="&#xe02b;" horiz-adv-x="544" 
d="M57 148c0 73 40 117 97 142c71 33 170 39 244 41v7c0 52 -9 88 -29 111c-25 30 -58 37 -92 37c-38 0 -69 -10 -93 -20c-31 -13 -49 -28 -65 -28c-21 0 -36 15 -36 35c0 21 19 34 43 46c46 22 99 33 154 33c60 0 113 -15 149 -59c27 -33 42 -82 42 -152v-313
c0 -20 -16 -36 -36 -36c-21 0 -37 16 -37 36v3c-50 -30 -92 -39 -154 -39c-94 0 -187 52 -187 156zM263 55c53 0 92 11 135 38v178c-60 -3 -139 -6 -196 -30c-41 -17 -70 -45 -70 -90c0 -68 67 -96 131 -96zM269 829c11 0 18 -6 24 -12l123 -127c7 -8 13 -14 13 -22
c0 -17 -13 -27 -27 -27c-8 0 -13 2 -19 8l-114 117l-113 -117c-6 -6 -12 -8 -19 -8c-15 0 -27 10 -27 27c0 8 5 15 12 22l124 127c6 6 13 12 23 12z" />
    <glyph glyph-name="Asmallcircumflex.calt" unicode="&#xe02c;" horiz-adv-x="511" 
d="M428 17l-47 115h-252l-46 -115c-6 -15 -18 -25 -36 -25c-21 0 -34 15 -34 34c0 4 2 13 4 17l191 472c8 19 20 37 48 37c29 0 42 -19 49 -37l189 -472c1 -3 4 -12 4 -17c0 -19 -14 -34 -34 -34c-17 0 -32 10 -36 25zM256 454l-108 -265h215zM254 829c11 0 18 -6 24 -12
l123 -127c7 -8 13 -14 13 -22c0 -17 -13 -27 -27 -27c-8 0 -13 2 -19 8l-114 117l-113 -117c-6 -6 -12 -8 -19 -8c-15 0 -27 10 -27 27c0 8 5 15 12 22l124 127c6 6 13 12 23 12z" />
    <glyph glyph-name="Asmalldieresis" unicode="&#xe02d;" horiz-adv-x="591" 
d="M295 484c-47 0 -85 -19 -111 -50s-38 -74 -38 -121v-63h300v63c0 47 -13 90 -39 121c-26 32 -64 50 -112 50zM519 316v-289c0 -19 -17 -35 -37 -35s-36 16 -36 35v160h-300v-160c0 -19 -17 -35 -37 -35s-37 16 -37 35v289c0 60 19 123 60 168c37 40 90 68 163 68
c74 0 127 -28 164 -68c41 -45 60 -108 60 -168zM201 683c-24 0 -44 20 -44 45c0 24 20 43 44 43c25 0 44 -19 44 -43c0 -25 -19 -45 -44 -45zM389 683c-24 0 -44 20 -44 45c0 24 20 43 44 43s44 -19 44 -43c0 -25 -20 -45 -44 -45z" />
    <glyph glyph-name="Asmalldieresis.2" unicode="&#xe02e;" horiz-adv-x="591" 
d="M295 484c-47 0 -85 -19 -111 -50s-38 -74 -38 -121v-64h300v64c0 47 -13 90 -39 121c-26 32 -64 50 -112 50zM519 316v-289c0 -19 -17 -35 -37 -35s-36 16 -36 35v159h-300v-159c0 -19 -17 -35 -37 -35s-37 16 -37 35v289c0 60 19 123 60 168c37 40 90 68 163 68
c74 0 127 -28 164 -68c41 -45 60 -108 60 -168zM204 683c-24 0 -44 20 -44 45c0 24 20 43 44 43c25 0 44 -19 44 -43c0 -25 -19 -45 -44 -45zM392 683c-24 0 -44 20 -44 45c0 24 20 43 44 43s44 -19 44 -43c0 -25 -20 -45 -44 -45z" />
    <glyph glyph-name="Asmalldieresis.3" unicode="&#xe02f;" horiz-adv-x="544" 
d="M57 148c0 73 40 117 97 142c71 33 170 39 244 41v7c0 52 -9 88 -29 111c-25 30 -58 37 -92 37c-38 0 -69 -10 -93 -20c-31 -13 -49 -28 -65 -28c-21 0 -36 15 -36 35c0 21 19 34 43 46c46 22 99 33 154 33c60 0 113 -15 149 -59c27 -33 42 -82 42 -152v-313
c0 -20 -16 -36 -36 -36c-21 0 -37 16 -37 36v3c-50 -30 -92 -39 -154 -39c-94 0 -187 52 -187 156zM263 55c53 0 92 11 135 38v178c-60 -3 -139 -6 -196 -30c-41 -17 -70 -45 -70 -90c0 -68 67 -96 131 -96zM178 683c-24 0 -44 20 -44 45c0 24 20 43 44 43
c25 0 44 -19 44 -43c0 -25 -19 -45 -44 -45zM366 683c-24 0 -44 20 -44 45c0 24 20 43 44 43s44 -19 44 -43c0 -25 -20 -45 -44 -45z" />
    <glyph glyph-name="Asmalldieresis.calt" unicode="&#xe030;" horiz-adv-x="511" 
d="M428 17l-47 115h-252l-46 -115c-6 -15 -18 -25 -36 -25c-21 0 -34 15 -34 34c0 4 2 13 4 17l191 472c8 19 20 37 48 37c29 0 42 -19 49 -37l189 -472c1 -3 4 -12 4 -17c0 -19 -14 -34 -34 -34c-17 0 -32 10 -36 25zM256 454l-108 -265h215zM161 683c-24 0 -44 20 -44 45
c0 24 20 43 44 43c25 0 44 -19 44 -43c0 -25 -19 -45 -44 -45zM349 683c-24 0 -44 20 -44 45c0 24 20 43 44 43s44 -19 44 -43c0 -25 -20 -45 -44 -45z" />
    <glyph glyph-name="Asmallgrave" unicode="&#xe031;" horiz-adv-x="591" 
d="M295 484c-47 0 -85 -19 -111 -50s-38 -74 -38 -121v-63h300v63c0 47 -13 90 -39 121c-26 32 -64 50 -112 50zM519 316v-289c0 -19 -17 -35 -37 -35s-36 16 -36 35v160h-300v-160c0 -19 -17 -35 -37 -35s-37 16 -37 35v289c0 60 19 123 60 168c37 40 90 68 163 68
c74 0 127 -28 164 -68c41 -45 60 -108 60 -168zM366 652c0 -14 -12 -24 -26 -24c-11 0 -19 6 -26 18l-81 134c-6 10 -8 15 -8 22c0 15 14 28 30 28c13 0 22 -10 28 -21l77 -138c4 -7 6 -13 6 -19z" />
    <glyph glyph-name="Asmallgrave.2" unicode="&#xe032;" horiz-adv-x="591" 
d="M295 484c-47 0 -85 -19 -111 -50s-38 -74 -38 -121v-64h300v64c0 47 -13 90 -39 121c-26 32 -64 50 -112 50zM519 316v-289c0 -19 -17 -35 -37 -35s-36 16 -36 35v159h-300v-159c0 -19 -17 -35 -37 -35s-37 16 -37 35v289c0 60 19 123 60 168c37 40 90 68 163 68
c74 0 127 -28 164 -68c41 -45 60 -108 60 -168zM369 652c0 -14 -12 -24 -26 -24c-11 0 -19 6 -26 18l-81 134c-6 10 -8 15 -8 22c0 15 14 28 30 28c13 0 22 -10 28 -21l77 -138c4 -7 6 -13 6 -19z" />
    <glyph glyph-name="Asmallgrave.3" unicode="&#xe033;" horiz-adv-x="544" 
d="M57 148c0 73 40 117 97 142c71 33 170 39 244 41v7c0 52 -9 88 -29 111c-25 30 -58 37 -92 37c-38 0 -69 -10 -93 -20c-31 -13 -49 -28 -65 -28c-21 0 -36 15 -36 35c0 21 19 34 43 46c46 22 99 33 154 33c60 0 113 -15 149 -59c27 -33 42 -82 42 -152v-313
c0 -20 -16 -36 -36 -36c-21 0 -37 16 -37 36v3c-50 -30 -92 -39 -154 -39c-94 0 -187 52 -187 156zM263 55c53 0 92 11 135 38v178c-60 -3 -139 -6 -196 -30c-41 -17 -70 -45 -70 -90c0 -68 67 -96 131 -96zM350 652c0 -14 -12 -24 -26 -24c-11 0 -19 6 -26 18l-81 134
c-6 10 -8 15 -8 22c0 15 14 28 30 28c13 0 22 -10 28 -21l77 -138c4 -7 6 -13 6 -19z" />
    <glyph glyph-name="Asmallgrave.calt" unicode="&#xe034;" horiz-adv-x="511" 
d="M428 17l-47 115h-252l-46 -115c-6 -15 -18 -25 -36 -25c-21 0 -34 15 -34 34c0 4 2 13 4 17l191 472c8 19 20 37 48 37c29 0 42 -19 49 -37l189 -472c1 -3 4 -12 4 -17c0 -19 -14 -34 -34 -34c-17 0 -32 10 -36 25zM256 454l-108 -265h215zM331 652
c0 -14 -12 -24 -26 -24c-11 0 -19 6 -26 18l-81 134c-6 10 -8 15 -8 22c0 15 14 28 30 28c13 0 22 -10 28 -21l77 -138c4 -7 6 -13 6 -19z" />
    <glyph glyph-name="Asmallmacron" unicode="&#xe035;" horiz-adv-x="591" 
d="M295 484c-47 0 -85 -19 -111 -50s-38 -74 -38 -121v-63h300v63c0 47 -13 90 -39 121c-26 32 -64 50 -112 50zM519 316v-289c0 -19 -17 -35 -37 -35s-36 16 -36 35v160h-300v-160c0 -19 -17 -35 -37 -35s-37 16 -37 35v289c0 60 19 123 60 168c37 40 90 68 163 68
c74 0 127 -28 164 -68c41 -45 60 -108 60 -168zM428 718c0 -17 -13 -30 -30 -30h-206c-16 0 -30 13 -30 30c0 16 14 30 30 30h206c17 0 30 -14 30 -30z" />
    <glyph glyph-name="Asmallmacron.2" unicode="&#xe036;" horiz-adv-x="591" 
d="M295 484c-47 0 -85 -19 -111 -50s-38 -74 -38 -121v-64h300v64c0 47 -13 90 -39 121c-26 32 -64 50 -112 50zM519 316v-289c0 -19 -17 -35 -37 -35s-36 16 -36 35v159h-300v-159c0 -19 -17 -35 -37 -35s-37 16 -37 35v289c0 60 19 123 60 168c37 40 90 68 163 68
c74 0 127 -28 164 -68c41 -45 60 -108 60 -168zM431 718c0 -17 -13 -30 -30 -30h-206c-16 0 -30 13 -30 30c0 16 14 30 30 30h206c17 0 30 -14 30 -30z" />
    <glyph glyph-name="Asmallmacron.3" unicode="&#xe037;" horiz-adv-x="544" 
d="M57 148c0 73 40 117 97 142c71 33 170 39 244 41v7c0 52 -9 88 -29 111c-25 30 -58 37 -92 37c-38 0 -69 -10 -93 -20c-31 -13 -49 -28 -65 -28c-21 0 -36 15 -36 35c0 21 19 34 43 46c46 22 99 33 154 33c60 0 113 -15 149 -59c27 -33 42 -82 42 -152v-313
c0 -20 -16 -36 -36 -36c-21 0 -37 16 -37 36v3c-50 -30 -92 -39 -154 -39c-94 0 -187 52 -187 156zM263 55c53 0 92 11 135 38v178c-60 -3 -139 -6 -196 -30c-41 -17 -70 -45 -70 -90c0 -68 67 -96 131 -96zM407 718c0 -17 -13 -30 -30 -30h-206c-16 0 -30 13 -30 30
c0 16 14 30 30 30h206c17 0 30 -14 30 -30z" />
    <glyph glyph-name="Asmallmacron.calt" unicode="&#xe038;" horiz-adv-x="511" 
d="M428 17l-47 115h-252l-46 -115c-6 -15 -18 -25 -36 -25c-21 0 -34 15 -34 34c0 4 2 13 4 17l191 472c8 19 20 37 48 37c29 0 42 -19 49 -37l189 -472c1 -3 4 -12 4 -17c0 -19 -14 -34 -34 -34c-17 0 -32 10 -36 25zM256 454l-108 -265h215zM388 718
c0 -17 -13 -30 -30 -30h-206c-16 0 -30 13 -30 30c0 16 14 30 30 30h206c17 0 30 -14 30 -30z" />
    <glyph glyph-name="Asmallogonek" unicode="&#xe039;" horiz-adv-x="591" 
d="M519 316v-289c0 -18 -14 -32 -32 -34c-12 -30 -20 -55 -20 -80c0 -26 8 -58 75 -58c26 0 38 7 49 7c14 0 22 -9 22 -22c0 -14 -8 -23 -23 -28c-14 -5 -36 -9 -53 -9c-90 0 -119 40 -119 93c0 29 13 69 34 111c-4 5 -6 12 -6 20v160h-300v-160c0 -19 -17 -35 -37 -35
s-37 16 -37 35v289c0 60 19 123 60 168c37 40 90 68 163 68c74 0 127 -28 164 -68c41 -45 60 -108 60 -168zM295 484c-47 0 -85 -19 -111 -50s-38 -74 -38 -121v-63h300v63c0 47 -13 90 -39 121c-26 32 -64 50 -112 50z" />
    <glyph glyph-name="Asmallogonek.2" unicode="&#xe03a;" horiz-adv-x="591" 
d="M519 316v-289c0 -18 -15 -33 -33 -35c-12 -29 -20 -55 -20 -79c0 -26 8 -58 75 -58c26 0 38 7 49 7c14 0 22 -9 22 -22c0 -14 -8 -23 -23 -28c-14 -5 -36 -9 -53 -9c-90 0 -119 40 -119 93c0 29 14 70 35 111c-4 6 -6 13 -6 20v159h-300v-159c0 -19 -17 -35 -37 -35
s-37 16 -37 35v289c0 60 19 123 60 168c37 40 90 68 163 68c74 0 127 -28 164 -68c41 -45 60 -108 60 -168zM295 484c-47 0 -85 -19 -111 -50s-38 -74 -38 -121v-64h300v64c0 47 -13 90 -39 121c-26 32 -64 50 -112 50z" />
    <glyph glyph-name="Asmallogonek.3" unicode="&#xe03b;" horiz-adv-x="544" 
d="M280 552c60 0 113 -15 149 -59c27 -33 42 -82 42 -152v-313c0 -17 -11 -31 -27 -35c-11 -27 -20 -54 -20 -80s8 -58 74 -58c26 0 38 7 49 7c15 0 22 -9 22 -22c0 -14 -7 -23 -23 -28c-14 -5 -36 -9 -53 -9c-90 0 -119 40 -119 93c0 34 13 72 31 109c-5 6 -7 14 -7 23v3
c-50 -30 -92 -39 -154 -39c-94 0 -187 52 -187 156c0 73 40 117 97 142c71 33 170 39 244 41v7c0 52 -9 88 -29 111c-25 30 -58 37 -92 37c-38 0 -69 -10 -93 -20c-31 -13 -49 -28 -65 -28c-21 0 -36 15 -36 35c0 21 19 34 43 46c46 22 99 33 154 33zM263 55
c53 0 92 11 135 38v178c-60 -3 -139 -6 -196 -30c-41 -17 -70 -45 -70 -90c0 -68 67 -96 131 -96z" />
    <glyph glyph-name="Asmallogonek.calt" unicode="&#xe03c;" horiz-adv-x="511" 
d="M428 17l-47 115h-252l-46 -115c-6 -15 -18 -25 -36 -25c-21 0 -34 15 -34 34c0 4 2 13 4 17l191 472c8 19 20 37 48 37c29 0 42 -19 49 -37l189 -472c1 -3 4 -12 4 -17c0 -19 -14 -33 -33 -34c-12 -29 -20 -55 -20 -79c0 -26 8 -58 75 -58c26 0 38 7 49 7
c14 0 22 -9 22 -22c0 -14 -8 -23 -23 -28c-14 -5 -36 -9 -53 -9c-90 0 -119 40 -119 93c0 29 14 70 35 112zM256 454l-108 -265h215z" />
    <glyph glyph-name="Asmallring" unicode="&#xe03d;" horiz-adv-x="591" 
d="M295 484c-47 0 -85 -19 -111 -50s-38 -74 -38 -121v-63h300v63c0 47 -13 90 -39 121c-26 32 -64 50 -112 50zM519 316v-289c0 -19 -17 -35 -37 -35s-36 16 -36 35v160h-300v-160c0 -19 -17 -35 -37 -35s-37 16 -37 35v289c0 60 19 123 60 168c37 40 90 68 163 68
c74 0 127 -28 164 -68c41 -45 60 -108 60 -168zM411 722c0 -65 -51 -116 -115 -116s-116 51 -116 116c0 64 52 116 116 116s115 -52 115 -116zM375 722c0 44 -35 80 -79 80s-79 -36 -79 -80c0 -45 35 -80 79 -80s79 35 79 80z" />
    <glyph glyph-name="Asmallring.2" unicode="&#xe03e;" horiz-adv-x="591" 
d="M295 484c-47 0 -85 -19 -111 -50s-38 -74 -38 -121v-64h300v64c0 47 -13 90 -39 121c-26 32 -64 50 -112 50zM519 316v-289c0 -19 -17 -35 -37 -35s-36 16 -36 35v159h-300v-159c0 -19 -17 -35 -37 -35s-37 16 -37 35v289c0 60 19 123 60 168c37 40 90 68 163 68
c74 0 127 -28 164 -68c41 -45 60 -108 60 -168zM413 722c0 -65 -51 -116 -115 -116s-116 51 -116 116c0 64 52 116 116 116s115 -52 115 -116zM377 722c0 44 -35 80 -79 80s-79 -36 -79 -80c0 -45 35 -80 79 -80s79 35 79 80z" />
    <glyph glyph-name="Asmallring.3" unicode="&#xe03f;" horiz-adv-x="544" 
d="M57 148c0 73 40 117 97 142c71 33 170 39 244 41v7c0 52 -9 88 -29 111c-25 30 -58 37 -92 37c-38 0 -69 -10 -93 -20c-31 -13 -49 -28 -65 -28c-21 0 -36 15 -36 35c0 21 19 34 43 46c46 22 99 33 154 33c60 0 113 -15 149 -59c27 -33 42 -82 42 -152v-313
c0 -20 -16 -36 -36 -36c-21 0 -37 16 -37 36v3c-50 -30 -92 -39 -154 -39c-94 0 -187 52 -187 156zM263 55c53 0 92 11 135 38v178c-60 -3 -139 -6 -196 -30c-41 -17 -70 -45 -70 -90c0 -68 67 -96 131 -96zM389 722c0 -65 -51 -116 -115 -116s-116 51 -116 116
c0 64 52 116 116 116s115 -52 115 -116zM353 722c0 44 -35 80 -79 80s-79 -36 -79 -80c0 -45 35 -80 79 -80s79 35 79 80z" />
    <glyph glyph-name="Asmallring.calt" unicode="&#xe040;" horiz-adv-x="511" 
d="M428 17l-47 115h-252l-46 -115c-6 -15 -18 -25 -36 -25c-21 0 -34 15 -34 34c0 4 2 13 4 17l191 472c8 19 20 37 48 37c29 0 42 -19 49 -37l189 -472c1 -3 4 -12 4 -17c0 -19 -14 -34 -34 -34c-17 0 -32 10 -36 25zM256 454l-108 -265h215zM370 722
c0 -65 -51 -116 -115 -116s-116 51 -116 116c0 64 52 116 116 116s115 -52 115 -116zM334 722c0 44 -35 80 -79 80s-79 -36 -79 -80c0 -45 35 -80 79 -80s79 35 79 80z" />
    <glyph glyph-name="Asmalltilde" unicode="&#xe041;" horiz-adv-x="591" 
d="M295 484c-47 0 -85 -19 -111 -50s-38 -74 -38 -121v-63h300v63c0 47 -13 90 -39 121c-26 32 -64 50 -112 50zM519 316v-289c0 -19 -17 -35 -37 -35s-36 16 -36 35v160h-300v-160c0 -19 -17 -35 -37 -35s-37 16 -37 35v289c0 60 19 123 60 168c37 40 90 68 163 68
c74 0 127 -28 164 -68c41 -45 60 -108 60 -168zM460 744c0 -15 -10 -31 -21 -42c-17 -18 -44 -28 -70 -28c-31 0 -57 13 -79 27c-21 13 -38 27 -62 27c-42 0 -44 -44 -72 -44c-15 0 -25 11 -25 26c0 16 11 31 22 42c17 18 43 29 70 29c32 0 59 -13 79 -26
c22 -14 39 -29 62 -29c41 0 45 45 72 45c15 0 24 -12 24 -27z" />
    <glyph glyph-name="Asmalltilde.2" unicode="&#xe042;" horiz-adv-x="591" 
d="M295 484c-47 0 -85 -19 -111 -50s-38 -74 -38 -121v-64h300v64c0 47 -13 90 -39 121c-26 32 -64 50 -112 50zM519 316v-289c0 -19 -17 -35 -37 -35s-36 16 -36 35v159h-300v-159c0 -19 -17 -35 -37 -35s-37 16 -37 35v289c0 60 19 123 60 168c37 40 90 68 163 68
c74 0 127 -28 164 -68c41 -45 60 -108 60 -168zM462 744c0 -15 -10 -31 -21 -42c-17 -18 -44 -28 -70 -28c-31 0 -57 13 -79 27c-21 13 -38 27 -62 27c-42 0 -44 -44 -72 -44c-15 0 -25 11 -25 26c0 16 11 31 22 42c17 18 43 29 70 29c32 0 59 -13 79 -26
c22 -14 39 -29 62 -29c41 0 45 45 72 45c15 0 24 -12 24 -27z" />
    <glyph glyph-name="Asmalltilde.3" unicode="&#xe043;" horiz-adv-x="544" 
d="M57 148c0 73 40 117 97 142c71 33 170 39 244 41v7c0 52 -9 88 -29 111c-25 30 -58 37 -92 37c-38 0 -69 -10 -93 -20c-31 -13 -49 -28 -65 -28c-21 0 -36 15 -36 35c0 21 19 34 43 46c46 22 99 33 154 33c60 0 113 -15 149 -59c27 -33 42 -82 42 -152v-313
c0 -20 -16 -36 -36 -36c-21 0 -37 16 -37 36v3c-50 -30 -92 -39 -154 -39c-94 0 -187 52 -187 156zM263 55c53 0 92 11 135 38v178c-60 -3 -139 -6 -196 -30c-41 -17 -70 -45 -70 -90c0 -68 67 -96 131 -96zM435 744c0 -15 -10 -31 -21 -42c-17 -18 -44 -28 -70 -28
c-31 0 -57 13 -79 27c-21 13 -38 27 -62 27c-42 0 -44 -44 -72 -44c-15 0 -25 11 -25 26c0 16 11 31 22 42c17 18 43 29 70 29c32 0 59 -13 79 -26c22 -14 39 -29 62 -29c41 0 45 45 72 45c15 0 24 -12 24 -27z" />
    <glyph glyph-name="Asmalltilde.calt" unicode="&#xe044;" horiz-adv-x="511" 
d="M428 17l-47 115h-252l-46 -115c-6 -15 -18 -25 -36 -25c-21 0 -34 15 -34 34c0 4 2 13 4 17l191 472c8 19 20 37 48 37c29 0 42 -19 49 -37l189 -472c1 -3 4 -12 4 -17c0 -19 -14 -34 -34 -34c-17 0 -32 10 -36 25zM256 454l-108 -265h215zM419 744
c0 -15 -10 -31 -21 -42c-17 -18 -44 -28 -70 -28c-31 0 -57 13 -79 27c-21 13 -38 27 -62 27c-42 0 -44 -44 -72 -44c-15 0 -25 11 -25 26c0 16 11 31 22 42c17 18 43 29 70 29c32 0 59 -13 79 -26c22 -14 39 -29 62 -29c41 0 45 45 72 45c15 0 24 -12 24 -27z" />
    <glyph glyph-name="Atilde" unicode="&#xc3;" horiz-adv-x="691" 
d="M345 616c-57 0 -105 -22 -138 -59c-36 -39 -54 -98 -54 -162v-87h385v87c0 64 -19 122 -55 162c-33 36 -80 59 -138 59zM618 397v-368c0 -21 -19 -39 -40 -39c-23 0 -40 18 -40 39v208h-385v-208c0 -21 -18 -39 -40 -39s-40 18 -40 39v368c0 79 26 160 84 219
c44 44 107 74 188 74c82 0 145 -29 189 -74c57 -59 84 -140 84 -219zM510 910c0 -15 -10 -31 -21 -42c-17 -18 -44 -28 -70 -28c-31 0 -57 13 -79 27c-21 13 -38 27 -62 27c-42 0 -44 -44 -72 -44c-15 0 -25 11 -25 26c0 16 11 31 22 42c17 18 43 29 70 29
c32 0 59 -13 79 -26c22 -14 39 -29 62 -29c41 0 45 45 72 45c15 0 24 -12 24 -27z" />
    <glyph glyph-name="Atilde.2" unicode="&#xe045;" horiz-adv-x="692" 
d="M345 616c-57 0 -106 -22 -139 -59c-36 -39 -53 -98 -53 -162v-83h385v83c0 64 -18 122 -54 162c-33 36 -81 59 -139 59zM618 397v-368c0 -21 -19 -39 -40 -39c-23 0 -40 18 -40 39v212h-385v-212c0 -21 -18 -39 -40 -39s-40 18 -40 39v368c0 79 26 160 84 219
c44 44 107 74 188 74c82 0 145 -29 189 -74c57 -59 84 -140 84 -219zM510 910c0 -15 -10 -31 -21 -42c-17 -18 -44 -28 -70 -28c-31 0 -57 13 -79 27c-21 13 -38 27 -62 27c-42 0 -44 -44 -72 -44c-15 0 -25 11 -25 26c0 16 11 31 22 42c17 18 43 29 70 29
c32 0 59 -13 79 -26c22 -14 39 -29 62 -29c41 0 45 45 72 45c15 0 24 -12 24 -27z" />
    <glyph glyph-name="Atilde.3" unicode="&#xe046;" horiz-adv-x="640" 
d="M84 597c0 21 21 39 53 53c55 26 117 40 191 40c75 0 142 -18 187 -72c33 -41 52 -101 52 -187v-402c0 -21 -17 -39 -40 -39s-40 18 -40 39v13c-61 -38 -115 -52 -200 -52c-109 0 -234 55 -234 189c0 80 39 132 102 167c83 44 207 58 332 66v14c0 70 -14 115 -39 145
c-31 37 -80 48 -126 48c-67 0 -108 -19 -141 -36c-23 -12 -40 -23 -60 -23c-21 0 -37 16 -37 37zM139 182c0 -93 89 -125 175 -125c64 0 118 13 173 50v241c-91 -6 -192 -13 -260 -44c-54 -24 -88 -62 -88 -122zM484 910c0 -15 -10 -31 -21 -42c-17 -18 -44 -28 -70 -28
c-31 0 -57 13 -79 27c-21 13 -38 27 -62 27c-42 0 -44 -44 -72 -44c-15 0 -25 11 -25 26c0 16 11 31 22 42c17 18 43 29 70 29c32 0 59 -13 79 -26c22 -14 39 -29 62 -29c41 0 45 45 72 45c15 0 24 -12 24 -27z" />
    <glyph glyph-name="Atilde.calt" unicode="&#xe047;" horiz-adv-x="617" 
d="M308 587l-141 -354h282zM529 19l-59 149h-323l-61 -149c-7 -18 -18 -29 -40 -29c-24 0 -38 17 -38 37c0 5 3 14 6 21l240 601c9 23 23 41 55 41c33 0 47 -18 56 -41l239 -601c3 -6 5 -16 5 -21c0 -23 -17 -37 -40 -37c-20 0 -33 10 -40 29zM472 910
c0 -15 -10 -31 -21 -42c-17 -18 -44 -28 -70 -28c-31 0 -57 13 -79 27c-21 13 -38 27 -62 27c-42 0 -44 -44 -72 -44c-15 0 -25 11 -25 26c0 16 11 31 22 42c17 18 43 29 70 29c32 0 59 -13 79 -26c22 -14 39 -29 62 -29c41 0 45 45 72 45c15 0 24 -12 24 -27z" />
    <glyph glyph-name="B" unicode="B" horiz-adv-x="633" 
d="M584 182c0 -127 -110 -182 -225 -182h-244c-23 0 -40 18 -40 39v603c0 21 17 39 40 39h206c105 0 207 -54 207 -173c0 -77 -36 -126 -89 -150v-2c96 -19 145 -85 145 -174zM448 499c0 79 -65 117 -139 117h-154v-237h167c66 0 126 32 126 120zM503 191
c0 67 -46 123 -145 123h-203v-248h188c85 0 159 31 160 125z" />
    <glyph glyph-name="B.2" unicode="&#xe048;" horiz-adv-x="671" 
d="M622 182c0 -127 -110 -182 -225 -182h-282c-23 0 -40 18 -40 39v603c0 21 17 39 40 39h244c105 0 207 -54 207 -173c0 -77 -36 -126 -89 -150v-2c96 -19 145 -85 145 -174zM486 499c0 79 -65 117 -139 117h-192v-237h205c66 0 126 32 126 120zM541 191
c0 67 -46 123 -145 123h-241v-248h226c85 0 159 31 160 125z" />
    <glyph glyph-name="Bsmall" unicode="&#xf762;" horiz-adv-x="540" 
d="M497 148c0 -108 -85 -148 -185 -148h-203c-20 0 -37 15 -37 35v473c0 20 13 36 35 36h174c93 0 172 -44 172 -141c0 -54 -26 -96 -66 -118c73 -16 110 -69 110 -137zM380 395c0 60 -50 87 -108 87h-126v-175h138c51 0 96 27 96 88zM423 155c0 49 -35 91 -110 91h-167
v-184h154c67 0 123 23 123 93z" />
    <glyph glyph-name="Bsmall.2" unicode="&#xe049;" horiz-adv-x="564" 
d="M521 148c0 -108 -85 -148 -185 -148h-227c-20 0 -37 15 -37 35v473c0 20 13 36 35 36h198c93 0 172 -44 172 -141c0 -54 -26 -96 -66 -118c73 -16 110 -69 110 -137zM404 395c0 60 -50 87 -108 87h-150v-175h162c51 0 96 27 96 88zM447 155c0 49 -35 91 -110 91h-191
v-184h178c67 0 123 23 123 93z" />
    <glyph glyph-name="C" unicode="C" horiz-adv-x="659" 
d="M618 607c0 -22 -16 -37 -37 -37c-16 0 -34 18 -74 32c-26 9 -59 16 -105 16c-148 0 -272 -125 -272 -277c0 -166 125 -279 272 -279c46 0 80 8 106 17c44 15 62 33 78 33c20 0 37 -16 37 -37c0 -23 -21 -37 -49 -50c-43 -20 -100 -35 -171 -35c-196 0 -356 138 -356 351
c0 192 164 349 356 349c71 0 125 -14 167 -33c29 -12 48 -28 48 -50z" />
    <glyph glyph-name="C.2" unicode="&#xe04a;" horiz-adv-x="701" 
d="M415 62c53 0 96 11 123 20c46 15 65 33 83 33c21 0 36 -15 36 -37c0 -24 -28 -41 -54 -52c-47 -20 -108 -36 -185 -36c-219 0 -371 135 -371 351c0 201 158 349 370 349c119 0 245 -43 245 -146c0 -62 -44 -96 -91 -96c-27 0 -47 12 -47 34c0 16 11 26 25 28
c21 3 33 13 33 33c0 41 -64 77 -164 77c-168 0 -288 -120 -288 -279c0 -170 120 -279 285 -279z" />
    <glyph glyph-name="Cacute" unicode="&#x106;" horiz-adv-x="659" 
d="M618 607c0 -22 -16 -37 -37 -37c-16 0 -34 18 -74 32c-26 9 -59 16 -105 16c-148 0 -272 -125 -272 -277c0 -166 125 -279 272 -279c46 0 80 8 106 17c44 15 62 33 78 33c20 0 37 -16 37 -37c0 -23 -21 -37 -49 -50c-43 -20 -100 -35 -171 -35c-196 0 -356 138 -356 351
c0 192 164 349 356 349c71 0 125 -14 167 -33c29 -12 48 -28 48 -50zM315 794c0 6 2 12 6 19l76 138c6 12 15 21 28 21c17 0 30 -13 30 -28c0 -7 -2 -12 -8 -22l-81 -134c-7 -11 -15 -18 -26 -18c-13 0 -25 10 -25 24z" />
    <glyph glyph-name="Cacute.2" unicode="&#xe04b;" horiz-adv-x="701" 
d="M415 62c53 0 96 11 123 20c46 15 65 33 83 33c21 0 36 -15 36 -37c0 -24 -28 -41 -54 -52c-47 -20 -108 -36 -185 -36c-219 0 -371 135 -371 351c0 201 158 349 370 349c119 0 245 -43 245 -146c0 -62 -44 -96 -91 -96c-27 0 -47 12 -47 34c0 16 11 26 25 28
c21 3 33 13 33 33c0 41 -64 77 -164 77c-168 0 -288 -120 -288 -279c0 -170 120 -279 285 -279zM336 794c0 6 2 12 6 19l76 138c6 12 15 21 28 21c17 0 30 -13 30 -28c0 -7 -2 -12 -8 -22l-81 -134c-7 -11 -15 -18 -26 -18c-13 0 -25 10 -25 24z" />
    <glyph glyph-name="Ccaron" unicode="&#x10c;" horiz-adv-x="659" 
d="M618 607c0 -22 -16 -37 -37 -37c-16 0 -34 18 -74 32c-26 9 -59 16 -105 16c-148 0 -272 -125 -272 -277c0 -166 125 -279 272 -279c46 0 80 8 106 17c44 15 62 33 78 33c20 0 37 -16 37 -37c0 -23 -21 -37 -49 -50c-43 -20 -100 -35 -171 -35c-196 0 -356 138 -356 351
c0 192 164 349 356 349c71 0 125 -14 167 -33c29 -12 48 -28 48 -50zM230 944c0 16 12 27 27 27c8 0 17 -5 22 -11l110 -114l111 114c5 6 13 11 22 11c14 0 27 -11 27 -27c0 -9 -6 -16 -13 -23l-123 -127c-6 -6 -13 -11 -24 -11c-10 0 -17 5 -23 11l-124 127
c-7 7 -12 15 -12 23z" />
    <glyph glyph-name="Ccaron.2" unicode="&#xe04c;" horiz-adv-x="701" 
d="M415 62c53 0 96 11 123 20c46 15 65 33 83 33c21 0 36 -15 36 -37c0 -24 -28 -41 -54 -52c-47 -20 -108 -36 -185 -36c-219 0 -371 135 -371 351c0 201 158 349 370 349c119 0 245 -43 245 -146c0 -62 -44 -96 -91 -96c-27 0 -47 12 -47 34c0 16 11 26 25 28
c21 3 33 13 33 33c0 41 -64 77 -164 77c-168 0 -288 -120 -288 -279c0 -170 120 -279 285 -279zM245 944c0 16 12 27 27 27c8 0 17 -5 22 -11l110 -114l111 114c5 6 13 11 22 11c14 0 27 -11 27 -27c0 -9 -6 -16 -13 -23l-123 -127c-6 -6 -13 -11 -24 -11
c-10 0 -17 5 -23 11l-124 127c-7 7 -12 15 -12 23z" />
    <glyph glyph-name="Ccedilla" unicode="&#xc7;" horiz-adv-x="659" 
d="M508 -110c0 -66 -67 -88 -125 -88c-12 0 -26 1 -36 4c-12 4 -17 10 -17 20c0 11 10 20 20 20s19 -3 37 -3c33 0 71 12 71 48c0 30 -30 42 -62 42c-13 0 -23 8 -21 24l3 34c-185 11 -331 146 -331 350c0 192 164 349 356 349c71 0 125 -14 167 -33c29 -12 48 -28 48 -50
s-16 -37 -37 -37c-16 0 -34 18 -74 32c-26 9 -59 16 -105 16c-148 0 -272 -125 -272 -277c0 -166 125 -279 272 -279c46 0 80 8 106 17c44 15 62 33 78 33c20 0 37 -16 37 -37c0 -23 -21 -37 -49 -50c-40 -19 -92 -33 -156 -35l1 -25c51 -4 89 -31 89 -75z" />
    <glyph glyph-name="Ccedilla.2" unicode="&#xe04d;" horiz-adv-x="701" 
d="M523 -110c0 -66 -67 -88 -125 -88c-12 0 -26 1 -36 4c-12 4 -17 10 -17 20c0 11 10 20 20 20s19 -3 37 -3c33 0 71 12 71 48c0 30 -30 42 -62 42c-13 0 -23 8 -21 24l3 34c-206 10 -346 142 -346 350c0 201 158 349 370 349c119 0 245 -43 245 -146
c0 -62 -44 -96 -91 -96c-27 0 -47 12 -47 34c0 16 11 26 25 28c21 3 33 13 33 33c0 41 -64 77 -164 77c-168 0 -288 -120 -288 -279c0 -170 120 -279 285 -279c53 0 96 11 123 20c46 15 65 33 83 33c21 0 36 -15 36 -37c0 -24 -28 -41 -54 -52c-44 -19 -100 -34 -170 -36
l1 -25c51 -4 89 -31 89 -75z" />
    <glyph glyph-name="Csmall" unicode="&#xf763;" horiz-adv-x="531" 
d="M330 552c50 0 98 -9 132 -25c26 -13 44 -27 44 -46s-15 -34 -34 -34c-15 0 -29 12 -56 22c-21 9 -49 16 -87 16c-64 0 -122 -31 -161 -79c-29 -37 -47 -83 -47 -133c0 -62 23 -114 60 -152c38 -38 92 -61 149 -61c40 0 71 8 92 17c29 12 41 23 57 23c18 0 32 -15 32 -35
s-20 -35 -48 -47c-36 -17 -86 -26 -133 -26c-79 0 -151 28 -203 78c-51 49 -82 119 -82 203c0 69 26 131 68 179c53 61 131 100 217 100z" />
    <glyph glyph-name="Csmall.2" unicode="&#xe04e;" horiz-adv-x="549" 
d="M338 485c-67 0 -129 -30 -169 -78c-31 -37 -48 -84 -48 -134c0 -62 23 -115 61 -152c40 -39 96 -61 156 -61c42 0 74 8 96 17c31 12 42 23 59 23c19 0 33 -15 33 -35s-20 -34 -49 -47c-37 -16 -88 -26 -138 -26c-81 0 -157 27 -210 78c-53 49 -84 119 -84 203
c0 68 25 131 67 179c54 61 135 100 224 100c98 0 190 -40 190 -127c0 -53 -39 -85 -80 -85c-24 0 -38 9 -38 26c0 11 8 20 20 22c18 3 31 13 31 32c0 34 -41 65 -121 65z" />
    <glyph glyph-name="Csmallacute" unicode="&#xe04f;" horiz-adv-x="535" 
d="M334 552c50 0 97 -9 132 -25c26 -13 43 -27 43 -46s-15 -34 -34 -34c-14 0 -29 12 -55 22c-21 9 -49 16 -87 16c-64 0 -123 -31 -161 -79c-30 -37 -48 -83 -48 -133c0 -62 23 -114 61 -152s91 -61 149 -61c39 0 70 8 92 17c29 12 41 23 56 23c19 0 32 -15 32 -35
s-19 -34 -48 -47c-35 -16 -85 -26 -133 -26c-79 0 -150 28 -202 78c-51 49 -83 119 -83 203c0 69 26 131 69 179c52 61 131 100 217 100zM236 652c0 6 2 12 6 19l76 138c6 12 15 21 29 21c16 0 30 -13 30 -28c0 -7 -3 -12 -9 -22l-81 -134c-7 -11 -14 -18 -25 -18
c-14 0 -26 10 -26 24z" />
    <glyph glyph-name="Csmallacute.2" unicode="&#xe050;" horiz-adv-x="549" 
d="M338 485c-67 0 -129 -30 -169 -78c-31 -37 -48 -84 -48 -134c0 -62 23 -115 61 -152c40 -39 96 -61 156 -61c42 0 74 8 96 17c31 12 42 23 59 23c19 0 33 -15 33 -35s-20 -34 -49 -47c-37 -16 -88 -26 -138 -26c-81 0 -157 27 -210 78c-53 49 -84 119 -84 203
c0 68 25 131 67 179c54 61 135 100 224 100c98 0 190 -40 190 -127c0 -53 -39 -85 -80 -85c-24 0 -38 9 -38 26c0 11 8 20 20 22c18 3 31 13 31 32c0 34 -41 65 -121 65zM255 652c0 6 2 12 6 19l76 138c6 12 15 21 28 21c17 0 30 -13 30 -28c0 -7 -2 -12 -8 -22l-81 -134
c-7 -11 -15 -18 -26 -18c-13 0 -25 10 -25 24z" />
    <glyph glyph-name="Csmallcaron" unicode="&#xe051;" horiz-adv-x="535" 
d="M334 552c50 0 97 -9 132 -25c26 -13 43 -27 43 -46s-15 -34 -34 -34c-14 0 -29 12 -55 22c-21 9 -49 16 -87 16c-64 0 -123 -31 -161 -79c-30 -37 -48 -83 -48 -133c0 -62 23 -114 61 -152s91 -61 149 -61c39 0 70 8 92 17c29 12 41 23 56 23c19 0 32 -15 32 -35
s-19 -34 -48 -47c-35 -16 -85 -26 -133 -26c-79 0 -150 28 -202 78c-51 49 -83 119 -83 203c0 69 26 131 69 179c52 61 131 100 217 100zM163 802c0 16 12 27 27 27c7 0 14 -2 19 -8l113 -117l114 117c5 6 11 8 19 8c14 0 26 -11 26 -27c0 -8 -5 -15 -12 -23l-123 -127
c-7 -6 -14 -11 -24 -11s-17 5 -24 11l-123 127c-7 7 -12 15 -12 23z" />
    <glyph glyph-name="Csmallcaron.2" unicode="&#xe052;" horiz-adv-x="549" 
d="M338 485c-67 0 -129 -30 -169 -78c-31 -37 -48 -84 -48 -134c0 -62 23 -115 61 -152c40 -39 96 -61 156 -61c42 0 74 8 96 17c31 12 42 23 59 23c19 0 33 -15 33 -35s-20 -34 -49 -47c-37 -16 -88 -26 -138 -26c-81 0 -157 27 -210 78c-53 49 -84 119 -84 203
c0 68 25 131 67 179c54 61 135 100 224 100c98 0 190 -40 190 -127c0 -53 -39 -85 -80 -85c-24 0 -38 9 -38 26c0 11 8 20 20 22c18 3 31 13 31 32c0 34 -41 65 -121 65zM166 802c0 16 12 27 27 27c8 0 17 -5 22 -11l110 -114l111 114c5 6 13 11 22 11c14 0 27 -11 27 -27
c0 -9 -6 -16 -13 -23l-123 -127c-6 -6 -13 -11 -24 -11c-10 0 -17 5 -23 11l-124 127c-7 7 -12 15 -12 23z" />
    <glyph glyph-name="Csmallcedilla" unicode="&#xe053;" horiz-adv-x="535" 
d="M431 -110c0 -66 -67 -88 -125 -88c-12 0 -26 1 -36 4c-12 4 -17 10 -17 20c0 11 10 20 20 20s19 -3 37 -3c33 0 71 12 71 48c0 30 -30 42 -62 42c-13 0 -23 8 -21 24l3 37c-66 6 -126 32 -171 76c-51 49 -82 119 -82 203c0 69 26 131 68 179c53 61 131 100 217 100
c50 0 98 -9 132 -25c26 -13 44 -27 44 -46s-15 -34 -34 -34c-15 0 -29 12 -56 22c-21 9 -49 16 -87 16c-64 0 -122 -31 -161 -79c-29 -37 -47 -83 -47 -133c0 -62 23 -114 60 -152c38 -38 92 -61 149 -61c40 0 71 8 92 17c29 12 41 23 57 23c18 0 32 -15 32 -35
s-20 -35 -48 -47c-34 -16 -80 -25 -125 -26l1 -27c51 -4 89 -31 89 -75z" />
    <glyph glyph-name="Csmallcedilla.2" unicode="&#xe054;" horiz-adv-x="549" 
d="M442 -110c0 -66 -67 -88 -125 -88c-12 0 -26 1 -36 4c-12 4 -17 10 -17 20c0 11 10 20 20 20s19 -3 37 -3c33 0 71 12 71 48c0 30 -30 42 -62 42c-13 0 -23 8 -21 24l3 36c-71 6 -136 31 -183 77c-53 49 -84 119 -84 203c0 68 25 131 67 179c54 61 135 100 224 100
c98 0 190 -40 190 -127c0 -53 -39 -85 -80 -85c-24 0 -38 9 -38 26c0 11 8 20 20 22c18 3 31 13 31 32c0 34 -41 65 -121 65c-67 0 -129 -30 -169 -78c-31 -37 -48 -84 -48 -134c0 -62 23 -115 61 -152c40 -39 96 -61 156 -61c42 0 74 8 96 17c31 12 42 23 59 23
c19 0 33 -15 33 -35s-20 -34 -49 -47c-34 -15 -79 -24 -125 -26l1 -27c51 -4 89 -31 89 -75z" />
    <glyph glyph-name="D" unicode="D" horiz-adv-x="738" 
d="M691 340c0 -128 -51 -216 -127 -271c-73 -53 -162 -69 -251 -69h-198c-23 0 -40 18 -40 39v603c0 21 17 39 40 39h213c114 0 213 -28 284 -107c49 -54 79 -131 79 -234zM155 613v-545h150c78 0 145 16 199 54c63 45 105 116 105 218c0 82 -24 143 -64 188
c-52 57 -132 85 -230 85h-160z" />
    <glyph glyph-name="Dcaron" unicode="&#x10e;" horiz-adv-x="738" 
d="M691 340c0 -128 -51 -216 -127 -271c-73 -53 -162 -69 -251 -69h-198c-23 0 -40 18 -40 39v603c0 21 17 39 40 39h213c114 0 213 -28 284 -107c49 -54 79 -131 79 -234zM155 613v-545h150c78 0 145 16 199 54c63 45 105 116 105 218c0 82 -24 143 -64 188
c-52 57 -132 85 -230 85h-160zM205 944c0 16 12 27 27 27c8 0 17 -5 22 -11l110 -114l111 114c5 6 13 11 22 11c14 0 27 -11 27 -27c0 -9 -6 -16 -13 -23l-123 -127c-6 -6 -13 -11 -24 -11c-10 0 -17 5 -23 11l-124 127c-7 7 -12 15 -12 23z" />
    <glyph glyph-name="Dcroat" unicode="&#x110;" horiz-adv-x="743" 
d="M303 306h-143v-238h150c70 0 133 11 186 42c73 41 118 118 118 230c0 82 -23 143 -63 188c-51 58 -133 85 -231 85h-160v-239h143c18 0 33 -16 33 -34c0 -19 -15 -34 -33 -34zM80 39v267h-69c-18 0 -33 15 -33 34c0 18 15 34 33 34h69v268c0 21 17 39 40 39h213
c114 0 213 -28 284 -107c49 -55 79 -131 79 -234c0 -128 -51 -215 -127 -270c-73 -53 -162 -70 -251 -70h-198c-23 0 -40 18 -40 39z" />
    <glyph glyph-name="Delta" unicode="&#x394;" horiz-adv-x="614" 
d="M533 0h-452c-29 0 -45 19 -45 40c0 7 2 14 5 22l215 587c11 31 28 40 51 40s40 -9 51 -40l215 -587c3 -8 5 -15 5 -22c0 -21 -16 -40 -45 -40zM307 568l-179 -498h358z" />
    <glyph glyph-name="Delta" unicode="&#x2206;" horiz-adv-x="614" 
d="M533 0h-452c-29 0 -45 19 -45 40c0 7 2 14 5 22l215 587c11 31 28 40 51 40s40 -9 51 -40l215 -587c3 -8 5 -15 5 -22c0 -21 -16 -40 -45 -40zM307 568l-179 -498h358z" />
    <glyph glyph-name="Dsmall" unicode="&#xf764;" horiz-adv-x="612" 
d="M568 272c0 -197 -140 -272 -303 -272h-156c-20 0 -37 15 -37 35v473c0 20 17 36 37 36h168c165 0 291 -88 291 -272zM146 480v-417h115c145 0 232 71 232 209c0 130 -77 208 -223 208h-124z" />
    <glyph glyph-name="Dsmallcaron" unicode="&#xe055;" horiz-adv-x="618" 
d="M570 272c0 -197 -139 -272 -303 -272h-156c-20 0 -36 15 -36 35v473c0 20 16 36 36 36h169c165 0 290 -88 290 -272zM148 480v-417h116c145 0 231 71 231 209c0 130 -76 208 -223 208h-124zM133 802c0 16 12 27 26 27c8 0 14 -2 19 -8l114 -117l113 117c5 6 12 8 19 8
c15 0 27 -11 27 -27c0 -8 -5 -16 -12 -23l-123 -127c-6 -7 -14 -11 -24 -11s-18 4 -24 11l-123 127c-7 8 -12 15 -12 23z" />
    <glyph glyph-name="E" unicode="E" horiz-adv-x="602" 
d="M155 306v-235h381c19 0 34 -16 34 -36c0 -19 -15 -35 -34 -35h-421c-23 0 -40 18 -40 39v603c0 21 17 39 40 39h421c19 0 34 -16 34 -35c0 -20 -15 -36 -34 -36h-381v-233h329c20 0 35 -17 35 -36s-15 -35 -35 -35h-329z" />
    <glyph glyph-name="E.1" unicode="&#xe056;" horiz-adv-x="568" 
d="M537 646c0 -20 -15 -36 -34 -36h-156c-82 0 -137 -22 -169 -68c-22 -32 -34 -75 -34 -128v-36h307c20 0 35 -16 35 -35c0 -20 -15 -35 -35 -35h-307v-39c0 -62 14 -111 46 -145c33 -35 84 -53 156 -53h157c19 0 34 -16 34 -36c0 -19 -15 -35 -34 -35h-158
c-98 0 -172 26 -220 82c-40 47 -61 115 -61 206v105c0 85 19 150 54 197c47 62 124 91 227 91h158c19 0 34 -16 34 -35z" />
    <glyph glyph-name="E.2" unicode="&#xe057;" horiz-adv-x="638" 
d="M155 256v-185h417c19 0 34 -16 34 -36c0 -19 -15 -35 -34 -35h-457c-23 0 -40 18 -40 39v603c0 21 17 39 40 39h457c19 0 34 -16 34 -35c0 -20 -15 -36 -34 -36h-417v-283h359c19 0 34 -17 34 -36s-15 -35 -34 -35h-359z" />
    <glyph glyph-name="E.3" unicode="&#xe058;" horiz-adv-x="722" 
d="M628 320h-492c4 -71 27 -130 64 -173c47 -54 115 -85 195 -85c59 0 102 11 134 24c47 19 69 43 87 43c21 0 35 -15 35 -37c0 -24 -31 -49 -78 -68c-52 -21 -118 -34 -178 -34c-117 0 -203 40 -263 109c-54 61 -85 147 -85 250c0 96 30 179 87 241c54 60 133 100 239 100
c101 0 177 -39 226 -93c57 -61 81 -138 81 -219c0 -40 -21 -58 -52 -58zM136 389h460c-2 68 -24 120 -58 158c-37 41 -94 69 -164 69c-79 0 -139 -30 -181 -79c-31 -37 -52 -91 -57 -148z" />
    <glyph glyph-name="Eacute" unicode="&#xc9;" horiz-adv-x="602" 
d="M155 306v-235h381c19 0 34 -16 34 -36c0 -19 -15 -35 -34 -35h-421c-23 0 -40 18 -40 39v603c0 21 17 39 40 39h421c19 0 34 -16 34 -35c0 -20 -15 -36 -34 -36h-381v-233h329c20 0 35 -17 35 -36s-15 -35 -35 -35h-329zM244 794c0 6 2 12 6 19l76 138c6 12 15 21 28 21
c17 0 30 -13 30 -28c0 -7 -2 -12 -8 -22l-81 -134c-7 -11 -15 -18 -26 -18c-13 0 -25 10 -25 24z" />
    <glyph glyph-name="Eacute.1" unicode="&#xe059;" horiz-adv-x="568" 
d="M537 646c0 -20 -15 -36 -34 -36h-156c-82 0 -137 -22 -169 -68c-22 -32 -34 -75 -34 -128v-36h307c20 0 35 -16 35 -35c0 -20 -15 -35 -35 -35h-307v-39c0 -62 14 -111 46 -145c33 -35 84 -53 156 -53h157c19 0 34 -16 34 -36c0 -19 -15 -35 -34 -35h-158
c-98 0 -172 26 -220 82c-40 47 -61 115 -61 206v105c0 85 19 150 54 197c47 62 124 91 227 91h158c19 0 34 -16 34 -35zM253 794c0 6 2 12 6 19l76 138c6 12 15 21 28 21c17 0 30 -13 30 -28c0 -7 -2 -12 -8 -22l-81 -134c-7 -11 -15 -18 -26 -18c-13 0 -25 10 -25 24z" />
    <glyph glyph-name="Eacute.2" unicode="&#xe05a;" horiz-adv-x="638" 
d="M155 256v-185h417c19 0 34 -16 34 -36c0 -19 -15 -35 -34 -35h-457c-23 0 -40 18 -40 39v603c0 21 17 39 40 39h457c19 0 34 -16 34 -35c0 -20 -15 -36 -34 -36h-417v-283h359c19 0 34 -17 34 -36s-15 -35 -34 -35h-359zM274 794c0 6 2 12 6 19l76 138c6 12 15 21 28 21
c17 0 30 -13 30 -28c0 -7 -2 -12 -8 -22l-81 -134c-7 -11 -15 -18 -26 -18c-13 0 -25 10 -25 24z" />
    <glyph glyph-name="Eacute.3" unicode="&#xe05b;" horiz-adv-x="722" 
d="M628 320h-492c4 -71 27 -130 64 -173c47 -54 115 -85 195 -85c59 0 102 11 134 24c47 19 69 43 87 43c21 0 35 -15 35 -37c0 -24 -31 -49 -78 -68c-52 -21 -118 -34 -178 -34c-117 0 -203 40 -263 109c-54 61 -85 147 -85 250c0 96 30 179 87 241c54 60 133 100 239 100
c101 0 177 -39 226 -93c57 -61 81 -138 81 -219c0 -40 -21 -58 -52 -58zM136 389h460c-2 68 -24 120 -58 158c-37 41 -94 69 -164 69c-79 0 -139 -30 -181 -79c-31 -37 -52 -91 -57 -148zM306 794c0 6 2 12 6 19l76 138c6 12 15 21 28 21c17 0 30 -13 30 -28
c0 -7 -2 -12 -8 -22l-81 -134c-7 -11 -15 -18 -26 -18c-13 0 -25 10 -25 24z" />
    <glyph glyph-name="Ecaron" unicode="&#x11a;" horiz-adv-x="602" 
d="M155 306v-235h381c19 0 34 -16 34 -36c0 -19 -15 -35 -34 -35h-421c-23 0 -40 18 -40 39v603c0 21 17 39 40 39h421c19 0 34 -16 34 -35c0 -20 -15 -36 -34 -36h-381v-233h329c20 0 35 -17 35 -36s-15 -35 -35 -35h-329zM165 944c0 16 12 27 27 27c8 0 17 -5 22 -11
l110 -114l111 114c5 6 13 11 22 11c14 0 27 -11 27 -27c0 -9 -6 -16 -13 -23l-123 -127c-6 -6 -13 -11 -24 -11c-10 0 -17 5 -23 11l-124 127c-7 7 -12 15 -12 23z" />
    <glyph glyph-name="Ecaron.1" unicode="&#xe05c;" horiz-adv-x="568" 
d="M537 646c0 -20 -15 -36 -34 -36h-156c-82 0 -137 -22 -169 -68c-22 -32 -34 -75 -34 -128v-36h307c20 0 35 -16 35 -35c0 -20 -15 -35 -35 -35h-307v-39c0 -62 14 -111 46 -145c33 -35 84 -53 156 -53h157c19 0 34 -16 34 -36c0 -19 -15 -35 -34 -35h-158
c-98 0 -172 26 -220 82c-40 47 -61 115 -61 206v105c0 85 19 150 54 197c47 62 124 91 227 91h158c19 0 34 -16 34 -35zM182 944c0 16 12 27 27 27c8 0 17 -5 22 -11l110 -114l111 114c5 6 13 11 22 11c14 0 27 -11 27 -27c0 -9 -6 -16 -13 -23l-123 -127
c-6 -6 -13 -11 -24 -11c-10 0 -17 5 -23 11l-124 127c-7 7 -12 15 -12 23z" />
    <glyph glyph-name="Ecaron.2" unicode="&#xe05d;" horiz-adv-x="638" 
d="M155 256v-185h417c19 0 34 -16 34 -36c0 -19 -15 -35 -34 -35h-457c-23 0 -40 18 -40 39v603c0 21 17 39 40 39h457c19 0 34 -16 34 -35c0 -20 -15 -36 -34 -36h-417v-283h359c19 0 34 -17 34 -36s-15 -35 -34 -35h-359zM189 944c0 16 12 27 27 27c8 0 17 -5 22 -11
l110 -114l111 114c5 6 13 11 22 11c14 0 27 -11 27 -27c0 -9 -6 -16 -13 -23l-123 -127c-6 -6 -13 -11 -24 -11c-10 0 -17 5 -23 11l-124 127c-7 7 -12 15 -12 23z" />
    <glyph glyph-name="Ecaron.3" unicode="&#xe05e;" horiz-adv-x="722" 
d="M628 320h-492c4 -71 27 -130 64 -173c47 -54 115 -85 195 -85c59 0 102 11 134 24c47 19 69 43 87 43c21 0 35 -15 35 -37c0 -24 -31 -49 -78 -68c-52 -21 -118 -34 -178 -34c-117 0 -203 40 -263 109c-54 61 -85 147 -85 250c0 96 30 179 87 241c54 60 133 100 239 100
c101 0 177 -39 226 -93c57 -61 81 -138 81 -219c0 -40 -21 -58 -52 -58zM136 389h460c-2 68 -24 120 -58 158c-37 41 -94 69 -164 69c-79 0 -139 -30 -181 -79c-31 -37 -52 -91 -57 -148zM217 944c0 16 12 27 27 27c8 0 17 -5 22 -11l110 -114l111 114c5 6 13 11 22 11
c14 0 27 -11 27 -27c0 -9 -6 -16 -13 -23l-123 -127c-6 -6 -13 -11 -24 -11c-10 0 -17 5 -23 11l-124 127c-7 7 -12 15 -12 23z" />
    <glyph glyph-name="Ecircumflex" unicode="&#xca;" horiz-adv-x="602" 
d="M155 306v-235h381c19 0 34 -16 34 -36c0 -19 -15 -35 -34 -35h-421c-23 0 -40 18 -40 39v603c0 21 17 39 40 39h421c19 0 34 -16 34 -35c0 -20 -15 -36 -34 -36h-381v-233h329c20 0 35 -17 35 -36s-15 -35 -35 -35h-329zM307 971c11 0 18 -6 24 -12l123 -127
c7 -8 13 -14 13 -22c0 -17 -13 -27 -27 -27c-8 0 -13 2 -19 8l-114 117l-113 -117c-6 -6 -12 -8 -19 -8c-15 0 -27 10 -27 27c0 8 5 15 12 22l124 127c6 6 13 12 23 12z" />
    <glyph glyph-name="Ecircumflex.1" unicode="&#xe05f;" horiz-adv-x="568" 
d="M537 646c0 -20 -15 -36 -34 -36h-156c-82 0 -137 -22 -169 -68c-22 -32 -34 -75 -34 -128v-36h307c20 0 35 -16 35 -35c0 -20 -15 -35 -35 -35h-307v-39c0 -62 14 -111 46 -145c33 -35 84 -53 156 -53h157c19 0 34 -16 34 -36c0 -19 -15 -35 -34 -35h-158
c-98 0 -172 26 -220 82c-40 47 -61 115 -61 206v105c0 85 19 150 54 197c47 62 124 91 227 91h158c19 0 34 -16 34 -35zM322 971c11 0 18 -6 24 -12l123 -127c7 -8 13 -14 13 -22c0 -17 -13 -27 -27 -27c-8 0 -13 2 -19 8l-114 117l-113 -117c-6 -6 -12 -8 -19 -8
c-15 0 -27 10 -27 27c0 8 5 15 12 22l124 127c6 6 13 12 23 12z" />
    <glyph glyph-name="Ecircumflex.2" unicode="&#xe060;" horiz-adv-x="638" 
d="M155 256v-185h417c19 0 34 -16 34 -36c0 -19 -15 -35 -34 -35h-457c-23 0 -40 18 -40 39v603c0 21 17 39 40 39h457c19 0 34 -16 34 -35c0 -20 -15 -36 -34 -36h-417v-283h359c19 0 34 -17 34 -36s-15 -35 -34 -35h-359zM340 971c11 0 18 -6 24 -12l123 -127
c7 -8 13 -14 13 -22c0 -17 -13 -27 -27 -27c-8 0 -13 2 -19 8l-114 117l-113 -117c-6 -6 -12 -8 -19 -8c-15 0 -27 10 -27 27c0 8 5 15 12 22l124 127c6 6 13 12 23 12z" />
    <glyph glyph-name="Ecircumflex.3" unicode="&#xe061;" horiz-adv-x="722" 
d="M628 320h-492c4 -71 27 -130 64 -173c47 -54 115 -85 195 -85c59 0 102 11 134 24c47 19 69 43 87 43c21 0 35 -15 35 -37c0 -24 -31 -49 -78 -68c-52 -21 -118 -34 -178 -34c-117 0 -203 40 -263 109c-54 61 -85 147 -85 250c0 96 30 179 87 241c54 60 133 100 239 100
c101 0 177 -39 226 -93c57 -61 81 -138 81 -219c0 -40 -21 -58 -52 -58zM136 389h460c-2 68 -24 120 -58 158c-37 41 -94 69 -164 69c-79 0 -139 -30 -181 -79c-31 -37 -52 -91 -57 -148zM376 971c11 0 18 -6 24 -12l123 -127c7 -8 13 -14 13 -22c0 -17 -13 -27 -27 -27
c-8 0 -13 2 -19 8l-114 117l-113 -117c-6 -6 -12 -8 -19 -8c-15 0 -27 10 -27 27c0 8 5 15 12 22l124 127c6 6 13 12 23 12z" />
    <glyph glyph-name="Edieresis" unicode="&#xcb;" horiz-adv-x="602" 
d="M155 306v-235h381c19 0 34 -16 34 -36c0 -19 -15 -35 -34 -35h-421c-23 0 -40 18 -40 39v603c0 21 17 39 40 39h421c19 0 34 -16 34 -35c0 -20 -15 -36 -34 -36h-381v-233h329c20 0 35 -17 35 -36s-15 -35 -35 -35h-329zM216 825c-24 0 -44 20 -44 45c0 24 20 43 44 43
c25 0 44 -19 44 -43c0 -25 -19 -45 -44 -45zM404 825c-24 0 -44 20 -44 45c0 24 20 43 44 43s44 -19 44 -43c0 -25 -20 -45 -44 -45z" />
    <glyph glyph-name="Edieresis.1" unicode="&#xe062;" horiz-adv-x="568" 
d="M537 646c0 -20 -15 -36 -34 -36h-156c-82 0 -137 -22 -169 -68c-22 -32 -34 -75 -34 -128v-36h307c20 0 35 -16 35 -35c0 -20 -15 -35 -35 -35h-307v-39c0 -62 14 -111 46 -145c33 -35 84 -53 156 -53h157c19 0 34 -16 34 -36c0 -19 -15 -35 -34 -35h-158
c-98 0 -172 26 -220 82c-40 47 -61 115 -61 206v105c0 85 19 150 54 197c47 62 124 91 227 91h158c19 0 34 -16 34 -35zM225 825c-24 0 -44 20 -44 45c0 24 20 43 44 43c25 0 44 -19 44 -43c0 -25 -19 -45 -44 -45zM413 825c-24 0 -44 20 -44 45c0 24 20 43 44 43
s44 -19 44 -43c0 -25 -20 -45 -44 -45z" />
    <glyph glyph-name="Edieresis.2" unicode="&#xe063;" horiz-adv-x="638" 
d="M155 256v-185h417c19 0 34 -16 34 -36c0 -19 -15 -35 -34 -35h-457c-23 0 -40 18 -40 39v603c0 21 17 39 40 39h457c19 0 34 -16 34 -35c0 -20 -15 -36 -34 -36h-417v-283h359c19 0 34 -17 34 -36s-15 -35 -34 -35h-359zM248 825c-24 0 -44 20 -44 45c0 24 20 43 44 43
c25 0 44 -19 44 -43c0 -25 -19 -45 -44 -45zM436 825c-24 0 -44 20 -44 45c0 24 20 43 44 43s44 -19 44 -43c0 -25 -20 -45 -44 -45z" />
    <glyph glyph-name="Edieresis.3" unicode="&#xe064;" horiz-adv-x="722" 
d="M628 320h-492c4 -71 27 -130 64 -173c47 -54 115 -85 195 -85c59 0 102 11 134 24c47 19 69 43 87 43c21 0 35 -15 35 -37c0 -24 -31 -49 -78 -68c-52 -21 -118 -34 -178 -34c-117 0 -203 40 -263 109c-54 61 -85 147 -85 250c0 96 30 179 87 241c54 60 133 100 239 100
c101 0 177 -39 226 -93c57 -61 81 -138 81 -219c0 -40 -21 -58 -52 -58zM136 389h460c-2 68 -24 120 -58 158c-37 41 -94 69 -164 69c-79 0 -139 -30 -181 -79c-31 -37 -52 -91 -57 -148zM281 825c-24 0 -44 20 -44 45c0 24 20 43 44 43c25 0 44 -19 44 -43
c0 -25 -19 -45 -44 -45zM469 825c-24 0 -44 20 -44 45c0 24 20 43 44 43s44 -19 44 -43c0 -25 -20 -45 -44 -45z" />
    <glyph glyph-name="Edotaccent" unicode="&#x116;" horiz-adv-x="602" 
d="M155 306v-235h381c19 0 34 -16 34 -36c0 -19 -15 -35 -34 -35h-421c-23 0 -40 18 -40 39v603c0 21 17 39 40 39h421c19 0 34 -16 34 -35c0 -20 -15 -36 -34 -36h-381v-233h329c20 0 35 -17 35 -36s-15 -35 -35 -35h-329zM319 831c-24 0 -44 19 -44 44c0 24 20 43 44 43
s44 -19 44 -43c0 -25 -20 -44 -44 -44z" />
    <glyph glyph-name="Edotaccent.1" unicode="&#xe065;" horiz-adv-x="568" 
d="M537 646c0 -20 -15 -36 -34 -36h-156c-82 0 -137 -22 -169 -68c-22 -32 -34 -75 -34 -128v-36h307c20 0 35 -16 35 -35c0 -20 -15 -35 -35 -35h-307v-39c0 -62 14 -111 46 -145c33 -35 84 -53 156 -53h157c19 0 34 -16 34 -36c0 -19 -15 -35 -34 -35h-158
c-98 0 -172 26 -220 82c-40 47 -61 115 -61 206v105c0 85 19 150 54 197c47 62 124 91 227 91h158c19 0 34 -16 34 -35zM323 826c-24 0 -44 19 -44 44c0 24 20 43 44 43s44 -19 44 -43c0 -25 -20 -44 -44 -44z" />
    <glyph glyph-name="Edotaccent.2" unicode="&#xe066;" horiz-adv-x="638" 
d="M155 256v-185h417c19 0 34 -16 34 -36c0 -19 -15 -35 -34 -35h-457c-23 0 -40 18 -40 39v603c0 21 17 39 40 39h457c19 0 34 -16 34 -35c0 -20 -15 -36 -34 -36h-417v-283h359c19 0 34 -17 34 -36s-15 -35 -34 -35h-359zM348 831c-24 0 -44 19 -44 44c0 24 20 43 44 43
s44 -19 44 -43c0 -25 -20 -44 -44 -44z" />
    <glyph glyph-name="Edotaccent.3" unicode="&#xe067;" horiz-adv-x="722" 
d="M628 320h-492c4 -71 27 -130 64 -173c47 -54 115 -85 195 -85c59 0 102 11 134 24c47 19 69 43 87 43c21 0 35 -15 35 -37c0 -24 -31 -49 -78 -68c-52 -21 -118 -34 -178 -34c-117 0 -203 40 -263 109c-54 61 -85 147 -85 250c0 96 30 179 87 241c54 60 133 100 239 100
c101 0 177 -39 226 -93c57 -61 81 -138 81 -219c0 -40 -21 -58 -52 -58zM136 389h460c-2 68 -24 120 -58 158c-37 41 -94 69 -164 69c-79 0 -139 -30 -181 -79c-31 -37 -52 -91 -57 -148zM378 831c-24 0 -44 19 -44 44c0 24 20 43 44 43s44 -19 44 -43
c0 -25 -20 -44 -44 -44z" />
    <glyph glyph-name="Egrave" unicode="&#xc8;" horiz-adv-x="602" 
d="M155 306v-235h381c19 0 34 -16 34 -36c0 -19 -15 -35 -34 -35h-421c-23 0 -40 18 -40 39v603c0 21 17 39 40 39h421c19 0 34 -16 34 -35c0 -20 -15 -36 -34 -36h-381v-233h329c20 0 35 -17 35 -36s-15 -35 -35 -35h-329zM371 794c0 -14 -12 -24 -26 -24
c-11 0 -19 6 -26 18l-81 134c-6 10 -8 15 -8 22c0 15 14 28 30 28c13 0 22 -10 28 -21l77 -138c4 -7 6 -13 6 -19z" />
    <glyph glyph-name="Egrave.1" unicode="&#xe068;" horiz-adv-x="568" 
d="M537 646c0 -20 -15 -36 -34 -36h-156c-82 0 -137 -22 -169 -68c-22 -32 -34 -75 -34 -128v-36h307c20 0 35 -16 35 -35c0 -20 -15 -35 -35 -35h-307v-39c0 -62 14 -111 46 -145c33 -35 84 -53 156 -53h157c19 0 34 -16 34 -36c0 -19 -15 -35 -34 -35h-158
c-98 0 -172 26 -220 82c-40 47 -61 115 -61 206v105c0 85 19 150 54 197c47 62 124 91 227 91h158c19 0 34 -16 34 -35zM390 794c0 -14 -12 -24 -26 -24c-11 0 -19 6 -26 18l-81 134c-6 10 -8 15 -8 22c0 15 14 28 30 28c13 0 22 -10 28 -21l77 -138c4 -7 6 -13 6 -19z" />
    <glyph glyph-name="Egrave.2" unicode="&#xe069;" horiz-adv-x="638" 
d="M155 256v-185h417c19 0 34 -16 34 -36c0 -19 -15 -35 -34 -35h-457c-23 0 -40 18 -40 39v603c0 21 17 39 40 39h457c19 0 34 -16 34 -35c0 -20 -15 -36 -34 -36h-417v-283h359c19 0 34 -17 34 -36s-15 -35 -34 -35h-359zM413 794c0 -14 -12 -24 -26 -24
c-11 0 -19 6 -26 18l-81 134c-6 10 -8 15 -8 22c0 15 14 28 30 28c13 0 22 -10 28 -21l77 -138c4 -7 6 -13 6 -19z" />
    <glyph glyph-name="Egrave.3" unicode="&#xe06a;" horiz-adv-x="722" 
d="M628 320h-492c4 -71 27 -130 64 -173c47 -54 115 -85 195 -85c59 0 102 11 134 24c47 19 69 43 87 43c21 0 35 -15 35 -37c0 -24 -31 -49 -78 -68c-52 -21 -118 -34 -178 -34c-117 0 -203 40 -263 109c-54 61 -85 147 -85 250c0 96 30 179 87 241c54 60 133 100 239 100
c101 0 177 -39 226 -93c57 -61 81 -138 81 -219c0 -40 -21 -58 -52 -58zM136 389h460c-2 68 -24 120 -58 158c-37 41 -94 69 -164 69c-79 0 -139 -30 -181 -79c-31 -37 -52 -91 -57 -148zM453 794c0 -14 -12 -24 -26 -24c-11 0 -19 6 -26 18l-81 134c-6 10 -8 15 -8 22
c0 15 14 28 30 28c13 0 22 -10 28 -21l77 -138c4 -7 6 -13 6 -19z" />
    <glyph glyph-name="Emacron" unicode="&#x112;" horiz-adv-x="602" 
d="M155 306v-235h381c19 0 34 -16 34 -36c0 -19 -15 -35 -34 -35h-421c-23 0 -40 18 -40 39v603c0 21 17 39 40 39h421c19 0 34 -16 34 -35c0 -20 -15 -36 -34 -36h-381v-233h329c20 0 35 -17 35 -36s-15 -35 -35 -35h-329zM444 881c0 -17 -13 -30 -30 -30h-206
c-16 0 -30 13 -30 30c0 16 14 30 30 30h206c17 0 30 -14 30 -30z" />
    <glyph glyph-name="Emacron.1" unicode="&#xe06b;" horiz-adv-x="568" 
d="M537 646c0 -20 -15 -36 -34 -36h-156c-82 0 -137 -22 -169 -68c-22 -32 -34 -75 -34 -128v-36h307c20 0 35 -16 35 -35c0 -20 -15 -35 -35 -35h-307v-39c0 -62 14 -111 46 -145c33 -35 84 -53 156 -53h157c19 0 34 -16 34 -36c0 -19 -15 -35 -34 -35h-158
c-98 0 -172 26 -220 82c-40 47 -61 115 -61 206v105c0 85 19 150 54 197c47 62 124 91 227 91h158c19 0 34 -16 34 -35zM456 881c0 -17 -13 -30 -30 -30h-206c-16 0 -30 13 -30 30c0 16 14 30 30 30h206c17 0 30 -14 30 -30z" />
    <glyph glyph-name="Emacron.2" unicode="&#xe06c;" horiz-adv-x="638" 
d="M155 256v-185h417c19 0 34 -16 34 -36c0 -19 -15 -35 -34 -35h-457c-23 0 -40 18 -40 39v603c0 21 17 39 40 39h457c19 0 34 -16 34 -35c0 -20 -15 -36 -34 -36h-417v-283h359c19 0 34 -17 34 -36s-15 -35 -34 -35h-359zM473 881c0 -17 -13 -30 -30 -30h-206
c-16 0 -30 13 -30 30c0 16 14 30 30 30h206c17 0 30 -14 30 -30z" />
    <glyph glyph-name="Emacron.3" unicode="&#xe06d;" horiz-adv-x="722" 
d="M628 320h-492c4 -71 27 -130 64 -173c47 -54 115 -85 195 -85c59 0 102 11 134 24c47 19 69 43 87 43c21 0 35 -15 35 -37c0 -24 -31 -49 -78 -68c-52 -21 -118 -34 -178 -34c-117 0 -203 40 -263 109c-54 61 -85 147 -85 250c0 96 30 179 87 241c54 60 133 100 239 100
c101 0 177 -39 226 -93c57 -61 81 -138 81 -219c0 -40 -21 -58 -52 -58zM136 389h460c-2 68 -24 120 -58 158c-37 41 -94 69 -164 69c-79 0 -139 -30 -181 -79c-31 -37 -52 -91 -57 -148zM510 881c0 -17 -13 -30 -30 -30h-206c-16 0 -30 13 -30 30c0 16 14 30 30 30h206
c17 0 30 -14 30 -30z" />
    <glyph glyph-name="Eogonek" unicode="&#x118;" horiz-adv-x="602" 
d="M155 306v-235h381c19 0 34 -16 34 -36c0 -19 -15 -35 -34 -35h-87c-14 -30 -24 -61 -24 -87s8 -58 75 -58c25 0 38 7 49 7c14 0 21 -9 21 -22c0 -14 -7 -23 -22 -28s-36 -9 -54 -9c-90 0 -118 40 -118 93c0 26 12 66 30 104h-291c-23 0 -40 18 -40 39v603
c0 21 17 39 40 39h421c19 0 34 -16 34 -35c0 -20 -15 -36 -34 -36h-381v-233h329c20 0 35 -17 35 -36s-15 -35 -35 -35h-329z" />
    <glyph glyph-name="Eogonek.1" unicode="&#xe06e;" horiz-adv-x="568" 
d="M537 646c0 -22 -16 -35 -35 -35h-153c-70 0 -127 -21 -162 -67c-28 -35 -44 -86 -44 -152v-16h308c20 0 35 -14 35 -35s-15 -35 -35 -35h-308v-16c0 -74 19 -127 53 -163c37 -38 89 -57 152 -57h154c19 0 35 -14 35 -35s-16 -35 -35 -35h-87c-13 -30 -24 -61 -24 -87
s8 -58 75 -58c26 0 38 7 49 7c14 0 22 -9 22 -22c0 -14 -7 -23 -23 -28c-14 -5 -36 -9 -53 -9c-90 0 -119 40 -119 93c0 31 14 68 32 104h-26c-85 0 -158 23 -209 76c-48 49 -75 123 -75 228v73c0 98 25 170 67 219c51 59 128 85 217 85h154c19 0 35 -15 35 -35z" />
    <glyph glyph-name="Eogonek.2" unicode="&#xe06f;" horiz-adv-x="638" 
d="M155 256v-185h417c19 0 34 -16 34 -36c0 -19 -15 -35 -34 -35h-87c-14 -30 -24 -61 -24 -87s8 -58 75 -58c25 0 38 7 49 7c14 0 21 -9 21 -22c0 -14 -7 -23 -22 -28s-36 -9 -54 -9c-90 0 -118 40 -118 93c0 26 12 66 30 104h-327c-23 0 -40 18 -40 39v603
c0 21 17 39 40 39h457c19 0 34 -16 34 -35c0 -20 -15 -36 -34 -36h-417v-283h359c19 0 34 -17 34 -36s-15 -35 -34 -35h-359z" />
    <glyph glyph-name="Eogonek.3" unicode="&#xe070;" horiz-adv-x="722" 
d="M628 320h-492c4 -71 27 -130 64 -173c47 -54 115 -85 195 -85c59 0 102 11 134 24c47 19 69 43 87 43c21 0 35 -15 35 -37c0 -24 -31 -49 -78 -68c-13 -6 -27 -11 -42 -15c-12 -28 -25 -63 -25 -96c0 -26 8 -58 75 -58c25 0 38 7 49 7c14 0 21 -9 21 -22
c0 -14 -7 -23 -22 -28s-36 -9 -54 -9c-90 0 -118 40 -118 93c0 32 12 69 27 103c-29 -6 -60 -9 -89 -9c-117 0 -203 40 -263 109c-54 61 -85 147 -85 250c0 96 30 179 87 241c54 60 133 100 239 100c101 0 177 -39 226 -93c57 -61 81 -138 81 -219c0 -40 -21 -58 -52 -58z
M136 389h460c-2 68 -24 120 -58 158c-37 41 -94 69 -164 69c-79 0 -139 -30 -181 -79c-31 -37 -52 -91 -57 -148z" />
    <glyph glyph-name="Esmall" unicode="&#xf765;" horiz-adv-x="489" 
d="M146 240v-175h294c18 0 33 -14 33 -33s-15 -32 -33 -32h-331c-20 0 -37 16 -37 35v473c0 20 17 36 37 36h331c18 0 33 -13 33 -32c0 -20 -15 -33 -33 -33h-294v-174h254c18 0 33 -13 33 -32c0 -20 -15 -33 -33 -33h-254z" />
    <glyph glyph-name="Esmall.1" unicode="&#xe071;" horiz-adv-x="484" 
d="M98 473c38 50 100 73 183 73h154c18 0 32 -15 32 -33c0 -19 -14 -33 -32 -33h-157c-61 0 -102 -14 -125 -46c-17 -23 -24 -55 -24 -97v-29h266c18 0 32 -16 32 -33c0 -19 -14 -33 -32 -33h-266v-32c0 -42 8 -73 24 -96c24 -32 64 -48 125 -48h157c18 0 32 -15 32 -34
c0 -17 -14 -32 -32 -32h-154c-85 0 -148 24 -186 76c-26 37 -40 89 -40 154v86c0 68 14 120 43 157z" />
    <glyph glyph-name="Esmall.2" unicode="&#xe072;" horiz-adv-x="519" 
d="M146 209v-144h324c18 0 33 -14 33 -33s-15 -32 -33 -32h-361c-20 0 -37 16 -37 35v473c0 20 17 36 37 36h361c18 0 33 -13 33 -32c0 -20 -15 -33 -33 -33h-324v-205h276c18 0 33 -13 33 -32c0 -20 -15 -33 -33 -33h-276z" />
    <glyph glyph-name="Esmall.3" unicode="&#xe073;" horiz-adv-x="592" 
d="M324 59c45 0 79 9 104 19c37 15 55 34 70 34c18 0 32 -15 32 -35s-26 -42 -69 -59c-41 -17 -92 -26 -139 -26c-93 0 -162 32 -210 87c-43 49 -67 117 -67 200c0 78 24 143 69 194c43 47 107 79 191 79c80 0 143 -32 183 -75c45 -48 64 -111 64 -176
c0 -34 -18 -49 -45 -49h-381c5 -50 20 -94 46 -126c36 -44 89 -67 152 -67zM127 311h349c-2 50 -18 94 -46 123s-73 51 -123 51c-59 0 -103 -22 -135 -59c-25 -30 -41 -72 -45 -115z" />
    <glyph glyph-name="Esmallacute" unicode="&#xe074;" horiz-adv-x="491" 
d="M148 240v-175h295c17 0 32 -14 32 -33s-15 -32 -32 -32h-332c-20 0 -36 16 -36 35v473c0 20 16 36 36 36h332c17 0 32 -13 32 -32c0 -20 -15 -33 -32 -33h-295v-174h255c18 0 32 -13 32 -32c0 -20 -14 -33 -32 -33h-255zM208 652c0 6 2 12 6 19l76 138c6 12 15 21 29 21
c16 0 30 -13 30 -28c0 -7 -3 -12 -9 -22l-81 -134c-7 -11 -14 -18 -26 -18c-13 0 -25 10 -25 24z" />
    <glyph glyph-name="Esmallacute.1" unicode="&#xe075;" horiz-adv-x="484" 
d="M98 473c38 50 100 73 183 73h154c18 0 32 -15 32 -33c0 -19 -14 -33 -32 -33h-157c-61 0 -102 -14 -125 -46c-17 -23 -24 -55 -24 -97v-29h266c18 0 32 -16 32 -33c0 -19 -14 -33 -32 -33h-266v-32c0 -42 8 -73 24 -96c24 -32 64 -48 125 -48h157c18 0 32 -15 32 -34
c0 -17 -14 -32 -32 -32h-154c-85 0 -148 24 -186 76c-26 37 -40 89 -40 154v86c0 68 14 120 43 157zM230 652c0 6 2 12 6 19l76 138c6 12 15 21 28 21c17 0 30 -13 30 -28c0 -7 -2 -12 -8 -22l-81 -134c-7 -11 -15 -18 -26 -18c-13 0 -25 10 -25 24z" />
    <glyph glyph-name="Esmallacute.2" unicode="&#xe076;" horiz-adv-x="519" 
d="M146 209v-144h324c18 0 33 -14 33 -33s-15 -32 -33 -32h-361c-20 0 -37 16 -37 35v473c0 20 17 36 37 36h361c18 0 33 -13 33 -32c0 -20 -15 -33 -33 -33h-324v-205h276c18 0 33 -13 33 -32c0 -20 -15 -33 -33 -33h-276zM232 652c0 6 2 12 6 19l76 138c6 12 15 21 28 21
c17 0 30 -13 30 -28c0 -7 -2 -12 -8 -22l-81 -134c-7 -11 -15 -18 -26 -18c-13 0 -25 10 -25 24z" />
    <glyph glyph-name="Esmallacute.3" unicode="&#xe077;" horiz-adv-x="592" 
d="M324 59c45 0 79 9 104 19c37 15 55 34 70 34c18 0 32 -15 32 -35s-26 -42 -69 -59c-41 -17 -92 -26 -139 -26c-93 0 -162 32 -210 87c-43 49 -67 117 -67 200c0 78 24 143 69 194c43 47 107 79 191 79c80 0 143 -32 183 -75c45 -48 64 -111 64 -176
c0 -34 -18 -49 -45 -49h-381c5 -50 20 -94 46 -126c36 -44 89 -67 152 -67zM127 311h349c-2 50 -18 94 -46 123s-73 51 -123 51c-59 0 -103 -22 -135 -59c-25 -30 -41 -72 -45 -115zM233 652c0 6 2 12 6 19l76 138c6 12 15 21 28 21c17 0 30 -13 30 -28c0 -7 -2 -12 -8 -22
l-81 -134c-7 -11 -15 -18 -26 -18c-13 0 -25 10 -25 24z" />
    <glyph glyph-name="Esmallcaron" unicode="&#xe078;" horiz-adv-x="491" 
d="M148 240v-175h295c17 0 32 -14 32 -33s-15 -32 -32 -32h-332c-20 0 -36 16 -36 35v473c0 20 16 36 36 36h332c17 0 32 -13 32 -32c0 -20 -15 -33 -32 -33h-295v-174h255c18 0 32 -13 32 -32c0 -20 -14 -33 -32 -33h-255zM116 802c0 16 12 27 26 27c8 0 15 -2 20 -8
l113 -117l113 117c5 6 12 8 20 8c14 0 26 -11 26 -27c0 -8 -5 -15 -12 -23l-123 -127c-6 -7 -14 -11 -24 -11s-18 4 -24 11l-123 127c-7 8 -12 15 -12 23z" />
    <glyph glyph-name="Esmallcaron.1" unicode="&#xe079;" horiz-adv-x="484" 
d="M98 473c38 50 100 73 183 73h154c18 0 32 -15 32 -33c0 -19 -14 -33 -32 -33h-157c-61 0 -102 -14 -125 -46c-17 -23 -24 -55 -24 -97v-29h266c18 0 32 -16 32 -33c0 -19 -14 -33 -32 -33h-266v-32c0 -42 8 -73 24 -96c24 -32 64 -48 125 -48h157c18 0 32 -15 32 -34
c0 -17 -14 -32 -32 -32h-154c-85 0 -148 24 -186 76c-26 37 -40 89 -40 154v86c0 68 14 120 43 157zM122 802c0 16 12 27 27 27c8 0 17 -5 22 -11l110 -114l111 114c5 6 13 11 22 11c14 0 27 -11 27 -27c0 -9 -6 -16 -13 -23l-123 -127c-6 -6 -13 -11 -24 -11
c-10 0 -17 5 -23 11l-124 127c-7 7 -12 15 -12 23z" />
    <glyph glyph-name="Esmallcaron.2" unicode="&#xe07a;" horiz-adv-x="519" 
d="M146 209v-144h324c18 0 33 -14 33 -33s-15 -32 -33 -32h-361c-20 0 -37 16 -37 35v473c0 20 17 36 37 36h361c18 0 33 -13 33 -32c0 -20 -15 -33 -33 -33h-324v-205h276c18 0 33 -13 33 -32c0 -20 -15 -33 -33 -33h-276zM128 802c0 16 12 27 27 27c8 0 17 -5 22 -11
l110 -114l111 114c5 6 13 11 22 11c14 0 27 -11 27 -27c0 -9 -6 -16 -13 -23l-123 -127c-6 -6 -13 -11 -24 -11c-10 0 -17 5 -23 11l-124 127c-7 7 -12 15 -12 23z" />
    <glyph glyph-name="Esmallcaron.3" unicode="&#xe07b;" horiz-adv-x="592" 
d="M324 59c45 0 79 9 104 19c37 15 55 34 70 34c18 0 32 -15 32 -35s-26 -42 -69 -59c-41 -17 -92 -26 -139 -26c-93 0 -162 32 -210 87c-43 49 -67 117 -67 200c0 78 24 143 69 194c43 47 107 79 191 79c80 0 143 -32 183 -75c45 -48 64 -111 64 -176
c0 -34 -18 -49 -45 -49h-381c5 -50 20 -94 46 -126c36 -44 89 -67 152 -67zM127 311h349c-2 50 -18 94 -46 123s-73 51 -123 51c-59 0 -103 -22 -135 -59c-25 -30 -41 -72 -45 -115zM150 802c0 16 12 27 27 27c8 0 17 -5 22 -11l110 -114l111 114c5 6 13 11 22 11
c14 0 27 -11 27 -27c0 -9 -6 -16 -13 -23l-123 -127c-6 -6 -13 -11 -24 -11c-10 0 -17 5 -23 11l-124 127c-7 7 -12 15 -12 23z" />
    <glyph glyph-name="Esmallcircumflex" unicode="&#xe07c;" horiz-adv-x="491" 
d="M148 240v-175h294c18 0 33 -14 33 -33s-15 -32 -33 -32h-331c-20 0 -37 16 -37 35v473c0 20 17 36 37 36h331c18 0 33 -13 33 -32c0 -20 -15 -33 -33 -33h-294v-174h254c18 0 33 -13 33 -32c0 -20 -15 -33 -33 -33h-254zM271 829c11 0 18 -6 24 -12l123 -127
c7 -8 13 -14 13 -22c0 -17 -13 -27 -27 -27c-8 0 -13 2 -19 8l-114 117l-113 -117c-6 -6 -12 -8 -19 -8c-15 0 -27 10 -27 27c0 8 5 15 12 22l124 127c6 6 13 12 23 12z" />
    <glyph glyph-name="Esmallcircumflex.1" unicode="&#xe07d;" horiz-adv-x="484" 
d="M98 473c38 50 100 73 183 73h154c18 0 32 -15 32 -33c0 -19 -14 -33 -32 -33h-157c-61 0 -102 -14 -125 -46c-17 -23 -24 -55 -24 -97v-29h266c18 0 32 -16 32 -33c0 -19 -14 -33 -32 -33h-266v-32c0 -42 8 -73 24 -96c24 -32 64 -48 125 -48h157c18 0 32 -15 32 -34
c0 -17 -14 -32 -32 -32h-154c-85 0 -148 24 -186 76c-26 37 -40 89 -40 154v86c0 68 14 120 43 157zM279 829c11 0 18 -6 24 -12l123 -127c7 -8 13 -14 13 -22c0 -17 -13 -27 -27 -27c-8 0 -13 2 -19 8l-114 117l-113 -117c-6 -6 -12 -8 -19 -8c-15 0 -27 10 -27 27
c0 8 5 15 12 22l124 127c6 6 13 12 23 12z" />
    <glyph glyph-name="Esmallcircumflex.2" unicode="&#xe07e;" horiz-adv-x="519" 
d="M146 209v-144h324c18 0 33 -14 33 -33s-15 -32 -33 -32h-361c-20 0 -37 16 -37 35v473c0 20 17 36 37 36h361c18 0 33 -13 33 -32c0 -20 -15 -33 -33 -33h-324v-205h276c18 0 33 -13 33 -32c0 -20 -15 -33 -33 -33h-276zM286 829c11 0 18 -6 24 -12l123 -127
c7 -8 13 -14 13 -22c0 -17 -13 -27 -27 -27c-8 0 -13 2 -19 8l-114 117l-113 -117c-6 -6 -12 -8 -19 -8c-15 0 -27 10 -27 27c0 8 5 15 12 22l124 127c6 6 13 12 23 12z" />
    <glyph glyph-name="Esmallcircumflex.3" unicode="&#xe07f;" horiz-adv-x="592" 
d="M324 59c45 0 79 9 104 19c37 15 55 34 70 34c18 0 32 -15 32 -35s-26 -42 -69 -59c-41 -17 -92 -26 -139 -26c-93 0 -162 32 -210 87c-43 49 -67 117 -67 200c0 78 24 143 69 194c43 47 107 79 191 79c80 0 143 -32 183 -75c45 -48 64 -111 64 -176
c0 -34 -18 -49 -45 -49h-381c5 -50 20 -94 46 -126c36 -44 89 -67 152 -67zM127 311h349c-2 50 -18 94 -46 123s-73 51 -123 51c-59 0 -103 -22 -135 -59c-25 -30 -41 -72 -45 -115zM305 829c11 0 18 -6 24 -12l123 -127c7 -8 13 -14 13 -22c0 -17 -13 -27 -27 -27
c-8 0 -13 2 -19 8l-114 117l-113 -117c-6 -6 -12 -8 -19 -8c-15 0 -27 10 -27 27c0 8 5 15 12 22l124 127c6 6 13 12 23 12z" />
    <glyph glyph-name="Esmalldieresis" unicode="&#xe080;" horiz-adv-x="491" 
d="M148 240v-175h294c18 0 33 -14 33 -33s-15 -32 -33 -32h-331c-20 0 -37 16 -37 35v473c0 20 17 36 37 36h331c18 0 33 -13 33 -32c0 -20 -15 -33 -33 -33h-294v-174h254c18 0 33 -13 33 -32c0 -20 -15 -33 -33 -33h-254zM178 683c-24 0 -44 20 -44 45c0 24 20 43 44 43
c25 0 44 -19 44 -43c0 -25 -19 -45 -44 -45zM366 683c-24 0 -44 20 -44 45c0 24 20 43 44 43s44 -19 44 -43c0 -25 -20 -45 -44 -45z" />
    <glyph glyph-name="Esmalldieresis.1" unicode="&#xe081;" horiz-adv-x="484" 
d="M98 473c38 50 100 73 183 73h154c18 0 32 -15 32 -33c0 -19 -14 -33 -32 -33h-157c-61 0 -102 -14 -125 -46c-17 -23 -24 -55 -24 -97v-29h266c18 0 32 -16 32 -33c0 -19 -14 -33 -32 -33h-266v-32c0 -42 8 -73 24 -96c24 -32 64 -48 125 -48h157c18 0 32 -15 32 -34
c0 -17 -14 -32 -32 -32h-154c-85 0 -148 24 -186 76c-26 37 -40 89 -40 154v86c0 68 14 120 43 157zM190 683c-24 0 -44 20 -44 45c0 24 20 43 44 43c25 0 44 -19 44 -43c0 -25 -19 -45 -44 -45zM378 683c-24 0 -44 20 -44 45c0 24 20 43 44 43s44 -19 44 -43
c0 -25 -20 -45 -44 -45z" />
    <glyph glyph-name="Esmalldieresis.2" unicode="&#xe082;" horiz-adv-x="519" 
d="M146 209v-144h324c18 0 33 -14 33 -33s-15 -32 -33 -32h-361c-20 0 -37 16 -37 35v473c0 20 17 36 37 36h361c18 0 33 -13 33 -32c0 -20 -15 -33 -33 -33h-324v-205h276c18 0 33 -13 33 -32c0 -20 -15 -33 -33 -33h-276zM191 683c-24 0 -44 20 -44 45c0 24 20 43 44 43
c25 0 44 -19 44 -43c0 -25 -19 -45 -44 -45zM379 683c-24 0 -44 20 -44 45c0 24 20 43 44 43s44 -19 44 -43c0 -25 -20 -45 -44 -45z" />
    <glyph glyph-name="Esmalldieresis.3" unicode="&#xe083;" horiz-adv-x="592" 
d="M324 59c45 0 79 9 104 19c37 15 55 34 70 34c18 0 32 -15 32 -35s-26 -42 -69 -59c-41 -17 -92 -26 -139 -26c-93 0 -162 32 -210 87c-43 49 -67 117 -67 200c0 78 24 143 69 194c43 47 107 79 191 79c80 0 143 -32 183 -75c45 -48 64 -111 64 -176
c0 -34 -18 -49 -45 -49h-381c5 -50 20 -94 46 -126c36 -44 89 -67 152 -67zM127 311h349c-2 50 -18 94 -46 123s-73 51 -123 51c-59 0 -103 -22 -135 -59c-25 -30 -41 -72 -45 -115zM208 683c-24 0 -44 20 -44 45c0 24 20 43 44 43c25 0 44 -19 44 -43
c0 -25 -19 -45 -44 -45zM396 683c-24 0 -44 20 -44 45c0 24 20 43 44 43s44 -19 44 -43c0 -25 -20 -45 -44 -45z" />
    <glyph glyph-name="Esmalldotaccent" unicode="&#xe084;" horiz-adv-x="491" 
d="M148 240v-175h294c18 0 33 -14 33 -33s-15 -32 -33 -32h-331c-20 0 -37 16 -37 35v473c0 20 17 36 37 36h331c18 0 33 -13 33 -32c0 -20 -15 -33 -33 -33h-294v-174h254c18 0 33 -13 33 -32c0 -20 -15 -33 -33 -33h-254zM281 684c-24 0 -44 19 -44 44c0 24 20 43 44 43
s44 -19 44 -43c0 -25 -20 -44 -44 -44z" />
    <glyph glyph-name="Esmalldotaccent.1" unicode="&#xe085;" horiz-adv-x="484" 
d="M98 473c38 50 100 73 183 73h154c18 0 32 -15 32 -33c0 -19 -14 -33 -32 -33h-157c-61 0 -102 -14 -125 -46c-17 -23 -24 -55 -24 -97v-29h266c18 0 32 -16 32 -33c0 -19 -14 -33 -32 -33h-266v-32c0 -42 8 -73 24 -96c24 -32 64 -48 125 -48h157c18 0 32 -15 32 -34
c0 -17 -14 -32 -32 -32h-154c-85 0 -148 24 -186 76c-26 37 -40 89 -40 154v86c0 68 14 120 43 157zM290 684c-24 0 -44 19 -44 44c0 24 20 43 44 43s44 -19 44 -43c0 -25 -20 -44 -44 -44z" />
    <glyph glyph-name="Esmalldotaccent.2" unicode="&#xe086;" horiz-adv-x="519" 
d="M146 209v-144h324c18 0 33 -14 33 -33s-15 -32 -33 -32h-361c-20 0 -37 16 -37 35v473c0 20 17 36 37 36h361c18 0 33 -13 33 -32c0 -20 -15 -33 -33 -33h-324v-205h276c18 0 33 -13 33 -32c0 -20 -15 -33 -33 -33h-276zM288 684c-24 0 -44 19 -44 44c0 24 20 43 44 43
s44 -19 44 -43c0 -25 -20 -44 -44 -44z" />
    <glyph glyph-name="Esmalldotaccent.3" unicode="&#xe087;" horiz-adv-x="592" 
d="M324 59c45 0 79 9 104 19c37 15 55 34 70 34c18 0 32 -15 32 -35s-26 -42 -69 -59c-41 -17 -92 -26 -139 -26c-93 0 -162 32 -210 87c-43 49 -67 117 -67 200c0 78 24 143 69 194c43 47 107 79 191 79c80 0 143 -32 183 -75c45 -48 64 -111 64 -176
c0 -34 -18 -49 -45 -49h-381c5 -50 20 -94 46 -126c36 -44 89 -67 152 -67zM127 311h349c-2 50 -18 94 -46 123s-73 51 -123 51c-59 0 -103 -22 -135 -59c-25 -30 -41 -72 -45 -115zM302 684c-24 0 -44 19 -44 44c0 24 20 43 44 43s44 -19 44 -43c0 -25 -20 -44 -44 -44z
" />
    <glyph glyph-name="Esmallgrave" unicode="&#xe088;" horiz-adv-x="491" 
d="M148 240v-175h295c17 0 32 -14 32 -33s-15 -32 -32 -32h-332c-20 0 -36 16 -36 35v473c0 20 16 36 36 36h332c17 0 32 -13 32 -32c0 -20 -15 -33 -32 -33h-295v-174h255c18 0 32 -13 32 -32c0 -20 -14 -33 -32 -33h-255zM347 652c0 -14 -12 -24 -26 -24
c-11 0 -18 7 -25 18l-81 134c-6 10 -9 15 -9 22c0 15 14 28 30 28c14 0 23 -9 29 -21l76 -138c4 -7 6 -13 6 -19z" />
    <glyph glyph-name="Esmallgrave.1" unicode="&#xe089;" horiz-adv-x="484" 
d="M98 473c38 50 100 73 183 73h154c18 0 32 -15 32 -33c0 -19 -14 -33 -32 -33h-157c-61 0 -102 -14 -125 -46c-17 -23 -24 -55 -24 -97v-29h266c18 0 32 -16 32 -33c0 -19 -14 -33 -32 -33h-266v-32c0 -42 8 -73 24 -96c24 -32 64 -48 125 -48h157c18 0 32 -15 32 -34
c0 -17 -14 -32 -32 -32h-154c-85 0 -148 24 -186 76c-26 37 -40 89 -40 154v86c0 68 14 120 43 157zM354 652c0 -14 -12 -24 -26 -24c-11 0 -19 6 -26 18l-81 134c-6 10 -8 15 -8 22c0 15 14 28 30 28c13 0 22 -10 28 -21l77 -138c4 -7 6 -13 6 -19z" />
    <glyph glyph-name="Esmallgrave.2" unicode="&#xe08a;" horiz-adv-x="519" 
d="M146 209v-144h324c18 0 33 -14 33 -33s-15 -32 -33 -32h-361c-20 0 -37 16 -37 35v473c0 20 17 36 37 36h361c18 0 33 -13 33 -32c0 -20 -15 -33 -33 -33h-324v-205h276c18 0 33 -13 33 -32c0 -20 -15 -33 -33 -33h-276zM361 652c0 -14 -12 -24 -26 -24
c-11 0 -19 6 -26 18l-81 134c-6 10 -8 15 -8 22c0 15 14 28 30 28c13 0 22 -10 28 -21l77 -138c4 -7 6 -13 6 -19z" />
    <glyph glyph-name="Esmallgrave.3" unicode="&#xe08b;" horiz-adv-x="592" 
d="M324 59c45 0 79 9 104 19c37 15 55 34 70 34c18 0 32 -15 32 -35s-26 -42 -69 -59c-41 -17 -92 -26 -139 -26c-93 0 -162 32 -210 87c-43 49 -67 117 -67 200c0 78 24 143 69 194c43 47 107 79 191 79c80 0 143 -32 183 -75c45 -48 64 -111 64 -176
c0 -34 -18 -49 -45 -49h-381c5 -50 20 -94 46 -126c36 -44 89 -67 152 -67zM127 311h349c-2 50 -18 94 -46 123s-73 51 -123 51c-59 0 -103 -22 -135 -59c-25 -30 -41 -72 -45 -115zM378 652c0 -14 -12 -24 -26 -24c-11 0 -19 6 -26 18l-81 134c-6 10 -8 15 -8 22
c0 15 14 28 30 28c13 0 22 -10 28 -21l77 -138c4 -7 6 -13 6 -19z" />
    <glyph glyph-name="Esmallmacron" unicode="&#xe08c;" horiz-adv-x="491" 
d="M148 240v-175h294c18 0 33 -14 33 -33s-15 -32 -33 -32h-331c-20 0 -37 16 -37 35v473c0 20 17 36 37 36h331c18 0 33 -13 33 -32c0 -20 -15 -33 -33 -33h-294v-174h254c18 0 33 -13 33 -32c0 -20 -15 -33 -33 -33h-254zM407 718c0 -17 -13 -30 -30 -30h-206
c-16 0 -30 13 -30 30c0 16 14 30 30 30h206c17 0 30 -14 30 -30z" />
    <glyph glyph-name="Esmallmacron.1" unicode="&#xe08d;" horiz-adv-x="484" 
d="M98 473c38 50 100 73 183 73h154c18 0 32 -15 32 -33c0 -19 -14 -33 -32 -33h-157c-61 0 -102 -14 -125 -46c-17 -23 -24 -55 -24 -97v-29h266c18 0 32 -16 32 -33c0 -19 -14 -33 -32 -33h-266v-32c0 -42 8 -73 24 -96c24 -32 64 -48 125 -48h157c18 0 32 -15 32 -34
c0 -17 -14 -32 -32 -32h-154c-85 0 -148 24 -186 76c-26 37 -40 89 -40 154v86c0 68 14 120 43 157zM416 718c0 -17 -13 -30 -30 -30h-206c-16 0 -30 13 -30 30c0 16 14 30 30 30h206c17 0 30 -14 30 -30z" />
    <glyph glyph-name="Esmallmacron.2" unicode="&#xe08e;" horiz-adv-x="519" 
d="M146 209v-144h324c18 0 33 -14 33 -33s-15 -32 -33 -32h-361c-20 0 -37 16 -37 35v473c0 20 17 36 37 36h361c18 0 33 -13 33 -32c0 -20 -15 -33 -33 -33h-324v-205h276c18 0 33 -13 33 -32c0 -20 -15 -33 -33 -33h-276zM419 718c0 -17 -13 -30 -30 -30h-206
c-16 0 -30 13 -30 30c0 16 14 30 30 30h206c17 0 30 -14 30 -30z" />
    <glyph glyph-name="Esmallmacron.3" unicode="&#xe08f;" horiz-adv-x="592" 
d="M324 59c45 0 79 9 104 19c37 15 55 34 70 34c18 0 32 -15 32 -35s-26 -42 -69 -59c-41 -17 -92 -26 -139 -26c-93 0 -162 32 -210 87c-43 49 -67 117 -67 200c0 78 24 143 69 194c43 47 107 79 191 79c80 0 143 -32 183 -75c45 -48 64 -111 64 -176
c0 -34 -18 -49 -45 -49h-381c5 -50 20 -94 46 -126c36 -44 89 -67 152 -67zM127 311h349c-2 50 -18 94 -46 123s-73 51 -123 51c-59 0 -103 -22 -135 -59c-25 -30 -41 -72 -45 -115zM440 718c0 -17 -13 -30 -30 -30h-206c-16 0 -30 13 -30 30c0 16 14 30 30 30h206
c17 0 30 -14 30 -30z" />
    <glyph glyph-name="Esmallogonek" unicode="&#xe090;" horiz-adv-x="491" 
d="M148 240v-175h294c18 0 33 -14 33 -33s-15 -32 -33 -32h-91c-14 -32 -23 -60 -23 -87c0 -26 8 -58 75 -58c26 0 38 7 49 7c14 0 22 -9 22 -22c0 -14 -8 -23 -23 -28c-14 -5 -36 -9 -53 -9c-90 0 -119 40 -119 93c0 27 12 65 31 104h-199c-20 0 -37 16 -37 35v473
c0 20 17 36 37 36h331c18 0 33 -13 33 -32c0 -20 -15 -33 -33 -33h-294v-174h254c18 0 33 -13 33 -32c0 -20 -15 -33 -33 -33h-254z" />
    <glyph glyph-name="Esmallogonek.1" unicode="&#xe091;" horiz-adv-x="484" 
d="M98 473c38 50 100 73 183 73h154c18 0 32 -15 32 -33c0 -19 -14 -33 -32 -33h-157c-61 0 -102 -14 -125 -46c-17 -23 -24 -55 -24 -97v-29h266c18 0 32 -16 32 -33c0 -19 -14 -33 -32 -33h-266v-32c0 -42 8 -73 24 -96c24 -32 64 -48 125 -48h157c18 0 32 -15 32 -34
c0 -17 -14 -32 -32 -32h-92c-14 -32 -23 -60 -23 -87c0 -26 8 -58 75 -58c26 0 38 7 49 7c14 0 22 -9 22 -22c0 -14 -8 -23 -23 -28c-14 -5 -36 -9 -53 -9c-90 0 -119 40 -119 93c0 27 12 65 31 104h-21c-85 0 -148 24 -186 76c-26 37 -40 89 -40 154v86c0 68 14 120 43 157
z" />
    <glyph glyph-name="Esmallogonek.2" unicode="&#xe092;" horiz-adv-x="519" 
d="M146 209v-144h324c18 0 33 -14 33 -33s-15 -32 -33 -32h-93c-14 -32 -23 -60 -23 -87c0 -26 8 -58 75 -58c26 0 38 7 49 7c14 0 22 -9 22 -22c0 -14 -8 -23 -23 -28c-14 -5 -36 -9 -53 -9c-90 0 -119 40 -119 93c0 27 12 65 31 104h-227c-20 0 -37 16 -37 35v473
c0 20 17 36 37 36h361c18 0 33 -13 33 -32c0 -20 -15 -33 -33 -33h-324v-205h276c18 0 33 -13 33 -32c0 -20 -15 -33 -33 -33h-276z" />
    <glyph glyph-name="Esmallogonek.3" unicode="&#xe093;" horiz-adv-x="592" 
d="M324 59c45 0 79 9 104 19c37 15 55 34 70 34c18 0 32 -15 32 -35s-26 -42 -69 -59c-17 -7 -35 -13 -53 -17c-14 -32 -24 -62 -24 -88s8 -58 75 -58c26 0 38 7 49 7c14 0 22 -9 22 -22c0 -14 -7 -23 -23 -28c-14 -5 -36 -9 -53 -9c-90 0 -119 40 -119 93c0 25 10 61 27 98
c-13 -1 -27 -2 -40 -2c-93 0 -162 32 -210 87c-43 49 -67 117 -67 200c0 78 24 143 69 194c43 47 107 79 191 79c80 0 143 -32 183 -75c45 -48 64 -111 64 -176c0 -34 -18 -49 -45 -49h-381c5 -50 20 -94 46 -126c36 -44 89 -67 152 -67zM127 311h349c-2 50 -18 94 -46 123
s-73 51 -123 51c-59 0 -103 -22 -135 -59c-25 -30 -41 -72 -45 -115z" />
    <glyph glyph-name="Eth" unicode="&#xd0;" horiz-adv-x="743" 
d="M303 306h-143v-238h150c70 0 133 11 186 42c73 41 118 118 118 230c0 82 -23 143 -63 188c-51 58 -133 85 -231 85h-160v-239h143c18 0 33 -16 33 -34c0 -19 -15 -34 -33 -34zM80 39v267h-69c-18 0 -33 15 -33 34c0 18 15 34 33 34h69v268c0 21 17 39 40 39h213
c114 0 213 -28 284 -107c49 -55 79 -131 79 -234c0 -128 -51 -215 -127 -270c-73 -53 -162 -70 -251 -70h-198c-23 0 -40 18 -40 39z" />
    <glyph glyph-name="Euro" unicode="&#x20ac;" 
d="M10 295h41c-1 15 -2 30 -2 46c0 15 1 29 3 44h-42c-12 0 -21 9 -21 21s9 23 21 23h50c40 155 184 261 336 261c70 0 121 -14 164 -34c28 -12 47 -27 47 -49c0 -21 -17 -37 -37 -37c-15 0 -33 18 -72 32c-25 9 -58 17 -103 17c-111 0 -215 -77 -252 -190h350
c12 0 21 -11 21 -23s-9 -21 -21 -21h-360c-2 -15 -3 -29 -3 -44c0 -16 1 -32 3 -46h304c12 0 21 -10 21 -22s-9 -22 -21 -22h-295c36 -119 142 -188 254 -188c44 0 76 6 103 16c42 15 62 33 78 33c20 0 34 -15 34 -37c0 -23 -20 -37 -47 -50c-43 -19 -99 -35 -168 -35
c-161 0 -300 98 -337 261h-49c-12 0 -21 10 -21 22s9 22 21 22z" />
    <glyph glyph-name="F" unicode="F" horiz-adv-x="560" 
d="M115 681h390c19 0 35 -16 35 -35c0 -20 -16 -36 -35 -36h-350v-233h301c19 0 35 -17 35 -36s-16 -35 -35 -35h-301v-277c0 -21 -18 -39 -40 -39s-40 18 -40 39v613c0 21 18 39 40 39z" />
    <glyph glyph-name="F.1" unicode="&#xe094;" horiz-adv-x="539" 
d="M519 646c0 -22 -17 -36 -37 -36h-136c-80 0 -136 -22 -168 -66c-24 -33 -34 -77 -34 -131v-35h285c20 0 37 -13 37 -35s-17 -35 -37 -35h-285v-279c0 -21 -19 -39 -40 -39c-23 0 -40 18 -40 39v364c0 88 20 156 58 202c46 59 122 86 223 86h137c20 0 37 -14 37 -35z" />
    <glyph glyph-name="F.2" unicode="&#xe095;" horiz-adv-x="596" 
d="M115 681h426c19 0 35 -16 35 -35c0 -20 -16 -36 -35 -36h-386v-283h333c19 0 35 -17 35 -36s-16 -35 -35 -35h-333v-227c0 -21 -18 -39 -40 -39s-40 18 -40 39v613c0 21 18 39 40 39z" />
    <glyph glyph-name="Fsmall" unicode="&#xf766;" horiz-adv-x="461" 
d="M109 544h307c18 0 32 -13 32 -32c0 -20 -14 -33 -32 -33h-270v-174h231c18 0 33 -13 33 -32c0 -20 -15 -33 -33 -33h-231v-213c0 -19 -17 -35 -37 -35s-37 16 -37 35v481c0 20 17 36 37 36z" />
    <glyph glyph-name="Fsmall.1" unicode="&#xe096;" horiz-adv-x="450" 
d="M55 27v289c0 68 14 120 43 157c38 50 100 73 183 73h130c18 0 33 -15 33 -33c0 -19 -15 -33 -33 -33h-133c-61 0 -101 -15 -125 -46c-16 -24 -24 -55 -24 -97v-29h246c18 0 32 -16 32 -33c0 -19 -14 -33 -32 -33h-247v-215c0 -19 -16 -35 -36 -35s-37 16 -37 35z" />
    <glyph glyph-name="Fsmall.2" unicode="&#xe097;" horiz-adv-x="491" 
d="M109 544h337c18 0 32 -13 32 -32c0 -20 -14 -33 -32 -33h-300v-205h253c18 0 33 -13 33 -32c0 -20 -15 -33 -33 -33h-253v-182c0 -19 -17 -35 -37 -35s-37 16 -37 35v481c0 20 17 36 37 36z" />
    <glyph glyph-name="G" unicode="G" horiz-adv-x="742" 
d="M407 338h225c25 0 37 -17 37 -39v-270c0 -22 -15 -39 -39 -39s-39 17 -39 39v16c-46 -31 -113 -55 -193 -55c-194 0 -351 125 -351 351c0 192 160 349 355 349c71 0 121 -14 167 -33c29 -12 49 -27 49 -50c0 -22 -17 -37 -37 -37s-34 16 -83 33c-26 9 -57 15 -97 15
c-149 0 -271 -126 -271 -277c0 -171 120 -280 271 -280c78 0 145 27 190 60v146h-184c-19 0 -34 16 -34 36c0 19 15 35 34 35z" />
    <glyph glyph-name="G.2" unicode="&#xe098;" horiz-adv-x="785" 
d="M437 325h271c19 0 35 -11 35 -37c0 -95 -39 -172 -103 -224c-58 -47 -137 -74 -229 -74c-202 0 -364 125 -364 351c0 202 163 349 367 349c74 0 128 -15 175 -34c29 -12 50 -26 50 -49c0 -22 -16 -37 -39 -37c-20 0 -35 16 -86 33c-27 9 -59 15 -101 15
c-156 0 -283 -116 -283 -277c0 -170 125 -279 284 -279c61 0 117 15 160 45c47 32 78 82 85 148h-222c-19 0 -34 15 -34 35c0 19 15 35 34 35z" />
    <glyph glyph-name="Gbreve" unicode="&#x11e;" horiz-adv-x="742" 
d="M407 338h225c25 0 37 -17 37 -39v-270c0 -22 -15 -39 -39 -39s-39 17 -39 39v16c-46 -31 -113 -55 -193 -55c-194 0 -351 125 -351 351c0 192 160 349 355 349c71 0 121 -14 167 -33c29 -12 49 -27 49 -50c0 -22 -17 -37 -37 -37s-34 16 -83 33c-26 9 -57 15 -97 15
c-149 0 -271 -126 -271 -277c0 -171 120 -280 271 -280c78 0 145 27 190 60v146h-184c-19 0 -34 16 -34 36c0 19 15 35 34 35zM370 857c72 0 83 84 117 84c15 0 28 -11 28 -26s-16 -37 -30 -54c-29 -36 -68 -58 -115 -58s-86 22 -115 58c-14 17 -30 39 -30 54s13 26 28 26
c34 0 45 -84 117 -84z" />
    <glyph glyph-name="Gbreve.2" unicode="&#xe099;" horiz-adv-x="785" 
d="M437 325h271c19 0 35 -11 35 -37c0 -95 -39 -172 -103 -224c-58 -47 -137 -74 -229 -74c-202 0 -364 125 -364 351c0 202 163 349 367 349c74 0 128 -15 175 -34c29 -12 50 -26 50 -49c0 -22 -16 -37 -39 -37c-20 0 -35 16 -86 33c-27 9 -59 15 -101 15
c-156 0 -283 -116 -283 -277c0 -170 125 -279 284 -279c61 0 117 15 160 45c47 32 78 82 85 148h-222c-19 0 -34 15 -34 35c0 19 15 35 34 35zM402 857c72 0 83 84 117 84c15 0 28 -11 28 -26s-16 -37 -30 -54c-29 -36 -68 -58 -115 -58s-86 22 -115 58
c-14 17 -30 39 -30 54s13 26 28 26c34 0 45 -84 117 -84z" />
    <glyph glyph-name="Gcommaaccent" unicode="&#x122;" horiz-adv-x="742" 
d="M407 338h225c25 0 37 -17 37 -39v-270c0 -22 -15 -39 -39 -39s-39 17 -39 39v16c-46 -31 -113 -55 -193 -55c-194 0 -351 125 -351 351c0 192 160 349 355 349c71 0 121 -14 167 -33c29 -12 49 -27 49 -50c0 -22 -17 -37 -37 -37s-34 16 -83 33c-26 9 -57 15 -97 15
c-149 0 -271 -126 -271 -277c0 -171 120 -280 271 -280c78 0 145 27 190 60v146h-184c-19 0 -34 16 -34 36c0 19 15 35 34 35zM350 -221c0 20 34 26 34 55c0 26 -36 21 -36 61c0 23 15 44 47 44c36 0 56 -26 56 -67c0 -64 -59 -107 -86 -107c-9 0 -15 6 -15 14z" />
    <glyph glyph-name="Gcommaaccent.2" unicode="&#xe09a;" horiz-adv-x="785" 
d="M437 325h271c19 0 35 -11 35 -37c0 -95 -39 -172 -103 -224c-58 -47 -137 -74 -229 -74c-202 0 -364 125 -364 351c0 202 163 349 367 349c74 0 128 -15 175 -34c29 -12 50 -26 50 -49c0 -22 -16 -37 -39 -37c-20 0 -35 16 -86 33c-27 9 -59 15 -101 15
c-156 0 -283 -116 -283 -277c0 -170 125 -279 284 -279c61 0 117 15 160 45c47 32 78 82 85 148h-222c-19 0 -34 15 -34 35c0 19 15 35 34 35zM365 -221c0 20 34 26 34 55c0 26 -36 21 -36 61c0 23 15 44 47 44c36 0 56 -26 56 -67c0 -64 -59 -107 -86 -107
c-9 0 -15 6 -15 14z" />
    <glyph glyph-name="Gsmall" unicode="&#xf767;" horiz-adv-x="611" 
d="M330 552c50 0 98 -9 132 -25c26 -13 44 -27 44 -46s-15 -34 -34 -34c-15 0 -29 12 -56 22c-21 9 -49 16 -87 16c-64 0 -123 -31 -161 -79c-30 -37 -48 -83 -48 -133c0 -62 22 -116 59 -153c38 -39 94 -60 151 -60c66 0 115 24 142 46v105h-141c-18 0 -32 13 -32 33
c0 19 14 32 32 32h177c21 0 36 -13 36 -35v-214c0 -22 -16 -35 -36 -35s-36 13 -36 35v6c-34 -22 -83 -41 -144 -41c-79 0 -152 26 -204 76c-50 49 -79 121 -79 205c0 69 26 131 68 179c53 61 131 100 217 100z" />
    <glyph glyph-name="Gsmall.2" unicode="&#xe09b;" horiz-adv-x="642" 
d="M338 552c58 0 102 -12 139 -26c29 -11 44 -24 44 -44s-15 -34 -36 -34c-16 0 -35 13 -66 24c-21 7 -47 13 -82 13c-119 0 -217 -89 -217 -212c0 -131 97 -215 219 -215c48 0 90 13 123 36c36 25 58 62 62 106h-151c-18 0 -32 13 -32 33c0 19 14 32 32 32h197
c19 0 33 -11 33 -34c0 -78 -32 -142 -86 -183c-48 -37 -110 -57 -181 -57c-162 0 -291 101 -291 282c0 162 129 279 293 279z" />
    <glyph glyph-name="Gsmallbreve" unicode="&#xe09c;" horiz-adv-x="615" 
d="M334 552c50 0 97 -9 132 -25c26 -13 43 -27 43 -46s-15 -34 -34 -34c-14 0 -29 12 -55 22c-21 9 -49 16 -87 16c-64 0 -123 -31 -162 -79c-29 -37 -47 -83 -47 -133c0 -62 21 -116 58 -153c39 -39 95 -60 152 -60c66 0 115 24 142 46v105h-141c-18 0 -33 13 -33 33
c0 19 15 32 33 32h176c22 0 37 -13 37 -35v-214c0 -22 -17 -35 -37 -35c-19 0 -35 13 -35 35v6c-35 -22 -82 -41 -144 -41c-79 0 -152 26 -204 76c-51 49 -80 121 -80 205c0 69 27 131 69 180c53 60 131 99 217 99zM332 700c72 0 83 84 117 84c15 0 28 -11 28 -26
s-16 -37 -30 -54c-29 -36 -68 -58 -115 -58s-86 22 -115 58c-14 17 -30 39 -30 54s13 26 28 26c34 0 45 -84 117 -84z" />
    <glyph glyph-name="Gsmallbreve.2" unicode="&#xe09d;" horiz-adv-x="642" 
d="M338 552c58 0 102 -12 139 -26c29 -11 44 -24 44 -44s-15 -34 -36 -34c-16 0 -35 13 -66 24c-21 7 -47 13 -82 13c-119 0 -217 -89 -217 -212c0 -131 97 -215 219 -215c48 0 90 13 123 36c36 25 58 62 62 106h-151c-18 0 -32 13 -32 33c0 19 14 32 32 32h197
c19 0 33 -11 33 -34c0 -78 -32 -142 -86 -183c-48 -37 -110 -57 -181 -57c-162 0 -291 101 -291 282c0 162 129 279 293 279zM338 700c72 0 83 84 117 84c15 0 28 -11 28 -26s-16 -37 -30 -54c-29 -36 -68 -58 -115 -58s-86 22 -115 58c-14 17 -30 39 -30 54s13 26 28 26
c34 0 45 -84 117 -84z" />
    <glyph glyph-name="Gsmallcommaaccent" unicode="&#xe09e;" horiz-adv-x="615" 
d="M334 552c50 0 97 -9 132 -25c26 -13 43 -27 43 -46s-15 -34 -34 -34c-14 0 -29 12 -55 22c-21 9 -49 16 -87 16c-64 0 -123 -31 -162 -79c-29 -37 -47 -83 -47 -133c0 -62 21 -116 58 -153c39 -39 95 -60 152 -60c66 0 115 24 142 46v105h-141c-18 0 -33 13 -33 33
c0 19 15 32 33 32h176c22 0 37 -13 37 -35v-214c0 -22 -17 -35 -37 -35c-19 0 -35 13 -35 35v6c-35 -22 -82 -41 -144 -41c-79 0 -152 26 -204 76c-51 49 -80 121 -80 205c0 69 26 131 69 179c52 61 131 100 217 100zM280 -221c0 20 33 26 33 55c0 26 -35 21 -35 61
c0 23 15 44 47 44c36 0 56 -26 56 -67c0 -64 -60 -107 -87 -107c-8 0 -14 6 -14 14z" />
    <glyph glyph-name="Gsmallcommaaccent.2" unicode="&#xe09f;" horiz-adv-x="642" 
d="M338 552c58 0 102 -12 139 -26c29 -11 44 -24 44 -44s-15 -34 -36 -34c-16 0 -35 13 -66 24c-21 7 -47 13 -82 13c-119 0 -217 -89 -217 -212c0 -131 97 -215 219 -215c48 0 90 13 123 36c36 25 58 62 62 106h-151c-18 0 -32 13 -32 33c0 19 14 32 32 32h197
c19 0 33 -11 33 -34c0 -78 -32 -142 -86 -183c-48 -37 -110 -57 -181 -57c-162 0 -291 101 -291 282c0 162 129 279 293 279zM289 -221c0 20 34 26 34 55c0 26 -36 21 -36 61c0 23 15 44 47 44c36 0 56 -26 56 -67c0 -64 -59 -107 -86 -107c-9 0 -15 6 -15 14z" />
    <glyph glyph-name="H" unicode="H" horiz-adv-x="718" 
d="M75 29v622c0 21 18 39 40 39s40 -18 40 -39v-274h409v274c0 21 17 39 40 39c22 0 40 -18 40 -39v-622c0 -21 -19 -39 -40 -39c-23 0 -40 18 -40 39v277h-409v-277c0 -21 -18 -39 -40 -39s-40 18 -40 39z" />
    <glyph glyph-name="H.2" unicode="&#xe0a0;" horiz-adv-x="758" 
d="M75 29v622c0 21 18 39 40 39s40 -18 40 -39v-324h449v324c0 21 17 39 40 39c22 0 40 -18 40 -39v-622c0 -21 -19 -39 -40 -39c-23 0 -40 18 -40 39v227h-449v-227c0 -21 -18 -39 -40 -39s-40 18 -40 39z" />
    <glyph glyph-name="Hsmall" unicode="&#xf768;" horiz-adv-x="602" 
d="M457 516c0 20 16 36 36 36c21 0 37 -16 37 -36v-489c0 -19 -17 -35 -37 -35s-36 16 -36 35v213h-311v-213c0 -19 -17 -35 -37 -35s-37 16 -37 35v489c0 20 17 36 37 36s37 -16 37 -36v-210h311v210z" />
    <glyph glyph-name="Hsmall.2" unicode="&#xe0a1;" horiz-adv-x="636" 
d="M72 27v489c0 20 17 36 37 36s37 -16 37 -36v-241h345v241c0 20 16 36 36 36c21 0 37 -16 37 -36v-489c0 -19 -17 -35 -37 -35s-36 16 -36 35v182h-345v-182c0 -19 -17 -35 -37 -35s-37 16 -37 35z" />
    <glyph glyph-name="I" unicode="I" horiz-adv-x="230" 
d="M75 29v622c0 21 18 39 40 39s40 -18 40 -39v-622c0 -21 -18 -39 -40 -39s-40 18 -40 39z" />
    <glyph glyph-name="Iacute" unicode="&#xcd;" horiz-adv-x="230" 
d="M75 29v622c0 21 18 39 40 39s40 -18 40 -39v-622c0 -21 -18 -39 -40 -39s-40 18 -40 39zM47 794c0 6 2 12 6 19l76 138c6 12 15 21 28 21c17 0 30 -13 30 -28c0 -7 -2 -12 -8 -22l-81 -134c-7 -11 -15 -18 -26 -18c-13 0 -25 10 -25 24z" />
    <glyph glyph-name="Icircumflex" unicode="&#xce;" horiz-adv-x="230" 
d="M75 29v622c0 21 18 39 40 39s40 -18 40 -39v-622c0 -21 -18 -39 -40 -39s-40 18 -40 39zM117 971c11 0 18 -6 24 -12l123 -127c7 -8 13 -14 13 -22c0 -17 -13 -27 -27 -27c-8 0 -13 2 -19 8l-114 117l-113 -117c-6 -6 -12 -8 -19 -8c-15 0 -27 10 -27 27c0 8 5 15 12 22
l124 127c6 6 13 12 23 12z" />
    <glyph glyph-name="Idieresis" unicode="&#xcf;" horiz-adv-x="230" 
d="M75 29v622c0 21 18 39 40 39s40 -18 40 -39v-622c0 -21 -18 -39 -40 -39s-40 18 -40 39zM23 825c-24 0 -44 20 -44 45c0 24 20 43 44 43c25 0 44 -19 44 -43c0 -25 -19 -45 -44 -45zM211 825c-24 0 -44 20 -44 45c0 24 20 43 44 43s44 -19 44 -43c0 -25 -20 -45 -44 -45z
" />
    <glyph glyph-name="Idotaccent" unicode="&#x130;" horiz-adv-x="230" 
d="M75 29v622c0 21 18 39 40 39s40 -18 40 -39v-622c0 -21 -18 -39 -40 -39s-40 18 -40 39zM115 831c-24 0 -44 19 -44 44c0 24 20 43 44 43s44 -19 44 -43c0 -25 -20 -44 -44 -44z" />
    <glyph glyph-name="Igrave" unicode="&#xcc;" horiz-adv-x="230" 
d="M75 29v622c0 21 18 39 40 39s40 -18 40 -39v-622c0 -21 -18 -39 -40 -39s-40 18 -40 39zM188 794c0 -14 -12 -24 -26 -24c-11 0 -19 6 -26 18l-81 134c-6 10 -8 15 -8 22c0 15 14 28 30 28c13 0 22 -10 28 -21l77 -138c4 -7 6 -13 6 -19z" />
    <glyph glyph-name="Imacron" unicode="&#x12a;" horiz-adv-x="230" 
d="M75 29v622c0 21 18 39 40 39s40 -18 40 -39v-622c0 -21 -18 -39 -40 -39s-40 18 -40 39zM249 881c0 -17 -13 -30 -30 -30h-206c-16 0 -30 13 -30 30c0 16 14 30 30 30h206c17 0 30 -14 30 -30z" />
    <glyph glyph-name="Iogonek" unicode="&#x12e;" horiz-adv-x="230" 
d="M29 -104c0 43 24 94 46 138v617c0 21 18 39 40 39s40 -18 40 -39v-622c0 -21 -18 -39 -40 -39c-6 0 -12 1 -17 4c-13 -30 -20 -54 -20 -81c0 -26 8 -58 75 -58c25 0 38 7 49 7c14 0 21 -9 21 -22c0 -14 -7 -23 -22 -28s-36 -9 -54 -9c-90 0 -118 40 -118 93z" />
    <glyph glyph-name="Ismall" unicode="&#xf769;" horiz-adv-x="218" 
d="M72 27v490c0 20 17 35 37 35s37 -15 37 -35v-490c0 -19 -17 -35 -37 -35s-37 16 -37 35z" />
    <glyph glyph-name="Ismallacute" unicode="&#xe0a2;" horiz-adv-x="223" 
d="M75 27v490c0 20 16 35 36 35c21 0 37 -15 37 -35v-490c0 -19 -17 -35 -37 -35s-36 16 -36 35zM41 652c0 6 2 12 6 19l76 138c6 12 15 21 29 21c16 0 30 -13 30 -28c0 -7 -3 -12 -9 -22l-81 -134c-7 -11 -14 -18 -25 -18c-14 0 -26 10 -26 24z" />
    <glyph glyph-name="Ismallcircumflex" unicode="&#xe0a3;" horiz-adv-x="223" 
d="M74 27v490c0 20 17 35 37 35s37 -15 37 -35v-490c0 -19 -17 -35 -37 -35s-37 16 -37 35zM111 829c11 0 18 -6 24 -12l123 -127c7 -8 13 -14 13 -22c0 -17 -13 -27 -27 -27c-8 0 -13 2 -19 8l-114 117l-113 -117c-6 -6 -12 -8 -19 -8c-15 0 -27 10 -27 27c0 8 5 15 12 22
l124 127c6 6 13 12 23 12z" />
    <glyph glyph-name="Ismalldieresis" unicode="&#xe0a4;" horiz-adv-x="223" 
d="M74 27v490c0 20 17 35 37 35s37 -15 37 -35v-490c0 -19 -17 -35 -37 -35s-37 16 -37 35zM18 683c-24 0 -44 20 -44 45c0 24 20 43 44 43c25 0 44 -19 44 -43c0 -25 -19 -45 -44 -45zM206 683c-24 0 -44 20 -44 45c0 24 20 43 44 43s44 -19 44 -43c0 -25 -20 -45 -44 -45z
" />
    <glyph glyph-name="Ismallgrave" unicode="&#xe0a5;" horiz-adv-x="223" 
d="M75 27v490c0 20 16 35 36 35c21 0 37 -15 37 -35v-490c0 -19 -17 -35 -37 -35s-36 16 -36 35zM182 652c0 -14 -12 -24 -25 -24c-12 0 -20 6 -26 18l-81 134c-6 10 -9 15 -9 22c0 15 14 28 30 28c14 0 23 -9 29 -21l76 -138c4 -7 6 -13 6 -19z" />
    <glyph glyph-name="Ismallmacron" unicode="&#xe0a6;" horiz-adv-x="223" 
d="M74 27v490c0 20 17 35 37 35s37 -15 37 -35v-490c0 -19 -17 -35 -37 -35s-37 16 -37 35zM245 718c0 -17 -13 -30 -30 -30h-206c-16 0 -30 13 -30 30c0 16 14 30 30 30h206c17 0 30 -14 30 -30z" />
    <glyph glyph-name="Ismallogonek" unicode="&#xe0a7;" horiz-adv-x="223" 
d="M74 27v490c0 20 17 35 37 35s37 -15 37 -35v-490c0 -9 -4 -17 -10 -24c-15 -33 -25 -62 -25 -90c0 -26 8 -58 75 -58c26 0 38 7 49 7c14 0 22 -9 22 -22c0 -14 -8 -23 -23 -28c-14 -5 -36 -9 -53 -9c-90 0 -119 40 -119 93c0 26 11 63 29 101c-11 5 -19 17 -19 30z" />
    <glyph glyph-name="J" unicode="J" horiz-adv-x="513" 
d="M441 651v-401c0 -90 -28 -156 -73 -197c-48 -43 -112 -63 -178 -63c-56 0 -117 20 -163 58c-10 9 -17 21 -17 34c0 21 16 37 37 37c11 0 19 -5 27 -12c36 -32 76 -46 115 -46c47 0 91 13 125 47c32 32 47 78 47 143v400c0 21 18 39 40 39c23 0 40 -18 40 -39z" />
    <glyph glyph-name="Jsmall" unicode="&#xf76a;" horiz-adv-x="437" 
d="M366 517v-318c0 -64 -17 -111 -45 -144c-38 -44 -96 -63 -157 -63c-38 0 -81 11 -109 27c-22 13 -38 28 -38 46c0 20 15 34 34 34c12 0 23 -8 38 -17c18 -11 41 -23 74 -23c38 0 76 12 100 42c19 23 30 56 30 102v314c0 20 16 35 37 35c20 0 36 -15 36 -35z" />
    <glyph glyph-name="K" unicode="K" horiz-adv-x="593" 
d="M531 625l-246 -242l275 -331c5 -7 7 -15 7 -22c0 -21 -16 -40 -39 -40c-14 0 -27 8 -37 21l-260 316l-76 -74v-224c0 -21 -18 -39 -40 -39s-40 18 -40 39v622c0 21 18 39 40 39s40 -18 40 -39v-297l320 323c8 8 18 13 30 13c20 0 37 -17 37 -39c0 -8 -3 -18 -11 -26z" />
    <glyph glyph-name="K.2" unicode="&#xe0a8;" horiz-adv-x="669" 
d="M75 29v622c0 21 18 39 40 39s40 -18 40 -39v-353l368 379c8 9 18 13 30 13c20 0 37 -17 37 -38c0 -9 -3 -18 -11 -27l-260 -262c85 -11 156 -42 207 -92c56 -55 88 -132 88 -232c0 -33 -19 -49 -41 -49c-28 0 -40 20 -40 39c0 85 -27 151 -74 197s-115 71 -199 77
l-105 -107v-167c0 -21 -18 -39 -40 -39s-40 18 -40 39z" />
    <glyph glyph-name="Kcommaaccent" unicode="&#x136;" horiz-adv-x="593" 
d="M531 625l-246 -242l275 -331c5 -7 7 -15 7 -22c0 -21 -16 -40 -39 -40c-14 0 -27 8 -37 21l-260 316l-76 -74v-224c0 -21 -18 -39 -40 -39s-40 18 -40 39v622c0 21 18 39 40 39s40 -18 40 -39v-297l320 323c8 8 18 13 30 13c20 0 37 -17 37 -39c0 -8 -3 -18 -11 -26z
M258 -221c0 20 34 26 34 55c0 26 -36 21 -36 61c0 23 15 44 47 44c36 0 56 -26 56 -67c0 -64 -59 -107 -86 -107c-9 0 -15 6 -15 14z" />
    <glyph glyph-name="Kcommaaccent.2" unicode="&#xe0a9;" horiz-adv-x="669" 
d="M75 29v622c0 21 18 39 40 39s40 -18 40 -39v-353l368 379c8 9 18 13 30 13c20 0 37 -17 37 -38c0 -9 -3 -18 -11 -27l-260 -262c85 -11 156 -42 207 -92c56 -55 88 -132 88 -232c0 -33 -19 -49 -41 -49c-28 0 -40 20 -40 39c0 85 -27 151 -74 197s-115 71 -199 77
l-105 -107v-167c0 -21 -18 -39 -40 -39s-40 18 -40 39zM295 -221c0 20 34 26 34 55c0 26 -36 21 -36 61c0 23 15 44 47 44c36 0 56 -26 56 -67c0 -64 -59 -107 -86 -107c-9 0 -15 6 -15 14z" />
    <glyph glyph-name="Ksmall" unicode="&#xf76b;" horiz-adv-x="496" 
d="M438 490l-187 -185l210 -249c7 -8 12 -18 12 -27c0 -21 -16 -37 -36 -37c-15 0 -24 6 -31 16l-205 244l-55 -53v-172c0 -19 -17 -35 -37 -35s-37 16 -37 35v490c0 20 17 35 37 35s37 -15 37 -35v-221l242 244c7 8 16 12 26 12c19 0 35 -16 35 -36c0 -8 -4 -18 -11 -26z
" />
    <glyph glyph-name="Ksmall.2" unicode="&#xe0aa;" horiz-adv-x="551" 
d="M72 27v490c0 20 17 35 37 35s37 -15 37 -35v-267l281 289c7 7 15 13 27 13c22 0 37 -16 37 -35c0 -10 -5 -19 -13 -27l-198 -198c66 -10 120 -34 159 -74c43 -44 69 -105 69 -183c0 -30 -17 -43 -37 -43c-27 0 -38 18 -38 35c0 69 -22 121 -62 156c-36 32 -86 50 -146 54
l-79 -81v-129c0 -19 -17 -35 -37 -35s-37 16 -37 35z" />
    <glyph glyph-name="Ksmallcommaaccent" unicode="&#xe0ab;" horiz-adv-x="499" 
d="M440 490l-187 -185l211 -249c6 -8 12 -18 12 -27c0 -21 -16 -37 -37 -37c-15 0 -24 6 -31 16l-205 244l-55 -53v-172c0 -19 -17 -35 -37 -35s-36 16 -36 35v490c0 20 16 35 36 35c21 0 37 -15 37 -35v-221l242 244c7 8 16 12 27 12c19 0 34 -16 34 -36
c0 -8 -3 -18 -11 -26zM215 -221c0 20 34 26 34 55c0 26 -36 21 -36 61c0 23 15 44 47 44c36 0 56 -26 56 -67c0 -64 -59 -107 -86 -107c-9 0 -15 6 -15 14z" />
    <glyph glyph-name="Ksmallcommaaccent.2" unicode="&#xe0ac;" horiz-adv-x="551" 
d="M72 27v490c0 20 17 35 37 35s37 -15 37 -35v-267l281 289c7 7 15 13 27 13c22 0 37 -16 37 -35c0 -10 -5 -19 -13 -27l-198 -198c66 -10 120 -34 159 -74c43 -44 69 -105 69 -183c0 -30 -17 -43 -37 -43c-27 0 -38 18 -38 35c0 69 -22 121 -62 156c-36 32 -86 50 -146 54
l-79 -81v-129c0 -19 -17 -35 -37 -35s-37 16 -37 35zM237 -221c0 20 34 26 34 55c0 26 -36 21 -36 61c0 23 15 44 47 44c36 0 56 -26 56 -67c0 -64 -59 -107 -86 -107c-9 0 -15 6 -15 14z" />
    <glyph glyph-name="L" unicode="L" horiz-adv-x="533" 
d="M75 39v612c0 21 17 39 40 39c22 0 40 -18 40 -39v-580h326c19 0 34 -16 34 -36c0 -19 -15 -35 -34 -35h-366c-23 0 -40 18 -40 39z" />
    <glyph glyph-name="L.1" unicode="&#xe0ad;" horiz-adv-x="522" 
d="M64 284v367c0 21 17 39 40 39c22 0 40 -18 40 -39v-378c0 -63 12 -113 42 -147c32 -37 84 -55 158 -55h126c19 0 34 -16 34 -36c0 -19 -15 -35 -34 -35h-127c-102 0 -178 25 -225 84c-36 46 -54 111 -54 200z" />
    <glyph glyph-name="Lacute" unicode="&#x139;" horiz-adv-x="533" 
d="M75 39v612c0 21 17 39 40 39c22 0 40 -18 40 -39v-580h326c19 0 34 -16 34 -36c0 -19 -15 -35 -34 -35h-366c-23 0 -40 18 -40 39zM82 794c0 6 2 12 6 19l76 138c6 12 15 21 28 21c17 0 30 -13 30 -28c0 -7 -2 -12 -8 -22l-81 -134c-7 -11 -15 -18 -26 -18
c-13 0 -25 10 -25 24z" />
    <glyph glyph-name="Lacute.1" unicode="&#xe0ae;" horiz-adv-x="522" 
d="M64 284v367c0 21 17 39 40 39c22 0 40 -18 40 -39v-378c0 -63 12 -113 42 -147c32 -37 84 -55 158 -55h126c19 0 34 -16 34 -36c0 -19 -15 -35 -34 -35h-127c-102 0 -178 25 -225 84c-36 46 -54 111 -54 200zM71 794c0 6 2 12 6 19l76 138c6 12 15 21 28 21
c17 0 30 -13 30 -28c0 -7 -2 -12 -8 -22l-81 -134c-7 -11 -15 -18 -26 -18c-13 0 -25 10 -25 24z" />
    <glyph glyph-name="Lcaron" unicode="&#x13d;" horiz-adv-x="533" 
d="M75 39v612c0 21 17 39 40 39c22 0 40 -18 40 -39v-580h326c19 0 34 -16 34 -36c0 -19 -15 -35 -34 -35h-366c-23 0 -40 18 -40 39zM289 530c0 20 34 26 34 55c0 26 -36 21 -36 61c0 23 15 44 47 44c36 0 56 -26 56 -67c0 -64 -59 -107 -86 -107c-9 0 -15 6 -15 14z" />
    <glyph glyph-name="Lcaron.1" unicode="&#xe0af;" horiz-adv-x="522" 
d="M64 284v367c0 21 17 39 40 39c22 0 40 -18 40 -39v-378c0 -63 12 -113 42 -147c32 -37 84 -55 158 -55h126c19 0 34 -16 34 -36c0 -19 -15 -35 -34 -35h-127c-102 0 -178 25 -225 84c-36 46 -54 111 -54 200zM278 530c0 20 34 26 34 55c0 26 -36 21 -36 61
c0 23 15 44 47 44c36 0 56 -26 56 -67c0 -64 -59 -107 -86 -107c-9 0 -15 6 -15 14z" />
    <glyph glyph-name="Lcommaaccent" unicode="&#x13b;" horiz-adv-x="533" 
d="M75 39v612c0 21 17 39 40 39c22 0 40 -18 40 -39v-580h326c19 0 34 -16 34 -36c0 -19 -15 -35 -34 -35h-366c-23 0 -40 18 -40 39zM245 -221c0 20 34 26 34 55c0 26 -36 21 -36 61c0 23 15 44 47 44c36 0 56 -26 56 -67c0 -64 -59 -107 -86 -107c-9 0 -15 6 -15 14z" />
    <glyph glyph-name="Lcommaaccent.1" unicode="&#xe0b0;" horiz-adv-x="522" 
d="M64 284v367c0 21 17 39 40 39c22 0 40 -18 40 -39v-378c0 -63 12 -113 42 -147c32 -37 84 -55 158 -55h126c19 0 34 -16 34 -36c0 -19 -15 -35 -34 -35h-127c-102 0 -178 25 -225 84c-36 46 -54 111 -54 200zM234 -221c0 20 34 26 34 55c0 26 -36 21 -36 61
c0 23 15 44 47 44c36 0 56 -26 56 -67c0 -64 -59 -107 -86 -107c-9 0 -15 6 -15 14z" />
    <glyph glyph-name="Lslash" unicode="&#x141;" horiz-adv-x="543" 
d="M81 39v216l-60 -39c-8 -4 -15 -6 -21 -6c-18 0 -31 14 -31 31c0 11 5 21 16 28l96 61v322c0 21 18 38 40 38c23 0 40 -17 40 -38v-271l87 56c7 5 14 6 20 6c18 0 31 -13 31 -31c0 -10 -5 -21 -16 -28l-122 -78v-236h327c19 0 34 -17 34 -35c0 -20 -15 -35 -34 -35h-367
c-22 0 -40 18 -40 39z" />
    <glyph glyph-name="Lsmall" unicode="&#xf76c;" horiz-adv-x="443" 
d="M72 36v481c0 19 17 35 37 35s37 -16 37 -35v-452h251c18 0 32 -14 32 -33s-14 -32 -32 -32h-288c-20 0 -37 16 -37 36z" />
    <glyph glyph-name="Lsmall.1" unicode="&#xe0b1;" horiz-adv-x="438" 
d="M128 517v-304c0 -42 9 -76 25 -99c22 -32 62 -48 123 -48h116c18 0 32 -15 32 -34c0 -17 -14 -32 -32 -32h-111c-85 0 -148 22 -187 76c-28 38 -39 89 -39 154v287c0 19 17 35 37 35s36 -16 36 -35z" />
    <glyph glyph-name="Lsmallacute" unicode="&#xe0b2;" horiz-adv-x="445" 
d="M75 36v481c0 19 16 35 36 35s37 -16 37 -35v-452h251c18 0 33 -14 33 -33s-15 -32 -33 -32h-288c-20 0 -36 16 -36 36zM74 652c0 6 1 12 5 19l77 138c6 11 15 21 28 21c16 0 30 -13 30 -28c0 -7 -2 -12 -8 -22l-81 -134c-7 -11 -15 -18 -26 -18c-14 0 -25 10 -25 24z" />
    <glyph glyph-name="Lsmallacute.1" unicode="&#xe0b3;" horiz-adv-x="439" 
d="M55 652c0 6 2 12 6 19l76 138c6 12 15 21 29 21c16 0 30 -13 30 -28c0 -7 -3 -12 -9 -22l-81 -134c-7 -11 -14 -18 -26 -18c-13 0 -25 10 -25 24zM130 517v-304c0 -42 8 -76 24 -99c23 -32 62 -48 123 -48h116c18 0 33 -15 33 -34c0 -17 -15 -32 -33 -32h-111
c-84 0 -148 22 -187 76c-28 38 -39 89 -39 154v287c0 19 17 35 37 35s37 -16 37 -35z" />
    <glyph glyph-name="Lsmallcaron" unicode="&#xe0b4;" horiz-adv-x="445" 
d="M75 36v481c0 19 16 35 36 35s37 -16 37 -35v-452h251c18 0 33 -14 33 -33s-15 -32 -33 -32h-288c-20 0 -36 16 -36 36zM254 392c0 21 33 27 33 55c0 26 -35 22 -35 61c0 23 15 45 47 45c36 0 56 -27 56 -67c0 -65 -60 -108 -87 -108c-8 0 -14 6 -14 14z" />
    <glyph glyph-name="Lsmallcaron.1" unicode="&#xe0b5;" horiz-adv-x="438" 
d="M128 517v-304c0 -42 9 -76 25 -99c22 -32 62 -48 123 -48h116c18 0 32 -15 32 -34c0 -17 -14 -32 -32 -32h-111c-85 0 -148 22 -187 76c-28 38 -39 89 -39 154v287c0 19 17 35 37 35s36 -16 36 -35zM234 392c0 20 34 26 34 55c0 26 -36 21 -36 61c0 23 15 44 47 44
c36 0 56 -26 56 -67c0 -64 -59 -107 -86 -107c-9 0 -15 6 -15 14z" />
    <glyph glyph-name="Lsmallcommaaccent" unicode="&#xe0b6;" horiz-adv-x="445" 
d="M75 36v481c0 19 16 35 36 35s37 -16 37 -35v-452h251c18 0 33 -14 33 -33s-15 -32 -33 -32h-288c-20 0 -36 16 -36 36zM202 -221c0 20 34 26 34 55c0 26 -36 21 -36 61c0 23 16 44 48 44c35 0 56 -26 56 -67c0 -64 -60 -107 -87 -107c-9 0 -15 6 -15 14z" />
    <glyph glyph-name="Lsmallcommaaccent.1" unicode="&#xe0b7;" horiz-adv-x="438" 
d="M128 517v-304c0 -42 9 -76 25 -99c22 -32 62 -48 123 -48h116c18 0 32 -15 32 -34c0 -17 -14 -32 -32 -32h-111c-85 0 -148 22 -187 76c-28 38 -39 89 -39 154v287c0 19 17 35 37 35s36 -16 36 -35zM194 -221c0 20 34 26 34 55c0 26 -36 21 -36 61c0 23 15 44 47 44
c36 0 56 -26 56 -67c0 -64 -59 -107 -86 -107c-9 0 -15 6 -15 14z" />
    <glyph glyph-name="M" unicode="M" horiz-adv-x="832" 
d="M75 641c0 27 19 49 49 49c21 0 35 -11 44 -26l248 -409l248 409c9 15 24 26 44 26c30 0 49 -22 49 -49v-613c0 -21 -15 -38 -38 -38c-24 0 -39 17 -39 38v514l-225 -364c-8 -13 -20 -25 -39 -25s-31 12 -39 25l-225 364v-514c0 -21 -15 -38 -38 -38c-24 0 -39 17 -39 38
v613z" />
    <glyph glyph-name="M.2" unicode="&#xe0b8;" horiz-adv-x="973" 
d="M75 641c0 27 19 49 49 49c21 0 35 -11 44 -26l318 -568l319 568c9 15 23 26 44 26c30 0 49 -22 49 -49v-613c0 -21 -15 -38 -39 -38c-23 0 -38 17 -38 38v510l-296 -523c-8 -14 -20 -25 -39 -25s-31 11 -39 25l-295 523v-510c0 -21 -15 -38 -38 -38c-24 0 -39 17 -39 38
v613z" />
    <glyph glyph-name="M.3" unicode="&#xe0b9;" horiz-adv-x="1175" 
d="M1022 29v352c0 134 -48 238 -196 238c-56 0 -105 -18 -141 -58c-34 -37 -57 -100 -57 -192v-340c0 -21 -18 -39 -40 -39s-40 18 -40 39v357c0 72 -20 144 -66 187c-30 28 -72 46 -130 46s-108 -18 -143 -57c-33 -36 -52 -90 -54 -173v-360c0 -21 -18 -39 -40 -39
s-40 18 -40 39v622c0 21 18 39 40 39s40 -18 40 -39v-54c47 60 117 93 205 93c62 0 112 -15 151 -43c40 -28 67 -70 85 -123c13 45 36 80 65 106c45 41 105 60 173 60c182 0 268 -118 268 -307v-354c0 -21 -18 -39 -40 -39s-40 18 -40 39z" />
    <glyph glyph-name="Msmall" unicode="&#xf76d;" horiz-adv-x="687" 
d="M72 27v483c0 24 18 42 44 42c18 0 30 -9 38 -22l189 -315l189 315c8 13 21 22 39 22c26 0 44 -18 44 -42v-483c0 -19 -15 -35 -36 -35s-36 16 -36 35v391c-6 -11 -157 -257 -164 -268c-7 -12 -17 -23 -35 -23s-30 11 -37 23l-163 268v-391c0 -19 -15 -35 -36 -35
s-36 16 -36 35z" />
    <glyph glyph-name="Msmall.2" unicode="&#xe0ba;" horiz-adv-x="827" 
d="M72 27v483c0 24 18 42 44 42c18 0 30 -9 38 -22l259 -449l259 449c8 13 21 22 39 22c26 0 44 -18 44 -42v-483c0 -19 -15 -35 -36 -35s-36 16 -36 35v391c-6 -11 -227 -391 -234 -403s-17 -22 -35 -22s-30 10 -37 22l-233 403v-391c0 -19 -15 -35 -36 -35s-36 16 -36 35z
" />
    <glyph glyph-name="Msmall.3" unicode="&#xe0bb;" horiz-adv-x="948" 
d="M810 28v290c0 56 -13 101 -40 129c-24 25 -60 39 -106 39s-90 -18 -116 -56c-24 -35 -33 -81 -33 -139v-263c0 -20 -17 -36 -37 -36s-36 16 -36 36v290c0 56 -14 101 -41 129c-23 25 -60 39 -106 39s-89 -18 -116 -56c-20 -30 -33 -78 -33 -129v-273
c0 -20 -17 -36 -37 -36s-37 16 -37 36v488c0 20 17 36 37 36s37 -16 37 -36v-38c37 48 99 74 164 74c47 0 90 -12 124 -37c26 -19 45 -44 57 -76c12 29 35 61 72 84c33 21 74 29 114 29c56 0 110 -16 149 -53c35 -34 57 -86 57 -165v-306c0 -20 -17 -36 -36 -36
c-21 0 -37 16 -37 36z" />
    <glyph glyph-name="N" unicode="N" horiz-adv-x="740" 
d="M665 653v-620c0 -24 -20 -43 -46 -43c-16 0 -29 9 -40 22l-427 538v-524c0 -20 -17 -36 -39 -36s-38 16 -38 36v621c0 23 20 43 45 43c16 0 29 -8 40 -22l428 -538v523c0 20 17 37 39 37c21 0 38 -17 38 -37z" />
    <glyph glyph-name="N.2" unicode="&#xe0bc;" horiz-adv-x="776" 
d="M624 27c0 79 -163 204 -240 266c-57 45 -110 90 -161 139c-29 27 -54 55 -71 81v-486c0 -20 -17 -37 -38 -37c-22 0 -39 17 -39 37v626c0 20 17 37 39 37c21 0 38 -18 38 -37c0 -72 117 -168 240 -266c55 -45 110 -90 161 -140c28 -28 53 -55 71 -81v487
c0 20 17 37 39 37c21 0 38 -17 38 -37v-626c0 -20 -17 -37 -38 -37c-22 0 -39 18 -39 37z" />
    <glyph glyph-name="N.3" unicode="&#xe0bd;" horiz-adv-x="724" 
d="M574 29v360c0 80 -15 142 -56 181c-31 29 -76 46 -138 46c-82 0 -144 -33 -184 -102c-27 -47 -40 -103 -41 -159v-326c0 -21 -18 -39 -40 -39s-40 18 -40 39v622c0 21 18 39 40 39s40 -18 40 -39v-92c47 91 130 131 234 131c78 0 141 -19 187 -61c51 -46 78 -121 78 -226
v-374c0 -21 -18 -39 -40 -39s-40 18 -40 39z" />
    <glyph glyph-name="Nacute" unicode="&#x143;" horiz-adv-x="740" 
d="M665 653v-620c0 -24 -20 -43 -46 -43c-16 0 -29 9 -40 22l-427 538v-524c0 -20 -17 -36 -39 -36s-38 16 -38 36v621c0 23 20 43 45 43c16 0 29 -8 40 -22l428 -538v523c0 20 17 37 39 37c21 0 38 -17 38 -37zM300 794c0 6 2 12 6 19l76 138c6 12 15 21 28 21
c17 0 30 -13 30 -28c0 -7 -2 -12 -8 -22l-81 -134c-7 -11 -15 -18 -26 -18c-13 0 -25 10 -25 24z" />
    <glyph glyph-name="Nacute.2" unicode="&#xe0be;" horiz-adv-x="776" 
d="M334 794c0 6 2 12 6 19l76 138c6 12 15 21 28 21c17 0 30 -13 30 -28c0 -7 -2 -12 -8 -22l-81 -134c-7 -11 -15 -18 -26 -18c-13 0 -25 10 -25 24zM624 27c0 79 -163 204 -240 266c-57 45 -110 90 -161 139c-29 27 -54 55 -71 81v-486c0 -20 -17 -37 -38 -37
c-22 0 -39 17 -39 37v626c0 20 17 37 39 37c21 0 38 -18 38 -37c0 -72 117 -168 240 -266c55 -45 110 -90 161 -140c28 -28 53 -55 71 -81v487c0 20 17 37 39 37c21 0 38 -17 38 -37v-626c0 -20 -17 -37 -38 -37c-22 0 -39 18 -39 37z" />
    <glyph glyph-name="Nacute.3" unicode="&#xe0bf;" horiz-adv-x="724" 
d="M574 29v360c0 80 -15 142 -56 181c-31 29 -76 46 -138 46c-82 0 -144 -33 -184 -102c-27 -47 -40 -103 -41 -159v-326c0 -21 -18 -39 -40 -39s-40 18 -40 39v622c0 21 18 39 40 39s40 -18 40 -39v-92c47 91 130 131 234 131c78 0 141 -19 187 -61c51 -46 78 -121 78 -226
v-374c0 -21 -18 -39 -40 -39s-40 18 -40 39zM309 794c0 6 2 12 6 19l76 138c6 12 15 21 28 21c17 0 30 -13 30 -28c0 -7 -2 -12 -8 -22l-81 -134c-7 -11 -15 -18 -26 -18c-13 0 -25 10 -25 24z" />
    <glyph glyph-name="Ncaron" unicode="&#x147;" horiz-adv-x="740" 
d="M665 653v-620c0 -24 -20 -43 -46 -43c-16 0 -29 9 -40 22l-427 538v-524c0 -20 -17 -36 -39 -36s-38 16 -38 36v621c0 23 20 43 45 43c16 0 29 -8 40 -22l428 -538v523c0 20 17 37 39 37c21 0 38 -17 38 -37zM212 944c0 16 12 27 27 27c8 0 17 -5 22 -11l110 -114
l111 114c5 6 13 11 22 11c14 0 27 -11 27 -27c0 -9 -6 -16 -13 -23l-123 -127c-6 -6 -13 -11 -24 -11c-10 0 -17 5 -23 11l-124 127c-7 7 -12 15 -12 23z" />
    <glyph glyph-name="Ncaron.2" unicode="&#xe0c0;" horiz-adv-x="776" 
d="M240 944c0 16 12 27 27 27c8 0 17 -5 22 -11l110 -114l111 114c5 6 13 11 22 11c14 0 27 -11 27 -27c0 -9 -6 -16 -13 -23l-123 -127c-6 -6 -13 -11 -24 -11c-10 0 -17 5 -23 11l-124 127c-7 7 -12 15 -12 23zM624 27c0 79 -163 204 -240 266c-57 45 -110 90 -161 139
c-29 27 -54 55 -71 81v-486c0 -20 -17 -37 -38 -37c-22 0 -39 17 -39 37v626c0 20 17 37 39 37c21 0 38 -18 38 -37c0 -72 117 -168 240 -266c55 -45 110 -90 161 -140c28 -28 53 -55 71 -81v487c0 20 17 37 39 37c21 0 38 -17 38 -37v-626c0 -20 -17 -37 -38 -37
c-22 0 -39 18 -39 37z" />
    <glyph glyph-name="Ncaron.3" unicode="&#xe0c1;" horiz-adv-x="724" 
d="M574 29v360c0 80 -15 142 -56 181c-31 29 -76 46 -138 46c-82 0 -144 -33 -184 -102c-27 -47 -40 -103 -41 -159v-326c0 -21 -18 -39 -40 -39s-40 18 -40 39v622c0 21 18 39 40 39s40 -18 40 -39v-92c47 91 130 131 234 131c78 0 141 -19 187 -61c51 -46 78 -121 78 -226
v-374c0 -21 -18 -39 -40 -39s-40 18 -40 39zM233 944c0 16 12 27 27 27c8 0 17 -5 22 -11l110 -114l111 114c5 6 13 11 22 11c14 0 27 -11 27 -27c0 -9 -6 -16 -13 -23l-123 -127c-6 -6 -13 -11 -24 -11c-10 0 -17 5 -23 11l-124 127c-7 7 -12 15 -12 23z" />
    <glyph glyph-name="Ncommaaccent" unicode="&#x145;" horiz-adv-x="740" 
d="M665 653v-620c0 -24 -20 -43 -46 -43c-16 0 -29 9 -40 22l-427 538v-524c0 -20 -17 -36 -39 -36s-38 16 -38 36v621c0 23 20 43 45 43c16 0 29 -8 40 -22l428 -538v523c0 20 17 37 39 37c21 0 38 -17 38 -37zM322 -221c0 20 34 26 34 55c0 26 -36 21 -36 61
c0 23 15 44 47 44c36 0 56 -26 56 -67c0 -64 -59 -107 -86 -107c-9 0 -15 6 -15 14z" />
    <glyph glyph-name="Ncommaaccent.2" unicode="&#xe0c2;" horiz-adv-x="776" 
d="M344 -221c0 20 34 26 34 55c0 26 -36 21 -36 61c0 23 15 44 47 44c36 0 56 -26 56 -67c0 -64 -59 -107 -86 -107c-9 0 -15 6 -15 14zM624 27c0 79 -163 204 -240 266c-57 45 -110 90 -161 139c-29 27 -54 55 -71 81v-486c0 -20 -17 -37 -38 -37c-22 0 -39 17 -39 37v626
c0 20 17 37 39 37c21 0 38 -18 38 -37c0 -72 117 -168 240 -266c55 -45 110 -90 161 -140c28 -28 53 -55 71 -81v487c0 20 17 37 39 37c21 0 38 -17 38 -37v-626c0 -20 -17 -37 -38 -37c-22 0 -39 18 -39 37z" />
    <glyph glyph-name="Ncommaaccent.3" unicode="&#xe0c3;" horiz-adv-x="724" 
d="M574 29v360c0 80 -15 142 -56 181c-31 29 -76 46 -138 46c-82 0 -144 -33 -184 -102c-27 -47 -40 -103 -41 -159v-326c0 -21 -18 -39 -40 -39s-40 18 -40 39v622c0 21 18 39 40 39s40 -18 40 -39v-92c47 91 130 131 234 131c78 0 141 -19 187 -61c51 -46 78 -121 78 -226
v-374c0 -21 -18 -39 -40 -39s-40 18 -40 39zM323 -221c0 20 34 26 34 55c0 26 -36 21 -36 61c0 23 15 44 47 44c36 0 56 -26 56 -67c0 -64 -59 -107 -86 -107c-9 0 -15 6 -15 14z" />
    <glyph glyph-name="Nsmall" unicode="&#xf76e;" horiz-adv-x="622" 
d="M550 519v-494c0 -18 -17 -33 -35 -33c-14 0 -25 9 -33 18l-340 413v-398c0 -18 -15 -33 -35 -33s-35 15 -35 33v494c0 18 17 33 35 33c14 0 25 -9 33 -18l340 -413v398c0 18 15 33 35 33s35 -15 35 -33z" />
    <glyph glyph-name="Nsmall.2" unicode="&#xe0c4;" horiz-adv-x="658" 
d="M586 519v-494c0 -18 -15 -33 -36 -33c-20 0 -34 17 -34 33c0 57 -95 135 -190 208c-64 49 -141 108 -184 169v-377c0 -18 -15 -33 -35 -33s-35 15 -35 33v494c0 18 15 33 35 33s35 -17 35 -33c0 -57 94 -135 190 -208c63 -49 141 -108 184 -170v378c0 18 14 33 34 33
c21 0 36 -15 36 -33z" />
    <glyph glyph-name="Nsmall.3" unicode="&#xe0c5;" horiz-adv-x="613" 
d="M475 28v280c0 61 -12 110 -45 142c-24 23 -60 36 -109 36c-64 0 -112 -29 -143 -85c-22 -39 -32 -86 -32 -131v-242c0 -20 -17 -36 -37 -36s-37 16 -37 36v488c0 20 17 36 37 36s37 -16 37 -36v-72c37 70 107 108 190 108c62 0 113 -16 150 -49c41 -37 62 -97 62 -181
v-294c0 -20 -17 -36 -36 -36c-21 0 -37 16 -37 36z" />
    <glyph glyph-name="Nsmallacute" unicode="&#xe0c6;" horiz-adv-x="627" 
d="M552 519v-494c0 -18 -16 -33 -35 -33c-14 0 -25 9 -32 18l-340 413v-398c0 -18 -15 -33 -36 -33c-20 0 -34 15 -34 33v494c0 18 16 33 34 33c15 0 25 -9 33 -18l340 -413v398c0 18 15 33 35 33c21 0 35 -15 35 -33zM249 652c0 6 2 12 6 19l76 138c6 12 15 21 29 21
c16 0 30 -13 30 -28c0 -7 -3 -12 -9 -22l-81 -134c-7 -11 -14 -18 -26 -18c-13 0 -25 10 -25 24z" />
    <glyph glyph-name="Nsmallacute.2" unicode="&#xe0c7;" horiz-adv-x="658" 
d="M273 652c0 6 2 12 6 19l76 138c6 12 15 21 28 21c17 0 30 -13 30 -28c0 -7 -2 -12 -8 -22l-81 -134c-7 -11 -15 -18 -26 -18c-13 0 -25 10 -25 24zM586 519v-494c0 -18 -15 -33 -36 -33c-20 0 -34 17 -34 33c0 57 -95 135 -190 208c-64 49 -141 108 -184 169v-377
c0 -18 -15 -33 -35 -33s-35 15 -35 33v494c0 18 15 33 35 33s35 -17 35 -33c0 -57 94 -135 190 -208c63 -49 141 -108 184 -170v378c0 18 14 33 34 33c21 0 36 -15 36 -33z" />
    <glyph glyph-name="Nsmallacute.3" unicode="&#xe0c8;" horiz-adv-x="613" 
d="M475 28v280c0 61 -12 110 -45 142c-24 23 -60 36 -109 36c-64 0 -112 -29 -143 -85c-22 -39 -32 -86 -32 -131v-242c0 -20 -17 -36 -37 -36s-37 16 -37 36v488c0 20 17 36 37 36s37 -16 37 -36v-72c37 70 107 108 190 108c62 0 113 -16 150 -49c41 -37 62 -97 62 -181
v-294c0 -20 -17 -36 -36 -36c-21 0 -37 16 -37 36zM262 652c0 6 2 12 6 19l76 138c6 12 15 21 28 21c17 0 30 -13 30 -28c0 -7 -2 -12 -8 -22l-81 -134c-7 -11 -15 -18 -26 -18c-13 0 -25 10 -25 24z" />
    <glyph glyph-name="Nsmallcaron" unicode="&#xe0c9;" horiz-adv-x="627" 
d="M552 519v-494c0 -18 -16 -33 -35 -33c-14 0 -25 9 -32 18l-340 413v-398c0 -18 -15 -33 -36 -33c-20 0 -34 15 -34 33v494c0 18 16 33 34 33c15 0 25 -9 33 -18l340 -413v398c0 18 15 33 35 33c21 0 35 -15 35 -33zM154 802c0 16 12 27 27 27c7 0 14 -2 19 -8l113 -117
l114 117c5 6 11 8 19 8c14 0 26 -11 26 -27c0 -8 -5 -15 -12 -23l-123 -127c-6 -7 -14 -11 -24 -11s-18 4 -24 11l-123 127c-7 7 -12 15 -12 23z" />
    <glyph glyph-name="Nsmallcaron.2" unicode="&#xe0ca;" horiz-adv-x="658" 
d="M169 802c0 16 12 27 27 27c8 0 17 -5 22 -11l110 -114l111 114c5 6 13 11 22 11c14 0 27 -11 27 -27c0 -9 -6 -16 -13 -23l-123 -127c-6 -6 -13 -11 -24 -11c-10 0 -17 5 -23 11l-124 127c-7 7 -12 15 -12 23zM586 519v-494c0 -18 -15 -33 -36 -33c-20 0 -34 17 -34 33
c0 57 -95 135 -190 208c-64 49 -141 108 -184 169v-377c0 -18 -15 -33 -35 -33s-35 15 -35 33v494c0 18 15 33 35 33s35 -17 35 -33c0 -57 94 -135 190 -208c63 -49 141 -108 184 -170v378c0 18 14 33 34 33c21 0 36 -15 36 -33z" />
    <glyph glyph-name="Nsmallcaron.3" unicode="&#xe0cb;" horiz-adv-x="613" 
d="M475 28v280c0 61 -12 110 -45 142c-24 23 -60 36 -109 36c-64 0 -112 -29 -143 -85c-22 -39 -32 -86 -32 -131v-242c0 -20 -17 -36 -37 -36s-37 16 -37 36v488c0 20 17 36 37 36s37 -16 37 -36v-72c37 70 107 108 190 108c62 0 113 -16 150 -49c41 -37 62 -97 62 -181
v-294c0 -20 -17 -36 -36 -36c-21 0 -37 16 -37 36zM159 802c0 16 12 27 27 27c8 0 17 -5 22 -11l110 -114l111 114c5 6 13 11 22 11c14 0 27 -11 27 -27c0 -9 -6 -16 -13 -23l-123 -127c-6 -6 -13 -11 -24 -11c-10 0 -17 5 -23 11l-124 127c-7 7 -12 15 -12 23z" />
    <glyph glyph-name="Nsmallcommaaccent" unicode="&#xe0cc;" horiz-adv-x="627" 
d="M552 519v-494c0 -18 -16 -33 -35 -33c-14 0 -25 9 -32 18l-340 413v-398c0 -18 -15 -33 -36 -33c-20 0 -34 15 -34 33v494c0 18 16 33 34 33c15 0 25 -9 33 -18l340 -413v398c0 18 15 33 35 33c21 0 35 -15 35 -33zM268 -221c0 20 33 26 33 55c0 26 -35 21 -35 61
c0 23 15 44 47 44c36 0 56 -26 56 -67c0 -64 -60 -107 -87 -107c-8 0 -14 6 -14 14z" />
    <glyph glyph-name="Nsmallcommaaccent.2" unicode="&#xe0cd;" horiz-adv-x="658" 
d="M288 -221c0 20 34 26 34 55c0 26 -36 21 -36 61c0 23 15 44 47 44c36 0 56 -26 56 -67c0 -64 -59 -107 -86 -107c-9 0 -15 6 -15 14zM586 519v-494c0 -18 -15 -33 -36 -33c-20 0 -34 17 -34 33c0 57 -95 135 -190 208c-64 49 -141 108 -184 169v-377
c0 -18 -15 -33 -35 -33s-35 15 -35 33v494c0 18 15 33 35 33s35 -17 35 -33c0 -57 94 -135 190 -208c63 -49 141 -108 184 -170v378c0 18 14 33 34 33c21 0 36 -15 36 -33z" />
    <glyph glyph-name="Nsmallcommaaccent.3" unicode="&#xe0ce;" horiz-adv-x="613" 
d="M475 28v280c0 61 -12 110 -45 142c-24 23 -60 36 -109 36c-64 0 -112 -29 -143 -85c-22 -39 -32 -86 -32 -131v-242c0 -20 -17 -36 -37 -36s-37 16 -37 36v488c0 20 17 36 37 36s37 -16 37 -36v-72c37 70 107 108 190 108c62 0 113 -16 150 -49c41 -37 62 -97 62 -181
v-294c0 -20 -17 -36 -36 -36c-21 0 -37 16 -37 36zM265 -221c0 20 34 26 34 55c0 26 -36 21 -36 61c0 23 15 44 47 44c36 0 56 -26 56 -67c0 -64 -59 -107 -86 -107c-9 0 -15 6 -15 14z" />
    <glyph glyph-name="Nsmalltilde" unicode="&#xe0cf;" horiz-adv-x="627" 
d="M552 519v-494c0 -18 -16 -33 -35 -33c-14 0 -25 9 -32 18l-340 413v-398c0 -18 -15 -33 -36 -33c-20 0 -34 15 -34 33v494c0 18 16 33 34 33c15 0 25 -9 33 -18l340 -413v398c0 18 15 33 35 33c21 0 35 -15 35 -33zM478 744c0 -15 -10 -31 -21 -42
c-17 -18 -44 -28 -70 -28c-31 0 -57 13 -79 27c-21 13 -38 27 -62 27c-42 0 -44 -44 -72 -44c-15 0 -25 11 -25 26c0 16 11 31 22 42c17 18 43 29 70 29c32 0 59 -13 79 -26c22 -14 39 -29 62 -29c41 0 45 45 72 45c15 0 24 -12 24 -27z" />
    <glyph glyph-name="Nsmalltilde.2" unicode="&#xe0d0;" horiz-adv-x="658" 
d="M493 744c0 -15 -10 -31 -21 -42c-17 -18 -44 -28 -70 -28c-31 0 -57 13 -79 27c-21 13 -38 27 -62 27c-42 0 -44 -44 -72 -44c-15 0 -25 11 -25 26c0 16 11 31 22 42c17 18 43 29 70 29c32 0 59 -13 79 -26c22 -14 39 -29 62 -29c41 0 45 45 72 45c15 0 24 -12 24 -27z
M586 519v-494c0 -18 -15 -33 -36 -33c-20 0 -34 17 -34 33c0 57 -95 135 -190 208c-64 49 -141 108 -184 169v-377c0 -18 -15 -33 -35 -33s-35 15 -35 33v494c0 18 15 33 35 33s35 -17 35 -33c0 -57 94 -135 190 -208c63 -49 141 -108 184 -170v378c0 18 14 33 34 33
c21 0 36 -15 36 -33z" />
    <glyph glyph-name="Nsmalltilde.3" unicode="&#xe0d1;" horiz-adv-x="613" 
d="M475 28v280c0 61 -12 110 -45 142c-24 23 -60 36 -109 36c-64 0 -112 -29 -143 -85c-22 -39 -32 -86 -32 -131v-242c0 -20 -17 -36 -37 -36s-37 16 -37 36v488c0 20 17 36 37 36s37 -16 37 -36v-72c37 70 107 108 190 108c62 0 113 -16 150 -49c41 -37 62 -97 62 -181
v-294c0 -20 -17 -36 -36 -36c-21 0 -37 16 -37 36zM483 744c0 -15 -10 -31 -21 -42c-17 -18 -44 -28 -70 -28c-31 0 -57 13 -79 27c-21 13 -38 27 -62 27c-42 0 -44 -44 -72 -44c-15 0 -25 11 -25 26c0 16 11 31 22 42c17 18 43 29 70 29c32 0 59 -13 79 -26
c22 -14 39 -29 62 -29c41 0 45 45 72 45c15 0 24 -12 24 -27z" />
    <glyph glyph-name="Ntilde" unicode="&#xd1;" horiz-adv-x="740" 
d="M665 653v-620c0 -24 -20 -43 -46 -43c-16 0 -29 9 -40 22l-427 538v-524c0 -20 -17 -36 -39 -36s-38 16 -38 36v621c0 23 20 43 45 43c16 0 29 -8 40 -22l428 -538v523c0 20 17 37 39 37c21 0 38 -17 38 -37zM535 910c0 -15 -10 -31 -21 -42c-17 -18 -44 -28 -70 -28
c-31 0 -57 13 -79 27c-21 13 -38 27 -62 27c-42 0 -44 -44 -72 -44c-15 0 -25 11 -25 26c0 16 11 31 22 42c17 18 43 29 70 29c32 0 59 -13 79 -26c22 -14 39 -29 62 -29c41 0 45 45 72 45c15 0 24 -12 24 -27z" />
    <glyph glyph-name="Ntilde.2" unicode="&#xe0d2;" horiz-adv-x="776" 
d="M551 910c0 -15 -10 -31 -21 -42c-17 -18 -44 -28 -70 -28c-31 0 -57 13 -79 27c-21 13 -38 27 -62 27c-42 0 -44 -44 -72 -44c-15 0 -25 11 -25 26c0 16 11 31 22 42c17 18 43 29 70 29c32 0 59 -13 79 -26c22 -14 39 -29 62 -29c41 0 45 45 72 45c15 0 24 -12 24 -27z
M624 27c0 79 -163 204 -240 266c-57 45 -110 90 -161 139c-29 27 -54 55 -71 81v-486c0 -20 -17 -37 -38 -37c-22 0 -39 17 -39 37v626c0 20 17 37 39 37c21 0 38 -18 38 -37c0 -72 117 -168 240 -266c55 -45 110 -90 161 -140c28 -28 53 -55 71 -81v487c0 20 17 37 39 37
c21 0 38 -17 38 -37v-626c0 -20 -17 -37 -38 -37c-22 0 -39 18 -39 37z" />
    <glyph glyph-name="Ntilde.3" unicode="&#xe0d3;" horiz-adv-x="724" 
d="M574 29v360c0 80 -15 142 -56 181c-31 29 -76 46 -138 46c-82 0 -144 -33 -184 -102c-27 -47 -40 -103 -41 -159v-326c0 -21 -18 -39 -40 -39s-40 18 -40 39v622c0 21 18 39 40 39s40 -18 40 -39v-92c47 91 130 131 234 131c78 0 141 -19 187 -61c51 -46 78 -121 78 -226
v-374c0 -21 -18 -39 -40 -39s-40 18 -40 39zM551 910c0 -15 -10 -31 -21 -42c-17 -18 -44 -28 -70 -28c-31 0 -57 13 -79 27c-21 13 -38 27 -62 27c-42 0 -44 -44 -72 -44c-15 0 -25 11 -25 26c0 16 11 31 22 42c17 18 43 29 70 29c32 0 59 -13 79 -26c22 -14 39 -29 62 -29
c41 0 45 45 72 45c15 0 24 -12 24 -27z" />
    <glyph glyph-name="O" unicode="O" horiz-adv-x="806" 
d="M759 339c0 -198 -161 -349 -356 -349s-356 152 -356 349c0 198 161 351 356 351s356 -153 356 -351zM675 339c0 151 -119 276 -272 276s-271 -125 -271 -276c0 -152 118 -275 271 -275s272 124 272 275z" />
    <glyph glyph-name="OE" unicode="&#x152;" horiz-adv-x="1204" 
d="M404 691c109 0 207 -49 273 -127v78c0 21 18 39 40 39h421c19 0 35 -17 35 -35c0 -20 -16 -36 -35 -36h-381v-232v-1h329c20 0 35 -17 35 -36s-15 -35 -35 -35h-329v-235h381c19 0 35 -17 35 -36s-16 -35 -35 -35h-421c-22 0 -40 18 -40 39v75
c-66 -77 -164 -124 -273 -124c-195 0 -357 152 -357 349c0 198 162 352 357 352zM675 339c0 148 -120 277 -272 277c-150 0 -271 -129 -271 -277c0 -149 120 -275 271 -275c152 0 272 127 272 275z" />
    <glyph glyph-name="OE.1" unicode="&#xe0d4;" horiz-adv-x="1182" 
d="M1150 646c0 -20 -15 -36 -34 -36h-156c-81 0 -136 -22 -168 -68c-23 -32 -34 -75 -34 -128v-36h307c19 0 34 -16 34 -35c0 -20 -15 -35 -34 -35h-307v-39c0 -62 14 -111 46 -145c33 -35 84 -53 156 -53h156c19 0 34 -16 34 -36c0 -19 -15 -35 -34 -35h-157
c-98 0 -172 26 -220 82c-16 18 -29 39 -39 63c-64 -95 -173 -155 -296 -155c-195 0 -357 152 -357 349c0 198 162 352 357 352c123 0 232 -62 296 -157c9 21 19 39 32 56c46 62 123 91 227 91h157c19 0 34 -16 34 -35zM675 339c0 148 -120 277 -272 277
c-150 0 -271 -129 -271 -277c0 -149 120 -275 271 -275c152 0 272 127 272 275z" />
    <glyph glyph-name="OE.2" unicode="&#xe0d5;" horiz-adv-x="1242" 
d="M759 256v-185h417c19 0 34 -16 34 -36c0 -19 -15 -35 -34 -35h-457c-23 0 -40 18 -40 39v78c-66 -79 -165 -127 -275 -127c-195 0 -357 152 -357 349c0 198 162 352 357 352c110 0 209 -50 275 -129v80c0 21 17 39 40 39h457c19 0 34 -16 34 -35c0 -20 -15 -36 -34 -36
h-417v-283h359c19 0 34 -17 34 -36s-15 -35 -34 -35h-359zM675 339c0 148 -120 277 -272 277c-150 0 -271 -129 -271 -277c0 -149 120 -275 271 -275c152 0 272 127 272 275z" />
    <glyph glyph-name="OE.3" unicode="&#xe0d6;" horiz-adv-x="1348" 
d="M1256 320h-493c5 -71 28 -130 65 -173c47 -54 115 -85 195 -85c59 0 102 11 133 24c48 19 70 43 88 43c21 0 35 -15 35 -37c0 -24 -32 -49 -78 -68c-52 -21 -118 -34 -178 -34c-117 0 -204 40 -264 109c-18 20 -33 43 -45 68c-61 -107 -178 -177 -310 -177
c-195 0 -357 152 -357 349c0 198 162 352 357 352c130 0 246 -70 308 -176c13 28 29 53 50 75c54 59 133 100 239 100c100 0 177 -39 226 -93c57 -61 81 -138 81 -219c0 -40 -22 -58 -52 -58zM675 339c0 148 -120 277 -272 277c-150 0 -271 -129 -271 -277
c0 -149 120 -275 271 -275c152 0 272 127 272 275zM764 389h460c-3 68 -24 120 -58 158c-37 41 -94 69 -165 69c-78 0 -139 -30 -180 -79c-32 -37 -52 -91 -57 -148z" />
    <glyph glyph-name="OEsmall" unicode="&#xf6fa;" horiz-adv-x="960" 
d="M48 272c0 68 22 129 60 176c51 65 131 104 226 104c84 0 159 -32 210 -86v42c0 20 16 36 36 36h331c18 0 33 -13 33 -32c0 -20 -15 -33 -33 -33h-294v-174h255c17 0 32 -13 32 -32c0 -20 -15 -33 -32 -33h-255v-175h294c18 0 33 -14 33 -33s-15 -32 -33 -32h-331
c-20 0 -36 16 -36 35v42c-51 -53 -126 -85 -210 -85c-95 0 -175 39 -226 104c-38 47 -60 108 -60 176zM124 272c0 -54 18 -102 49 -139c38 -45 95 -73 161 -73s123 28 160 73c31 37 49 85 49 139s-18 102 -49 139c-37 45 -94 73 -160 73s-123 -28 -161 -73
c-31 -37 -49 -85 -49 -139z" />
    <glyph glyph-name="OEsmall.2" unicode="&#xe0d7;" horiz-adv-x="990" 
d="M617 209v-144h324c18 0 33 -14 33 -33s-15 -32 -33 -32h-361c-20 0 -36 16 -36 35v42c-51 -53 -126 -85 -210 -85c-95 0 -175 39 -226 104c-38 47 -60 108 -60 176s22 129 60 176c51 65 131 104 226 104c84 0 159 -32 210 -86v42c0 20 16 36 36 36h361
c18 0 33 -13 33 -32c0 -20 -15 -33 -33 -33h-324v-205h277c17 0 32 -13 32 -32c0 -20 -15 -33 -32 -33h-277zM124 272c0 -54 18 -102 49 -139c38 -45 95 -73 161 -73s123 28 160 73c31 37 49 85 49 139s-18 102 -49 139c-37 45 -94 73 -160 73s-123 -28 -161 -73
c-31 -37 -49 -85 -49 -139z" />
    <glyph glyph-name="OEsmall.3" unicode="&#xe0d8;" horiz-adv-x="1087" 
d="M819 59c45 0 79 9 104 19c36 15 55 34 69 34c19 0 33 -15 33 -35s-26 -42 -69 -59c-41 -17 -92 -26 -139 -26c-93 0 -163 32 -210 87c-12 13 -23 28 -32 45c-6 -10 -12 -19 -19 -28c-51 -65 -131 -104 -226 -104c-94 0 -175 39 -226 104c-37 47 -59 108 -59 176
s22 129 59 176c51 65 132 104 226 104c95 0 175 -39 226 -104c6 -8 12 -17 18 -26c9 18 21 35 35 51c43 47 106 79 191 79c80 0 143 -32 183 -75c44 -48 64 -111 64 -176c0 -34 -19 -49 -45 -49h-381c4 -50 20 -94 46 -126c36 -44 89 -67 152 -67zM121 272
c0 -54 18 -102 49 -139c37 -45 94 -73 160 -73s123 28 161 73c31 37 49 85 49 139s-18 102 -49 139c-38 45 -95 73 -161 73s-123 -28 -160 -73c-31 -37 -49 -85 -49 -139zM622 311h349c-2 50 -18 94 -46 123s-73 51 -123 51c-59 0 -103 -22 -135 -59
c-25 -30 -41 -72 -45 -115z" />
    <glyph glyph-name="Oacute" unicode="&#xd3;" horiz-adv-x="806" 
d="M759 339c0 -198 -161 -349 -356 -349s-356 152 -356 349c0 198 161 351 356 351s356 -153 356 -351zM675 339c0 151 -119 276 -272 276s-271 -125 -271 -276c0 -152 118 -275 271 -275s272 124 272 275zM333 794c0 6 2 12 6 19l76 138c6 12 15 21 28 21
c17 0 30 -13 30 -28c0 -7 -2 -12 -8 -22l-81 -134c-7 -11 -15 -18 -26 -18c-13 0 -25 10 -25 24z" />
    <glyph glyph-name="Ocircumflex" unicode="&#xd4;" horiz-adv-x="806" 
d="M759 339c0 -198 -161 -349 -356 -349s-356 152 -356 349c0 198 161 351 356 351s356 -153 356 -351zM675 339c0 151 -119 276 -272 276s-271 -125 -271 -276c0 -152 118 -275 271 -275s272 124 272 275zM402 971c11 0 18 -6 24 -12l123 -127c7 -8 13 -14 13 -22
c0 -17 -13 -27 -27 -27c-8 0 -13 2 -19 8l-114 117l-113 -117c-6 -6 -12 -8 -19 -8c-15 0 -27 10 -27 27c0 8 5 15 12 22l124 127c6 6 13 12 23 12z" />
    <glyph glyph-name="Odieresis" unicode="&#xd6;" horiz-adv-x="806" 
d="M759 339c0 -198 -161 -349 -356 -349s-356 152 -356 349c0 198 161 351 356 351s356 -153 356 -351zM675 339c0 151 -119 276 -272 276s-271 -125 -271 -276c0 -152 118 -275 271 -275s272 124 272 275zM308 825c-24 0 -44 20 -44 45c0 24 20 43 44 43
c25 0 44 -19 44 -43c0 -25 -19 -45 -44 -45zM496 825c-24 0 -44 20 -44 45c0 24 20 43 44 43s44 -19 44 -43c0 -25 -20 -45 -44 -45z" />
    <glyph glyph-name="Ograve" unicode="&#xd2;" horiz-adv-x="806" 
d="M759 339c0 -198 -161 -349 -356 -349s-356 152 -356 349c0 198 161 351 356 351s356 -153 356 -351zM675 339c0 151 -119 276 -272 276s-271 -125 -271 -276c0 -152 118 -275 271 -275s272 124 272 275zM473 794c0 -14 -12 -24 -26 -24c-11 0 -19 6 -26 18l-81 134
c-6 10 -8 15 -8 22c0 15 14 28 30 28c13 0 22 -10 28 -21l77 -138c4 -7 6 -13 6 -19z" />
    <glyph glyph-name="Ohungarumlaut" unicode="&#x150;" horiz-adv-x="806" 
d="M759 339c0 -198 -161 -349 -356 -349s-356 152 -356 349c0 198 161 351 356 351s356 -153 356 -351zM675 339c0 151 -119 276 -272 276s-271 -125 -271 -276c0 -152 118 -275 271 -275s272 124 272 275zM240 794c0 6 2 12 6 19l76 138c6 12 15 21 29 21
c16 0 30 -13 30 -28c0 -7 -3 -12 -9 -22l-81 -134c-7 -11 -14 -18 -26 -18c-13 0 -25 10 -25 24zM425 794c0 6 2 12 6 19l76 138c6 12 15 21 28 21c17 0 30 -13 30 -28c0 -7 -2 -12 -8 -22l-81 -134c-7 -11 -15 -18 -26 -18c-13 0 -25 10 -25 24z" />
    <glyph glyph-name="Omacron" unicode="&#x14c;" horiz-adv-x="806" 
d="M759 339c0 -198 -161 -349 -356 -349s-356 152 -356 349c0 198 161 351 356 351s356 -153 356 -351zM675 339c0 151 -119 276 -272 276s-271 -125 -271 -276c0 -152 118 -275 271 -275s272 124 272 275zM537 881c0 -17 -13 -30 -30 -30h-206c-16 0 -30 13 -30 30
c0 16 14 30 30 30h206c17 0 30 -14 30 -30z" />
    <glyph glyph-name="Omega" unicode="&#x3a9;" horiz-adv-x="753" 
d="M377 690c174 0 290 -97 290 -285c0 -97 -38 -170 -82 -226c-43 -55 -75 -86 -90 -116h156c17 0 31 -15 31 -32s-14 -31 -31 -31h-196c-21 0 -34 14 -34 32c0 37 34 68 82 130c40 52 82 125 82 231c0 149 -79 226 -208 226s-208 -77 -208 -226c0 -106 43 -179 81 -231
c49 -62 83 -93 83 -130c0 -18 -13 -32 -35 -32h-195c-17 0 -32 14 -32 31s15 32 32 32h155c-14 30 -46 61 -89 116c-44 56 -83 129 -83 226c0 188 116 285 291 285z" />
    <glyph glyph-name="Omega" unicode="&#x2126;" horiz-adv-x="753" 
d="M377 690c174 0 290 -97 290 -285c0 -97 -38 -170 -82 -226c-43 -55 -75 -86 -90 -116h156c17 0 31 -15 31 -32s-14 -31 -31 -31h-196c-21 0 -34 14 -34 32c0 37 34 68 82 130c40 52 82 125 82 231c0 149 -79 226 -208 226s-208 -77 -208 -226c0 -106 43 -179 81 -231
c49 -62 83 -93 83 -130c0 -18 -13 -32 -35 -32h-195c-17 0 -32 14 -32 31s15 32 32 32h155c-14 30 -46 61 -89 116c-44 56 -83 129 -83 226c0 188 116 285 291 285z" />
    <glyph glyph-name="Oslash" unicode="&#xd8;" horiz-adv-x="806" 
d="M657 675c5 6 12 10 21 10c14 0 26 -12 26 -28c0 -6 -2 -13 -7 -18l-44 -51c65 -62 106 -151 106 -249c0 -198 -161 -349 -355 -349c-79 0 -151 24 -210 67l-46 -54c-5 -6 -12 -10 -21 -10c-14 0 -26 12 -26 28c0 6 2 13 7 18l44 52c-65 62 -105 150 -105 248
c0 198 162 351 357 351c77 0 149 -25 207 -68zM675 339c0 71 -29 138 -77 186l-351 -408c43 -34 97 -53 156 -53c151 0 272 127 272 275zM132 339c0 -71 28 -138 75 -186l351 408c-43 34 -96 54 -155 54c-151 0 -271 -128 -271 -276z" />
    <glyph glyph-name="Osmall" unicode="&#xf76f;" horiz-adv-x="660" 
d="M121 272c0 -54 18 -102 49 -139c37 -45 94 -73 160 -73s123 28 161 73c31 37 49 85 49 139s-18 102 -49 139c-38 45 -95 73 -161 73s-123 -28 -160 -73c-31 -37 -49 -85 -49 -139zM45 272c0 68 22 129 59 176c51 65 132 104 226 104c95 0 175 -39 226 -104
c38 -47 60 -108 60 -176s-22 -129 -60 -176c-51 -65 -131 -104 -226 -104c-94 0 -175 39 -226 104c-37 47 -59 108 -59 176z" />
    <glyph glyph-name="Osmallacute" unicode="&#xe0d9;" horiz-adv-x="668" 
d="M124 272c0 -54 18 -102 49 -139c38 -45 95 -73 161 -73s123 28 160 73c31 37 49 85 49 139s-18 102 -49 139c-37 45 -94 73 -160 73s-123 -28 -161 -73c-31 -37 -49 -85 -49 -139zM48 272c0 68 22 129 60 176c51 65 131 104 226 104c94 0 175 -39 226 -104
c37 -47 59 -108 59 -176s-22 -129 -59 -176c-51 -65 -132 -104 -226 -104c-95 0 -175 39 -226 104c-38 47 -60 108 -60 176zM264 652c0 6 2 12 6 19l76 138c6 12 15 21 28 21c16 0 30 -13 30 -28c0 -7 -2 -12 -8 -22l-81 -134c-7 -11 -15 -18 -26 -18c-13 0 -25 10 -25 24z
" />
    <glyph glyph-name="Osmallcircumflex" unicode="&#xe0da;" horiz-adv-x="668" 
d="M124 272c0 -54 18 -102 49 -139c37 -45 94 -73 160 -73s123 28 161 73c31 37 49 85 49 139s-18 102 -49 139c-38 45 -95 73 -161 73s-123 -28 -160 -73c-31 -37 -49 -85 -49 -139zM48 272c0 68 22 129 59 176c51 65 132 104 226 104c95 0 175 -39 226 -104
c38 -47 60 -108 60 -176s-22 -129 -60 -176c-51 -65 -131 -104 -226 -104c-94 0 -175 39 -226 104c-37 47 -59 108 -59 176zM333 829c11 0 18 -6 24 -12l123 -127c7 -8 13 -14 13 -22c0 -17 -13 -27 -27 -27c-8 0 -13 2 -19 8l-114 117l-113 -117c-6 -6 -12 -8 -19 -8
c-15 0 -27 10 -27 27c0 8 5 15 12 22l124 127c6 6 13 12 23 12z" />
    <glyph glyph-name="Osmalldieresis" unicode="&#xe0db;" horiz-adv-x="668" 
d="M124 272c0 -54 18 -102 49 -139c37 -45 94 -73 160 -73s123 28 161 73c31 37 49 85 49 139s-18 102 -49 139c-38 45 -95 73 -161 73s-123 -28 -160 -73c-31 -37 -49 -85 -49 -139zM48 272c0 68 22 129 59 176c51 65 132 104 226 104c95 0 175 -39 226 -104
c38 -47 60 -108 60 -176s-22 -129 -60 -176c-51 -65 -131 -104 -226 -104c-94 0 -175 39 -226 104c-37 47 -59 108 -59 176zM240 683c-24 0 -44 20 -44 45c0 24 20 43 44 43c25 0 44 -19 44 -43c0 -25 -19 -45 -44 -45zM428 683c-24 0 -44 20 -44 45c0 24 20 43 44 43
s44 -19 44 -43c0 -25 -20 -45 -44 -45z" />
    <glyph glyph-name="Osmallgrave" unicode="&#xe0dc;" horiz-adv-x="668" 
d="M124 272c0 -54 18 -102 49 -139c38 -45 95 -73 161 -73s123 28 160 73c31 37 49 85 49 139s-18 102 -49 139c-37 45 -94 73 -160 73s-123 -28 -161 -73c-31 -37 -49 -85 -49 -139zM48 272c0 68 22 129 60 176c51 65 131 104 226 104c94 0 175 -39 226 -104
c37 -47 59 -108 59 -176s-22 -129 -59 -176c-51 -65 -132 -104 -226 -104c-95 0 -175 39 -226 104c-38 47 -60 108 -60 176zM404 652c0 -14 -12 -24 -25 -24c-11 0 -19 6 -26 18l-81 134c-6 10 -8 15 -8 22c0 15 14 28 30 28c13 0 22 -9 28 -21l76 -138c4 -7 6 -13 6 -19z
" />
    <glyph glyph-name="Osmallhungarumlaut" unicode="&#xe0dd;" horiz-adv-x="668" 
d="M124 272c0 -54 18 -102 49 -139c37 -45 94 -73 160 -73s123 28 161 73c31 37 49 85 49 139s-18 102 -49 139c-38 45 -95 73 -161 73s-123 -28 -160 -73c-31 -37 -49 -85 -49 -139zM48 272c0 68 22 129 59 176c51 65 132 104 226 104c95 0 175 -39 226 -104
c38 -47 60 -108 60 -176s-22 -129 -60 -176c-51 -65 -131 -104 -226 -104c-94 0 -175 39 -226 104c-37 47 -59 108 -59 176zM164 652c0 6 2 12 6 19l76 138c6 12 15 21 29 21c16 0 30 -13 30 -28c0 -7 -3 -12 -9 -22l-81 -134c-7 -11 -14 -18 -26 -18c-13 0 -25 10 -25 24z
M349 652c0 6 2 12 6 19l76 138c6 12 15 21 28 21c17 0 30 -13 30 -28c0 -7 -2 -12 -8 -22l-81 -134c-7 -11 -15 -18 -26 -18c-13 0 -25 10 -25 24z" />
    <glyph glyph-name="Osmallmacron" unicode="&#xe0de;" horiz-adv-x="668" 
d="M124 272c0 -54 18 -102 49 -139c37 -45 94 -73 160 -73s123 28 161 73c31 37 49 85 49 139s-18 102 -49 139c-38 45 -95 73 -161 73s-123 -28 -160 -73c-31 -37 -49 -85 -49 -139zM48 272c0 68 22 129 59 176c51 65 132 104 226 104c95 0 175 -39 226 -104
c38 -47 60 -108 60 -176s-22 -129 -60 -176c-51 -65 -131 -104 -226 -104c-94 0 -175 39 -226 104c-37 47 -59 108 -59 176zM467 718c0 -17 -13 -30 -30 -30h-206c-16 0 -30 13 -30 30c0 16 14 30 30 30h206c17 0 30 -14 30 -30z" />
    <glyph glyph-name="Osmalltilde" unicode="&#xe0df;" horiz-adv-x="668" 
d="M124 272c0 -54 18 -102 49 -139c38 -45 95 -73 161 -73s123 28 160 73c31 37 49 85 49 139s-18 102 -49 139c-37 45 -94 73 -160 73s-123 -28 -161 -73c-31 -37 -49 -85 -49 -139zM48 272c0 68 22 129 60 176c51 65 131 104 226 104c94 0 175 -39 226 -104
c37 -47 59 -108 59 -176s-22 -129 -59 -176c-51 -65 -132 -104 -226 -104c-95 0 -175 39 -226 104c-38 47 -60 108 -60 176zM499 744c0 -15 -10 -31 -21 -42c-17 -18 -44 -28 -70 -28c-31 0 -57 13 -79 27c-21 13 -38 27 -62 27c-42 0 -44 -44 -72 -44c-15 0 -25 11 -25 26
c0 16 11 31 22 42c17 18 43 29 70 29c32 0 59 -13 79 -26c22 -14 39 -29 62 -29c41 0 45 45 72 45c15 0 24 -12 24 -27z" />
    <glyph glyph-name="Otilde" unicode="&#xd5;" horiz-adv-x="806" 
d="M759 339c0 -198 -161 -349 -356 -349s-356 152 -356 349c0 198 161 351 356 351s356 -153 356 -351zM675 339c0 151 -119 276 -272 276s-271 -125 -271 -276c0 -152 118 -275 271 -275s272 124 272 275zM566 910c0 -15 -10 -31 -21 -42c-17 -18 -44 -28 -70 -28
c-31 0 -57 13 -79 27c-21 13 -38 27 -62 27c-42 0 -44 -44 -72 -44c-15 0 -25 11 -25 26c0 16 11 31 22 42c17 18 43 29 70 29c32 0 59 -13 79 -26c22 -14 39 -29 62 -29c41 0 45 45 72 45c15 0 24 -12 24 -27z" />
    <glyph glyph-name="P" unicode="P" horiz-adv-x="626" 
d="M115 681h237c59 0 110 -12 157 -48c49 -39 80 -99 80 -176s-33 -142 -86 -181c-48 -35 -104 -43 -161 -43h-187v-204c0 -21 -18 -39 -40 -39s-40 18 -40 39v613c0 21 18 39 40 39zM508 457c0 58 -22 98 -58 123c-31 23 -67 31 -110 31h-185v-308h174c42 0 84 5 117 27
c38 26 62 71 62 127z" />
    <glyph glyph-name="P.2" unicode="&#xe0e0;" horiz-adv-x="660" 
d="M115 681h271c59 0 110 -12 157 -48c49 -39 80 -99 80 -176s-33 -142 -86 -181c-48 -35 -104 -43 -161 -43h-221v-204c0 -21 -18 -39 -40 -39s-40 18 -40 39v613c0 21 18 39 40 39zM542 457c0 58 -22 97 -58 123c-31 23 -67 31 -110 31h-219v-308h208c42 0 84 6 117 28
c38 25 62 70 62 126z" />
    <glyph glyph-name="Psmall" unicode="&#xf770;" horiz-adv-x="517" 
d="M109 544h179c59 0 106 -13 143 -46c36 -31 57 -76 57 -133c0 -62 -23 -107 -60 -137s-88 -45 -147 -45h-135v-156c0 -19 -17 -35 -37 -35s-37 16 -37 35v481c0 20 17 36 37 36zM413 365c0 41 -16 69 -40 90c-26 21 -58 26 -93 26h-135v-234h131c35 0 68 6 93 24
c27 18 44 49 44 94z" />
    <glyph glyph-name="Psmall.2" unicode="&#xe0e1;" horiz-adv-x="547" 
d="M443 365c0 41 -16 69 -40 90c-26 21 -58 26 -93 26h-165v-234h161c35 0 68 6 93 24c27 18 44 49 44 94zM109 544h209c59 0 106 -13 143 -46c36 -31 57 -76 57 -133c0 -62 -23 -107 -60 -137s-88 -45 -147 -45h-165v-156c0 -19 -17 -35 -37 -35s-37 16 -37 35v481
c0 20 17 36 37 36z" />
    <glyph glyph-name="Q" unicode="Q" horiz-adv-x="806" 
d="M340 -19c0 6 1 10 3 14c-167 27 -296 166 -296 344c0 198 161 351 356 351c194 0 356 -153 356 -351c0 -178 -130 -317 -297 -344c6 -10 31 -16 51 -22c89 -28 142 -41 207 -58c41 -11 64 -15 64 -44c0 -21 -15 -35 -46 -35c-56 0 -213 59 -375 117c-15 5 -23 14 -23 28z
M674 339c0 151 -118 276 -271 276s-272 -125 -272 -276c0 -152 119 -275 272 -275s271 123 271 275z" />
    <glyph glyph-name="Qsmall" unicode="&#xf771;" horiz-adv-x="660" 
d="M44 272c0 161 122 280 286 280c165 0 285 -121 285 -280c0 -151 -103 -259 -242 -277c4 -8 19 -10 32 -15c80 -25 152 -46 203 -56c30 -6 66 -14 66 -41c0 -21 -18 -32 -42 -32c-46 0 -163 41 -297 87c-24 8 -60 15 -60 40c0 7 2 13 6 18c-137 20 -237 127 -237 276z
M120 272c0 -121 90 -212 210 -212s209 93 209 212c0 118 -88 212 -209 212c-120 0 -210 -92 -210 -212z" />
    <glyph glyph-name="R" unicode="R" horiz-adv-x="650" 
d="M155 266v-237c0 -21 -18 -39 -40 -39c-23 0 -40 18 -40 39v613c0 21 17 39 40 39h239c66 0 120 -8 166 -39c50 -33 81 -89 81 -169c0 -74 -31 -127 -80 -163c-31 -23 -63 -34 -98 -40l167 -213c7 -8 11 -18 11 -27c0 -21 -18 -40 -41 -40c-14 0 -26 8 -34 19l-195 257
h-176zM345 613h-190v-280h188c46 0 84 4 117 23c35 21 59 57 59 117c0 58 -23 96 -57 116c-33 20 -72 24 -117 24z" />
    <glyph glyph-name="R.2" unicode="&#xe0e2;" horiz-adv-x="728" 
d="M154 252v-224c0 -21 -18 -38 -40 -38s-40 17 -40 38v613c0 22 18 40 41 40h254c160 0 269 -52 269 -214c0 -77 -32 -131 -86 -169c-42 -30 -86 -41 -135 -45c41 -89 107 -191 193 -191c58 0 62 30 85 30c19 0 33 -16 33 -35c0 -35 -49 -65 -120 -65
c-147 0 -222 136 -276 260h-178zM365 613h-211v-293h196c95 0 207 12 207 146c0 118 -88 147 -192 147z" />
    <glyph glyph-name="Racute" unicode="&#x154;" horiz-adv-x="649" 
d="M155 266v-237c0 -21 -18 -39 -40 -39c-23 0 -40 18 -40 39v613c0 21 17 39 40 39h239c66 0 120 -8 166 -39c50 -33 81 -89 81 -169c0 -74 -31 -127 -80 -163c-31 -23 -63 -34 -98 -40l167 -213c7 -8 11 -18 11 -27c0 -21 -18 -40 -41 -40c-14 0 -26 8 -34 19l-195 257
h-176zM345 613h-190v-280h188c46 0 84 4 117 23c35 21 59 57 59 117c0 58 -23 96 -57 116c-33 20 -72 24 -117 24zM251 794c0 6 2 12 6 19l76 138c6 12 15 21 28 21c17 0 30 -13 30 -28c0 -7 -2 -12 -8 -22l-81 -134c-7 -11 -15 -18 -26 -18c-13 0 -25 10 -25 24z" />
    <glyph glyph-name="Racute.2" unicode="&#xe0e3;" horiz-adv-x="728" 
d="M154 252v-224c0 -21 -18 -38 -40 -38s-40 17 -40 38v613c0 22 18 40 41 40h254c160 0 269 -52 269 -214c0 -77 -32 -131 -86 -169c-42 -30 -86 -41 -135 -45c41 -89 107 -191 193 -191c58 0 62 30 85 30c19 0 33 -16 33 -35c0 -35 -49 -65 -120 -65
c-147 0 -222 136 -276 260h-178zM365 613h-211v-293h196c95 0 207 12 207 146c0 118 -88 147 -192 147zM278 794c0 6 2 12 6 19l76 138c6 12 15 21 28 21c17 0 30 -13 30 -28c0 -7 -2 -12 -8 -22l-81 -134c-7 -11 -15 -18 -26 -18c-13 0 -25 10 -25 24z" />
    <glyph glyph-name="Rcaron" unicode="&#x158;" horiz-adv-x="649" 
d="M155 266v-237c0 -21 -18 -39 -40 -39c-23 0 -40 18 -40 39v613c0 21 17 39 40 39h239c66 0 120 -8 166 -39c50 -33 81 -89 81 -169c0 -74 -31 -127 -80 -163c-31 -23 -63 -34 -98 -40l167 -213c7 -8 11 -18 11 -27c0 -21 -18 -40 -41 -40c-14 0 -26 8 -34 19l-195 257
h-176zM345 613h-190v-280h188c46 0 84 4 117 23c35 21 59 57 59 117c0 58 -23 96 -57 116c-33 20 -72 24 -117 24zM161 944c0 16 12 27 27 27c8 0 17 -5 22 -11l110 -114l111 114c5 6 13 11 22 11c14 0 27 -11 27 -27c0 -9 -6 -16 -13 -23l-123 -127c-6 -6 -13 -11 -24 -11
c-10 0 -17 5 -23 11l-124 127c-7 7 -12 15 -12 23z" />
    <glyph glyph-name="Rcaron.2" unicode="&#xe0e4;" horiz-adv-x="728" 
d="M154 252v-224c0 -21 -18 -38 -40 -38s-40 17 -40 38v613c0 22 18 40 41 40h254c160 0 269 -52 269 -214c0 -77 -32 -131 -86 -169c-42 -30 -86 -41 -135 -45c41 -89 107 -191 193 -191c58 0 62 30 85 30c19 0 33 -16 33 -35c0 -35 -49 -65 -120 -65
c-147 0 -222 136 -276 260h-178zM365 613h-211v-293h196c95 0 207 12 207 146c0 118 -88 147 -192 147zM187 944c0 16 12 27 27 27c8 0 17 -5 22 -11l110 -114l111 114c5 6 13 11 22 11c14 0 27 -11 27 -27c0 -9 -6 -16 -13 -23l-123 -127c-6 -6 -13 -11 -24 -11
c-10 0 -17 5 -23 11l-124 127c-7 7 -12 15 -12 23z" />
    <glyph glyph-name="Rcommaaccent" unicode="&#x156;" horiz-adv-x="649" 
d="M155 266v-237c0 -21 -18 -39 -40 -39c-23 0 -40 18 -40 39v613c0 21 17 39 40 39h239c66 0 120 -8 166 -39c50 -33 81 -89 81 -169c0 -74 -31 -127 -80 -163c-31 -23 -63 -34 -98 -40l167 -213c7 -8 11 -18 11 -27c0 -21 -18 -40 -41 -40c-14 0 -26 8 -34 19l-195 257
h-176zM345 613h-190v-280h188c46 0 84 4 117 23c35 21 59 57 59 117c0 58 -23 96 -57 116c-33 20 -72 24 -117 24zM274 -221c0 20 34 26 34 55c0 26 -36 21 -36 61c0 23 15 44 47 44c36 0 56 -26 56 -67c0 -64 -59 -107 -86 -107c-9 0 -15 6 -15 14z" />
    <glyph glyph-name="Rcommaaccent.2" unicode="&#xe0e5;" horiz-adv-x="728" 
d="M154 252v-224c0 -21 -18 -38 -40 -38s-40 17 -40 38v613c0 22 18 40 41 40h254c160 0 269 -52 269 -214c0 -77 -32 -131 -86 -169c-42 -30 -86 -41 -135 -45c41 -89 107 -191 193 -191c58 0 62 30 85 30c19 0 33 -16 33 -35c0 -35 -49 -65 -120 -65
c-147 0 -222 136 -276 260h-178zM365 613h-211v-293h196c95 0 207 12 207 146c0 118 -88 147 -192 147zM318 -221c0 20 34 26 34 55c0 26 -36 21 -36 61c0 23 15 44 47 44c36 0 56 -26 56 -67c0 -64 -59 -107 -86 -107c-9 0 -15 6 -15 14z" />
    <glyph glyph-name="Rsmall" unicode="&#xf772;" horiz-adv-x="542" 
d="M428 9l-149 199h-133v-181c0 -19 -17 -35 -37 -35s-37 16 -37 35v481c0 20 17 36 37 36h191c108 0 196 -45 196 -168c0 -96 -59 -145 -137 -161l126 -160c9 -11 11 -19 11 -28c0 -22 -17 -35 -37 -35c-15 0 -23 7 -31 17zM296 481h-150v-210h147c69 0 128 21 128 105
s-59 105 -125 105z" />
    <glyph glyph-name="Rsmall.2" unicode="&#xe0e6;" horiz-adv-x="581" 
d="M488 51c44 0 45 22 65 22c15 0 26 -13 26 -28c0 -25 -34 -53 -102 -53c-92 0 -156 77 -207 191h-125v-156c0 -20 -16 -35 -36 -35s-37 15 -37 35v480c0 21 17 37 37 37h199c117 0 199 -66 199 -180c0 -108 -67 -166 -163 -179c47 -91 94 -134 144 -134zM433 364
c0 84 -65 116 -133 116h-155v-234h151c71 0 137 31 137 118z" />
    <glyph glyph-name="Rsmallacute" unicode="&#xe0e7;" horiz-adv-x="542" 
d="M428 9l-149 199h-133v-181c0 -19 -17 -35 -37 -35s-37 16 -37 35v481c0 20 17 36 37 36h191c108 0 196 -45 196 -168c0 -96 -59 -145 -137 -161l126 -160c9 -11 11 -19 11 -28c0 -22 -17 -35 -37 -35c-15 0 -23 7 -31 17zM296 481h-150v-210h147c69 0 128 21 128 105
s-59 105 -125 105zM205 652c0 6 2 12 6 19l76 138c6 12 15 21 28 21c17 0 30 -13 30 -28c0 -7 -2 -12 -8 -22l-81 -134c-7 -11 -15 -18 -26 -18c-13 0 -25 10 -25 24z" />
    <glyph glyph-name="Rsmallacute.2" unicode="&#xe0e8;" horiz-adv-x="581" 
d="M488 51c44 0 45 22 65 22c15 0 26 -13 26 -28c0 -25 -34 -53 -102 -53c-92 0 -156 77 -207 191h-125v-156c0 -20 -16 -35 -36 -35s-37 15 -37 35v480c0 21 17 37 37 37h199c117 0 199 -66 199 -180c0 -108 -67 -166 -163 -179c47 -91 94 -134 144 -134zM433 364
c0 84 -65 116 -133 116h-155v-234h151c71 0 137 31 137 118zM227 652c0 6 2 12 6 19l76 138c6 12 15 21 28 21c17 0 30 -13 30 -28c0 -7 -2 -12 -8 -22l-81 -134c-7 -11 -15 -18 -26 -18c-13 0 -25 10 -25 24z" />
    <glyph glyph-name="Rsmallcaron" unicode="&#xe0e9;" horiz-adv-x="542" 
d="M428 9l-149 199h-133v-181c0 -19 -17 -35 -37 -35s-37 16 -37 35v481c0 20 17 36 37 36h191c108 0 196 -45 196 -168c0 -96 -59 -145 -137 -161l126 -160c9 -11 11 -19 11 -28c0 -22 -17 -35 -37 -35c-15 0 -23 7 -31 17zM296 481h-150v-210h147c69 0 128 21 128 105
s-59 105 -125 105zM119 802c0 16 12 27 27 27c8 0 17 -5 22 -11l110 -114l111 114c5 6 13 11 22 11c14 0 27 -11 27 -27c0 -9 -6 -16 -13 -23l-123 -127c-6 -6 -13 -11 -24 -11c-10 0 -17 5 -23 11l-124 127c-7 7 -12 15 -12 23z" />
    <glyph glyph-name="Rsmallcaron.2" unicode="&#xe0ea;" horiz-adv-x="581" 
d="M488 51c44 0 45 22 65 22c15 0 26 -13 26 -28c0 -25 -34 -53 -102 -53c-92 0 -156 77 -207 191h-125v-156c0 -20 -16 -35 -36 -35s-37 15 -37 35v480c0 21 17 37 37 37h199c117 0 199 -66 199 -180c0 -108 -67 -166 -163 -179c47 -91 94 -134 144 -134zM433 364
c0 84 -65 116 -133 116h-155v-234h151c71 0 137 31 137 118zM140 802c0 16 12 27 27 27c8 0 17 -5 22 -11l110 -114l111 114c5 6 13 11 22 11c14 0 27 -11 27 -27c0 -9 -6 -16 -13 -23l-123 -127c-6 -6 -13 -11 -24 -11c-10 0 -17 5 -23 11l-124 127c-7 7 -12 15 -12 23z
" />
    <glyph glyph-name="Rsmallcommaaccent" unicode="&#xe0eb;" horiz-adv-x="542" 
d="M223 -221c0 20 34 26 34 55c0 26 -36 21 -36 61c0 23 16 44 48 44c35 0 56 -26 56 -67c0 -64 -60 -107 -87 -107c-9 0 -15 6 -15 14zM428 9l-149 199h-133v-181c0 -19 -17 -35 -37 -35s-37 16 -37 35v481c0 20 17 36 37 36h191c108 0 196 -45 196 -168
c0 -96 -59 -145 -137 -161l126 -160c9 -11 11 -19 11 -28c0 -22 -17 -35 -37 -35c-15 0 -23 7 -31 17zM296 481h-150v-210h147c69 0 128 21 128 105s-59 105 -125 105z" />
    <glyph glyph-name="Rsmallcommaaccent.2" unicode="&#xe0ec;" horiz-adv-x="581" 
d="M488 51c44 0 45 22 65 22c15 0 26 -13 26 -28c0 -25 -34 -53 -102 -53c-92 0 -156 77 -207 191h-125v-156c0 -20 -16 -35 -36 -35s-37 15 -37 35v480c0 21 17 37 37 37h199c117 0 199 -66 199 -180c0 -108 -67 -166 -163 -179c47 -91 94 -134 144 -134zM433 364
c0 84 -65 116 -133 116h-155v-234h151c71 0 137 31 137 118zM248 -221c0 20 34 26 34 55c0 26 -36 21 -36 61c0 23 15 44 47 44c36 0 56 -26 56 -67c0 -64 -59 -107 -86 -107c-9 0 -15 6 -15 14z" />
    <glyph glyph-name="S" unicode="S" horiz-adv-x="556" 
d="M489 614c0 -21 -15 -37 -38 -37c-18 0 -36 15 -68 26c-28 10 -60 18 -100 18c-103 0 -153 -39 -153 -110c0 -50 38 -79 98 -101c68 -25 138 -34 201 -70c47 -28 88 -74 88 -148c0 -128 -99 -202 -242 -202c-71 0 -148 23 -194 48c-20 11 -38 25 -38 46c0 23 17 39 39 39
c17 0 28 -17 73 -37c31 -15 70 -27 120 -27c108 0 156 55 156 126c0 52 -37 83 -86 104c-60 26 -126 35 -198 70c-59 29 -101 75 -101 150c0 112 84 181 241 181c53 0 115 -11 156 -29c24 -10 46 -25 46 -47z" />
    <glyph glyph-name="Sacute" unicode="&#x15a;" horiz-adv-x="556" 
d="M489 614c0 -21 -15 -37 -38 -37c-18 0 -36 15 -68 26c-28 10 -60 18 -100 18c-103 0 -153 -39 -153 -110c0 -50 38 -79 98 -101c68 -25 138 -34 201 -70c47 -28 88 -74 88 -148c0 -128 -99 -202 -242 -202c-71 0 -148 23 -194 48c-20 11 -38 25 -38 46c0 23 17 39 39 39
c17 0 28 -17 73 -37c31 -15 70 -27 120 -27c108 0 156 55 156 126c0 52 -37 83 -86 104c-60 26 -126 35 -198 70c-59 29 -101 75 -101 150c0 112 84 181 241 181c53 0 115 -11 156 -29c24 -10 46 -25 46 -47zM207 794c0 6 2 12 6 19l76 138c6 12 15 21 28 21
c17 0 30 -13 30 -28c0 -7 -2 -12 -8 -22l-81 -134c-7 -11 -15 -18 -26 -18c-13 0 -25 10 -25 24z" />
    <glyph glyph-name="Scaron" unicode="&#x160;" horiz-adv-x="556" 
d="M489 614c0 -21 -15 -37 -38 -37c-18 0 -36 15 -68 26c-28 10 -60 18 -100 18c-103 0 -153 -39 -153 -110c0 -50 38 -79 98 -101c68 -25 138 -34 201 -70c47 -28 88 -74 88 -148c0 -128 -99 -202 -242 -202c-71 0 -148 23 -194 48c-20 11 -38 25 -38 46c0 23 17 39 39 39
c17 0 28 -17 73 -37c31 -15 70 -27 120 -27c108 0 156 55 156 126c0 52 -37 83 -86 104c-60 26 -126 35 -198 70c-59 29 -101 75 -101 150c0 112 84 181 241 181c53 0 115 -11 156 -29c24 -10 46 -25 46 -47zM118 944c0 16 12 27 27 27c8 0 17 -5 22 -11l110 -114l111 114
c5 6 13 11 22 11c14 0 27 -11 27 -27c0 -9 -6 -16 -13 -23l-123 -127c-6 -6 -13 -11 -24 -11c-10 0 -17 5 -23 11l-124 127c-7 7 -12 15 -12 23z" />
    <glyph glyph-name="Scedilla" unicode="&#x15e;" horiz-adv-x="556" 
d="M381 -110c0 -66 -67 -88 -125 -88c-12 0 -26 1 -36 4c-12 4 -17 10 -17 20c0 11 10 20 20 20s19 -3 37 -3c33 0 71 12 71 48c0 30 -30 42 -62 42c-13 0 -23 8 -21 24l3 34c-64 4 -129 25 -170 47c-20 11 -38 25 -38 46c0 23 17 39 39 39c17 0 28 -17 73 -37
c31 -15 70 -27 120 -27c108 0 156 55 156 126c0 52 -37 83 -86 104c-60 26 -126 35 -198 70c-59 29 -101 75 -101 150c0 112 84 181 241 181c53 0 115 -11 156 -29c24 -10 46 -25 46 -47c0 -21 -15 -37 -38 -37c-18 0 -36 15 -68 26c-28 10 -60 18 -100 18
c-103 0 -153 -39 -153 -110c0 -50 38 -79 98 -101c68 -25 138 -34 201 -70c47 -28 88 -74 88 -148c0 -123 -92 -196 -226 -201l1 -26c51 -4 89 -31 89 -75z" />
    <glyph glyph-name="Scommaaccent" unicode="&#x218;" horiz-adv-x="556" 
d="M489 614c0 -21 -15 -37 -38 -37c-18 0 -36 15 -68 26c-28 10 -60 18 -100 18c-103 0 -153 -39 -153 -110c0 -50 38 -79 98 -101c68 -25 138 -34 201 -70c47 -28 88 -74 88 -148c0 -128 -99 -202 -242 -202c-71 0 -148 23 -194 48c-20 11 -38 25 -38 46c0 23 17 39 39 39
c17 0 28 -17 73 -37c31 -15 70 -27 120 -27c108 0 156 55 156 126c0 52 -37 83 -86 104c-60 26 -126 35 -198 70c-59 29 -101 75 -101 150c0 112 84 181 241 181c53 0 115 -11 156 -29c24 -10 46 -25 46 -47zM233 -221c0 20 34 26 34 55c0 26 -36 21 -36 61
c0 23 15 44 47 44c36 0 56 -26 56 -67c0 -64 -59 -107 -86 -107c-9 0 -15 6 -15 14z" />
    <glyph glyph-name="Ssmall" unicode="&#xf773;" horiz-adv-x="452" 
d="M395 487c0 -18 -14 -31 -33 -31c-14 0 -29 11 -56 21c-22 8 -45 16 -78 16c-78 0 -120 -27 -120 -84c0 -46 35 -66 80 -82c55 -19 121 -30 169 -61c35 -23 60 -58 60 -113c0 -102 -80 -161 -195 -161c-46 0 -97 9 -136 27c-28 13 -50 31 -50 50s14 32 31 32
s32 -13 60 -28c25 -13 56 -22 96 -22c78 0 122 37 122 97c0 51 -42 74 -92 90c-54 18 -114 30 -160 61c-34 23 -56 56 -56 110c0 90 70 143 195 143c37 0 85 -7 118 -21c26 -11 45 -24 45 -44z" />
    <glyph glyph-name="Ssmallacute" unicode="&#xe0ed;" horiz-adv-x="452" 
d="M395 487c0 -18 -14 -31 -33 -31c-14 0 -29 11 -56 21c-22 8 -45 16 -78 16c-78 0 -120 -27 -120 -84c0 -46 35 -66 80 -82c55 -19 121 -30 169 -61c35 -23 60 -58 60 -113c0 -102 -80 -161 -195 -161c-46 0 -97 9 -136 27c-28 13 -50 31 -50 50s14 32 31 32
s32 -13 60 -28c25 -13 56 -22 96 -22c78 0 122 37 122 97c0 51 -42 74 -92 90c-54 18 -114 30 -160 61c-34 23 -56 56 -56 110c0 90 70 143 195 143c37 0 85 -7 118 -21c26 -11 45 -24 45 -44zM155 652c0 6 2 12 6 19l76 138c6 12 15 21 28 21c17 0 30 -13 30 -28
c0 -7 -2 -12 -8 -22l-81 -134c-7 -11 -15 -18 -26 -18c-13 0 -25 10 -25 24z" />
    <glyph glyph-name="Ssmallcaron" unicode="&#xe0ee;" horiz-adv-x="452" 
d="M395 487c0 -18 -14 -31 -33 -31c-14 0 -29 11 -56 21c-22 8 -45 16 -78 16c-78 0 -120 -27 -120 -84c0 -46 35 -66 80 -82c55 -19 121 -30 169 -61c35 -23 60 -58 60 -113c0 -102 -80 -161 -195 -161c-46 0 -97 9 -136 27c-28 13 -50 31 -50 50s14 32 31 32
s32 -13 60 -28c25 -13 56 -22 96 -22c78 0 122 37 122 97c0 51 -42 74 -92 90c-54 18 -114 30 -160 61c-34 23 -56 56 -56 110c0 90 70 143 195 143c37 0 85 -7 118 -21c26 -11 45 -24 45 -44zM66 802c0 16 12 27 27 27c8 0 17 -5 22 -11l110 -114l111 114c5 6 13 11 22 11
c14 0 27 -11 27 -27c0 -9 -6 -16 -13 -23l-123 -127c-6 -6 -13 -11 -24 -11c-10 0 -17 5 -23 11l-124 127c-7 7 -12 15 -12 23z" />
    <glyph glyph-name="Ssmallcedilla" unicode="&#xe0ef;" horiz-adv-x="452" 
d="M328 -110c0 -66 -67 -88 -125 -88c-12 0 -26 1 -36 4c-12 4 -17 10 -17 20c0 11 10 20 20 20s19 -3 37 -3c33 0 71 12 71 48c0 30 -30 42 -62 42c-13 0 -23 8 -21 24l3 36c-39 2 -80 11 -112 26c-28 13 -50 31 -50 50s14 32 31 32s32 -13 60 -28c25 -13 56 -22 96 -22
c78 0 122 37 122 97c0 51 -42 74 -92 90c-54 18 -114 30 -160 61c-34 23 -56 56 -56 110c0 90 70 143 195 143c37 0 85 -7 118 -21c26 -11 45 -24 45 -44c0 -18 -14 -31 -33 -31c-14 0 -29 11 -56 21c-22 8 -45 16 -78 16c-78 0 -120 -27 -120 -84c0 -46 35 -66 80 -82
c55 -19 121 -30 169 -61c35 -23 60 -58 60 -113c0 -97 -73 -155 -179 -160l1 -28c51 -4 89 -31 89 -75z" />
    <glyph glyph-name="Ssmallcommaaccent" unicode="&#xe0f0;" horiz-adv-x="452" 
d="M395 487c0 -18 -14 -31 -33 -31c-14 0 -29 11 -56 21c-22 8 -45 16 -78 16c-78 0 -120 -27 -120 -84c0 -46 35 -66 80 -82c55 -19 121 -30 169 -61c35 -23 60 -58 60 -113c0 -102 -80 -161 -195 -161c-46 0 -97 9 -136 27c-28 13 -50 31 -50 50s14 32 31 32
s32 -13 60 -28c25 -13 56 -22 96 -22c78 0 122 37 122 97c0 51 -42 74 -92 90c-54 18 -114 30 -160 61c-34 23 -56 56 -56 110c0 90 70 143 195 143c37 0 85 -7 118 -21c26 -11 45 -24 45 -44zM186 -221c0 20 34 26 34 55c0 26 -36 21 -36 61c0 23 15 44 47 44
c36 0 56 -26 56 -67c0 -64 -59 -107 -86 -107c-9 0 -15 6 -15 14z" />
    <glyph glyph-name="T" unicode="T" horiz-adv-x="564" 
d="M530 610h-208v-581c0 -21 -18 -39 -40 -39s-40 18 -40 39v581h-207c-20 0 -35 16 -35 36c0 19 15 35 35 35h495c19 0 34 -16 34 -35c0 -20 -15 -36 -34 -36z" />
    <glyph glyph-name="T.2" unicode="&#xe0f1;" horiz-adv-x="702" 
d="M249 681h419c19 0 34 -16 34 -35c0 -20 -15 -36 -34 -36h-238v-581c0 -21 -18 -39 -40 -39s-40 18 -40 39v581h-103c-100 0 -156 -15 -156 -56c0 -20 14 -32 33 -35c15 -2 25 -11 25 -26c0 -22 -20 -34 -48 -34c-46 0 -90 34 -90 96c0 103 119 126 238 126z" />
    <glyph glyph-name="Tcaron" unicode="&#x164;" horiz-adv-x="564" 
d="M530 610h-208v-581c0 -21 -18 -39 -40 -39s-40 18 -40 39v581h-207c-20 0 -35 16 -35 36c0 19 15 35 35 35h495c19 0 34 -16 34 -35c0 -20 -15 -36 -34 -36zM123 944c0 16 12 27 27 27c8 0 17 -5 22 -11l110 -114l111 114c5 6 13 11 22 11c14 0 27 -11 27 -27
c0 -9 -6 -16 -13 -23l-123 -127c-6 -6 -13 -11 -24 -11c-10 0 -17 5 -23 11l-124 127c-7 7 -12 15 -12 23z" />
    <glyph glyph-name="Tcaron.2" unicode="&#xe0f2;" horiz-adv-x="702" 
d="M249 681h419c19 0 34 -16 34 -35c0 -20 -15 -36 -34 -36h-238v-581c0 -21 -18 -39 -40 -39s-40 18 -40 39v581h-103c-100 0 -156 -15 -156 -56c0 -20 14 -32 33 -35c15 -2 25 -11 25 -26c0 -22 -20 -34 -48 -34c-46 0 -90 34 -90 96c0 103 119 126 238 126zM231 944
c0 16 12 27 27 27c8 0 17 -5 22 -11l110 -114l111 114c5 6 13 11 22 11c14 0 27 -11 27 -27c0 -9 -6 -16 -13 -23l-123 -127c-6 -6 -13 -11 -24 -11c-10 0 -17 5 -23 11l-124 127c-7 7 -12 15 -12 23z" />
    <glyph glyph-name="Tcommaaccent" unicode="&#x162;" horiz-adv-x="564" 
d="M530 610h-208v-581c0 -21 -18 -39 -40 -39s-40 18 -40 39v581h-207c-20 0 -35 16 -35 36c0 19 15 35 35 35h495c19 0 34 -16 34 -35c0 -20 -15 -36 -34 -36zM233 -221c0 20 34 26 34 55c0 26 -36 21 -36 61c0 23 15 44 47 44c36 0 56 -26 56 -67c0 -64 -59 -107 -86 -107
c-9 0 -15 6 -15 14z" />
    <glyph glyph-name="Tcommaaccent.2" unicode="&#xe0f3;" horiz-adv-x="702" 
d="M249 681h419c19 0 34 -16 34 -35c0 -20 -15 -36 -34 -36h-238v-581c0 -21 -18 -39 -40 -39s-40 18 -40 39v581h-103c-100 0 -156 -15 -156 -56c0 -20 14 -32 33 -35c15 -2 25 -11 25 -26c0 -22 -20 -34 -48 -34c-46 0 -90 34 -90 96c0 103 119 126 238 126zM341 -221
c0 20 34 26 34 55c0 26 -36 21 -36 61c0 23 15 44 47 44c36 0 56 -26 56 -67c0 -64 -59 -107 -86 -107c-9 0 -15 6 -15 14z" />
    <glyph glyph-name="Thorn" unicode="&#xde;" horiz-adv-x="626" 
d="M75 -107v758c0 21 18 39 40 39s40 -18 40 -39v-111h197c59 0 111 -11 157 -47c50 -39 80 -99 80 -177c0 -77 -33 -142 -86 -181c-48 -35 -104 -43 -161 -43h-187v-199c0 -21 -18 -38 -40 -38s-40 17 -40 38zM508 316c0 54 -19 93 -52 119c-32 25 -70 35 -116 35h-185
v-308h174c44 0 88 6 121 30c36 26 58 70 58 124z" />
    <glyph glyph-name="Tsmall" unicode="&#xf774;" horiz-adv-x="464" 
d="M427 479h-158v-452c0 -19 -17 -35 -37 -35s-36 16 -36 35v452h-159c-17 0 -32 13 -32 32c0 18 15 33 32 33h390c18 0 33 -15 33 -33c0 -19 -15 -32 -33 -32z" />
    <glyph glyph-name="Tsmall.2" unicode="&#xe0f4;" horiz-adv-x="601" 
d="M217 544h347c17 0 32 -15 32 -33c0 -19 -15 -32 -32 -32h-202v-452c0 -19 -17 -35 -37 -35s-36 16 -36 35v452h-74c-85 0 -132 -14 -132 -48c0 -16 10 -26 28 -30c13 -3 23 -10 23 -24c0 -20 -20 -31 -45 -31c-41 0 -80 30 -80 87c0 91 105 111 208 111z" />
    <glyph glyph-name="Tsmallcaron" unicode="&#xe0f5;" horiz-adv-x="460" 
d="M425 479h-158v-452c0 -19 -17 -35 -37 -35s-36 16 -36 35v452h-159c-17 0 -32 13 -32 32c0 18 15 33 32 33h390c18 0 33 -15 33 -33c0 -19 -15 -32 -33 -32zM71 802c0 16 12 27 27 27c8 0 17 -5 22 -11l110 -114l111 114c5 6 13 11 22 11c14 0 27 -11 27 -27
c0 -9 -6 -16 -13 -23l-123 -127c-6 -6 -13 -11 -24 -11c-10 0 -17 5 -23 11l-124 127c-7 7 -12 15 -12 23z" />
    <glyph glyph-name="Tsmallcaron.2" unicode="&#xe0f6;" horiz-adv-x="601" 
d="M217 544h347c17 0 32 -15 32 -33c0 -19 -15 -32 -32 -32h-202v-452c0 -19 -17 -35 -37 -35s-36 16 -36 35v452h-74c-85 0 -132 -14 -132 -48c0 -16 10 -26 28 -30c13 -3 23 -10 23 -24c0 -20 -20 -31 -45 -31c-41 0 -80 30 -80 87c0 91 105 111 208 111zM166 802
c0 16 12 27 27 27c8 0 17 -5 22 -11l110 -114l111 114c5 6 13 11 22 11c14 0 27 -11 27 -27c0 -9 -6 -16 -13 -23l-123 -127c-6 -6 -13 -11 -24 -11c-10 0 -17 5 -23 11l-124 127c-7 7 -12 15 -12 23z" />
    <glyph glyph-name="Tsmallcommaaccent" unicode="&#xe0f7;" horiz-adv-x="464" 
d="M427 479h-158v-452c0 -19 -17 -35 -37 -35s-36 16 -36 35v452h-159c-17 0 -32 13 -32 32c0 18 15 33 32 33h390c18 0 33 -15 33 -33c0 -19 -15 -32 -33 -32zM183 -221c0 20 34 26 34 55c0 26 -36 21 -36 61c0 23 15 44 47 44c36 0 56 -26 56 -67c0 -64 -59 -107 -86 -107
c-9 0 -15 6 -15 14z" />
    <glyph glyph-name="Tsmallcommaaccent.2" unicode="&#xe0f8;" horiz-adv-x="601" 
d="M217 544h347c17 0 32 -15 32 -33c0 -19 -15 -32 -32 -32h-202v-452c0 -19 -17 -35 -37 -35s-36 16 -36 35v452h-74c-85 0 -132 -14 -132 -48c0 -16 10 -26 28 -30c13 -3 23 -10 23 -24c0 -20 -20 -31 -45 -31c-41 0 -80 30 -80 87c0 91 105 111 208 111zM276 -221
c0 20 34 26 34 55c0 26 -36 21 -36 61c0 23 15 44 47 44c36 0 56 -26 56 -67c0 -64 -59 -107 -86 -107c-9 0 -15 6 -15 14z" />
    <glyph glyph-name="U" unicode="U" horiz-adv-x="722" 
d="M360 62c69 0 121 20 158 61c33 37 51 89 51 156v372c0 21 17 39 40 39c22 0 40 -18 40 -39v-382c0 -79 -23 -146 -66 -193c-49 -55 -125 -86 -222 -86s-173 31 -222 86c-43 47 -66 114 -66 193v382c0 21 18 39 40 39c23 0 40 -18 40 -39v-372c0 -67 18 -119 51 -156
c37 -41 89 -61 156 -61z" />
    <glyph glyph-name="Uacute" unicode="&#xda;" horiz-adv-x="722" 
d="M360 62c69 0 121 20 158 61c33 37 51 89 51 156v372c0 21 17 39 40 39c22 0 40 -18 40 -39v-382c0 -79 -23 -146 -66 -193c-49 -55 -125 -86 -222 -86s-173 31 -222 86c-43 47 -66 114 -66 193v382c0 21 18 39 40 39c23 0 40 -18 40 -39v-372c0 -67 18 -119 51 -156
c37 -41 89 -61 156 -61zM290 794c0 6 2 12 6 19l76 138c6 12 15 21 28 21c17 0 30 -13 30 -28c0 -7 -2 -12 -8 -22l-81 -134c-7 -11 -15 -18 -26 -18c-13 0 -25 10 -25 24z" />
    <glyph glyph-name="Ucircumflex" unicode="&#xdb;" horiz-adv-x="722" 
d="M360 62c69 0 121 20 158 61c33 37 51 89 51 156v372c0 21 17 39 40 39c22 0 40 -18 40 -39v-382c0 -79 -23 -146 -66 -193c-49 -55 -125 -86 -222 -86s-173 31 -222 86c-43 47 -66 114 -66 193v382c0 21 18 39 40 39c23 0 40 -18 40 -39v-372c0 -67 18 -119 51 -156
c37 -41 89 -61 156 -61zM360 971c11 0 18 -6 24 -12l123 -127c7 -8 13 -14 13 -22c0 -17 -13 -27 -27 -27c-8 0 -13 2 -19 8l-114 117l-113 -117c-6 -6 -12 -8 -19 -8c-15 0 -27 10 -27 27c0 8 5 15 12 22l124 127c6 6 13 12 23 12z" />
    <glyph glyph-name="Udieresis" unicode="&#xdc;" horiz-adv-x="722" 
d="M360 62c69 0 121 20 158 61c33 37 51 89 51 156v372c0 21 17 39 40 39c22 0 40 -18 40 -39v-382c0 -79 -23 -146 -66 -193c-49 -55 -125 -86 -222 -86s-173 31 -222 86c-43 47 -66 114 -66 193v382c0 21 18 39 40 39c23 0 40 -18 40 -39v-372c0 -67 18 -119 51 -156
c37 -41 89 -61 156 -61zM260 825c-24 0 -44 20 -44 45c0 24 20 43 44 43c25 0 44 -19 44 -43c0 -25 -19 -45 -44 -45zM448 825c-24 0 -44 20 -44 45c0 24 20 43 44 43s44 -19 44 -43c0 -25 -20 -45 -44 -45z" />
    <glyph glyph-name="Ugrave" unicode="&#xd9;" horiz-adv-x="722" 
d="M360 62c69 0 121 20 158 61c33 37 51 89 51 156v372c0 21 17 39 40 39c22 0 40 -18 40 -39v-382c0 -79 -23 -146 -66 -193c-49 -55 -125 -86 -222 -86s-173 31 -222 86c-43 47 -66 114 -66 193v382c0 21 18 39 40 39c23 0 40 -18 40 -39v-372c0 -67 18 -119 51 -156
c37 -41 89 -61 156 -61zM430 794c0 -14 -12 -24 -26 -24c-11 0 -19 6 -26 18l-81 134c-6 10 -8 15 -8 22c0 15 14 28 30 28c13 0 22 -10 28 -21l77 -138c4 -7 6 -13 6 -19z" />
    <glyph glyph-name="Uhungarumlaut" unicode="&#x170;" horiz-adv-x="722" 
d="M360 62c69 0 121 20 158 61c33 37 51 89 51 156v372c0 21 17 39 40 39c22 0 40 -18 40 -39v-382c0 -79 -23 -146 -66 -193c-49 -55 -125 -86 -222 -86s-173 31 -222 86c-43 47 -66 114 -66 193v382c0 21 18 39 40 39c23 0 40 -18 40 -39v-372c0 -67 18 -119 51 -156
c37 -41 89 -61 156 -61zM198 794c0 6 2 12 6 19l76 138c6 12 15 21 29 21c16 0 30 -13 30 -28c0 -7 -3 -12 -9 -22l-81 -134c-7 -11 -14 -18 -26 -18c-13 0 -25 10 -25 24zM383 794c0 6 2 12 6 19l76 138c6 12 15 21 28 21c17 0 30 -13 30 -28c0 -7 -2 -12 -8 -22l-81 -134
c-7 -11 -15 -18 -26 -18c-13 0 -25 10 -25 24z" />
    <glyph glyph-name="Umacron" unicode="&#x16a;" horiz-adv-x="722" 
d="M360 62c69 0 121 20 158 61c33 37 51 89 51 156v372c0 21 17 39 40 39c22 0 40 -18 40 -39v-382c0 -79 -23 -146 -66 -193c-49 -55 -125 -86 -222 -86s-173 31 -222 86c-43 47 -66 114 -66 193v382c0 21 18 39 40 39c23 0 40 -18 40 -39v-372c0 -67 18 -119 51 -156
c37 -41 89 -61 156 -61zM493 881c0 -17 -13 -30 -30 -30h-206c-16 0 -30 13 -30 30c0 16 14 30 30 30h206c17 0 30 -14 30 -30z" />
    <glyph glyph-name="Uogonek" unicode="&#x172;" horiz-adv-x="722" 
d="M360 62c69 0 121 20 158 61c33 37 51 89 51 156v372c0 21 17 39 40 39c22 0 40 -18 40 -39v-382c0 -79 -23 -146 -66 -193c-46 -51 -115 -81 -203 -85c-12 -29 -17 -54 -17 -78c0 -26 8 -58 74 -58c26 0 38 7 49 7c15 0 22 -9 22 -22c0 -14 -7 -23 -23 -28
c-14 -5 -36 -9 -53 -9c-90 0 -119 40 -119 93c0 27 10 61 24 95c-85 5 -153 34 -198 85c-43 47 -66 114 -66 193v382c0 21 18 39 40 39c23 0 40 -18 40 -39v-372c0 -67 18 -119 51 -156c37 -41 89 -61 156 -61z" />
    <glyph glyph-name="Uring" unicode="&#x16e;" horiz-adv-x="722" 
d="M360 62c69 0 121 20 158 61c33 37 51 89 51 156v372c0 21 17 39 40 39c22 0 40 -18 40 -39v-382c0 -79 -23 -146 -66 -193c-49 -55 -125 -86 -222 -86s-173 31 -222 86c-43 47 -66 114 -66 193v382c0 21 18 39 40 39c23 0 40 -18 40 -39v-372c0 -67 18 -119 51 -156
c37 -41 89 -61 156 -61zM475 862c0 -65 -51 -116 -115 -116s-116 51 -116 116c0 64 52 116 116 116s115 -52 115 -116zM439 862c0 44 -35 80 -79 80s-79 -36 -79 -80c0 -45 35 -80 79 -80s79 35 79 80z" />
    <glyph glyph-name="Usmall" unicode="&#xf775;" horiz-adv-x="608" 
d="M304 60c49 0 90 12 117 37c32 29 48 69 48 122v298c0 19 16 35 36 35c21 0 38 -16 38 -35v-301c0 -71 -24 -130 -68 -169c-40 -36 -98 -55 -171 -55c-74 0 -131 19 -172 55c-44 39 -67 98 -67 169v301c0 19 17 35 37 35s37 -16 37 -35v-298c0 -53 16 -94 48 -122
c27 -25 68 -37 117 -37z" />
    <glyph glyph-name="Usmallacute" unicode="&#xe0f9;" horiz-adv-x="612" 
d="M240 652c0 6 2 12 6 19l76 138c6 12 15 21 29 21c16 0 30 -13 30 -28c0 -7 -3 -12 -9 -22l-81 -134c-7 -11 -14 -18 -26 -18c-13 0 -25 10 -25 24zM306 60c49 0 90 12 117 37c33 29 48 69 48 122v298c0 19 17 35 37 35s37 -16 37 -35v-301c0 -71 -23 -130 -67 -169
c-41 -36 -98 -55 -172 -55c-73 0 -131 19 -171 55c-44 39 -68 98 -68 169v301c0 19 17 35 38 35c20 0 36 -16 36 -35v-298c0 -53 16 -94 48 -122c27 -25 68 -37 117 -37z" />
    <glyph glyph-name="Usmallcircumflex" unicode="&#xe0fa;" horiz-adv-x="612" 
d="M306 60c49 0 90 12 117 37c32 29 48 69 48 122v298c0 19 16 35 36 35c21 0 38 -16 38 -35v-301c0 -71 -24 -130 -68 -169c-40 -36 -98 -55 -171 -55c-74 0 -131 19 -172 55c-44 39 -67 98 -67 169v301c0 19 17 35 37 35s37 -16 37 -35v-298c0 -53 16 -94 48 -122
c27 -25 68 -37 117 -37zM305 829c11 0 18 -6 24 -12l123 -127c7 -8 13 -14 13 -22c0 -17 -13 -27 -27 -27c-8 0 -13 2 -19 8l-114 117l-113 -117c-6 -6 -12 -8 -19 -8c-15 0 -27 10 -27 27c0 8 5 15 12 22l124 127c6 6 13 12 23 12z" />
    <glyph glyph-name="Usmalldieresis" unicode="&#xe0fb;" horiz-adv-x="612" 
d="M306 60c49 0 90 12 117 37c32 29 48 69 48 122v298c0 19 16 35 36 35c21 0 38 -16 38 -35v-301c0 -71 -24 -130 -68 -169c-40 -36 -98 -55 -171 -55c-74 0 -131 19 -172 55c-44 39 -67 98 -67 169v301c0 19 17 35 37 35s37 -16 37 -35v-298c0 -53 16 -94 48 -122
c27 -25 68 -37 117 -37zM212 683c-24 0 -44 20 -44 45c0 24 20 43 44 43c25 0 44 -19 44 -43c0 -25 -19 -45 -44 -45zM400 683c-24 0 -44 20 -44 45c0 24 20 43 44 43s44 -19 44 -43c0 -25 -20 -45 -44 -45z" />
    <glyph glyph-name="Usmallgrave" unicode="&#xe0fc;" horiz-adv-x="612" 
d="M371 652c0 -14 -11 -24 -25 -24c-11 0 -19 6 -26 18l-81 134c-6 10 -8 15 -8 22c0 15 14 28 30 28c13 0 22 -10 28 -21l77 -138c4 -7 5 -13 5 -19zM306 60c49 0 90 12 117 37c33 29 48 69 48 122v298c0 19 17 35 37 35s37 -16 37 -35v-301c0 -71 -23 -130 -67 -169
c-41 -36 -98 -55 -172 -55c-73 0 -131 19 -171 55c-44 39 -68 98 -68 169v301c0 19 17 35 38 35c20 0 36 -16 36 -35v-298c0 -53 16 -94 48 -122c27 -25 68 -37 117 -37z" />
    <glyph glyph-name="Usmallhungarumlaut" unicode="&#xe0fd;" horiz-adv-x="612" 
d="M306 60c49 0 90 12 117 37c32 29 48 69 48 122v298c0 19 16 35 36 35c21 0 38 -16 38 -35v-301c0 -71 -24 -130 -68 -169c-40 -36 -98 -55 -171 -55c-74 0 -131 19 -172 55c-44 39 -67 98 -67 169v301c0 19 17 35 37 35s37 -16 37 -35v-298c0 -53 16 -94 48 -122
c27 -25 68 -37 117 -37zM158 652c0 6 2 12 6 19l76 138c6 12 15 21 29 21c16 0 30 -13 30 -28c0 -7 -3 -12 -9 -22l-81 -134c-7 -11 -14 -18 -26 -18c-13 0 -25 10 -25 24zM343 652c0 6 2 12 6 19l76 138c6 12 15 21 28 21c17 0 30 -13 30 -28c0 -7 -2 -12 -8 -22l-81 -134
c-7 -11 -15 -18 -26 -18c-13 0 -25 10 -25 24z" />
    <glyph glyph-name="Usmallmacron" unicode="&#xe0fe;" horiz-adv-x="612" 
d="M306 60c49 0 90 12 117 37c32 29 48 69 48 122v298c0 19 16 35 36 35c21 0 38 -16 38 -35v-301c0 -71 -24 -130 -68 -169c-40 -36 -98 -55 -171 -55c-74 0 -131 19 -172 55c-44 39 -67 98 -67 169v301c0 19 17 35 37 35s37 -16 37 -35v-298c0 -53 16 -94 48 -122
c27 -25 68 -37 117 -37zM439 718c0 -17 -13 -30 -30 -30h-206c-16 0 -30 13 -30 30c0 16 14 30 30 30h206c17 0 30 -14 30 -30z" />
    <glyph glyph-name="Usmallogonek" unicode="&#xe0ff;" horiz-adv-x="612" 
d="M306 60c49 0 90 12 117 37c32 29 48 69 48 122v298c0 19 16 35 36 35c21 0 38 -16 38 -35v-301c0 -71 -24 -130 -68 -169c-35 -32 -85 -50 -146 -54c-12 -29 -20 -55 -20 -80c0 -26 8 -58 75 -58c26 0 38 7 49 7c14 0 22 -9 22 -22c0 -14 -8 -23 -23 -28
c-14 -5 -36 -9 -53 -9c-90 0 -119 40 -119 93c0 25 10 60 27 97c-66 2 -117 21 -155 54c-44 39 -67 98 -67 169v301c0 19 17 35 37 35s37 -16 37 -35v-298c0 -53 16 -94 48 -122c27 -25 68 -37 117 -37z" />
    <glyph glyph-name="Usmallring" unicode="&#xe100;" horiz-adv-x="612" 
d="M422 722c0 -65 -52 -116 -115 -116c-64 0 -116 51 -116 116c0 64 52 116 116 116c63 0 115 -52 115 -116zM386 722c0 44 -36 80 -79 80c-44 0 -79 -36 -79 -80c0 -45 35 -80 79 -80c43 0 79 35 79 80zM306 60c49 0 90 12 117 37c33 29 48 69 48 122v298c0 19 17 35 37 35
s37 -16 37 -35v-301c0 -71 -23 -130 -67 -169c-41 -36 -98 -55 -172 -55c-73 0 -131 19 -171 55c-44 39 -68 98 -68 169v301c0 19 17 35 38 35c20 0 36 -16 36 -35v-298c0 -53 16 -94 48 -122c27 -25 68 -37 117 -37z" />
    <glyph glyph-name="V" unicode="V" horiz-adv-x="618" 
d="M308 96l222 566c7 17 22 28 40 28c22 0 41 -15 41 -39c0 -5 -2 -11 -4 -17l-243 -603c-9 -23 -27 -41 -57 -41s-47 18 -56 41l-240 602c-2 6 -4 12 -4 17c0 23 17 40 41 40c18 0 33 -11 39 -28z" />
    <glyph glyph-name="Vsmall" unicode="&#xf776;" horiz-adv-x="529" 
d="M264 90l181 437c6 16 18 25 36 25c23 0 38 -14 38 -35c0 -5 -2 -12 -6 -20l-200 -470c-10 -23 -23 -35 -50 -35s-40 12 -49 35l-199 472c-3 6 -5 12 -5 17c0 20 16 36 39 36c16 0 29 -9 35 -26z" />
    <glyph glyph-name="W" unicode="W" horiz-adv-x="1073" 
d="M536 134c-19 -51 -50 -87 -86 -109c-39 -25 -84 -35 -126 -35c-71 0 -141 21 -189 72c-38 41 -62 101 -62 186v403c0 21 18 39 40 39c23 0 40 -18 40 -39v-403c0 -62 16 -105 42 -134c34 -37 82 -50 131 -50c44 0 82 14 110 41c37 34 60 89 60 159v387c0 21 18 39 40 39
c23 0 40 -18 40 -39v-387c0 -70 24 -125 61 -159c28 -27 65 -41 110 -41c48 0 97 13 130 50c27 29 43 72 43 134v403c0 21 17 39 40 39c22 0 40 -18 40 -39v-403c0 -85 -24 -145 -62 -186c-48 -51 -119 -72 -189 -72c-42 0 -87 10 -126 35c-36 22 -67 58 -87 109z" />
    <glyph glyph-name="W.2" unicode="&#xe101;" horiz-adv-x="1004" 
d="M694 96l223 566c6 17 21 28 40 28c22 0 40 -15 40 -39c0 -5 -2 -11 -4 -17l-243 -603c-9 -23 -27 -41 -56 -41c-30 0 -48 18 -56 41l-137 338l-137 -338c-9 -23 -27 -41 -57 -41s-47 18 -56 41l-240 602c-2 6 -4 12 -4 17c0 23 17 40 41 40c18 0 33 -11 39 -28l221 -566
l151 384l-62 153c-2 6 -4 12 -4 17c0 23 18 40 41 40c19 0 33 -11 39 -28z" />
    <glyph glyph-name="W.calt" unicode="&#xe102;" horiz-adv-x="1019" 
d="M745 96l186 566c6 18 22 28 40 28c22 0 41 -15 41 -38c0 -5 -2 -12 -5 -19l-206 -602c-8 -23 -25 -41 -56 -41s-48 18 -56 41l-181 508l-177 -508c-8 -23 -25 -41 -56 -41c-32 0 -49 18 -57 41l-207 602c-3 7 -4 13 -4 18c0 22 17 39 41 39c21 0 33 -12 39 -30l188 -564
l191 563c6 18 19 31 44 31s36 -13 42 -32z" />
    <glyph glyph-name="Wcircumflex" unicode="&#x174;" horiz-adv-x="1073" 
d="M536 134c-19 -51 -50 -87 -86 -109c-39 -25 -84 -35 -126 -35c-71 0 -141 21 -189 72c-38 41 -62 101 -62 186v403c0 21 18 39 40 39c23 0 40 -18 40 -39v-403c0 -62 16 -105 42 -134c34 -37 82 -50 131 -50c44 0 82 14 110 41c37 34 60 89 60 159v387c0 21 18 39 40 39
c23 0 40 -18 40 -39v-387c0 -70 24 -125 61 -159c28 -27 65 -41 110 -41c48 0 97 13 130 50c27 29 43 72 43 134v403c0 21 17 39 40 39c22 0 40 -18 40 -39v-403c0 -85 -24 -145 -62 -186c-48 -51 -119 -72 -189 -72c-42 0 -87 10 -126 35c-36 22 -67 58 -87 109zM535 971
c11 0 18 -6 24 -12l123 -127c7 -8 13 -14 13 -22c0 -17 -13 -27 -27 -27c-8 0 -13 2 -19 8l-114 117l-113 -117c-6 -6 -12 -8 -19 -8c-15 0 -27 10 -27 27c0 8 5 15 12 22l124 127c6 6 13 12 23 12z" />
    <glyph glyph-name="Wcircumflex.2" unicode="&#xe103;" horiz-adv-x="1004" 
d="M694 96l223 566c6 17 21 28 40 28c22 0 40 -15 40 -39c0 -5 -2 -11 -4 -17l-243 -603c-9 -23 -27 -41 -56 -41c-30 0 -48 18 -56 41l-137 338l-137 -338c-9 -23 -27 -41 -57 -41s-47 18 -56 41l-240 602c-2 6 -4 12 -4 17c0 23 17 40 41 40c18 0 33 -11 39 -28l221 -566
l151 384l-62 153c-2 6 -4 12 -4 17c0 23 18 40 41 40c19 0 33 -11 39 -28zM499 971c11 0 18 -6 24 -12l123 -127c7 -8 13 -14 13 -22c0 -17 -13 -27 -27 -27c-8 0 -13 2 -19 8l-114 117l-113 -117c-6 -6 -12 -8 -19 -8c-15 0 -27 10 -27 27c0 8 5 15 12 22l124 127
c6 6 13 12 23 12z" />
    <glyph glyph-name="Wsmall" unicode="&#xf777;" horiz-adv-x="888" 
d="M408 219v298c0 19 16 35 37 35c20 0 36 -16 36 -35v-298c0 -53 14 -94 39 -122c23 -25 56 -37 96 -37c39 0 72 12 95 37c26 28 39 69 39 122v298c0 19 16 35 37 35c20 0 36 -16 36 -35v-301c0 -71 -20 -130 -58 -169c-35 -35 -85 -55 -149 -55c-48 0 -87 13 -117 37
c-24 19 -42 43 -54 73c-12 -30 -32 -55 -56 -73c-30 -24 -69 -37 -116 -37c-64 0 -114 20 -149 55c-39 39 -59 98 -59 169v301c0 19 17 35 37 35s37 -16 37 -35v-298c0 -53 14 -94 39 -122c23 -25 56 -37 95 -37c40 0 73 12 96 37c25 28 39 69 39 122z" />
    <glyph glyph-name="Wsmall.2" unicode="&#xe104;" horiz-adv-x="880" 
d="M615 90l181 437c6 16 18 25 36 25c23 0 38 -14 38 -35c0 -5 -2 -12 -6 -20l-200 -470c-10 -23 -23 -35 -50 -35s-40 12 -49 35l-126 298l-126 -298c-10 -23 -23 -35 -50 -35s-40 12 -49 35l-199 472c-3 6 -5 12 -5 17c0 20 16 36 39 36c16 0 28 -9 35 -26l180 -436
l135 330l-33 79c-3 6 -5 12 -5 17c0 20 16 36 39 36c16 0 28 -9 35 -26z" />
    <glyph glyph-name="Wsmall.calt" unicode="&#xe105;" horiz-adv-x="834" 
d="M457 519l143 -428l149 430c6 17 16 31 37 31c25 0 38 -19 38 -38c0 -8 -3 -18 -6 -28l-165 -458c-7 -19 -19 -36 -51 -36c-33 0 -46 17 -52 36l-133 384l-135 -384c-6 -19 -21 -36 -52 -36s-44 17 -51 36l-163 458c-4 10 -7 20 -7 28c0 19 14 38 39 38
c19 0 30 -12 37 -32l147 -429l144 428c5 16 14 33 40 33s37 -17 41 -33z" />
    <glyph glyph-name="Wsmallcircumflex" unicode="&#xe106;" horiz-adv-x="888" 
d="M408 219v298c0 19 16 35 37 35c20 0 36 -16 36 -35v-298c0 -53 14 -94 39 -122c23 -25 56 -37 96 -37c39 0 72 12 95 37c26 28 39 69 39 122v298c0 19 16 35 37 35c20 0 36 -16 36 -35v-301c0 -71 -20 -130 -58 -169c-35 -35 -85 -55 -149 -55c-48 0 -87 13 -117 37
c-24 19 -42 43 -54 73c-12 -30 -32 -55 -56 -73c-30 -24 -69 -37 -116 -37c-64 0 -114 20 -149 55c-39 39 -59 98 -59 169v301c0 19 17 35 37 35s37 -16 37 -35v-298c0 -53 14 -94 39 -122c23 -25 56 -37 95 -37c40 0 73 12 96 37c25 28 39 69 39 122zM443 829
c11 0 18 -6 24 -12l123 -127c7 -8 13 -14 13 -22c0 -17 -13 -27 -27 -27c-8 0 -13 2 -19 8l-114 117l-113 -117c-6 -6 -12 -8 -19 -8c-15 0 -27 10 -27 27c0 8 5 15 12 22l124 127c6 6 13 12 23 12z" />
    <glyph glyph-name="Wsmallcircumflex.2" unicode="&#xe107;" horiz-adv-x="880" 
d="M615 90l181 437c6 16 18 25 36 25c23 0 38 -14 38 -35c0 -5 -2 -12 -6 -20l-200 -470c-10 -23 -23 -35 -50 -35s-40 12 -49 35l-126 298l-126 -298c-10 -23 -23 -35 -50 -35s-40 12 -49 35l-199 472c-3 6 -5 12 -5 17c0 20 16 36 39 36c16 0 28 -9 35 -26l180 -436
l135 330l-33 79c-3 6 -5 12 -5 17c0 20 16 36 39 36c16 0 28 -9 35 -26zM436 829c11 0 18 -6 24 -12l123 -127c7 -8 13 -14 13 -22c0 -17 -13 -27 -27 -27c-8 0 -13 2 -19 8l-114 117l-113 -117c-6 -6 -12 -8 -19 -8c-15 0 -27 10 -27 27c0 8 5 15 12 22l124 127
c6 6 13 12 23 12z" />
    <glyph glyph-name="X" unicode="X" horiz-adv-x="620" 
d="M95 670l216 -266l215 266c11 13 22 20 37 20c22 0 46 -18 46 -42c0 -10 -5 -19 -12 -27l-235 -280l239 -282c7 -8 10 -17 10 -27c0 -23 -21 -42 -45 -42c-15 0 -26 6 -37 20l-218 268l-219 -268c-11 -14 -23 -20 -38 -20c-22 0 -45 17 -45 42c0 9 4 19 11 27l240 281
l-237 281c-6 8 -11 17 -11 27c0 23 22 42 46 42c16 0 26 -6 37 -20z" />
    <glyph glyph-name="Xsmall" unicode="&#xf778;" horiz-adv-x="505" 
d="M85 535l169 -207l168 207c8 12 19 17 32 17c21 0 40 -14 40 -37c0 -9 -4 -18 -11 -26l-183 -217c16 -20 171 -198 187 -217c6 -8 11 -17 11 -26c0 -21 -17 -37 -40 -37c-13 0 -25 6 -32 17l-172 206l-172 -206c-10 -12 -21 -17 -34 -17c-21 0 -40 15 -40 37
c0 8 4 18 11 26l189 215l-184 219c-7 9 -11 17 -11 26c0 20 17 37 39 37c13 0 25 -5 33 -17z" />
    <glyph glyph-name="Y" unicode="Y" horiz-adv-x="571" 
d="M559 624l-234 -325v-270c0 -21 -18 -39 -40 -39s-40 18 -40 39v270l-232 326c-5 8 -9 17 -9 27c0 22 17 38 39 38c14 0 25 -6 35 -20l207 -291l208 291c10 14 21 20 35 20c22 0 39 -17 39 -38c0 -10 -3 -19 -8 -28z" />
    <glyph glyph-name="Y.2" unicode="&#xe108;" horiz-adv-x="622" 
d="M609 624l-259 -361v-234c0 -21 -18 -39 -40 -39s-40 18 -40 39v234l-257 362c-5 8 -9 17 -9 27c0 22 17 38 39 38c14 0 25 -6 35 -20l232 -327l234 327c10 14 21 20 35 20c22 0 39 -17 39 -38c0 -10 -3 -19 -9 -28z" />
    <glyph glyph-name="Y.3" unicode="&#xe109;" horiz-adv-x="564" 
d="M73 60c85 0 133 47 177 121l-233 445c-4 8 -7 16 -7 25c0 22 18 39 39 39s31 -9 41 -29l201 -392l188 392c9 20 21 29 41 29s38 -16 38 -38c0 -9 -3 -17 -7 -25l-203 -424c-64 -134 -145 -213 -273 -213c-27 0 -41 15 -41 35c0 19 14 35 39 35z" />
    <glyph glyph-name="Yacute" unicode="&#xdd;" horiz-adv-x="565" 
d="M556 624l-234 -325v-270c0 -21 -18 -39 -40 -39s-40 18 -40 39v270l-232 326c-5 8 -9 17 -9 27c0 22 17 38 39 38c14 0 25 -6 35 -20l207 -291l208 291c10 14 21 20 35 20c22 0 39 -17 39 -38c0 -10 -3 -19 -8 -28zM216 794c0 6 2 12 6 19l76 138c6 12 15 21 28 21
c17 0 30 -13 30 -28c0 -7 -2 -12 -8 -22l-81 -134c-7 -11 -15 -18 -26 -18c-13 0 -25 10 -25 24z" />
    <glyph glyph-name="Yacute.2" unicode="&#xe10a;" horiz-adv-x="622" 
d="M609 624l-259 -361v-234c0 -21 -18 -39 -40 -39s-40 18 -40 39v234l-257 362c-5 8 -9 17 -9 27c0 22 17 38 39 38c14 0 25 -6 35 -20l232 -327l234 327c10 14 21 20 35 20c22 0 39 -17 39 -38c0 -10 -3 -19 -9 -28zM244 794c0 6 2 12 6 19l76 138c6 12 15 21 28 21
c17 0 30 -13 30 -28c0 -7 -2 -12 -8 -22l-81 -134c-7 -11 -15 -18 -26 -18c-13 0 -25 10 -25 24z" />
    <glyph glyph-name="Yacute.3" unicode="&#xe10b;" horiz-adv-x="564" 
d="M73 60c85 0 133 47 177 121l-233 445c-4 8 -7 16 -7 25c0 22 18 39 39 39s31 -9 41 -29l201 -392l188 392c9 20 21 29 41 29s38 -16 38 -38c0 -9 -3 -17 -7 -25l-203 -424c-64 -134 -145 -213 -273 -213c-27 0 -41 15 -41 35c0 19 14 35 39 35zM216 794c0 6 2 12 6 19
l76 138c6 12 15 21 28 21c17 0 30 -13 30 -28c0 -7 -2 -12 -8 -22l-81 -134c-7 -11 -15 -18 -26 -18c-13 0 -25 10 -25 24z" />
    <glyph glyph-name="Ycircumflex" unicode="&#x176;" horiz-adv-x="571" 
d="M559 624l-234 -325v-270c0 -21 -18 -39 -40 -39s-40 18 -40 39v270l-232 326c-5 8 -9 17 -9 27c0 22 17 38 39 38c14 0 25 -6 35 -20l207 -291l208 291c10 14 21 20 35 20c22 0 39 -17 39 -38c0 -10 -3 -19 -8 -28zM284 971c11 0 18 -6 24 -12l123 -127
c7 -8 13 -14 13 -22c0 -17 -13 -27 -27 -27c-8 0 -13 2 -19 8l-114 117l-113 -117c-6 -6 -12 -8 -19 -8c-15 0 -27 10 -27 27c0 8 5 15 12 22l124 127c6 6 13 12 23 12z" />
    <glyph glyph-name="Ycircumflex.2" unicode="&#xe10c;" horiz-adv-x="622" 
d="M609 624l-259 -361v-234c0 -21 -18 -39 -40 -39s-40 18 -40 39v234l-257 362c-5 8 -9 17 -9 27c0 22 17 38 39 38c14 0 25 -6 35 -20l232 -327l234 327c10 14 21 20 35 20c22 0 39 -17 39 -38c0 -10 -3 -19 -9 -28zM309 971c11 0 18 -6 24 -12l123 -127
c7 -8 13 -14 13 -22c0 -17 -13 -27 -27 -27c-8 0 -13 2 -19 8l-114 117l-113 -117c-6 -6 -12 -8 -19 -8c-15 0 -27 10 -27 27c0 8 5 15 12 22l124 127c6 6 13 12 23 12z" />
    <glyph glyph-name="Ycircumflex.3" unicode="&#xe10d;" horiz-adv-x="564" 
d="M73 60c85 0 133 47 177 121l-233 445c-4 8 -7 16 -7 25c0 22 18 39 39 39s31 -9 41 -29l201 -392l188 392c9 20 21 29 41 29s38 -16 38 -38c0 -9 -3 -17 -7 -25l-203 -424c-64 -134 -145 -213 -273 -213c-27 0 -41 15 -41 35c0 19 14 35 39 35zM283 971
c11 0 18 -6 24 -12l123 -127c7 -8 13 -14 13 -22c0 -17 -13 -27 -27 -27c-8 0 -13 2 -19 8l-114 117l-113 -117c-6 -6 -12 -8 -19 -8c-15 0 -27 10 -27 27c0 8 5 15 12 22l124 127c6 6 13 12 23 12z" />
    <glyph glyph-name="Ydieresis" unicode="&#x178;" horiz-adv-x="565" 
d="M556 624l-234 -325v-270c0 -21 -18 -39 -40 -39s-40 18 -40 39v270l-232 326c-5 8 -9 17 -9 27c0 22 17 38 39 38c14 0 25 -6 35 -20l207 -291l208 291c10 14 21 20 35 20c22 0 39 -17 39 -38c0 -10 -3 -19 -8 -28zM188 849c-24 0 -44 20 -44 45c0 24 20 43 44 43
c25 0 44 -19 44 -43c0 -25 -19 -45 -44 -45zM376 849c-24 0 -44 20 -44 45c0 24 20 43 44 43s44 -19 44 -43c0 -25 -20 -45 -44 -45z" />
    <glyph glyph-name="Ydieresis.2" unicode="&#xe10e;" horiz-adv-x="622" 
d="M609 624l-259 -361v-234c0 -21 -18 -39 -40 -39s-40 18 -40 39v234l-257 362c-5 8 -9 17 -9 27c0 22 17 38 39 38c14 0 25 -6 35 -20l232 -327l234 327c10 14 21 20 35 20c22 0 39 -17 39 -38c0 -10 -3 -19 -9 -28zM216 825c-24 0 -44 20 -44 45c0 24 20 43 44 43
c25 0 44 -19 44 -43c0 -25 -19 -45 -44 -45zM404 825c-24 0 -44 20 -44 45c0 24 20 43 44 43s44 -19 44 -43c0 -25 -20 -45 -44 -45z" />
    <glyph glyph-name="Ydieresis.3" unicode="&#xe10f;" horiz-adv-x="564" 
d="M73 60c85 0 133 47 177 121l-233 445c-4 8 -7 16 -7 25c0 22 18 39 39 39s31 -9 41 -29l201 -392l188 392c9 20 21 29 41 29s38 -16 38 -38c0 -9 -3 -17 -7 -25l-203 -424c-64 -134 -145 -213 -273 -213c-27 0 -41 15 -41 35c0 19 14 35 39 35zM191 825
c-24 0 -44 20 -44 45c0 24 20 43 44 43c25 0 44 -19 44 -43c0 -25 -19 -45 -44 -45zM379 825c-24 0 -44 20 -44 45c0 24 20 43 44 43s44 -19 44 -43c0 -25 -20 -45 -44 -45z" />
    <glyph glyph-name="Ysmall" unicode="&#xf779;" horiz-adv-x="476" 
d="M453 487l-179 -249v-211c0 -19 -14 -35 -37 -35c-22 0 -36 16 -36 35v211l-179 250c-6 8 -11 19 -11 30c0 20 15 34 35 34c17 0 25 -8 33 -19l158 -224l161 226c8 11 17 17 32 17c19 0 35 -14 35 -35c0 -10 -5 -21 -12 -30z" />
    <glyph glyph-name="Ysmall.2" unicode="&#xe110;" horiz-adv-x="517" 
d="M495 488l-200 -278v-183c0 -19 -14 -35 -37 -35s-36 16 -36 35v183l-200 278c-6 9 -11 19 -11 30c0 20 15 34 35 34c17 0 25 -8 33 -19l179 -253l181 255c8 12 18 17 32 17c20 0 35 -14 35 -35c0 -10 -5 -20 -11 -29z" />
    <glyph glyph-name="Ysmall.3" unicode="&#xe111;" horiz-adv-x="465" 
d="M65 53c66 0 103 37 137 93l-184 348c-3 7 -7 16 -7 23c0 20 15 35 35 35c18 0 26 -10 34 -25l159 -304c9 23 137 281 147 304c7 17 17 25 35 25s33 -14 33 -34c0 -6 -2 -12 -6 -21l-161 -335c-51 -107 -119 -170 -221 -170c-25 0 -36 13 -36 31c0 17 11 30 35 30z" />
    <glyph glyph-name="Ysmallacute" unicode="&#xe112;" horiz-adv-x="476" 
d="M453 487l-179 -249v-211c0 -19 -14 -35 -37 -35c-22 0 -36 16 -36 35v211l-179 250c-6 8 -11 19 -11 30c0 20 15 34 35 34c17 0 25 -8 33 -19l158 -224l161 226c8 11 17 17 32 17c19 0 35 -14 35 -35c0 -10 -5 -21 -12 -30zM167 652c0 6 2 12 6 19l76 138
c6 12 15 21 28 21c17 0 30 -13 30 -28c0 -7 -2 -12 -8 -22l-81 -134c-7 -11 -15 -18 -26 -18c-13 0 -25 10 -25 24z" />
    <glyph glyph-name="Ysmallacute.2" unicode="&#xe113;" horiz-adv-x="517" 
d="M495 488l-200 -278v-183c0 -19 -14 -35 -37 -35s-36 16 -36 35v183l-200 278c-6 9 -11 19 -11 30c0 20 15 34 35 34c17 0 25 -8 33 -19l179 -253l181 255c8 12 18 17 32 17c20 0 35 -14 35 -35c0 -10 -5 -20 -11 -29zM188 652c0 6 2 12 6 19l76 138c6 12 15 21 28 21
c17 0 30 -13 30 -28c0 -7 -2 -12 -8 -22l-81 -134c-7 -11 -15 -18 -26 -18c-13 0 -25 10 -25 24z" />
    <glyph glyph-name="Ysmallacute.3" unicode="&#xe114;" horiz-adv-x="465" 
d="M65 53c66 0 103 37 137 93l-184 348c-3 7 -7 16 -7 23c0 20 15 35 35 35c18 0 26 -10 34 -25l159 -304c9 23 137 281 147 304c7 17 17 25 35 25s33 -14 33 -34c0 -6 -2 -12 -6 -21l-161 -335c-51 -107 -119 -170 -221 -170c-25 0 -36 13 -36 31c0 17 11 30 35 30z
M168 652c0 6 2 12 6 19l76 138c6 12 15 21 28 21c17 0 30 -13 30 -28c0 -7 -2 -12 -8 -22l-81 -134c-7 -11 -15 -18 -26 -18c-13 0 -25 10 -25 24z" />
    </font>
</defs>
</svg>
