<?xml version="1.0" standalone="no"?>
<!DOCTYPE svg PUBLIC "-//W3C//DTD SVG 1.1//EN" "http://www.w3.org/Graphics/SVG/1.1/DTD/svg11.dtd" >
<svg xmlns="http://www.w3.org/2000/svg" xmlns:xlink="http://www.w3.org/1999/xlink" version="1.1">
<metadata>
Created by FontForge 20190801 at Thu Sep 18 14:46:07 2008
 By Jimmy Wärting
Copyright (c) 2008 by G-Type Designed and digitized by Nick Cooke. All rights reserved.
</metadata>
<defs>
<font id="HouschkaRounded-ExtraBold" horiz-adv-x="600" >
  <font-face 
    font-family="Houschka Rounded ExtraBold"
    font-weight="800"
    font-stretch="normal"
    units-per-em="1000"
    panose-1="2 15 5 3 9 0 0 2 0 4"
    ascent="760"
    descent="-240"
    x-height="462"
    cap-height="681"
    bbox="-172 -395 1282 981"
    underline-thickness="50"
    underline-position="-100"
    unicode-range="U+0020-FB06"
  />
<missing-glyph horiz-adv-x="500" 
d="M0 690h500v-690h-500v690zM250 301l-181 -249h361zM69 638l181 -249l180 249h-361zM218 345l-166 229v-458zM282 345l166 -229v458z" />
    <glyph glyph-name="ff" unicode="ff" horiz-adv-x="713" 
d="M245 461h151v16c0 109 40 212 162 212c44 0 82 -7 111 -19c38 -15 64 -36 64 -73c0 -34 -27 -61 -61 -61c-17 0 -29 8 -41 12c-15 5 -26 7 -37 7c-28 0 -36 -16 -36 -62v-32h66c34 0 61 -30 61 -63c0 -36 -27 -64 -61 -64h-66v-266c0 -43 -37 -78 -81 -78s-81 35 -81 78
v266h-151v-266c0 -43 -37 -78 -81 -78s-81 35 -81 78v266h-26c-34 0 -62 28 -62 64c0 33 28 63 62 63h26v34c0 88 41 184 157 184c38 0 66 -5 92 -15c35 -14 58 -36 58 -73c0 -34 -23 -61 -52 -61c-12 0 -21 2 -30 4c-8 2 -15 4 -25 4c-30 0 -38 -30 -38 -55v-22z" />
    <glyph glyph-name="ffi" unicode="ffi" horiz-adv-x="900" 
d="M83 461v44c0 88 41 184 157 184c38 0 66 -5 92 -15c35 -14 58 -36 58 -73c0 -34 -23 -61 -52 -61c-12 0 -21 2 -30 4c-8 2 -15 4 -25 4c-30 0 -38 -30 -38 -55v-32h151v44c0 88 39 184 194 184c56 0 106 -8 144 -22c48 -18 77 -42 77 -81c0 -36 -23 -65 -77 -65
c-21 0 -41 8 -60 16c-20 9 -40 18 -60 18c-43 0 -56 -29 -56 -75v-19h200c53 0 81 -35 81 -78v-315c0 -43 -38 -78 -81 -78c-45 0 -81 35 -81 78v266h-119v-266c0 -43 -37 -78 -81 -78s-81 35 -81 78v266h-151v-266c0 -43 -37 -78 -81 -78s-81 35 -81 78v266h-26
c-34 0 -62 28 -62 64c0 33 28 63 62 63h26z" />
    <glyph glyph-name="ffj" unicode="ffj" horiz-adv-x="900" 
d="M245 461h151v44c0 88 39 184 194 184c56 0 106 -8 144 -22c48 -18 77 -42 77 -81c0 -36 -23 -65 -77 -65c-21 0 -41 8 -60 16c-20 9 -40 18 -60 18c-43 0 -56 -29 -56 -75v-19h200c44 0 81 -35 81 -78v-352c0 -89 -19 -165 -55 -214c-27 -37 -64 -58 -111 -58
s-85 21 -85 66c0 50 33 48 67 100c16 25 22 60 22 132v277h-119v-266c0 -43 -37 -78 -81 -78s-81 35 -81 78v266h-151v-266c0 -43 -37 -78 -81 -78s-81 35 -81 78v266h-26c-34 0 -62 28 -62 64c0 33 28 63 62 63h26v44c0 88 41 184 157 184c38 0 66 -5 92 -15
c35 -14 58 -36 58 -73c0 -34 -23 -61 -52 -61c-12 0 -21 2 -30 4c-8 2 -15 4 -25 4c-30 0 -38 -30 -38 -55v-32z" />
    <glyph glyph-name="ffl" unicode="ffl" horiz-adv-x="900" 
d="M245 461h151v44c0 88 39 184 194 184c56 0 106 -8 144 -22c80 -29 105 -66 105 -143v-456c0 -43 -37 -78 -81 -78s-81 35 -81 78v451c0 24 -31 36 -59 36c-43 0 -60 -26 -60 -75v-19h37c34 0 61 -30 61 -63c0 -36 -27 -64 -61 -64h-37v-266c0 -43 -37 -78 -81 -78
s-81 35 -81 78v266h-151v-266c0 -43 -37 -78 -81 -78s-81 35 -81 78v266h-26c-34 0 -62 28 -62 64c0 33 28 63 62 63h26v44c0 88 41 184 157 184c38 0 66 -5 92 -15c35 -14 58 -36 58 -73c0 -34 -23 -61 -52 -61c-12 0 -21 2 -30 4c-8 2 -15 4 -25 4c-30 0 -38 -30 -38 -55
v-32z" />
    <glyph glyph-name="fi" unicode="fi" horiz-adv-x="587" 
d="M245 461h200c54 0 81 -35 81 -78v-315c0 -43 -38 -78 -81 -78c-45 0 -81 35 -81 78v266h-119v-266c0 -43 -37 -78 -81 -78s-81 35 -81 78v266h-26c-34 0 -62 28 -62 64c0 33 28 63 62 63h26v44c0 88 39 184 194 184c56 0 106 -8 144 -22c48 -18 77 -42 77 -81
c0 -36 -23 -65 -77 -65c-21 0 -41 8 -60 16c-20 9 -40 18 -60 18c-43 0 -56 -29 -56 -75v-19z" />
    <glyph glyph-name="fj" unicode="fj" horiz-adv-x="587" 
d="M245 461h200c44 0 81 -35 81 -78v-352c0 -89 -19 -165 -55 -214c-27 -37 -64 -58 -111 -58s-85 21 -85 66c0 50 33 48 67 100c16 25 22 60 22 132v277h-119v-266c0 -43 -37 -78 -81 -78s-81 35 -81 78v266h-26c-34 0 -62 28 -62 64c0 33 28 63 62 63h26v44
c0 88 39 184 194 184c56 0 106 -8 144 -22c48 -18 77 -42 77 -81c0 -36 -23 -65 -77 -65c-21 0 -41 8 -60 16c-20 9 -40 18 -60 18c-43 0 -56 -29 -56 -75v-19z" />
    <glyph glyph-name="fl" unicode="fl" horiz-adv-x="587" 
d="M526 524v-456c0 -43 -38 -78 -81 -78c-44 0 -81 35 -81 78v451c0 24 -31 36 -59 36c-43 0 -60 -26 -60 -75v-19h37c34 0 61 -30 61 -63c0 -36 -27 -64 -61 -64h-37v-266c0 -43 -37 -78 -81 -78s-81 35 -81 78v266h-26c-34 0 -62 28 -62 64c0 33 28 63 62 63h26v44
c0 88 45 184 200 184c58 0 111 -8 149 -22c80 -29 94 -66 94 -143z" />
    <glyph glyph-name=".notdef" horiz-adv-x="500" 
d="M0 690h500v-690h-500v690zM250 301l-181 -249h361zM69 638l181 -249l180 249h-361zM218 345l-166 229v-458zM282 345l166 -229v458z" />
    <glyph glyph-name="A" unicode="A" horiz-adv-x="695" 
d="M347 526c-25 0 -51 -6 -73 -25c-20 -19 -35 -49 -35 -98v-53h217v53c0 49 -15 79 -35 98c-21 19 -48 25 -74 25zM632 411v-336c0 -47 -41 -85 -88 -85c-49 0 -88 38 -88 85v119h-217v-119c0 -47 -41 -85 -88 -85c-49 0 -88 38 -88 85v336c0 83 34 170 108 225
c44 33 103 54 176 54c74 0 133 -21 177 -54c74 -55 108 -142 108 -225z" />
    <glyph glyph-name="A.2" unicode="&#xe000;" horiz-adv-x="695" 
d="M347 526c-25 0 -51 -6 -73 -25c-20 -19 -35 -49 -35 -98v-53h217v53c0 49 -15 79 -35 98c-21 19 -48 25 -74 25zM632 411v-336c0 -47 -41 -85 -88 -85c-49 0 -88 38 -88 85v119h-217v-119c0 -47 -41 -85 -88 -85c-49 0 -88 38 -88 85v336c0 83 34 170 108 225
c44 33 103 54 176 54c74 0 133 -21 177 -54c74 -55 108 -142 108 -225z" />
    <glyph glyph-name="A.3" unicode="&#xe001;" horiz-adv-x="668" 
d="M66 568c0 43 31 70 72 87c73 31 135 35 200 35c94 0 164 -26 209 -77c39 -44 59 -106 59 -187v-351c0 -47 -39 -85 -88 -85c-36 0 -67 21 -81 50c-48 -34 -86 -50 -182 -50c-111 0 -213 76 -213 200c0 75 34 129 95 166c67 40 167 61 293 66c-1 40 -11 68 -28 86
c-19 20 -47 28 -79 28c-36 0 -62 -11 -86 -23c-27 -13 -52 -27 -88 -27c-48 0 -83 36 -83 82zM232 198c0 -42 34 -62 89 -62c37 0 75 14 109 41v109c-53 -3 -105 -10 -138 -23c-37 -15 -60 -36 -60 -65z" />
    <glyph glyph-name="A.calt" unicode="&#xe002;" horiz-adv-x="617" 
d="M309 471l-63 -207h124zM434 48l-22 75h-209l-23 -75c-11 -36 -38 -58 -86 -58c-53 0 -84 38 -84 81c0 10 4 27 8 37l168 491c17 51 51 92 124 92s109 -42 126 -92l164 -491c3 -9 7 -27 7 -37c0 -51 -38 -81 -89 -81c-42 0 -73 21 -84 58z" />
    <glyph glyph-name="AE" unicode="&#xc6;" horiz-adv-x="962" 
d="M613 265v-109h245c41 0 75 -37 75 -78c0 -43 -34 -78 -75 -78h-333c-53 0 -88 38 -88 85v109h-198v-119c0 -47 -41 -85 -88 -85c-49 0 -88 38 -88 85v336c0 83 33 170 104 225c43 33 100 54 171 54c50 0 94 -11 130 -29c15 12 35 20 57 20h333c41 0 75 -37 75 -78
c0 -43 -34 -78 -75 -78h-245v-104h191c42 0 76 -37 76 -78c0 -43 -34 -78 -76 -78h-191zM338 526c-24 0 -48 -6 -67 -25s-32 -49 -32 -98v-53h198v53c0 49 -13 79 -32 98s-43 25 -67 25z" />
    <glyph glyph-name="AE.3" unicode="&#xe003;" horiz-adv-x="1123" 
d="M42 190c0 93 53 149 127 182c78 36 179 46 261 50c-1 40 -11 68 -28 86c-19 20 -47 28 -79 28c-36 0 -62 -11 -86 -23c-27 -13 -52 -27 -88 -27c-48 0 -83 36 -83 82c0 43 31 70 72 87c73 31 135 35 200 35c93 0 163 -26 208 -77c55 46 130 77 224 77
c111 0 186 -36 235 -86c65 -66 84 -139 84 -202c0 -90 -50 -127 -110 -127h-352c12 -39 32 -69 60 -90c31 -24 71 -36 115 -36c42 0 70 6 92 14c37 13 57 30 89 30c45 0 77 -35 77 -82c0 -46 -36 -74 -82 -92c-60 -23 -132 -29 -179 -29c-126 0 -208 34 -268 91
c-66 -53 -143 -91 -269 -91c-119 0 -220 76 -220 200zM321 136c51 0 105 31 136 57c-10 25 -17 53 -22 82c-52 0 -111 -4 -152 -19c-30 -12 -51 -30 -51 -58c0 -42 34 -62 89 -62zM629 426h274c-4 28 -16 51 -33 68c-23 23 -56 33 -98 33s-79 -14 -106 -40
c-16 -16 -29 -36 -37 -61z" />
    <glyph glyph-name="AE.calt" unicode="&#xe004;" horiz-adv-x="994" 
d="M645 265v-109h245c41 0 75 -37 75 -78c0 -43 -34 -78 -75 -78h-333c-49 0 -88 38 -88 85v38h-229l-57 -75c-28 -36 -43 -58 -90 -58c-52 0 -83 32 -83 82c0 20 8 42 25 64l364 463c39 50 73 81 143 82h348c41 0 75 -37 75 -78c0 -43 -34 -78 -75 -78h-245v-104h191
c42 0 76 -37 76 -78c0 -43 -34 -78 -76 -78h-191zM348 264h121v160z" />
    <glyph glyph-name="AEsmall" unicode="&#xf7e6;" horiz-adv-x="840" 
d="M751 0h-291c-41 0 -81 31 -81 78v71h-156v-79c0 -43 -37 -78 -81 -78s-81 35 -81 78v257c0 56 22 118 66 161c39 37 96 64 173 64c44 0 82 -9 113 -23c13 10 29 15 47 15h291c40 0 72 -29 72 -72s-32 -72 -72 -72h-210v-54h169c40 0 72 -29 72 -72s-32 -72 -72 -72h-169
v-58h210c40 0 72 -29 72 -72s-32 -72 -72 -72zM300 401c-19 0 -42 -6 -57 -22c-12 -13 -20 -31 -20 -59v-32h156v32c0 28 -8 46 -20 59c-16 17 -38 22 -59 22z" />
    <glyph glyph-name="AEsmall.3" unicode="&#xe005;" horiz-adv-x="901" 
d="M642 138c30 0 51 4 69 10c28 10 45 22 70 22c41 0 70 -33 70 -74c0 -39 -26 -64 -77 -83c-47 -18 -101 -21 -136 -21c-100 0 -164 27 -212 73c-43 -38 -102 -73 -197 -73c-107 0 -184 63 -184 166c0 155 166 182 300 186c-1 21 -6 36 -16 47c-11 11 -27 16 -50 16
c-24 0 -44 -10 -67 -21c-21 -10 -41 -19 -65 -19c-46 0 -78 34 -78 78c0 41 28 63 64 79c59 25 107 28 158 28c67 0 121 -17 158 -52c43 31 100 52 167 52c89 0 150 -30 190 -70c52 -53 67 -113 67 -163c0 -77 -44 -106 -97 -106h-248c9 -22 19 -36 34 -49
c22 -19 50 -26 80 -26zM263 130c39 0 72 13 101 31c-6 16 -11 34 -14 52c-64 -2 -139 -12 -139 -49c0 -26 24 -34 52 -34zM529 340h176c-3 20 -12 37 -26 48c-15 12 -35 18 -60 18c-22 0 -43 -7 -60 -21c-13 -11 -24 -26 -30 -45z" />
    <glyph glyph-name="Aacute" unicode="&#xc1;" horiz-adv-x="695" 
d="M347 526c-25 0 -51 -6 -73 -25c-20 -19 -35 -49 -35 -98v-53h217v53c0 49 -15 79 -35 98c-21 19 -48 25 -74 25zM632 411v-336c0 -47 -41 -85 -88 -85c-49 0 -88 38 -88 85v119h-217v-119c0 -47 -41 -85 -88 -85c-49 0 -88 38 -88 85v336c0 83 34 170 108 225
c44 33 103 54 176 54c74 0 133 -21 177 -54c74 -55 108 -142 108 -225zM262 812c0 13 4 24 10 36l42 89c10 22 27 39 56 39c33 0 63 -26 63 -59c0 -14 -4 -23 -15 -41l-51 -82c-13 -21 -29 -33 -51 -33c-29 0 -54 22 -54 51z" />
    <glyph glyph-name="Aacute.2" unicode="&#xe006;" horiz-adv-x="695" 
d="M347 526c-25 0 -51 -6 -73 -25c-20 -19 -35 -49 -35 -98v-53h217v53c0 49 -15 79 -35 98c-21 19 -48 25 -74 25zM632 411v-336c0 -47 -41 -85 -88 -85c-49 0 -88 38 -88 85v119h-217v-119c0 -47 -41 -85 -88 -85c-49 0 -88 38 -88 85v336c0 83 34 170 108 225
c44 33 103 54 176 54c74 0 133 -21 177 -54c74 -55 108 -142 108 -225zM262 812c0 13 4 24 10 36l42 89c10 22 27 39 56 39c33 0 63 -26 63 -59c0 -14 -4 -23 -15 -41l-51 -82c-13 -21 -29 -33 -51 -33c-29 0 -54 22 -54 51z" />
    <glyph glyph-name="Aacute.3" unicode="&#xe007;" horiz-adv-x="668" 
d="M66 568c0 43 31 70 72 87c73 31 135 35 200 35c94 0 164 -26 209 -77c39 -44 59 -106 59 -187v-351c0 -47 -39 -85 -88 -85c-36 0 -67 21 -81 50c-48 -34 -86 -50 -182 -50c-111 0 -213 76 -213 200c0 75 34 129 95 166c67 40 167 61 293 66c-1 40 -11 68 -28 86
c-19 20 -47 28 -79 28c-36 0 -62 -11 -86 -23c-27 -13 -52 -27 -88 -27c-48 0 -83 36 -83 82zM239 812c0 13 4 24 10 36l42 89c10 22 27 39 56 39c33 0 63 -26 63 -59c0 -14 -4 -23 -15 -41l-51 -82c-13 -21 -29 -33 -51 -33c-29 0 -54 22 -54 51zM232 198
c0 -42 34 -62 89 -62c37 0 75 14 109 41v109c-53 -3 -105 -10 -138 -23c-37 -15 -60 -36 -60 -65z" />
    <glyph glyph-name="Aacute.calt" unicode="&#xe008;" horiz-adv-x="617" 
d="M309 471l-63 -207h124zM434 48l-22 75h-209l-23 -75c-11 -36 -38 -58 -86 -58c-53 0 -84 38 -84 81c0 10 4 27 8 37l168 491c17 51 51 92 124 92s109 -42 126 -92l164 -491c3 -9 7 -27 7 -37c0 -51 -38 -81 -89 -81c-42 0 -73 21 -84 58zM224 812c0 13 4 24 10 36l42 89
c10 22 27 39 56 39c33 0 63 -26 63 -59c0 -14 -4 -23 -15 -41l-51 -82c-13 -21 -29 -33 -51 -33c-29 0 -54 22 -54 51z" />
    <glyph glyph-name="Abreve" unicode="&#x102;" horiz-adv-x="695" 
d="M347 526c-25 0 -51 -6 -73 -25c-20 -19 -35 -49 -35 -98v-53h217v53c0 49 -15 79 -35 98c-21 19 -48 25 -74 25zM632 411v-336c0 -47 -41 -85 -88 -85c-49 0 -88 38 -88 85v119h-217v-119c0 -47 -41 -85 -88 -85c-49 0 -88 38 -88 85v336c0 83 34 170 108 225
c44 33 103 54 176 54c74 0 133 -21 177 -54c74 -55 108 -142 108 -225zM347 907c13 0 36 2 57 34c13 20 27 40 55 40c32 0 58 -24 58 -55c0 -29 -24 -59 -44 -81c-35 -37 -81 -52 -126 -52s-91 15 -126 52c-20 22 -44 52 -44 81c0 31 26 55 58 55c28 0 42 -20 55 -40
c21 -32 44 -34 57 -34z" />
    <glyph glyph-name="Abreve.2" unicode="&#xe009;" horiz-adv-x="695" 
d="M347 526c-25 0 -51 -6 -73 -25c-20 -19 -35 -49 -35 -98v-53h217v53c0 49 -15 79 -35 98c-21 19 -48 25 -74 25zM632 411v-336c0 -47 -41 -85 -88 -85c-49 0 -88 38 -88 85v119h-217v-119c0 -47 -41 -85 -88 -85c-49 0 -88 38 -88 85v336c0 83 34 170 108 225
c44 33 103 54 176 54c74 0 133 -21 177 -54c74 -55 108 -142 108 -225zM347 907c13 0 36 2 57 34c13 20 27 40 55 40c32 0 58 -24 58 -55c0 -29 -24 -59 -44 -81c-35 -37 -81 -52 -126 -52s-91 15 -126 52c-20 22 -44 52 -44 81c0 31 26 55 58 55c28 0 42 -20 55 -40
c21 -32 44 -34 57 -34z" />
    <glyph glyph-name="Abreve.3" unicode="&#xe00a;" horiz-adv-x="668" 
d="M66 568c0 43 31 70 72 87c73 31 135 35 200 35c94 0 164 -26 209 -77c39 -44 59 -106 59 -187v-351c0 -47 -39 -85 -88 -85c-36 0 -67 21 -81 50c-48 -34 -86 -50 -182 -50c-111 0 -213 76 -213 200c0 75 34 129 95 166c67 40 167 61 293 66c-1 40 -11 68 -28 86
c-19 20 -47 28 -79 28c-36 0 -62 -11 -86 -23c-27 -13 -52 -27 -88 -27c-48 0 -83 36 -83 82zM232 198c0 -42 34 -62 89 -62c37 0 75 14 109 41v109c-53 -3 -105 -10 -138 -23c-37 -15 -60 -36 -60 -65zM331 907c13 0 36 2 57 34c13 20 27 40 55 40c32 0 58 -24 58 -55
c0 -29 -24 -59 -44 -81c-35 -37 -81 -52 -126 -52s-91 15 -126 52c-20 22 -44 52 -44 81c0 31 26 55 58 55c28 0 42 -20 55 -40c21 -32 44 -34 57 -34z" />
    <glyph glyph-name="Abreve.calt" unicode="&#xe00b;" horiz-adv-x="617" 
d="M309 471l-63 -207h124zM434 48l-22 75h-209l-23 -75c-11 -36 -38 -58 -86 -58c-53 0 -84 38 -84 81c0 10 4 27 8 37l168 491c17 51 51 92 124 92s109 -42 126 -92l164 -491c3 -9 7 -27 7 -37c0 -51 -38 -81 -89 -81c-42 0 -73 21 -84 58zM308 907c13 0 36 2 57 34
c13 20 27 40 55 40c32 0 58 -24 58 -55c0 -29 -24 -59 -44 -81c-35 -37 -81 -52 -126 -52s-91 15 -126 52c-20 22 -44 52 -44 81c0 31 26 55 58 55c28 0 42 -20 55 -40c21 -32 44 -34 57 -34z" />
    <glyph glyph-name="Acircumflex" unicode="&#xc2;" horiz-adv-x="695" 
d="M347 526c-25 0 -51 -6 -73 -25c-20 -19 -35 -49 -35 -98v-53h217v53c0 49 -15 79 -35 98c-21 19 -48 25 -74 25zM632 411v-336c0 -47 -41 -85 -88 -85c-49 0 -88 38 -88 85v119h-217v-119c0 -47 -41 -85 -88 -85c-49 0 -88 38 -88 85v336c0 83 34 170 108 225
c44 33 103 54 176 54c74 0 133 -21 177 -54c74 -55 108 -142 108 -225zM347 974c18 0 31 -8 43 -18l98 -88c16 -14 26 -30 26 -47c0 -35 -26 -57 -56 -57c-16 0 -27 5 -39 15l-72 65l-72 -65c-12 -10 -23 -15 -39 -15c-30 0 -56 22 -56 57c0 17 10 33 26 47l98 88
c12 10 25 18 43 18z" />
    <glyph glyph-name="Acircumflex.2" unicode="&#xe00c;" horiz-adv-x="695" 
d="M347 526c-25 0 -51 -6 -73 -25c-20 -19 -35 -49 -35 -98v-53h217v53c0 49 -15 79 -35 98c-21 19 -48 25 -74 25zM632 411v-336c0 -47 -41 -85 -88 -85c-49 0 -88 38 -88 85v119h-217v-119c0 -47 -41 -85 -88 -85c-49 0 -88 38 -88 85v336c0 83 34 170 108 225
c44 33 103 54 176 54c74 0 133 -21 177 -54c74 -55 108 -142 108 -225zM347 974c18 0 31 -8 43 -18l98 -88c16 -14 26 -30 26 -47c0 -35 -26 -57 -56 -57c-16 0 -27 5 -39 15l-72 65l-72 -65c-12 -10 -23 -15 -39 -15c-30 0 -56 22 -56 57c0 17 10 33 26 47l98 88
c12 10 25 18 43 18z" />
    <glyph glyph-name="Acircumflex.3" unicode="&#xe00d;" horiz-adv-x="668" 
d="M66 568c0 43 31 70 72 87c73 31 135 35 200 35c94 0 164 -26 209 -77c39 -44 59 -106 59 -187v-351c0 -47 -39 -85 -88 -85c-36 0 -67 21 -81 50c-48 -34 -86 -50 -182 -50c-111 0 -213 76 -213 200c0 75 34 129 95 166c67 40 167 61 293 66c-1 40 -11 68 -28 86
c-19 20 -47 28 -79 28c-36 0 -62 -11 -86 -23c-27 -13 -52 -27 -88 -27c-48 0 -83 36 -83 82zM342 974c18 0 31 -8 43 -18l98 -88c16 -14 26 -30 26 -47c0 -35 -26 -57 -56 -57c-16 0 -27 5 -39 15l-72 65l-72 -65c-12 -10 -23 -15 -39 -15c-30 0 -56 22 -56 57
c0 17 10 33 26 47l98 88c12 10 25 18 43 18zM232 198c0 -42 34 -62 89 -62c37 0 75 14 109 41v109c-53 -3 -105 -10 -138 -23c-37 -15 -60 -36 -60 -65z" />
    <glyph glyph-name="Acircumflex.calt" unicode="&#xe00e;" horiz-adv-x="617" 
d="M308 974c18 0 31 -8 43 -18l98 -88c16 -14 26 -30 26 -47c0 -35 -26 -57 -56 -57c-16 0 -27 5 -39 15l-72 65l-72 -65c-12 -10 -23 -15 -39 -15c-30 0 -56 22 -56 57c0 17 10 33 26 47l98 88c12 10 25 18 43 18zM309 471l-63 -207h124zM434 48l-22 75h-209l-23 -75
c-11 -36 -38 -58 -86 -58c-53 0 -84 38 -84 81c0 10 4 27 8 37l168 491c17 51 51 92 124 92s109 -42 126 -92l164 -491c3 -9 7 -27 7 -37c0 -51 -38 -81 -89 -81c-42 0 -73 21 -84 58z" />
    <glyph glyph-name="Adieresis" unicode="&#xc4;" horiz-adv-x="695" 
d="M347 526c-25 0 -51 -6 -73 -25c-20 -19 -35 -49 -35 -98v-53h217v53c0 49 -15 79 -35 98c-21 19 -48 25 -74 25zM632 411v-336c0 -47 -41 -85 -88 -85c-49 0 -88 38 -88 85v119h-217v-119c0 -47 -41 -85 -88 -85c-49 0 -88 38 -88 85v336c0 83 34 170 108 225
c44 33 103 54 176 54c74 0 133 -21 177 -54c74 -55 108 -142 108 -225zM220 765c-51 0 -92 42 -92 93s41 92 92 92c52 0 93 -41 93 -92s-41 -93 -93 -93zM474 765c-51 0 -92 42 -92 93s41 92 92 92s92 -41 92 -92s-41 -93 -92 -93z" />
    <glyph glyph-name="Adieresis.2" unicode="&#xe00f;" horiz-adv-x="695" 
d="M347 526c-25 0 -51 -6 -73 -25c-20 -19 -35 -49 -35 -98v-53h217v53c0 49 -15 79 -35 98c-21 19 -48 25 -74 25zM632 411v-336c0 -47 -41 -85 -88 -85c-49 0 -88 38 -88 85v119h-217v-119c0 -47 -41 -85 -88 -85c-49 0 -88 38 -88 85v336c0 83 34 170 108 225
c44 33 103 54 176 54c74 0 133 -21 177 -54c74 -55 108 -142 108 -225zM220 765c-51 0 -92 42 -92 93s41 92 92 92c52 0 93 -41 93 -92s-41 -93 -93 -93zM474 765c-51 0 -92 42 -92 93s41 92 92 92s92 -41 92 -92s-41 -93 -92 -93z" />
    <glyph glyph-name="Adieresis.3" unicode="&#xe010;" horiz-adv-x="668" 
d="M66 568c0 43 31 70 72 87c73 31 135 35 200 35c94 0 164 -26 209 -77c39 -44 59 -106 59 -187v-351c0 -47 -39 -85 -88 -85c-36 0 -67 21 -81 50c-48 -34 -86 -50 -182 -50c-111 0 -213 76 -213 200c0 75 34 129 95 166c67 40 167 61 293 66c-1 40 -11 68 -28 86
c-19 20 -47 28 -79 28c-36 0 -62 -11 -86 -23c-27 -13 -52 -27 -88 -27c-48 0 -83 36 -83 82zM212 765c-51 0 -92 42 -92 93s41 92 92 92c52 0 93 -41 93 -92s-41 -93 -93 -93zM466 765c-51 0 -92 42 -92 93s41 92 92 92s92 -41 92 -92s-41 -93 -92 -93zM232 198
c0 -42 34 -62 89 -62c37 0 75 14 109 41v109c-53 -3 -105 -10 -138 -23c-37 -15 -60 -36 -60 -65z" />
    <glyph glyph-name="Adieresis.calt" unicode="&#xe011;" horiz-adv-x="617" 
d="M309 471l-63 -207h124zM434 48l-22 75h-209l-23 -75c-11 -36 -38 -58 -86 -58c-53 0 -84 38 -84 81c0 10 4 27 8 37l168 491c17 51 51 92 124 92s109 -42 126 -92l164 -491c3 -9 7 -27 7 -37c0 -51 -38 -81 -89 -81c-42 0 -73 21 -84 58zM182 765c-51 0 -92 42 -92 93
s41 92 92 92c52 0 93 -41 93 -92s-41 -93 -93 -93zM436 765c-51 0 -92 42 -92 93s41 92 92 92s92 -41 92 -92s-41 -93 -92 -93z" />
    <glyph glyph-name="Agrave" unicode="&#xc0;" horiz-adv-x="695" 
d="M347 526c-25 0 -51 -6 -73 -25c-20 -19 -35 -49 -35 -98v-53h217v53c0 49 -15 79 -35 98c-21 19 -48 25 -74 25zM632 411v-336c0 -47 -41 -85 -88 -85c-49 0 -88 38 -88 85v119h-217v-119c0 -47 -41 -85 -88 -85c-49 0 -88 38 -88 85v336c0 83 34 170 108 225
c44 33 103 54 176 54c74 0 133 -21 177 -54c74 -55 108 -142 108 -225zM433 812c0 -29 -25 -51 -54 -51c-22 0 -39 11 -51 33l-51 82c-11 18 -15 27 -15 41c0 33 30 59 63 59c29 0 46 -17 56 -39l42 -89c6 -12 10 -23 10 -36z" />
    <glyph glyph-name="Agrave.2" unicode="&#xe012;" horiz-adv-x="695" 
d="M347 526c-25 0 -51 -6 -73 -25c-20 -19 -35 -49 -35 -98v-53h217v53c0 49 -15 79 -35 98c-21 19 -48 25 -74 25zM632 411v-336c0 -47 -41 -85 -88 -85c-49 0 -88 38 -88 85v119h-217v-119c0 -47 -41 -85 -88 -85c-49 0 -88 38 -88 85v336c0 83 34 170 108 225
c44 33 103 54 176 54c74 0 133 -21 177 -54c74 -55 108 -142 108 -225zM433 812c0 -29 -25 -51 -54 -51c-22 0 -38 12 -51 33l-51 82c-11 18 -15 27 -15 41c0 33 30 59 63 59c29 0 46 -17 56 -39l42 -89c6 -12 10 -23 10 -36z" />
    <glyph glyph-name="Agrave.3" unicode="&#xe013;" horiz-adv-x="668" 
d="M66 568c0 43 31 70 72 87c73 31 135 35 200 35c94 0 164 -26 209 -77c39 -44 59 -106 59 -187v-351c0 -47 -39 -85 -88 -85c-36 0 -67 21 -81 50c-48 -34 -86 -50 -182 -50c-111 0 -213 76 -213 200c0 75 34 129 95 166c67 40 167 61 293 66c-1 40 -11 68 -28 86
c-19 20 -47 28 -79 28c-36 0 -62 -11 -86 -23c-27 -13 -52 -27 -88 -27c-48 0 -83 36 -83 82zM415 812c0 -29 -25 -51 -54 -51c-22 0 -39 11 -51 33l-51 82c-11 18 -15 27 -15 41c0 33 30 59 63 59c29 0 46 -17 56 -39l42 -89c6 -12 10 -23 10 -36zM232 198
c0 -42 34 -62 89 -62c37 0 75 14 109 41v109c-53 -3 -105 -10 -138 -23c-37 -15 -60 -36 -60 -65z" />
    <glyph glyph-name="Agrave.calt" unicode="&#xe014;" horiz-adv-x="617" 
d="M309 471l-63 -207h124zM434 48l-22 75h-209l-23 -75c-11 -36 -38 -58 -86 -58c-53 0 -84 38 -84 81c0 10 4 27 8 37l168 491c17 51 51 92 124 92s109 -42 126 -92l164 -491c3 -9 7 -27 7 -37c0 -51 -38 -81 -89 -81c-42 0 -73 21 -84 58zM394 812c0 -29 -25 -51 -54 -51
c-22 0 -39 11 -51 33l-51 82c-11 18 -15 27 -15 41c0 33 30 59 63 59c29 0 46 -17 56 -39l42 -89c6 -12 10 -23 10 -36z" />
    <glyph glyph-name="Amacron" unicode="&#x100;" horiz-adv-x="695" 
d="M347 526c-25 0 -51 -6 -73 -25c-20 -19 -35 -49 -35 -98v-53h217v53c0 49 -15 79 -35 98c-21 19 -48 25 -74 25zM632 411v-336c0 -47 -41 -85 -88 -85c-49 0 -88 38 -88 85v119h-217v-119c0 -47 -41 -85 -88 -85c-49 0 -88 38 -88 85v336c0 83 34 170 108 225
c44 33 103 54 176 54c74 0 133 -21 177 -54c74 -55 108 -142 108 -225zM497 865c0 -36 -29 -65 -65 -65h-170c-36 0 -65 29 -65 65c0 37 29 66 65 66h170c36 0 65 -29 65 -66z" />
    <glyph glyph-name="Amacron.2" unicode="&#xe015;" horiz-adv-x="695" 
d="M347 526c-25 0 -51 -6 -73 -25c-20 -19 -35 -49 -35 -98v-53h217v53c0 49 -15 79 -35 98c-21 19 -48 25 -74 25zM632 411v-336c0 -47 -41 -85 -88 -85c-49 0 -88 38 -88 85v119h-217v-119c0 -47 -41 -85 -88 -85c-49 0 -88 38 -88 85v336c0 83 34 170 108 225
c44 33 103 54 176 54c74 0 133 -21 177 -54c74 -55 108 -142 108 -225zM497 865c0 -36 -29 -65 -65 -65h-170c-36 0 -65 29 -65 65c0 37 29 66 65 66h170c36 0 65 -29 65 -66z" />
    <glyph glyph-name="Amacron.3" unicode="&#xe016;" horiz-adv-x="668" 
d="M66 568c0 43 31 70 72 87c73 31 135 35 200 35c94 0 164 -26 209 -77c39 -44 59 -106 59 -187v-351c0 -47 -39 -85 -88 -85c-36 0 -67 21 -81 50c-48 -34 -86 -50 -182 -50c-111 0 -213 76 -213 200c0 75 34 129 95 166c67 40 167 61 293 66c-1 40 -11 68 -28 86
c-19 20 -47 28 -79 28c-36 0 -62 -11 -86 -23c-27 -13 -52 -27 -88 -27c-48 0 -83 36 -83 82zM490 865c0 -36 -29 -65 -65 -65h-170c-36 0 -65 29 -65 65c0 37 29 66 65 66h170c36 0 65 -29 65 -66zM232 198c0 -42 34 -62 89 -62c37 0 75 14 109 41v109
c-53 -3 -105 -10 -138 -23c-37 -15 -60 -36 -60 -65z" />
    <glyph glyph-name="Amacron.calt" unicode="&#xe017;" horiz-adv-x="617" 
d="M459 865c0 -36 -29 -65 -65 -65h-170c-36 0 -65 29 -65 65c0 37 29 66 65 66h170c36 0 65 -29 65 -66zM309 471l-63 -207h124zM434 48l-22 75h-209l-23 -75c-11 -36 -38 -58 -86 -58c-53 0 -84 38 -84 81c0 10 4 27 8 37l168 491c17 51 51 92 124 92s109 -42 126 -92
l164 -491c3 -9 7 -27 7 -37c0 -51 -38 -81 -89 -81c-42 0 -73 21 -84 58z" />
    <glyph glyph-name="Aogonek" unicode="&#x104;" horiz-adv-x="695" 
d="M632 411v-336c0 -47 -41 -85 -88 -85c-13 0 -25 3 -36 7c-4 -15 -7 -35 -7 -49c0 -27 11 -51 56 -51c13 0 28 5 46 5c30 0 44 -19 44 -45c0 -30 -13 -48 -45 -59c-19 -6 -40 -9 -58 -9c-95 0 -145 39 -145 116c0 57 30 121 57 171v118h-217v-119c0 -47 -41 -85 -88 -85
c-49 0 -88 38 -88 85v336c0 83 34 170 108 225c44 33 103 54 176 54c74 0 133 -21 177 -54c74 -55 108 -142 108 -225zM347 526c-25 0 -51 -6 -73 -25c-20 -19 -35 -49 -35 -98v-53h217v53c0 49 -15 79 -35 98c-21 19 -48 25 -74 25z" />
    <glyph glyph-name="Aogonek.2" unicode="&#xe018;" horiz-adv-x="695" 
d="M632 411v-336c0 -47 -41 -85 -88 -85c-13 0 -25 3 -36 7c-4 -15 -7 -35 -7 -49c0 -27 11 -51 56 -51c13 0 28 5 46 5c30 0 44 -19 44 -45c0 -30 -13 -48 -45 -59c-19 -6 -40 -9 -58 -9c-95 0 -145 39 -145 116c0 57 30 121 57 171v118h-217v-119c0 -47 -41 -85 -88 -85
c-49 0 -88 38 -88 85v336c0 83 34 170 108 225c44 33 103 54 176 54c74 0 133 -21 177 -54c74 -55 108 -142 108 -225zM347 526c-25 0 -51 -6 -73 -25c-20 -19 -35 -49 -35 -98v-53h217v53c0 49 -15 79 -35 98c-21 19 -48 25 -74 25z" />
    <glyph glyph-name="Aogonek.3" unicode="&#xe019;" horiz-adv-x="668" 
d="M66 568c0 43 31 70 72 87c73 31 135 35 200 35c94 0 164 -26 209 -77c39 -44 59 -106 59 -187v-351c0 -42 -31 -77 -73 -84c-4 -14 -6 -30 -6 -43c0 -27 11 -51 56 -51c13 0 28 5 46 5c30 0 44 -19 44 -45c0 -30 -13 -48 -45 -59c-19 -6 -40 -9 -58 -9
c-95 0 -145 39 -145 116c0 37 12 76 28 112c-7 7 -12 15 -16 23c-48 -34 -86 -50 -182 -50c-111 0 -213 76 -213 200c0 75 34 129 95 166c67 40 167 61 293 66c-1 40 -11 68 -28 86c-19 20 -47 28 -79 28c-36 0 -62 -11 -86 -23c-27 -13 -52 -27 -88 -27
c-48 0 -83 36 -83 82zM232 198c0 -42 34 -62 89 -62c37 0 75 14 109 41v109c-53 -3 -105 -10 -138 -23c-37 -15 -60 -36 -60 -65z" />
    <glyph glyph-name="Aogonek.calt" unicode="&#xe01a;" horiz-adv-x="617" 
d="M390 -95c0 48 21 100 43 145l-21 73h-209l-23 -75c-11 -36 -38 -58 -86 -58c-53 0 -84 38 -84 81c0 10 4 27 8 37l168 491c17 51 51 92 124 92s109 -42 126 -92l164 -491c3 -9 7 -27 7 -37c0 -51 -38 -81 -89 -81c-7 0 -14 1 -20 2c-4 -14 -6 -31 -6 -44
c0 -27 11 -51 56 -51c13 0 28 5 46 5c30 0 44 -19 44 -45c0 -30 -13 -48 -45 -59c-19 -6 -40 -9 -58 -9c-95 0 -145 39 -145 116zM309 471l-63 -207h124z" />
    <glyph glyph-name="Aring" unicode="&#xc5;" horiz-adv-x="695" 
d="M347 526c-25 0 -51 -6 -73 -25c-20 -19 -35 -49 -35 -98v-53h217v53c0 49 -15 79 -35 98c-21 19 -48 25 -74 25zM632 411v-336c0 -47 -41 -85 -88 -85c-49 0 -88 38 -88 85v119h-217v-119c0 -47 -41 -85 -88 -85c-49 0 -88 38 -88 85v336c0 83 34 170 108 225
c44 33 103 54 176 54c74 0 133 -21 177 -54c74 -55 108 -142 108 -225zM472 856c0 -68 -56 -123 -124 -123c-69 0 -125 55 -125 123c0 70 56 125 125 125c68 0 124 -55 124 -125zM403 856c0 32 -25 57 -55 57c-31 0 -55 -25 -55 -57c0 -30 24 -55 55 -55c30 0 55 25 55 55z
" />
    <glyph glyph-name="Aring.2" unicode="&#xe01b;" horiz-adv-x="695" 
d="M347 526c-25 0 -51 -6 -73 -25c-20 -19 -35 -49 -35 -98v-53h217v53c0 49 -15 79 -35 98c-21 19 -48 25 -74 25zM632 411v-336c0 -47 -41 -85 -88 -85c-49 0 -88 38 -88 85v119h-217v-119c0 -47 -41 -85 -88 -85c-49 0 -88 38 -88 85v336c0 83 34 170 108 225
c44 33 103 54 176 54c74 0 133 -21 177 -54c74 -55 108 -142 108 -225zM472 856c0 -68 -56 -123 -124 -123c-69 0 -125 55 -125 123c0 70 56 125 125 125c68 0 124 -55 124 -125zM403 856c0 32 -25 57 -55 57c-31 0 -55 -25 -55 -57c0 -30 24 -55 55 -55c30 0 55 25 55 55z
" />
    <glyph glyph-name="Aring.3" unicode="&#xe01c;" horiz-adv-x="668" 
d="M66 568c0 43 31 70 72 87c73 31 135 35 200 35c94 0 164 -26 209 -77c39 -44 59 -106 59 -187v-351c0 -47 -39 -85 -88 -85c-36 0 -67 21 -81 50c-48 -34 -86 -50 -182 -50c-111 0 -213 76 -213 200c0 75 34 129 95 166c67 40 167 61 293 66c-1 40 -11 68 -28 86
c-19 20 -47 28 -79 28c-36 0 -62 -11 -86 -23c-27 -13 -52 -27 -88 -27c-48 0 -83 36 -83 82zM463 856c0 -68 -56 -123 -124 -123c-69 0 -125 55 -125 123c0 70 56 125 125 125c68 0 124 -55 124 -125zM232 198c0 -42 34 -62 89 -62c37 0 75 14 109 41v109
c-53 -3 -105 -10 -138 -23c-37 -15 -60 -36 -60 -65zM394 856c0 32 -25 57 -55 57c-31 0 -55 -25 -55 -57c0 -30 24 -55 55 -55c30 0 55 25 55 55z" />
    <glyph glyph-name="Aring.calt" unicode="&#xe01d;" horiz-adv-x="617" 
d="M309 471l-63 -207h124zM434 48l-22 75h-209l-23 -75c-11 -36 -38 -58 -86 -58c-53 0 -84 38 -84 81c0 10 4 27 8 37l168 491c17 51 51 92 124 92s109 -42 126 -92l164 -491c3 -9 7 -27 7 -37c0 -51 -38 -81 -89 -81c-42 0 -73 21 -84 58zM433 856
c0 -68 -56 -123 -124 -123c-69 0 -125 55 -125 123c0 70 56 125 125 125c68 0 124 -55 124 -125zM364 856c0 32 -25 57 -55 57c-31 0 -55 -25 -55 -57c0 -30 24 -55 55 -55c30 0 55 25 55 55z" />
    <glyph glyph-name="Asmall" unicode="&#xf761;" horiz-adv-x="602" 
d="M300 401c-19 0 -42 -6 -57 -22c-12 -13 -20 -31 -20 -59v-32h156v32c0 28 -8 46 -20 59c-16 17 -38 22 -59 22zM541 327v-257c0 -43 -37 -78 -81 -78s-81 35 -81 78v79h-156v-79c0 -43 -37 -78 -81 -78s-81 35 -81 78v257c0 56 22 118 66 161c39 37 96 64 173 64
c79 0 136 -27 175 -64c44 -43 66 -105 66 -161z" />
    <glyph glyph-name="Asmall.2" unicode="&#xe01e;" horiz-adv-x="602" 
d="M300 401c-19 0 -42 -6 -57 -22c-12 -13 -20 -31 -20 -59v-43h156v43c0 28 -8 46 -20 59c-16 17 -38 22 -59 22zM541 327v-257c0 -43 -37 -78 -81 -78s-81 35 -81 78v68h-156v-68c0 -43 -37 -78 -81 -78s-81 35 -81 78v257c0 56 22 118 66 161c39 37 96 64 173 64
c79 0 136 -27 175 -64c44 -43 66 -105 66 -161z" />
    <glyph glyph-name="Asmall.3" unicode="&#xe01f;" horiz-adv-x="569" 
d="M45 158c0 76 39 121 95 148c59 29 137 36 205 38c-1 21 -6 36 -16 47c-11 11 -25 16 -46 16c-24 0 -46 -10 -71 -21c-21 -9 -41 -19 -65 -19c-46 0 -78 34 -78 78c0 41 28 63 64 79c59 25 107 28 158 28c75 0 132 -21 170 -64c31 -35 47 -85 47 -151v-267
c0 -45 -37 -78 -81 -78c-29 0 -55 15 -69 37c-44 -28 -82 -37 -140 -37c-93 0 -173 63 -173 166zM263 130c32 0 59 10 83 25v58c-32 -1 -67 -4 -93 -12c-25 -7 -42 -19 -42 -37c0 -26 24 -34 52 -34z" />
    <glyph glyph-name="Asmall.calt" unicode="&#xe020;" horiz-adv-x="515" 
d="M352 44l-16 51h-157l-16 -52c-9 -30 -39 -51 -78 -51c-48 0 -76 32 -76 75c0 7 4 26 7 33l136 371c15 41 44 81 108 81s96 -40 110 -82l129 -369c2 -6 7 -24 7 -33c0 -44 -31 -76 -76 -76c-38 0 -69 22 -78 52zM259 344l-40 -124h79z" />
    <glyph glyph-name="Asmallacute" unicode="&#xe021;" horiz-adv-x="602" 
d="M300 401c-19 0 -42 -6 -57 -22c-12 -13 -20 -31 -20 -59v-32h156v32c0 28 -8 46 -20 59c-16 17 -38 22 -59 22zM541 327v-257c0 -43 -37 -78 -81 -78s-81 35 -81 78v79h-156v-79c0 -43 -37 -78 -81 -78s-81 35 -81 78v257c0 56 22 118 66 161c39 37 96 64 173 64
c79 0 136 -27 175 -64c44 -43 66 -105 66 -161zM216 672c0 13 4 24 10 36l42 89c10 22 27 39 56 39c33 0 63 -26 63 -59c0 -14 -4 -23 -15 -41l-51 -82c-13 -21 -29 -33 -51 -33c-29 0 -54 22 -54 51z" />
    <glyph glyph-name="Asmallacute.2" unicode="&#xe022;" horiz-adv-x="602" 
d="M300 401c-19 0 -42 -6 -57 -22c-12 -13 -20 -31 -20 -59v-43h156v43c0 28 -8 46 -20 59c-16 17 -38 22 -59 22zM541 327v-257c0 -43 -37 -78 -81 -78s-81 35 -81 78v68h-156v-68c0 -43 -37 -78 -81 -78s-81 35 -81 78v257c0 56 22 118 66 161c39 37 96 64 173 64
c79 0 136 -27 175 -64c44 -43 66 -105 66 -161zM227 672c0 13 4 24 10 36l42 89c10 22 27 39 56 39c33 0 63 -26 63 -59c0 -14 -4 -23 -15 -41l-51 -82c-13 -21 -29 -33 -51 -33c-29 0 -54 22 -54 51z" />
    <glyph glyph-name="Asmallacute.3" unicode="&#xe023;" horiz-adv-x="569" 
d="M45 158c0 76 39 121 95 148c59 29 137 36 205 38c-1 21 -6 36 -16 47c-11 11 -25 16 -46 16c-24 0 -46 -10 -71 -21c-21 -9 -41 -19 -65 -19c-46 0 -78 34 -78 78c0 41 28 63 64 79c59 25 107 28 158 28c75 0 132 -21 170 -64c31 -35 47 -85 47 -151v-267
c0 -45 -37 -78 -81 -78c-29 0 -55 15 -69 37c-44 -28 -82 -37 -140 -37c-93 0 -173 63 -173 166zM196 672c0 13 4 24 10 36l42 89c10 22 27 39 56 39c33 0 63 -26 63 -59c0 -14 -4 -23 -15 -41l-51 -82c-13 -21 -29 -33 -51 -33c-29 0 -54 22 -54 51zM263 130
c32 0 59 10 83 25v58c-32 -1 -67 -4 -93 -12c-25 -7 -42 -19 -42 -37c0 -26 24 -34 52 -34z" />
    <glyph glyph-name="Asmallacute.calt" unicode="&#xe024;" horiz-adv-x="515" 
d="M352 44l-16 51h-157l-16 -52c-9 -30 -39 -51 -78 -51c-48 0 -76 32 -76 75c0 7 4 26 7 33l136 371c15 41 44 81 108 81s96 -40 110 -82l129 -369c2 -6 7 -24 7 -33c0 -44 -31 -76 -76 -76c-38 0 -69 22 -78 52zM259 344l-40 -124h79zM165 672c0 13 4 24 10 36l42 89
c10 22 27 39 56 39c33 0 63 -26 63 -59c0 -14 -4 -23 -15 -41l-51 -82c-13 -21 -29 -33 -51 -33c-29 0 -54 22 -54 51z" />
    <glyph glyph-name="Asmallbreve" unicode="&#xe025;" horiz-adv-x="602" 
d="M300 401c-19 0 -42 -6 -57 -22c-12 -13 -20 -31 -20 -59v-32h156v32c0 28 -8 46 -20 59c-16 17 -38 22 -59 22zM541 327v-257c0 -43 -37 -78 -81 -78s-81 35 -81 78v79h-156v-79c0 -43 -37 -78 -81 -78s-81 35 -81 78v257c0 56 22 118 66 161c39 37 96 64 173 64
c79 0 136 -27 175 -64c44 -43 66 -105 66 -161zM299 738c13 0 36 2 57 34c13 20 27 40 55 40c32 0 58 -24 58 -55c0 -29 -24 -59 -44 -81c-35 -37 -81 -52 -126 -52s-91 15 -126 52c-20 22 -44 52 -44 81c0 31 26 55 58 55c28 0 42 -20 55 -40c21 -32 44 -34 57 -34z" />
    <glyph glyph-name="Asmallbreve.2" unicode="&#xe026;" horiz-adv-x="602" 
d="M300 401c-19 0 -42 -6 -57 -22c-12 -13 -20 -31 -20 -59v-43h156v43c0 28 -8 46 -20 59c-16 17 -38 22 -59 22zM541 327v-257c0 -43 -37 -78 -81 -78s-81 35 -81 78v68h-156v-68c0 -43 -37 -78 -81 -78s-81 35 -81 78v257c0 56 22 118 66 161c39 37 96 64 173 64
c79 0 136 -27 175 -64c44 -43 66 -105 66 -161zM299 738c13 0 36 2 57 34c13 20 27 40 55 40c32 0 58 -24 58 -55c0 -29 -24 -59 -44 -81c-35 -37 -81 -52 -126 -52s-91 15 -126 52c-20 22 -44 52 -44 81c0 31 26 55 58 55c28 0 42 -20 55 -40c21 -32 44 -34 57 -34z" />
    <glyph glyph-name="Asmallbreve.3" unicode="&#xe027;" horiz-adv-x="569" 
d="M45 158c0 76 39 121 95 148c59 29 137 36 205 38c-1 21 -6 36 -16 47c-11 11 -25 16 -46 16c-24 0 -46 -10 -71 -21c-21 -9 -41 -19 -65 -19c-46 0 -78 34 -78 78c0 41 28 63 64 79c59 25 107 28 158 28c75 0 132 -21 170 -64c31 -35 47 -85 47 -151v-267
c0 -45 -37 -78 -81 -78c-29 0 -55 15 -69 37c-44 -28 -82 -37 -140 -37c-93 0 -173 63 -173 166zM263 130c32 0 59 10 83 25v58c-32 -1 -67 -4 -93 -12c-25 -7 -42 -19 -42 -37c0 -26 24 -34 52 -34zM284 738c13 0 36 2 57 34c13 20 27 40 55 40c32 0 58 -24 58 -55
c0 -29 -24 -59 -44 -81c-35 -37 -81 -52 -126 -52s-91 15 -126 52c-20 22 -44 52 -44 81c0 31 26 55 58 55c28 0 42 -20 55 -40c21 -32 44 -34 57 -34z" />
    <glyph glyph-name="Asmallbreve.calt" unicode="&#xe028;" horiz-adv-x="515" 
d="M352 44l-16 51h-157l-16 -52c-9 -30 -39 -51 -78 -51c-48 0 -76 32 -76 75c0 7 4 26 7 33l136 371c15 41 44 81 108 81s96 -40 110 -82l129 -369c2 -6 7 -24 7 -33c0 -44 -31 -76 -76 -76c-38 0 -69 22 -78 52zM259 344l-40 -124h79zM259 738c13 0 36 2 57 34
c13 20 27 40 55 40c32 0 58 -24 58 -55c0 -29 -24 -59 -44 -81c-35 -37 -81 -52 -126 -52s-91 15 -126 52c-20 22 -44 52 -44 81c0 31 26 55 58 55c28 0 42 -20 55 -40c21 -32 44 -34 57 -34z" />
    <glyph glyph-name="Asmallcircumflex" unicode="&#xe029;" horiz-adv-x="602" 
d="M300 401c-19 0 -42 -6 -57 -22c-12 -13 -20 -31 -20 -59v-32h156v32c0 28 -8 46 -20 59c-16 17 -38 22 -59 22zM541 327v-257c0 -43 -37 -78 -81 -78s-81 35 -81 78v79h-156v-79c0 -43 -37 -78 -81 -78s-81 35 -81 78v257c0 56 22 118 66 161c39 37 96 64 173 64
c79 0 136 -27 175 -64c44 -43 66 -105 66 -161zM301 834c18 0 31 -8 43 -18l98 -88c16 -14 26 -30 26 -47c0 -35 -26 -57 -56 -57c-16 0 -27 5 -39 15l-72 65l-72 -65c-12 -10 -23 -15 -39 -15c-30 0 -56 22 -56 57c0 17 10 33 26 47l98 88c12 10 25 18 43 18z" />
    <glyph glyph-name="Asmallcircumflex.2" unicode="&#xe02a;" horiz-adv-x="602" 
d="M300 401c-19 0 -42 -6 -57 -22c-12 -13 -20 -31 -20 -59v-43h156v43c0 28 -8 46 -20 59c-16 17 -38 22 -59 22zM541 327v-257c0 -43 -37 -78 -81 -78s-81 35 -81 78v68h-156v-68c0 -43 -37 -78 -81 -78s-81 35 -81 78v257c0 56 22 118 66 161c39 37 96 64 173 64
c79 0 136 -27 175 -64c44 -43 66 -105 66 -161zM301 834c18 0 31 -8 43 -18l98 -88c16 -14 26 -30 26 -47c0 -35 -26 -57 -56 -57c-16 0 -27 5 -39 15l-72 65l-72 -65c-12 -10 -23 -15 -39 -15c-30 0 -56 22 -56 57c0 17 10 33 26 47l98 88c12 10 25 18 43 18z" />
    <glyph glyph-name="Asmallcircumflex.3" unicode="&#xe02b;" horiz-adv-x="569" 
d="M45 158c0 76 39 121 95 148c59 29 137 36 205 38c-1 21 -6 36 -16 47c-11 11 -25 16 -46 16c-24 0 -46 -10 -71 -21c-21 -9 -41 -19 -65 -19c-46 0 -78 34 -78 78c0 41 28 63 64 79c59 25 107 28 158 28c75 0 132 -21 170 -64c31 -35 47 -85 47 -151v-267
c0 -45 -37 -78 -81 -78c-29 0 -55 15 -69 37c-44 -28 -82 -37 -140 -37c-93 0 -173 63 -173 166zM279 834c18 0 31 -8 43 -18l98 -88c16 -14 26 -30 26 -47c0 -35 -26 -57 -56 -57c-16 0 -27 5 -39 15l-72 65l-72 -65c-12 -10 -23 -15 -39 -15c-30 0 -56 22 -56 57
c0 17 10 33 26 47l98 88c12 10 25 18 43 18zM263 130c32 0 59 10 83 25v58c-32 -1 -67 -4 -93 -12c-25 -7 -42 -19 -42 -37c0 -26 24 -34 52 -34z" />
    <glyph glyph-name="Asmallcircumflex.calt" unicode="&#xe02c;" horiz-adv-x="515" 
d="M352 44l-16 51h-157l-16 -52c-9 -30 -39 -51 -78 -51c-48 0 -76 32 -76 75c0 7 4 26 7 33l136 371c15 41 44 81 108 81s96 -40 110 -82l129 -369c2 -6 7 -24 7 -33c0 -44 -31 -76 -76 -76c-38 0 -69 22 -78 52zM259 344l-40 -124h79zM257 834c18 0 31 -8 43 -18l98 -88
c16 -14 26 -30 26 -47c0 -35 -26 -57 -56 -57c-16 0 -27 5 -39 15l-72 65l-72 -65c-12 -10 -23 -15 -39 -15c-30 0 -56 22 -56 57c0 17 10 33 26 47l98 88c12 10 25 18 43 18z" />
    <glyph glyph-name="Asmalldieresis" unicode="&#xe02d;" horiz-adv-x="602" 
d="M300 401c-19 0 -42 -6 -57 -22c-12 -13 -20 -31 -20 -59v-32h156v32c0 28 -8 46 -20 59c-16 17 -38 22 -59 22zM541 327v-257c0 -43 -37 -78 -81 -78s-81 35 -81 78v79h-156v-79c0 -43 -37 -78 -81 -78s-81 35 -81 78v257c0 56 22 118 66 161c39 37 96 64 173 64
c79 0 136 -27 175 -64c44 -43 66 -105 66 -161zM174 625c-51 0 -92 42 -92 93s41 92 92 92c52 0 93 -41 93 -92s-41 -93 -93 -93zM428 625c-51 0 -92 42 -92 93s41 92 92 92s92 -41 92 -92s-41 -93 -92 -93z" />
    <glyph glyph-name="Asmalldieresis.2" unicode="&#xe02e;" horiz-adv-x="602" 
d="M300 401c-19 0 -42 -6 -57 -22c-12 -13 -20 -31 -20 -59v-43h156v43c0 28 -8 46 -20 59c-16 17 -38 22 -59 22zM541 327v-257c0 -43 -37 -78 -81 -78s-81 35 -81 78v68h-156v-68c0 -43 -37 -78 -81 -78s-81 35 -81 78v257c0 56 22 118 66 161c39 37 96 64 173 64
c79 0 136 -27 175 -64c44 -43 66 -105 66 -161zM174 625c-51 0 -92 42 -92 93s41 92 92 92c52 0 93 -41 93 -92s-41 -93 -93 -93zM428 625c-51 0 -92 42 -92 93s41 92 92 92s92 -41 92 -92s-41 -93 -92 -93z" />
    <glyph glyph-name="Asmalldieresis.3" unicode="&#xe02f;" horiz-adv-x="569" 
d="M45 158c0 76 39 121 95 148c59 29 137 36 205 38c-1 21 -6 36 -16 47c-11 11 -25 16 -46 16c-24 0 -46 -10 -71 -21c-21 -9 -41 -19 -65 -19c-46 0 -78 34 -78 78c0 41 28 63 64 79c59 25 107 28 158 28c75 0 132 -21 170 -64c31 -35 47 -85 47 -151v-267
c0 -45 -37 -78 -81 -78c-29 0 -55 15 -69 37c-44 -28 -82 -37 -140 -37c-93 0 -173 63 -173 166zM149 625c-51 0 -92 42 -92 93s41 92 92 92c52 0 93 -41 93 -92s-41 -93 -93 -93zM403 625c-51 0 -92 42 -92 93s41 92 92 92s92 -41 92 -92s-41 -93 -92 -93zM263 130
c32 0 59 10 83 25v58c-32 -1 -67 -4 -93 -12c-25 -7 -42 -19 -42 -37c0 -26 24 -34 52 -34z" />
    <glyph glyph-name="Asmalldieresis.calt" unicode="&#xe030;" horiz-adv-x="515" 
d="M352 44l-16 51h-157l-16 -52c-9 -30 -39 -51 -78 -51c-48 0 -76 32 -76 75c0 7 4 26 7 33l136 371c15 41 44 81 108 81s96 -40 110 -82l129 -369c2 -6 7 -24 7 -33c0 -44 -31 -76 -76 -76c-38 0 -69 22 -78 52zM259 344l-40 -124h79zM130 625c-51 0 -92 42 -92 93
s41 92 92 92c52 0 93 -41 93 -92s-41 -93 -93 -93zM384 625c-51 0 -92 42 -92 93s41 92 92 92s92 -41 92 -92s-41 -93 -92 -93z" />
    <glyph glyph-name="Asmallgrave" unicode="&#xe031;" horiz-adv-x="602" 
d="M300 401c-19 0 -42 -6 -57 -22c-12 -13 -20 -31 -20 -59v-32h156v32c0 28 -8 46 -20 59c-16 17 -38 22 -59 22zM541 327v-257c0 -43 -37 -78 -81 -78s-81 35 -81 78v79h-156v-79c0 -43 -37 -78 -81 -78s-81 35 -81 78v257c0 56 22 118 66 161c39 37 96 64 173 64
c79 0 136 -27 175 -64c44 -43 66 -105 66 -161zM387 672c0 -29 -25 -51 -54 -51c-22 0 -39 11 -51 33l-51 82c-11 18 -15 27 -15 41c0 33 30 59 63 59c29 0 46 -17 56 -39l42 -89c6 -12 10 -23 10 -36z" />
    <glyph glyph-name="Asmallgrave.2" unicode="&#xe032;" horiz-adv-x="602" 
d="M300 401c-19 0 -42 -6 -57 -22c-12 -13 -20 -31 -20 -59v-43h156v43c0 28 -8 46 -20 59c-16 17 -38 22 -59 22zM541 327v-257c0 -43 -37 -78 -81 -78s-81 35 -81 78v68h-156v-68c0 -43 -37 -78 -81 -78s-81 35 -81 78v257c0 56 22 118 66 161c39 37 96 64 173 64
c79 0 136 -27 175 -64c44 -43 66 -105 66 -161zM387 672c0 -29 -25 -51 -54 -51c-22 0 -39 11 -51 33l-51 82c-11 18 -15 27 -15 41c0 33 30 59 63 59c29 0 46 -17 56 -39l42 -89c6 -12 10 -23 10 -36z" />
    <glyph glyph-name="Asmallgrave.3" unicode="&#xe033;" horiz-adv-x="569" 
d="M45 158c0 76 39 121 95 148c59 29 137 36 205 38c-1 21 -6 36 -16 47c-11 11 -25 16 -46 16c-24 0 -46 -10 -71 -21c-21 -9 -41 -19 -65 -19c-46 0 -78 34 -78 78c0 41 28 63 64 79c59 25 107 28 158 28c75 0 132 -21 170 -64c31 -35 47 -85 47 -151v-267
c0 -45 -37 -78 -81 -78c-29 0 -55 15 -69 37c-44 -28 -82 -37 -140 -37c-93 0 -173 63 -173 166zM362 672c0 -29 -25 -51 -54 -51c-22 0 -39 11 -51 33l-51 82c-11 18 -15 27 -15 41c0 33 30 59 63 59c29 0 46 -17 56 -39l42 -89c6 -12 10 -23 10 -36zM263 130
c32 0 59 10 83 25v58c-32 -1 -67 -4 -93 -12c-25 -7 -42 -19 -42 -37c0 -26 24 -34 52 -34z" />
    <glyph glyph-name="Asmallgrave.calt" unicode="&#xe034;" horiz-adv-x="515" 
d="M352 44l-16 51h-157l-16 -52c-9 -30 -39 -51 -78 -51c-48 0 -76 32 -76 75c0 7 4 26 7 33l136 371c15 41 44 81 108 81s96 -40 110 -82l129 -369c2 -6 7 -24 7 -33c0 -44 -31 -76 -76 -76c-38 0 -69 22 -78 52zM259 344l-40 -124h79zM343 672c0 -29 -25 -51 -54 -51
c-22 0 -39 11 -51 33l-51 82c-11 18 -15 27 -15 41c0 33 30 59 63 59c29 0 46 -17 56 -39l42 -89c6 -12 10 -23 10 -36z" />
    <glyph glyph-name="Asmallmacron" unicode="&#xe035;" horiz-adv-x="602" 
d="M300 401c-19 0 -42 -6 -57 -22c-12 -13 -20 -31 -20 -59v-32h156v32c0 28 -8 46 -20 59c-16 17 -38 22 -59 22zM541 327v-257c0 -43 -37 -78 -81 -78s-81 35 -81 78v79h-156v-79c0 -43 -37 -78 -81 -78s-81 35 -81 78v257c0 56 22 118 66 161c39 37 96 64 173 64
c79 0 136 -27 175 -64c44 -43 66 -105 66 -161zM451 702c0 -36 -29 -65 -65 -65h-170c-36 0 -65 29 -65 65c0 37 29 66 65 66h170c36 0 65 -29 65 -66z" />
    <glyph glyph-name="Asmallmacron.2" unicode="&#xe036;" horiz-adv-x="602" 
d="M300 401c-19 0 -42 -6 -57 -22c-12 -13 -20 -31 -20 -59v-43h156v43c0 28 -8 46 -20 59c-16 17 -38 22 -59 22zM541 327v-257c0 -43 -37 -78 -81 -78s-81 35 -81 78v68h-156v-68c0 -43 -37 -78 -81 -78s-81 35 -81 78v257c0 56 22 118 66 161c39 37 96 64 173 64
c79 0 136 -27 175 -64c44 -43 66 -105 66 -161zM451 702c0 -36 -29 -65 -65 -65h-170c-36 0 -65 29 -65 65c0 37 29 66 65 66h170c36 0 65 -29 65 -66z" />
    <glyph glyph-name="Asmallmacron.3" unicode="&#xe037;" horiz-adv-x="569" 
d="M45 158c0 76 39 121 95 148c59 29 137 36 205 38c-1 21 -6 36 -16 47c-11 11 -25 16 -46 16c-24 0 -46 -10 -71 -21c-21 -9 -41 -19 -65 -19c-46 0 -78 34 -78 78c0 41 28 63 64 79c59 25 107 28 158 28c75 0 132 -21 170 -64c31 -35 47 -85 47 -151v-267
c0 -45 -37 -78 -81 -78c-29 0 -55 15 -69 37c-44 -28 -82 -37 -140 -37c-93 0 -173 63 -173 166zM427 702c0 -36 -29 -65 -65 -65h-170c-36 0 -65 29 -65 65c0 37 29 66 65 66h170c36 0 65 -29 65 -66zM263 130c32 0 59 10 83 25v58c-32 -1 -67 -4 -93 -12
c-25 -7 -42 -19 -42 -37c0 -26 24 -34 52 -34z" />
    <glyph glyph-name="Asmallmacron.calt" unicode="&#xe038;" horiz-adv-x="515" 
d="M352 44l-16 51h-157l-16 -52c-9 -30 -39 -51 -78 -51c-48 0 -76 32 -76 75c0 7 4 26 7 33l136 371c15 41 44 81 108 81s96 -40 110 -82l129 -369c2 -6 7 -24 7 -33c0 -44 -31 -76 -76 -76c-38 0 -69 22 -78 52zM259 344l-40 -124h79zM407 702c0 -36 -29 -65 -65 -65h-170
c-36 0 -65 29 -65 65c0 37 29 66 65 66h170c36 0 65 -29 65 -66z" />
    <glyph glyph-name="Asmallogonek" unicode="&#xe039;" horiz-adv-x="602" 
d="M541 327v-257c0 -40 -31 -72 -70 -77c-5 -16 -7 -29 -7 -45c0 -27 11 -51 56 -51c13 0 28 5 46 5c30 0 44 -19 44 -45c0 -30 -13 -48 -45 -59c-19 -6 -40 -9 -58 -9c-95 0 -145 39 -145 116c0 33 12 70 36 114c-12 14 -19 31 -19 51v79h-156v-79c0 -43 -37 -78 -81 -78
s-81 35 -81 78v257c0 56 22 118 66 161c39 37 96 64 173 64c79 0 136 -27 175 -64c44 -43 66 -105 66 -161zM300 401c-19 0 -42 -6 -57 -22c-12 -13 -20 -31 -20 -59v-32h156v32c0 28 -8 46 -20 59c-16 17 -38 22 -59 22z" />
    <glyph glyph-name="Asmallogonek.2" unicode="&#xe03a;" horiz-adv-x="602" 
d="M541 327v-257c0 -40 -31 -72 -71 -77c-5 -16 -7 -29 -7 -45c0 -27 11 -51 56 -51c13 0 28 5 46 5c30 0 44 -19 44 -45c0 -30 -13 -48 -45 -59c-19 -6 -40 -9 -58 -9c-95 0 -145 39 -145 116c0 33 12 70 37 115c-12 13 -19 31 -19 50v68h-156v-68c0 -43 -37 -78 -81 -78
s-81 35 -81 78v257c0 56 22 118 66 161c39 37 96 64 173 64c79 0 136 -27 175 -64c44 -43 66 -105 66 -161zM300 401c-19 0 -42 -6 -57 -22c-12 -13 -20 -31 -20 -59v-43h156v43c0 28 -8 46 -20 59c-16 17 -38 22 -59 22z" />
    <glyph glyph-name="Asmallogonek.3" unicode="&#xe03b;" horiz-adv-x="569" 
d="M291 552c75 0 132 -21 170 -64c31 -35 47 -85 47 -151v-267c0 -38 -26 -67 -61 -75c-4 -15 -6 -33 -6 -47c0 -27 11 -51 56 -51c13 0 28 5 46 5c30 0 44 -19 44 -45c0 -30 -13 -48 -45 -59c-19 -6 -40 -9 -58 -9c-95 0 -145 39 -145 116c0 37 12 76 28 112l-9 12
c-44 -28 -82 -37 -140 -37c-93 0 -173 63 -173 166c0 76 39 121 95 148c59 29 137 36 205 38c-1 21 -6 36 -16 47c-11 11 -25 16 -46 16c-24 0 -46 -10 -71 -21c-21 -9 -41 -19 -65 -19c-46 0 -78 34 -78 78c0 41 28 63 64 79c59 25 107 28 158 28zM263 130
c32 0 59 10 83 25v58c-32 -1 -67 -4 -93 -12c-25 -7 -42 -19 -42 -37c0 -26 24 -34 52 -34z" />
    <glyph glyph-name="Asmallogonek.calt" unicode="&#xe03c;" horiz-adv-x="515" 
d="M352 44l-16 51h-157l-16 -52c-9 -30 -39 -51 -78 -51c-48 0 -76 32 -76 75c0 7 4 26 7 33l136 371c15 41 44 81 108 81s96 -40 110 -82l129 -369c2 -6 7 -24 7 -33c0 -42 -29 -73 -70 -76c-5 -15 -7 -28 -7 -44c0 -27 11 -51 56 -51c13 0 28 5 46 5c30 0 44 -19 44 -45
c0 -30 -13 -48 -45 -59c-19 -6 -40 -9 -58 -9c-95 0 -145 39 -145 116c0 33 13 71 37 116c-5 7 -10 14 -12 23zM259 344l-40 -124h79z" />
    <glyph glyph-name="Asmallring" unicode="&#xe03d;" horiz-adv-x="602" 
d="M300 401c-19 0 -42 -6 -57 -22c-12 -13 -20 -31 -20 -59v-32h156v32c0 28 -8 46 -20 59c-16 17 -38 22 -59 22zM541 327v-257c0 -43 -37 -78 -81 -78s-81 35 -81 78v79h-156v-79c0 -43 -37 -78 -81 -78s-81 35 -81 78v257c0 56 22 118 66 161c39 37 96 64 173 64
c79 0 136 -27 175 -64c44 -43 66 -105 66 -161zM426 729c0 -68 -56 -123 -124 -123c-69 0 -125 55 -125 123c0 70 56 125 125 125c68 0 124 -55 124 -125zM357 729c0 32 -25 57 -55 57c-31 0 -55 -25 -55 -57c0 -30 24 -55 55 -55c30 0 55 25 55 55z" />
    <glyph glyph-name="Asmallring.2" unicode="&#xe03e;" horiz-adv-x="602" 
d="M300 401c-19 0 -42 -6 -57 -22c-12 -13 -20 -31 -20 -59v-43h156v43c0 28 -8 46 -20 59c-16 17 -38 22 -59 22zM541 327v-257c0 -43 -37 -78 -81 -78s-81 35 -81 78v68h-156v-68c0 -43 -37 -78 -81 -78s-81 35 -81 78v257c0 56 22 118 66 161c39 37 96 64 173 64
c79 0 136 -27 175 -64c44 -43 66 -105 66 -161zM426 729c0 -68 -56 -123 -124 -123c-69 0 -125 55 -125 123c0 70 56 125 125 125c68 0 124 -55 124 -125zM357 729c0 32 -25 57 -55 57c-31 0 -55 -25 -55 -57c0 -30 24 -55 55 -55c30 0 55 25 55 55z" />
    <glyph glyph-name="Asmallring.3" unicode="&#xe03f;" horiz-adv-x="569" 
d="M45 158c0 76 39 121 95 148c59 29 137 36 205 38c-1 21 -6 36 -16 47c-11 11 -25 16 -46 16c-24 0 -46 -10 -71 -21c-21 -9 -41 -19 -65 -19c-46 0 -78 34 -78 78c0 41 28 63 64 79c59 25 107 28 158 28c75 0 132 -21 170 -64c31 -35 47 -85 47 -151v-267
c0 -45 -37 -78 -81 -78c-29 0 -55 15 -69 37c-44 -28 -82 -37 -140 -37c-93 0 -173 63 -173 166zM404 729c0 -68 -56 -123 -124 -123c-69 0 -125 55 -125 123c0 70 56 125 125 125c68 0 124 -55 124 -125zM335 729c0 32 -25 57 -55 57c-31 0 -55 -25 -55 -57
c0 -30 24 -55 55 -55c30 0 55 25 55 55zM263 130c32 0 59 10 83 25v58c-32 -1 -67 -4 -93 -12c-25 -7 -42 -19 -42 -37c0 -26 24 -34 52 -34z" />
    <glyph glyph-name="Asmallring.calt" unicode="&#xe040;" horiz-adv-x="515" 
d="M352 44l-16 51h-157l-16 -52c-9 -30 -39 -51 -78 -51c-48 0 -76 32 -76 75c0 7 4 26 7 33l136 371c15 41 44 81 108 81s96 -40 110 -82l129 -369c2 -6 7 -24 7 -33c0 -44 -31 -76 -76 -76c-38 0 -69 22 -78 52zM259 344l-40 -124h79zM382 729c0 -68 -56 -123 -124 -123
c-69 0 -125 55 -125 123c0 70 56 125 125 125c68 0 124 -55 124 -125zM313 729c0 32 -25 57 -55 57c-31 0 -55 -25 -55 -57c0 -30 24 -55 55 -55c30 0 55 25 55 55z" />
    <glyph glyph-name="Asmalltilde" unicode="&#xe041;" horiz-adv-x="602" 
d="M300 401c-19 0 -42 -6 -57 -22c-12 -13 -20 -31 -20 -59v-32h156v32c0 28 -8 46 -20 59c-16 17 -38 22 -59 22zM541 327v-257c0 -43 -37 -78 -81 -78s-81 35 -81 78v79h-156v-79c0 -43 -37 -78 -81 -78s-81 35 -81 78v257c0 56 22 118 66 161c39 37 96 64 173 64
c79 0 136 -27 175 -64c44 -43 66 -105 66 -161zM492 750c0 -26 -10 -49 -25 -66c-22 -26 -56 -41 -85 -41c-36 0 -61 13 -81 27c-23 16 -41 33 -63 33c-20 0 -27 -15 -36 -29c-8 -13 -18 -24 -42 -24c-32 0 -49 24 -49 55c0 26 10 49 25 66c22 26 56 41 85 41
c36 0 61 -13 81 -27c23 -16 41 -33 63 -33c20 0 27 15 36 29c8 13 18 24 42 24c32 0 49 -24 49 -55z" />
    <glyph glyph-name="Asmalltilde.2" unicode="&#xe042;" horiz-adv-x="602" 
d="M300 401c-19 0 -42 -6 -57 -22c-12 -13 -20 -31 -20 -59v-43h156v43c0 28 -8 46 -20 59c-16 17 -38 22 -59 22zM541 327v-257c0 -43 -37 -78 -81 -78s-81 35 -81 78v68h-156v-68c0 -43 -37 -78 -81 -78s-81 35 -81 78v257c0 56 22 118 66 161c39 37 96 64 173 64
c79 0 136 -27 175 -64c44 -43 66 -105 66 -161zM492 750c0 -26 -10 -49 -25 -66c-22 -26 -56 -41 -85 -41c-36 0 -61 13 -81 27c-23 16 -41 33 -63 33c-20 0 -27 -15 -36 -29c-8 -13 -18 -24 -42 -24c-32 0 -49 24 -49 55c0 26 10 49 25 66c22 26 56 41 85 41
c36 0 61 -13 81 -27c23 -16 41 -33 63 -33c20 0 27 15 36 29c8 13 18 24 42 24c32 0 49 -24 49 -55z" />
    <glyph glyph-name="Asmalltilde.3" unicode="&#xe043;" horiz-adv-x="569" 
d="M45 158c0 76 39 121 95 148c59 29 137 36 205 38c-1 21 -6 36 -16 47c-11 11 -25 16 -46 16c-24 0 -46 -10 -71 -21c-21 -9 -41 -19 -65 -19c-46 0 -78 34 -78 78c0 41 28 63 64 79c59 25 107 28 158 28c75 0 132 -21 170 -64c31 -35 47 -85 47 -151v-267
c0 -45 -37 -78 -81 -78c-29 0 -55 15 -69 37c-44 -28 -82 -37 -140 -37c-93 0 -173 63 -173 166zM467 750c0 -26 -10 -49 -25 -66c-22 -26 -56 -41 -85 -41c-36 0 -61 13 -81 27c-23 16 -41 33 -63 33c-20 0 -27 -15 -36 -29c-8 -13 -18 -24 -42 -24c-32 0 -49 24 -49 55
c0 26 10 49 25 66c22 26 56 41 85 41c36 0 61 -13 81 -27c23 -16 41 -33 63 -33c20 0 27 15 36 29c8 13 18 24 42 24c32 0 49 -24 49 -55zM263 130c32 0 59 10 83 25v58c-32 -1 -67 -4 -93 -12c-25 -7 -42 -19 -42 -37c0 -26 24 -34 52 -34z" />
    <glyph glyph-name="Asmalltilde.calt" unicode="&#xe044;" horiz-adv-x="515" 
d="M352 44l-16 51h-157l-16 -52c-9 -30 -39 -51 -78 -51c-48 0 -76 32 -76 75c0 7 4 26 7 33l136 371c15 41 44 81 108 81s96 -40 110 -82l129 -369c2 -6 7 -24 7 -33c0 -44 -31 -76 -76 -76c-38 0 -69 22 -78 52zM259 344l-40 -124h79zM448 750c0 -26 -10 -49 -25 -66
c-22 -26 -56 -41 -85 -41c-36 0 -61 13 -81 27c-23 16 -41 33 -63 33c-20 0 -27 -15 -36 -29c-8 -13 -18 -24 -42 -24c-32 0 -49 24 -49 55c0 26 10 49 25 66c22 26 56 41 85 41c36 0 61 -13 81 -27c23 -16 41 -33 63 -33c20 0 27 15 36 29c8 13 18 24 42 24
c32 0 49 -24 49 -55z" />
    <glyph glyph-name="Atilde" unicode="&#xc3;" horiz-adv-x="695" 
d="M347 526c-25 0 -51 -6 -73 -25c-20 -19 -35 -49 -35 -98v-53h217v53c0 49 -15 79 -35 98c-21 19 -48 25 -74 25zM632 411v-336c0 -47 -41 -85 -88 -85c-49 0 -88 38 -88 85v119h-217v-119c0 -47 -41 -85 -88 -85c-49 0 -88 38 -88 85v336c0 83 34 170 108 225
c44 33 103 54 176 54c74 0 133 -21 177 -54c74 -55 108 -142 108 -225zM538 890c0 -26 -10 -49 -25 -66c-22 -26 -56 -41 -85 -41c-36 0 -61 13 -81 27c-23 16 -41 33 -63 33c-20 0 -27 -15 -36 -29c-8 -13 -18 -24 -42 -24c-32 0 -49 24 -49 55c0 26 10 49 25 66
c22 26 56 41 85 41c36 0 61 -13 81 -27c23 -16 41 -33 63 -33c20 0 27 15 36 29c8 13 18 24 42 24c32 0 49 -24 49 -55z" />
    <glyph glyph-name="Atilde.2" unicode="&#xe045;" horiz-adv-x="695" 
d="M347 526c-25 0 -51 -6 -73 -25c-20 -19 -35 -49 -35 -98v-53h217v53c0 49 -15 79 -35 98c-21 19 -48 25 -74 25zM632 411v-336c0 -47 -41 -85 -88 -85c-49 0 -88 38 -88 85v119h-217v-119c0 -47 -41 -85 -88 -85c-49 0 -88 38 -88 85v336c0 83 34 170 108 225
c44 33 103 54 176 54c74 0 133 -21 177 -54c74 -55 108 -142 108 -225zM538 890c0 -26 -10 -49 -25 -66c-22 -26 -56 -41 -85 -41c-36 0 -61 13 -81 27c-23 16 -41 33 -63 33c-20 0 -27 -15 -36 -29c-8 -13 -18 -24 -42 -24c-32 0 -49 24 -49 55c0 26 10 49 25 66
c22 26 56 41 85 41c36 0 61 -13 81 -27c23 -16 41 -33 63 -33c20 0 27 15 36 29c8 13 18 24 42 24c32 0 49 -24 49 -55z" />
    <glyph glyph-name="Atilde.3" unicode="&#xe046;" horiz-adv-x="668" 
d="M66 568c0 43 31 70 72 87c73 31 135 35 200 35c94 0 164 -26 209 -77c39 -44 59 -106 59 -187v-351c0 -47 -39 -85 -88 -85c-36 0 -67 21 -81 50c-48 -34 -86 -50 -182 -50c-111 0 -213 76 -213 200c0 75 34 129 95 166c67 40 167 61 293 66c-1 40 -11 68 -28 86
c-19 20 -47 28 -79 28c-36 0 -62 -11 -86 -23c-27 -13 -52 -27 -88 -27c-48 0 -83 36 -83 82zM515 890c0 -26 -10 -49 -25 -66c-22 -26 -56 -41 -85 -41c-36 0 -61 13 -81 27c-23 16 -41 33 -63 33c-20 0 -27 -15 -36 -29c-8 -13 -18 -24 -42 -24c-32 0 -49 24 -49 55
c0 26 10 49 25 66c22 26 56 41 85 41c36 0 61 -13 81 -27c23 -16 41 -33 63 -33c20 0 27 15 36 29c8 13 18 24 42 24c32 0 49 -24 49 -55zM232 198c0 -42 34 -62 89 -62c37 0 75 14 109 41v109c-53 -3 -105 -10 -138 -23c-37 -15 -60 -36 -60 -65z" />
    <glyph glyph-name="Atilde.calt" unicode="&#xe047;" horiz-adv-x="617" 
d="M309 471l-63 -207h124zM434 48l-22 75h-209l-23 -75c-11 -36 -38 -58 -86 -58c-53 0 -84 38 -84 81c0 10 4 27 8 37l168 491c17 51 51 92 124 92s109 -42 126 -92l164 -491c3 -9 7 -27 7 -37c0 -51 -38 -81 -89 -81c-42 0 -73 21 -84 58zM500 890c0 -26 -10 -49 -25 -66
c-22 -26 -56 -41 -85 -41c-36 0 -61 13 -81 27c-23 16 -41 33 -63 33c-20 0 -27 -15 -36 -29c-8 -13 -18 -24 -42 -24c-32 0 -49 24 -49 55c0 26 10 49 25 66c22 26 56 41 85 41c36 0 61 -13 81 -27c23 -16 41 -33 63 -33c20 0 27 15 36 29c8 13 18 24 42 24
c32 0 49 -24 49 -55z" />
    <glyph glyph-name="B" unicode="B" horiz-adv-x="612" 
d="M574 186c0 -127 -117 -186 -229 -186h-193c-49 0 -88 38 -88 85v511c0 47 39 85 88 85h158c99 0 208 -56 208 -173c0 -65 -27 -118 -83 -144v-2c99 -25 139 -86 139 -176zM341 484c0 35 -27 55 -63 55h-38v-122h30c22 0 71 6 71 67zM394 209c0 41 -28 67 -103 67h-51
v-133h65c47 0 86 9 89 66z" />
    <glyph glyph-name="B.2" unicode="&#xe048;" horiz-adv-x="662" 
d="M624 186c0 -127 -117 -186 -229 -186h-243c-49 0 -88 38 -88 85v511c0 47 39 85 88 85h208c99 0 208 -56 208 -173c0 -65 -27 -118 -83 -144v-2c99 -25 139 -86 139 -176zM391 484c0 35 -27 55 -63 55h-88v-122h80c22 0 71 6 71 67zM444 209c0 41 -28 67 -103 67h-101
v-133h115c47 0 86 9 89 66z" />
    <glyph glyph-name="Bsmall" unicode="&#xf762;" horiz-adv-x="539" 
d="M508 152c0 -107 -89 -152 -189 -152h-177c-45 0 -81 34 -81 78v387c0 44 26 79 77 79h150c97 0 177 -50 177 -145c0 -42 -18 -82 -46 -107c63 -25 89 -69 89 -140zM303 378c0 22 -20 30 -37 30h-43v-64h39c14 0 41 3 41 34zM343 171c0 23 -14 38 -62 38h-58v-74h65
c24 0 55 4 55 36z" />
    <glyph glyph-name="Bsmall.2" unicode="&#xe049;" horiz-adv-x="569" 
d="M538 152c0 -107 -89 -152 -189 -152h-207c-45 0 -81 34 -81 78v387c0 44 26 79 77 79h180c97 0 177 -50 177 -145c0 -42 -18 -82 -46 -107c63 -25 89 -69 89 -140zM333 378c0 22 -20 30 -37 30h-73v-64h69c14 0 41 3 41 34zM373 171c0 23 -14 38 -62 38h-88v-74h95
c24 0 55 4 55 36z" />
    <glyph glyph-name="C" unicode="C" horiz-adv-x="652" 
d="M620 590c0 -48 -37 -82 -82 -82c-21 0 -38 9 -66 16c-18 5 -39 8 -69 8c-99 0 -182 -79 -182 -191c0 -111 77 -191 182 -191c29 0 53 4 72 9c32 8 54 18 75 18c45 0 82 -35 82 -82c0 -39 -31 -66 -66 -79c-45 -16 -100 -26 -161 -26c-214 0 -368 135 -368 351
c0 202 172 349 370 349c61 0 105 -7 149 -22c38 -13 64 -39 64 -78z" />
    <glyph glyph-name="C.2" unicode="&#xe04a;" horiz-adv-x="693" 
d="M416 150c32 0 67 6 88 11c34 8 59 18 82 18c48 0 79 -32 79 -83c0 -39 -33 -66 -69 -79c-47 -16 -110 -27 -174 -27c-242 0 -385 135 -385 351c0 209 166 349 376 349c93 0 255 -32 255 -184c0 -103 -66 -158 -134 -158c-50 0 -87 26 -87 72c0 51 45 48 45 81
c0 21 -33 34 -76 34c-113 0 -195 -79 -195 -194c0 -111 73 -191 195 -191z" />
    <glyph glyph-name="Cacute" unicode="&#x106;" horiz-adv-x="652" 
d="M274 812c0 13 4 24 10 36l42 89c10 22 27 39 56 39c33 0 63 -26 63 -59c0 -14 -4 -23 -15 -41l-51 -82c-13 -21 -29 -33 -51 -33c-29 0 -54 22 -54 51zM620 590c0 -48 -37 -82 -82 -82c-21 0 -38 9 -66 16c-18 5 -39 8 -69 8c-99 0 -182 -79 -182 -191
c0 -111 77 -191 182 -191c29 0 53 4 72 9c32 8 54 18 75 18c45 0 82 -35 82 -82c0 -39 -31 -66 -66 -79c-45 -16 -100 -26 -161 -26c-214 0 -368 135 -368 351c0 202 172 349 370 349c61 0 105 -7 149 -22c38 -13 64 -39 64 -78z" />
    <glyph glyph-name="Cacute.2" unicode="&#xe04b;" horiz-adv-x="693" 
d="M308 812c0 13 4 24 10 36l42 89c10 22 27 39 56 39c33 0 63 -26 63 -59c0 -14 -4 -23 -15 -41l-51 -82c-13 -21 -29 -33 -51 -33c-29 0 -54 22 -54 51zM416 150c32 0 67 6 88 11c34 8 59 18 82 18c48 0 79 -32 79 -83c0 -39 -33 -66 -69 -79c-47 -16 -110 -27 -174 -27
c-242 0 -385 135 -385 351c0 209 166 349 376 349c93 0 255 -32 255 -184c0 -103 -66 -158 -134 -158c-50 0 -87 26 -87 72c0 51 45 48 45 81c0 21 -33 34 -76 34c-113 0 -195 -79 -195 -194c0 -111 73 -191 195 -191z" />
    <glyph glyph-name="Ccaron" unicode="&#x10c;" horiz-adv-x="652" 
d="M620 590c0 -48 -37 -82 -82 -82c-21 0 -38 9 -66 16c-18 5 -39 8 -69 8c-99 0 -182 -79 -182 -191c0 -111 77 -191 182 -191c29 0 53 4 72 9c32 8 54 18 75 18c45 0 82 -35 82 -82c0 -39 -31 -66 -66 -79c-45 -16 -100 -26 -161 -26c-214 0 -368 135 -368 351
c0 202 172 349 370 349c61 0 105 -7 149 -22c38 -13 64 -39 64 -78zM212 917c0 35 26 57 56 57c16 0 27 -5 39 -15l72 -65l72 65c12 10 23 15 39 15c30 0 56 -22 56 -57c0 -17 -10 -33 -26 -47l-98 -88c-12 -10 -25 -18 -43 -18s-31 8 -43 18l-98 88c-16 14 -26 30 -26 47z
" />
    <glyph glyph-name="Ccaron.2" unicode="&#xe04c;" horiz-adv-x="693" 
d="M219 917c0 35 26 57 56 57c16 0 27 -5 39 -15l72 -65l72 65c12 10 23 15 39 15c30 0 56 -22 56 -57c0 -17 -10 -33 -26 -47l-98 -88c-12 -10 -25 -18 -43 -18s-31 8 -43 18l-98 88c-16 14 -26 30 -26 47zM416 150c32 0 67 6 88 11c34 8 59 18 82 18c48 0 79 -32 79 -83
c0 -39 -33 -66 -69 -79c-47 -16 -110 -27 -174 -27c-242 0 -385 135 -385 351c0 209 166 349 376 349c93 0 255 -32 255 -184c0 -103 -66 -158 -134 -158c-50 0 -87 26 -87 72c0 51 45 48 45 81c0 21 -33 34 -76 34c-113 0 -195 -79 -195 -194c0 -111 73 -191 195 -191z" />
    <glyph glyph-name="Ccedilla" unicode="&#xc7;" horiz-adv-x="652" 
d="M531 -116c0 -79 -75 -107 -159 -107c-12 0 -27 1 -40 4c-22 5 -36 19 -36 41c0 21 19 40 40 40c12 0 26 -4 41 -4c24 0 49 4 49 28c0 18 -16 30 -48 30c-14 0 -32 12 -28 35l4 42c-187 20 -317 149 -317 348c0 202 172 349 370 349c61 0 105 -7 149 -22
c38 -13 64 -39 64 -78c0 -48 -37 -82 -82 -82c-21 0 -38 9 -66 16c-18 5 -39 8 -69 8c-99 0 -182 -79 -182 -191c0 -111 77 -191 182 -191c29 0 53 4 72 9c32 8 54 18 75 18c45 0 82 -35 82 -82c0 -39 -31 -66 -66 -79c-37 -13 -81 -22 -129 -25l1 -16c65 -9 93 -52 93 -91z
" />
    <glyph glyph-name="Ccedilla.2" unicode="&#xe04d;" horiz-adv-x="693" 
d="M548 -116c0 -79 -75 -107 -159 -107c-12 0 -27 1 -40 4c-22 5 -36 19 -36 41c0 21 19 40 40 40c12 0 26 -4 41 -4c24 0 49 4 49 28c0 18 -16 30 -48 30c-14 0 -30 12 -28 35l4 42c-211 17 -334 147 -334 348c0 209 166 349 376 349c93 0 255 -32 255 -184
c0 -103 -66 -158 -134 -158c-50 0 -87 26 -87 72c0 47 45 51 45 81c0 21 -33 34 -76 34c-113 0 -195 -79 -195 -194c0 -111 73 -191 195 -191c32 0 67 6 88 11c34 8 59 18 82 18c48 0 79 -32 79 -83c0 -39 -33 -66 -69 -79c-39 -14 -89 -23 -142 -26l1 -16
c65 -9 93 -52 93 -91z" />
    <glyph glyph-name="Csmall" unicode="&#xf763;" horiz-adv-x="526" 
d="M331 552c45 0 89 -6 122 -20s54 -36 54 -70c0 -43 -33 -76 -75 -76c-20 0 -35 6 -55 12c-14 4 -29 7 -49 7c-37 0 -71 -17 -94 -44c-19 -23 -31 -53 -31 -88c0 -40 14 -74 38 -97c22 -22 54 -35 89 -35c24 0 42 4 58 9c19 6 35 12 57 12c41 0 70 -32 70 -77
c0 -36 -27 -59 -65 -74c-36 -14 -81 -19 -121 -19c-85 0 -159 26 -211 74c-53 49 -84 119 -84 207c0 74 29 138 76 187c55 57 135 92 221 92z" />
    <glyph glyph-name="Csmall.2" unicode="&#xe04e;" horiz-adv-x="545" 
d="M335 406c-39 0 -77 -17 -101 -44c-20 -23 -31 -53 -31 -88c0 -41 13 -75 38 -98c24 -22 57 -35 94 -35c26 0 45 4 62 9c21 6 36 12 59 12c42 0 74 -32 74 -77c0 -36 -28 -59 -67 -74c-37 -14 -84 -19 -125 -19c-87 0 -166 26 -219 74c-55 49 -85 119 -85 208
c0 72 27 136 72 184c55 59 136 95 225 95c75 0 198 -34 198 -156c0 -83 -53 -125 -108 -125c-40 0 -62 19 -62 49c0 33 27 35 27 60c0 14 -17 25 -51 25z" />
    <glyph glyph-name="Csmallacute" unicode="&#xe04f;" horiz-adv-x="526" 
d="M331 552c45 0 89 -6 122 -20s54 -36 54 -70c0 -43 -33 -76 -75 -76c-20 0 -35 6 -55 12c-14 4 -29 7 -49 7c-37 0 -71 -17 -94 -44c-19 -23 -31 -53 -31 -88c0 -40 14 -74 38 -97c22 -22 54 -35 89 -35c24 0 42 4 58 9c19 6 35 12 57 12c41 0 70 -32 70 -77
c0 -36 -27 -59 -65 -74c-36 -14 -81 -19 -121 -19c-85 0 -159 26 -211 74c-53 49 -84 119 -84 207c0 74 29 138 76 187c55 57 135 92 221 92zM222 672c0 13 4 24 10 36l42 89c10 22 27 39 56 39c33 0 63 -26 63 -59c0 -14 -4 -23 -15 -41l-51 -82c-13 -21 -29 -33 -51 -33
c-29 0 -54 22 -54 51z" />
    <glyph glyph-name="Csmallacute.2" unicode="&#xe050;" horiz-adv-x="545" 
d="M239 672c0 13 4 24 10 36l42 89c10 22 27 39 56 39c33 0 63 -26 63 -59c0 -14 -4 -23 -15 -41l-51 -82c-13 -21 -29 -33 -51 -33c-29 0 -54 22 -54 51zM335 406c-39 0 -77 -17 -101 -44c-20 -23 -31 -53 -31 -88c0 -41 13 -75 38 -98c24 -22 57 -35 94 -35
c26 0 45 4 62 9c21 6 36 12 59 12c42 0 74 -32 74 -77c0 -36 -28 -59 -67 -74c-37 -14 -84 -19 -125 -19c-87 0 -166 26 -219 74c-55 49 -85 119 -85 208c0 72 27 136 72 184c55 59 136 95 225 95c75 0 198 -34 198 -156c0 -83 -53 -125 -108 -125c-40 0 -62 19 -62 49
c0 33 27 35 27 60c0 14 -17 25 -51 25z" />
    <glyph glyph-name="Csmallcaron" unicode="&#xe051;" horiz-adv-x="526" 
d="M331 552c45 0 89 -6 122 -20s54 -36 54 -70c0 -43 -33 -76 -75 -76c-20 0 -35 6 -55 12c-14 4 -29 7 -49 7c-37 0 -71 -17 -94 -44c-19 -23 -31 -53 -31 -88c0 -40 14 -74 38 -97c22 -22 54 -35 89 -35c24 0 42 4 58 9c19 6 35 12 57 12c41 0 70 -32 70 -77
c0 -36 -27 -59 -65 -74c-36 -14 -81 -19 -121 -19c-85 0 -159 26 -211 74c-53 49 -84 119 -84 207c0 74 29 138 76 187c55 57 135 92 221 92zM136 777c0 35 26 57 56 57c16 0 27 -5 39 -15l72 -65l72 65c12 10 23 15 39 15c30 0 56 -22 56 -57c0 -17 -10 -33 -26 -47
l-98 -88c-12 -10 -25 -18 -43 -18s-31 8 -43 18l-98 88c-16 14 -26 30 -26 47z" />
    <glyph glyph-name="Csmallcaron.2" unicode="&#xe052;" horiz-adv-x="545" 
d="M146 777c0 35 26 57 56 57c16 0 27 -5 39 -15l72 -65l72 65c12 10 23 15 39 15c30 0 56 -22 56 -57c0 -17 -10 -33 -26 -47l-98 -88c-12 -10 -25 -18 -43 -18s-31 8 -43 18l-98 88c-16 14 -26 30 -26 47zM335 406c-39 0 -77 -17 -101 -44c-20 -23 -31 -53 -31 -88
c0 -41 13 -75 38 -98c24 -22 57 -35 94 -35c26 0 45 4 62 9c21 6 36 12 59 12c42 0 74 -32 74 -77c0 -36 -28 -59 -67 -74c-37 -14 -84 -19 -125 -19c-87 0 -166 26 -219 74c-55 49 -85 119 -85 208c0 72 27 136 72 184c55 59 136 95 225 95c75 0 198 -34 198 -156
c0 -83 -53 -125 -108 -125c-40 0 -62 19 -62 49c0 33 27 35 27 60c0 14 -17 25 -51 25z" />
    <glyph glyph-name="Csmallcedilla" unicode="&#xe053;" horiz-adv-x="526" 
d="M447 -116c0 -79 -75 -107 -159 -107c-12 0 -27 1 -40 4c-22 5 -36 19 -36 41c0 21 19 40 40 40c12 0 26 -4 41 -4c24 0 49 4 49 28c0 18 -16 30 -48 30c-14 0 -32 12 -28 35l4 46c-60 8 -113 32 -152 69c-53 49 -84 119 -84 207c0 74 29 138 76 187c55 57 135 92 221 92
c45 0 89 -6 122 -20s54 -36 54 -70c0 -43 -33 -76 -75 -76c-20 0 -35 6 -55 12c-14 4 -29 7 -49 7c-37 0 -71 -17 -94 -44c-19 -23 -31 -53 -31 -88c0 -40 14 -74 38 -97c22 -22 54 -35 89 -35c24 0 42 4 58 9c19 6 35 12 57 12c41 0 70 -32 70 -77c0 -36 -27 -59 -65 -74
c-29 -11 -64 -17 -97 -18l1 -18c65 -9 93 -52 93 -91z" />
    <glyph glyph-name="Csmallcedilla.2" unicode="&#xe054;" horiz-adv-x="545" 
d="M335 406c-39 0 -77 -17 -101 -44c-20 -23 -31 -53 -31 -88c0 -41 13 -75 38 -98c24 -22 57 -35 94 -35c26 0 45 4 62 9c21 6 36 12 59 12c42 0 74 -32 74 -77c0 -36 -28 -59 -67 -74c-29 -11 -64 -16 -98 -18l1 -18c65 -9 93 -52 93 -91c0 -79 -75 -107 -159 -107
c-12 0 -27 1 -40 4c-22 5 -36 19 -36 41c0 21 19 40 40 40c12 0 26 -4 41 -4c24 0 49 4 49 28c0 18 -16 30 -48 30c-14 0 -32 12 -28 35l4 45c-64 8 -122 32 -163 70c-55 49 -85 119 -85 208c0 72 27 136 72 184c55 59 136 95 225 95c75 0 198 -34 198 -156
c0 -83 -53 -125 -108 -125c-40 0 -62 19 -62 49c0 29 27 37 27 60c0 14 -17 25 -51 25z" />
    <glyph glyph-name="D" unicode="D" horiz-adv-x="744" 
d="M707 341c0 -110 -34 -187 -84 -239c-83 -86 -193 -102 -292 -102h-179c-49 0 -88 38 -88 85v511c0 47 39 85 88 85h192c100 0 196 -16 279 -102c50 -52 84 -129 84 -238zM240 533v-385h79c76 0 138 19 174 68c22 30 34 71 34 125c0 64 -17 109 -47 139
c-37 38 -93 53 -161 53h-79z" />
    <glyph glyph-name="Dcaron" unicode="&#x10e;" horiz-adv-x="744" 
d="M201 917c0 35 26 57 56 57c16 0 27 -5 39 -15l72 -65l72 65c12 10 23 15 39 15c30 0 56 -22 56 -57c0 -17 -10 -33 -26 -47l-98 -88c-12 -10 -25 -18 -43 -18s-31 8 -43 18l-98 88c-16 14 -26 30 -26 47zM707 341c0 -110 -34 -187 -84 -239c-83 -86 -193 -102 -292 -102
h-179c-49 0 -88 38 -88 85v511c0 47 39 85 88 85h192c100 0 196 -16 279 -102c50 -52 84 -129 84 -238zM240 533v-385h79c76 0 138 19 174 68c22 30 34 71 34 125c0 64 -17 109 -47 139c-37 38 -93 53 -161 53h-79z" />
    <glyph glyph-name="Dcroat" unicode="&#x110;" horiz-adv-x="757" 
d="M316 265h-63v-117h79c55 0 103 10 139 35c43 29 69 79 69 158c0 63 -17 108 -46 138c-37 38 -94 54 -162 54h-79v-116h63c40 0 73 -36 73 -76c0 -42 -33 -76 -73 -76zM77 85v180h-23c-41 0 -74 34 -74 76c0 40 33 76 74 76h23v179c0 47 39 85 88 85h192
c100 0 196 -16 279 -102c50 -52 84 -129 84 -238c0 -110 -34 -187 -84 -239c-83 -86 -193 -102 -292 -102h-179c-49 0 -88 38 -88 85z" />
    <glyph glyph-name="Delta" unicode="&#x2206;" horiz-adv-x="662" 
d="M529 0h-396c-64 0 -98 42 -98 88c0 13 4 27 8 39l173 475c25 68 65 88 115 88s90 -20 115 -88l173 -475c4 -12 8 -26 8 -39c0 -46 -34 -88 -98 -88zM331 431l-94 -278h189z" />
    <glyph glyph-name="Dsmall" unicode="&#xf764;" horiz-adv-x="613" 
d="M579 272c0 -232 -179 -272 -301 -272h-136c-45 0 -81 34 -81 78v387c0 44 36 79 81 79h146c119 0 291 -48 291 -272zM223 404v-266h46c85 0 144 34 144 134c0 99 -59 132 -144 132h-46z" />
    <glyph glyph-name="Dsmallcaron" unicode="&#xe055;" horiz-adv-x="613" 
d="M579 272c0 -232 -179 -272 -301 -272h-136c-45 0 -81 34 -81 78v387c0 44 36 79 81 79h146c119 0 291 -48 291 -272zM223 404v-266h46c85 0 144 34 144 134c0 99 -59 132 -144 132h-46zM126 777c0 35 26 57 56 57c16 0 27 -5 39 -15l72 -65l72 65c12 10 23 15 39 15
c30 0 56 -22 56 -57c0 -17 -10 -33 -26 -47l-98 -88c-12 -10 -25 -18 -43 -18s-31 8 -43 18l-98 88c-16 14 -26 30 -26 47z" />
    <glyph glyph-name="E" unicode="E" horiz-adv-x="639" 
d="M240 265v-109h295c42 0 75 -36 75 -78c0 -43 -33 -78 -75 -78h-383c-49 0 -88 38 -88 85v511c0 47 39 85 88 85h383c42 0 75 -36 75 -78c0 -43 -33 -78 -75 -78h-295v-104h242c42 0 75 -36 75 -78c0 -43 -33 -78 -75 -78h-242z" />
    <glyph glyph-name="E.1" unicode="&#xe056;" horiz-adv-x="585" 
d="M556 603c0 -43 -33 -78 -75 -78h-145c-42 0 -71 -13 -88 -33c-15 -17 -22 -39 -22 -62v-9h202c42 0 75 -36 75 -78c0 -43 -33 -78 -75 -78h-203v-9c0 -27 9 -54 30 -73c18 -16 44 -27 80 -27h146c42 0 75 -36 75 -78c0 -43 -33 -78 -75 -78h-149c-90 0 -168 27 -219 88
c-41 49 -65 119 -65 216v73c0 98 25 170 67 219c51 59 128 85 217 85h149c42 0 75 -36 75 -78z" />
    <glyph glyph-name="E.2" unicode="&#xe057;" horiz-adv-x="669" 
d="M240 230v-74h325c42 0 75 -36 75 -78c0 -43 -33 -78 -75 -78h-413c-49 0 -88 38 -88 85v511c0 47 39 85 88 85h413c42 0 75 -36 75 -78c0 -43 -33 -78 -75 -78h-325v-139h256c42 0 75 -36 75 -78c0 -43 -33 -78 -75 -78h-256z" />
    <glyph glyph-name="E.3" unicode="&#xe058;" horiz-adv-x="730" 
d="M586 275h-352c12 -39 32 -69 60 -90c31 -24 71 -36 115 -36c42 0 70 6 92 14c37 13 57 30 89 30c45 0 77 -35 77 -82c0 -46 -36 -74 -82 -92c-60 -23 -132 -29 -179 -29c-127 0 -209 35 -269 93c-64 61 -100 154 -100 266c0 105 38 187 98 248c55 55 137 93 242 93
c111 0 186 -36 235 -86c65 -66 84 -139 84 -202c0 -90 -50 -127 -110 -127zM236 426h274c-4 28 -16 51 -33 68c-23 23 -56 33 -98 33s-79 -14 -106 -40c-16 -16 -29 -36 -37 -61z" />
    <glyph glyph-name="Eacute" unicode="&#xc9;" horiz-adv-x="639" 
d="M240 265v-109h295c42 0 75 -36 75 -78c0 -43 -33 -78 -75 -78h-383c-49 0 -88 38 -88 85v511c0 47 39 85 88 85h383c42 0 75 -36 75 -78c0 -43 -33 -78 -75 -78h-295v-104h242c42 0 75 -36 75 -78c0 -43 -33 -78 -75 -78h-242zM233 812c0 13 4 24 10 36l42 89
c10 22 27 39 56 39c33 0 63 -26 63 -59c0 -14 -4 -23 -15 -41l-51 -82c-13 -21 -29 -33 -51 -33c-29 0 -54 22 -54 51z" />
    <glyph glyph-name="Eacute.1" unicode="&#xe059;" horiz-adv-x="585" 
d="M237 812c0 13 4 24 10 36l42 89c10 22 27 39 56 39c33 0 63 -26 63 -59c0 -14 -4 -23 -15 -41l-51 -82c-13 -21 -29 -33 -51 -33c-29 0 -54 22 -54 51zM556 603c0 -43 -33 -78 -75 -78h-145c-42 0 -71 -13 -88 -33c-15 -17 -22 -39 -22 -62v-9h202c42 0 75 -36 75 -78
c0 -43 -33 -78 -75 -78h-203v-9c0 -27 9 -54 30 -73c18 -16 44 -27 80 -27h146c42 0 75 -36 75 -78c0 -43 -33 -78 -75 -78h-149c-90 0 -168 27 -219 88c-41 49 -65 119 -65 216v73c0 98 25 170 67 219c51 59 128 85 217 85h149c42 0 75 -36 75 -78z" />
    <glyph glyph-name="Eacute.2" unicode="&#xe05a;" horiz-adv-x="669" 
d="M240 230v-74h325c42 0 75 -36 75 -78c0 -43 -33 -78 -75 -78h-413c-49 0 -88 38 -88 85v511c0 47 39 85 88 85h413c42 0 75 -36 75 -78c0 -43 -33 -78 -75 -78h-325v-139h256c42 0 75 -36 75 -78c0 -43 -33 -78 -75 -78h-256zM279 812c0 13 4 24 10 36l42 89
c10 22 27 39 56 39c33 0 63 -26 63 -59c0 -14 -4 -23 -15 -41l-51 -82c-13 -21 -29 -33 -51 -33c-29 0 -54 22 -54 51z" />
    <glyph glyph-name="Eacute.3" unicode="&#xe05b;" horiz-adv-x="730" 
d="M586 275h-352c12 -39 32 -69 60 -90c31 -24 71 -36 115 -36c42 0 70 6 92 14c37 13 57 30 89 30c45 0 77 -35 77 -82c0 -46 -36 -74 -82 -92c-60 -23 -132 -29 -179 -29c-127 0 -209 35 -269 93c-64 61 -100 154 -100 266c0 105 38 187 98 248c55 55 137 93 242 93
c111 0 186 -36 235 -86c65 -66 84 -139 84 -202c0 -90 -50 -127 -110 -127zM236 426h274c-4 28 -16 51 -33 68c-23 23 -56 33 -98 33s-79 -14 -106 -40c-16 -16 -29 -36 -37 -61zM296 812c0 13 4 24 10 36l42 89c10 22 27 39 56 39c33 0 63 -26 63 -59c0 -14 -4 -23 -15 -41
l-51 -82c-13 -21 -29 -33 -51 -33c-29 0 -54 22 -54 51z" />
    <glyph glyph-name="Ecaron" unicode="&#x11a;" horiz-adv-x="639" 
d="M166 917c0 35 26 57 56 57c16 0 27 -5 39 -15l72 -65l72 65c12 10 23 15 39 15c30 0 56 -22 56 -57c0 -17 -10 -33 -26 -47l-98 -88c-12 -10 -25 -18 -43 -18s-31 8 -43 18l-98 88c-16 14 -26 30 -26 47zM240 265v-109h295c42 0 75 -36 75 -78c0 -43 -33 -78 -75 -78
h-383c-49 0 -88 38 -88 85v511c0 47 39 85 88 85h383c42 0 75 -36 75 -78c0 -43 -33 -78 -75 -78h-295v-104h242c42 0 75 -36 75 -78c0 -43 -33 -78 -75 -78h-242z" />
    <glyph glyph-name="Ecaron.1" unicode="&#xe05c;" horiz-adv-x="585" 
d="M168 917c0 35 26 57 56 57c16 0 27 -5 39 -15l72 -65l72 65c12 10 23 15 39 15c30 0 56 -22 56 -57c0 -17 -10 -33 -26 -47l-98 -88c-12 -10 -25 -18 -43 -18s-31 8 -43 18l-98 88c-16 14 -26 30 -26 47zM556 603c0 -43 -33 -78 -75 -78h-145c-42 0 -71 -13 -88 -33
c-15 -17 -22 -39 -22 -62v-9h202c42 0 75 -36 75 -78c0 -43 -33 -78 -75 -78h-203v-9c0 -27 9 -54 30 -73c18 -16 44 -27 80 -27h146c42 0 75 -36 75 -78c0 -43 -33 -78 -75 -78h-149c-90 0 -168 27 -219 88c-41 49 -65 119 -65 216v73c0 98 25 170 67 219
c51 59 128 85 217 85h149c42 0 75 -36 75 -78z" />
    <glyph glyph-name="Ecaron.2" unicode="&#xe05d;" horiz-adv-x="669" 
d="M240 230v-74h325c42 0 75 -36 75 -78c0 -43 -33 -78 -75 -78h-413c-49 0 -88 38 -88 85v511c0 47 39 85 88 85h413c42 0 75 -36 75 -78c0 -43 -33 -78 -75 -78h-325v-139h256c42 0 75 -36 75 -78c0 -43 -33 -78 -75 -78h-256zM194 917c0 35 26 57 56 57
c16 0 27 -5 39 -15l72 -65l72 65c12 10 23 15 39 15c30 0 56 -22 56 -57c0 -17 -10 -33 -26 -47l-98 -88c-12 -10 -25 -18 -43 -18s-31 8 -43 18l-98 88c-16 14 -26 30 -26 47z" />
    <glyph glyph-name="Ecaron.3" unicode="&#xe05e;" horiz-adv-x="730" 
d="M586 275h-352c12 -39 32 -69 60 -90c31 -24 71 -36 115 -36c42 0 70 6 92 14c37 13 57 30 89 30c45 0 77 -35 77 -82c0 -46 -36 -74 -82 -92c-60 -23 -132 -29 -179 -29c-127 0 -209 35 -269 93c-64 61 -100 154 -100 266c0 105 38 187 98 248c55 55 137 93 242 93
c111 0 186 -36 235 -86c65 -66 84 -139 84 -202c0 -90 -50 -127 -110 -127zM236 426h274c-4 28 -16 51 -33 68c-23 23 -56 33 -98 33s-79 -14 -106 -40c-16 -16 -29 -36 -37 -61zM215 917c0 35 26 57 56 57c16 0 27 -5 39 -15l72 -65l72 65c12 10 23 15 39 15
c30 0 56 -22 56 -57c0 -17 -10 -33 -26 -47l-98 -88c-12 -10 -25 -18 -43 -18s-31 8 -43 18l-98 88c-16 14 -26 30 -26 47z" />
    <glyph glyph-name="Ecircumflex" unicode="&#xca;" horiz-adv-x="639" 
d="M240 265v-109h295c42 0 75 -36 75 -78c0 -43 -33 -78 -75 -78h-383c-49 0 -88 38 -88 85v511c0 47 39 85 88 85h383c42 0 75 -36 75 -78c0 -43 -33 -78 -75 -78h-295v-104h242c42 0 75 -36 75 -78c0 -43 -33 -78 -75 -78h-242zM319 974c18 0 31 -8 43 -18l98 -88
c16 -14 26 -30 26 -47c0 -35 -26 -57 -56 -57c-16 0 -27 5 -39 15l-72 65l-72 -65c-12 -10 -23 -15 -39 -15c-30 0 -56 22 -56 57c0 17 10 33 26 47l98 88c12 10 25 18 43 18z" />
    <glyph glyph-name="Ecircumflex.1" unicode="&#xe05f;" horiz-adv-x="585" 
d="M320 974c18 0 31 -8 43 -18l98 -88c16 -14 26 -30 26 -47c0 -35 -26 -57 -56 -57c-16 0 -27 5 -39 15l-72 65l-72 -65c-12 -10 -23 -15 -39 -15c-30 0 -56 22 -56 57c0 17 10 33 26 47l98 88c12 10 25 18 43 18zM556 603c0 -43 -33 -78 -75 -78h-145
c-42 0 -71 -13 -88 -33c-15 -17 -22 -39 -22 -62v-9h202c42 0 75 -36 75 -78c0 -43 -33 -78 -75 -78h-203v-9c0 -27 9 -54 30 -73c18 -16 44 -27 80 -27h146c42 0 75 -36 75 -78c0 -43 -33 -78 -75 -78h-149c-90 0 -168 27 -219 88c-41 49 -65 119 -65 216v73
c0 98 25 170 67 219c51 59 128 85 217 85h149c42 0 75 -36 75 -78z" />
    <glyph glyph-name="Ecircumflex.2" unicode="&#xe060;" horiz-adv-x="669" 
d="M240 230v-74h325c42 0 75 -36 75 -78c0 -43 -33 -78 -75 -78h-413c-49 0 -88 38 -88 85v511c0 47 39 85 88 85h413c42 0 75 -36 75 -78c0 -43 -33 -78 -75 -78h-325v-139h256c42 0 75 -36 75 -78c0 -43 -33 -78 -75 -78h-256zM359 974c18 0 31 -8 43 -18l98 -88
c16 -14 26 -30 26 -47c0 -35 -26 -57 -56 -57c-16 0 -27 5 -39 15l-72 65l-72 -65c-12 -10 -23 -15 -39 -15c-30 0 -56 22 -56 57c0 17 10 33 26 47l98 88c12 10 25 18 43 18z" />
    <glyph glyph-name="Ecircumflex.3" unicode="&#xe061;" horiz-adv-x="730" 
d="M586 275h-352c12 -39 32 -69 60 -90c31 -24 71 -36 115 -36c42 0 70 6 92 14c37 13 57 30 89 30c45 0 77 -35 77 -82c0 -46 -36 -74 -82 -92c-60 -23 -132 -29 -179 -29c-127 0 -209 35 -269 93c-64 61 -100 154 -100 266c0 105 38 187 98 248c55 55 137 93 242 93
c111 0 186 -36 235 -86c65 -66 84 -139 84 -202c0 -90 -50 -127 -110 -127zM236 426h274c-4 28 -16 51 -33 68c-23 23 -56 33 -98 33s-79 -14 -106 -40c-16 -16 -29 -36 -37 -61zM383 974c18 0 31 -8 43 -18l98 -88c16 -14 26 -30 26 -47c0 -35 -26 -57 -56 -57
c-16 0 -27 5 -39 15l-72 65l-72 -65c-12 -10 -23 -15 -39 -15c-30 0 -56 22 -56 57c0 17 10 33 26 47l98 88c12 10 25 18 43 18z" />
    <glyph glyph-name="Edieresis" unicode="&#xcb;" horiz-adv-x="639" 
d="M240 265v-109h295c42 0 75 -36 75 -78c0 -43 -33 -78 -75 -78h-383c-49 0 -88 38 -88 85v511c0 47 39 85 88 85h383c42 0 75 -36 75 -78c0 -43 -33 -78 -75 -78h-295v-104h242c42 0 75 -36 75 -78c0 -43 -33 -78 -75 -78h-242zM192 765c-51 0 -92 42 -92 93s41 92 92 92
c52 0 93 -41 93 -92s-41 -93 -93 -93zM446 765c-51 0 -92 42 -92 93s41 92 92 92s92 -41 92 -92s-41 -93 -92 -93z" />
    <glyph glyph-name="Edieresis.1" unicode="&#xe062;" horiz-adv-x="585" 
d="M179 765c-51 0 -92 42 -92 93s41 92 92 92c52 0 93 -41 93 -92s-41 -93 -93 -93zM433 765c-51 0 -92 42 -92 93s41 92 92 92s92 -41 92 -92s-41 -93 -92 -93zM556 603c0 -43 -33 -78 -75 -78h-145c-42 0 -71 -13 -88 -33c-15 -17 -22 -39 -22 -62v-9h202
c42 0 75 -36 75 -78c0 -43 -33 -78 -75 -78h-203v-9c0 -27 9 -54 30 -73c18 -16 44 -27 80 -27h146c42 0 75 -36 75 -78c0 -43 -33 -78 -75 -78h-149c-90 0 -168 27 -219 88c-41 49 -65 119 -65 216v73c0 98 25 170 67 219c51 59 128 85 217 85h149c42 0 75 -36 75 -78z" />
    <glyph glyph-name="Edieresis.2" unicode="&#xe063;" horiz-adv-x="669" 
d="M240 230v-74h325c42 0 75 -36 75 -78c0 -43 -33 -78 -75 -78h-413c-49 0 -88 38 -88 85v511c0 47 39 85 88 85h413c42 0 75 -36 75 -78c0 -43 -33 -78 -75 -78h-325v-139h256c42 0 75 -36 75 -78c0 -43 -33 -78 -75 -78h-256zM223 765c-51 0 -92 42 -92 93s41 92 92 92
c52 0 93 -41 93 -92s-41 -93 -93 -93zM477 765c-51 0 -92 42 -92 93s41 92 92 92s92 -41 92 -92s-41 -93 -92 -93z" />
    <glyph glyph-name="Edieresis.3" unicode="&#xe064;" horiz-adv-x="730" 
d="M586 275h-352c12 -39 32 -69 60 -90c31 -24 71 -36 115 -36c42 0 70 6 92 14c37 13 57 30 89 30c45 0 77 -35 77 -82c0 -46 -36 -74 -82 -92c-60 -23 -132 -29 -179 -29c-127 0 -209 35 -269 93c-64 61 -100 154 -100 266c0 105 38 187 98 248c55 55 137 93 242 93
c111 0 186 -36 235 -86c65 -66 84 -139 84 -202c0 -90 -50 -127 -110 -127zM236 426h274c-4 28 -16 51 -33 68c-23 23 -56 33 -98 33s-79 -14 -106 -40c-16 -16 -29 -36 -37 -61zM252 765c-51 0 -92 42 -92 93s41 92 92 92c52 0 93 -41 93 -92s-41 -93 -93 -93zM506 765
c-51 0 -92 42 -92 93s41 92 92 92s92 -41 92 -92s-41 -93 -92 -93z" />
    <glyph glyph-name="Edotaccent" unicode="&#x116;" horiz-adv-x="639" 
d="M240 265v-109h295c42 0 75 -36 75 -78c0 -43 -33 -78 -75 -78h-383c-49 0 -88 38 -88 85v511c0 47 39 85 88 85h383c42 0 75 -36 75 -78c0 -43 -33 -78 -75 -78h-295v-104h242c42 0 75 -36 75 -78c0 -43 -33 -78 -75 -78h-242zM335 771c-51 0 -92 41 -92 92s41 92 92 92
s92 -41 92 -92s-41 -92 -92 -92z" />
    <glyph glyph-name="Edotaccent.1" unicode="&#xe065;" horiz-adv-x="585" 
d="M556 603c0 -43 -33 -78 -75 -78h-145c-42 0 -71 -13 -88 -33c-15 -17 -22 -39 -22 -62v-9h202c42 0 75 -36 75 -78c0 -43 -33 -78 -75 -78h-203v-9c0 -27 9 -54 30 -73c18 -16 44 -27 80 -27h146c42 0 75 -36 75 -78c0 -43 -33 -78 -75 -78h-149c-90 0 -168 27 -219 88
c-41 49 -65 119 -65 216v73c0 98 25 170 67 219c51 59 128 85 217 85h149c42 0 75 -36 75 -78zM326 765c-51 0 -92 41 -92 92s41 92 92 92s92 -41 92 -92s-41 -92 -92 -92z" />
    <glyph glyph-name="Edotaccent.2" unicode="&#xe066;" horiz-adv-x="669" 
d="M240 230v-74h325c42 0 75 -36 75 -78c0 -43 -33 -78 -75 -78h-413c-49 0 -88 38 -88 85v511c0 47 39 85 88 85h413c42 0 75 -36 75 -78c0 -43 -33 -78 -75 -78h-325v-139h256c42 0 75 -36 75 -78c0 -43 -33 -78 -75 -78h-256zM364 771c-51 0 -92 41 -92 92s41 92 92 92
s92 -41 92 -92s-41 -92 -92 -92z" />
    <glyph glyph-name="Edotaccent.3" unicode="&#xe067;" horiz-adv-x="730" 
d="M586 275h-352c12 -39 32 -69 60 -90c31 -24 71 -36 115 -36c42 0 70 6 92 14c37 13 57 30 89 30c45 0 77 -35 77 -82c0 -46 -36 -74 -82 -92c-60 -23 -132 -29 -179 -29c-127 0 -209 35 -269 93c-64 61 -100 154 -100 266c0 105 38 187 98 248c55 55 137 93 242 93
c111 0 186 -36 235 -86c65 -66 84 -139 84 -202c0 -90 -50 -127 -110 -127zM236 426h274c-4 28 -16 51 -33 68c-23 23 -56 33 -98 33s-79 -14 -106 -40c-16 -16 -29 -36 -37 -61zM385 771c-51 0 -92 41 -92 92s41 92 92 92s92 -41 92 -92s-41 -92 -92 -92z" />
    <glyph glyph-name="Egrave" unicode="&#xc8;" horiz-adv-x="639" 
d="M240 265v-109h295c42 0 75 -36 75 -78c0 -43 -33 -78 -75 -78h-383c-49 0 -88 38 -88 85v511c0 47 39 85 88 85h383c42 0 75 -36 75 -78c0 -43 -33 -78 -75 -78h-295v-104h242c42 0 75 -36 75 -78c0 -43 -33 -78 -75 -78h-242zM405 812c0 -29 -25 -51 -54 -51
c-22 0 -39 11 -51 33l-51 82c-11 18 -15 27 -15 41c0 33 30 59 63 59c29 0 46 -17 56 -39l42 -89c6 -12 10 -23 10 -36z" />
    <glyph glyph-name="Egrave.1" unicode="&#xe068;" horiz-adv-x="585" 
d="M403 812c0 -29 -25 -51 -54 -51c-22 0 -39 11 -51 33l-51 82c-11 18 -15 27 -15 41c0 33 30 59 63 59c29 0 46 -17 56 -39l42 -89c6 -12 10 -23 10 -36zM556 603c0 -43 -33 -78 -75 -78h-145c-42 0 -71 -13 -88 -33c-15 -17 -22 -39 -22 -62v-9h202c42 0 75 -36 75 -78
c0 -43 -33 -78 -75 -78h-203v-9c0 -27 9 -54 30 -73c18 -16 44 -27 80 -27h146c42 0 75 -36 75 -78c0 -43 -33 -78 -75 -78h-149c-90 0 -168 27 -219 88c-41 49 -65 119 -65 216v73c0 98 25 170 67 219c51 59 128 85 217 85h149c42 0 75 -36 75 -78z" />
    <glyph glyph-name="Egrave.2" unicode="&#xe069;" horiz-adv-x="669" 
d="M240 230v-74h325c42 0 75 -36 75 -78c0 -43 -33 -78 -75 -78h-413c-49 0 -88 38 -88 85v511c0 47 39 85 88 85h413c42 0 75 -36 75 -78c0 -43 -33 -78 -75 -78h-325v-139h256c42 0 75 -36 75 -78c0 -43 -33 -78 -75 -78h-256zM436 812c0 -29 -25 -51 -54 -51
c-22 0 -39 11 -51 33l-51 82c-11 18 -15 27 -15 41c0 33 30 59 63 59c29 0 46 -17 56 -39l42 -89c6 -12 10 -23 10 -36z" />
    <glyph glyph-name="Egrave.3" unicode="&#xe06a;" horiz-adv-x="730" 
d="M586 275h-352c12 -39 32 -69 60 -90c31 -24 71 -36 115 -36c42 0 70 6 92 14c37 13 57 30 89 30c45 0 77 -35 77 -82c0 -46 -36 -74 -82 -92c-60 -23 -132 -29 -179 -29c-127 0 -209 35 -269 93c-64 61 -100 154 -100 266c0 105 38 187 98 248c55 55 137 93 242 93
c111 0 186 -36 235 -86c65 -66 84 -139 84 -202c0 -90 -50 -127 -110 -127zM236 426h274c-4 28 -16 51 -33 68c-23 23 -56 33 -98 33s-79 -14 -106 -40c-16 -16 -29 -36 -37 -61zM475 812c0 -29 -25 -51 -54 -51c-22 0 -39 11 -51 33l-51 82c-11 18 -15 27 -15 41
c0 33 30 59 63 59c29 0 46 -17 56 -39l42 -89c6 -12 10 -23 10 -36z" />
    <glyph glyph-name="Emacron" unicode="&#x112;" horiz-adv-x="639" 
d="M463 865c0 -36 -29 -65 -65 -65h-170c-36 0 -65 29 -65 65c0 37 29 66 65 66h170c36 0 65 -29 65 -66zM240 265v-109h295c42 0 75 -36 75 -78c0 -43 -33 -78 -75 -78h-383c-49 0 -88 38 -88 85v511c0 47 39 85 88 85h383c42 0 75 -36 75 -78c0 -43 -33 -78 -75 -78h-295
v-104h242c42 0 75 -36 75 -78c0 -43 -33 -78 -75 -78h-242z" />
    <glyph glyph-name="Emacron.1" unicode="&#xe06b;" horiz-adv-x="585" 
d="M481 865c0 -36 -29 -65 -65 -65h-170c-36 0 -65 29 -65 65c0 37 29 66 65 66h170c36 0 65 -29 65 -66zM556 603c0 -43 -33 -78 -75 -78h-145c-42 0 -71 -13 -88 -33c-15 -17 -22 -39 -22 -62v-9h202c42 0 75 -36 75 -78c0 -43 -33 -78 -75 -78h-203v-9
c0 -27 9 -54 30 -73c18 -16 44 -27 80 -27h146c42 0 75 -36 75 -78c0 -43 -33 -78 -75 -78h-149c-90 0 -168 27 -219 88c-41 49 -65 119 -65 216v73c0 98 25 170 67 219c51 59 128 85 217 85h149c42 0 75 -36 75 -78z" />
    <glyph glyph-name="Emacron.2" unicode="&#xe06c;" horiz-adv-x="669" 
d="M240 230v-74h325c42 0 75 -36 75 -78c0 -43 -33 -78 -75 -78h-413c-49 0 -88 38 -88 85v511c0 47 39 85 88 85h413c42 0 75 -36 75 -78c0 -43 -33 -78 -75 -78h-325v-139h256c42 0 75 -36 75 -78c0 -43 -33 -78 -75 -78h-256zM505 865c0 -36 -29 -65 -65 -65h-170
c-36 0 -65 29 -65 65c0 37 29 66 65 66h170c36 0 65 -29 65 -66z" />
    <glyph glyph-name="Emacron.3" unicode="&#xe06d;" horiz-adv-x="730" 
d="M586 275h-352c12 -39 32 -69 60 -90c31 -24 71 -36 115 -36c42 0 70 6 92 14c37 13 57 30 89 30c45 0 77 -35 77 -82c0 -46 -36 -74 -82 -92c-60 -23 -132 -29 -179 -29c-127 0 -209 35 -269 93c-64 61 -100 154 -100 266c0 105 38 187 98 248c55 55 137 93 242 93
c111 0 186 -36 235 -86c65 -66 84 -139 84 -202c0 -90 -50 -127 -110 -127zM236 426h274c-4 28 -16 51 -33 68c-23 23 -56 33 -98 33s-79 -14 -106 -40c-16 -16 -29 -36 -37 -61zM533 865c0 -36 -29 -65 -65 -65h-170c-36 0 -65 29 -65 65c0 37 29 66 65 66h170
c36 0 65 -29 65 -66z" />
    <glyph glyph-name="Eogonek" unicode="&#x118;" horiz-adv-x="639" 
d="M240 265v-109h295c42 0 75 -36 75 -78c0 -43 -33 -78 -75 -78h-61c-7 -19 -10 -33 -10 -52c0 -27 11 -51 56 -51c13 0 28 5 46 5c30 0 44 -19 44 -45c0 -30 -13 -48 -45 -59c-19 -6 -40 -9 -58 -9c-95 0 -145 39 -145 116c0 28 9 59 26 95h-236c-49 0 -88 38 -88 85v511
c0 47 39 85 88 85h383c42 0 75 -36 75 -78c0 -43 -33 -78 -75 -78h-295v-104h242c42 0 75 -36 75 -78c0 -43 -33 -78 -75 -78h-242z" />
    <glyph glyph-name="Eogonek.1" unicode="&#xe06e;" horiz-adv-x="585" 
d="M556 603c0 -43 -33 -78 -75 -78h-145c-42 0 -71 -13 -88 -33c-15 -17 -22 -39 -22 -62v-9h202c42 0 75 -36 75 -78c0 -43 -33 -78 -75 -78h-203v-9c0 -27 9 -54 30 -73c18 -16 44 -27 80 -27h146c42 0 75 -36 75 -78c0 -43 -33 -78 -75 -78h-60c-5 -15 -11 -35 -11 -52
c0 -27 11 -51 56 -51c13 0 28 5 46 5c30 0 44 -19 44 -45c0 -30 -13 -48 -45 -59c-19 -6 -40 -9 -58 -9c-95 0 -145 39 -145 116c0 33 12 65 26 95h-2c-90 0 -168 27 -219 88c-41 49 -65 119 -65 216v73c0 98 25 170 67 219c51 59 128 85 217 85h149c42 0 75 -36 75 -78z
" />
    <glyph glyph-name="Eogonek.2" unicode="&#xe06f;" horiz-adv-x="669" 
d="M240 230v-74h325c42 0 75 -36 75 -78c0 -43 -33 -78 -75 -78h-61c-7 -19 -10 -33 -10 -52c0 -27 11 -51 56 -51c13 0 28 5 46 5c30 0 44 -19 44 -45c0 -30 -13 -48 -45 -59c-19 -6 -40 -9 -58 -9c-95 0 -145 39 -145 116c0 28 9 59 26 95h-266c-49 0 -88 38 -88 85v511
c0 47 39 85 88 85h413c42 0 75 -36 75 -78c0 -43 -33 -78 -75 -78h-325v-139h256c42 0 75 -36 75 -78c0 -43 -33 -78 -75 -78h-256z" />
    <glyph glyph-name="Eogonek.3" unicode="&#xe070;" horiz-adv-x="730" 
d="M586 275h-352c12 -39 32 -69 60 -90c31 -24 71 -36 115 -36c42 0 70 6 92 14c37 13 57 30 89 30c45 0 77 -35 77 -82c0 -46 -36 -74 -82 -92c-18 -7 -36 -13 -55 -17c-5 -17 -9 -36 -9 -54c0 -27 11 -51 56 -51c13 0 28 5 46 5c30 0 44 -19 44 -45c0 -30 -13 -48 -45 -59
c-19 -6 -40 -9 -58 -9c-95 0 -145 39 -145 116c0 28 7 57 17 86c-11 -1 -21 -1 -30 -1c-127 0 -209 35 -269 93c-64 61 -100 154 -100 266c0 105 38 187 98 248c55 55 137 93 242 93c111 0 186 -36 235 -86c65 -66 84 -139 84 -202c0 -90 -50 -127 -110 -127zM236 426h274
c-4 28 -16 51 -33 68c-23 23 -56 33 -98 33s-79 -14 -106 -40c-16 -16 -29 -36 -37 -61z" />
    <glyph glyph-name="Esmall" unicode="&#xf765;" horiz-adv-x="522" 
d="M223 202v-58h210c40 0 72 -29 72 -72s-32 -72 -72 -72h-291c-44 0 -81 35 -81 78v387c0 44 37 79 81 79h291c40 0 72 -29 72 -72s-32 -72 -72 -72h-210v-54h169c40 0 72 -29 72 -72s-32 -72 -72 -72h-169z" />
    <glyph glyph-name="Esmall.1" unicode="&#xe071;" horiz-adv-x="506" 
d="M99 477c41 48 103 69 174 69h144c40 0 72 -34 72 -74s-32 -72 -72 -72h-151c-20 0 -36 -3 -46 -13c-9 -9 -11 -18 -11 -31v-8h168c40 0 71 -34 71 -74s-31 -72 -71 -72h-169v-10c0 -14 4 -23 12 -31c11 -10 26 -15 47 -15h150c40 0 72 -33 72 -74c0 -40 -32 -72 -72 -72
h-144c-76 0 -141 24 -182 78c-29 39 -46 93 -46 163v64c0 77 19 133 54 172z" />
    <glyph glyph-name="Esmall.2" unicode="&#xe072;" horiz-adv-x="551" 
d="M223 196v-52h240c40 0 72 -29 72 -72s-32 -72 -72 -72h-321c-44 0 -81 35 -81 78v387c0 44 37 79 81 79h321c40 0 72 -29 72 -72s-32 -72 -72 -72h-240v-60h179c40 0 72 -29 72 -72s-32 -72 -72 -72h-179z" />
    <glyph glyph-name="Esmall.3" unicode="&#xe073;" horiz-adv-x="590" 
d="M331 138c30 0 51 4 69 10c28 10 45 22 70 22c41 0 70 -33 70 -74c0 -39 -26 -64 -77 -83c-47 -18 -101 -21 -136 -21c-100 0 -165 28 -213 74c-52 50 -80 123 -80 212c0 84 30 151 78 199c44 44 111 75 193 75c89 0 150 -30 190 -70c52 -53 67 -113 67 -163
c0 -77 -44 -106 -97 -106h-248c9 -22 19 -36 34 -49c22 -19 50 -26 80 -26zM218 340h176c-3 20 -12 37 -26 48c-15 12 -35 18 -60 18c-22 0 -43 -7 -60 -21c-13 -11 -24 -26 -30 -45z" />
    <glyph glyph-name="Esmallacute" unicode="&#xe074;" horiz-adv-x="522" 
d="M223 202v-58h210c40 0 72 -29 72 -72s-32 -72 -72 -72h-291c-44 0 -81 35 -81 78v387c0 44 37 79 81 79h291c40 0 72 -29 72 -72s-32 -72 -72 -72h-210v-54h169c40 0 72 -29 72 -72s-32 -72 -72 -72h-169zM207 672c0 13 4 24 10 36l42 89c10 22 27 39 56 39
c33 0 63 -26 63 -59c0 -14 -4 -23 -15 -41l-51 -82c-13 -21 -29 -33 -51 -33c-29 0 -54 22 -54 51z" />
    <glyph glyph-name="Esmallacute.1" unicode="&#xe075;" horiz-adv-x="506" 
d="M99 477c41 48 103 69 174 69h144c40 0 72 -34 72 -74s-32 -72 -72 -72h-151c-20 0 -36 -3 -46 -13c-9 -9 -11 -18 -11 -31v-8h168c40 0 71 -34 71 -74s-31 -72 -71 -72h-169v-10c0 -14 4 -23 12 -31c11 -10 26 -15 47 -15h150c40 0 72 -33 72 -74c0 -40 -32 -72 -72 -72
h-144c-76 0 -141 24 -182 78c-29 39 -46 93 -46 163v64c0 77 19 133 54 172zM219 672c0 13 4 24 10 36l42 89c10 22 27 39 56 39c33 0 63 -26 63 -59c0 -14 -4 -23 -15 -41l-51 -82c-13 -21 -29 -33 -51 -33c-29 0 -54 22 -54 51z" />
    <glyph glyph-name="Esmallacute.2" unicode="&#xe076;" horiz-adv-x="551" 
d="M223 196v-52h240c40 0 72 -29 72 -72s-32 -72 -72 -72h-321c-44 0 -81 35 -81 78v387c0 44 37 79 81 79h321c40 0 72 -29 72 -72s-32 -72 -72 -72h-240v-60h179c40 0 72 -29 72 -72s-32 -72 -72 -72h-179zM237 672c0 13 4 24 10 36l42 89c10 22 27 39 56 39
c33 0 63 -26 63 -59c0 -14 -4 -23 -15 -41l-51 -82c-13 -21 -29 -33 -51 -33c-29 0 -54 22 -54 51z" />
    <glyph glyph-name="Esmallacute.3" unicode="&#xe077;" horiz-adv-x="590" 
d="M331 138c30 0 51 4 69 10c28 10 45 22 70 22c41 0 70 -33 70 -74c0 -39 -26 -64 -77 -83c-47 -18 -101 -21 -136 -21c-100 0 -165 28 -213 74c-52 50 -80 123 -80 212c0 84 30 151 78 199c44 44 111 75 193 75c89 0 150 -30 190 -70c52 -53 67 -113 67 -163
c0 -77 -44 -106 -97 -106h-248c9 -22 19 -36 34 -49c22 -19 50 -26 80 -26zM218 340h176c-3 20 -12 37 -26 48c-15 12 -35 18 -60 18c-22 0 -43 -7 -60 -21c-13 -11 -24 -26 -30 -45zM217 672c0 13 4 24 10 36l42 89c10 22 27 39 56 39c33 0 63 -26 63 -59
c0 -14 -4 -23 -15 -41l-51 -82c-13 -21 -29 -33 -51 -33c-29 0 -54 22 -54 51z" />
    <glyph glyph-name="Esmallcaron" unicode="&#xe078;" horiz-adv-x="522" 
d="M223 202v-58h210c40 0 72 -29 72 -72s-32 -72 -72 -72h-291c-44 0 -81 35 -81 78v387c0 44 37 79 81 79h291c40 0 72 -29 72 -72s-32 -72 -72 -72h-210v-54h169c40 0 72 -29 72 -72s-32 -72 -72 -72h-169zM117 777c0 35 26 57 56 57c16 0 27 -5 39 -15l72 -65l72 65
c12 10 23 15 39 15c30 0 56 -22 56 -57c0 -17 -10 -33 -26 -47l-98 -88c-12 -10 -25 -18 -43 -18s-31 8 -43 18l-98 88c-16 14 -26 30 -26 47z" />
    <glyph glyph-name="Esmallcaron.1" unicode="&#xe079;" horiz-adv-x="506" 
d="M99 477c41 48 103 69 174 69h144c40 0 72 -34 72 -74s-32 -72 -72 -72h-151c-20 0 -36 -3 -46 -13c-9 -9 -11 -18 -11 -31v-8h168c40 0 71 -34 71 -74s-31 -72 -71 -72h-169v-10c0 -14 4 -23 12 -31c11 -10 26 -15 47 -15h150c40 0 72 -33 72 -74c0 -40 -32 -72 -72 -72
h-144c-76 0 -141 24 -182 78c-29 39 -46 93 -46 163v64c0 77 19 133 54 172zM119 777c0 35 26 57 56 57c16 0 27 -5 39 -15l72 -65l72 65c12 10 23 15 39 15c30 0 56 -22 56 -57c0 -17 -10 -33 -26 -47l-98 -88c-12 -10 -25 -18 -43 -18s-31 8 -43 18l-98 88
c-16 14 -26 30 -26 47z" />
    <glyph glyph-name="Esmallcaron.2" unicode="&#xe07a;" horiz-adv-x="551" 
d="M223 196v-52h240c40 0 72 -29 72 -72s-32 -72 -72 -72h-321c-44 0 -81 35 -81 78v387c0 44 37 79 81 79h321c40 0 72 -29 72 -72s-32 -72 -72 -72h-240v-60h179c40 0 72 -29 72 -72s-32 -72 -72 -72h-179zM128 777c0 35 26 57 56 57c16 0 27 -5 39 -15l72 -65l72 65
c12 10 23 15 39 15c30 0 56 -22 56 -57c0 -17 -10 -33 -26 -47l-98 -88c-12 -10 -25 -18 -43 -18s-31 8 -43 18l-98 88c-16 14 -26 30 -26 47z" />
    <glyph glyph-name="Esmallcaron.3" unicode="&#xe07b;" horiz-adv-x="590" 
d="M331 138c30 0 51 4 69 10c28 10 45 22 70 22c41 0 70 -33 70 -74c0 -39 -26 -64 -77 -83c-47 -18 -101 -21 -136 -21c-100 0 -165 28 -213 74c-52 50 -80 123 -80 212c0 84 30 151 78 199c44 44 111 75 193 75c89 0 150 -30 190 -70c52 -53 67 -113 67 -163
c0 -77 -44 -106 -97 -106h-248c9 -22 19 -36 34 -49c22 -19 50 -26 80 -26zM218 340h176c-3 20 -12 37 -26 48c-15 12 -35 18 -60 18c-22 0 -43 -7 -60 -21c-13 -11 -24 -26 -30 -45zM143 777c0 35 26 57 56 57c16 0 27 -5 39 -15l72 -65l72 65c12 10 23 15 39 15
c30 0 56 -22 56 -57c0 -17 -10 -33 -26 -47l-98 -88c-12 -10 -25 -18 -43 -18s-31 8 -43 18l-98 88c-16 14 -26 30 -26 47z" />
    <glyph glyph-name="Esmallcircumflex" unicode="&#xe07c;" horiz-adv-x="522" 
d="M223 202v-58h210c40 0 72 -29 72 -72s-32 -72 -72 -72h-291c-44 0 -81 35 -81 78v387c0 44 37 79 81 79h291c40 0 72 -29 72 -72s-32 -72 -72 -72h-210v-54h169c40 0 72 -29 72 -72s-32 -72 -72 -72h-169zM284 834c18 0 31 -8 43 -18l98 -88c16 -14 26 -30 26 -47
c0 -35 -26 -57 -56 -57c-16 0 -27 5 -39 15l-72 65l-72 -65c-12 -10 -23 -15 -39 -15c-30 0 -56 22 -56 57c0 17 10 33 26 47l98 88c12 10 25 18 43 18z" />
    <glyph glyph-name="Esmallcircumflex.1" unicode="&#xe07d;" horiz-adv-x="506" 
d="M99 477c41 48 103 69 174 69h144c40 0 72 -34 72 -74s-32 -72 -72 -72h-151c-20 0 -36 -3 -46 -13c-9 -9 -11 -18 -11 -31v-8h168c40 0 71 -34 71 -74s-31 -72 -71 -72h-169v-10c0 -14 4 -23 12 -31c11 -10 26 -15 47 -15h150c40 0 72 -33 72 -74c0 -40 -32 -72 -72 -72
h-144c-76 0 -141 24 -182 78c-29 39 -46 93 -46 163v64c0 77 19 133 54 172zM285 834c18 0 31 -8 43 -18l98 -88c16 -14 26 -30 26 -47c0 -35 -26 -57 -56 -57c-16 0 -27 5 -39 15l-72 65l-72 -65c-12 -10 -23 -15 -39 -15c-30 0 -56 22 -56 57c0 17 10 33 26 47l98 88
c12 10 25 18 43 18z" />
    <glyph glyph-name="Esmallcircumflex.2" unicode="&#xe07e;" horiz-adv-x="551" 
d="M223 196v-52h240c40 0 72 -29 72 -72s-32 -72 -72 -72h-321c-44 0 -81 35 -81 78v387c0 44 37 79 81 79h321c40 0 72 -29 72 -72s-32 -72 -72 -72h-240v-60h179c40 0 72 -29 72 -72s-32 -72 -72 -72h-179zM302 834c18 0 31 -8 43 -18l98 -88c16 -14 26 -30 26 -47
c0 -35 -26 -57 -56 -57c-16 0 -27 5 -39 15l-72 65l-72 -65c-12 -10 -23 -15 -39 -15c-30 0 -56 22 -56 57c0 17 10 33 26 47l98 88c12 10 25 18 43 18z" />
    <glyph glyph-name="Esmallcircumflex.3" unicode="&#xe07f;" horiz-adv-x="590" 
d="M331 138c30 0 51 4 69 10c28 10 45 22 70 22c41 0 70 -33 70 -74c0 -39 -26 -64 -77 -83c-47 -18 -101 -21 -136 -21c-100 0 -165 28 -213 74c-52 50 -80 123 -80 212c0 84 30 151 78 199c44 44 111 75 193 75c89 0 150 -30 190 -70c52 -53 67 -113 67 -163
c0 -77 -44 -106 -97 -106h-248c9 -22 19 -36 34 -49c22 -19 50 -26 80 -26zM218 340h176c-3 20 -12 37 -26 48c-15 12 -35 18 -60 18c-22 0 -43 -7 -60 -21c-13 -11 -24 -26 -30 -45zM312 834c18 0 31 -8 43 -18l98 -88c16 -14 26 -30 26 -47c0 -35 -26 -57 -56 -57
c-16 0 -27 5 -39 15l-72 65l-72 -65c-12 -10 -23 -15 -39 -15c-30 0 -56 22 -56 57c0 17 10 33 26 47l98 88c12 10 25 18 43 18z" />
    <glyph glyph-name="Esmalldieresis" unicode="&#xe080;" horiz-adv-x="522" 
d="M223 202v-58h210c40 0 72 -29 72 -72s-32 -72 -72 -72h-291c-44 0 -81 35 -81 78v387c0 44 37 79 81 79h291c40 0 72 -29 72 -72s-32 -72 -72 -72h-210v-54h169c40 0 72 -29 72 -72s-32 -72 -72 -72h-169zM152 625c-51 0 -92 42 -92 93s41 92 92 92c52 0 93 -41 93 -92
s-41 -93 -93 -93zM406 625c-51 0 -92 42 -92 93s41 92 92 92s92 -41 92 -92s-41 -93 -92 -93z" />
    <glyph glyph-name="Esmalldieresis.1" unicode="&#xe081;" horiz-adv-x="506" 
d="M99 477c41 48 103 69 174 69h144c40 0 72 -34 72 -74s-32 -72 -72 -72h-151c-20 0 -36 -3 -46 -13c-9 -9 -11 -18 -11 -31v-8h168c40 0 71 -34 71 -74s-31 -72 -71 -72h-169v-10c0 -14 4 -23 12 -31c11 -10 26 -15 47 -15h150c40 0 72 -33 72 -74c0 -40 -32 -72 -72 -72
h-144c-76 0 -141 24 -182 78c-29 39 -46 93 -46 163v64c0 77 19 133 54 172zM139 625c-51 0 -92 42 -92 93s41 92 92 92c52 0 93 -41 93 -92s-41 -93 -93 -93zM393 625c-51 0 -92 42 -92 93s41 92 92 92s92 -41 92 -92s-41 -93 -92 -93z" />
    <glyph glyph-name="Esmalldieresis.2" unicode="&#xe082;" horiz-adv-x="551" 
d="M223 196v-52h240c40 0 72 -29 72 -72s-32 -72 -72 -72h-321c-44 0 -81 35 -81 78v387c0 44 37 79 81 79h321c40 0 72 -29 72 -72s-32 -72 -72 -72h-240v-60h179c40 0 72 -29 72 -72s-32 -72 -72 -72h-179zM164 625c-51 0 -92 42 -92 93s41 92 92 92c52 0 93 -41 93 -92
s-41 -93 -93 -93zM418 625c-51 0 -92 42 -92 93s41 92 92 92s92 -41 92 -92s-41 -93 -92 -93z" />
    <glyph glyph-name="Esmalldieresis.3" unicode="&#xe083;" horiz-adv-x="590" 
d="M331 138c30 0 51 4 69 10c28 10 45 22 70 22c41 0 70 -33 70 -74c0 -39 -26 -64 -77 -83c-47 -18 -101 -21 -136 -21c-100 0 -165 28 -213 74c-52 50 -80 123 -80 212c0 84 30 151 78 199c44 44 111 75 193 75c89 0 150 -30 190 -70c52 -53 67 -113 67 -163
c0 -77 -44 -106 -97 -106h-248c9 -22 19 -36 34 -49c22 -19 50 -26 80 -26zM218 340h176c-3 20 -12 37 -26 48c-15 12 -35 18 -60 18c-22 0 -43 -7 -60 -21c-13 -11 -24 -26 -30 -45zM178 625c-51 0 -92 42 -92 93s41 92 92 92c52 0 93 -41 93 -92s-41 -93 -93 -93zM432 625
c-51 0 -92 42 -92 93s41 92 92 92s92 -41 92 -92s-41 -93 -92 -93z" />
    <glyph glyph-name="Esmalldotaccent" unicode="&#xe084;" horiz-adv-x="522" 
d="M223 202v-58h210c40 0 72 -29 72 -72s-32 -72 -72 -72h-291c-44 0 -81 35 -81 78v387c0 44 37 79 81 79h291c40 0 72 -29 72 -72s-32 -72 -72 -72h-210v-54h169c40 0 72 -29 72 -72s-32 -72 -72 -72h-169zM289 626c-51 0 -92 41 -92 92s41 92 92 92s92 -41 92 -92
s-41 -92 -92 -92z" />
    <glyph glyph-name="Esmalldotaccent.1" unicode="&#xe085;" horiz-adv-x="506" 
d="M99 477c41 48 103 69 174 69h144c40 0 72 -34 72 -74s-32 -72 -72 -72h-151c-20 0 -36 -3 -46 -13c-9 -9 -11 -18 -11 -31v-8h168c40 0 71 -34 71 -74s-31 -72 -71 -72h-169v-10c0 -14 4 -23 12 -31c11 -10 26 -15 47 -15h150c40 0 72 -33 72 -74c0 -40 -32 -72 -72 -72
h-144c-76 0 -141 24 -182 78c-29 39 -46 93 -46 163v64c0 77 19 133 54 172zM288 626c-51 0 -92 41 -92 92s41 92 92 92s92 -41 92 -92s-41 -92 -92 -92z" />
    <glyph glyph-name="Esmalldotaccent.2" unicode="&#xe086;" horiz-adv-x="551" 
d="M223 196v-52h240c40 0 72 -29 72 -72s-32 -72 -72 -72h-321c-44 0 -81 35 -81 78v387c0 44 37 79 81 79h321c40 0 72 -29 72 -72s-32 -72 -72 -72h-240v-60h179c40 0 72 -29 72 -72s-32 -72 -72 -72h-179zM299 626c-51 0 -92 41 -92 92s41 92 92 92s92 -41 92 -92
s-41 -92 -92 -92z" />
    <glyph glyph-name="Esmalldotaccent.3" unicode="&#xe087;" horiz-adv-x="590" 
d="M331 138c30 0 51 4 69 10c28 10 45 22 70 22c41 0 70 -33 70 -74c0 -39 -26 -64 -77 -83c-47 -18 -101 -21 -136 -21c-100 0 -165 28 -213 74c-52 50 -80 123 -80 212c0 84 30 151 78 199c44 44 111 75 193 75c89 0 150 -30 190 -70c52 -53 67 -113 67 -163
c0 -77 -44 -106 -97 -106h-248c9 -22 19 -36 34 -49c22 -19 50 -26 80 -26zM218 340h176c-3 20 -12 37 -26 48c-15 12 -35 18 -60 18c-22 0 -43 -7 -60 -21c-13 -11 -24 -26 -30 -45zM308 626c-51 0 -92 41 -92 92s41 92 92 92s92 -41 92 -92s-41 -92 -92 -92z" />
    <glyph glyph-name="Esmallgrave" unicode="&#xe088;" horiz-adv-x="522" 
d="M223 202v-58h210c40 0 72 -29 72 -72s-32 -72 -72 -72h-291c-44 0 -81 35 -81 78v387c0 44 37 79 81 79h291c40 0 72 -29 72 -72s-32 -72 -72 -72h-210v-54h169c40 0 72 -29 72 -72s-32 -72 -72 -72h-169zM358 672c0 -29 -25 -51 -54 -51c-22 0 -39 11 -51 33l-51 82
c-11 18 -15 27 -15 41c0 33 30 59 63 59c29 0 46 -17 56 -39l42 -89c6 -12 10 -23 10 -36z" />
    <glyph glyph-name="Esmallgrave.1" unicode="&#xe089;" horiz-adv-x="506" 
d="M99 477c41 48 103 69 174 69h144c40 0 72 -34 72 -74s-32 -72 -72 -72h-151c-20 0 -36 -3 -46 -13c-9 -9 -11 -18 -11 -31v-8h168c40 0 71 -34 71 -74s-31 -72 -71 -72h-169v-10c0 -14 4 -23 12 -31c11 -10 26 -15 47 -15h150c40 0 72 -33 72 -74c0 -40 -32 -72 -72 -72
h-144c-76 0 -141 24 -182 78c-29 39 -46 93 -46 163v64c0 77 19 133 54 172zM364 672c0 -29 -25 -51 -54 -51c-22 0 -39 11 -51 33l-51 82c-11 18 -15 27 -15 41c0 33 30 59 63 59c29 0 46 -17 56 -39l42 -89c6 -12 10 -23 10 -36z" />
    <glyph glyph-name="Esmallgrave.2" unicode="&#xe08a;" horiz-adv-x="551" 
d="M223 196v-52h240c40 0 72 -29 72 -72s-32 -72 -72 -72h-321c-44 0 -81 35 -81 78v387c0 44 37 79 81 79h321c40 0 72 -29 72 -72s-32 -72 -72 -72h-240v-60h179c40 0 72 -29 72 -72s-32 -72 -72 -72h-179zM378 672c0 -29 -25 -51 -54 -51c-22 0 -39 11 -51 33l-51 82
c-11 18 -15 27 -15 41c0 33 30 59 63 59c29 0 46 -17 56 -39l42 -89c6 -12 10 -23 10 -36z" />
    <glyph glyph-name="Esmallgrave.3" unicode="&#xe08b;" horiz-adv-x="590" 
d="M331 138c30 0 51 4 69 10c28 10 45 22 70 22c41 0 70 -33 70 -74c0 -39 -26 -64 -77 -83c-47 -18 -101 -21 -136 -21c-100 0 -165 28 -213 74c-52 50 -80 123 -80 212c0 84 30 151 78 199c44 44 111 75 193 75c89 0 150 -30 190 -70c52 -53 67 -113 67 -163
c0 -77 -44 -106 -97 -106h-248c9 -22 19 -36 34 -49c22 -19 50 -26 80 -26zM218 340h176c-3 20 -12 37 -26 48c-15 12 -35 18 -60 18c-22 0 -43 -7 -60 -21c-13 -11 -24 -26 -30 -45zM398 672c0 -29 -25 -51 -54 -51c-22 0 -39 11 -51 33l-51 82c-11 18 -15 27 -15 41
c0 33 30 59 63 59c29 0 46 -17 56 -39l42 -89c6 -12 10 -23 10 -36z" />
    <glyph glyph-name="Esmallmacron" unicode="&#xe08c;" horiz-adv-x="522" 
d="M223 202v-58h210c40 0 72 -29 72 -72s-32 -72 -72 -72h-291c-44 0 -81 35 -81 78v387c0 44 37 79 81 79h291c40 0 72 -29 72 -72s-32 -72 -72 -72h-210v-54h169c40 0 72 -29 72 -72s-32 -72 -72 -72h-169zM432 702c0 -36 -29 -65 -65 -65h-170c-36 0 -65 29 -65 65
c0 37 29 66 65 66h170c36 0 65 -29 65 -66z" />
    <glyph glyph-name="Esmallmacron.1" unicode="&#xe08d;" horiz-adv-x="506" 
d="M99 477c41 48 103 69 174 69h144c40 0 72 -34 72 -74s-32 -72 -72 -72h-151c-20 0 -36 -3 -46 -13c-9 -9 -11 -18 -11 -31v-8h168c40 0 71 -34 71 -74s-31 -72 -71 -72h-169v-10c0 -14 4 -23 12 -31c11 -10 26 -15 47 -15h150c40 0 72 -33 72 -74c0 -40 -32 -72 -72 -72
h-144c-76 0 -141 24 -182 78c-29 39 -46 93 -46 163v64c0 77 19 133 54 172zM433 702c0 -36 -29 -65 -65 -65h-170c-36 0 -65 29 -65 65c0 37 29 66 65 66h170c36 0 65 -29 65 -66z" />
    <glyph glyph-name="Esmallmacron.2" unicode="&#xe08e;" horiz-adv-x="551" 
d="M223 196v-52h240c40 0 72 -29 72 -72s-32 -72 -72 -72h-321c-44 0 -81 35 -81 78v387c0 44 37 79 81 79h321c40 0 72 -29 72 -72s-32 -72 -72 -72h-240v-60h179c40 0 72 -29 72 -72s-32 -72 -72 -72h-179zM443 702c0 -36 -29 -65 -65 -65h-170c-36 0 -65 29 -65 65
c0 37 29 66 65 66h170c36 0 65 -29 65 -66z" />
    <glyph glyph-name="Esmallmacron.3" unicode="&#xe08f;" horiz-adv-x="590" 
d="M331 138c30 0 51 4 69 10c28 10 45 22 70 22c41 0 70 -33 70 -74c0 -39 -26 -64 -77 -83c-47 -18 -101 -21 -136 -21c-100 0 -165 28 -213 74c-52 50 -80 123 -80 212c0 84 30 151 78 199c44 44 111 75 193 75c89 0 150 -30 190 -70c52 -53 67 -113 67 -163
c0 -77 -44 -106 -97 -106h-248c9 -22 19 -36 34 -49c22 -19 50 -26 80 -26zM218 340h176c-3 20 -12 37 -26 48c-15 12 -35 18 -60 18c-22 0 -43 -7 -60 -21c-13 -11 -24 -26 -30 -45zM459 702c0 -36 -29 -65 -65 -65h-170c-36 0 -65 29 -65 65c0 37 29 66 65 66h170
c36 0 65 -29 65 -66z" />
    <glyph glyph-name="Esmallogonek" unicode="&#xe090;" horiz-adv-x="522" 
d="M223 202v-58h210c40 0 72 -29 72 -72s-32 -72 -72 -72h-66c-7 -19 -10 -33 -10 -52c0 -27 11 -51 56 -51c13 0 28 5 46 5c30 0 44 -19 44 -45c0 -30 -13 -48 -45 -59c-19 -6 -40 -9 -58 -9c-95 0 -145 39 -145 116c0 28 9 59 26 95h-139c-44 0 -81 35 -81 78v387
c0 44 37 79 81 79h291c40 0 72 -29 72 -72s-32 -72 -72 -72h-210v-54h169c40 0 72 -29 72 -72s-32 -72 -72 -72h-169z" />
    <glyph glyph-name="Esmallogonek.1" unicode="&#xe091;" horiz-adv-x="506" 
d="M99 477c41 48 103 69 174 69h144c40 0 72 -34 72 -74s-32 -72 -72 -72h-151c-20 0 -36 -3 -46 -13c-9 -9 -11 -18 -11 -31v-8h168c40 0 71 -34 71 -74s-31 -72 -71 -72h-169v-10c0 -14 4 -23 12 -31c11 -10 26 -15 47 -15h150c40 0 72 -33 72 -74c0 -40 -32 -72 -72 -72
h-66c-7 -19 -10 -33 -10 -52c0 -27 11 -51 56 -51c13 0 28 5 46 5c30 0 44 -19 44 -45c0 -30 -13 -48 -45 -59c-19 -6 -40 -9 -58 -9c-95 0 -145 39 -145 116c0 28 9 59 26 95c-73 1 -135 26 -174 78c-29 39 -46 93 -46 163v64c0 77 19 133 54 172z" />
    <glyph glyph-name="Esmallogonek.2" unicode="&#xe092;" horiz-adv-x="551" 
d="M223 196v-52h240c40 0 72 -29 72 -72s-32 -72 -72 -72h-68c-7 -19 -10 -33 -10 -52c0 -27 11 -51 56 -51c13 0 28 5 46 5c30 0 44 -19 44 -45c0 -30 -13 -48 -45 -59c-19 -6 -40 -9 -58 -9c-95 0 -145 39 -145 116c0 28 9 59 26 95h-167c-44 0 -81 35 -81 78v387
c0 44 37 79 81 79h321c40 0 72 -29 72 -72s-32 -72 -72 -72h-240v-60h179c40 0 72 -29 72 -72s-32 -72 -72 -72h-179z" />
    <glyph glyph-name="Esmallogonek.3" unicode="&#xe093;" horiz-adv-x="590" 
d="M331 138c30 0 51 4 69 10c28 10 45 22 70 22c41 0 70 -33 70 -74c0 -39 -26 -64 -77 -83c-20 -8 -40 -13 -60 -15c-6 -18 -9 -32 -9 -50c0 -27 11 -51 56 -51c13 0 28 5 46 5c30 0 44 -19 44 -45c0 -30 -13 -48 -45 -59c-19 -6 -40 -9 -58 -9c-95 0 -145 39 -145 116
c0 26 8 54 23 87c-93 2 -155 30 -201 74c-52 50 -80 123 -80 212c0 84 30 151 78 199c44 44 111 75 193 75c89 0 150 -30 190 -70c52 -53 67 -113 67 -163c0 -77 -44 -106 -97 -106h-248c9 -22 19 -36 34 -49c22 -19 50 -26 80 -26zM218 340h176c-3 20 -12 37 -26 48
c-15 12 -35 18 -60 18c-22 0 -43 -7 -60 -21c-13 -11 -24 -26 -30 -45z" />
    <glyph glyph-name="Eth" unicode="&#xd0;" horiz-adv-x="757" 
d="M316 265h-63v-117h79c55 0 103 10 139 35c43 29 69 79 69 158c0 63 -17 108 -46 138c-37 38 -94 54 -162 54h-79v-116h63c40 0 73 -36 73 -76c0 -42 -33 -76 -73 -76zM77 85v180h-23c-41 0 -74 34 -74 76c0 40 33 76 74 76h23v179c0 47 39 85 88 85h192
c100 0 196 -16 279 -102c50 -52 84 -129 84 -238c0 -110 -34 -187 -84 -239c-83 -86 -193 -102 -292 -102h-179c-49 0 -88 38 -88 85z" />
    <glyph glyph-name="Euro" unicode="&#x20ac;" 
d="M23 314h19c-1 9 -1 18 -1 28c0 7 0 15 1 22h-19c-23 0 -42 19 -42 43s19 45 42 45h34c50 154 201 239 343 239c59 0 100 -7 143 -22c38 -13 63 -39 63 -78c0 -48 -36 -83 -80 -83c-20 0 -38 9 -64 17c-17 5 -38 8 -67 8c-51 0 -112 -26 -147 -81h212c23 0 43 -21 43 -45
s-20 -43 -43 -43h-241c-1 -7 -1 -15 -1 -22c0 -10 0 -19 1 -28h191c23 0 43 -21 43 -45s-20 -43 -43 -43h-160c35 -51 92 -75 145 -75c29 0 51 3 70 8c32 8 57 19 78 19c44 0 75 -33 75 -82c0 -40 -30 -66 -65 -79c-43 -16 -97 -26 -156 -26c-161 0 -295 83 -340 235h-34
c-23 0 -42 19 -42 43s19 45 42 45z" />
    <glyph glyph-name="F" unicode="F" horiz-adv-x="587" 
d="M152 681h353c42 0 76 -36 76 -78c0 -43 -34 -78 -76 -78h-265v-104h222c42 0 76 -36 76 -78c0 -43 -34 -78 -76 -78h-222v-190c0 -47 -41 -85 -88 -85c-48 0 -88 38 -88 85v521c0 47 40 85 88 85z" />
    <glyph glyph-name="F.1" unicode="&#xe094;" horiz-adv-x="542" 
d="M536 603c0 -48 -36 -78 -81 -78h-121c-39 0 -68 -11 -86 -29c-18 -19 -22 -42 -22 -67v-8h176c45 0 81 -30 81 -78s-36 -78 -81 -78h-178v-190c0 -47 -41 -85 -88 -85c-48 0 -88 38 -88 85v302c0 106 28 183 76 232c51 52 125 72 208 72h123c45 0 81 -30 81 -78z" />
    <glyph glyph-name="F.2" unicode="&#xe095;" horiz-adv-x="617" 
d="M152 681h383c42 0 76 -36 76 -78c0 -43 -34 -78 -76 -78h-295v-139h242c42 0 76 -36 76 -78c0 -43 -34 -78 -76 -78h-242v-155c0 -47 -41 -85 -88 -85c-48 0 -88 38 -88 85v521c0 47 40 85 88 85z" />
    <glyph glyph-name="Fsmall" unicode="&#xf766;" horiz-adv-x="489" 
d="M142 544h268c40 0 72 -29 72 -72s-32 -72 -72 -72h-187v-54h155c40 0 72 -29 72 -72s-32 -72 -72 -72h-155v-132c0 -43 -37 -78 -81 -78s-81 35 -81 78v395c0 44 37 79 81 79z" />
    <glyph glyph-name="Fsmall.1" unicode="&#xe096;" horiz-adv-x="473" 
d="M45 70v235c0 77 19 133 54 172c41 48 103 69 174 69h121c40 0 72 -34 72 -74s-32 -72 -72 -72h-128c-20 0 -36 -3 -46 -13c-9 -9 -11 -18 -11 -31v-8h154c40 0 71 -34 71 -74s-31 -72 -71 -72h-156v-132c0 -43 -37 -78 -81 -78s-81 35 -81 78z" />
    <glyph glyph-name="Fsmall.2" unicode="&#xe097;" horiz-adv-x="519" 
d="M142 544h298c40 0 72 -29 72 -72s-32 -72 -72 -72h-217v-60h165c40 0 72 -29 72 -72s-32 -72 -72 -72h-165v-126c0 -43 -37 -78 -81 -78s-81 35 -81 78v395c0 44 37 79 81 79z" />
    <glyph glyph-name="G" unicode="G" horiz-adv-x="754" 
d="M462 383h150c53 0 79 -36 79 -85v-223c0 -47 -33 -85 -86 -85c-32 0 -56 12 -70 31c-34 -15 -83 -31 -145 -31c-205 0 -353 122 -353 351c0 201 165 349 370 349c61 0 103 -7 148 -21c36 -11 65 -38 65 -79c0 -48 -37 -82 -82 -82c-23 0 -41 8 -68 15c-18 5 -40 8 -68 8
c-102 0 -182 -81 -182 -190c0 -110 70 -194 182 -194c50 0 88 11 116 23v57h-56c-41 0 -75 35 -75 78c0 42 34 78 75 78z" />
    <glyph glyph-name="G.2" unicode="&#xe098;" horiz-adv-x="775" 
d="M460 383h208c41 0 77 -25 77 -82c0 -86 -31 -164 -88 -220c-58 -56 -143 -91 -252 -91c-214 0 -368 122 -368 351c0 209 168 349 381 349c64 0 111 -7 158 -21c38 -11 68 -38 68 -79c0 -48 -37 -82 -85 -82c-25 0 -44 8 -73 15c-19 5 -42 8 -72 8
c-108 0 -193 -78 -193 -190c0 -109 71 -193 191 -193c33 0 61 6 85 18c27 13 47 34 59 61h-96c-41 0 -75 35 -75 78c0 42 34 78 75 78z" />
    <glyph glyph-name="Gbreve" unicode="&#x11e;" horiz-adv-x="754" 
d="M462 383h150c53 0 79 -36 79 -85v-223c0 -47 -33 -85 -86 -85c-32 0 -56 12 -70 31c-34 -15 -83 -31 -145 -31c-205 0 -353 122 -353 351c0 201 165 349 370 349c61 0 103 -7 148 -21c36 -11 65 -38 65 -79c0 -48 -37 -82 -82 -82c-23 0 -41 8 -68 15c-18 5 -40 8 -68 8
c-102 0 -182 -81 -182 -190c0 -110 70 -194 182 -194c50 0 88 11 116 23v57h-56c-41 0 -75 35 -75 78c0 42 34 78 75 78zM375 887c13 0 36 2 57 34c13 20 27 40 55 40c32 0 58 -24 58 -55c0 -29 -24 -59 -44 -81c-35 -37 -81 -52 -126 -52s-91 15 -126 52
c-20 22 -44 52 -44 81c0 31 26 55 58 55c28 0 42 -20 55 -40c21 -32 44 -34 57 -34z" />
    <glyph glyph-name="Gbreve.2" unicode="&#xe099;" horiz-adv-x="775" 
d="M460 383h208c41 0 77 -25 77 -82c0 -86 -31 -164 -88 -220c-58 -56 -143 -91 -252 -91c-214 0 -368 122 -368 351c0 209 168 349 381 349c64 0 111 -7 158 -21c38 -11 68 -38 68 -79c0 -48 -37 -82 -85 -82c-25 0 -44 8 -73 15c-19 5 -42 8 -72 8
c-108 0 -193 -78 -193 -190c0 -109 71 -193 191 -193c33 0 61 6 85 18c27 13 47 34 59 61h-96c-41 0 -75 35 -75 78c0 42 34 78 75 78zM397 887c13 0 36 2 57 34c13 20 27 40 55 40c32 0 58 -24 58 -55c0 -29 -24 -59 -44 -81c-35 -37 -81 -52 -126 -52s-91 15 -126 52
c-20 22 -44 52 -44 81c0 31 26 55 58 55c28 0 42 -20 55 -40c21 -32 44 -34 57 -34z" />
    <glyph glyph-name="Gcommaaccent" unicode="&#x122;" horiz-adv-x="754" 
d="M462 383h150c53 0 79 -36 79 -85v-223c0 -47 -33 -85 -86 -85c-32 0 -56 12 -70 31c-34 -15 -83 -31 -145 -31c-205 0 -353 122 -353 351c0 201 165 349 370 349c61 0 103 -7 148 -21c36 -11 65 -38 65 -79c0 -48 -37 -82 -82 -82c-23 0 -41 8 -68 15c-18 5 -40 8 -68 8
c-102 0 -182 -81 -182 -190c0 -110 70 -194 182 -194c50 0 88 11 116 23v57h-56c-41 0 -75 35 -75 78c0 42 34 78 75 78zM297 -366c0 40 70 49 70 100c0 47 -74 35 -74 117c0 47 31 92 99 92c73 0 116 -53 116 -133c0 -129 -128 -205 -181 -205c-18 0 -30 13 -30 29z" />
    <glyph glyph-name="Gcommaaccent.2" unicode="&#xe09a;" horiz-adv-x="775" 
d="M460 383h208c41 0 77 -25 77 -82c0 -86 -31 -164 -88 -220c-58 -56 -143 -91 -252 -91c-214 0 -368 122 -368 351c0 209 168 349 381 349c64 0 111 -7 158 -21c38 -11 68 -38 68 -79c0 -48 -37 -82 -85 -82c-25 0 -44 8 -73 15c-19 5 -42 8 -72 8
c-108 0 -193 -78 -193 -190c0 -109 71 -193 191 -193c33 0 61 6 85 18c27 13 47 34 59 61h-96c-41 0 -75 35 -75 78c0 42 34 78 75 78zM306 -366c0 40 70 49 70 100c0 47 -74 35 -74 117c0 47 31 92 99 92c73 0 116 -53 116 -133c0 -129 -128 -205 -181 -205
c-18 0 -30 13 -30 29z" />
    <glyph glyph-name="Gsmall" unicode="&#xf767;" horiz-adv-x="609" 
d="M331 552c45 0 89 -6 122 -20s54 -36 54 -70c0 -43 -33 -76 -75 -76c-20 0 -35 6 -55 12c-14 4 -29 7 -49 7c-37 0 -72 -17 -95 -44c-19 -23 -31 -53 -31 -88c0 -40 14 -77 38 -100c22 -22 53 -33 88 -33c24 0 52 6 72 15v19h-28c-40 0 -72 29 -72 72s32 72 72 72h107
c47 0 81 -28 81 -77v-172c0 -48 -37 -77 -81 -77c-22 0 -42 8 -57 21c-33 -13 -60 -21 -99 -21c-85 0 -155 23 -207 71c-53 49 -82 122 -82 210c0 74 29 138 76 187c55 57 135 92 221 92z" />
    <glyph glyph-name="Gsmall.2" unicode="&#xe09b;" horiz-adv-x="631" 
d="M339 552c50 0 87 -6 124 -17c33 -9 62 -34 62 -72c0 -45 -34 -76 -78 -76c-23 0 -38 5 -57 10c-15 4 -32 8 -55 8c-75 0 -134 -55 -134 -133c0 -77 50 -135 134 -135c20 0 38 3 53 9c17 7 27 16 36 28h-52c-40 0 -72 29 -72 72s32 72 72 72h158c40 0 72 -24 72 -76
c0 -79 -32 -149 -90 -195c-45 -36 -107 -57 -183 -57c-172 0 -295 99 -295 282c0 168 135 280 305 280z" />
    <glyph glyph-name="Gsmallbreve" unicode="&#xe09c;" horiz-adv-x="609" 
d="M331 552c45 0 89 -6 122 -20s54 -36 54 -70c0 -43 -33 -76 -75 -76c-20 0 -35 6 -55 12c-14 4 -29 7 -49 7c-37 0 -72 -17 -95 -44c-19 -23 -31 -53 -31 -88c0 -40 14 -77 38 -100c22 -22 53 -33 88 -33c24 0 52 6 72 15v19h-28c-40 0 -72 29 -72 72s32 72 72 72h107
c47 0 81 -28 81 -77v-172c0 -48 -37 -77 -81 -77c-22 0 -42 8 -57 21c-33 -13 -60 -21 -99 -21c-85 0 -155 23 -207 71c-53 49 -82 122 -82 210c0 74 29 138 76 187c55 57 135 92 221 92zM329 738c13 0 36 2 57 34c13 20 27 40 55 40c32 0 58 -24 58 -55
c0 -29 -24 -59 -44 -81c-35 -37 -81 -52 -126 -52s-91 15 -126 52c-20 22 -44 52 -44 81c0 31 26 55 58 55c28 0 42 -20 55 -40c21 -32 44 -34 57 -34z" />
    <glyph glyph-name="Gsmallbreve.2" unicode="&#xe09d;" horiz-adv-x="631" 
d="M339 552c50 0 87 -6 124 -17c33 -9 62 -34 62 -72c0 -45 -34 -76 -78 -76c-23 0 -38 5 -57 10c-15 4 -32 8 -55 8c-75 0 -134 -55 -134 -133c0 -77 50 -135 134 -135c20 0 38 3 53 9c17 7 27 16 36 28h-52c-40 0 -72 29 -72 72s32 72 72 72h158c40 0 72 -24 72 -76
c0 -79 -32 -149 -90 -195c-45 -36 -107 -57 -183 -57c-172 0 -295 99 -295 282c0 168 135 280 305 280zM329 738c13 0 36 2 57 34c13 20 27 40 55 40c32 0 58 -24 58 -55c0 -29 -24 -59 -44 -81c-35 -37 -81 -52 -126 -52s-91 15 -126 52c-20 22 -44 52 -44 81
c0 31 26 55 58 55c28 0 42 -20 55 -40c21 -32 44 -34 57 -34z" />
    <glyph glyph-name="Gsmallcommaaccent" unicode="&#xe09e;" horiz-adv-x="609" 
d="M331 552c45 0 89 -6 122 -20s54 -36 54 -70c0 -43 -33 -76 -75 -76c-20 0 -35 6 -55 12c-14 4 -29 7 -49 7c-37 0 -72 -17 -95 -44c-19 -23 -31 -53 -31 -88c0 -40 14 -77 38 -100c22 -22 53 -33 88 -33c24 0 52 6 72 15v19h-28c-40 0 -72 29 -72 72s32 72 72 72h107
c47 0 81 -28 81 -77v-172c0 -48 -37 -77 -81 -77c-22 0 -42 8 -57 21c-33 -13 -60 -21 -99 -21c-85 0 -155 23 -207 71c-53 49 -82 122 -82 210c0 74 29 138 76 187c55 57 135 92 221 92zM209 -366c0 40 70 49 70 100c0 47 -74 35 -74 117c0 47 31 92 99 92
c73 0 116 -53 116 -133c0 -129 -128 -205 -181 -205c-18 0 -30 13 -30 29z" />
    <glyph glyph-name="Gsmallcommaaccent.2" unicode="&#xe09f;" horiz-adv-x="631" 
d="M339 552c50 0 87 -6 124 -17c33 -9 62 -34 62 -72c0 -45 -34 -76 -78 -76c-23 0 -38 5 -57 10c-15 4 -32 8 -55 8c-75 0 -134 -55 -134 -133c0 -77 50 -135 134 -135c20 0 38 3 53 9c17 7 27 16 36 28h-52c-40 0 -72 29 -72 72s32 72 72 72h158c40 0 72 -24 72 -76
c0 -79 -32 -149 -90 -195c-45 -36 -107 -57 -183 -57c-172 0 -295 99 -295 282c0 168 135 280 305 280zM224 -366c0 40 70 49 70 100c0 47 -74 35 -74 117c0 47 31 92 99 92c73 0 116 -53 116 -133c0 -129 -128 -205 -181 -205c-18 0 -30 13 -30 29z" />
    <glyph glyph-name="H" unicode="H" horiz-adv-x="740" 
d="M64 75v530c0 47 40 85 88 85c49 0 88 -38 88 -85v-184h260v184c0 47 40 85 88 85c49 0 88 -38 88 -85v-530c0 -47 -41 -85 -88 -85c-48 0 -88 38 -88 85v190h-260v-190c0 -47 -41 -85 -88 -85c-48 0 -88 38 -88 85z" />
    <glyph glyph-name="H.2" unicode="&#xe0a0;" horiz-adv-x="780" 
d="M64 75v530c0 47 40 85 88 85c49 0 88 -38 88 -85v-218h300v218c0 47 40 85 88 85c49 0 88 -38 88 -85v-530c0 -47 -41 -85 -88 -85c-48 0 -88 38 -88 85v156h-300v-156c0 -47 -41 -85 -88 -85c-48 0 -88 38 -88 85z" />
    <glyph glyph-name="Hsmall" unicode="&#xf768;" horiz-adv-x="615" 
d="M392 473c0 44 37 79 81 79c45 0 81 -35 81 -79v-403c0 -43 -37 -78 -81 -78s-81 35 -81 78v132h-169v-132c0 -43 -37 -78 -81 -78s-81 35 -81 78v403c0 44 37 79 81 79c45 0 81 -35 81 -79v-125h169v125z" />
    <glyph glyph-name="Hsmall.2" unicode="&#xe0a1;" horiz-adv-x="655" 
d="M61 70v403c0 44 37 79 81 79c45 0 81 -35 81 -79v-131h209v131c0 44 37 79 81 79c45 0 81 -35 81 -79v-403c0 -43 -37 -78 -81 -78s-81 35 -81 78v126h-209v-126c0 -43 -37 -78 -81 -78s-81 35 -81 78z" />
    <glyph glyph-name="I" unicode="I" horiz-adv-x="304" 
d="M64 75v530c0 47 40 85 88 85c49 0 88 -38 88 -85v-530c0 -47 -41 -85 -88 -85c-48 0 -88 38 -88 85z" />
    <glyph glyph-name="Iacute" unicode="&#xcd;" horiz-adv-x="304" 
d="M64 75v530c0 47 40 85 88 85c49 0 88 -38 88 -85v-530c0 -47 -41 -85 -88 -85c-48 0 -88 38 -88 85zM67 812c0 13 4 24 10 36l42 89c10 22 27 39 56 39c33 0 63 -26 63 -59c0 -14 -4 -23 -15 -41l-51 -82c-13 -21 -29 -33 -51 -33c-29 0 -54 22 -54 51z" />
    <glyph glyph-name="Icircumflex" unicode="&#xce;" horiz-adv-x="304" 
d="M64 75v530c0 47 40 85 88 85c49 0 88 -38 88 -85v-530c0 -47 -41 -85 -88 -85c-48 0 -88 38 -88 85zM152 974c18 0 31 -8 43 -18l98 -88c16 -14 26 -30 26 -47c0 -35 -26 -57 -56 -57c-16 0 -27 5 -39 15l-72 65l-72 -65c-12 -10 -23 -15 -39 -15c-30 0 -56 22 -56 57
c0 17 10 33 26 47l98 88c12 10 25 18 43 18z" />
    <glyph glyph-name="Idieresis" unicode="&#xcf;" horiz-adv-x="304" 
d="M64 75v530c0 47 40 85 88 85c49 0 88 -38 88 -85v-530c0 -47 -41 -85 -88 -85c-48 0 -88 38 -88 85zM25 765c-51 0 -92 42 -92 93s41 92 92 92c52 0 93 -41 93 -92s-41 -93 -93 -93zM279 765c-51 0 -92 42 -92 93s41 92 92 92s92 -41 92 -92s-41 -93 -92 -93z" />
    <glyph glyph-name="Idotaccent" unicode="&#x130;" horiz-adv-x="304" 
d="M64 75v530c0 47 40 85 88 85c49 0 88 -38 88 -85v-530c0 -47 -41 -85 -88 -85c-48 0 -88 38 -88 85zM152 771c-51 0 -92 41 -92 92s41 92 92 92s92 -41 92 -92s-41 -92 -92 -92z" />
    <glyph glyph-name="Igrave" unicode="&#xcc;" horiz-adv-x="304" 
d="M64 75v530c0 47 40 85 88 85c49 0 88 -38 88 -85v-530c0 -47 -41 -85 -88 -85c-48 0 -88 38 -88 85zM238 812c0 -29 -25 -51 -54 -51c-22 0 -39 11 -51 33l-51 82c-11 18 -15 27 -15 41c0 33 30 59 63 59c29 0 46 -17 56 -39l42 -89c6 -12 10 -23 10 -36z" />
    <glyph glyph-name="Imacron" unicode="&#x12a;" horiz-adv-x="304" 
d="M303 865c0 -36 -29 -65 -65 -65h-170c-36 0 -65 29 -65 65c0 37 29 66 65 66h170c36 0 65 -29 65 -66zM64 75v530c0 47 40 85 88 85c49 0 88 -38 88 -85v-530c0 -47 -41 -85 -88 -85c-48 0 -88 38 -88 85z" />
    <glyph glyph-name="Iogonek" unicode="&#x12e;" horiz-adv-x="304" 
d="M64 75v530c0 47 40 85 88 85c49 0 88 -38 88 -85v-530c0 -47 -41 -85 -88 -85c-14 0 -26 3 -38 9c-5 -17 -9 -31 -9 -51c0 -27 11 -51 56 -51c13 0 28 5 46 5c30 0 44 -19 44 -45c0 -30 -13 -48 -45 -59c-19 -6 -40 -9 -58 -9c-95 0 -145 39 -145 116c0 60 34 120 61 170
z" />
    <glyph glyph-name="Ismall" unicode="&#xf769;" horiz-adv-x="284" 
d="M61 70v404c0 44 37 78 81 78c45 0 81 -34 81 -78v-404c0 -43 -37 -78 -81 -78s-81 35 -81 78z" />
    <glyph glyph-name="Ismallacute" unicode="&#xe0a2;" horiz-adv-x="284" 
d="M61 70v404c0 44 37 78 81 78c45 0 81 -34 81 -78v-404c0 -43 -37 -78 -81 -78s-81 35 -81 78zM57 672c0 13 4 24 10 36l42 89c10 22 27 39 56 39c33 0 63 -26 63 -59c0 -14 -4 -23 -15 -41l-51 -82c-13 -21 -29 -33 -51 -33c-29 0 -54 22 -54 51z" />
    <glyph glyph-name="Ismallcircumflex" unicode="&#xe0a3;" horiz-adv-x="284" 
d="M61 70v404c0 44 37 78 81 78c45 0 81 -34 81 -78v-404c0 -43 -37 -78 -81 -78s-81 35 -81 78zM142 834c18 0 31 -8 43 -18l98 -88c16 -14 26 -30 26 -47c0 -35 -26 -57 -56 -57c-16 0 -27 5 -39 15l-72 65l-72 -65c-12 -10 -23 -15 -39 -15c-30 0 -56 22 -56 57
c0 17 10 33 26 47l98 88c12 10 25 18 43 18z" />
    <glyph glyph-name="Ismalldieresis" unicode="&#xe0a4;" horiz-adv-x="284" 
d="M61 70v404c0 44 37 78 81 78c45 0 81 -34 81 -78v-404c0 -43 -37 -78 -81 -78s-81 35 -81 78zM15 625c-51 0 -92 42 -92 93s41 92 92 92c52 0 93 -41 93 -92s-41 -93 -93 -93zM269 625c-51 0 -92 42 -92 93s41 92 92 92s92 -41 92 -92s-41 -93 -92 -93z" />
    <glyph glyph-name="Ismallgrave" unicode="&#xe0a5;" horiz-adv-x="284" 
d="M61 70v404c0 44 37 78 81 78c45 0 81 -34 81 -78v-404c0 -43 -37 -78 -81 -78s-81 35 -81 78zM228 672c0 -29 -25 -51 -54 -51c-22 0 -39 11 -51 33l-51 82c-11 18 -15 27 -15 41c0 33 30 59 63 59c29 0 46 -17 56 -39l42 -89c6 -12 10 -23 10 -36z" />
    <glyph glyph-name="Ismallmacron" unicode="&#xe0a6;" horiz-adv-x="284" 
d="M61 70v404c0 44 37 78 81 78c45 0 81 -34 81 -78v-404c0 -43 -37 -78 -81 -78s-81 35 -81 78zM292 702c0 -36 -29 -65 -65 -65h-170c-36 0 -65 29 -65 65c0 37 29 66 65 66h170c36 0 65 -29 65 -66z" />
    <glyph glyph-name="Ismallogonek" unicode="&#xe0a7;" horiz-adv-x="284" 
d="M61 70v404c0 44 37 78 81 78c45 0 81 -34 81 -78v-404c0 -19 -7 -37 -19 -50c-12 -30 -17 -47 -17 -72c0 -27 11 -51 56 -51c13 0 28 5 46 5c30 0 44 -19 44 -45c0 -30 -13 -48 -45 -59c-19 -6 -40 -9 -58 -9c-95 0 -145 39 -145 116c0 27 8 58 25 93
c-29 12 -49 40 -49 72z" />
    <glyph glyph-name="J" unicode="J" horiz-adv-x="543" 
d="M480 605v-357c0 -100 -32 -167 -86 -208c-46 -34 -107 -50 -178 -50c-53 0 -123 15 -174 57c-20 17 -35 42 -35 71c0 46 35 81 80 81c23 0 41 -9 57 -23c28 -25 53 -30 70 -30c27 0 46 5 60 16c23 18 30 52 30 101v342c0 47 40 85 88 85c49 0 88 -38 88 -85z" />
    <glyph glyph-name="Jsmall" unicode="&#xf76a;" horiz-adv-x="460" 
d="M401 474v-272c0 -70 -19 -120 -52 -154c-38 -39 -95 -56 -163 -56c-34 0 -84 9 -121 31c-30 18 -52 44 -52 80c0 43 33 75 74 75c20 0 34 -7 45 -15c16 -11 29 -25 52 -25c21 0 35 6 43 18s11 31 11 57v261c0 44 37 78 83 78c44 0 80 -34 80 -78z" />
    <glyph glyph-name="K" unicode="K" horiz-adv-x="631" 
d="M568 551l-157 -164l185 -261c10 -14 14 -30 14 -46c0 -46 -39 -90 -89 -90c-27 0 -55 13 -71 37l-158 237l-52 -54v-135c0 -47 -41 -85 -88 -85c-48 0 -88 38 -88 85v530c0 47 40 85 88 85c49 0 88 -38 88 -85v-168l203 227c16 17 38 26 60 26c45 0 85 -38 85 -86
c0 -19 -6 -38 -20 -53z" />
    <glyph glyph-name="K.2" unicode="&#xe0a8;" horiz-adv-x="710" 
d="M64 75v530c0 47 40 85 88 85c49 0 88 -38 88 -85v-214l245 274c16 17 38 26 60 26c45 0 85 -38 85 -86c0 -19 -6 -38 -20 -53l-154 -161c59 -22 108 -55 144 -100c40 -50 63 -114 63 -191s-42 -110 -90 -110c-63 0 -89 45 -89 85c0 50 -12 89 -33 117
c-27 36 -69 56 -123 66l-88 -92v-91c0 -47 -41 -85 -88 -85c-48 0 -88 38 -88 85z" />
    <glyph glyph-name="Kcommaaccent" unicode="&#x136;" horiz-adv-x="631" 
d="M568 551l-157 -164l185 -261c10 -14 14 -30 14 -46c0 -46 -39 -90 -89 -90c-27 0 -55 13 -71 37l-158 237l-52 -54v-135c0 -47 -41 -85 -88 -85c-48 0 -88 38 -88 85v530c0 47 40 85 88 85c49 0 88 -38 88 -85v-168l203 227c16 17 38 26 60 26c45 0 85 -38 85 -86
c0 -19 -6 -38 -20 -53zM232 -366c0 40 70 49 70 100c0 47 -74 35 -74 117c0 47 31 92 99 92c73 0 116 -53 116 -133c0 -129 -128 -205 -181 -205c-18 0 -30 13 -30 29z" />
    <glyph glyph-name="Kcommaaccent.2" unicode="&#xe0a9;" horiz-adv-x="710" 
d="M64 75v530c0 47 40 85 88 85c49 0 88 -38 88 -85v-214l245 274c16 17 38 26 60 26c45 0 85 -38 85 -86c0 -19 -6 -38 -20 -53l-154 -161c59 -22 108 -55 144 -100c40 -50 63 -114 63 -191s-42 -110 -90 -110c-63 0 -89 45 -89 85c0 50 -12 89 -33 117
c-27 36 -69 56 -123 66l-88 -92v-91c0 -47 -41 -85 -88 -85c-48 0 -88 38 -88 85zM259 -366c0 40 70 49 70 100c0 47 -74 35 -74 117c0 47 31 92 99 92c73 0 116 -53 116 -133c0 -129 -128 -205 -181 -205c-18 0 -30 13 -30 29z" />
    <glyph glyph-name="Ksmall" unicode="&#xf76b;" horiz-adv-x="510" 
d="M469 423l-111 -116l126 -181c11 -15 21 -33 21 -52c0 -47 -37 -82 -82 -82c-33 0 -52 13 -67 35l-108 161l-25 -24v-94c0 -43 -37 -78 -81 -78s-81 35 -81 78v404c0 44 37 78 81 78c45 0 81 -34 81 -78v-90l131 144c15 17 35 24 56 24c42 0 78 -33 78 -79
c0 -16 -6 -36 -19 -50z" />
    <glyph glyph-name="Ksmall.2" unicode="&#xe0aa;" horiz-adv-x="588" 
d="M61 70v404c0 44 37 78 81 78c45 0 81 -34 81 -78v-133l166 184c14 16 33 28 58 28c49 0 83 -35 83 -79c0 -20 -9 -38 -23 -52l-105 -107c45 -19 81 -46 107 -81c29 -39 45 -88 45 -145c0 -69 -38 -97 -82 -97c-61 0 -84 41 -84 77c0 41 -11 71 -31 91
c-18 18 -43 29 -74 35l-60 -62v-63c0 -43 -37 -78 -81 -78s-81 35 -81 78z" />
    <glyph glyph-name="Ksmallcommaaccent" unicode="&#xe0ab;" horiz-adv-x="510" 
d="M469 423l-111 -116l126 -181c11 -15 21 -33 21 -52c0 -47 -37 -82 -82 -82c-33 0 -52 13 -67 35l-108 161l-25 -24v-94c0 -43 -37 -78 -81 -78s-81 35 -81 78v404c0 44 37 78 81 78c45 0 81 -34 81 -78v-90l131 144c15 17 35 24 56 24c42 0 78 -33 78 -79
c0 -16 -6 -36 -19 -50zM175 -366c0 40 70 49 70 100c0 47 -74 35 -74 117c0 47 31 92 99 92c73 0 116 -53 116 -133c0 -129 -128 -205 -181 -205c-18 0 -30 13 -30 29z" />
    <glyph glyph-name="Ksmallcommaaccent.2" unicode="&#xe0ac;" horiz-adv-x="588" 
d="M61 70v404c0 44 37 78 81 78c45 0 81 -34 81 -78v-133l166 184c14 16 33 28 58 28c49 0 83 -35 83 -79c0 -20 -9 -38 -23 -52l-105 -107c45 -19 81 -46 107 -81c29 -39 45 -88 45 -145c0 -69 -38 -97 -82 -97c-61 0 -84 41 -84 77c0 41 -11 71 -31 91
c-18 18 -43 29 -74 35l-60 -62v-63c0 -43 -37 -78 -81 -78s-81 35 -81 78zM207 -366c0 40 70 49 70 100c0 47 -74 35 -74 117c0 47 31 92 99 92c73 0 116 -53 116 -133c0 -129 -128 -205 -181 -205c-18 0 -30 13 -30 29z" />
    <glyph glyph-name="L" unicode="L" horiz-adv-x="547" 
d="M64 85v520c0 47 39 85 88 85s88 -38 88 -85v-449h216c42 0 75 -36 75 -78c0 -43 -33 -78 -75 -78h-304c-49 0 -88 38 -88 85z" />
    <glyph glyph-name="L.1" unicode="&#xe0ad;" horiz-adv-x="531" 
d="M48 292v313c0 47 39 85 88 85s88 -38 88 -85v-339c0 -30 6 -57 21 -76c17 -22 44 -34 85 -34h110c42 0 75 -36 75 -78c0 -43 -33 -78 -75 -78h-113c-102 0 -183 25 -231 94c-31 45 -48 109 -48 198z" />
    <glyph glyph-name="Lacute" unicode="&#x139;" horiz-adv-x="547" 
d="M82 812c0 13 4 24 10 36l42 89c10 22 27 39 56 39c33 0 63 -26 63 -59c0 -14 -4 -23 -15 -41l-51 -82c-13 -21 -29 -33 -51 -33c-29 0 -54 22 -54 51zM64 85v520c0 47 39 85 88 85s88 -38 88 -85v-449h216c42 0 75 -36 75 -78c0 -43 -33 -78 -75 -78h-304
c-49 0 -88 38 -88 85z" />
    <glyph glyph-name="Lacute.1" unicode="&#xe0ae;" horiz-adv-x="531" 
d="M48 292v313c0 47 39 85 88 85s88 -38 88 -85v-339c0 -30 6 -57 21 -76c17 -22 44 -34 85 -34h110c42 0 75 -36 75 -78c0 -43 -33 -78 -75 -78h-113c-102 0 -183 25 -231 94c-31 45 -48 109 -48 198zM66 812c0 13 4 24 10 36l42 89c10 22 27 39 56 39c33 0 63 -26 63 -59
c0 -14 -4 -23 -15 -41l-51 -82c-13 -21 -29 -33 -51 -33c-29 0 -54 22 -54 51z" />
    <glyph glyph-name="Lcaron" unicode="&#x13d;" horiz-adv-x="547" 
d="M64 85v520c0 47 39 85 88 85s88 -38 88 -85v-449h216c42 0 75 -36 75 -78c0 -43 -33 -78 -75 -78h-304c-49 0 -88 38 -88 85zM314 381c0 40 70 49 70 100c0 47 -74 35 -74 117c0 47 31 92 99 92c73 0 116 -53 116 -133c0 -129 -128 -205 -181 -205c-18 0 -30 13 -30 29z
" />
    <glyph glyph-name="Lcaron.1" unicode="&#xe0af;" horiz-adv-x="531" 
d="M48 292v313c0 47 39 85 88 85s88 -38 88 -85v-339c0 -30 6 -57 21 -76c17 -22 44 -34 85 -34h110c42 0 75 -36 75 -78c0 -43 -33 -78 -75 -78h-113c-102 0 -183 25 -231 94c-31 45 -48 109 -48 198zM298 381c0 40 70 49 70 100c0 47 -74 35 -74 117c0 47 31 92 99 92
c73 0 116 -53 116 -133c0 -129 -128 -205 -181 -205c-18 0 -30 13 -30 29z" />
    <glyph glyph-name="Lcommaaccent" unicode="&#x13b;" horiz-adv-x="547" 
d="M64 85v520c0 47 39 85 88 85s88 -38 88 -85v-449h216c42 0 75 -36 75 -78c0 -43 -33 -78 -75 -78h-304c-49 0 -88 38 -88 85zM191 -366c0 40 70 49 70 100c0 47 -74 35 -74 117c0 47 31 92 99 92c73 0 116 -53 116 -133c0 -129 -128 -205 -181 -205c-18 0 -30 13 -30 29z
" />
    <glyph glyph-name="Lcommaaccent.1" unicode="&#xe0b0;" horiz-adv-x="531" 
d="M48 292v313c0 47 39 85 88 85s88 -38 88 -85v-339c0 -30 6 -57 21 -76c17 -22 44 -34 85 -34h110c42 0 75 -36 75 -78c0 -43 -33 -78 -75 -78h-113c-102 0 -183 25 -231 94c-31 45 -48 109 -48 198zM175 -366c0 40 70 49 70 100c0 47 -74 35 -74 117c0 47 31 92 99 92
c73 0 116 -53 116 -133c0 -129 -128 -205 -181 -205c-18 0 -30 13 -30 29z" />
    <glyph glyph-name="Lslash" unicode="&#x141;" horiz-adv-x="560" 
d="M77 85v115l-6 -4c-12 -7 -25 -11 -38 -11c-40 0 -69 32 -69 70c0 23 11 45 31 58l82 53v240c0 47 39 85 88 85s88 -38 88 -85v-127l31 20c12 8 24 11 37 11c40 0 70 -30 70 -69c0 -23 -11 -46 -31 -59l-107 -69v-160h216c42 0 75 -36 75 -76c0 -43 -33 -77 -75 -77h-304
c-49 0 -88 38 -88 85z" />
    <glyph glyph-name="Lsmall" unicode="&#xf76c;" horiz-adv-x="449" 
d="M61 79v395c0 43 37 78 81 78s81 -35 81 -78v-330h150c40 0 72 -29 72 -72s-32 -72 -72 -72h-231c-44 0 -81 35 -81 79z" />
    <glyph glyph-name="Lsmall.1" unicode="&#xe0b1;" horiz-adv-x="465" 
d="M207 474v-275c0 -14 4 -28 11 -37c9 -11 22 -16 43 -16h128c40 0 72 -33 72 -74c0 -40 -32 -72 -72 -72h-116c-76 0 -141 18 -186 77c-31 41 -42 94 -42 164v233c0 43 37 78 81 78s81 -35 81 -78z" />
    <glyph glyph-name="Lsmallacute" unicode="&#xe0b2;" horiz-adv-x="449" 
d="M61 79v395c0 43 37 78 81 78s81 -35 81 -78v-330h150c40 0 72 -29 72 -72s-32 -72 -72 -72h-231c-44 0 -81 35 -81 79zM58 672c0 13 4 24 10 36l42 89c10 22 27 39 56 39c33 0 63 -26 63 -59c0 -14 -4 -23 -15 -41l-51 -82c-13 -21 -29 -33 -51 -33c-29 0 -54 22 -54 51z
" />
    <glyph glyph-name="Lsmallacute.1" unicode="&#xe0b3;" horiz-adv-x="468" 
d="M210 474v-275c0 -14 4 -28 11 -37c9 -11 22 -16 43 -16h128c40 0 72 -33 72 -74c0 -40 -32 -72 -72 -72h-116c-76 0 -141 18 -186 77c-31 41 -42 94 -42 164v233c0 43 37 78 81 78s81 -35 81 -78zM45 672c0 13 4 24 10 36l42 89c10 22 27 39 56 39c33 0 63 -26 63 -59
c0 -14 -4 -23 -15 -41l-51 -82c-13 -21 -29 -33 -51 -33c-29 0 -54 22 -54 51z" />
    <glyph glyph-name="Lsmallcaron" unicode="&#xe0b4;" horiz-adv-x="449" 
d="M61 79v395c0 43 37 78 81 78s81 -35 81 -78v-330h150c40 0 72 -29 72 -72s-32 -72 -72 -72h-231c-44 0 -81 35 -81 79zM258 243c0 40 70 49 70 100c0 47 -74 35 -74 117c0 47 31 92 99 92c73 0 116 -53 116 -133c0 -129 -128 -205 -181 -205c-18 0 -30 13 -30 29z" />
    <glyph glyph-name="Lsmallcaron.1" unicode="&#xe0b5;" horiz-adv-x="465" 
d="M207 474v-275c0 -14 4 -28 11 -37c9 -11 22 -16 43 -16h128c40 0 72 -33 72 -74c0 -40 -32 -72 -72 -72h-116c-76 0 -141 18 -186 77c-31 41 -42 94 -42 164v233c0 43 37 78 81 78s81 -35 81 -78zM242 243c0 40 70 49 70 100c0 47 -74 35 -74 117c0 47 31 92 99 92
c73 0 116 -53 116 -133c0 -129 -128 -205 -181 -205c-18 0 -30 13 -30 29z" />
    <glyph glyph-name="Lsmallcommaaccent" unicode="&#xe0b6;" horiz-adv-x="449" 
d="M61 79v395c0 43 37 78 81 78s81 -35 81 -78v-330h150c40 0 72 -29 72 -72s-32 -72 -72 -72h-231c-44 0 -81 35 -81 79zM149 -366c0 40 70 49 70 100c0 47 -74 35 -74 117c0 47 31 92 99 92c73 0 116 -53 116 -133c0 -129 -128 -205 -181 -205c-18 0 -30 13 -30 29z" />
    <glyph glyph-name="Lsmallcommaaccent.1" unicode="&#xe0b7;" horiz-adv-x="465" 
d="M207 474v-275c0 -14 4 -28 11 -37c9 -11 22 -16 43 -16h128c40 0 72 -33 72 -74c0 -40 -32 -72 -72 -72h-116c-76 0 -141 18 -186 77c-31 41 -42 94 -42 164v233c0 43 37 78 81 78s81 -35 81 -78zM147 -366c0 40 70 49 70 100c0 47 -74 35 -74 117c0 47 31 92 99 92
c73 0 116 -53 116 -133c0 -129 -128 -205 -181 -205c-18 0 -30 13 -30 29z" />
    <glyph glyph-name="M" unicode="M" horiz-adv-x="843" 
d="M64 582c0 60 44 108 111 108c44 0 77 -22 96 -55l150 -270l151 270c19 33 52 55 96 55c67 0 111 -48 111 -108v-510c0 -45 -34 -82 -85 -82s-85 37 -85 82v303l-101 -179c-17 -29 -44 -54 -86 -54s-69 25 -86 54l-102 179v-303c0 -45 -34 -82 -85 -82s-85 37 -85 82v510z
" />
    <glyph glyph-name="M.2" unicode="&#xe0b8;" horiz-adv-x="994" 
d="M64 582c0 60 44 108 111 108c44 0 77 -22 96 -55l225 -412l227 412c19 33 52 55 96 55c67 0 111 -48 111 -108v-510c0 -45 -34 -82 -85 -82s-85 37 -85 82v293l-177 -321c-17 -29 -44 -54 -86 -54s-69 25 -86 54l-177 321v-293c0 -45 -34 -82 -85 -82s-85 37 -85 82v510z
" />
    <glyph glyph-name="M.3" unicode="&#xe0b9;" horiz-adv-x="1163" 
d="M924 75v304c0 84 -27 155 -126 155c-36 0 -65 -10 -87 -32c-26 -26 -41 -70 -41 -133v-294c0 -47 -41 -85 -88 -85c-48 0 -88 38 -88 85v304c0 44 -8 84 -29 112c-19 26 -50 43 -97 43c-40 0 -72 -12 -94 -39c-21 -25 -34 -73 -34 -124v-296c0 -47 -41 -85 -88 -85
c-48 0 -88 38 -88 85v530c0 47 40 85 88 85c33 0 62 -18 77 -44c42 27 94 44 160 44c46 0 88 -8 127 -27c31 -15 59 -37 85 -69c18 22 41 42 67 58c40 24 90 38 151 38c171 0 281 -93 281 -306v-309c0 -47 -41 -85 -88 -85c-48 0 -88 38 -88 85z" />
    <glyph glyph-name="Msmall" unicode="&#xf76d;" horiz-adv-x="695" 
d="M61 68v389c0 54 39 95 98 95c40 0 69 -20 85 -48l103 -183l102 183c16 28 46 48 86 48c59 0 99 -41 99 -95v-389c0 -41 -32 -76 -79 -76s-79 35 -79 76v196c-16 -29 -34 -59 -51 -88c-15 -25 -38 -47 -77 -47s-65 22 -79 47l-50 88v-196c0 -41 -32 -76 -79 -76
c-48 0 -79 35 -79 76z" />
    <glyph glyph-name="Msmall.2" unicode="&#xe0ba;" horiz-adv-x="830" 
d="M61 68v389c0 54 39 95 98 95c40 0 69 -20 85 -48l170 -320l170 320c16 28 46 48 86 48c59 0 99 -41 99 -95v-389c0 -41 -32 -76 -79 -76s-79 35 -79 76v196c-16 -29 -102 -196 -119 -225c-15 -25 -38 -47 -77 -47s-65 22 -79 47l-117 225v-196c0 -41 -32 -76 -79 -76
c-48 0 -79 35 -79 76z" />
    <glyph glyph-name="Msmall.3" unicode="&#xe0bb;" horiz-adv-x="944" 
d="M729 71v219c0 29 -4 66 -20 88c-10 14 -28 29 -65 29c-36 0 -56 -20 -67 -40c-15 -29 -20 -68 -20 -111v-185c0 -44 -38 -79 -81 -79c-45 0 -81 35 -81 79v219c0 29 -4 66 -20 88c-10 14 -28 29 -65 29c-36 0 -56 -20 -67 -40c-13 -26 -19 -59 -20 -95v-201
c0 -44 -38 -79 -81 -79c-45 0 -81 35 -81 79v402c0 44 36 79 81 79c31 0 58 -17 71 -42c43 30 92 42 134 42c31 0 61 -5 89 -15c30 -12 53 -28 69 -46c17 15 44 32 73 43c27 11 59 18 98 18c58 0 115 -17 155 -56c35 -35 60 -87 60 -166v-259c0 -44 -38 -79 -81 -79
c-45 0 -81 35 -81 79z" />
    <glyph glyph-name="N" unicode="N" horiz-adv-x="744" 
d="M680 610v-524c0 -54 -46 -96 -102 -96c-35 0 -66 17 -85 43l-261 354v-318c0 -44 -38 -79 -84 -79c-47 0 -84 35 -84 79v525c0 53 45 96 101 96c35 0 66 -18 85 -44l262 -352v316c0 44 37 80 84 80c46 0 84 -36 84 -80z" />
    <glyph glyph-name="N.2" unicode="&#xe0bc;" horiz-adv-x="789" 
d="M557 71c0 57 -76 105 -165 163c-32 21 -66 42 -98 64c-22 15 -42 31 -62 48v-275c0 -44 -37 -81 -83 -81c-47 0 -85 37 -85 81v539c0 44 38 80 85 80c46 0 83 -38 83 -80c0 -58 75 -107 164 -164c32 -21 66 -43 99 -67c22 -15 42 -31 62 -48v279c0 44 38 80 85 80
c46 0 83 -36 83 -80v-539c0 -44 -37 -81 -83 -81c-47 0 -85 40 -85 81z" />
    <glyph glyph-name="N.3" unicode="&#xe0bd;" horiz-adv-x="726" 
d="M497 75v304c0 42 -4 87 -27 114c-17 19 -43 34 -80 34c-59 0 -95 -24 -117 -59c-23 -36 -33 -79 -33 -128v-265c0 -47 -41 -85 -88 -85c-48 0 -88 38 -88 85v530c0 47 40 85 88 85c43 0 77 -29 86 -68c16 16 39 32 60 42c32 16 70 26 114 26c69 0 138 -19 188 -67
c43 -42 73 -108 73 -206v-342c0 -47 -41 -85 -88 -85c-48 0 -88 38 -88 85z" />
    <glyph glyph-name="Nacute" unicode="&#x143;" horiz-adv-x="744" 
d="M285 812c0 13 4 24 10 36l42 89c10 22 27 39 56 39c33 0 63 -26 63 -59c0 -14 -4 -23 -15 -41l-51 -82c-13 -21 -29 -33 -51 -33c-29 0 -54 22 -54 51zM680 610v-524c0 -54 -46 -96 -102 -96c-35 0 -66 17 -85 43l-261 354v-318c0 -44 -38 -79 -84 -79
c-47 0 -84 35 -84 79v525c0 53 45 96 101 96c35 0 66 -18 85 -44l262 -352v316c0 44 37 80 84 80c46 0 84 -36 84 -80z" />
    <glyph glyph-name="Nacute.2" unicode="&#xe0be;" horiz-adv-x="789" 
d="M330 812c0 13 4 24 10 36l42 89c10 22 27 39 56 39c33 0 63 -26 63 -59c0 -14 -4 -23 -15 -41l-51 -82c-13 -21 -29 -33 -51 -33c-29 0 -54 22 -54 51zM557 71c0 57 -76 105 -165 163c-32 21 -66 42 -98 64c-22 15 -42 31 -62 48v-275c0 -44 -37 -81 -83 -81
c-47 0 -85 37 -85 81v539c0 44 38 80 85 80c46 0 83 -38 83 -80c0 -58 75 -107 164 -164c32 -21 66 -43 99 -67c22 -15 42 -31 62 -48v279c0 44 38 80 85 80c46 0 83 -36 83 -80v-539c0 -44 -37 -81 -83 -81c-47 0 -85 40 -85 81z" />
    <glyph glyph-name="Nacute.3" unicode="&#xe0bf;" horiz-adv-x="726" 
d="M497 75v304c0 42 -4 87 -27 114c-17 19 -43 34 -80 34c-59 0 -95 -24 -117 -59c-23 -36 -33 -79 -33 -128v-265c0 -47 -41 -85 -88 -85c-48 0 -88 38 -88 85v530c0 47 40 85 88 85c43 0 77 -29 86 -68c16 16 39 32 60 42c32 16 70 26 114 26c69 0 138 -19 188 -67
c43 -42 73 -108 73 -206v-342c0 -47 -41 -85 -88 -85c-48 0 -88 38 -88 85zM323 812c0 13 4 24 10 36l42 89c10 22 27 39 56 39c33 0 63 -26 63 -59c0 -14 -4 -23 -15 -41l-51 -82c-13 -21 -29 -33 -51 -33c-29 0 -54 22 -54 51z" />
    <glyph glyph-name="Ncaron" unicode="&#x147;" horiz-adv-x="744" 
d="M205 917c0 35 26 57 56 57c16 0 27 -5 39 -15l72 -65l72 65c12 10 23 15 39 15c30 0 56 -22 56 -57c0 -17 -10 -33 -26 -47l-98 -88c-12 -10 -25 -18 -43 -18s-31 8 -43 18l-98 88c-16 14 -26 30 -26 47zM680 610v-524c0 -54 -46 -96 -102 -96c-35 0 -66 17 -85 43
l-261 354v-318c0 -44 -38 -79 -84 -79c-47 0 -84 35 -84 79v525c0 53 45 96 101 96c35 0 66 -18 85 -44l262 -352v316c0 44 37 80 84 80c46 0 84 -36 84 -80z" />
    <glyph glyph-name="Ncaron.2" unicode="&#xe0c0;" horiz-adv-x="789" 
d="M233 917c0 35 26 57 56 57c16 0 27 -5 39 -15l72 -65l72 65c12 10 23 15 39 15c30 0 56 -22 56 -57c0 -17 -10 -33 -26 -47l-98 -88c-12 -10 -25 -18 -43 -18s-31 8 -43 18l-98 88c-16 14 -26 30 -26 47zM557 71c0 57 -76 105 -165 163c-32 21 -66 42 -98 64
c-22 15 -42 31 -62 48v-275c0 -44 -37 -81 -83 -81c-47 0 -85 37 -85 81v539c0 44 38 80 85 80c46 0 83 -38 83 -80c0 -58 75 -107 164 -164c32 -21 66 -43 99 -67c22 -15 42 -31 62 -48v279c0 44 38 80 85 80c46 0 83 -36 83 -80v-539c0 -44 -37 -81 -83 -81
c-47 0 -85 40 -85 81z" />
    <glyph glyph-name="Ncaron.3" unicode="&#xe0c1;" horiz-adv-x="726" 
d="M497 75v304c0 42 -4 87 -27 114c-17 19 -43 34 -80 34c-59 0 -95 -24 -117 -59c-23 -36 -33 -79 -33 -128v-265c0 -47 -41 -85 -88 -85c-48 0 -88 38 -88 85v530c0 47 40 85 88 85c43 0 77 -29 86 -68c16 16 39 32 60 42c32 16 70 26 114 26c69 0 138 -19 188 -67
c43 -42 73 -108 73 -206v-342c0 -47 -41 -85 -88 -85c-48 0 -88 38 -88 85zM240 917c0 35 26 57 56 57c16 0 27 -5 39 -15l72 -65l72 65c12 10 23 15 39 15c30 0 56 -22 56 -57c0 -17 -10 -33 -26 -47l-98 -88c-12 -10 -25 -18 -43 -18s-31 8 -43 18l-98 88
c-16 14 -26 30 -26 47z" />
    <glyph glyph-name="Ncommaaccent" unicode="&#x145;" horiz-adv-x="744" 
d="M680 610v-524c0 -54 -46 -96 -102 -96c-35 0 -66 17 -85 43l-261 354v-318c0 -44 -38 -79 -84 -79c-47 0 -84 35 -84 79v525c0 53 45 96 101 96c35 0 66 -18 85 -44l262 -352v316c0 44 37 80 84 80c46 0 84 -36 84 -80zM269 -366c0 40 70 49 70 100c0 47 -74 35 -74 117
c0 47 31 92 99 92c73 0 116 -53 116 -133c0 -129 -128 -205 -181 -205c-18 0 -30 13 -30 29z" />
    <glyph glyph-name="Ncommaaccent.2" unicode="&#xe0c2;" horiz-adv-x="789" 
d="M303 -366c0 40 70 49 70 100c0 47 -74 35 -74 117c0 47 31 92 99 92c73 0 116 -53 116 -133c0 -129 -128 -205 -181 -205c-18 0 -30 13 -30 29zM557 71c0 57 -76 105 -165 163c-32 21 -66 42 -98 64c-22 15 -42 31 -62 48v-275c0 -44 -37 -81 -83 -81
c-47 0 -85 37 -85 81v539c0 44 38 80 85 80c46 0 83 -38 83 -80c0 -58 75 -107 164 -164c32 -21 66 -43 99 -67c22 -15 42 -31 62 -48v279c0 44 38 80 85 80c46 0 83 -36 83 -80v-539c0 -44 -37 -81 -83 -81c-47 0 -85 40 -85 81z" />
    <glyph glyph-name="Ncommaaccent.3" unicode="&#xe0c3;" horiz-adv-x="726" 
d="M497 75v304c0 42 -4 87 -27 114c-17 19 -43 34 -80 34c-59 0 -95 -24 -117 -59c-23 -36 -33 -79 -33 -128v-265c0 -47 -41 -85 -88 -85c-48 0 -88 38 -88 85v530c0 47 40 85 88 85c43 0 77 -29 86 -68c16 16 39 32 60 42c32 16 70 26 114 26c69 0 138 -19 188 -67
c43 -42 73 -108 73 -206v-342c0 -47 -41 -85 -88 -85c-48 0 -88 38 -88 85zM266 -366c0 40 70 49 70 100c0 47 -74 35 -74 117c0 47 31 92 99 92c73 0 116 -53 116 -133c0 -129 -128 -205 -181 -205c-18 0 -30 13 -30 29z" />
    <glyph glyph-name="Nsmall" unicode="&#xf76e;" horiz-adv-x="619" 
d="M558 479v-414c0 -40 -36 -73 -76 -73c-30 0 -49 13 -67 34l-200 243v-204c0 -39 -33 -73 -78 -73s-76 34 -76 73v414c0 40 36 73 76 73c30 0 49 -13 67 -34l200 -243v204c0 39 33 73 78 73s76 -34 76 -73z" />
    <glyph glyph-name="Nsmall.2" unicode="&#xe0c4;" horiz-adv-x="678" 
d="M617 479v-414c0 -39 -33 -73 -78 -73s-76 37 -76 73c0 48 -58 81 -125 116c-42 23 -84 46 -123 76v-192c0 -39 -33 -73 -78 -73s-76 34 -76 73v414c0 39 31 73 76 73s78 -37 78 -73c0 -47 56 -81 124 -117c42 -23 85 -45 124 -76v193c0 39 31 73 76 73s78 -34 78 -73z
" />
    <glyph glyph-name="Nsmall.3" unicode="&#xe0c5;" horiz-adv-x="626" 
d="M411 71v227c0 28 -5 63 -24 85c-11 13 -30 24 -57 24c-43 0 -67 -18 -83 -44c-16 -25 -24 -56 -24 -88v-204c0 -44 -38 -79 -81 -79c-45 0 -81 35 -81 79v402c0 44 36 79 81 79c37 0 67 -24 77 -57c14 13 34 28 53 36c27 13 62 21 96 21c55 0 109 -15 149 -54
c34 -34 56 -87 56 -165v-262c0 -44 -38 -79 -81 -79c-45 0 -81 35 -81 79z" />
    <glyph glyph-name="Nsmallacute" unicode="&#xe0c6;" horiz-adv-x="619" 
d="M558 479v-414c0 -40 -36 -73 -76 -73c-30 0 -49 13 -67 34l-200 243v-204c0 -39 -33 -73 -78 -73s-76 34 -76 73v414c0 40 36 73 76 73c30 0 49 -13 67 -34l200 -243v204c0 39 33 73 78 73s76 -34 76 -73zM224 672c0 13 4 24 10 36l42 89c10 22 27 39 56 39
c33 0 63 -26 63 -59c0 -14 -4 -23 -15 -41l-51 -82c-13 -21 -29 -33 -51 -33c-29 0 -54 22 -54 51z" />
    <glyph glyph-name="Nsmallacute.2" unicode="&#xe0c7;" horiz-adv-x="678" 
d="M270 672c0 13 4 24 10 36l42 89c10 22 27 39 56 39c33 0 63 -26 63 -59c0 -14 -4 -23 -15 -41l-51 -82c-13 -21 -29 -33 -51 -33c-29 0 -54 22 -54 51zM617 479v-414c0 -39 -33 -73 -78 -73s-76 37 -76 73c0 48 -58 81 -125 116c-42 23 -84 46 -123 76v-192
c0 -39 -33 -73 -78 -73s-76 34 -76 73v414c0 39 31 73 76 73s78 -37 78 -73c0 -47 56 -81 124 -117c42 -23 85 -45 124 -76v193c0 39 31 73 76 73s78 -34 78 -73z" />
    <glyph glyph-name="Nsmallacute.3" unicode="&#xe0c8;" horiz-adv-x="626" 
d="M411 71v227c0 28 -5 63 -24 85c-11 13 -30 24 -57 24c-43 0 -67 -18 -83 -44c-16 -25 -24 -56 -24 -88v-204c0 -44 -38 -79 -81 -79c-45 0 -81 35 -81 79v402c0 44 36 79 81 79c37 0 67 -24 77 -57c14 13 34 28 53 36c27 13 62 21 96 21c55 0 109 -15 149 -54
c34 -34 56 -87 56 -165v-262c0 -44 -38 -79 -81 -79c-45 0 -81 35 -81 79zM274 672c0 13 4 24 10 36l42 89c10 22 27 39 56 39c33 0 63 -26 63 -59c0 -14 -4 -23 -15 -41l-51 -82c-13 -21 -29 -33 -51 -33c-29 0 -54 22 -54 51z" />
    <glyph glyph-name="Nsmallcaron" unicode="&#xe0c9;" horiz-adv-x="619" 
d="M558 479v-414c0 -40 -36 -73 -76 -73c-30 0 -49 13 -67 34l-200 243v-204c0 -39 -33 -73 -78 -73s-76 34 -76 73v414c0 40 36 73 76 73c30 0 49 -13 67 -34l200 -243v204c0 39 33 73 78 73s76 -34 76 -73zM142 777c0 35 26 57 56 57c16 0 27 -5 39 -15l72 -65l72 65
c12 10 23 15 39 15c30 0 56 -22 56 -57c0 -17 -10 -33 -26 -47l-98 -88c-12 -10 -25 -18 -43 -18s-31 8 -43 18l-98 88c-16 14 -26 30 -26 47z" />
    <glyph glyph-name="Nsmallcaron.2" unicode="&#xe0ca;" horiz-adv-x="678" 
d="M172 777c0 35 26 57 56 57c16 0 27 -5 39 -15l72 -65l72 65c12 10 23 15 39 15c30 0 56 -22 56 -57c0 -17 -10 -33 -26 -47l-98 -88c-12 -10 -25 -18 -43 -18s-31 8 -43 18l-98 88c-16 14 -26 30 -26 47zM617 479v-414c0 -39 -33 -73 -78 -73s-76 37 -76 73
c0 48 -58 81 -125 116c-42 23 -84 46 -123 76v-192c0 -39 -33 -73 -78 -73s-76 34 -76 73v414c0 39 31 73 76 73s78 -37 78 -73c0 -47 56 -81 124 -117c42 -23 85 -45 124 -76v193c0 39 31 73 76 73s78 -34 78 -73z" />
    <glyph glyph-name="Nsmallcaron.3" unicode="&#xe0cb;" horiz-adv-x="626" 
d="M411 71v227c0 28 -5 63 -24 85c-11 13 -30 24 -57 24c-43 0 -67 -18 -83 -44c-16 -25 -24 -56 -24 -88v-204c0 -44 -38 -79 -81 -79c-45 0 -81 35 -81 79v402c0 44 36 79 81 79c37 0 67 -24 77 -57c14 13 34 28 53 36c27 13 62 21 96 21c55 0 109 -15 149 -54
c34 -34 56 -87 56 -165v-262c0 -44 -38 -79 -81 -79c-45 0 -81 35 -81 79zM157 777c0 35 26 57 56 57c16 0 27 -5 39 -15l72 -65l72 65c12 10 23 15 39 15c30 0 56 -22 56 -57c0 -17 -10 -33 -26 -47l-98 -88c-12 -10 -25 -18 -43 -18s-31 8 -43 18l-98 88
c-16 14 -26 30 -26 47z" />
    <glyph glyph-name="Nsmallcommaaccent" unicode="&#xe0cc;" horiz-adv-x="619" 
d="M558 479v-414c0 -40 -36 -73 -76 -73c-30 0 -49 13 -67 34l-200 243v-204c0 -39 -33 -73 -78 -73s-76 34 -76 73v414c0 40 36 73 76 73c30 0 49 -13 67 -34l200 -243v204c0 39 33 73 78 73s76 -34 76 -73zM215 -366c0 40 70 49 70 100c0 47 -74 35 -74 117
c0 47 31 92 99 92c73 0 116 -53 116 -133c0 -129 -128 -205 -181 -205c-18 0 -30 13 -30 29z" />
    <glyph glyph-name="Nsmallcommaaccent.2" unicode="&#xe0cd;" horiz-adv-x="678" 
d="M246 -366c0 40 70 49 70 100c0 47 -74 35 -74 117c0 47 31 92 99 92c73 0 116 -53 116 -133c0 -129 -128 -205 -181 -205c-18 0 -30 13 -30 29zM617 479v-414c0 -39 -33 -73 -78 -73s-76 37 -76 73c0 48 -58 81 -125 116c-42 23 -84 46 -123 76v-192
c0 -39 -33 -73 -78 -73s-76 34 -76 73v414c0 39 31 73 76 73s78 -37 78 -73c0 -47 56 -81 124 -117c42 -23 85 -45 124 -76v193c0 39 31 73 76 73s78 -34 78 -73z" />
    <glyph glyph-name="Nsmallcommaaccent.3" unicode="&#xe0ce;" horiz-adv-x="626" 
d="M411 71v227c0 28 -5 63 -24 85c-11 13 -30 24 -57 24c-43 0 -67 -18 -83 -44c-18 -28 -24 -62 -24 -99v-193c0 -44 -38 -79 -81 -79c-45 0 -81 35 -81 79v402c0 44 36 79 81 79c37 0 67 -24 77 -57c14 13 34 28 53 36c27 13 62 21 96 21c55 0 109 -15 149 -54
c34 -34 56 -87 56 -165v-262c0 -44 -38 -79 -81 -79c-45 0 -81 35 -81 79zM213 -366c0 40 70 49 70 100c0 47 -74 35 -74 117c0 47 31 92 99 92c73 0 116 -53 116 -133c0 -129 -128 -205 -181 -205c-18 0 -30 13 -30 29z" />
    <glyph glyph-name="Nsmalltilde" unicode="&#xe0cf;" horiz-adv-x="619" 
d="M558 479v-414c0 -40 -36 -73 -76 -73c-30 0 -49 13 -67 34l-200 243v-204c0 -39 -33 -73 -78 -73s-76 34 -76 73v414c0 40 36 73 76 73c30 0 49 -13 67 -34l200 -243v204c0 39 33 73 78 73s76 -34 76 -73zM500 750c0 -26 -10 -49 -25 -66c-22 -26 -56 -41 -85 -41
c-36 0 -61 13 -81 27c-23 16 -41 33 -63 33c-20 0 -27 -15 -36 -29c-8 -13 -18 -24 -42 -24c-32 0 -49 24 -49 55c0 26 10 49 25 66c22 26 56 41 85 41c36 0 61 -13 81 -27c23 -16 41 -33 63 -33c20 0 27 15 36 29c8 13 18 24 42 24c32 0 49 -24 49 -55z" />
    <glyph glyph-name="Nsmalltilde.2" unicode="&#xe0d0;" horiz-adv-x="678" 
d="M530 750c0 -26 -10 -49 -25 -66c-22 -26 -56 -41 -85 -41c-36 0 -61 13 -81 27c-23 16 -41 33 -63 33c-20 0 -27 -15 -36 -29c-8 -13 -18 -24 -42 -24c-32 0 -49 24 -49 55c0 26 10 49 25 66c22 26 56 41 85 41c36 0 61 -13 81 -27c23 -16 41 -33 63 -33
c20 0 27 15 36 29c8 13 18 24 42 24c32 0 49 -24 49 -55zM617 479v-414c0 -39 -33 -73 -78 -73s-76 37 -76 73c0 48 -58 81 -125 116c-42 23 -84 46 -123 76v-192c0 -39 -33 -73 -78 -73s-76 34 -76 73v414c0 39 31 73 76 73s78 -37 78 -73c0 -47 56 -81 124 -117
c42 -23 85 -45 124 -76v193c0 39 31 73 76 73s78 -34 78 -73z" />
    <glyph glyph-name="Nsmalltilde.3" unicode="&#xe0d1;" horiz-adv-x="626" 
d="M411 71v227c0 28 -5 63 -24 85c-11 13 -30 24 -57 24c-43 0 -67 -18 -83 -44c-18 -28 -24 -62 -24 -99v-193c0 -44 -38 -79 -81 -79c-45 0 -81 35 -81 79v402c0 44 36 79 81 79c37 0 67 -24 77 -57c14 13 34 28 53 36c27 13 62 21 96 21c55 0 109 -15 149 -54
c34 -34 56 -87 56 -165v-262c0 -44 -38 -79 -81 -79c-45 0 -81 35 -81 79zM515 750c0 -26 -10 -49 -25 -66c-22 -26 -56 -41 -85 -41c-36 0 -61 13 -81 27c-23 16 -41 33 -63 33c-20 0 -27 -15 -36 -29c-8 -13 -18 -24 -42 -24c-32 0 -49 24 -49 55c0 26 10 49 25 66
c22 26 56 41 85 41c36 0 61 -13 81 -27c23 -16 41 -33 63 -33c20 0 27 15 36 29c8 13 18 24 42 24c32 0 49 -24 49 -55z" />
    <glyph glyph-name="Ntilde" unicode="&#xd1;" horiz-adv-x="744" 
d="M680 610v-524c0 -54 -46 -96 -102 -96c-35 0 -66 17 -85 43l-261 354v-318c0 -44 -38 -79 -84 -79c-47 0 -84 35 -84 79v525c0 53 45 96 101 96c35 0 66 -18 85 -44l262 -352v316c0 44 37 80 84 80c46 0 84 -36 84 -80zM561 890c0 -26 -10 -49 -25 -66
c-22 -26 -56 -41 -85 -41c-36 0 -61 13 -81 27c-23 16 -41 33 -63 33c-20 0 -27 -15 -36 -29c-8 -13 -18 -24 -42 -24c-32 0 -49 24 -49 55c0 26 10 49 25 66c22 26 56 41 85 41c36 0 61 -13 81 -27c23 -16 41 -33 63 -33c20 0 27 15 36 29c8 13 18 24 42 24
c32 0 49 -24 49 -55z" />
    <glyph glyph-name="Ntilde.2" unicode="&#xe0d2;" horiz-adv-x="789" 
d="M585 890c0 -26 -10 -49 -25 -66c-22 -26 -56 -41 -85 -41c-36 0 -61 13 -81 27c-23 16 -41 33 -63 33c-20 0 -27 -15 -36 -29c-8 -13 -18 -24 -42 -24c-32 0 -49 24 -49 55c0 26 10 49 25 66c22 26 56 41 85 41c36 0 61 -13 81 -27c23 -16 41 -33 63 -33
c20 0 27 15 36 29c8 13 18 24 42 24c32 0 49 -24 49 -55zM557 71c0 57 -76 105 -165 163c-32 21 -66 42 -98 64c-22 15 -42 31 -62 48v-275c0 -44 -37 -81 -83 -81c-47 0 -85 37 -85 81v539c0 44 38 80 85 80c46 0 83 -38 83 -80c0 -58 75 -107 164 -164
c32 -21 66 -43 99 -67c22 -15 42 -31 62 -48v279c0 44 38 80 85 80c46 0 83 -36 83 -80v-539c0 -44 -37 -81 -83 -81c-47 0 -85 40 -85 81z" />
    <glyph glyph-name="Ntilde.3" unicode="&#xe0d3;" horiz-adv-x="726" 
d="M497 75v304c0 42 -4 87 -27 114c-17 19 -43 34 -80 34c-59 0 -95 -24 -117 -59c-23 -36 -33 -79 -33 -128v-265c0 -47 -41 -85 -88 -85c-48 0 -88 38 -88 85v530c0 47 40 85 88 85c43 0 77 -29 86 -68c16 16 39 32 60 42c32 16 70 26 114 26c69 0 138 -19 188 -67
c43 -42 73 -108 73 -206v-342c0 -47 -41 -85 -88 -85c-48 0 -88 38 -88 85zM588 890c0 -26 -10 -49 -25 -66c-22 -26 -56 -41 -85 -41c-36 0 -61 13 -81 27c-23 16 -41 33 -63 33c-20 0 -27 -15 -36 -29c-8 -13 -18 -24 -42 -24c-32 0 -49 24 -49 55c0 26 10 49 25 66
c22 26 56 41 85 41c36 0 61 -13 81 -27c23 -16 41 -33 63 -33c20 0 27 15 36 29c8 13 18 24 42 24c32 0 49 -24 49 -55z" />
    <glyph glyph-name="O" unicode="O" horiz-adv-x="811" 
d="M774 339c0 -214 -171 -349 -368 -349c-198 0 -369 138 -369 349c0 213 171 351 369 351c197 0 368 -138 368 -351zM587 339c0 108 -75 186 -181 186s-182 -78 -182 -186s76 -185 182 -185s181 77 181 185z" />
    <glyph glyph-name="OE" unicode="&#x152;" horiz-adv-x="1167" 
d="M768 265v-109h294c42 0 76 -37 76 -78c0 -43 -34 -78 -76 -78h-382c-32 0 -60 16 -76 41c-58 -33 -126 -51 -197 -51c-198 0 -370 138 -370 349c0 213 172 351 370 351c71 0 139 -18 196 -52c15 26 44 43 77 43h382c42 0 76 -37 76 -78c0 -43 -34 -78 -76 -78h-294v-104
h241c42 0 76 -37 76 -78c0 -43 -34 -78 -76 -78h-241zM588 339c0 100 -80 186 -181 186s-182 -86 -182 -186s80 -185 182 -185c101 0 181 85 181 185z" />
    <glyph glyph-name="OE.1" unicode="&#xe0d4;" horiz-adv-x="1129" 
d="M1100 603c0 -43 -33 -78 -75 -78h-145c-42 0 -71 -13 -88 -33c-15 -17 -22 -39 -22 -62v-9h202c42 0 75 -36 75 -78c0 -43 -33 -78 -75 -78h-203v-9c0 -27 9 -54 30 -73c18 -16 44 -27 80 -27h146c42 0 75 -36 75 -78c0 -43 -33 -78 -75 -78h-149c-87 0 -163 25 -214 82
c-68 -59 -158 -92 -255 -92c-198 0 -370 138 -370 349c0 213 172 351 370 351c96 0 186 -33 253 -92c51 57 128 83 216 83h149c42 0 75 -36 75 -78zM588 339c0 100 -80 186 -181 186s-182 -86 -182 -186s80 -185 182 -185c101 0 181 85 181 185z" />
    <glyph glyph-name="OE.2" unicode="&#xe0d5;" horiz-adv-x="1201" 
d="M772 230v-74h325c42 0 75 -36 75 -78c0 -43 -33 -78 -75 -78h-413c-33 0 -62 17 -77 43c-58 -35 -128 -53 -200 -53c-198 0 -370 138 -370 349c0 213 172 351 370 351c72 0 141 -19 199 -54c15 27 44 45 78 45h413c42 0 75 -36 75 -78c0 -43 -33 -78 -75 -78h-325v-139
h256c42 0 75 -36 75 -78c0 -43 -33 -78 -75 -78h-256zM588 339c0 100 -80 186 -181 186s-182 -86 -182 -186s80 -185 182 -185c101 0 181 85 181 185z" />
    <glyph glyph-name="OE.3" unicode="&#xe0d6;" horiz-adv-x="1276" 
d="M1137 275h-352c12 -39 32 -69 60 -90c31 -24 71 -36 115 -36c42 0 70 6 92 14c37 13 57 30 89 30c45 0 77 -35 77 -82c0 -46 -36 -74 -82 -92c-60 -23 -132 -29 -179 -29c-127 0 -209 35 -269 93l-12 12c-69 -68 -166 -105 -269 -105c-198 0 -370 138 -370 349
c0 213 172 351 370 351c103 0 199 -38 267 -105l12 12c55 55 137 93 242 93c111 0 186 -36 235 -86c65 -66 84 -139 84 -202c0 -90 -50 -127 -110 -127zM588 339c0 100 -80 186 -181 186s-182 -86 -182 -186s80 -185 182 -185c101 0 181 85 181 185zM787 426h274
c-4 28 -16 51 -33 68c-23 23 -56 33 -98 33s-79 -14 -106 -40c-16 -16 -29 -36 -37 -61z" />
    <glyph glyph-name="OEsmall" unicode="&#xf6fa;" horiz-adv-x="917" 
d="M618 202v-58h210c40 0 72 -29 72 -72s-32 -72 -72 -72h-291c-23 0 -44 9 -59 24c-43 -21 -94 -32 -149 -32c-109 0 -199 44 -250 120c-29 44 -45 97 -45 160s16 116 45 160c51 76 141 120 250 120c55 0 106 -11 149 -33c15 15 36 25 59 25h291c40 0 72 -29 72 -72
s-32 -72 -72 -72h-210v-54h169c40 0 72 -29 72 -72s-32 -72 -72 -72h-169zM203 272c0 -32 9 -60 25 -82c22 -30 58 -49 101 -49s79 19 101 49c16 22 25 50 25 82s-9 60 -25 82c-22 30 -58 49 -101 49s-79 -19 -101 -49c-16 -22 -25 -50 -25 -82z" />
    <glyph glyph-name="OEsmall.2" unicode="&#xe0d7;" horiz-adv-x="947" 
d="M618 196v-52h240c40 0 72 -29 72 -72s-32 -72 -72 -72h-321c-23 0 -44 9 -59 24c-43 -21 -94 -32 -149 -32c-109 0 -199 44 -250 120c-29 44 -45 97 -45 160s16 116 45 160c51 76 141 120 250 120c55 0 106 -11 149 -33c15 15 36 25 59 25h321c40 0 72 -29 72 -72
s-32 -72 -72 -72h-240v-60h179c40 0 72 -29 72 -72s-32 -72 -72 -72h-179zM203 272c0 -32 9 -60 25 -82c22 -30 58 -49 101 -49s79 19 101 49c16 22 25 50 25 82s-9 60 -25 82c-22 30 -58 49 -101 49s-79 -19 -101 -49c-16 -22 -25 -50 -25 -82z" />
    <glyph glyph-name="OEsmall.3" unicode="&#xe0d8;" horiz-adv-x="1011" 
d="M752 138c30 0 51 4 69 10c28 10 45 22 70 22c41 0 70 -33 70 -74c0 -39 -26 -64 -77 -83c-47 -18 -101 -21 -136 -21c-99 0 -163 27 -211 72c-52 -46 -125 -72 -208 -72c-109 0 -199 44 -250 120c-29 44 -45 97 -45 160s16 116 45 160c51 76 141 120 250 120
c83 0 155 -26 207 -72c44 43 110 72 190 72c89 0 150 -30 190 -70c52 -53 67 -113 67 -163c0 -77 -44 -106 -97 -106h-248c9 -22 19 -36 34 -49c22 -19 50 -26 80 -26zM203 272c0 -32 9 -60 25 -82c22 -30 58 -49 101 -49s79 19 101 49c16 22 25 50 25 82s-10 61 -25 82
c-22 30 -58 49 -101 49s-79 -19 -101 -49c-16 -22 -25 -50 -25 -82zM639 340h176c-3 20 -12 37 -26 48c-15 12 -35 18 -60 18c-22 0 -43 -7 -60 -21c-13 -11 -24 -26 -30 -45z" />
    <glyph glyph-name="Oacute" unicode="&#xd3;" horiz-adv-x="811" 
d="M774 339c0 -214 -171 -349 -368 -349c-198 0 -369 138 -369 349c0 213 171 351 369 351c197 0 368 -138 368 -351zM587 339c0 108 -75 186 -181 186s-182 -78 -182 -186s76 -185 182 -185s181 77 181 185zM320 812c0 13 4 24 10 36l42 89c10 22 27 39 56 39
c33 0 63 -26 63 -59c0 -14 -4 -23 -15 -41l-51 -82c-13 -21 -29 -33 -51 -33c-29 0 -54 22 -54 51z" />
    <glyph glyph-name="Ocircumflex" unicode="&#xd4;" horiz-adv-x="811" 
d="M774 339c0 -214 -171 -349 -368 -349c-198 0 -369 138 -369 349c0 213 171 351 369 351c197 0 368 -138 368 -351zM587 339c0 108 -75 186 -181 186s-182 -78 -182 -186s76 -185 182 -185s181 77 181 185zM405 974c18 0 31 -8 43 -18l98 -88c16 -14 26 -30 26 -47
c0 -35 -26 -57 -56 -57c-16 0 -27 5 -39 15l-72 65l-72 -65c-12 -10 -23 -15 -39 -15c-30 0 -56 22 -56 57c0 17 10 33 26 47l98 88c12 10 25 18 43 18z" />
    <glyph glyph-name="Odieresis" unicode="&#xd6;" horiz-adv-x="811" 
d="M774 339c0 -214 -171 -349 -368 -349c-198 0 -369 138 -369 349c0 213 171 351 369 351c197 0 368 -138 368 -351zM587 339c0 108 -75 186 -181 186s-182 -78 -182 -186s76 -185 182 -185s181 77 181 185zM278 765c-51 0 -92 42 -92 93s41 92 92 92c52 0 93 -41 93 -92
s-41 -93 -93 -93zM532 765c-51 0 -92 42 -92 93s41 92 92 92s92 -41 92 -92s-41 -93 -92 -93z" />
    <glyph glyph-name="Ograve" unicode="&#xd2;" horiz-adv-x="811" 
d="M774 339c0 -214 -171 -349 -368 -349c-198 0 -369 138 -369 349c0 213 171 351 369 351c197 0 368 -138 368 -351zM587 339c0 108 -75 186 -181 186s-182 -78 -182 -186s76 -185 182 -185s181 77 181 185zM491 812c0 -29 -25 -51 -54 -51c-22 0 -39 11 -51 33l-51 82
c-11 18 -15 27 -15 41c0 33 30 59 63 59c29 0 46 -17 56 -39l42 -89c6 -12 10 -23 10 -36z" />
    <glyph glyph-name="Ohungarumlaut" unicode="&#x150;" horiz-adv-x="811" 
d="M774 339c0 -214 -171 -349 -368 -349c-198 0 -369 138 -369 349c0 213 171 351 369 351c197 0 368 -138 368 -351zM587 339c0 108 -75 186 -181 186s-182 -78 -182 -186s76 -185 182 -185s181 77 181 185zM212 810c0 13 4 24 10 36l42 89c10 22 27 39 56 39
c33 0 63 -26 63 -59c0 -14 -4 -23 -15 -41l-51 -82c-13 -21 -29 -33 -51 -33c-29 0 -54 22 -54 51zM428 810c0 13 4 24 10 36l42 89c10 22 27 39 56 39c33 0 63 -26 63 -59c0 -14 -4 -23 -15 -41l-51 -82c-13 -21 -29 -33 -51 -33c-29 0 -54 22 -54 51z" />
    <glyph glyph-name="Omacron" unicode="&#x14c;" horiz-adv-x="811" 
d="M557 865c0 -36 -29 -65 -65 -65h-170c-36 0 -65 29 -65 65c0 37 29 66 65 66h170c36 0 65 -29 65 -66zM774 339c0 -214 -171 -349 -368 -349c-198 0 -369 138 -369 349c0 213 171 351 369 351c197 0 368 -138 368 -351zM587 339c0 108 -75 186 -181 186
s-182 -78 -182 -186s76 -185 182 -185s181 77 181 185z" />
    <glyph glyph-name="Omega" unicode="&#x2126;" horiz-adv-x="745" 
d="M373 690c192 0 313 -105 313 -293c0 -64 -16 -121 -40 -168c-19 -37 -43 -69 -69 -93h55c38 0 69 -32 69 -68c0 -37 -31 -68 -69 -68h-149c-47 0 -72 32 -72 66c0 36 23 66 46 110c22 43 43 100 43 189c0 103 -45 166 -127 166s-127 -63 -127 -166c0 -89 22 -146 44 -189
c23 -44 45 -74 45 -110c0 -34 -25 -66 -72 -66h-149c-38 0 -69 31 -69 68c0 36 31 68 69 68h55c-25 24 -49 56 -68 93c-25 47 -41 104 -41 168c0 188 121 293 313 293z" />
    <glyph glyph-name="Oslash" unicode="&#xd8;" horiz-adv-x="811" 
d="M614 665c11 13 26 19 42 19c31 0 58 -25 58 -58c0 -13 -4 -26 -13 -36l-16 -18c55 -59 89 -139 89 -233c0 -214 -171 -349 -368 -349c-69 0 -134 16 -190 46l-19 -22c-11 -13 -26 -19 -42 -19c-32 0 -58 26 -58 58c0 13 4 26 13 36l15 18c-54 59 -88 138 -88 232
c0 213 171 351 369 351c68 0 133 -17 189 -47zM588 339c0 33 -9 66 -25 93l-230 -263c22 -10 47 -15 73 -15c101 0 182 85 182 185zM225 339c0 -33 8 -65 23 -92l230 262c-22 10 -47 16 -72 16c-101 0 -181 -86 -181 -186z" />
    <glyph glyph-name="Osmall" unicode="&#xf76f;" horiz-adv-x="658" 
d="M203 272c0 -32 9 -60 25 -82c22 -30 58 -49 101 -49s79 19 101 49c16 22 25 50 25 82s-9 60 -25 82c-22 30 -58 49 -101 49s-79 -19 -101 -49c-16 -22 -25 -50 -25 -82zM34 272c0 63 16 116 45 160c51 76 141 120 250 120s199 -44 250 -120c29 -44 45 -97 45 -160
s-16 -116 -45 -160c-51 -76 -141 -120 -250 -120s-199 44 -250 120c-29 44 -45 97 -45 160z" />
    <glyph glyph-name="Osmallacute" unicode="&#xe0d9;" horiz-adv-x="658" 
d="M203 272c0 -32 9 -60 25 -82c22 -30 58 -49 101 -49s79 19 101 49c16 22 25 50 25 82s-9 60 -25 82c-22 30 -58 49 -101 49s-79 -19 -101 -49c-16 -22 -25 -50 -25 -82zM34 272c0 63 16 116 45 160c51 76 141 120 250 120s199 -44 250 -120c29 -44 45 -97 45 -160
s-16 -116 -45 -160c-51 -76 -141 -120 -250 -120s-199 44 -250 120c-29 44 -45 97 -45 160zM244 672c0 13 4 24 10 36l42 89c10 22 27 39 56 39c33 0 63 -26 63 -59c0 -14 -4 -23 -15 -41l-51 -82c-13 -21 -29 -33 -51 -33c-29 0 -54 22 -54 51z" />
    <glyph glyph-name="Osmallcircumflex" unicode="&#xe0da;" horiz-adv-x="658" 
d="M203 272c0 -32 9 -60 25 -82c22 -30 58 -49 101 -49s79 19 101 49c16 22 25 50 25 82s-9 60 -25 82c-22 30 -58 49 -101 49s-79 -19 -101 -49c-16 -22 -25 -50 -25 -82zM34 272c0 63 16 116 45 160c51 76 141 120 250 120s199 -44 250 -120c29 -44 45 -97 45 -160
s-16 -116 -45 -160c-51 -76 -141 -120 -250 -120s-199 44 -250 120c-29 44 -45 97 -45 160zM329 834c18 0 31 -8 43 -18l98 -88c16 -14 26 -30 26 -47c0 -35 -26 -57 -56 -57c-16 0 -27 5 -39 15l-72 65l-72 -65c-12 -10 -23 -15 -39 -15c-30 0 -56 22 -56 57
c0 17 10 33 26 47l98 88c12 10 25 18 43 18z" />
    <glyph glyph-name="Osmalldieresis" unicode="&#xe0db;" horiz-adv-x="658" 
d="M203 272c0 -32 9 -60 25 -82c22 -30 58 -49 101 -49s79 19 101 49c16 22 25 50 25 82s-9 60 -25 82c-22 30 -58 49 -101 49s-79 -19 -101 -49c-16 -22 -25 -50 -25 -82zM34 272c0 63 16 116 45 160c51 76 141 120 250 120s199 -44 250 -120c29 -44 45 -97 45 -160
s-16 -116 -45 -160c-51 -76 -141 -120 -250 -120s-199 44 -250 120c-29 44 -45 97 -45 160zM202 625c-51 0 -92 42 -92 93s41 92 92 92c52 0 93 -41 93 -92s-41 -93 -93 -93zM456 625c-51 0 -92 42 -92 93s41 92 92 92s92 -41 92 -92s-41 -93 -92 -93z" />
    <glyph glyph-name="Osmallgrave" unicode="&#xe0dc;" horiz-adv-x="658" 
d="M203 272c0 -32 9 -60 25 -82c22 -30 58 -49 101 -49s79 19 101 49c16 22 25 50 25 82s-9 60 -25 82c-22 30 -58 49 -101 49s-79 -19 -101 -49c-16 -22 -25 -50 -25 -82zM34 272c0 63 16 116 45 160c51 76 141 120 250 120s199 -44 250 -120c29 -44 45 -97 45 -160
s-16 -116 -45 -160c-51 -76 -141 -120 -250 -120s-199 44 -250 120c-29 44 -45 97 -45 160zM415 672c0 -29 -25 -51 -54 -51c-22 0 -39 11 -51 33l-51 82c-11 18 -15 27 -15 41c0 33 30 59 63 59c29 0 46 -17 56 -39l42 -89c6 -12 10 -23 10 -36z" />
    <glyph glyph-name="Osmallhungarumlaut" unicode="&#xe0dd;" horiz-adv-x="658" 
d="M203 272c0 -32 9 -60 25 -82c22 -30 58 -49 101 -49s79 19 101 49c16 22 25 50 25 82s-9 60 -25 82c-22 30 -58 49 -101 49s-79 -19 -101 -49c-16 -22 -25 -50 -25 -82zM34 272c0 63 16 116 45 160c51 76 141 120 250 120s199 -44 250 -120c29 -44 45 -97 45 -160
s-16 -116 -45 -160c-51 -76 -141 -120 -250 -120s-199 44 -250 120c-29 44 -45 97 -45 160zM162 672c0 13 4 24 10 36l42 89c10 22 27 39 56 39c33 0 63 -26 63 -59c0 -14 -4 -23 -15 -41l-51 -82c-13 -21 -29 -33 -51 -33c-29 0 -54 22 -54 51zM378 672c0 13 4 24 10 36
l42 89c10 22 27 39 56 39c33 0 63 -26 63 -59c0 -14 -4 -23 -15 -41l-51 -82c-13 -21 -29 -33 -51 -33c-29 0 -54 22 -54 51z" />
    <glyph glyph-name="Osmallmacron" unicode="&#xe0de;" horiz-adv-x="658" 
d="M203 272c0 -32 9 -60 25 -82c22 -30 58 -49 101 -49s79 19 101 49c16 22 25 50 25 82s-9 60 -25 82c-22 30 -58 49 -101 49s-79 -19 -101 -49c-16 -22 -25 -50 -25 -82zM34 272c0 63 16 116 45 160c51 76 141 120 250 120s199 -44 250 -120c29 -44 45 -97 45 -160
s-16 -116 -45 -160c-51 -76 -141 -120 -250 -120s-199 44 -250 120c-29 44 -45 97 -45 160zM479 702c0 -36 -29 -65 -65 -65h-170c-36 0 -65 29 -65 65c0 37 29 66 65 66h170c36 0 65 -29 65 -66z" />
    <glyph glyph-name="Osmalltilde" unicode="&#xe0df;" horiz-adv-x="658" 
d="M203 272c0 -32 9 -60 25 -82c22 -30 58 -49 101 -49s79 19 101 49c16 22 25 50 25 82s-9 60 -25 82c-22 30 -58 49 -101 49s-79 -19 -101 -49c-16 -22 -25 -50 -25 -82zM34 272c0 63 16 116 45 160c51 76 141 120 250 120s199 -44 250 -120c29 -44 45 -97 45 -160
s-16 -116 -45 -160c-51 -76 -141 -120 -250 -120s-199 44 -250 120c-29 44 -45 97 -45 160zM520 750c0 -26 -10 -49 -25 -66c-22 -26 -56 -41 -85 -41c-36 0 -61 13 -81 27c-23 16 -41 33 -63 33c-20 0 -27 -15 -36 -29c-8 -13 -18 -24 -42 -24c-32 0 -49 24 -49 55
c0 26 10 49 25 66c22 26 56 41 85 41c36 0 61 -13 81 -27c23 -16 41 -33 63 -33c20 0 27 15 36 29c8 13 18 24 42 24c32 0 49 -24 49 -55z" />
    <glyph glyph-name="Otilde" unicode="&#xd5;" horiz-adv-x="811" 
d="M774 339c0 -214 -171 -349 -368 -349c-198 0 -369 138 -369 349c0 213 171 351 369 351c197 0 368 -138 368 -351zM587 339c0 108 -75 186 -181 186s-182 -78 -182 -186s76 -185 182 -185s181 77 181 185zM594 890c0 -26 -10 -49 -25 -66c-22 -26 -56 -41 -85 -41
c-36 0 -61 13 -81 27c-23 16 -41 33 -63 33c-20 0 -27 -15 -36 -29c-8 -13 -18 -24 -42 -24c-32 0 -49 24 -49 55c0 26 10 49 25 66c22 26 56 41 85 41c36 0 61 -13 81 -27c23 -16 41 -33 63 -33c20 0 27 15 36 29c8 13 18 24 42 24c32 0 49 -24 49 -55z" />
    <glyph glyph-name="P" unicode="P" horiz-adv-x="657" 
d="M152 681h221c56 0 116 -11 166 -53c52 -43 85 -111 85 -192c0 -84 -36 -154 -92 -197c-48 -38 -101 -48 -154 -48h-138v-116c0 -47 -41 -85 -88 -85c-48 0 -88 38 -88 85v520c0 48 40 86 88 86zM445 436c0 39 -14 63 -35 76c-17 11 -38 15 -59 15h-111v-182h111
c21 0 42 4 58 14c22 13 36 37 36 77z" />
    <glyph glyph-name="P.2" unicode="&#xe0e0;" horiz-adv-x="697" 
d="M152 681h261c56 0 116 -11 166 -53c52 -43 85 -111 85 -192c0 -84 -36 -154 -92 -197c-48 -38 -101 -48 -154 -48h-178v-116c0 -47 -41 -85 -88 -85c-48 0 -88 38 -88 85v520c0 48 40 86 88 86zM485 436c0 39 -14 63 -35 76c-17 11 -38 15 -59 15h-151v-182h151
c21 0 42 4 58 14c22 13 36 37 36 77z" />
    <glyph glyph-name="Psmall" unicode="&#xf770;" horiz-adv-x="536" 
d="M143 544h164c74 0 128 -23 163 -61c32 -35 47 -83 47 -137c0 -63 -20 -114 -58 -149c-37 -34 -90 -52 -159 -52h-77v-75c0 -43 -37 -78 -80 -78c-45 0 -82 35 -82 78v394c0 45 37 80 82 80zM352 346c0 19 -6 32 -15 42c-13 14 -35 16 -50 16h-65v-119h65c13 0 29 2 42 10
c14 8 23 25 23 51z" />
    <glyph glyph-name="Psmall.2" unicode="&#xe0e1;" horiz-adv-x="566" 
d="M382 346c0 19 -6 32 -15 42c-13 14 -35 16 -50 16h-95v-119h95c13 0 29 2 42 10c14 8 23 25 23 51zM143 544h194c74 0 128 -23 163 -61c32 -35 47 -83 47 -137c0 -63 -20 -114 -58 -149c-37 -34 -90 -52 -159 -52h-107v-75c0 -43 -37 -78 -80 -78c-45 0 -82 35 -82 78
v394c0 45 37 80 82 80z" />
    <glyph glyph-name="Q" unicode="Q" horiz-adv-x="811" 
d="M774 339c0 -168 -105 -287 -245 -331c0 -7 4 -11 11 -13c61 -18 124 -32 194 -48c33 -8 64 -25 64 -78c0 -49 -40 -81 -89 -81c-72 0 -215 61 -386 128c-27 11 -42 25 -42 54c0 14 5 26 12 35c-146 42 -256 164 -256 334c0 213 171 351 369 351c197 0 368 -138 368 -351z
M587 339c0 108 -75 186 -181 186s-182 -78 -182 -186s76 -185 182 -185s181 77 181 185z" />
    <glyph glyph-name="Qsmall" unicode="&#xf771;" horiz-adv-x="658" 
d="M34 272c0 63 16 116 45 160c51 76 141 120 250 120s199 -44 250 -120c29 -44 45 -97 45 -160s-16 -116 -45 -160c-38 -56 -97 -95 -169 -112c1 -4 3 -7 7 -8c56 -17 126 -33 193 -42c32 -4 64 -22 64 -70c0 -46 -39 -71 -82 -71c-65 0 -178 37 -329 95
c-24 9 -40 28 -40 55c0 19 8 33 18 43c-69 17 -126 55 -162 110c-29 44 -45 97 -45 160zM203 272c0 -32 9 -60 25 -82c22 -30 58 -49 101 -49s79 19 101 49c16 22 25 50 25 82s-9 60 -25 82c-22 30 -58 49 -101 49s-79 -19 -101 -49c-16 -22 -25 -50 -25 -82z" />
    <glyph glyph-name="R" unicode="R" horiz-adv-x="687" 
d="M240 222v-147c0 -47 -41 -85 -88 -85c-49 0 -88 38 -88 85v520c0 48 39 86 88 86h233c67 0 130 -14 175 -49c51 -40 79 -107 79 -179c0 -60 -22 -120 -75 -168c-9 -8 -18 -15 -27 -21l90 -143c8 -13 12 -27 12 -42c0 -47 -41 -89 -89 -89c-30 0 -58 14 -74 41l-115 191
h-121zM373 532h-133v-162h131c21 0 42 5 58 15c19 13 31 35 31 66c0 30 -10 51 -28 64c-16 12 -38 17 -59 17z" />
    <glyph glyph-name="R.2" unicode="&#xe0e2;" horiz-adv-x="788" 
d="M240 222v-147c0 -47 -41 -85 -88 -85c-49 0 -88 38 -88 85v520c0 48 39 86 88 86h281c67 0 130 -14 175 -49c51 -40 79 -107 79 -179c0 -60 -22 -120 -75 -168c-31 -28 -62 -43 -94 -52c22 -49 50 -86 93 -86c51 0 58 30 98 30c39 0 68 -33 68 -74
c0 -72 -73 -113 -173 -113c-158 0 -218 104 -271 232h-93zM421 532h-181v-162h179c21 0 42 5 58 15c19 13 31 35 31 66c0 30 -10 51 -28 64c-16 12 -38 17 -59 17z" />
    <glyph glyph-name="Racute" unicode="&#x154;" horiz-adv-x="687" 
d="M240 222v-147c0 -47 -41 -85 -88 -85c-49 0 -88 38 -88 85v520c0 48 39 86 88 86h233c67 0 130 -14 175 -49c51 -40 79 -107 79 -179c0 -60 -22 -120 -75 -168c-9 -8 -18 -15 -27 -21l90 -143c8 -13 12 -27 12 -42c0 -47 -41 -89 -89 -89c-30 0 -58 14 -74 41l-115 191
h-121zM373 532h-133v-162h131c21 0 42 5 58 15c19 13 31 35 31 66c0 30 -10 51 -28 64c-16 12 -38 17 -59 17zM251 812c0 13 4 24 10 36l42 89c10 22 27 39 56 39c33 0 63 -26 63 -59c0 -14 -4 -23 -15 -41l-51 -82c-13 -21 -29 -33 -51 -33c-29 0 -54 22 -54 51z" />
    <glyph glyph-name="Racute.2" unicode="&#xe0e3;" horiz-adv-x="788" 
d="M240 222v-147c0 -47 -41 -85 -88 -85c-49 0 -88 38 -88 85v520c0 48 39 86 88 86h281c67 0 130 -14 175 -49c51 -40 79 -107 79 -179c0 -60 -22 -120 -75 -168c-31 -28 -62 -43 -94 -52c22 -49 50 -86 93 -86c51 0 58 30 98 30c39 0 68 -33 68 -74
c0 -72 -73 -113 -173 -113c-158 0 -218 104 -271 232h-93zM421 532h-181v-162h179c21 0 42 5 58 15c19 13 31 35 31 66c0 30 -10 51 -28 64c-16 12 -38 17 -59 17zM296 812c0 13 4 24 10 36l42 89c10 22 27 39 56 39c33 0 63 -26 63 -59c0 -14 -4 -23 -15 -41l-51 -82
c-13 -21 -29 -33 -51 -33c-29 0 -54 22 -54 51z" />
    <glyph glyph-name="Rcaron" unicode="&#x158;" horiz-adv-x="687" 
d="M240 222v-147c0 -47 -41 -85 -88 -85c-49 0 -88 38 -88 85v520c0 48 39 86 88 86h233c67 0 130 -14 175 -49c51 -40 79 -107 79 -179c0 -60 -22 -120 -75 -168c-9 -8 -18 -15 -27 -21l90 -143c8 -13 12 -27 12 -42c0 -47 -41 -89 -89 -89c-30 0 -58 14 -74 41l-115 191
h-121zM169 917c0 35 26 57 56 57c16 0 27 -5 39 -15l72 -65l72 65c12 10 23 15 39 15c30 0 56 -22 56 -57c0 -17 -10 -33 -26 -47l-98 -88c-12 -10 -25 -18 -43 -18s-31 8 -43 18l-98 88c-16 14 -26 30 -26 47zM373 532h-133v-162h131c21 0 42 5 58 15c19 13 31 35 31 66
c0 30 -10 51 -28 64c-16 12 -38 17 -59 17z" />
    <glyph glyph-name="Rcaron.2" unicode="&#xe0e4;" horiz-adv-x="788" 
d="M240 222v-147c0 -47 -41 -85 -88 -85c-49 0 -88 38 -88 85v520c0 48 39 86 88 86h281c67 0 130 -14 175 -49c51 -40 79 -107 79 -179c0 -60 -22 -120 -75 -168c-31 -28 -62 -43 -94 -52c22 -49 50 -86 93 -86c51 0 58 30 98 30c39 0 68 -33 68 -74
c0 -72 -73 -113 -173 -113c-158 0 -218 104 -271 232h-93zM205 917c0 35 26 57 56 57c16 0 27 -5 39 -15l72 -65l72 65c12 10 23 15 39 15c30 0 56 -22 56 -57c0 -17 -10 -33 -26 -47l-98 -88c-12 -10 -25 -18 -43 -18s-31 8 -43 18l-98 88c-16 14 -26 30 -26 47zM421 532
h-181v-162h179c21 0 42 5 58 15c19 13 31 35 31 66c0 30 -10 51 -28 64c-16 12 -38 17 -59 17z" />
    <glyph glyph-name="Rcommaaccent" unicode="&#x156;" horiz-adv-x="687" 
d="M240 222v-147c0 -47 -41 -85 -88 -85c-49 0 -88 38 -88 85v520c0 48 39 86 88 86h233c67 0 130 -14 175 -49c51 -40 79 -107 79 -179c0 -60 -22 -120 -75 -168c-9 -8 -18 -15 -27 -21l90 -143c8 -13 12 -27 12 -42c0 -47 -41 -89 -89 -89c-30 0 -58 14 -74 41l-115 191
h-121zM251 -366c0 40 70 49 70 100c0 47 -74 35 -74 117c0 47 31 92 99 92c73 0 116 -53 116 -133c0 -129 -128 -205 -181 -205c-18 0 -30 13 -30 29zM373 532h-133v-162h131c21 0 42 5 58 15c19 13 31 35 31 66c0 30 -10 51 -28 64c-16 12 -38 17 -59 17z" />
    <glyph glyph-name="Rcommaaccent.2" unicode="&#xe0e5;" horiz-adv-x="788" 
d="M240 222v-147c0 -47 -41 -85 -88 -85c-49 0 -88 38 -88 85v520c0 48 39 86 88 86h281c67 0 130 -14 175 -49c51 -40 79 -107 79 -179c0 -60 -22 -120 -75 -168c-31 -28 -62 -43 -94 -52c22 -49 50 -86 93 -86c51 0 58 30 98 30c39 0 68 -33 68 -74
c0 -72 -73 -113 -173 -113c-158 0 -218 104 -271 232h-93zM315 -366c0 40 70 49 70 100c0 47 -74 35 -74 117c0 47 31 92 99 92c73 0 116 -53 116 -133c0 -129 -128 -205 -181 -205c-18 0 -30 13 -30 29zM421 532h-181v-162h179c21 0 42 5 58 15c19 13 31 35 31 66
c0 30 -10 51 -28 64c-16 12 -38 17 -59 17z" />
    <glyph glyph-name="Rsmall" unicode="&#xf772;" horiz-adv-x="552" 
d="M377 30l-84 139h-70v-99c0 -43 -37 -78 -80 -78c-46 0 -82 35 -82 78v394c0 45 36 80 82 80h177c129 0 208 -71 208 -187c0 -64 -29 -115 -76 -148l56 -85c14 -22 19 -36 19 -53c0 -50 -38 -79 -82 -79c-32 0 -53 13 -68 38zM311 404h-88v-96h86c31 0 53 12 53 48
c0 37 -25 48 -51 48z" />
    <glyph glyph-name="Rsmall.2" unicode="&#xe0e6;" horiz-adv-x="619" 
d="M496 120c32 0 34 20 69 20c31 0 55 -26 55 -59c0 -46 -45 -91 -139 -91c-105 0 -155 50 -202 155h-56v-75c0 -45 -35 -78 -80 -78s-82 33 -82 78v394c0 45 37 80 82 80h194c74 0 128 -23 163 -61c32 -35 47 -83 47 -137c0 -63 -20 -114 -58 -149c-15 -14 -32 -24 -51 -33
c21 -35 37 -44 58 -44zM382 346c0 19 -6 32 -15 42c-13 14 -35 16 -50 16h-95v-119h95c13 0 29 2 42 10c14 8 23 25 23 51z" />
    <glyph glyph-name="Rsmallacute" unicode="&#xe0e7;" horiz-adv-x="552" 
d="M377 30l-84 139h-70v-99c0 -43 -37 -78 -80 -78c-46 0 -82 35 -82 78v394c0 45 36 80 82 80h177c129 0 208 -71 208 -187c0 -64 -29 -115 -76 -148l56 -85c14 -22 19 -36 19 -53c0 -50 -38 -79 -82 -79c-32 0 -53 13 -68 38zM211 672c0 13 4 24 10 36l42 89
c10 22 27 39 56 39c33 0 63 -26 63 -59c0 -14 -4 -23 -15 -41l-51 -82c-13 -21 -29 -33 -51 -33c-29 0 -54 22 -54 51zM311 404h-88v-96h86c31 0 53 12 53 48c0 37 -25 48 -51 48z" />
    <glyph glyph-name="Rsmallacute.2" unicode="&#xe0e8;" horiz-adv-x="619" 
d="M496 120c32 0 34 20 69 20c31 0 55 -26 55 -59c0 -46 -45 -91 -139 -91c-105 0 -155 50 -202 155h-56v-75c0 -45 -35 -78 -80 -78s-82 33 -82 78v394c0 45 37 80 82 80h194c74 0 128 -23 163 -61c32 -35 47 -83 47 -137c0 -63 -20 -114 -58 -149c-15 -14 -32 -24 -51 -33
c21 -35 37 -44 58 -44zM229 672c0 13 4 24 10 36l42 89c10 22 27 39 56 39c33 0 63 -26 63 -59c0 -14 -4 -23 -15 -41l-51 -82c-13 -21 -29 -33 -51 -33c-29 0 -54 22 -54 51zM382 346c0 19 -6 32 -15 42c-13 14 -35 16 -50 16h-95v-119h95c13 0 29 2 42 10
c14 8 23 25 23 51z" />
    <glyph glyph-name="Rsmallcaron" unicode="&#xe0e9;" horiz-adv-x="552" 
d="M377 30l-84 139h-70v-99c0 -43 -37 -78 -80 -78c-46 0 -82 35 -82 78v394c0 45 36 80 82 80h177c129 0 208 -71 208 -187c0 -64 -29 -115 -76 -148l56 -85c14 -22 19 -36 19 -53c0 -50 -38 -79 -82 -79c-32 0 -53 13 -68 38zM122 777c0 35 26 57 56 57c16 0 27 -5 39 -15
l72 -65l72 65c12 10 23 15 39 15c30 0 56 -22 56 -57c0 -17 -10 -33 -26 -47l-98 -88c-12 -10 -25 -18 -43 -18s-31 8 -43 18l-98 88c-16 14 -26 30 -26 47zM311 404h-88v-96h86c31 0 53 12 53 48c0 37 -25 48 -51 48z" />
    <glyph glyph-name="Rsmallcaron.2" unicode="&#xe0ea;" horiz-adv-x="619" 
d="M496 120c32 0 34 20 69 20c31 0 55 -26 55 -59c0 -46 -45 -91 -139 -91c-105 0 -155 50 -202 155h-56v-75c0 -45 -35 -78 -80 -78s-82 33 -82 78v394c0 45 37 80 82 80h194c74 0 128 -23 163 -61c32 -35 47 -83 47 -137c0 -63 -20 -114 -58 -149c-15 -14 -32 -24 -51 -33
c21 -35 37 -44 58 -44zM145 777c0 35 26 57 56 57c16 0 27 -5 39 -15l72 -65l72 65c12 10 23 15 39 15c30 0 56 -22 56 -57c0 -17 -10 -33 -26 -47l-98 -88c-12 -10 -25 -18 -43 -18s-31 8 -43 18l-98 88c-16 14 -26 30 -26 47zM382 346c0 19 -6 32 -15 42
c-13 14 -35 16 -50 16h-95v-119h95c13 0 29 2 42 10c14 8 23 25 23 51z" />
    <glyph glyph-name="Rsmallcommaaccent" unicode="&#xe0eb;" horiz-adv-x="552" 
d="M377 30l-84 139h-70v-99c0 -43 -37 -78 -80 -78c-46 0 -82 35 -82 78v394c0 45 36 80 82 80h177c129 0 208 -71 208 -187c0 -64 -29 -115 -76 -148l56 -85c14 -22 19 -36 19 -53c0 -50 -38 -79 -82 -79c-32 0 -53 13 -68 38zM188 -366c0 40 70 49 70 100
c0 47 -74 35 -74 117c0 47 31 92 99 92c73 0 116 -53 116 -133c0 -129 -128 -205 -181 -205c-18 0 -30 13 -30 29zM311 404h-88v-96h86c31 0 53 12 53 48c0 37 -25 48 -51 48z" />
    <glyph glyph-name="Rsmallcommaaccent.2" unicode="&#xe0ec;" horiz-adv-x="619" 
d="M496 120c32 0 34 20 69 20c31 0 55 -26 55 -59c0 -46 -45 -91 -139 -91c-105 0 -155 50 -202 155h-56v-75c0 -45 -35 -78 -80 -78s-82 33 -82 78v394c0 45 37 80 82 80h194c74 0 128 -23 163 -61c32 -35 47 -83 47 -137c0 -63 -20 -114 -58 -149c-15 -14 -32 -24 -51 -33
c21 -35 37 -44 58 -44zM221 -366c0 40 70 49 70 100c0 47 -74 35 -74 117c0 47 31 92 99 92c73 0 116 -53 116 -133c0 -129 -128 -205 -181 -205c-18 0 -30 13 -30 29zM382 346c0 19 -6 32 -15 42c-13 14 -35 16 -50 16h-95v-119h95c13 0 29 2 42 10c14 8 23 25 23 51z" />
    <glyph glyph-name="S" unicode="S" horiz-adv-x="590" 
d="M535 577c0 -46 -35 -82 -83 -82c-29 0 -53 13 -82 25c-22 9 -47 18 -79 18c-50 0 -72 -14 -72 -39c0 -31 34 -46 81 -60c56 -17 131 -32 184 -73c44 -33 73 -81 73 -156c0 -138 -121 -220 -272 -220c-37 0 -113 6 -173 29c-46 18 -82 46 -82 90c0 48 38 84 83 84
c24 0 45 -12 70 -24c27 -13 57 -27 100 -27c74 0 82 37 82 54c0 35 -36 52 -84 67c-52 17 -120 32 -171 69c-45 34 -77 83 -77 163c0 109 92 195 268 195c40 0 109 -4 162 -26c41 -17 72 -44 72 -87z" />
    <glyph glyph-name="Sacute" unicode="&#x15a;" horiz-adv-x="590" 
d="M205 812c0 13 4 24 10 36l42 89c10 22 27 39 56 39c33 0 63 -26 63 -59c0 -14 -4 -23 -15 -41l-51 -82c-13 -21 -29 -33 -51 -33c-29 0 -54 22 -54 51zM535 577c0 -46 -35 -82 -83 -82c-29 0 -53 13 -82 25c-22 9 -47 18 -79 18c-50 0 -72 -14 -72 -39
c0 -31 34 -46 81 -60c56 -17 130 -33 184 -73c43 -34 73 -81 73 -156c0 -138 -121 -220 -272 -220c-37 0 -113 6 -173 29c-46 18 -82 46 -82 90c0 48 38 84 83 84c24 0 45 -12 70 -24c27 -13 57 -27 100 -27c74 0 82 37 82 54c0 35 -36 52 -84 67c-52 17 -120 32 -171 69
c-45 34 -77 83 -77 163c0 109 92 195 268 195c40 0 109 -4 162 -26c41 -17 72 -44 72 -87z" />
    <glyph glyph-name="Scaron" unicode="&#x160;" horiz-adv-x="590" 
d="M535 577c0 -46 -35 -82 -83 -82c-29 0 -53 13 -82 25c-22 9 -47 18 -79 18c-50 0 -72 -14 -72 -39c0 -31 34 -46 81 -60c56 -17 130 -33 184 -73c43 -34 73 -81 73 -156c0 -138 -121 -220 -272 -220c-37 0 -113 6 -173 29c-46 18 -82 46 -82 90c0 48 38 84 83 84
c24 0 45 -12 70 -24c27 -13 57 -27 100 -27c74 0 82 37 82 54c0 35 -36 52 -84 67c-52 17 -120 32 -171 69c-45 34 -77 83 -77 163c0 109 92 195 268 195c40 0 109 -4 162 -26c41 -17 72 -44 72 -87zM128 917c0 35 26 57 56 57c16 0 27 -5 39 -15l72 -65l72 65
c12 10 23 15 39 15c30 0 56 -22 56 -57c0 -17 -10 -33 -26 -47l-98 -88c-12 -10 -25 -18 -43 -18s-31 8 -43 18l-98 88c-16 14 -26 30 -26 47z" />
    <glyph glyph-name="Scedilla" unicode="&#x15e;" horiz-adv-x="590" 
d="M411 -116c0 -79 -75 -107 -159 -107c-12 0 -27 1 -40 4c-22 5 -36 19 -36 41c0 21 19 40 40 40c12 0 26 -4 41 -4c24 0 49 4 49 28c0 18 -16 30 -48 30c-14 0 -32 12 -28 35l4 42c-38 3 -83 11 -122 26c-46 18 -82 46 -82 90c0 48 38 84 83 84c24 0 45 -12 70 -24
c27 -13 57 -27 100 -27c74 0 82 37 82 54c0 35 -36 52 -84 67c-52 17 -120 32 -171 69c-45 34 -77 83 -77 163c0 109 92 195 268 195c40 0 109 -4 162 -26c41 -17 72 -44 72 -87c0 -46 -35 -82 -83 -82c-29 0 -53 13 -82 25c-22 9 -47 18 -79 18c-50 0 -72 -14 -72 -39
c0 -31 34 -46 81 -60c56 -17 130 -33 184 -73c43 -34 73 -81 73 -156c0 -128 -104 -208 -240 -218l1 -17c65 -9 93 -52 93 -91z" />
    <glyph glyph-name="Scommaaccent" unicode="&#x218;" horiz-adv-x="590" 
d="M535 577c0 -46 -35 -82 -83 -82c-29 0 -53 13 -82 25c-22 9 -47 18 -79 18c-50 0 -72 -14 -72 -39c0 -31 34 -46 81 -60c56 -17 131 -32 184 -73c44 -33 73 -81 73 -156c0 -138 -121 -220 -272 -220c-37 0 -113 6 -173 29c-46 18 -82 46 -82 90c0 48 38 84 83 84
c24 0 45 -12 70 -24c27 -13 57 -27 100 -27c74 0 82 37 82 54c0 35 -36 52 -84 67c-52 17 -120 32 -171 69c-45 34 -77 83 -77 163c0 109 92 195 268 195c40 0 109 -4 162 -26c41 -17 72 -44 72 -87zM207 -366c0 40 70 49 70 100c0 47 -74 35 -74 117c0 47 31 92 99 92
c73 0 116 -53 116 -133c0 -129 -128 -205 -181 -205c-18 0 -30 13 -30 29z" />
    <glyph glyph-name="Ssmall" unicode="&#xf773;" horiz-adv-x="469" 
d="M430 459c0 -39 -30 -68 -70 -68c-22 0 -43 9 -62 16c-26 10 -43 16 -68 16c-34 0 -50 -12 -50 -28c0 -24 27 -33 61 -43c47 -13 96 -23 141 -52c37 -25 65 -66 65 -131c0 -111 -96 -177 -220 -177c-36 0 -101 5 -149 27c-33 15 -56 38 -56 72c0 41 31 68 68 68
c26 0 47 -9 68 -20c20 -9 44 -19 71 -19c38 0 58 14 58 38c0 27 -32 40 -69 51c-49 14 -99 28 -143 63c-32 26 -51 63 -51 123c0 87 73 157 216 157c30 0 84 -3 126 -19c36 -13 64 -37 64 -74z" />
    <glyph glyph-name="Ssmallacute" unicode="&#xe0ed;" horiz-adv-x="468" 
d="M430 459c0 -39 -30 -68 -70 -68c-22 0 -43 9 -62 16c-26 10 -43 16 -68 16c-34 0 -50 -12 -50 -28c0 -24 27 -33 61 -43c47 -13 96 -23 141 -52c37 -25 65 -66 65 -131c0 -111 -96 -177 -220 -177c-36 0 -101 5 -149 27c-33 15 -56 38 -56 72c0 41 31 68 68 68
c26 0 47 -9 68 -20c20 -9 44 -19 71 -19c38 0 58 14 58 38c0 27 -32 40 -69 51c-49 14 -99 28 -143 63c-32 26 -51 63 -51 123c0 87 73 157 216 157c30 0 84 -3 126 -19c36 -13 64 -37 64 -74zM149 672c0 13 4 24 10 36l42 89c10 22 27 39 56 39c33 0 63 -26 63 -59
c0 -14 -4 -23 -15 -41l-51 -82c-13 -21 -29 -33 -51 -33c-29 0 -54 22 -54 51z" />
    <glyph glyph-name="Ssmallcaron" unicode="&#xe0ee;" horiz-adv-x="468" 
d="M430 459c0 -39 -30 -68 -70 -68c-22 0 -43 9 -62 16c-26 10 -43 16 -68 16c-34 0 -50 -12 -50 -28c0 -24 27 -33 61 -43c47 -13 96 -23 141 -52c37 -25 65 -66 65 -131c0 -111 -96 -177 -220 -177c-36 0 -101 5 -149 27c-33 15 -56 38 -56 72c0 41 31 68 68 68
c26 0 47 -9 68 -20c20 -9 44 -19 71 -19c38 0 58 14 58 38c0 27 -32 40 -69 51c-49 14 -99 28 -143 63c-32 26 -51 63 -51 123c0 87 73 157 216 157c30 0 84 -3 126 -19c36 -13 64 -37 64 -74zM68 777c0 35 26 57 56 57c16 0 27 -5 39 -15l72 -65l72 65c12 10 23 15 39 15
c30 0 56 -22 56 -57c0 -17 -10 -33 -26 -47l-98 -88c-12 -10 -25 -18 -43 -18s-31 8 -43 18l-98 88c-16 14 -26 30 -26 47z" />
    <glyph glyph-name="Ssmallcedilla" unicode="&#xe0ef;" horiz-adv-x="468" 
d="M358 -116c0 -79 -75 -107 -159 -107c-12 0 -27 1 -40 4c-22 5 -36 19 -36 41c0 21 19 40 40 40c12 0 26 -4 41 -4c24 0 49 4 49 28c0 18 -16 30 -48 30c-14 0 -32 12 -28 35l4 43c-33 3 -72 10 -103 25c-33 15 -56 38 -56 72c0 41 31 68 68 68c26 0 47 -10 68 -20
c20 -10 44 -19 71 -19c38 0 58 14 58 38c0 27 -32 40 -69 51c-49 14 -99 28 -143 63c-32 26 -51 63 -51 123c0 87 73 157 216 157c30 0 84 -3 126 -19c36 -13 64 -37 64 -74c0 -39 -30 -68 -70 -68c-22 0 -43 9 -62 16c-26 10 -43 16 -68 16c-34 0 -50 -12 -50 -28
c0 -24 27 -33 61 -43c47 -13 96 -23 141 -52c37 -25 65 -66 65 -131c0 -100 -77 -163 -183 -175l1 -19c65 -9 93 -52 93 -91z" />
    <glyph glyph-name="Ssmallcommaaccent" unicode="&#xe0f0;" horiz-adv-x="469" 
d="M430 459c0 -39 -30 -68 -70 -68c-22 0 -43 9 -62 16c-26 10 -43 16 -68 16c-34 0 -50 -12 -50 -28c0 -24 27 -33 61 -43c47 -13 96 -23 141 -52c37 -25 65 -66 65 -131c0 -111 -96 -177 -220 -177c-36 0 -101 5 -149 27c-33 15 -56 38 -56 72c0 41 31 68 68 68
c26 0 47 -10 68 -20c20 -10 44 -19 71 -19c38 0 58 14 58 38c0 27 -32 40 -69 51c-49 14 -99 28 -143 63c-32 26 -51 63 -51 123c0 87 73 157 216 157c30 0 84 -3 126 -19c36 -13 64 -37 64 -74zM145 -366c0 40 70 49 70 100c0 47 -74 35 -74 117c0 47 31 92 99 92
c73 0 116 -53 116 -133c0 -129 -128 -205 -181 -205c-18 0 -30 13 -30 29z" />
    <glyph glyph-name="T" unicode="T" horiz-adv-x="616" 
d="M540 525h-144v-450c0 -47 -41 -85 -88 -85c-48 0 -88 38 -88 85v450h-144c-42 0 -76 35 -76 78c0 42 34 78 76 78h464c42 0 76 -36 76 -78c0 -43 -34 -78 -76 -78z" />
    <glyph glyph-name="T.2" unicode="&#xe0f1;" horiz-adv-x="793" 
d="M267 681h450c42 0 76 -36 76 -78c0 -43 -34 -78 -76 -78h-174v-450c0 -47 -41 -85 -88 -85c-48 0 -88 38 -88 85v450h-105c-43 0 -76 -13 -76 -34c0 -32 45 -31 45 -81c0 -46 -37 -72 -87 -72c-68 0 -134 55 -134 158c0 152 164 185 257 185z" />
    <glyph glyph-name="Tcaron" unicode="&#x164;" horiz-adv-x="616" 
d="M140 917c0 35 26 57 56 57c16 0 27 -5 39 -15l72 -65l72 65c12 10 23 15 39 15c30 0 56 -22 56 -57c0 -17 -10 -33 -26 -47l-98 -88c-12 -10 -25 -18 -43 -18s-31 8 -43 18l-98 88c-16 14 -26 30 -26 47zM540 525h-144v-450c0 -47 -41 -85 -88 -85c-48 0 -88 38 -88 85
v450h-144c-42 0 -76 35 -76 78c0 42 34 78 76 78h464c42 0 76 -36 76 -78c0 -43 -34 -78 -76 -78z" />
    <glyph glyph-name="Tcaron.2" unicode="&#xe0f2;" horiz-adv-x="793" 
d="M289 917c0 35 26 57 56 57c16 0 27 -5 39 -15l72 -65l72 65c12 10 23 15 39 15c30 0 56 -22 56 -57c0 -17 -10 -33 -26 -47l-98 -88c-12 -10 -25 -18 -43 -18s-31 8 -43 18l-98 88c-16 14 -26 30 -26 47zM267 681h450c42 0 76 -36 76 -78c0 -43 -34 -78 -76 -78h-174
v-450c0 -47 -41 -85 -88 -85c-48 0 -88 38 -88 85v450h-105c-43 0 -76 -13 -76 -34c0 -32 45 -31 45 -81c0 -46 -37 -72 -87 -72c-68 0 -134 55 -134 158c0 152 164 185 257 185z" />
    <glyph glyph-name="Tcommaaccent" unicode="&#x162;" horiz-adv-x="616" 
d="M540 525h-144v-450c0 -47 -41 -85 -88 -85c-48 0 -88 38 -88 85v450h-144c-42 0 -76 35 -76 78c0 42 34 78 76 78h464c42 0 76 -36 76 -78c0 -43 -34 -78 -76 -78zM207 -366c0 40 70 49 70 100c0 47 -74 35 -74 117c0 47 31 92 99 92c73 0 116 -53 116 -133
c0 -129 -128 -205 -181 -205c-18 0 -30 13 -30 29z" />
    <glyph glyph-name="Tcommaaccent.2" unicode="&#xe0f3;" horiz-adv-x="793" 
d="M267 681h450c42 0 76 -36 76 -78c0 -43 -34 -78 -76 -78h-174v-450c0 -47 -41 -85 -88 -85c-48 0 -88 38 -88 85v450h-105c-43 0 -76 -13 -76 -34c0 -32 45 -31 45 -81c0 -46 -37 -72 -87 -72c-68 0 -134 55 -134 158c0 152 164 185 257 185zM350 -366c0 40 70 49 70 100
c0 47 -74 35 -74 117c0 47 31 92 99 92c73 0 116 -53 116 -133c0 -129 -128 -205 -181 -205c-18 0 -30 13 -30 29z" />
    <glyph glyph-name="Thorn" unicode="&#xde;" horiz-adv-x="657" 
d="M64 -46v651c0 47 40 85 88 85c49 0 88 -38 88 -85v-45h133c56 0 116 -11 166 -53c52 -43 85 -111 85 -192c0 -84 -36 -154 -92 -197c-48 -38 -101 -48 -154 -48h-138v-116c0 -47 -41 -85 -88 -85c-48 0 -88 38 -88 85zM445 315c0 30 -8 51 -21 65c-18 20 -45 26 -73 26
h-111v-182h111c25 0 50 4 68 20c16 14 26 37 26 71z" />
    <glyph glyph-name="Tsmall" unicode="&#xf774;" horiz-adv-x="498" 
d="M426 399h-95v-329c0 -43 -39 -78 -82 -78c-44 0 -81 35 -81 78v329h-96c-39 0 -72 31 -72 71s33 74 72 74h354c39 0 72 -34 72 -74s-33 -71 -72 -71z" />
    <glyph glyph-name="Tsmall.2" unicode="&#xe0f4;" horiz-adv-x="691" 
d="M250 544h369c39 0 72 -34 72 -74s-33 -71 -72 -71h-150v-329c0 -43 -39 -78 -82 -78c-44 0 -81 35 -81 78v329h-61c-40 0 -70 -13 -70 -32c0 -34 41 -31 41 -77c0 -43 -35 -66 -81 -66c-63 0 -125 51 -125 148c0 141 152 172 240 172z" />
    <glyph glyph-name="Tsmallcaron" unicode="&#xe0f5;" horiz-adv-x="486" 
d="M421 399h-95v-329c0 -43 -39 -78 -82 -78c-44 0 -81 35 -81 78v329h-96c-39 0 -72 31 -72 71s33 74 72 74h354c39 0 72 -34 72 -74s-33 -71 -72 -71zM76 777c0 35 26 57 56 57c16 0 27 -5 39 -15l72 -65l72 65c12 10 23 15 39 15c30 0 56 -22 56 -57
c0 -17 -10 -33 -26 -47l-98 -88c-12 -10 -25 -18 -43 -18s-31 8 -43 18l-98 88c-16 14 -26 30 -26 47z" />
    <glyph glyph-name="Tsmallcaron.2" unicode="&#xe0f6;" horiz-adv-x="691" 
d="M221 777c0 35 26 57 56 57c16 0 27 -5 39 -15l72 -65l72 65c12 10 23 15 39 15c30 0 56 -22 56 -57c0 -17 -10 -33 -26 -47l-98 -88c-12 -10 -25 -18 -43 -18s-31 8 -43 18l-98 88c-16 14 -26 30 -26 47zM250 544h369c39 0 72 -34 72 -74s-33 -71 -72 -71h-150v-329
c0 -43 -39 -78 -82 -78c-44 0 -81 35 -81 78v329h-61c-40 0 -70 -13 -70 -32c0 -34 41 -31 41 -77c0 -43 -35 -66 -81 -66c-63 0 -125 51 -125 148c0 141 152 172 240 172z" />
    <glyph glyph-name="Tsmallcommaaccent" unicode="&#xe0f7;" horiz-adv-x="498" 
d="M426 399h-95v-329c0 -43 -39 -78 -82 -78c-44 0 -81 35 -81 78v329h-96c-39 0 -72 31 -72 71s33 74 72 74h354c39 0 72 -34 72 -74s-33 -71 -72 -71zM146 -366c0 40 70 49 70 100c0 47 -74 35 -74 117c0 47 31 92 99 92c73 0 116 -53 116 -133
c0 -129 -128 -205 -181 -205c-18 0 -30 13 -30 29z" />
    <glyph glyph-name="Tsmallcommaaccent.2" unicode="&#xe0f8;" horiz-adv-x="691" 
d="M250 544h369c39 0 72 -34 72 -74s-33 -71 -72 -71h-150v-329c0 -43 -39 -78 -82 -78c-44 0 -81 35 -81 78v329h-61c-40 0 -70 -13 -70 -32c0 -34 41 -31 41 -77c0 -43 -35 -66 -81 -66c-63 0 -125 51 -125 148c0 141 152 172 240 172zM284 -366c0 40 70 49 70 100
c0 47 -74 35 -74 117c0 47 31 92 99 92c73 0 116 -53 116 -133c0 -129 -128 -205 -181 -205c-18 0 -30 13 -30 29z" />
    <glyph glyph-name="U" unicode="U" horiz-adv-x="725" 
d="M361 149c43 0 76 10 100 41c17 22 25 53 25 97v318c0 47 39 85 88 85c48 0 88 -38 88 -85v-336c0 -75 -21 -138 -60 -185c-52 -60 -134 -94 -240 -94c-105 0 -187 34 -239 94c-39 47 -60 110 -60 185v336c0 47 40 85 88 85c49 0 88 -38 88 -85v-318c0 -44 8 -75 25 -97
c24 -31 57 -41 97 -41z" />
    <glyph glyph-name="Uacute" unicode="&#xda;" horiz-adv-x="725" 
d="M361 149c43 0 76 10 100 41c17 22 25 53 25 97v318c0 47 39 85 88 85c48 0 88 -38 88 -85v-336c0 -75 -21 -138 -60 -185c-52 -60 -134 -94 -240 -94c-105 0 -187 34 -239 94c-39 47 -60 110 -60 185v336c0 47 40 85 88 85c49 0 88 -38 88 -85v-318c0 -44 8 -75 25 -97
c24 -31 57 -41 97 -41zM277 812c0 13 4 24 10 36l42 89c10 22 27 39 56 39c33 0 63 -26 63 -59c0 -14 -4 -23 -15 -41l-51 -82c-13 -21 -29 -33 -51 -33c-29 0 -54 22 -54 51z" />
    <glyph glyph-name="Ucircumflex" unicode="&#xdb;" horiz-adv-x="725" 
d="M361 149c43 0 76 10 100 41c17 22 25 53 25 97v318c0 47 39 85 88 85c48 0 88 -38 88 -85v-336c0 -75 -21 -138 -60 -185c-52 -60 -134 -94 -240 -94c-105 0 -187 34 -239 94c-39 47 -60 110 -60 185v336c0 47 40 85 88 85c49 0 88 -38 88 -85v-318c0 -44 8 -75 25 -97
c24 -31 57 -41 97 -41zM362 974c18 0 31 -8 43 -18l98 -88c16 -14 26 -30 26 -47c0 -35 -26 -57 -56 -57c-16 0 -27 5 -39 15l-72 65l-72 -65c-12 -10 -23 -15 -39 -15c-30 0 -56 22 -56 57c0 17 10 33 26 47l98 88c12 10 25 18 43 18z" />
    <glyph glyph-name="Udieresis" unicode="&#xdc;" horiz-adv-x="725" 
d="M361 149c43 0 76 10 100 41c17 22 25 53 25 97v318c0 47 39 85 88 85c48 0 88 -38 88 -85v-336c0 -75 -21 -138 -60 -185c-52 -60 -134 -94 -240 -94c-105 0 -187 34 -239 94c-39 47 -60 110 -60 185v336c0 47 40 85 88 85c49 0 88 -38 88 -85v-318c0 -44 8 -75 25 -97
c24 -31 57 -41 97 -41zM219 765c-51 0 -92 42 -92 93s41 92 92 92c52 0 93 -41 93 -92s-41 -93 -93 -93zM473 765c-51 0 -92 42 -92 93s41 92 92 92s92 -41 92 -92s-41 -93 -92 -93z" />
    <glyph glyph-name="Ugrave" unicode="&#xd9;" horiz-adv-x="725" 
d="M361 149c43 0 76 10 100 41c17 22 25 53 25 97v318c0 47 39 85 88 85c48 0 88 -38 88 -85v-336c0 -75 -21 -138 -60 -185c-52 -60 -134 -94 -240 -94c-105 0 -187 34 -239 94c-39 47 -60 110 -60 185v336c0 47 40 85 88 85c49 0 88 -38 88 -85v-318c0 -44 8 -75 25 -97
c24 -31 57 -41 97 -41zM448 812c0 -29 -25 -51 -54 -51c-22 0 -39 11 -51 33l-51 82c-11 18 -15 27 -15 41c0 33 30 59 63 59c29 0 46 -17 56 -39l42 -89c6 -12 10 -23 10 -36z" />
    <glyph glyph-name="Uhungarumlaut" unicode="&#x170;" horiz-adv-x="725" 
d="M361 149c43 0 76 10 100 41c17 22 25 53 25 97v318c0 47 39 85 88 85c48 0 88 -38 88 -85v-336c0 -75 -21 -138 -60 -185c-52 -60 -134 -94 -240 -94c-105 0 -187 34 -239 94c-39 47 -60 110 -60 185v336c0 47 40 85 88 85c49 0 88 -38 88 -85v-318c0 -44 8 -75 25 -97
c24 -31 57 -41 97 -41zM169 810c0 13 4 24 10 36l42 89c10 22 27 39 56 39c33 0 63 -26 63 -59c0 -14 -4 -23 -15 -41l-51 -82c-13 -21 -29 -33 -51 -33c-29 0 -54 22 -54 51zM385 810c0 13 4 24 10 36l42 89c10 22 27 39 56 39c33 0 63 -26 63 -59c0 -14 -4 -23 -15 -41
l-51 -82c-13 -21 -29 -33 -51 -33c-29 0 -54 22 -54 51z" />
    <glyph glyph-name="Umacron" unicode="&#x16a;" horiz-adv-x="725" 
d="M512 865c0 -36 -29 -65 -65 -65h-170c-36 0 -65 29 -65 65c0 37 29 66 65 66h170c36 0 65 -29 65 -66zM361 149c43 0 76 10 100 41c17 22 25 53 25 97v318c0 47 39 85 88 85c48 0 88 -38 88 -85v-336c0 -75 -21 -138 -60 -185c-52 -60 -134 -94 -240 -94
c-105 0 -187 34 -239 94c-39 47 -60 110 -60 185v336c0 47 40 85 88 85c49 0 88 -38 88 -85v-318c0 -44 8 -75 25 -97c24 -31 57 -41 97 -41z" />
    <glyph glyph-name="Uogonek" unicode="&#x172;" horiz-adv-x="725" 
d="M361 149c43 0 76 10 100 41c17 22 25 53 25 97v318c0 47 39 85 88 85c48 0 88 -38 88 -85v-336c0 -75 -21 -138 -60 -185c-45 -52 -113 -84 -199 -92c-4 -14 -5 -31 -5 -44c0 -27 11 -51 56 -51c13 0 28 5 46 5c30 0 44 -19 44 -45c0 -30 -13 -48 -45 -59
c-19 -6 -40 -9 -58 -9c-95 0 -145 39 -145 116c0 28 7 59 18 88c-82 8 -147 40 -191 91c-39 47 -60 110 -60 185v336c0 47 40 85 88 85c49 0 88 -38 88 -85v-318c0 -44 8 -75 25 -97c24 -31 57 -41 97 -41z" />
    <glyph glyph-name="Uring" unicode="&#x16e;" horiz-adv-x="725" 
d="M361 149c43 0 76 10 100 41c17 22 25 53 25 97v318c0 47 39 85 88 85c48 0 88 -38 88 -85v-336c0 -75 -21 -138 -60 -185c-52 -60 -134 -94 -240 -94c-105 0 -187 34 -239 94c-39 47 -60 110 -60 185v336c0 47 40 85 88 85c49 0 88 -38 88 -85v-318c0 -44 8 -75 25 -97
c24 -31 57 -41 97 -41zM487 856c0 -68 -56 -123 -124 -123c-69 0 -125 55 -125 123c0 70 56 125 125 125c68 0 124 -55 124 -125zM418 856c0 32 -25 57 -55 57c-31 0 -55 -25 -55 -57c0 -30 24 -55 55 -55c30 0 55 25 55 55z" />
    <glyph glyph-name="Usmall" unicode="&#xf775;" horiz-adv-x="604" 
d="M302 140c23 0 48 5 62 19c18 17 24 35 24 67v248c0 43 36 78 80 78c46 0 83 -35 83 -78v-256c0 -71 -22 -128 -65 -167c-43 -38 -104 -59 -184 -59s-141 21 -184 59c-43 39 -65 96 -65 167v256c0 43 37 78 83 78c44 0 80 -35 80 -78v-248c0 -32 7 -51 24 -67
c14 -14 39 -19 62 -19z" />
    <glyph glyph-name="Usmallacute" unicode="&#xe0f9;" horiz-adv-x="616" 
d="M308 140c23 0 48 5 62 19c18 17 24 35 24 67v248c0 43 36 78 80 78c46 0 83 -35 83 -78v-256c0 -71 -22 -128 -65 -167c-43 -38 -104 -59 -184 -59s-141 21 -184 59c-43 39 -65 96 -65 167v256c0 43 37 78 83 78c44 0 80 -35 80 -78v-248c0 -32 7 -51 24 -67
c14 -14 39 -19 62 -19zM233 672c0 13 4 24 10 36l42 89c10 22 27 39 56 39c33 0 63 -26 63 -59c0 -14 -4 -23 -15 -41l-51 -82c-13 -21 -29 -33 -51 -33c-29 0 -54 22 -54 51z" />
    <glyph glyph-name="Usmallcircumflex" unicode="&#xe0fa;" horiz-adv-x="616" 
d="M308 140c23 0 48 5 62 19c18 17 24 35 24 67v248c0 43 36 78 80 78c46 0 83 -35 83 -78v-256c0 -71 -22 -128 -65 -167c-43 -38 -104 -59 -184 -59s-141 21 -184 59c-43 39 -65 96 -65 167v256c0 43 37 78 83 78c44 0 80 -35 80 -78v-248c0 -32 7 -51 24 -67
c14 -14 39 -19 62 -19zM308 834c18 0 31 -8 43 -18l98 -88c16 -14 26 -30 26 -47c0 -35 -26 -57 -56 -57c-16 0 -27 5 -39 15l-72 65l-72 -65c-12 -10 -23 -15 -39 -15c-30 0 -56 22 -56 57c0 17 10 33 26 47l98 88c12 10 25 18 43 18z" />
    <glyph glyph-name="Usmalldieresis" unicode="&#xe0fb;" horiz-adv-x="616" 
d="M308 140c23 0 48 5 62 19c18 17 24 35 24 67v248c0 43 36 78 80 78c46 0 83 -35 83 -78v-256c0 -71 -22 -128 -65 -167c-43 -38 -104 -59 -184 -59s-141 21 -184 59c-43 39 -65 96 -65 167v256c0 43 37 78 83 78c44 0 80 -35 80 -78v-248c0 -32 7 -51 24 -67
c14 -14 39 -19 62 -19zM181 625c-51 0 -92 42 -92 93s41 92 92 92c52 0 93 -41 93 -92s-41 -93 -93 -93zM435 625c-51 0 -92 42 -92 93s41 92 92 92s92 -41 92 -92s-41 -93 -92 -93z" />
    <glyph glyph-name="Usmallgrave" unicode="&#xe0fc;" horiz-adv-x="616" 
d="M308 140c23 0 48 5 62 19c18 17 24 35 24 67v248c0 43 36 78 80 78c46 0 83 -35 83 -78v-256c0 -71 -22 -128 -65 -167c-43 -38 -104 -59 -184 -59s-141 21 -184 59c-43 39 -65 96 -65 167v256c0 43 37 78 83 78c44 0 80 -35 80 -78v-248c0 -32 7 -51 24 -67
c14 -14 39 -19 62 -19zM381 672c0 -29 -25 -51 -54 -51c-22 0 -39 11 -51 33l-51 82c-11 18 -15 27 -15 41c0 33 30 59 63 59c29 0 46 -17 56 -39l42 -89c6 -12 10 -23 10 -36z" />
    <glyph glyph-name="Usmallhungarumlaut" unicode="&#xe0fd;" horiz-adv-x="616" 
d="M308 140c23 0 48 5 62 19c18 17 24 35 24 67v248c0 43 36 78 80 78c46 0 83 -35 83 -78v-256c0 -71 -22 -128 -65 -167c-43 -38 -104 -59 -184 -59s-141 21 -184 59c-43 39 -65 96 -65 167v256c0 43 37 78 83 78c44 0 80 -35 80 -78v-248c0 -32 7 -51 24 -67
c14 -14 39 -19 62 -19zM115 672c0 13 4 24 10 36l42 89c10 22 27 39 56 39c33 0 63 -26 63 -59c0 -14 -4 -23 -15 -41l-51 -82c-13 -21 -29 -33 -51 -33c-29 0 -54 22 -54 51zM331 672c0 13 4 24 10 36l42 89c10 22 27 39 56 39c33 0 63 -26 63 -59c0 -14 -4 -23 -15 -41
l-51 -82c-13 -21 -29 -33 -51 -33c-29 0 -54 22 -54 51z" />
    <glyph glyph-name="Usmallmacron" unicode="&#xe0fe;" horiz-adv-x="616" 
d="M308 140c23 0 48 5 62 19c18 17 24 35 24 67v248c0 43 36 78 80 78c46 0 83 -35 83 -78v-256c0 -71 -22 -128 -65 -167c-43 -38 -104 -59 -184 -59s-141 21 -184 59c-43 39 -65 96 -65 167v256c0 43 37 78 83 78c44 0 80 -35 80 -78v-248c0 -32 7 -51 24 -67
c14 -14 39 -19 62 -19zM458 702c0 -36 -29 -65 -65 -65h-170c-36 0 -65 29 -65 65c0 37 29 66 65 66h170c36 0 65 -29 65 -66z" />
    <glyph glyph-name="Usmallogonek" unicode="&#xe0ff;" horiz-adv-x="616" 
d="M308 140c23 0 48 5 62 19c18 17 24 35 24 67v248c0 43 36 78 80 78c46 0 83 -35 83 -78v-256c0 -71 -22 -128 -65 -167c-36 -32 -85 -52 -147 -57c-5 -16 -7 -29 -7 -46c0 -27 11 -51 56 -51c13 0 28 5 46 5c30 0 44 -19 44 -45c0 -30 -13 -48 -45 -59
c-19 -6 -40 -9 -58 -9c-95 0 -145 39 -145 116c0 26 8 56 24 90c-57 6 -102 26 -136 56c-43 39 -65 96 -65 167v256c0 43 37 78 83 78c44 0 80 -35 80 -78v-248c0 -32 7 -51 24 -67c14 -14 39 -19 62 -19z" />
    <glyph glyph-name="Usmallring" unicode="&#xe100;" horiz-adv-x="616" 
d="M308 140c23 0 48 5 62 19c18 17 24 35 24 67v248c0 43 36 78 80 78c46 0 83 -35 83 -78v-256c0 -71 -22 -128 -65 -167c-43 -38 -104 -59 -184 -59s-141 21 -184 59c-43 39 -65 96 -65 167v256c0 43 37 78 83 78c44 0 80 -35 80 -78v-248c0 -32 7 -51 24 -67
c14 -14 39 -19 62 -19zM433 729c0 -68 -56 -123 -124 -123c-69 0 -125 55 -125 123c0 70 56 125 125 125c68 0 124 -55 124 -125zM364 729c0 32 -25 57 -55 57c-31 0 -55 -25 -55 -57c0 -30 24 -55 55 -55c30 0 55 25 55 55z" />
    <glyph glyph-name="V" unicode="V" horiz-adv-x="660" 
d="M327 215l145 417c13 36 48 58 87 58c49 0 91 -33 91 -85c0 -10 -2 -20 -6 -30l-191 -494c-19 -50 -61 -91 -127 -91c-68 0 -108 41 -127 91l-184 493c-3 9 -5 19 -5 29c0 48 39 87 92 87c38 0 71 -22 84 -59z" />
    <glyph glyph-name="Vsmall" unicode="&#xf776;" horiz-adv-x="534" 
d="M265 210l101 289c12 33 38 53 79 53c51 0 84 -31 84 -78c0 -11 -4 -23 -8 -34l-146 -370c-21 -52 -51 -78 -112 -78s-91 26 -111 78l-142 375c-3 8 -5 17 -5 27c0 45 36 80 86 80c36 0 64 -19 76 -55z" />
    <glyph glyph-name="W" unicode="W" horiz-adv-x="1032" 
d="M516 52c-25 -22 -52 -37 -80 -46c-34 -11 -70 -15 -103 -15c-73 0 -146 19 -198 66c-44 40 -72 101 -72 188v360c0 47 40 85 88 85c49 0 88 -38 88 -85v-357c0 -34 10 -57 26 -72c18 -17 43 -23 68 -23c38 0 62 10 76 29s19 48 19 86v337c0 47 40 85 88 85
c49 0 88 -38 88 -85v-337c0 -38 5 -67 19 -86s38 -29 76 -29c25 0 50 6 68 23c16 15 26 38 26 72v357c0 47 39 85 88 85c48 0 88 -38 88 -85v-360c0 -87 -28 -148 -72 -188c-52 -47 -125 -66 -198 -66c-33 0 -69 4 -103 15c-28 9 -55 24 -80 46z" />
    <glyph glyph-name="W.2" unicode="&#xe101;" horiz-adv-x="1041" 
d="M708 215l145 417c13 36 48 58 87 58c49 0 91 -33 91 -85c0 -10 -2 -20 -6 -30l-191 -494c-19 -50 -61 -91 -127 -91c-68 0 -108 41 -127 91l-63 167l-64 -167c-19 -50 -61 -91 -127 -91c-68 0 -108 41 -127 91l-184 493c-3 9 -5 19 -5 29c0 48 39 87 92 87
c38 0 71 -22 84 -59l141 -416l98 281l-29 78c-3 9 -5 19 -5 29c0 48 39 87 92 87c38 0 71 -22 84 -59z" />
    <glyph glyph-name="W.calt" unicode="&#xe102;" horiz-adv-x="1016" 
d="M725 215l103 417c9 37 48 58 87 58c49 0 91 -33 91 -85c0 -10 -4 -24 -7 -33l-148 -491c-15 -51 -57 -91 -127 -91s-110 40 -127 91l-91 274l-84 -274c-16 -51 -56 -91 -127 -91s-111 40 -127 91l-153 493c-3 9 -5 19 -5 29c0 48 39 87 92 87c45 0 75 -25 85 -63
l109 -412l117 409c11 37 40 66 96 66s81 -29 92 -67z" />
    <glyph glyph-name="Wcircumflex" unicode="&#x174;" horiz-adv-x="1032" 
d="M516 52c-25 -22 -52 -37 -80 -46c-34 -11 -70 -15 -103 -15c-73 0 -146 19 -198 66c-44 40 -72 101 -72 188v360c0 47 40 85 88 85c49 0 88 -38 88 -85v-357c0 -34 10 -57 26 -72c18 -17 43 -23 68 -23c38 0 62 10 76 29s19 48 19 86v337c0 47 40 85 88 85
c49 0 88 -38 88 -85v-337c0 -38 5 -67 19 -86s38 -29 76 -29c25 0 50 6 68 23c16 15 26 38 26 72v357c0 47 39 85 88 85c48 0 88 -38 88 -85v-360c0 -87 -28 -148 -72 -188c-52 -47 -125 -66 -198 -66c-33 0 -69 4 -103 15c-28 9 -55 24 -80 46zM515 974c18 0 31 -8 43 -18
l98 -88c16 -14 26 -30 26 -47c0 -35 -26 -57 -56 -57c-16 0 -27 5 -39 15l-72 65l-72 -65c-12 -10 -23 -15 -39 -15c-30 0 -56 22 -56 57c0 17 10 33 26 47l98 88c12 10 25 18 43 18z" />
    <glyph glyph-name="Wcircumflex.2" unicode="&#xe103;" horiz-adv-x="1041" 
d="M708 215l145 417c13 36 48 58 87 58c49 0 91 -33 91 -85c0 -10 -2 -20 -6 -30l-191 -494c-19 -50 -61 -91 -127 -91c-68 0 -108 41 -127 91l-63 167l-64 -167c-19 -50 -61 -91 -127 -91c-68 0 -108 41 -127 91l-184 493c-3 9 -5 19 -5 29c0 48 39 87 92 87
c38 0 71 -22 84 -59l141 -416l98 281l-29 78c-3 9 -5 19 -5 29c0 48 39 87 92 87c38 0 71 -22 84 -59zM517 974c18 0 31 -8 43 -18l98 -88c16 -14 26 -30 26 -47c0 -35 -26 -57 -56 -57c-16 0 -27 5 -39 15l-72 65l-72 -65c-12 -10 -23 -15 -39 -15c-30 0 -56 22 -56 57
c0 17 10 33 26 47l98 88c12 10 25 18 43 18z" />
    <glyph glyph-name="Wsmall" unicode="&#xf777;" horiz-adv-x="850" 
d="M344 226v248c0 43 37 78 83 78c44 0 80 -35 80 -78v-248c0 -32 6 -54 17 -67c12 -14 30 -19 46 -19c17 0 34 5 46 19c12 13 18 35 18 67v248c0 43 37 78 83 78c44 0 80 -35 80 -78v-256c0 -71 -20 -128 -59 -167c-39 -38 -95 -59 -167 -59c-33 0 -62 5 -88 14
c-21 7 -39 17 -56 29c-18 -13 -40 -24 -64 -31c-25 -8 -53 -12 -83 -12c-73 0 -129 21 -167 59c-40 39 -60 96 -60 167v256c0 43 37 78 83 78c44 0 80 -35 80 -78v-248c0 -32 7 -54 18 -67c12 -14 29 -19 46 -19c16 0 34 5 46 19c11 13 18 35 18 67z" />
    <glyph glyph-name="Wsmall.2" unicode="&#xe104;" horiz-adv-x="864" 
d="M595 210l101 289c12 33 38 53 79 53c51 0 84 -31 84 -78c0 -11 -4 -23 -8 -34l-146 -370c-21 -52 -51 -78 -112 -78s-91 26 -111 78l-53 138l-54 -138c-21 -52 -51 -78 -112 -78s-91 26 -111 78l-142 375c-3 8 -5 17 -5 27c0 45 36 80 86 80c36 0 64 -19 76 -55l98 -287
l78 225l-3 10c-3 8 -5 17 -5 27c0 45 36 80 86 80c36 0 64 -19 76 -55z" />
    <glyph glyph-name="Wsmall.calt" unicode="&#xe105;" horiz-adv-x="821" 
d="M501 478l71 -277l70 282c9 36 35 69 84 69c55 0 85 -42 85 -85c0 -13 -6 -35 -13 -57l-106 -339c-13 -40 -41 -79 -116 -79s-106 39 -118 80l-48 170l-47 -170c-12 -41 -46 -80 -118 -80s-103 39 -116 79l-106 340c-7 21 -13 42 -13 56c0 43 32 85 85 85
c43 0 74 -26 85 -72l69 -279l70 277c9 34 29 74 90 74s83 -40 92 -74z" />
    <glyph glyph-name="Wsmallcircumflex" unicode="&#xe106;" horiz-adv-x="850" 
d="M344 226v248c0 43 37 78 83 78c44 0 80 -35 80 -78v-248c0 -32 6 -54 17 -67c12 -14 30 -19 46 -19c17 0 34 5 46 19c12 13 18 35 18 67v248c0 43 37 78 83 78c44 0 80 -35 80 -78v-256c0 -71 -20 -128 -59 -167c-39 -38 -95 -59 -167 -59c-33 0 -62 5 -88 14
c-21 7 -39 17 -56 29c-18 -13 -40 -24 -64 -31c-25 -8 -53 -12 -83 -12c-73 0 -129 21 -167 59c-40 39 -60 96 -60 167v256c0 43 37 78 83 78c44 0 80 -35 80 -78v-248c0 -32 7 -54 18 -67c12 -14 29 -19 46 -19c16 0 34 5 46 19c11 13 18 35 18 67zM425 834
c18 0 31 -8 43 -18l98 -88c16 -14 26 -30 26 -47c0 -35 -26 -57 -56 -57c-16 0 -27 5 -39 15l-72 65l-72 -65c-12 -10 -23 -15 -39 -15c-30 0 -56 22 -56 57c0 17 10 33 26 47l98 88c12 10 25 18 43 18z" />
    <glyph glyph-name="Wsmallcircumflex.2" unicode="&#xe107;" horiz-adv-x="864" 
d="M595 210l101 289c12 33 38 53 79 53c51 0 84 -31 84 -78c0 -11 -4 -23 -8 -34l-146 -370c-21 -52 -51 -78 -112 -78s-91 26 -111 78l-53 138l-54 -138c-21 -52 -51 -78 -112 -78s-91 26 -111 78l-142 375c-3 8 -5 17 -5 27c0 45 36 80 86 80c36 0 64 -19 76 -55l98 -287
l78 225l-3 10c-3 8 -5 17 -5 27c0 45 36 80 86 80c36 0 64 -19 76 -55zM425 834c18 0 31 -8 43 -18l98 -88c16 -14 26 -30 26 -47c0 -35 -26 -57 -56 -57c-16 0 -27 5 -39 15l-72 65l-72 -65c-12 -10 -23 -15 -39 -15c-30 0 -56 22 -56 57c0 17 10 33 26 47l98 88
c12 10 25 18 43 18z" />
    <glyph glyph-name="X" unicode="X" horiz-adv-x="657" 
d="M210 653l120 -172l118 172c17 25 44 37 76 37c50 0 102 -38 102 -93c0 -18 -7 -35 -19 -51l-163 -204l171 -209c13 -15 18 -32 18 -50c0 -52 -48 -93 -101 -93c-32 0 -59 12 -76 36l-125 178l-129 -178c-17 -24 -45 -36 -77 -36c-49 0 -101 37 -101 92c0 18 6 36 19 51
l174 206l-166 207c-12 16 -19 33 -19 51c0 51 48 93 102 93c34 0 59 -12 76 -37z" />
    <glyph glyph-name="Xsmall" unicode="&#xf778;" horiz-adv-x="489" 
d="M167 518l80 -114l79 114c16 23 41 34 68 34c49 0 93 -33 93 -84c0 -17 -7 -34 -17 -47l-118 -147c40 -50 83 -102 123 -151c10 -12 16 -30 16 -47c0 -47 -38 -84 -91 -84c-27 0 -53 13 -68 34c-31 43 -53 74 -84 119l-86 -119c-18 -25 -43 -34 -70 -34
c-51 0 -92 34 -92 84c0 16 5 33 17 47l127 148l-121 150c-12 14 -17 30 -17 47c0 44 38 84 92 84c28 0 53 -12 69 -34z" />
    <glyph glyph-name="Y" unicode="Y" horiz-adv-x="590" 
d="M564 550l-182 -275v-200c0 -47 -41 -85 -88 -85c-48 0 -88 38 -88 85v201l-180 275c-10 16 -16 36 -16 55c0 49 38 84 87 84c29 0 57 -13 73 -38l123 -200l127 201c16 24 44 37 73 37c49 0 87 -36 87 -85c0 -19 -5 -39 -16 -55z" />
    <glyph glyph-name="Y.2" unicode="&#xe108;" horiz-adv-x="633" 
d="M607 550l-204 -308v-167c0 -47 -41 -85 -88 -85c-48 0 -88 38 -88 85v168l-201 308c-10 16 -16 36 -16 55c0 49 38 84 87 84c29 0 57 -13 73 -38l144 -233l149 234c16 24 44 37 73 37c49 0 87 -36 87 -85c0 -19 -5 -39 -16 -55z" />
    <glyph glyph-name="Y.3" unicode="&#xe109;" horiz-adv-x="578" 
d="M107 143c37 0 72 9 100 39l-186 368c-9 17 -14 35 -14 53c0 50 40 88 88 88c44 0 68 -20 89 -65l113 -246l99 247c19 46 46 64 89 64c47 0 86 -37 86 -86c0 -18 -5 -33 -13 -51l-150 -355c-68 -162 -183 -209 -296 -209c-60 0 -90 34 -90 76c0 43 30 77 85 77z" />
    <glyph glyph-name="Yacute" unicode="&#xdd;" horiz-adv-x="590" 
d="M564 550l-182 -275v-200c0 -47 -41 -85 -88 -85c-48 0 -88 38 -88 85v201l-180 275c-10 16 -16 36 -16 55c0 49 38 84 87 84c29 0 57 -13 73 -38l123 -200l127 201c16 24 44 37 73 37c49 0 87 -36 87 -85c0 -19 -5 -39 -16 -55zM222 812c0 13 4 24 10 36l42 89
c10 22 27 39 56 39c33 0 63 -26 63 -59c0 -14 -4 -23 -15 -41l-51 -82c-13 -21 -29 -33 -51 -33c-29 0 -54 22 -54 51z" />
    <glyph glyph-name="Yacute.2" unicode="&#xe10a;" horiz-adv-x="633" 
d="M607 550l-204 -308v-167c0 -47 -41 -85 -88 -85c-48 0 -88 38 -88 85v168l-201 308c-10 16 -16 36 -16 55c0 49 38 84 87 84c29 0 57 -13 73 -38l144 -233l149 234c16 24 44 37 73 37c49 0 87 -36 87 -85c0 -19 -5 -39 -16 -55zM241 812c0 13 4 24 10 36l42 89
c10 22 27 39 56 39c33 0 63 -26 63 -59c0 -14 -4 -23 -15 -41l-51 -82c-13 -21 -29 -33 -51 -33c-29 0 -54 22 -54 51z" />
    <glyph glyph-name="Yacute.3" unicode="&#xe10b;" horiz-adv-x="578" 
d="M107 143c37 0 72 9 100 39l-186 368c-9 17 -14 35 -14 53c0 50 40 88 88 88c44 0 68 -20 89 -65l113 -246l99 247c19 46 46 64 89 64c47 0 86 -37 86 -86c0 -18 -5 -33 -13 -51l-150 -355c-68 -162 -183 -209 -296 -209c-60 0 -90 34 -90 76c0 43 30 77 85 77zM207 812
c0 13 4 24 10 36l42 89c10 22 27 39 56 39c33 0 63 -26 63 -59c0 -14 -4 -23 -15 -41l-51 -82c-13 -21 -29 -33 -51 -33c-29 0 -54 22 -54 51z" />
    <glyph glyph-name="Ycircumflex" unicode="&#x176;" horiz-adv-x="590" 
d="M564 550l-182 -275v-200c0 -47 -41 -85 -88 -85c-48 0 -88 38 -88 85v201l-180 275c-10 16 -16 36 -16 55c0 49 38 84 87 84c29 0 57 -13 73 -38l123 -200l127 201c16 24 44 37 73 37c49 0 87 -36 87 -85c0 -19 -5 -39 -16 -55zM293 974c18 0 31 -8 43 -18l98 -88
c16 -14 26 -30 26 -47c0 -35 -26 -57 -56 -57c-16 0 -27 5 -39 15l-72 65l-72 -65c-12 -10 -23 -15 -39 -15c-30 0 -56 22 -56 57c0 17 10 33 26 47l98 88c12 10 25 18 43 18z" />
    <glyph glyph-name="Ycircumflex.2" unicode="&#xe10c;" horiz-adv-x="633" 
d="M607 550l-204 -308v-167c0 -47 -41 -85 -88 -85c-48 0 -88 38 -88 85v168l-201 308c-10 16 -16 36 -16 55c0 49 38 84 87 84c29 0 57 -13 73 -38l144 -233l149 234c16 24 44 37 73 37c49 0 87 -36 87 -85c0 -19 -5 -39 -16 -55zM314 974c18 0 31 -8 43 -18l98 -88
c16 -14 26 -30 26 -47c0 -35 -26 -57 -56 -57c-16 0 -27 5 -39 15l-72 65l-72 -65c-12 -10 -23 -15 -39 -15c-30 0 -56 22 -56 57c0 17 10 33 26 47l98 88c12 10 25 18 43 18z" />
    <glyph glyph-name="Ycircumflex.3" unicode="&#xe10d;" horiz-adv-x="578" 
d="M107 143c37 0 72 9 100 39l-186 368c-9 17 -14 35 -14 53c0 50 40 88 88 88c44 0 68 -20 89 -65l113 -246l99 247c19 46 46 64 89 64c47 0 86 -37 86 -86c0 -18 -5 -33 -13 -51l-150 -355c-68 -162 -183 -209 -296 -209c-60 0 -90 34 -90 76c0 43 30 77 85 77zM287 974
c18 0 31 -8 43 -18l98 -88c16 -14 26 -30 26 -47c0 -35 -26 -57 -56 -57c-16 0 -27 5 -39 15l-72 65l-72 -65c-12 -10 -23 -15 -39 -15c-30 0 -56 22 -56 57c0 17 10 33 26 47l98 88c12 10 25 18 43 18z" />
    <glyph glyph-name="Ydieresis" unicode="&#x178;" horiz-adv-x="590" 
d="M564 550l-182 -275v-200c0 -47 -41 -85 -88 -85c-48 0 -88 38 -88 85v201l-180 275c-10 16 -16 36 -16 55c0 49 38 84 87 84c29 0 57 -13 73 -38l123 -200l127 201c16 24 44 37 73 37c49 0 87 -36 87 -85c0 -19 -5 -39 -16 -55zM168 765c-51 0 -92 42 -92 93s41 92 92 92
c52 0 93 -41 93 -92s-41 -93 -93 -93zM422 765c-51 0 -92 42 -92 93s41 92 92 92s92 -41 92 -92s-41 -93 -92 -93z" />
    <glyph glyph-name="Ydieresis.2" unicode="&#xe10e;" horiz-adv-x="633" 
d="M607 550l-204 -308v-167c0 -47 -41 -85 -88 -85c-48 0 -88 38 -88 85v168l-201 308c-10 16 -16 36 -16 55c0 49 38 84 87 84c29 0 57 -13 73 -38l144 -233l149 234c16 24 44 37 73 37c49 0 87 -36 87 -85c0 -19 -5 -39 -16 -55zM189 765c-51 0 -92 42 -92 93s41 92 92 92
c52 0 93 -41 93 -92s-41 -93 -93 -93zM443 765c-51 0 -92 42 -92 93s41 92 92 92s92 -41 92 -92s-41 -93 -92 -93z" />
    <glyph glyph-name="Ydieresis.3" unicode="&#xe10f;" horiz-adv-x="578" 
d="M107 143c37 0 72 9 100 39l-186 368c-9 17 -14 35 -14 53c0 50 40 88 88 88c44 0 68 -20 89 -65l113 -246l99 247c19 46 46 64 89 64c47 0 86 -37 86 -86c0 -18 -5 -33 -13 -51l-150 -355c-68 -162 -183 -209 -296 -209c-60 0 -90 34 -90 76c0 43 30 77 85 77zM156 765
c-51 0 -92 42 -92 93s41 92 92 92c52 0 93 -41 93 -92s-41 -93 -93 -93zM410 765c-51 0 -92 42 -92 93s41 92 92 92s92 -41 92 -92s-41 -93 -92 -93z" />
    <glyph glyph-name="Ysmall" unicode="&#xf779;" horiz-adv-x="484" 
d="M455 418l-132 -200v-148c0 -43 -31 -78 -82 -78s-80 35 -80 78v148l-133 202c-9 13 -17 34 -17 55c0 45 34 77 80 77c39 0 57 -17 71 -41l78 -134l85 139c15 24 37 36 68 36c46 0 80 -33 80 -78c0 -22 -8 -41 -18 -56z" />
    <glyph glyph-name="Ysmall.2" unicode="&#xe110;" horiz-adv-x="516" 
d="M487 418l-148 -225v-123c0 -43 -31 -78 -82 -78s-80 35 -80 78v123l-149 227c-9 13 -17 34 -17 55c0 45 34 77 80 77c39 0 57 -17 71 -41l94 -159l101 164c15 24 37 36 68 36c46 0 80 -33 80 -78c0 -22 -8 -41 -18 -56z" />
    <glyph glyph-name="Ysmall.3" unicode="&#xe111;" horiz-adv-x="480" 
d="M98 125c26 0 50 5 69 25l-144 282c-7 14 -12 30 -12 43c0 45 35 77 77 77c38 0 58 -19 75 -55l84 -177c24 59 49 119 72 178c16 39 39 54 77 54c41 0 73 -32 73 -75c0 -14 -4 -26 -11 -42l-118 -276c-54 -126 -149 -167 -239 -167c-53 0 -78 30 -78 67c0 36 25 66 75 66z
" />
    <glyph glyph-name="Ysmallacute" unicode="&#xe112;" horiz-adv-x="484" 
d="M455 418l-132 -200v-148c0 -43 -31 -78 -82 -78s-80 35 -80 78v148l-133 202c-9 13 -17 34 -17 55c0 45 34 77 80 77c39 0 57 -17 71 -41l78 -134l85 139c15 24 37 36 68 36c46 0 80 -33 80 -78c0 -22 -8 -41 -18 -56zM156 672c0 13 4 24 10 36l42 89c10 22 27 39 56 39
c33 0 63 -26 63 -59c0 -14 -4 -23 -15 -41l-51 -82c-13 -21 -29 -33 -51 -33c-29 0 -54 22 -54 51z" />
    <glyph glyph-name="Ysmallacute.2" unicode="&#xe113;" horiz-adv-x="516" 
d="M487 418l-148 -225v-123c0 -43 -31 -78 -82 -78s-80 35 -80 78v123l-149 227c-9 13 -17 34 -17 55c0 45 34 77 80 77c39 0 57 -17 71 -41l94 -159l101 164c15 24 37 36 68 36c46 0 80 -33 80 -78c0 -22 -8 -41 -18 -56zM173 672c0 13 4 24 10 36l42 89c10 22 27 39 56 39
c33 0 63 -26 63 -59c0 -14 -4 -23 -15 -41l-51 -82c-13 -21 -29 -33 -51 -33c-29 0 -54 22 -54 51z" />
    <glyph glyph-name="Ysmallacute.3" unicode="&#xe114;" horiz-adv-x="480" 
d="M98 125c26 0 50 5 69 25l-144 282c-7 14 -12 30 -12 43c0 45 35 77 77 77c38 0 58 -19 75 -55l84 -177c24 59 49 119 72 178c16 39 39 54 77 54c41 0 73 -32 73 -75c0 -14 -4 -26 -11 -42l-118 -276c-54 -126 -149 -167 -239 -167c-53 0 -78 30 -78 67c0 36 25 66 75 66z
M162 672c0 13 4 24 10 36l42 89c10 22 27 39 56 39c33 0 63 -26 63 -59c0 -14 -4 -23 -15 -41l-51 -82c-13 -21 -29 -33 -51 -33c-29 0 -54 22 -54 51z" />
    </font>
</defs>
</svg>
