<?xml version="1.0" standalone="no"?>
<!DOCTYPE svg PUBLIC "-//W3C//DTD SVG 1.1//EN" "http://www.w3.org/Graphics/SVG/1.1/DTD/svg11.dtd" >
<svg xmlns="http://www.w3.org/2000/svg" xmlns:xlink="http://www.w3.org/1999/xlink" version="1.1">
<metadata>
Created by FontForge 20190801 at Thu Sep 18 14:44:50 2008
 By Jimmy Wärting
Copyright (c) 2008 by G-Type Designed and digitized by Nick Cooke. All rights reserved.
</metadata>
<defs>
<font id="HouschkaRounded-Thin" horiz-adv-x="600" >
  <font-face 
    font-family="Houschka Rounded Thin"
    font-weight="100"
    font-stretch="normal"
    units-per-em="1000"
    panose-1="2 15 5 3 2 0 0 2 0 3"
    ascent="760"
    descent="-240"
    x-height="445"
    cap-height="681"
    bbox="-151 -251 1348 1010"
    underline-thickness="50"
    underline-position="-100"
    stemh="14"
    stemv="14"
    unicode-range="U+0020-FB06"
  />
<missing-glyph horiz-adv-x="500" 
d="M0 690h500v-690h-500v690zM250 301l-181 -249h361zM69 638l181 -249l180 249h-361zM218 345l-166 229v-458zM282 345l166 -229v458z" />
    <glyph glyph-name="ff" unicode="ff" horiz-adv-x="544" 
d="M117 445h222v105c0 82 27 140 115 140c28 0 60 -7 86 -22c15 -9 25 -18 25 -24c0 -3 -2 -6 -6 -6c-6 0 -9 8 -32 21s-48 18 -73 18c-78 0 -101 -47 -101 -127v-105h167c3 0 6 -3 6 -6c0 -4 -3 -6 -6 -6h-167v-436c0 -4 -3 -7 -7 -7s-7 3 -7 7v436h-222v-436
c0 -4 -3 -7 -7 -7s-7 3 -7 7v436h-63c-3 0 -6 2 -6 6c0 3 3 6 6 6h63v95c0 82 27 140 115 140c28 0 60 -7 86 -22c15 -9 25 -18 25 -24c0 -3 -2 -6 -6 -6c-6 0 -9 8 -32 21s-48 18 -73 18c-78 0 -101 -47 -101 -127v-95z" />
    <glyph glyph-name="ffi" unicode="ffi" horiz-adv-x="669" 
d="M103 445v95c0 82 27 140 115 140c28 0 60 -7 86 -22c15 -9 25 -18 25 -24c0 -3 -2 -6 -6 -6c-6 0 -9 8 -32 21s-48 18 -73 18c-78 0 -101 -47 -101 -127v-95h222v84c0 93 30 161 128 161c44 0 73 -11 95 -21c16 -7 24 -14 24 -20c0 -3 -2 -6 -6 -6c-6 0 -5 3 -28 15
c-20 10 -49 18 -85 18c-86 0 -114 -56 -114 -147v-84h229c4 0 7 -3 7 -7v-441c0 -4 -3 -7 -7 -7s-7 3 -7 7v436h-222v-436c0 -4 -3 -7 -7 -7s-7 3 -7 7v436h-222v-436c0 -4 -3 -7 -7 -7s-7 3 -7 7v436h-63c-3 0 -6 2 -6 6c0 3 3 6 6 6h63z" />
    <glyph glyph-name="ffj" unicode="ffj" horiz-adv-x="669" 
d="M117 445h222v84c0 93 30 161 128 161c44 0 73 -11 95 -21c16 -7 24 -14 24 -20c0 -3 -2 -6 -6 -6c-6 0 -5 3 -28 15c-20 10 -49 18 -85 18c-86 0 -114 -56 -114 -147v-84h229c4 0 7 -3 7 -7v-509c0 -40 -5 -90 -28 -122c-13 -18 -37 -33 -51 -33c-4 0 -7 3 -7 8
c0 11 23 5 47 36c20 26 25 71 25 131v484h-222v-436c0 -4 -3 -7 -7 -7s-7 3 -7 7v436h-222v-436c0 -4 -3 -7 -7 -7s-7 3 -7 7v436h-63c-3 0 -6 2 -6 6c0 3 3 6 6 6h63v95c0 82 27 140 115 140c28 0 60 -7 86 -22c15 -9 25 -18 25 -24c0 -3 -2 -6 -6 -6c-6 0 -9 8 -32 21
s-48 18 -73 18c-78 0 -101 -47 -101 -127v-95z" />
    <glyph glyph-name="ffl" unicode="ffl" horiz-adv-x="671" 
d="M117 445h222v85c0 93 31 161 128 161c37 0 70 -8 92 -20c26 -15 32 -29 32 -45v-629c0 -4 -3 -7 -7 -7s-7 3 -7 7v630c0 20 -37 50 -110 50c-85 0 -114 -56 -114 -147v-85h167c3 0 6 -3 6 -6c0 -4 -3 -6 -6 -6h-167v-436c0 -4 -3 -7 -7 -7s-7 3 -7 7v436h-222v-436
c0 -4 -3 -7 -7 -7s-7 3 -7 7v436h-63c-3 0 -6 2 -6 6c0 3 3 6 6 6h63v95c0 82 27 140 115 140c28 0 60 -7 86 -22c15 -9 25 -18 25 -24c0 -3 -2 -6 -6 -6c-6 0 -9 8 -32 21s-48 18 -73 18c-78 0 -101 -47 -101 -127v-95z" />
    <glyph glyph-name="fi" unicode="fi" horiz-adv-x="433" 
d="M117 445h229c4 0 7 -3 7 -7v-441c0 -4 -3 -7 -7 -7s-7 3 -7 7v436h-222v-436c0 -4 -3 -7 -7 -7s-7 3 -7 7v436h-63c-3 0 -6 2 -6 6c0 3 3 6 6 6h63v84c0 93 30 161 128 161c44 0 73 -11 95 -21c16 -7 24 -14 24 -20c0 -3 -2 -6 -6 -6c-6 0 -5 3 -28 15
c-20 10 -49 18 -85 18c-86 0 -114 -56 -114 -147v-84z" />
    <glyph glyph-name="fj" unicode="fj" horiz-adv-x="439" 
d="M117 445h229c4 0 7 -3 7 -7v-509c0 -40 -5 -90 -28 -122c-13 -18 -37 -33 -51 -33c-4 0 -7 3 -7 8c0 11 23 5 47 36c20 26 25 71 25 131v484h-222v-436c0 -4 -3 -7 -7 -7s-7 3 -7 7v436h-63c-3 0 -6 2 -6 6c0 3 3 6 6 6h63v84c0 93 30 161 128 161c44 0 73 -11 95 -21
c16 -7 24 -14 24 -20c0 -3 -2 -6 -6 -6c-6 0 -5 3 -28 15c-20 10 -49 18 -85 18c-86 0 -114 -56 -114 -147v-84z" />
    <glyph glyph-name="fl" unicode="fl" horiz-adv-x="435" 
d="M355 626v-629c0 -4 -3 -7 -7 -7s-7 3 -7 7v630c0 20 -37 50 -110 50c-85 0 -114 -56 -114 -147v-85h177c3 0 6 -3 6 -6c0 -4 -3 -6 -6 -6h-177v-436c0 -4 -3 -7 -7 -7s-7 3 -7 7v436h-63c-3 0 -6 2 -6 6c0 3 3 6 6 6h63v85c0 93 31 161 128 161c37 0 70 -8 92 -20
c26 -15 32 -29 32 -45z" />
    <glyph glyph-name=".notdef" horiz-adv-x="500" 
d="M0 690h500v-690h-500v690zM250 301l-181 -249h361zM69 638l181 -249l180 249h-361zM218 345l-166 229v-458zM282 345l166 -229v458z" />
    <glyph glyph-name="A" unicode="A" horiz-adv-x="688" 
d="M344 676c-79 0 -140 -34 -181 -81c-46 -55 -67 -132 -67 -206v-109h496v109c0 74 -21 151 -67 206c-41 47 -102 81 -181 81zM608 388v-390c0 -4 -3 -8 -8 -8s-8 4 -8 8v268h-496v-268c0 -4 -3 -8 -8 -8s-8 4 -8 8v390c0 76 21 155 69 214c43 53 108 88 195 88
s152 -35 195 -88c48 -59 69 -138 69 -214z" />
    <glyph glyph-name="A.2" unicode="&#xe000;" horiz-adv-x="690" 
d="M344 676c-79 0 -140 -34 -181 -81c-46 -55 -67 -132 -67 -206v-102h496v102c0 74 -21 151 -67 206c-41 47 -102 81 -181 81zM608 388v-390c0 -4 -3 -8 -8 -8s-8 4 -8 8v275h-496v-275c0 -4 -3 -8 -8 -8s-8 4 -8 8v390c0 76 21 155 69 214c43 53 108 88 195 88
s152 -35 195 -88c48 -59 69 -138 69 -214z" />
    <glyph glyph-name="A.3" unicode="&#xe001;" horiz-adv-x="621" 
d="M96 616c0 6 14 18 40 31c43 22 105 43 186 43c62 0 127 -13 171 -69c30 -39 48 -98 48 -187v-436c0 -4 -3 -8 -8 -8s-8 4 -8 8v47c-71 -42 -137 -55 -217 -55c-108 0 -247 41 -247 181c0 84 42 135 106 168c93 48 235 56 358 66v29c0 87 -16 141 -46 179
c-42 53 -102 63 -157 63c-89 0 -140 -25 -179 -46c-19 -10 -31 -21 -40 -21c-4 0 -7 3 -7 7zM77 172c0 -127 126 -168 233 -168c83 0 145 12 215 56v331c-117 -8 -251 -16 -341 -59c-65 -31 -107 -80 -107 -160z" />
    <glyph glyph-name="A.calt" unicode="&#xe002;" horiz-adv-x="617" 
d="M308 664l-193 -452h387zM593 0l-85 198h-399l-85 -198c-3 -7 -5 -10 -10 -10s-7 3 -7 7c0 2 2 6 4 11l289 675c2 4 4 7 9 7s6 -3 8 -7l290 -675c2 -4 3 -8 3 -10c0 -4 -2 -8 -7 -8s-7 3 -10 10z" />
    <glyph glyph-name="AE" unicode="&#xc6;" horiz-adv-x="1035" 
d="M608 333v-319h387c4 0 7 -3 7 -7s-3 -7 -7 -7h-395c-3 0 -5 1 -6 2c-2 2 -2 4 -2 6v258h-496v-268c0 -4 -3 -8 -8 -8s-8 4 -8 8v390c0 76 21 155 69 214c43 53 108 88 195 88s152 -35 195 -88c24 -30 42 -65 53 -103v174c0 4 3 8 8 8h395c4 0 7 -3 7 -7s-3 -7 -7 -7h-387
v-320h336c4 0 7 -3 7 -7s-3 -7 -7 -7h-336zM344 676c-79 0 -140 -34 -181 -81c-46 -55 -67 -132 -67 -206v-109h496v109c0 74 -21 151 -67 206c-41 47 -102 81 -181 81z" />
    <glyph glyph-name="AE.3" unicode="&#xe003;" horiz-adv-x="1188" 
d="M61 171c0 87 64 135 150 161c97 29 221 32 314 32v70c0 87 -16 141 -46 179c-42 53 -102 63 -157 63c-89 0 -140 -25 -179 -46c-19 -10 -31 -21 -40 -21c-4 0 -7 3 -7 7c0 6 14 18 40 31c43 22 105 43 186 43c62 0 128 -12 171 -69c26 -35 44 -84 47 -157
c13 45 34 86 64 122c53 63 131 104 237 104c94 0 171 -41 221 -98c51 -58 78 -137 78 -230c0 -7 -2 -12 -13 -12h-586c0 -93 25 -170 68 -228c57 -75 144 -118 248 -118c70 0 123 15 161 31c55 23 78 52 87 52c4 0 7 -3 7 -7c0 -10 -29 -33 -76 -53
c-46 -20 -109 -37 -177 -37c-108 0 -196 41 -256 114c-61 -57 -142 -114 -295 -114c-108 0 -247 41 -247 181zM541 364h584c-2 95 -30 166 -75 218c-46 54 -119 94 -209 94c-103 0 -178 -42 -230 -106c-41 -51 -67 -128 -70 -206zM310 4c156 0 227 59 285 111
c-44 60 -70 140 -70 234v1c-87 0 -211 -3 -307 -32c-81 -25 -141 -69 -141 -146c0 -127 126 -168 233 -168z" />
    <glyph glyph-name="AE.calt" unicode="&#xe004;" horiz-adv-x="969" 
d="M541 333v-319h388c4 0 7 -3 7 -7s-3 -7 -7 -7h-396c-5 0 -8 4 -8 8v190h-347l-155 -202c-3 -4 -5 -6 -9 -6s-7 3 -7 7c0 3 2 7 5 11l506 662c6 8 10 11 19 11h392c4 0 7 -3 7 -7s-3 -7 -7 -7h-388v-320h337c4 0 7 -3 7 -7s-3 -7 -7 -7h-337zM188 212h337v439z" />
    <glyph glyph-name="AEsmall" unicode="&#xf7e6;" horiz-adv-x="881" 
d="M508 266v-254h351c3 0 6 -3 6 -6c0 -4 -3 -6 -6 -6h-357h-1h-1h-2c-1 1 -3 2 -3 3c0 0 -1 0 -1 1v2v1v205h-396v-213c0 -4 -3 -7 -7 -7s-7 3 -7 7v310c0 62 17 126 56 172c35 42 86 71 156 71s121 -29 156 -71c19 -23 33 -50 42 -79v135c0 4 3 7 7 7h358c3 0 6 -3 6 -6
c0 -4 -3 -6 -6 -6h-351v-254h312c3 0 6 -3 6 -6c0 -4 -3 -6 -6 -6h-312zM296 539c-66 0 -114 -27 -147 -68c-35 -43 -51 -103 -51 -162v-85h396v94c-2 56 -18 112 -51 153s-81 68 -147 68z" />
    <glyph glyph-name="AEsmall.3" unicode="&#xe005;" horiz-adv-x="974" 
d="M700 6c56 0 98 12 128 25c42 19 62 42 69 42c4 0 7 -3 7 -8c0 -8 -25 -28 -63 -44c-37 -16 -86 -29 -141 -29c-84 0 -153 30 -200 86c-57 -43 -124 -86 -239 -86c-94 0 -196 44 -196 150c0 147 235 149 368 149v53c0 68 -13 114 -37 144c-34 43 -80 51 -123 51
c-76 0 -118 -23 -143 -39c-13 -8 -21 -15 -30 -15c-4 0 -7 3 -7 7c0 7 12 15 29 24c37 19 93 36 151 36c50 0 101 -10 135 -56c21 -28 34 -66 38 -122c10 35 26 68 50 96c43 50 104 82 190 82c74 0 139 -34 178 -78c40 -45 62 -110 62 -185c0 -6 -1 -11 -10 -11h-469
c1 -68 20 -133 54 -178c45 -60 115 -94 199 -94zM447 291h465c-2 70 -22 132 -59 173s-99 74 -166 74c-83 0 -143 -32 -184 -84c-34 -43 -53 -103 -56 -163zM263 5c106 0 173 40 229 82v1c-37 48 -59 112 -59 190c-133 0 -353 -2 -353 -135c0 -97 95 -138 183 -138z" />
    <glyph glyph-name="Aacute" unicode="&#xc1;" horiz-adv-x="688" 
d="M344 676c-79 0 -140 -34 -181 -81c-46 -55 -67 -132 -67 -206v-109h496v109c0 74 -21 151 -67 206c-41 47 -102 81 -181 81zM608 388v-390c0 -4 -3 -8 -8 -8s-8 4 -8 8v268h-496v-268c0 -4 -3 -8 -8 -8s-8 4 -8 8v390c0 76 21 155 69 214c43 53 108 88 195 88
s152 -35 195 -88c48 -59 69 -138 69 -214zM284 782c0 2 1 4 3 8l99 171c3 6 7 9 10 9c5 0 8 -4 8 -8c0 -2 -1 -4 -4 -9l-101 -168c-3 -5 -5 -8 -9 -8c-3 0 -6 2 -6 5z" />
    <glyph glyph-name="Aacute.2" unicode="&#xe006;" horiz-adv-x="690" 
d="M344 676c-79 0 -140 -34 -181 -81c-46 -55 -67 -132 -67 -206v-102h496v102c0 74 -21 151 -67 206c-41 47 -102 81 -181 81zM608 388v-390c0 -4 -3 -8 -8 -8s-8 4 -8 8v275h-496v-275c0 -4 -3 -8 -8 -8s-8 4 -8 8v390c0 76 21 155 69 214c43 53 108 88 195 88
s152 -35 195 -88c48 -59 69 -138 69 -214zM285 782c0 2 1 4 3 8l99 171c3 6 7 9 10 9c5 0 8 -4 8 -8c0 -2 -1 -4 -4 -9l-101 -168c-3 -5 -5 -8 -9 -8c-3 0 -6 2 -6 5z" />
    <glyph glyph-name="Aacute.3" unicode="&#xe007;" horiz-adv-x="621" 
d="M96 616c0 6 14 18 40 31c43 22 105 43 186 43c62 0 127 -13 171 -69c30 -39 48 -98 48 -187v-436c0 -4 -3 -8 -8 -8s-8 4 -8 8v47c-71 -42 -137 -55 -217 -55c-108 0 -247 41 -247 181c0 84 42 135 106 168c93 48 235 56 358 66v29c0 87 -16 141 -46 179
c-42 53 -102 63 -157 63c-89 0 -140 -25 -179 -46c-19 -10 -31 -21 -40 -21c-4 0 -7 3 -7 7zM77 172c0 -127 126 -168 233 -168c83 0 145 12 215 56v331c-117 -8 -251 -16 -341 -59c-65 -31 -107 -80 -107 -160zM261 782c0 2 1 4 3 8l99 171c3 6 7 9 10 9c5 0 8 -4 8 -8
c0 -2 -1 -4 -4 -9l-101 -168c-3 -5 -5 -8 -9 -8c-3 0 -6 2 -6 5z" />
    <glyph glyph-name="Aacute.calt" unicode="&#xe008;" horiz-adv-x="617" 
d="M308 664l-193 -452h387zM593 0l-85 198h-399l-85 -198c-3 -7 -5 -10 -10 -10s-7 3 -7 7c0 2 2 6 4 11l289 675c2 4 4 7 9 7s6 -3 8 -7l290 -675c2 -4 3 -8 3 -10c0 -4 -2 -8 -7 -8s-7 3 -10 10zM249 782c0 2 1 4 3 8l99 171c3 6 7 9 10 9c5 0 8 -4 8 -8c0 -2 -1 -4 -4 -9
l-101 -168c-3 -5 -5 -8 -9 -8c-3 0 -6 2 -6 5z" />
    <glyph glyph-name="Abreve" unicode="&#x102;" horiz-adv-x="688" 
d="M344 676c-79 0 -140 -34 -181 -81c-46 -55 -67 -132 -67 -206v-109h496v109c0 74 -21 151 -67 206c-41 47 -102 81 -181 81zM608 388v-390c0 -4 -3 -8 -8 -8s-8 4 -8 8v268h-496v-268c0 -4 -3 -8 -8 -8s-8 4 -8 8v390c0 76 21 155 69 214c43 53 108 88 195 88
s152 -35 195 -88c48 -59 69 -138 69 -214zM344 859c43 0 71 23 89 47c17 23 23 44 31 44c4 0 8 -3 8 -7c0 -6 -10 -22 -20 -36c-25 -36 -59 -62 -108 -62s-83 26 -108 62c-10 14 -20 30 -20 36c0 4 4 7 8 7c8 0 14 -21 31 -44c18 -24 46 -47 89 -47z" />
    <glyph glyph-name="Abreve.2" unicode="&#xe009;" horiz-adv-x="688" 
d="M344 859c43 0 71 23 89 47c17 23 23 44 31 44c4 0 8 -3 8 -7c0 -6 -10 -22 -20 -36c-25 -36 -59 -62 -108 -62s-83 26 -108 62c-10 14 -20 30 -20 36c0 4 4 7 8 7c8 0 14 -21 31 -44c18 -24 46 -47 89 -47zM344 676c-79 0 -140 -34 -181 -81c-46 -55 -67 -132 -67 -206
v-102h496v102c0 74 -21 151 -67 206c-41 47 -102 81 -181 81zM608 388v-390c0 -4 -3 -8 -8 -8s-8 4 -8 8v275h-496v-275c0 -4 -3 -8 -8 -8s-8 4 -8 8v390c0 76 21 155 69 214c43 53 108 88 195 88s152 -35 195 -88c48 -59 69 -138 69 -214z" />
    <glyph glyph-name="Abreve.3" unicode="&#xe00a;" horiz-adv-x="621" 
d="M96 616c0 6 14 18 40 31c43 22 105 43 186 43c62 0 127 -13 171 -69c30 -39 48 -98 48 -187v-436c0 -4 -3 -8 -8 -8s-8 4 -8 8v47c-71 -42 -137 -55 -217 -55c-108 0 -247 41 -247 181c0 84 42 135 106 168c93 48 235 56 358 66v29c0 87 -16 141 -46 179
c-42 53 -102 63 -157 63c-89 0 -140 -25 -179 -46c-19 -10 -31 -21 -40 -21c-4 0 -7 3 -7 7zM77 172c0 -127 126 -168 233 -168c83 0 145 12 215 56v331c-117 -8 -251 -16 -341 -59c-65 -31 -107 -80 -107 -160zM316 859c43 0 71 23 89 47c17 23 23 44 31 44c4 0 8 -3 8 -7
c0 -6 -10 -22 -20 -36c-25 -36 -59 -62 -108 -62s-83 26 -108 62c-10 14 -20 30 -20 36c0 4 4 7 8 7c8 0 14 -21 31 -44c18 -24 46 -47 89 -47z" />
    <glyph glyph-name="Abreve.calt" unicode="&#xe00b;" horiz-adv-x="617" 
d="M308 664l-193 -452h387zM593 0l-85 198h-399l-85 -198c-3 -7 -5 -10 -10 -10s-7 3 -7 7c0 2 2 6 4 11l289 675c2 4 4 7 9 7s6 -3 8 -7l290 -675c2 -4 3 -8 3 -10c0 -4 -2 -8 -7 -8s-7 3 -10 10zM305 859c43 0 71 23 89 47c17 23 23 44 31 44c4 0 8 -3 8 -7
c0 -6 -10 -22 -20 -36c-25 -36 -59 -62 -108 -62s-83 26 -108 62c-10 14 -20 30 -20 36c0 4 4 7 8 7c8 0 14 -21 31 -44c18 -24 46 -47 89 -47z" />
    <glyph glyph-name="Acircumflex" unicode="&#xc2;" horiz-adv-x="688" 
d="M344 676c-79 0 -140 -34 -181 -81c-46 -55 -67 -132 -67 -206v-109h496v109c0 74 -21 151 -67 206c-41 47 -102 81 -181 81zM608 388v-390c0 -4 -3 -8 -8 -8s-8 4 -8 8v268h-496v-268c0 -4 -3 -8 -8 -8s-8 4 -8 8v390c0 76 21 155 69 214c43 53 108 88 195 88
s152 -35 195 -88c48 -59 69 -138 69 -214zM345 969c5 0 8 -4 11 -7l140 -153c2 -2 3 -4 3 -6c0 -4 -3 -7 -7 -7c-2 0 -4 1 -6 3l-141 152l-141 -152c-2 -2 -4 -3 -6 -3c-4 0 -7 3 -7 7c0 2 1 4 3 6l140 153c3 3 6 7 11 7z" />
    <glyph glyph-name="Acircumflex.2" unicode="&#xe00c;" horiz-adv-x="690" 
d="M344 676c-79 0 -140 -34 -181 -81c-46 -55 -67 -132 -67 -206v-102h496v102c0 74 -21 151 -67 206c-41 47 -102 81 -181 81zM608 388v-390c0 -4 -3 -8 -8 -8s-8 4 -8 8v275h-496v-275c0 -4 -3 -8 -8 -8s-8 4 -8 8v390c0 76 21 155 69 214c43 53 108 88 195 88
s152 -35 195 -88c48 -59 69 -138 69 -214zM345 969c5 0 8 -4 11 -7l140 -153c2 -2 3 -4 3 -6c0 -4 -3 -7 -7 -7c-2 0 -4 1 -6 3l-141 152l-141 -152c-2 -2 -4 -3 -6 -3c-4 0 -7 3 -7 7c0 2 1 4 3 6l140 153c3 3 6 7 11 7z" />
    <glyph glyph-name="Acircumflex.3" unicode="&#xe00d;" horiz-adv-x="621" 
d="M96 616c0 6 14 18 40 31c43 22 105 43 186 43c62 0 127 -13 171 -69c30 -39 48 -98 48 -187v-436c0 -4 -3 -8 -8 -8s-8 4 -8 8v47c-71 -42 -137 -55 -217 -55c-108 0 -247 41 -247 181c0 84 42 135 106 168c93 48 235 56 358 66v29c0 87 -16 141 -46 179
c-42 53 -102 63 -157 63c-89 0 -140 -25 -179 -46c-19 -10 -31 -21 -40 -21c-4 0 -7 3 -7 7zM77 172c0 -127 126 -168 233 -168c83 0 145 12 215 56v331c-117 -8 -251 -16 -341 -59c-65 -31 -107 -80 -107 -160zM314 969c5 0 8 -4 11 -7l140 -153c2 -2 3 -4 3 -6
c0 -4 -3 -7 -7 -7c-2 0 -4 1 -6 3l-141 152l-141 -152c-2 -2 -4 -3 -6 -3c-4 0 -7 3 -7 7c0 2 1 4 3 6l140 153c3 3 6 7 11 7z" />
    <glyph glyph-name="Acircumflex.calt" unicode="&#xe00e;" horiz-adv-x="617" 
d="M308 664l-193 -452h387zM593 0l-85 198h-399l-85 -198c-3 -7 -5 -10 -10 -10s-7 3 -7 7c0 2 2 6 4 11l289 675c2 4 4 7 9 7s6 -3 8 -7l290 -675c2 -4 3 -8 3 -10c0 -4 -2 -8 -7 -8s-7 3 -10 10zM308 969c5 0 8 -4 11 -7l140 -153c2 -2 3 -4 3 -6c0 -4 -3 -7 -7 -7
c-2 0 -4 1 -6 3l-141 152l-141 -152c-2 -2 -4 -3 -6 -3c-4 0 -7 3 -7 7c0 2 1 4 3 6l140 153c3 3 6 7 11 7z" />
    <glyph glyph-name="Adieresis" unicode="&#xc4;" horiz-adv-x="688" 
d="M344 676c-79 0 -140 -34 -181 -81c-46 -55 -67 -132 -67 -206v-109h496v109c0 74 -21 151 -67 206c-41 47 -102 81 -181 81zM608 388v-390c0 -4 -3 -8 -8 -8s-8 4 -8 8v268h-496v-268c0 -4 -3 -8 -8 -8s-8 4 -8 8v390c0 76 21 155 69 214c43 53 108 88 195 88
s152 -35 195 -88c48 -59 69 -138 69 -214zM273 866c-7 0 -12 5 -12 12c0 6 5 11 12 11c6 0 11 -5 11 -11c0 -7 -5 -12 -11 -12zM417 866c-7 0 -12 5 -12 12c0 6 5 11 12 11c6 0 11 -5 11 -11c0 -7 -5 -12 -11 -12z" />
    <glyph glyph-name="Adieresis.2" unicode="&#xe00f;" horiz-adv-x="690" 
d="M344 676c-79 0 -140 -34 -181 -81c-46 -55 -67 -132 -67 -206v-102h496v102c0 74 -21 151 -67 206c-41 47 -102 81 -181 81zM608 388v-390c0 -4 -3 -8 -8 -8s-8 4 -8 8v275h-496v-275c0 -4 -3 -8 -8 -8s-8 4 -8 8v390c0 76 21 155 69 214c43 53 108 88 195 88
s152 -35 195 -88c48 -59 69 -138 69 -214zM274 866c-7 0 -12 5 -12 12c0 6 5 11 12 11c6 0 11 -5 11 -11c0 -7 -5 -12 -11 -12zM418 866c-7 0 -12 5 -12 12c0 6 5 11 12 11c6 0 11 -5 11 -11c0 -7 -5 -12 -11 -12z" />
    <glyph glyph-name="Adieresis.3" unicode="&#xe010;" horiz-adv-x="621" 
d="M96 616c0 6 14 18 40 31c43 22 105 43 186 43c62 0 127 -13 171 -69c30 -39 48 -98 48 -187v-436c0 -4 -3 -8 -8 -8s-8 4 -8 8v47c-71 -42 -137 -55 -217 -55c-108 0 -247 41 -247 181c0 84 42 135 106 168c93 48 235 56 358 66v29c0 87 -16 141 -46 179
c-42 53 -102 63 -157 63c-89 0 -140 -25 -179 -46c-19 -10 -31 -21 -40 -21c-4 0 -7 3 -7 7zM77 172c0 -127 126 -168 233 -168c83 0 145 12 215 56v331c-117 -8 -251 -16 -341 -59c-65 -31 -107 -80 -107 -160zM239 866c-7 0 -12 5 -12 12c0 6 5 11 12 11c6 0 11 -5 11 -11
c0 -7 -5 -12 -11 -12zM383 866c-7 0 -12 5 -12 12c0 6 5 11 12 11c6 0 11 -5 11 -11c0 -7 -5 -12 -11 -12z" />
    <glyph glyph-name="Adieresis.calt" unicode="&#xe011;" horiz-adv-x="617" 
d="M308 664l-193 -452h387zM593 0l-85 198h-399l-85 -198c-3 -7 -5 -10 -10 -10s-7 3 -7 7c0 2 2 6 4 11l289 675c2 4 4 7 9 7s6 -3 8 -7l290 -675c2 -4 3 -8 3 -10c0 -4 -2 -8 -7 -8s-7 3 -10 10zM237 866c-7 0 -12 5 -12 12c0 6 5 11 12 11c6 0 11 -5 11 -11
c0 -7 -5 -12 -11 -12zM381 866c-7 0 -12 5 -12 12c0 6 5 11 12 11c6 0 11 -5 11 -11c0 -7 -5 -12 -11 -12z" />
    <glyph glyph-name="Agrave" unicode="&#xc0;" horiz-adv-x="688" 
d="M344 676c-79 0 -140 -34 -181 -81c-46 -55 -67 -132 -67 -206v-109h496v109c0 74 -21 151 -67 206c-41 47 -102 81 -181 81zM608 388v-390c0 -4 -3 -8 -8 -8s-8 4 -8 8v268h-496v-268c0 -4 -3 -8 -8 -8s-8 4 -8 8v390c0 76 21 155 69 214c43 53 108 88 195 88
s152 -35 195 -88c48 -59 69 -138 69 -214zM404 782c0 -3 -3 -5 -6 -5c-4 0 -6 3 -9 8l-101 168c-3 5 -4 7 -4 9c0 4 3 8 8 8c3 0 7 -3 10 -9l99 -171c2 -4 3 -6 3 -8z" />
    <glyph glyph-name="Agrave.2" unicode="&#xe012;" horiz-adv-x="690" 
d="M344 676c-79 0 -140 -34 -181 -81c-46 -55 -67 -132 -67 -206v-102h496v102c0 74 -21 151 -67 206c-41 47 -102 81 -181 81zM608 388v-390c0 -4 -3 -8 -8 -8s-8 4 -8 8v275h-496v-275c0 -4 -3 -8 -8 -8s-8 4 -8 8v390c0 76 21 155 69 214c43 53 108 88 195 88
s152 -35 195 -88c48 -59 69 -138 69 -214zM405 782c0 -3 -3 -5 -6 -5c-4 0 -6 3 -9 8l-101 168c-3 5 -4 7 -4 9c0 4 3 8 8 8c3 0 7 -3 10 -9l99 -171c2 -4 3 -6 3 -8z" />
    <glyph glyph-name="Agrave.3" unicode="&#xe013;" horiz-adv-x="621" 
d="M96 616c0 6 14 18 40 31c43 22 105 43 186 43c62 0 127 -13 171 -69c30 -39 48 -98 48 -187v-436c0 -4 -3 -8 -8 -8s-8 4 -8 8v47c-71 -42 -137 -55 -217 -55c-108 0 -247 41 -247 181c0 84 42 135 106 168c93 48 235 56 358 66v29c0 87 -16 141 -46 179
c-42 53 -102 63 -157 63c-89 0 -140 -25 -179 -46c-19 -10 -31 -21 -40 -21c-4 0 -7 3 -7 7zM77 172c0 -127 126 -168 233 -168c83 0 145 12 215 56v331c-117 -8 -251 -16 -341 -59c-65 -31 -107 -80 -107 -160zM382 782c0 -3 -3 -5 -6 -5c-4 0 -6 3 -9 8l-101 168
c-3 5 -4 7 -4 9c0 4 3 8 8 8c3 0 7 -3 10 -9l99 -171c2 -4 3 -6 3 -8z" />
    <glyph glyph-name="Agrave.calt" unicode="&#xe014;" horiz-adv-x="617" 
d="M308 664l-193 -452h387zM593 0l-85 198h-399l-85 -198c-3 -7 -5 -10 -10 -10s-7 3 -7 7c0 2 2 6 4 11l289 675c2 4 4 7 9 7s6 -3 8 -7l290 -675c2 -4 3 -8 3 -10c0 -4 -2 -8 -7 -8s-7 3 -10 10zM367 782c0 -3 -3 -5 -6 -5c-4 0 -6 3 -9 8l-101 168c-3 5 -4 7 -4 9
c0 4 3 8 8 8c3 0 7 -3 10 -9l99 -171c2 -4 3 -6 3 -8z" />
    <glyph glyph-name="Amacron" unicode="&#x100;" horiz-adv-x="688" 
d="M344 676c-79 0 -140 -34 -181 -81c-46 -55 -67 -132 -67 -206v-109h496v109c0 74 -21 151 -67 206c-41 47 -102 81 -181 81zM608 388v-390c0 -4 -3 -8 -8 -8s-8 4 -8 8v268h-496v-268c0 -4 -3 -8 -8 -8s-8 4 -8 8v390c0 76 21 155 69 214c43 53 108 88 195 88
s152 -35 195 -88c48 -59 69 -138 69 -214zM466 891c0 -4 -3 -6 -6 -6h-231c-3 0 -6 2 -6 6c0 3 3 6 6 6h231c3 0 6 -3 6 -6z" />
    <glyph glyph-name="Amacron.2" unicode="&#xe015;" horiz-adv-x="690" 
d="M344 676c-79 0 -140 -34 -181 -81c-46 -55 -67 -132 -67 -206v-102h496v102c0 74 -21 151 -67 206c-41 47 -102 81 -181 81zM608 388v-390c0 -4 -3 -8 -8 -8s-8 4 -8 8v275h-496v-275c0 -4 -3 -8 -8 -8s-8 4 -8 8v390c0 76 21 155 69 214c43 53 108 88 195 88
s152 -35 195 -88c48 -59 69 -138 69 -214zM467 891c0 -4 -3 -6 -6 -6h-231c-3 0 -6 2 -6 6c0 3 3 6 6 6h231c3 0 6 -3 6 -6z" />
    <glyph glyph-name="Amacron.3" unicode="&#xe016;" horiz-adv-x="621" 
d="M96 616c0 6 14 18 40 31c43 22 105 43 186 43c62 0 127 -13 171 -69c30 -39 48 -98 48 -187v-436c0 -4 -3 -8 -8 -8s-8 4 -8 8v47c-71 -42 -137 -55 -217 -55c-108 0 -247 41 -247 181c0 84 42 135 106 168c93 48 235 56 358 66v29c0 87 -16 141 -46 179
c-42 53 -102 63 -157 63c-89 0 -140 -25 -179 -46c-19 -10 -31 -21 -40 -21c-4 0 -7 3 -7 7zM77 172c0 -127 126 -168 233 -168c83 0 145 12 215 56v331c-117 -8 -251 -16 -341 -59c-65 -31 -107 -80 -107 -160zM437 891c0 -4 -3 -6 -6 -6h-231c-3 0 -6 2 -6 6c0 3 3 6 6 6
h231c3 0 6 -3 6 -6z" />
    <glyph glyph-name="Amacron.calt" unicode="&#xe017;" horiz-adv-x="617" 
d="M308 664l-193 -452h387zM593 0l-85 198h-399l-85 -198c-3 -7 -5 -10 -10 -10s-7 3 -7 7c0 2 2 6 4 11l289 675c2 4 4 7 9 7s6 -3 8 -7l290 -675c2 -4 3 -8 3 -10c0 -4 -2 -8 -7 -8s-7 3 -10 10zM430 891c0 -4 -3 -6 -6 -6h-231c-3 0 -6 2 -6 6c0 3 3 6 6 6h231
c3 0 6 -3 6 -6z" />
    <glyph glyph-name="Aogonek" unicode="&#x104;" horiz-adv-x="688" 
d="M608 388v-390c0 -4 -3 -8 -8 -8c-1 0 -2 0 -3 1c-16 -36 -28 -67 -28 -101c0 -26 6 -63 87 -63c34 0 45 9 51 9c4 0 7 -3 7 -7s-3 -6 -8 -8c-11 -4 -33 -8 -50 -8c-87 0 -101 40 -101 77c0 31 14 73 37 114v262h-496v-268c0 -4 -3 -8 -8 -8s-8 4 -8 8v390
c0 76 21 155 69 214c43 53 108 88 195 88s152 -35 195 -88c48 -59 69 -138 69 -214zM344 676c-79 0 -140 -34 -181 -81c-46 -55 -67 -132 -67 -206v-109h496v109c0 74 -21 151 -67 206c-41 47 -102 81 -181 81z" />
    <glyph glyph-name="Aogonek.2" unicode="&#xe018;" horiz-adv-x="690" 
d="M608 388v-390c0 -4 -3 -8 -8 -8c-1 0 -2 0 -3 1c-16 -36 -28 -67 -28 -101c0 -26 6 -63 87 -63c34 0 45 9 51 9c4 0 7 -3 7 -7s-3 -6 -8 -8c-11 -4 -33 -8 -50 -8c-87 0 -101 40 -101 77c0 31 14 73 37 114v269h-496v-275c0 -4 -3 -8 -8 -8s-8 4 -8 8v390
c0 76 21 155 69 214c43 53 108 88 195 88s152 -35 195 -88c48 -59 69 -138 69 -214zM344 676c-79 0 -140 -34 -181 -81c-46 -55 -67 -132 -67 -206v-102h496v102c0 74 -21 151 -67 206c-41 47 -102 81 -181 81z" />
    <glyph glyph-name="Aogonek.3" unicode="&#xe019;" horiz-adv-x="621" 
d="M96 616c0 6 14 18 40 31c43 22 105 43 186 43c62 0 127 -13 171 -69c30 -39 48 -98 48 -187v-436c0 -3 -3 -7 -7 -8c-16 -35 -28 -66 -28 -100c0 -26 6 -63 87 -63c34 0 45 9 51 9c4 0 7 -3 7 -7s-3 -6 -8 -8c-11 -4 -33 -8 -50 -8c-87 0 -101 40 -101 77
c0 30 12 68 33 107v1v48c-72 -43 -134 -56 -217 -56c-108 0 -247 41 -247 181c0 84 42 135 106 168c93 48 235 56 358 66v29c0 87 -16 141 -46 179c-42 53 -102 63 -157 63c-89 0 -140 -25 -179 -46c-19 -10 -31 -21 -40 -21c-4 0 -7 3 -7 7zM77 172
c0 -127 126 -168 233 -168c83 0 145 12 215 56v331c-117 -8 -251 -16 -341 -59c-65 -31 -107 -80 -107 -160z" />
    <glyph glyph-name="Aogonek.calt" unicode="&#xe01a;" horiz-adv-x="617" 
d="M558 -110c0 26 15 71 34 111l-84 197h-399l-85 -198c-3 -7 -5 -10 -10 -10s-7 3 -7 7c0 2 2 6 4 11l289 675c2 4 4 7 9 7s6 -3 8 -7l290 -675c2 -4 3 -8 3 -10c0 -4 -2 -8 -7 -8c-2 0 -3 1 -4 1c-18 -38 -27 -70 -27 -101c0 -26 6 -63 87 -63c34 0 45 9 51 9
c4 0 7 -3 7 -7s-3 -6 -8 -8c-11 -4 -33 -8 -50 -8c-87 0 -101 40 -101 77zM308 664l-193 -452h387z" />
    <glyph glyph-name="Aring" unicode="&#xc5;" horiz-adv-x="688" 
d="M344 676c-79 0 -140 -34 -181 -81c-46 -55 -67 -132 -67 -206v-109h496v109c0 74 -21 151 -67 206c-41 47 -102 81 -181 81zM608 388v-390c0 -4 -3 -8 -8 -8s-8 4 -8 8v268h-496v-268c0 -4 -3 -8 -8 -8s-8 4 -8 8v390c0 76 21 155 69 214c43 53 108 88 195 88
s152 -35 195 -88c48 -59 69 -138 69 -214zM248 867c0 -54 43 -97 96 -97c52 0 95 42 95 97c0 53 -43 96 -95 96c-53 0 -96 -43 -96 -96zM234 867c0 61 49 110 110 110c60 0 109 -49 109 -110c0 -62 -49 -111 -109 -111c-61 0 -110 49 -110 111z" />
    <glyph glyph-name="Aring.2" unicode="&#xe01b;" horiz-adv-x="690" 
d="M344 676c-79 0 -140 -34 -181 -81c-46 -55 -67 -132 -67 -206v-102h496v102c0 74 -21 151 -67 206c-41 47 -102 81 -181 81zM608 388v-390c0 -4 -3 -8 -8 -8s-8 4 -8 8v275h-496v-275c0 -4 -3 -8 -8 -8s-8 4 -8 8v390c0 76 21 155 69 214c43 53 108 88 195 88
s152 -35 195 -88c48 -59 69 -138 69 -214zM250 867c0 -54 43 -97 96 -97c52 0 95 42 95 97c0 53 -43 96 -95 96c-53 0 -96 -43 -96 -96zM236 867c0 61 49 110 110 110c60 0 109 -49 109 -110c0 -62 -49 -111 -109 -111c-61 0 -110 49 -110 111z" />
    <glyph glyph-name="Aring.3" unicode="&#xe01c;" horiz-adv-x="621" 
d="M96 616c0 6 14 18 40 31c43 22 105 43 186 43c62 0 127 -13 171 -69c30 -39 48 -98 48 -187v-436c0 -4 -3 -8 -8 -8s-8 4 -8 8v47c-71 -42 -137 -55 -217 -55c-108 0 -247 41 -247 181c0 84 42 135 106 168c93 48 235 56 358 66v29c0 87 -16 141 -46 179
c-42 53 -102 63 -157 63c-89 0 -140 -25 -179 -46c-19 -10 -31 -21 -40 -21c-4 0 -7 3 -7 7zM77 172c0 -127 126 -168 233 -168c83 0 145 12 215 56v331c-117 -8 -251 -16 -341 -59c-65 -31 -107 -80 -107 -160zM204 867c0 61 49 110 110 110c60 0 109 -49 109 -110
c0 -62 -49 -111 -109 -111c-61 0 -110 49 -110 111zM218 867c0 -54 43 -97 96 -97c52 0 95 42 95 97c0 53 -43 96 -95 96c-53 0 -96 -43 -96 -96z" />
    <glyph glyph-name="Aring.calt" unicode="&#xe01d;" horiz-adv-x="617" 
d="M308 664l-193 -452h387zM593 0l-85 198h-399l-85 -198c-3 -7 -5 -10 -10 -10s-7 3 -7 7c0 2 2 6 4 11l289 675c2 4 4 7 9 7s6 -3 8 -7l290 -675c2 -4 3 -8 3 -10c0 -4 -2 -8 -7 -8s-7 3 -10 10zM213 867c0 -54 43 -97 96 -97c52 0 95 42 95 97c0 53 -43 96 -95 96
c-53 0 -96 -43 -96 -96zM199 867c0 61 49 110 110 110c60 0 109 -49 109 -110c0 -62 -49 -111 -109 -111c-61 0 -110 49 -110 111z" />
    <glyph glyph-name="Asmall" unicode="&#xf761;" horiz-adv-x="584" 
d="M292 539c-66 0 -114 -27 -147 -68c-35 -43 -51 -103 -51 -162v-85h396v85c0 59 -16 119 -51 162c-33 41 -81 68 -147 68zM504 309v-310c0 -4 -3 -7 -7 -7s-7 3 -7 7v213h-396v-213c0 -4 -3 -7 -7 -7s-7 3 -7 7v310c0 62 17 126 56 172c35 42 86 71 156 71
s121 -29 156 -71c39 -46 56 -110 56 -172z" />
    <glyph glyph-name="Asmall.2" unicode="&#xe01e;" horiz-adv-x="584" 
d="M292 539c-66 0 -114 -27 -147 -68c-35 -43 -51 -103 -51 -162v-79h396v79c0 59 -16 119 -51 162c-33 41 -81 68 -147 68zM504 309v-310c0 -4 -3 -7 -7 -7s-7 3 -7 7v219h-396v-219c0 -4 -3 -7 -7 -7s-7 3 -7 7v310c0 62 17 126 56 172c35 42 86 71 156 71
s121 -29 156 -71c39 -46 56 -110 56 -172z" />
    <glyph glyph-name="Asmall.3" unicode="&#xe01f;" horiz-adv-x="527" 
d="M65 142c0 71 41 113 98 138c80 35 194 39 270 42v22c0 68 -13 114 -37 144c-34 43 -80 51 -123 51c-48 0 -85 -10 -108 -20c-38 -16 -54 -34 -65 -34c-4 0 -7 3 -7 7c0 7 12 15 29 24c37 19 93 36 151 36c50 0 100 -11 135 -56c24 -32 39 -80 39 -152v-344
c0 -4 -2 -8 -7 -8s-7 4 -7 8v36c-58 -33 -103 -44 -172 -44c-94 0 -196 44 -196 150zM263 5c65 0 113 10 170 46v259c-77 -3 -188 -7 -265 -42c-52 -24 -88 -62 -88 -125c0 -97 95 -138 183 -138z" />
    <glyph glyph-name="Asmall.calt" unicode="&#xe020;" horiz-adv-x="508" 
d="M478 -1l-67 157h-315l-66 -157c-2 -5 -5 -7 -8 -7c-4 0 -7 3 -7 6c0 2 1 5 2 7l229 540c2 4 3 7 8 7s7 -4 8 -7l229 -540c1 -2 2 -5 2 -7c0 -3 -3 -6 -7 -6c-3 0 -6 2 -8 7zM254 528l-153 -360h305z" />
    <glyph glyph-name="Asmallacute" unicode="&#xe021;" horiz-adv-x="584" 
d="M292 539c-66 0 -114 -27 -147 -68c-35 -43 -51 -103 -51 -162v-85h396v85c0 59 -16 119 -51 162c-33 41 -81 68 -147 68zM504 309v-310c0 -4 -3 -7 -7 -7s-7 3 -7 7v213h-396v-213c0 -4 -3 -7 -7 -7s-7 3 -7 7v310c0 62 17 126 56 172c35 42 86 71 156 71
s121 -29 156 -71c39 -46 56 -110 56 -172zM232 638c0 2 1 4 3 8l99 171c3 6 7 9 10 9c5 0 8 -4 8 -8c0 -2 -1 -4 -4 -9l-101 -168c-3 -5 -5 -8 -9 -8c-3 0 -6 2 -6 5z" />
    <glyph glyph-name="Asmallacute.2" unicode="&#xe022;" horiz-adv-x="584" 
d="M292 539c-66 0 -114 -27 -147 -68c-35 -43 -51 -103 -51 -162v-79h396v79c0 59 -16 119 -51 162c-33 41 -81 68 -147 68zM504 309v-310c0 -4 -3 -7 -7 -7s-7 3 -7 7v219h-396v-219c0 -4 -3 -7 -7 -7s-7 3 -7 7v310c0 62 17 126 56 172c35 42 86 71 156 71
s121 -29 156 -71c39 -46 56 -110 56 -172zM236 638c0 2 1 4 3 8l99 171c3 6 7 9 10 9c5 0 8 -4 8 -8c0 -2 -1 -4 -4 -9l-101 -168c-3 -5 -5 -8 -9 -8c-3 0 -6 2 -6 5z" />
    <glyph glyph-name="Asmallacute.3" unicode="&#xe023;" horiz-adv-x="527" 
d="M65 142c0 71 41 113 98 138c80 35 194 39 270 42v22c0 68 -13 114 -37 144c-34 43 -80 51 -123 51c-48 0 -85 -10 -108 -20c-38 -16 -54 -34 -65 -34c-4 0 -7 3 -7 7c0 7 12 15 29 24c37 19 93 36 151 36c50 0 100 -11 135 -56c24 -32 39 -80 39 -152v-344
c0 -4 -2 -8 -7 -8s-7 4 -7 8v36c-58 -33 -103 -44 -172 -44c-94 0 -196 44 -196 150zM263 5c65 0 113 10 170 46v259c-77 -3 -188 -7 -265 -42c-52 -24 -88 -62 -88 -125c0 -97 95 -138 183 -138zM215 638c0 2 1 4 3 8l99 171c3 6 7 9 10 9c5 0 8 -4 8 -8c0 -2 -1 -4 -4 -9
l-101 -168c-3 -5 -5 -8 -9 -8c-3 0 -6 2 -6 5z" />
    <glyph glyph-name="Asmallacute.calt" unicode="&#xe024;" horiz-adv-x="508" 
d="M478 -1l-67 157h-315l-66 -157c-2 -5 -5 -7 -8 -7c-4 0 -7 3 -7 6c0 2 1 5 2 7l229 540c2 4 3 7 8 7s7 -4 8 -7l229 -540c1 -2 2 -5 2 -7c0 -3 -3 -6 -7 -6c-3 0 -6 2 -8 7zM254 528l-153 -360h305zM184 638c0 2 1 4 3 8l99 171c3 6 7 9 10 9c5 0 8 -4 8 -8
c0 -2 -1 -4 -4 -9l-101 -168c-3 -5 -5 -8 -9 -8c-3 0 -6 2 -6 5z" />
    <glyph glyph-name="Asmallbreve" unicode="&#xe025;" horiz-adv-x="584" 
d="M292 539c-66 0 -114 -27 -147 -68c-35 -43 -51 -103 -51 -162v-85h396v85c0 59 -16 119 -51 162c-33 41 -81 68 -147 68zM504 309v-310c0 -4 -3 -7 -7 -7s-7 3 -7 7v213h-396v-213c0 -4 -3 -7 -7 -7s-7 3 -7 7v310c0 62 17 126 56 172c35 42 86 71 156 71
s121 -29 156 -71c39 -46 56 -110 56 -172zM292 675c43 0 71 23 89 47c17 23 23 44 31 44c4 0 8 -3 8 -7c0 -6 -10 -22 -20 -36c-25 -36 -59 -62 -108 -62s-83 26 -108 62c-10 14 -20 30 -20 36c0 4 4 7 8 7c8 0 14 -21 31 -44c18 -24 46 -47 89 -47z" />
    <glyph glyph-name="Asmallbreve.2" unicode="&#xe026;" horiz-adv-x="584" 
d="M292 539c-66 0 -114 -27 -147 -68c-35 -43 -51 -103 -51 -162v-79h396v79c0 59 -16 119 -51 162c-33 41 -81 68 -147 68zM504 309v-310c0 -4 -3 -7 -7 -7s-7 3 -7 7v219h-396v-219c0 -4 -3 -7 -7 -7s-7 3 -7 7v310c0 62 17 126 56 172c35 42 86 71 156 71
s121 -29 156 -71c39 -46 56 -110 56 -172zM292 675c43 0 71 23 89 47c17 23 23 44 31 44c4 0 8 -3 8 -7c0 -6 -10 -22 -20 -36c-25 -36 -59 -62 -108 -62s-83 26 -108 62c-10 14 -20 30 -20 36c0 4 4 7 8 7c8 0 14 -21 31 -44c18 -24 46 -47 89 -47z" />
    <glyph glyph-name="Asmallbreve.3" unicode="&#xe027;" horiz-adv-x="527" 
d="M65 142c0 71 41 113 98 138c80 35 194 39 270 42v22c0 68 -13 114 -37 144c-34 43 -80 51 -123 51c-48 0 -85 -10 -108 -20c-38 -16 -54 -34 -65 -34c-4 0 -7 3 -7 7c0 7 12 15 29 24c37 19 93 36 151 36c50 0 100 -11 135 -56c24 -32 39 -80 39 -152v-344
c0 -4 -2 -8 -7 -8s-7 4 -7 8v36c-58 -33 -103 -44 -172 -44c-94 0 -196 44 -196 150zM263 5c65 0 113 10 170 46v259c-77 -3 -188 -7 -265 -42c-52 -24 -88 -62 -88 -125c0 -97 95 -138 183 -138zM269 675c43 0 71 23 89 47c17 23 23 44 31 44c4 0 8 -3 8 -7
c0 -6 -10 -22 -20 -36c-25 -36 -59 -62 -108 -62s-83 26 -108 62c-10 14 -20 30 -20 36c0 4 4 7 8 7c8 0 14 -21 31 -44c18 -24 46 -47 89 -47z" />
    <glyph glyph-name="Asmallbreve.calt" unicode="&#xe028;" horiz-adv-x="508" 
d="M478 -1l-67 157h-315l-66 -157c-2 -5 -5 -7 -8 -7c-4 0 -7 3 -7 6c0 2 1 5 2 7l229 540c2 4 3 7 8 7s7 -4 8 -7l229 -540c1 -2 2 -5 2 -7c0 -3 -3 -6 -7 -6c-3 0 -6 2 -8 7zM254 528l-153 -360h305zM252 675c43 0 71 23 89 47c17 23 23 44 31 44c4 0 8 -3 8 -7
c0 -6 -10 -22 -20 -36c-25 -36 -59 -62 -108 -62s-83 26 -108 62c-10 14 -20 30 -20 36c0 4 4 7 8 7c8 0 14 -21 31 -44c18 -24 46 -47 89 -47z" />
    <glyph glyph-name="Asmallcircumflex" unicode="&#xe029;" horiz-adv-x="584" 
d="M292 539c-66 0 -114 -27 -147 -68c-35 -43 -51 -103 -51 -162v-85h396v85c0 59 -16 119 -51 162c-33 41 -81 68 -147 68zM504 309v-310c0 -4 -3 -7 -7 -7s-7 3 -7 7v213h-396v-213c0 -4 -3 -7 -7 -7s-7 3 -7 7v310c0 62 17 126 56 172c35 42 86 71 156 71
s121 -29 156 -71c39 -46 56 -110 56 -172zM292 825c5 0 8 -4 11 -7l140 -153c2 -2 3 -4 3 -6c0 -4 -3 -7 -7 -7c-2 0 -4 1 -6 3l-141 152l-141 -152c-2 -2 -4 -3 -6 -3c-4 0 -7 3 -7 7c0 2 1 4 3 6l140 153c3 3 6 7 11 7z" />
    <glyph glyph-name="Asmallcircumflex.2" unicode="&#xe02a;" horiz-adv-x="584" 
d="M292 539c-66 0 -114 -27 -147 -68c-35 -43 -51 -103 -51 -162v-79h396v79c0 59 -16 119 -51 162c-33 41 -81 68 -147 68zM504 309v-310c0 -4 -3 -7 -7 -7s-7 3 -7 7v219h-396v-219c0 -4 -3 -7 -7 -7s-7 3 -7 7v310c0 62 17 126 56 172c35 42 86 71 156 71
s121 -29 156 -71c39 -46 56 -110 56 -172zM296 825c5 0 8 -4 11 -7l140 -153c2 -2 3 -4 3 -6c0 -4 -3 -7 -7 -7c-2 0 -4 1 -6 3l-141 152l-141 -152c-2 -2 -4 -3 -6 -3c-4 0 -7 3 -7 7c0 2 1 4 3 6l140 153c3 3 6 7 11 7z" />
    <glyph glyph-name="Asmallcircumflex.3" unicode="&#xe02b;" horiz-adv-x="527" 
d="M65 142c0 71 41 113 98 138c80 35 194 39 270 42v22c0 68 -13 114 -37 144c-34 43 -80 51 -123 51c-48 0 -85 -10 -108 -20c-38 -16 -54 -34 -65 -34c-4 0 -7 3 -7 7c0 7 12 15 29 24c37 19 93 36 151 36c50 0 100 -11 135 -56c24 -32 39 -80 39 -152v-344
c0 -4 -2 -8 -7 -8s-7 4 -7 8v36c-58 -33 -103 -44 -172 -44c-94 0 -196 44 -196 150zM263 5c65 0 113 10 170 46v259c-77 -3 -188 -7 -265 -42c-52 -24 -88 -62 -88 -125c0 -97 95 -138 183 -138zM263 825c5 0 8 -4 11 -7l140 -153c2 -2 3 -4 3 -6c0 -4 -3 -7 -7 -7
c-2 0 -4 1 -6 3l-141 152l-141 -152c-2 -2 -4 -3 -6 -3c-4 0 -7 3 -7 7c0 2 1 4 3 6l140 153c3 3 6 7 11 7z" />
    <glyph glyph-name="Asmallcircumflex.calt" unicode="&#xe02c;" horiz-adv-x="508" 
d="M478 -1l-67 157h-315l-66 -157c-2 -5 -5 -7 -8 -7c-4 0 -7 3 -7 6c0 2 1 5 2 7l229 540c2 4 3 7 8 7s7 -4 8 -7l229 -540c1 -2 2 -5 2 -7c0 -3 -3 -6 -7 -6c-3 0 -6 2 -8 7zM254 528l-153 -360h305zM254 825c5 0 8 -4 11 -7l140 -153c2 -2 3 -4 3 -6c0 -4 -3 -7 -7 -7
c-2 0 -4 1 -6 3l-141 152l-141 -152c-2 -2 -4 -3 -6 -3c-4 0 -7 3 -7 7c0 2 1 4 3 6l140 153c3 3 6 7 11 7z" />
    <glyph glyph-name="Asmalldieresis" unicode="&#xe02d;" horiz-adv-x="584" 
d="M292 539c-66 0 -114 -27 -147 -68c-35 -43 -51 -103 -51 -162v-85h396v85c0 59 -16 119 -51 162c-33 41 -81 68 -147 68zM504 309v-310c0 -4 -3 -7 -7 -7s-7 3 -7 7v213h-396v-213c0 -4 -3 -7 -7 -7s-7 3 -7 7v310c0 62 17 126 56 172c35 42 86 71 156 71
s121 -29 156 -71c39 -46 56 -110 56 -172zM221 722c-7 0 -12 5 -12 12c0 6 5 11 12 11c6 0 11 -5 11 -11c0 -7 -5 -12 -11 -12zM365 722c-7 0 -12 5 -12 12c0 6 5 11 12 11c6 0 11 -5 11 -11c0 -7 -5 -12 -11 -12z" />
    <glyph glyph-name="Asmalldieresis.2" unicode="&#xe02e;" horiz-adv-x="584" 
d="M292 539c-66 0 -114 -27 -147 -68c-35 -43 -51 -103 -51 -162v-79h396v79c0 59 -16 119 -51 162c-33 41 -81 68 -147 68zM504 309v-310c0 -4 -3 -7 -7 -7s-7 3 -7 7v219h-396v-219c0 -4 -3 -7 -7 -7s-7 3 -7 7v310c0 62 17 126 56 172c35 42 86 71 156 71
s121 -29 156 -71c39 -46 56 -110 56 -172zM225 722c-7 0 -12 5 -12 12c0 6 5 11 12 11c6 0 11 -5 11 -11c0 -7 -5 -12 -11 -12zM369 722c-7 0 -12 5 -12 12c0 6 5 11 12 11c6 0 11 -5 11 -11c0 -7 -5 -12 -11 -12z" />
    <glyph glyph-name="Asmalldieresis.3" unicode="&#xe02f;" horiz-adv-x="527" 
d="M65 142c0 71 41 113 98 138c80 35 194 39 270 42v22c0 68 -13 114 -37 144c-34 43 -80 51 -123 51c-48 0 -85 -10 -108 -20c-38 -16 -54 -34 -65 -34c-4 0 -7 3 -7 7c0 7 12 15 29 24c37 19 93 36 151 36c50 0 100 -11 135 -56c24 -32 39 -80 39 -152v-344
c0 -4 -2 -8 -7 -8s-7 4 -7 8v36c-58 -33 -103 -44 -172 -44c-94 0 -196 44 -196 150zM263 5c65 0 113 10 170 46v259c-77 -3 -188 -7 -265 -42c-52 -24 -88 -62 -88 -125c0 -97 95 -138 183 -138zM199 722c-7 0 -12 5 -12 12c0 6 5 11 12 11c6 0 11 -5 11 -11
c0 -7 -5 -12 -11 -12zM343 722c-7 0 -12 5 -12 12c0 6 5 11 12 11c6 0 11 -5 11 -11c0 -7 -5 -12 -11 -12z" />
    <glyph glyph-name="Asmalldieresis.calt" unicode="&#xe030;" horiz-adv-x="508" 
d="M478 -1l-67 157h-315l-66 -157c-2 -5 -5 -7 -8 -7c-4 0 -7 3 -7 6c0 2 1 5 2 7l229 540c2 4 3 7 8 7s7 -4 8 -7l229 -540c1 -2 2 -5 2 -7c0 -3 -3 -6 -7 -6c-3 0 -6 2 -8 7zM254 528l-153 -360h305zM183 722c-7 0 -12 5 -12 12c0 6 5 11 12 11c6 0 11 -5 11 -11
c0 -7 -5 -12 -11 -12zM327 722c-7 0 -12 5 -12 12c0 6 5 11 12 11c6 0 11 -5 11 -11c0 -7 -5 -12 -11 -12z" />
    <glyph glyph-name="Asmallgrave" unicode="&#xe031;" horiz-adv-x="584" 
d="M292 539c-66 0 -114 -27 -147 -68c-35 -43 -51 -103 -51 -162v-85h396v85c0 59 -16 119 -51 162c-33 41 -81 68 -147 68zM504 309v-310c0 -4 -3 -7 -7 -7s-7 3 -7 7v213h-396v-213c0 -4 -3 -7 -7 -7s-7 3 -7 7v310c0 62 17 126 56 172c35 42 86 71 156 71
s121 -29 156 -71c39 -46 56 -110 56 -172zM352 638c0 -3 -3 -5 -6 -5c-4 0 -6 3 -9 8l-101 168c-3 5 -4 7 -4 9c0 4 3 8 8 8c3 0 7 -3 10 -9l99 -171c2 -4 3 -6 3 -8z" />
    <glyph glyph-name="Asmallgrave.2" unicode="&#xe032;" horiz-adv-x="584" 
d="M292 539c-66 0 -114 -27 -147 -68c-35 -43 -51 -103 -51 -162v-79h396v79c0 59 -16 119 -51 162c-33 41 -81 68 -147 68zM504 309v-310c0 -4 -3 -7 -7 -7s-7 3 -7 7v219h-396v-219c0 -4 -3 -7 -7 -7s-7 3 -7 7v310c0 62 17 126 56 172c35 42 86 71 156 71
s121 -29 156 -71c39 -46 56 -110 56 -172zM356 638c0 -3 -3 -5 -6 -5c-4 0 -6 3 -9 8l-101 168c-3 5 -4 7 -4 9c0 4 3 8 8 8c3 0 7 -3 10 -9l99 -171c2 -4 3 -6 3 -8z" />
    <glyph glyph-name="Asmallgrave.3" unicode="&#xe033;" horiz-adv-x="527" 
d="M65 142c0 71 41 113 98 138c80 35 194 39 270 42v22c0 68 -13 114 -37 144c-34 43 -80 51 -123 51c-48 0 -85 -10 -108 -20c-38 -16 -54 -34 -65 -34c-4 0 -7 3 -7 7c0 7 12 15 29 24c37 19 93 36 151 36c50 0 100 -11 135 -56c24 -32 39 -80 39 -152v-344
c0 -4 -2 -8 -7 -8s-7 4 -7 8v36c-58 -33 -103 -44 -172 -44c-94 0 -196 44 -196 150zM263 5c65 0 113 10 170 46v259c-77 -3 -188 -7 -265 -42c-52 -24 -88 -62 -88 -125c0 -97 95 -138 183 -138zM342 638c0 -3 -3 -5 -6 -5c-4 0 -6 3 -9 8l-101 168c-3 5 -4 7 -4 9
c0 4 3 8 8 8c3 0 7 -3 10 -9l99 -171c2 -4 3 -6 3 -8z" />
    <glyph glyph-name="Asmallgrave.calt" unicode="&#xe034;" horiz-adv-x="508" 
d="M478 -1l-67 157h-315l-66 -157c-2 -5 -5 -7 -8 -7c-4 0 -7 3 -7 6c0 2 1 5 2 7l229 540c2 4 3 7 8 7s7 -4 8 -7l229 -540c1 -2 2 -5 2 -7c0 -3 -3 -6 -7 -6c-3 0 -6 2 -8 7zM254 528l-153 -360h305zM322 638c0 -3 -3 -5 -6 -5c-4 0 -6 3 -9 8l-101 168c-3 5 -4 7 -4 9
c0 4 3 8 8 8c3 0 7 -3 10 -9l99 -171c2 -4 3 -6 3 -8z" />
    <glyph glyph-name="Asmallmacron" unicode="&#xe035;" horiz-adv-x="584" 
d="M292 539c-66 0 -114 -27 -147 -68c-35 -43 -51 -103 -51 -162v-85h396v85c0 59 -16 119 -51 162c-33 41 -81 68 -147 68zM504 309v-310c0 -4 -3 -7 -7 -7s-7 3 -7 7v213h-396v-213c0 -4 -3 -7 -7 -7s-7 3 -7 7v310c0 62 17 126 56 172c35 42 86 71 156 71
s121 -29 156 -71c39 -46 56 -110 56 -172zM414 728c0 -4 -3 -6 -6 -6h-231c-3 0 -6 2 -6 6c0 3 3 6 6 6h231c3 0 6 -3 6 -6z" />
    <glyph glyph-name="Asmallmacron.2" unicode="&#xe036;" horiz-adv-x="584" 
d="M292 539c-66 0 -114 -27 -147 -68c-35 -43 -51 -103 -51 -162v-79h396v79c0 59 -16 119 -51 162c-33 41 -81 68 -147 68zM504 309v-310c0 -4 -3 -7 -7 -7s-7 3 -7 7v219h-396v-219c0 -4 -3 -7 -7 -7s-7 3 -7 7v310c0 62 17 126 56 172c35 42 86 71 156 71
s121 -29 156 -71c39 -46 56 -110 56 -172zM418 728c0 -4 -3 -6 -6 -6h-231c-3 0 -6 2 -6 6c0 3 3 6 6 6h231c3 0 6 -3 6 -6z" />
    <glyph glyph-name="Asmallmacron.3" unicode="&#xe037;" horiz-adv-x="527" 
d="M65 142c0 71 41 113 98 138c80 35 194 39 270 42v22c0 68 -13 114 -37 144c-34 43 -80 51 -123 51c-48 0 -85 -10 -108 -20c-38 -16 -54 -34 -65 -34c-4 0 -7 3 -7 7c0 7 12 15 29 24c37 19 93 36 151 36c50 0 100 -11 135 -56c24 -32 39 -80 39 -152v-344
c0 -4 -2 -8 -7 -8s-7 4 -7 8v36c-58 -33 -103 -44 -172 -44c-94 0 -196 44 -196 150zM263 5c65 0 113 10 170 46v259c-77 -3 -188 -7 -265 -42c-52 -24 -88 -62 -88 -125c0 -97 95 -138 183 -138zM395 728c0 -4 -3 -6 -6 -6h-231c-3 0 -6 2 -6 6c0 3 3 6 6 6h231
c3 0 6 -3 6 -6z" />
    <glyph glyph-name="Asmallmacron.calt" unicode="&#xe038;" horiz-adv-x="508" 
d="M478 -1l-67 157h-315l-66 -157c-2 -5 -5 -7 -8 -7c-4 0 -7 3 -7 6c0 2 1 5 2 7l229 540c2 4 3 7 8 7s7 -4 8 -7l229 -540c1 -2 2 -5 2 -7c0 -3 -3 -6 -7 -6c-3 0 -6 2 -8 7zM254 528l-153 -360h305zM376 728c0 -4 -3 -6 -6 -6h-231c-3 0 -6 2 -6 6c0 3 3 6 6 6h231
c3 0 6 -3 6 -6z" />
    <glyph glyph-name="Asmallogonek" unicode="&#xe039;" horiz-adv-x="584" 
d="M490 2v210h-396v-213c0 -4 -3 -7 -7 -7s-7 3 -7 7v310c0 62 17 126 56 172c35 42 86 71 156 71s121 -29 156 -71c39 -46 56 -110 56 -172v-310c0 -3 -2 -5 -5 -6c-17 -37 -29 -73 -29 -103c0 -26 6 -63 87 -63c34 0 45 9 51 9c4 0 7 -3 7 -7s-3 -6 -8 -8
c-11 -4 -33 -8 -50 -8c-87 0 -101 40 -101 77c0 26 14 71 34 112zM292 539c-66 0 -114 -27 -147 -68c-35 -43 -51 -103 -51 -162v-85h396v85c0 59 -16 119 -51 162c-33 41 -81 68 -147 68z" />
    <glyph glyph-name="Asmallogonek.2" unicode="&#xe03a;" horiz-adv-x="584" 
d="M490 2v216h-396v-219c0 -4 -3 -7 -7 -7s-7 3 -7 7v310c0 62 17 126 56 172c35 42 86 71 156 71s121 -29 156 -71c39 -46 56 -110 56 -172v-310c0 -3 -2 -5 -5 -6c-17 -37 -29 -73 -29 -103c0 -26 6 -63 87 -63c34 0 45 9 51 9c4 0 7 -3 7 -7s-3 -6 -8 -8
c-11 -4 -33 -8 -50 -8c-87 0 -101 40 -101 77c0 26 14 71 34 112zM292 539c-66 0 -114 -27 -147 -68c-35 -43 -51 -103 -51 -162v-79h396v79c0 59 -16 119 -51 162c-33 41 -81 68 -147 68z" />
    <glyph glyph-name="Asmallogonek.3" unicode="&#xe03b;" horiz-adv-x="527" 
d="M273 552c50 0 100 -11 135 -56c24 -32 39 -80 39 -152v-344c0 -3 -2 -7 -6 -8c-17 -36 -29 -68 -29 -102c0 -26 6 -63 87 -63c34 0 45 9 51 9c4 0 7 -3 7 -7s-3 -6 -8 -8c-11 -4 -33 -8 -50 -8c-87 0 -101 40 -101 77c0 30 13 71 35 110v36c-58 -33 -103 -44 -172 -44
c-94 0 -196 44 -196 150c0 71 41 113 98 138c80 35 194 39 270 42v22c0 68 -13 114 -37 144c-34 43 -80 51 -123 51c-48 0 -85 -10 -108 -20c-38 -16 -54 -34 -65 -34c-4 0 -7 3 -7 7c0 7 12 15 29 24c37 19 93 36 151 36zM263 5c65 0 113 10 170 46v259
c-77 -3 -188 -7 -265 -42c-52 -24 -88 -62 -88 -125c0 -97 95 -138 183 -138z" />
    <glyph glyph-name="Asmallogonek.calt" unicode="&#xe03c;" horiz-adv-x="508" 
d="M493 -2c0 -3 -3 -6 -7 -6c-17 -36 -29 -72 -29 -102c0 -26 6 -63 87 -63c34 0 45 9 51 9c4 0 7 -3 7 -7s-3 -6 -8 -8c-11 -4 -33 -8 -50 -8c-87 0 -101 40 -101 77c0 26 14 71 34 111l-66 155h-315l-66 -157c-2 -5 -5 -7 -8 -7c-4 0 -7 3 -7 6c0 2 1 5 2 7l229 540
c2 4 3 7 8 7s7 -4 8 -7l229 -540c1 -2 2 -5 2 -7zM254 528l-153 -360h305z" />
    <glyph glyph-name="Asmallring" unicode="&#xe03d;" horiz-adv-x="584" 
d="M292 539c-66 0 -114 -27 -147 -68c-35 -43 -51 -103 -51 -162v-85h396v85c0 59 -16 119 -51 162c-33 41 -81 68 -147 68zM504 309v-310c0 -4 -3 -7 -7 -7s-7 3 -7 7v213h-396v-213c0 -4 -3 -7 -7 -7s-7 3 -7 7v310c0 62 17 126 56 172c35 42 86 71 156 71
s121 -29 156 -71c39 -46 56 -110 56 -172zM197 717c0 -54 43 -97 96 -97c52 0 95 42 95 97c0 53 -43 96 -95 96c-53 0 -96 -43 -96 -96zM183 717c0 61 49 110 110 110c60 0 109 -49 109 -110c0 -62 -49 -110 -109 -110c-61 0 -110 48 -110 110z" />
    <glyph glyph-name="Asmallring.2" unicode="&#xe03e;" horiz-adv-x="584" 
d="M292 539c-66 0 -114 -27 -147 -68c-35 -43 -51 -103 -51 -162v-79h396v79c0 59 -16 119 -51 162c-33 41 -81 68 -147 68zM504 309v-310c0 -4 -3 -7 -7 -7s-7 3 -7 7v219h-396v-219c0 -4 -3 -7 -7 -7s-7 3 -7 7v310c0 62 17 126 56 172c35 42 86 71 156 71
s121 -29 156 -71c39 -46 56 -110 56 -172zM197 717c0 -54 43 -97 96 -97c52 0 95 42 95 97c0 53 -43 96 -95 96c-53 0 -96 -43 -96 -96zM183 717c0 61 49 110 110 110c60 0 109 -49 109 -110c0 -62 -49 -110 -109 -110c-61 0 -110 48 -110 110z" />
    <glyph glyph-name="Asmallring.3" unicode="&#xe03f;" horiz-adv-x="527" 
d="M65 142c0 71 41 113 98 138c80 35 194 39 270 42v22c0 68 -13 114 -37 144c-34 43 -80 51 -123 51c-48 0 -85 -10 -108 -20c-38 -16 -54 -34 -65 -34c-4 0 -7 3 -7 7c0 7 12 15 29 24c37 19 93 36 151 36c50 0 100 -11 135 -56c24 -32 39 -80 39 -152v-344
c0 -4 -2 -8 -7 -8s-7 4 -7 8v36c-58 -33 -103 -44 -172 -44c-94 0 -196 44 -196 150zM263 5c65 0 113 10 170 46v259c-77 -3 -188 -7 -265 -42c-52 -24 -88 -62 -88 -125c0 -97 95 -138 183 -138zM176 717c0 -54 43 -97 96 -97c52 0 95 42 95 97c0 53 -43 96 -95 96
c-53 0 -96 -43 -96 -96zM162 717c0 61 49 110 110 110c60 0 109 -49 109 -110c0 -62 -49 -110 -109 -110c-61 0 -110 48 -110 110z" />
    <glyph glyph-name="Asmallring.calt" unicode="&#xe040;" horiz-adv-x="508" 
d="M478 -1l-67 157h-315l-66 -157c-2 -5 -5 -7 -8 -7c-4 0 -7 3 -7 6c0 2 1 5 2 7l229 540c2 4 3 7 8 7s7 -4 8 -7l229 -540c1 -2 2 -5 2 -7c0 -3 -3 -6 -7 -6c-3 0 -6 2 -8 7zM254 528l-153 -360h305zM159 717c0 -54 43 -97 96 -97c52 0 95 42 95 97c0 53 -43 96 -95 96
c-53 0 -96 -43 -96 -96zM145 717c0 61 49 110 110 110c60 0 109 -49 109 -110c0 -62 -49 -110 -109 -110c-61 0 -110 48 -110 110z" />
    <glyph glyph-name="Asmalltilde" unicode="&#xe041;" horiz-adv-x="584" 
d="M292 539c-66 0 -114 -27 -147 -68c-35 -43 -51 -103 -51 -162v-85h396v85c0 59 -16 119 -51 162c-33 41 -81 68 -147 68zM504 309v-310c0 -4 -3 -7 -7 -7s-7 3 -7 7v213h-396v-213c0 -4 -3 -7 -7 -7s-7 3 -7 7v310c0 62 17 126 56 172c35 42 86 71 156 71
s121 -29 156 -71c39 -46 56 -110 56 -172zM439 740c0 -8 -11 -19 -19 -26c-14 -12 -35 -20 -60 -20c-27 0 -48 14 -70 27c-20 12 -40 24 -66 24c-21 0 -34 -6 -44 -13c-15 -11 -20 -26 -27 -26c-4 0 -8 3 -8 8c0 8 11 19 19 26c14 12 35 20 60 20c29 0 52 -13 72 -25
c21 -13 40 -26 64 -26c20 0 33 5 43 12c16 11 21 27 28 27c4 0 8 -3 8 -8z" />
    <glyph glyph-name="Asmalltilde.2" unicode="&#xe042;" horiz-adv-x="584" 
d="M292 539c-66 0 -114 -27 -147 -68c-35 -43 -51 -103 -51 -162v-79h396v79c0 59 -16 119 -51 162c-33 41 -81 68 -147 68zM504 309v-310c0 -4 -3 -7 -7 -7s-7 3 -7 7v219h-396v-219c0 -4 -3 -7 -7 -7s-7 3 -7 7v310c0 62 17 126 56 172c35 42 86 71 156 71
s121 -29 156 -71c39 -46 56 -110 56 -172zM443 740c0 -8 -11 -19 -19 -26c-14 -12 -35 -20 -60 -20c-27 0 -48 14 -70 27c-20 12 -40 24 -66 24c-21 0 -34 -6 -44 -13c-15 -11 -20 -26 -27 -26c-4 0 -8 3 -8 8c0 8 11 19 19 26c14 12 35 20 60 20c29 0 52 -13 72 -25
c21 -13 40 -26 64 -26c20 0 33 5 43 12c16 11 21 27 28 27c4 0 8 -3 8 -8z" />
    <glyph glyph-name="Asmalltilde.3" unicode="&#xe043;" horiz-adv-x="527" 
d="M65 142c0 71 41 113 98 138c80 35 194 39 270 42v22c0 68 -13 114 -37 144c-34 43 -80 51 -123 51c-48 0 -85 -10 -108 -20c-38 -16 -54 -34 -65 -34c-4 0 -7 3 -7 7c0 7 12 15 29 24c37 19 93 36 151 36c50 0 100 -11 135 -56c24 -32 39 -80 39 -152v-344
c0 -4 -2 -8 -7 -8s-7 4 -7 8v36c-58 -33 -103 -44 -172 -44c-94 0 -196 44 -196 150zM263 5c65 0 113 10 170 46v259c-77 -3 -188 -7 -265 -42c-52 -24 -88 -62 -88 -125c0 -97 95 -138 183 -138zM414 740c0 -8 -11 -19 -19 -26c-14 -12 -35 -20 -60 -20
c-27 0 -48 14 -70 27c-20 12 -40 24 -66 24c-21 0 -34 -6 -44 -13c-15 -11 -20 -26 -27 -26c-4 0 -8 3 -8 8c0 8 11 19 19 26c14 12 35 20 60 20c29 0 52 -13 72 -25c21 -13 40 -26 64 -26c20 0 33 5 43 12c16 11 21 27 28 27c4 0 8 -3 8 -8z" />
    <glyph glyph-name="Asmalltilde.calt" unicode="&#xe044;" horiz-adv-x="508" 
d="M478 -1l-67 157h-315l-66 -157c-2 -5 -5 -7 -8 -7c-4 0 -7 3 -7 6c0 2 1 5 2 7l229 540c2 4 3 7 8 7s7 -4 8 -7l229 -540c1 -2 2 -5 2 -7c0 -3 -3 -6 -7 -6c-3 0 -6 2 -8 7zM254 528l-153 -360h305zM401 740c0 -8 -11 -19 -19 -26c-14 -12 -35 -20 -60 -20
c-27 0 -48 14 -70 27c-20 12 -40 24 -66 24c-21 0 -34 -6 -44 -13c-15 -11 -20 -26 -27 -26c-4 0 -8 3 -8 8c0 8 11 19 19 26c14 12 35 20 60 20c29 0 52 -13 72 -25c21 -13 40 -26 64 -26c20 0 33 5 43 12c16 11 21 27 28 27c4 0 8 -3 8 -8z" />
    <glyph glyph-name="Atilde" unicode="&#xc3;" horiz-adv-x="688" 
d="M344 676c-79 0 -140 -34 -181 -81c-46 -55 -67 -132 -67 -206v-109h496v109c0 74 -21 151 -67 206c-41 47 -102 81 -181 81zM608 388v-390c0 -4 -3 -8 -8 -8s-8 4 -8 8v268h-496v-268c0 -4 -3 -8 -8 -8s-8 4 -8 8v390c0 76 21 155 69 214c43 53 108 88 195 88
s152 -35 195 -88c48 -59 69 -138 69 -214zM492 924c0 -8 -11 -19 -19 -26c-14 -12 -35 -20 -60 -20c-27 0 -48 14 -70 27c-20 12 -40 24 -66 24c-21 0 -34 -6 -44 -13c-15 -11 -20 -26 -27 -26c-4 0 -8 3 -8 8c0 8 11 19 19 26c14 12 35 20 60 20c29 0 52 -13 72 -25
c21 -13 40 -26 64 -26c20 0 33 5 43 12c16 11 21 27 28 27c4 0 8 -3 8 -8z" />
    <glyph glyph-name="Atilde.2" unicode="&#xe045;" horiz-adv-x="690" 
d="M344 676c-79 0 -140 -34 -181 -81c-46 -55 -67 -132 -67 -206v-102h496v102c0 74 -21 151 -67 206c-41 47 -102 81 -181 81zM608 388v-390c0 -4 -3 -8 -8 -8s-8 4 -8 8v275h-496v-275c0 -4 -3 -8 -8 -8s-8 4 -8 8v390c0 76 21 155 69 214c43 53 108 88 195 88
s152 -35 195 -88c48 -59 69 -138 69 -214zM492 924c0 -8 -11 -19 -19 -26c-14 -12 -35 -20 -60 -20c-27 0 -48 14 -70 27c-20 12 -40 24 -66 24c-21 0 -34 -6 -44 -13c-15 -11 -20 -26 -27 -26c-4 0 -8 3 -8 8c0 8 11 19 19 26c14 12 35 20 60 20c29 0 52 -13 72 -25
c21 -13 40 -26 64 -26c20 0 33 5 43 12c16 11 21 27 28 27c4 0 8 -3 8 -8z" />
    <glyph glyph-name="Atilde.3" unicode="&#xe046;" horiz-adv-x="621" 
d="M96 616c0 6 14 18 40 31c43 22 105 43 186 43c62 0 127 -13 171 -69c30 -39 48 -98 48 -187v-436c0 -4 -3 -8 -8 -8s-8 4 -8 8v47c-71 -42 -137 -55 -217 -55c-108 0 -247 41 -247 181c0 84 42 135 106 168c93 48 235 56 358 66v29c0 87 -16 141 -46 179
c-42 53 -102 63 -157 63c-89 0 -140 -25 -179 -46c-19 -10 -31 -21 -40 -21c-4 0 -7 3 -7 7zM77 172c0 -127 126 -168 233 -168c83 0 145 12 215 56v331c-117 -8 -251 -16 -341 -59c-65 -31 -107 -80 -107 -160zM464 924c0 -8 -11 -19 -19 -26c-14 -12 -35 -20 -60 -20
c-27 0 -48 14 -70 27c-20 12 -40 24 -66 24c-21 0 -34 -6 -44 -13c-15 -11 -20 -26 -27 -26c-4 0 -8 3 -8 8c0 8 11 19 19 26c14 12 35 20 60 20c29 0 52 -13 72 -25c21 -13 40 -26 64 -26c20 0 33 5 43 12c16 11 21 27 28 27c4 0 8 -3 8 -8z" />
    <glyph glyph-name="Atilde.calt" unicode="&#xe047;" horiz-adv-x="617" 
d="M308 664l-193 -452h387zM593 0l-85 198h-399l-85 -198c-3 -7 -5 -10 -10 -10s-7 3 -7 7c0 2 2 6 4 11l289 675c2 4 4 7 9 7s6 -3 8 -7l290 -675c2 -4 3 -8 3 -10c0 -4 -2 -8 -7 -8s-7 3 -10 10zM454 924c0 -8 -11 -19 -19 -26c-14 -12 -35 -20 -60 -20
c-27 0 -48 14 -70 27c-20 12 -40 24 -66 24c-21 0 -34 -6 -44 -13c-15 -11 -20 -26 -27 -26c-4 0 -8 3 -8 8c0 8 11 19 19 26c14 12 35 20 60 20c29 0 52 -13 72 -25c21 -13 40 -26 64 -26c20 0 33 5 43 12c16 11 21 27 28 27c4 0 8 -3 8 -8z" />
    <glyph glyph-name="B" unicode="B" horiz-adv-x="647" 
d="M591 179c0 -127 -105 -179 -223 -179h-278c-5 0 -8 4 -8 8v665c0 4 3 8 8 8h239c108 0 206 -52 206 -173c0 -85 -42 -132 -94 -154v-2c95 -15 150 -85 150 -173zM519 509c0 109 -90 158 -189 158h-232v-314h259c95 0 162 50 162 156zM576 179c0 84 -58 160 -173 160h-305
v-325h271c109 0 207 47 207 165z" />
    <glyph glyph-name="B.2" unicode="&#xe048;" horiz-adv-x="677" 
d="M621 179c0 -127 -105 -179 -223 -179h-308c-5 0 -8 4 -8 8v665c0 4 3 8 8 8h269c108 0 206 -52 206 -173c0 -85 -42 -132 -94 -154v-2c95 -15 150 -85 150 -173zM549 509c0 109 -90 158 -189 158h-262v-314h289c95 0 162 50 162 156zM606 179c0 84 -58 160 -173 160h-335
v-325h301c109 0 207 47 207 165z" />
    <glyph glyph-name="Bsmall" unicode="&#xf762;" horiz-adv-x="540" 
d="M490 145c0 -109 -83 -145 -182 -145h-221c-4 0 -7 3 -7 7v530c0 4 3 7 7 7h189c90 0 169 -40 169 -138c0 -63 -32 -105 -79 -125c80 -11 124 -69 124 -136zM431 406c0 86 -69 125 -155 125h-182v-248h205c75 0 132 42 132 123zM476 145c0 66 -49 125 -141 125h-241v-257
h214c96 0 168 36 168 132z" />
    <glyph glyph-name="Bsmall.2" unicode="&#xe049;" horiz-adv-x="560" 
d="M510 145c0 -109 -83 -145 -182 -145h-241c-4 0 -7 3 -7 7v530c0 4 3 7 7 7h209c90 0 169 -40 169 -138c0 -63 -32 -105 -79 -125c80 -11 124 -69 124 -136zM451 406c0 86 -69 125 -155 125h-202v-248h225c75 0 132 42 132 123zM496 145c0 66 -49 125 -141 125h-261v-257
h234c96 0 168 36 168 132z" />
    <glyph glyph-name="C" unicode="C" horiz-adv-x="664" 
d="M617 618c0 -4 -3 -7 -7 -7c-13 0 -31 25 -80 43c-31 11 -72 22 -129 22c-180 0 -331 -157 -331 -335c0 -203 156 -337 332 -337c56 0 97 10 128 21c52 19 67 43 80 43c4 0 7 -3 7 -7c0 -11 -14 -18 -37 -30c-42 -22 -101 -41 -179 -41c-184 0 -347 140 -347 351
c0 186 158 349 346 349c78 0 138 -20 180 -42c23 -12 37 -19 37 -30z" />
    <glyph glyph-name="C.2" unicode="&#xe04a;" horiz-adv-x="706" 
d="M415 4c66 0 115 14 145 25c55 20 70 43 84 43c4 0 7 -3 7 -7c0 -13 -28 -26 -44 -33c-47 -21 -106 -42 -192 -42c-203 0 -361 135 -361 351c0 196 152 349 366 349c136 0 238 -50 238 -121c0 -34 -30 -54 -62 -54c-12 0 -21 2 -21 9c0 5 3 8 8 8s6 -1 13 -1
c27 0 46 16 46 40c0 54 -84 105 -222 105c-205 0 -350 -147 -350 -335c0 -209 150 -337 345 -337z" />
    <glyph glyph-name="Cacute" unicode="&#x106;" horiz-adv-x="664" 
d="M343 782c0 2 1 4 3 8l99 171c3 6 7 9 10 9c5 0 8 -4 8 -8c0 -2 -1 -4 -4 -9l-101 -168c-3 -5 -5 -8 -9 -8c-3 0 -6 2 -6 5zM617 618c0 -4 -3 -7 -7 -7c-13 0 -31 25 -80 43c-31 11 -72 22 -129 22c-180 0 -331 -157 -331 -335c0 -203 156 -337 332 -337
c56 0 97 10 128 21c52 19 67 43 80 43c4 0 7 -3 7 -7c0 -11 -14 -18 -37 -30c-42 -22 -101 -41 -179 -41c-184 0 -347 140 -347 351c0 186 158 349 346 349c78 0 138 -20 180 -42c23 -12 37 -19 37 -30z" />
    <glyph glyph-name="Cacute.2" unicode="&#xe04b;" horiz-adv-x="706" 
d="M415 4c66 0 115 14 145 25c55 20 70 43 84 43c4 0 7 -3 7 -7c0 -13 -28 -26 -44 -33c-47 -21 -106 -42 -192 -42c-203 0 -361 135 -361 351c0 196 152 349 366 349c136 0 238 -50 238 -121c0 -34 -30 -54 -62 -54c-12 0 -21 2 -21 9c0 5 3 8 8 8s6 -1 13 -1
c27 0 46 16 46 40c0 54 -84 105 -222 105c-205 0 -350 -147 -350 -335c0 -209 150 -337 345 -337zM356 782c0 2 1 4 3 8l99 171c3 6 7 9 10 9c5 0 8 -4 8 -8c0 -2 -1 -4 -4 -9l-101 -168c-3 -5 -5 -8 -9 -8c-3 0 -6 2 -6 5z" />
    <glyph glyph-name="Ccaron" unicode="&#x10c;" horiz-adv-x="664" 
d="M243 962c0 4 3 7 7 7c2 0 4 -1 6 -3l141 -152l141 152c2 2 4 3 6 3c4 0 7 -3 7 -7c0 -2 -1 -4 -3 -6l-140 -153c-3 -3 -6 -7 -11 -7s-8 4 -11 7l-140 153c-2 2 -3 4 -3 6zM617 618c0 -4 -3 -7 -7 -7c-13 0 -31 25 -80 43c-31 11 -72 22 -129 22
c-180 0 -331 -157 -331 -335c0 -203 156 -337 332 -337c56 0 97 10 128 21c52 19 67 43 80 43c4 0 7 -3 7 -7c0 -11 -14 -18 -37 -30c-42 -22 -101 -41 -179 -41c-184 0 -347 140 -347 351c0 186 158 349 346 349c78 0 138 -20 180 -42c23 -12 37 -19 37 -30z" />
    <glyph glyph-name="Ccaron.2" unicode="&#xe04c;" horiz-adv-x="706" 
d="M415 4c66 0 115 14 145 25c55 20 70 43 84 43c4 0 7 -3 7 -7c0 -13 -28 -26 -44 -33c-47 -21 -106 -42 -192 -42c-203 0 -361 135 -361 351c0 196 152 349 366 349c136 0 238 -50 238 -121c0 -34 -30 -54 -62 -54c-12 0 -21 2 -21 9c0 5 3 8 8 8s6 -1 13 -1
c27 0 46 16 46 40c0 54 -84 105 -222 105c-205 0 -350 -147 -350 -335c0 -209 150 -337 345 -337zM263 962c0 4 3 7 7 7c2 0 4 -1 6 -3l141 -152l141 152c2 2 4 3 6 3c4 0 7 -3 7 -7c0 -2 -1 -4 -3 -6l-140 -153c-3 -3 -6 -7 -11 -7s-8 4 -11 7l-140 153c-2 2 -3 4 -3 6z
" />
    <glyph glyph-name="Ccedilla" unicode="&#xc7;" horiz-adv-x="664" 
d="M617 618c0 -4 -3 -7 -7 -7c-13 0 -31 25 -80 43c-31 11 -72 22 -129 22c-180 0 -331 -157 -331 -335c0 -203 156 -337 332 -337c56 0 97 10 128 21c52 19 67 43 80 43c4 0 7 -3 7 -7c0 -11 -14 -18 -37 -30c-41 -22 -99 -40 -174 -41v-32c42 0 87 -16 87 -64
c0 -58 -62 -75 -102 -75c-13 0 -22 1 -31 3c-5 1 -7 4 -7 7c0 4 3 7 7 7c8 0 14 -3 33 -3c39 0 86 17 86 61c0 38 -39 51 -71 51c-13 0 -17 4 -16 16l2 29c-181 4 -340 142 -340 351c0 186 158 349 346 349c78 0 138 -20 180 -42c23 -12 37 -19 37 -30z" />
    <glyph glyph-name="Ccedilla.2" unicode="&#xe04d;" horiz-adv-x="706" 
d="M415 4c66 0 115 14 145 25c55 20 70 43 84 43c4 0 7 -3 7 -7c0 -13 -28 -26 -44 -33c-46 -21 -104 -41 -186 -42v-32c42 0 87 -16 87 -64c0 -58 -62 -75 -102 -75c-13 0 -22 1 -31 3c-5 1 -7 4 -7 7c0 4 3 7 7 7c8 0 14 -3 33 -3c39 0 86 17 86 61c0 38 -39 51 -71 51
c-13 0 -17 4 -16 16l2 29c-200 3 -355 137 -355 351c0 196 152 349 366 349c136 0 238 -50 238 -121c0 -34 -30 -54 -62 -54c-12 0 -21 2 -21 9c0 5 3 8 8 8s6 -1 13 -1c27 0 46 16 46 40c0 54 -84 105 -222 105c-205 0 -350 -147 -350 -335c0 -209 150 -337 345 -337z" />
    <glyph glyph-name="Csmall" unicode="&#xf763;" horiz-adv-x="535" 
d="M330 552c53 0 103 -11 138 -29c22 -11 37 -21 37 -29c0 -4 -3 -7 -7 -7c-11 0 -25 16 -56 30c-25 11 -62 21 -112 21c-82 0 -157 -40 -206 -102c-36 -46 -58 -103 -58 -163c0 -77 29 -141 75 -188c49 -50 117 -79 189 -79c50 0 90 11 115 22c36 16 45 30 56 30
c4 0 7 -3 7 -7c0 -8 -15 -18 -37 -29c-35 -18 -88 -30 -141 -30c-75 0 -145 29 -197 81c-49 49 -81 118 -81 200c0 65 24 126 63 174c51 63 129 105 215 105z" />
    <glyph glyph-name="Csmall.2" unicode="&#xe04e;" horiz-adv-x="551" 
d="M340 538c-85 0 -164 -39 -214 -101c-38 -46 -60 -104 -60 -164c0 -77 30 -142 77 -189c51 -50 122 -78 197 -78c52 0 93 11 119 22c37 16 46 30 58 30c4 0 7 -3 7 -7c0 -8 -16 -18 -38 -29c-37 -18 -91 -30 -146 -30c-78 0 -151 28 -205 80c-51 49 -83 119 -83 201
c0 65 24 127 64 175c53 63 135 104 224 104c113 0 184 -45 184 -108c0 -34 -30 -54 -62 -54c-12 0 -21 2 -21 9c0 5 3 8 8 8s6 -1 13 -1c27 0 46 16 46 40c0 48 -58 92 -168 92z" />
    <glyph glyph-name="Csmallacute" unicode="&#xe04f;" horiz-adv-x="541" 
d="M336 552c53 0 103 -11 138 -29c22 -11 37 -21 37 -29c0 -4 -3 -7 -7 -7c-11 0 -25 16 -56 30c-25 11 -62 21 -112 21c-82 0 -157 -40 -206 -102c-36 -46 -58 -103 -58 -163c0 -77 29 -141 75 -188c49 -50 117 -79 189 -79c50 0 90 11 115 22c36 16 45 30 56 30
c4 0 7 -3 7 -7c0 -8 -15 -18 -37 -29c-35 -18 -88 -30 -141 -30c-75 0 -145 29 -197 81c-49 49 -81 118 -81 200c0 65 24 126 63 174c51 63 129 105 215 105zM246 638c0 2 1 4 3 8l99 171c3 6 7 9 10 9c5 0 8 -4 8 -8c0 -2 -1 -4 -4 -9l-101 -168c-3 -5 -5 -8 -9 -8
c-3 0 -6 2 -6 5z" />
    <glyph glyph-name="Csmallacute.2" unicode="&#xe050;" horiz-adv-x="551" 
d="M340 538c-85 0 -164 -39 -214 -101c-38 -46 -60 -104 -60 -164c0 -77 30 -142 77 -189c51 -50 122 -78 197 -78c52 0 93 11 119 22c37 16 46 30 58 30c4 0 7 -3 7 -7c0 -8 -16 -18 -38 -29c-37 -18 -91 -30 -146 -30c-78 0 -151 28 -205 80c-51 49 -83 119 -83 201
c0 65 24 127 64 175c53 63 135 104 224 104c113 0 184 -45 184 -108c0 -34 -30 -54 -62 -54c-12 0 -21 2 -21 9c0 5 3 8 8 8s6 -1 13 -1c27 0 46 16 46 40c0 48 -58 92 -168 92zM266 638c0 2 1 4 3 8l99 171c3 6 7 9 10 9c5 0 8 -4 8 -8c0 -2 -1 -4 -4 -9l-101 -168
c-3 -5 -5 -8 -9 -8c-3 0 -6 2 -6 5z" />
    <glyph glyph-name="Csmallcaron" unicode="&#xe051;" horiz-adv-x="541" 
d="M336 552c53 0 103 -11 138 -29c22 -11 37 -21 37 -29c0 -4 -3 -7 -7 -7c-11 0 -25 16 -56 30c-25 11 -62 21 -112 21c-82 0 -157 -40 -206 -102c-36 -46 -58 -103 -58 -163c0 -77 29 -141 75 -188c49 -50 117 -79 189 -79c50 0 90 11 115 22c36 16 45 30 56 30
c4 0 7 -3 7 -7c0 -8 -15 -18 -37 -29c-35 -18 -88 -30 -141 -30c-75 0 -145 29 -197 81c-49 49 -81 118 -81 200c0 65 24 126 63 174c51 63 129 105 215 105zM181 818c0 4 3 7 7 7c2 0 4 -1 6 -3l141 -152l141 152c2 2 4 3 6 3c4 0 7 -3 7 -7c0 -2 -1 -4 -3 -6l-140 -153
c-3 -3 -6 -7 -11 -7s-8 4 -11 7l-140 153c-2 2 -3 4 -3 6z" />
    <glyph glyph-name="Csmallcaron.2" unicode="&#xe052;" horiz-adv-x="551" 
d="M340 538c-85 0 -164 -39 -214 -101c-38 -46 -60 -104 -60 -164c0 -77 30 -142 77 -189c51 -50 122 -78 197 -78c52 0 93 11 119 22c37 16 46 30 58 30c4 0 7 -3 7 -7c0 -8 -16 -18 -38 -29c-37 -18 -91 -30 -146 -30c-78 0 -151 28 -205 80c-51 49 -83 119 -83 201
c0 65 24 127 64 175c53 63 135 104 224 104c113 0 184 -45 184 -108c0 -34 -30 -54 -62 -54c-12 0 -21 2 -21 9c0 5 3 8 8 8s6 -1 13 -1c27 0 46 16 46 40c0 48 -58 92 -168 92zM181 818c0 4 3 7 7 7c2 0 4 -1 6 -3l141 -152l141 152c2 2 4 3 6 3c4 0 7 -3 7 -7
c0 -2 -1 -4 -3 -6l-140 -153c-3 -3 -6 -7 -11 -7s-8 4 -11 7l-140 153c-2 2 -3 4 -3 6z" />
    <glyph glyph-name="Csmallcedilla" unicode="&#xe053;" horiz-adv-x="541" 
d="M336 552c53 0 103 -11 138 -29c22 -11 37 -21 37 -29c0 -4 -3 -7 -7 -7c-11 0 -25 16 -56 30c-25 11 -62 21 -112 21c-82 0 -157 -40 -206 -102c-36 -46 -58 -103 -58 -163c0 -77 29 -141 75 -188c49 -50 117 -79 189 -79c50 0 90 11 115 22c36 16 45 30 56 30
c4 0 7 -3 7 -7c0 -8 -15 -18 -37 -29c-35 -18 -88 -30 -141 -30h-1v-34c42 0 87 -16 87 -64c0 -58 -62 -75 -102 -75c-13 0 -22 1 -31 3c-5 1 -7 4 -7 7c0 4 3 7 7 7c8 0 14 -3 33 -3c39 0 86 17 86 61c0 38 -39 51 -71 51c-13 0 -17 4 -16 16l2 31c-70 3 -135 32 -184 81
s-81 118 -81 200c0 65 24 126 63 174c51 63 129 105 215 105z" />
    <glyph glyph-name="Csmallcedilla.2" unicode="&#xe054;" horiz-adv-x="551" 
d="M340 538c-85 0 -164 -39 -214 -101c-38 -46 -60 -104 -60 -164c0 -77 30 -142 77 -189c51 -50 122 -78 197 -78c52 0 93 11 119 22c37 16 46 30 58 30c4 0 7 -3 7 -7c0 -8 -16 -18 -38 -29c-36 -18 -88 -29 -141 -30v-34c42 0 87 -16 87 -64c0 -58 -62 -75 -102 -75
c-13 0 -22 1 -31 3c-5 1 -7 4 -7 7c0 4 3 7 7 7c8 0 14 -3 33 -3c39 0 86 17 86 61c0 38 -39 51 -71 51c-13 0 -17 4 -16 16l2 31c-75 2 -146 29 -198 80c-51 49 -83 119 -83 201c0 65 24 127 64 175c53 63 135 104 224 104c113 0 184 -45 184 -108c0 -34 -30 -54 -62 -54
c-12 0 -21 2 -21 9c0 5 3 8 8 8s6 -1 13 -1c27 0 46 16 46 40c0 48 -58 92 -168 92z" />
    <glyph glyph-name="D" unicode="D" horiz-adv-x="734" 
d="M680 340c0 -140 -60 -238 -156 -291c-64 -35 -141 -49 -223 -49h-211c-5 0 -8 4 -8 8v665c0 4 3 8 8 8h227c123 0 223 -37 287 -111c48 -56 76 -132 76 -230zM98 667v-653h198c79 0 153 13 216 47c93 50 152 145 152 279c0 94 -28 166 -75 220c-61 72 -159 107 -277 107
h-214z" />
    <glyph glyph-name="Dcaron" unicode="&#x10e;" horiz-adv-x="734" 
d="M209 962c0 4 3 7 7 7c2 0 4 -1 6 -3l141 -152l141 152c2 2 4 3 6 3c4 0 7 -3 7 -7c0 -2 -1 -4 -3 -6l-140 -153c-3 -3 -6 -7 -11 -7s-8 4 -11 7l-140 153c-2 2 -3 4 -3 6zM680 340c0 -140 -60 -238 -156 -291c-64 -35 -141 -49 -223 -49h-211c-5 0 -8 4 -8 8v665
c0 4 3 8 8 8h227c123 0 223 -37 287 -111c48 -56 76 -132 76 -230zM98 667v-653h198c79 0 153 13 216 47c93 50 152 145 152 279c0 94 -28 166 -75 220c-61 72 -159 107 -277 107h-214z" />
    <glyph glyph-name="Dcroat" unicode="&#x110;" horiz-adv-x="734" 
d="M295 334h-197v-320h198c79 0 153 13 216 47c93 50 152 145 152 279c0 94 -28 166 -75 220c-61 72 -159 107 -277 107h-214v-321h197c3 0 6 -3 6 -6c0 -4 -3 -6 -6 -6zM82 8v326h-99c-3 0 -6 2 -6 6c0 3 3 6 6 6h99v327c0 4 3 8 8 8h227c123 0 223 -37 287 -111
c48 -56 76 -132 76 -230c0 -140 -60 -238 -156 -291c-64 -35 -141 -49 -223 -49h-211c-5 0 -8 4 -8 8z" />
    <glyph glyph-name="Delta" unicode="&#x2206;" horiz-adv-x="582" 
d="M535 0h-488c-7 0 -10 3 -10 8c0 3 1 6 3 11l242 662c2 5 4 8 9 8s7 -3 9 -8l242 -662c2 -5 3 -8 3 -11c0 -5 -3 -8 -10 -8zM291 659l-235 -645h470z" />
    <glyph glyph-name="Dsmall" unicode="&#xf764;" horiz-adv-x="612" 
d="M560 272c0 -174 -113 -272 -304 -272h-169c-4 0 -7 3 -7 7v530c0 4 3 7 7 7h183c196 0 290 -114 290 -272zM94 531v-518h162c185 0 290 95 290 259c0 151 -88 259 -276 259h-176z" />
    <glyph glyph-name="Dsmallcaron" unicode="&#xe055;" horiz-adv-x="622" 
d="M564 272c0 -174 -113 -272 -304 -272h-169c-4 0 -7 3 -7 7v530c0 4 3 7 7 7h183c196 0 290 -114 290 -272zM98 531v-518h162c185 0 290 95 290 259c0 151 -88 259 -276 259h-176zM137 818c0 4 3 7 7 7c2 0 4 -1 6 -3l141 -152l141 152c2 2 4 3 6 3c4 0 7 -3 7 -7
c0 -2 -1 -4 -3 -6l-140 -153c-3 -3 -6 -7 -11 -7s-8 4 -11 7l-140 153c-2 2 -3 4 -3 6z" />
    <glyph glyph-name="E" unicode="E" horiz-adv-x="577" 
d="M98 333v-319h439c4 0 7 -3 7 -7s-3 -7 -7 -7h-447c-5 0 -8 4 -8 8v665c0 4 3 8 8 8h447c4 0 7 -3 7 -7s-3 -7 -7 -7h-439v-320h388c4 0 7 -3 7 -7s-3 -7 -7 -7h-388z" />
    <glyph glyph-name="E.1" unicode="&#xe056;" horiz-adv-x="557" 
d="M524 674c0 -4 -3 -7 -7 -7h-163c-108 0 -181 -29 -222 -91c-28 -42 -42 -100 -42 -173v-53h377c4 0 7 -3 7 -7s-3 -7 -7 -7h-377v-58c0 -85 18 -149 57 -193c43 -48 111 -71 207 -71h163c4 0 7 -3 7 -7s-3 -7 -7 -7h-163c-103 0 -175 25 -221 78c-40 46 -59 112 -59 200
v125c0 77 15 138 46 183c44 64 121 95 234 95h163c4 0 7 -3 7 -7z" />
    <glyph glyph-name="E.2" unicode="&#xe057;" horiz-adv-x="617" 
d="M98 273v-259h479c4 0 7 -3 7 -7s-3 -7 -7 -7h-487c-5 0 -8 4 -8 8v665c0 4 3 8 8 8h487c4 0 7 -3 7 -7s-3 -7 -7 -7h-479v-380h428c4 0 7 -3 7 -7s-3 -7 -7 -7h-428z" />
    <glyph glyph-name="E.3" unicode="&#xe058;" horiz-adv-x="717" 
d="M656 350h-586c0 -93 25 -170 68 -228c57 -75 144 -118 248 -118c70 0 123 15 161 31c55 23 78 52 87 52c4 0 7 -3 7 -7c0 -10 -29 -33 -76 -53c-46 -20 -109 -37 -177 -37c-110 0 -200 43 -260 120c-46 60 -74 142 -74 239c0 90 25 173 79 237c53 63 131 104 237 104
c94 0 171 -41 221 -98c51 -58 78 -137 78 -230c0 -7 -2 -12 -13 -12zM70 364h584c-2 95 -30 166 -75 218c-46 54 -119 94 -209 94c-103 0 -179 -41 -230 -106c-42 -51 -67 -128 -70 -206z" />
    <glyph glyph-name="Eacute" unicode="&#xc9;" horiz-adv-x="577" 
d="M98 333v-319h439c4 0 7 -3 7 -7s-3 -7 -7 -7h-447c-5 0 -8 4 -8 8v665c0 4 3 8 8 8h447c4 0 7 -3 7 -7s-3 -7 -7 -7h-439v-320h388c4 0 7 -3 7 -7s-3 -7 -7 -7h-388zM252 782c0 2 1 4 3 8l99 171c3 6 7 9 10 9c5 0 8 -4 8 -8c0 -2 -1 -4 -4 -9l-101 -168
c-3 -5 -5 -8 -9 -8c-3 0 -6 2 -6 5z" />
    <glyph glyph-name="Eacute.1" unicode="&#xe059;" horiz-adv-x="557" 
d="M265 782c0 2 1 4 3 8l99 171c3 6 7 9 10 9c5 0 8 -4 8 -8c0 -2 -1 -4 -4 -9l-101 -168c-3 -5 -5 -8 -9 -8c-3 0 -6 2 -6 5zM524 674c0 -4 -3 -7 -7 -7h-163c-108 0 -181 -29 -222 -91c-28 -42 -42 -100 -42 -173v-53h377c4 0 7 -3 7 -7s-3 -7 -7 -7h-377v-58
c0 -85 18 -149 57 -193c43 -48 111 -71 207 -71h163c4 0 7 -3 7 -7s-3 -7 -7 -7h-163c-103 0 -175 25 -221 78c-40 46 -59 112 -59 200v125c0 77 15 138 46 183c44 64 121 95 234 95h163c4 0 7 -3 7 -7z" />
    <glyph glyph-name="Eacute.2" unicode="&#xe05a;" horiz-adv-x="617" 
d="M98 273v-259h479c4 0 7 -3 7 -7s-3 -7 -7 -7h-487c-5 0 -8 4 -8 8v665c0 4 3 8 8 8h487c4 0 7 -3 7 -7s-3 -7 -7 -7h-479v-380h428c4 0 7 -3 7 -7s-3 -7 -7 -7h-428zM271 782c0 2 1 4 3 8l99 171c3 6 7 9 10 9c5 0 8 -4 8 -8c0 -2 -1 -4 -4 -9l-101 -168
c-3 -5 -5 -8 -9 -8c-3 0 -6 2 -6 5z" />
    <glyph glyph-name="Eacute.3" unicode="&#xe05b;" horiz-adv-x="717" 
d="M656 350h-586c0 -93 25 -170 68 -228c57 -75 144 -118 248 -118c70 0 123 15 161 31c55 23 78 52 87 52c4 0 7 -3 7 -7c0 -10 -29 -33 -76 -53c-46 -20 -109 -37 -177 -37c-110 0 -200 43 -260 120c-46 60 -74 142 -74 239c0 90 25 173 79 237c53 63 131 104 237 104
c94 0 171 -41 221 -98c51 -58 78 -137 78 -230c0 -7 -2 -12 -13 -12zM70 364h584c-2 95 -30 166 -75 218c-46 54 -119 94 -209 94c-103 0 -179 -41 -230 -106c-42 -51 -67 -128 -70 -206zM313 782c0 2 1 4 3 8l99 171c3 6 7 9 10 9c5 0 8 -4 8 -8c0 -2 -1 -4 -4 -9
l-101 -168c-3 -5 -5 -8 -9 -8c-3 0 -6 2 -6 5z" />
    <glyph glyph-name="Ecaron" unicode="&#x11a;" horiz-adv-x="577" 
d="M166 962c0 4 3 7 7 7c2 0 4 -1 6 -3l141 -152l141 152c2 2 4 3 6 3c4 0 7 -3 7 -7c0 -2 -1 -4 -3 -6l-140 -153c-3 -3 -6 -7 -11 -7s-8 4 -11 7l-140 153c-2 2 -3 4 -3 6zM98 333v-319h439c4 0 7 -3 7 -7s-3 -7 -7 -7h-447c-5 0 -8 4 -8 8v665c0 4 3 8 8 8h447
c4 0 7 -3 7 -7s-3 -7 -7 -7h-439v-320h388c4 0 7 -3 7 -7s-3 -7 -7 -7h-388z" />
    <glyph glyph-name="Ecaron.1" unicode="&#xe05c;" horiz-adv-x="557" 
d="M192 962c0 4 3 7 7 7c2 0 4 -1 6 -3l141 -152l141 152c2 2 4 3 6 3c4 0 7 -3 7 -7c0 -2 -1 -4 -3 -6l-140 -153c-3 -3 -6 -7 -11 -7s-8 4 -11 7l-140 153c-2 2 -3 4 -3 6zM524 674c0 -4 -3 -7 -7 -7h-163c-108 0 -181 -29 -222 -91c-28 -42 -42 -100 -42 -173v-53h377
c4 0 7 -3 7 -7s-3 -7 -7 -7h-377v-58c0 -85 18 -149 57 -193c43 -48 111 -71 207 -71h163c4 0 7 -3 7 -7s-3 -7 -7 -7h-163c-103 0 -175 25 -221 78c-40 46 -59 112 -59 200v125c0 77 15 138 46 183c44 64 121 95 234 95h163c4 0 7 -3 7 -7z" />
    <glyph glyph-name="Ecaron.2" unicode="&#xe05d;" horiz-adv-x="617" 
d="M98 273v-259h479c4 0 7 -3 7 -7s-3 -7 -7 -7h-487c-5 0 -8 4 -8 8v665c0 4 3 8 8 8h487c4 0 7 -3 7 -7s-3 -7 -7 -7h-479v-380h428c4 0 7 -3 7 -7s-3 -7 -7 -7h-428zM186 962c0 4 3 7 7 7c2 0 4 -1 6 -3l141 -152l141 152c2 2 4 3 6 3c4 0 7 -3 7 -7c0 -2 -1 -4 -3 -6
l-140 -153c-3 -3 -6 -7 -11 -7s-8 4 -11 7l-140 153c-2 2 -3 4 -3 6z" />
    <glyph glyph-name="Ecaron.3" unicode="&#xe05e;" horiz-adv-x="717" 
d="M656 350h-586c0 -93 25 -170 68 -228c57 -75 144 -118 248 -118c70 0 123 15 161 31c55 23 78 52 87 52c4 0 7 -3 7 -7c0 -10 -29 -33 -76 -53c-46 -20 -109 -37 -177 -37c-110 0 -200 43 -260 120c-46 60 -74 142 -74 239c0 90 25 173 79 237c53 63 131 104 237 104
c94 0 171 -41 221 -98c51 -58 78 -137 78 -230c0 -7 -2 -12 -13 -12zM70 364h584c-2 95 -30 166 -75 218c-46 54 -119 94 -209 94c-103 0 -179 -41 -230 -106c-42 -51 -67 -128 -70 -206zM220 962c0 4 3 7 7 7c2 0 4 -1 6 -3l141 -152l141 152c2 2 4 3 6 3c4 0 7 -3 7 -7
c0 -2 -1 -4 -3 -6l-140 -153c-3 -3 -6 -7 -11 -7s-8 4 -11 7l-140 153c-2 2 -3 4 -3 6z" />
    <glyph glyph-name="Ecircumflex" unicode="&#xca;" horiz-adv-x="577" 
d="M98 333v-319h439c4 0 7 -3 7 -7s-3 -7 -7 -7h-447c-5 0 -8 4 -8 8v665c0 4 3 8 8 8h447c4 0 7 -3 7 -7s-3 -7 -7 -7h-439v-320h388c4 0 7 -3 7 -7s-3 -7 -7 -7h-388zM300 969c5 0 8 -4 11 -7l140 -153c2 -2 3 -4 3 -6c0 -4 -3 -7 -7 -7c-2 0 -4 1 -6 3l-141 152
l-141 -152c-2 -2 -4 -3 -6 -3c-4 0 -7 3 -7 7c0 2 1 4 3 6l140 153c3 3 6 7 11 7z" />
    <glyph glyph-name="Ecircumflex.1" unicode="&#xe05f;" horiz-adv-x="557" 
d="M324 969c5 0 8 -4 11 -7l140 -153c2 -2 3 -4 3 -6c0 -4 -3 -7 -7 -7c-2 0 -4 1 -6 3l-141 152l-141 -152c-2 -2 -4 -3 -6 -3c-4 0 -7 3 -7 7c0 2 1 4 3 6l140 153c3 3 6 7 11 7zM524 674c0 -4 -3 -7 -7 -7h-163c-108 0 -181 -29 -222 -91c-28 -42 -42 -100 -42 -173v-53
h377c4 0 7 -3 7 -7s-3 -7 -7 -7h-377v-58c0 -85 18 -149 57 -193c43 -48 111 -71 207 -71h163c4 0 7 -3 7 -7s-3 -7 -7 -7h-163c-103 0 -175 25 -221 78c-40 46 -59 112 -59 200v125c0 77 15 138 46 183c44 64 121 95 234 95h163c4 0 7 -3 7 -7z" />
    <glyph glyph-name="Ecircumflex.2" unicode="&#xe060;" horiz-adv-x="617" 
d="M98 273v-259h479c4 0 7 -3 7 -7s-3 -7 -7 -7h-487c-5 0 -8 4 -8 8v665c0 4 3 8 8 8h487c4 0 7 -3 7 -7s-3 -7 -7 -7h-479v-380h428c4 0 7 -3 7 -7s-3 -7 -7 -7h-428zM329 969c5 0 8 -4 11 -7l140 -153c2 -2 3 -4 3 -6c0 -4 -3 -7 -7 -7c-2 0 -4 1 -6 3l-141 152
l-141 -152c-2 -2 -4 -3 -6 -3c-4 0 -7 3 -7 7c0 2 1 4 3 6l140 153c3 3 6 7 11 7z" />
    <glyph glyph-name="Ecircumflex.3" unicode="&#xe061;" horiz-adv-x="717" 
d="M656 350h-586c0 -93 25 -170 68 -228c57 -75 144 -118 248 -118c70 0 123 15 161 31c55 23 78 52 87 52c4 0 7 -3 7 -7c0 -10 -29 -33 -76 -53c-46 -20 -109 -37 -177 -37c-110 0 -200 43 -260 120c-46 60 -74 142 -74 239c0 90 25 173 79 237c53 63 131 104 237 104
c94 0 171 -41 221 -98c51 -58 78 -137 78 -230c0 -7 -2 -12 -13 -12zM70 364h584c-2 95 -30 166 -75 218c-46 54 -119 94 -209 94c-103 0 -179 -41 -230 -106c-42 -51 -67 -128 -70 -206zM372 969c5 0 8 -4 11 -7l140 -153c2 -2 3 -4 3 -6c0 -4 -3 -7 -7 -7c-2 0 -4 1 -6 3
l-141 152l-141 -152c-2 -2 -4 -3 -6 -3c-4 0 -7 3 -7 7c0 2 1 4 3 6l140 153c3 3 6 7 11 7z" />
    <glyph glyph-name="Edieresis" unicode="&#xcb;" horiz-adv-x="577" 
d="M98 333v-319h439c4 0 7 -3 7 -7s-3 -7 -7 -7h-447c-5 0 -8 4 -8 8v665c0 4 3 8 8 8h447c4 0 7 -3 7 -7s-3 -7 -7 -7h-439v-320h388c4 0 7 -3 7 -7s-3 -7 -7 -7h-388zM234 866c-7 0 -12 5 -12 12c0 6 5 11 12 11c6 0 11 -5 11 -11c0 -7 -5 -12 -11 -12zM378 866
c-7 0 -12 5 -12 12c0 6 5 11 12 11c6 0 11 -5 11 -11c0 -7 -5 -12 -11 -12z" />
    <glyph glyph-name="Edieresis.1" unicode="&#xe062;" horiz-adv-x="557" 
d="M257 866c-7 0 -12 5 -12 12c0 6 5 11 12 11c6 0 11 -5 11 -11c0 -7 -5 -12 -11 -12zM401 866c-7 0 -12 5 -12 12c0 6 5 11 12 11c6 0 11 -5 11 -11c0 -7 -5 -12 -11 -12zM524 674c0 -4 -3 -7 -7 -7h-163c-108 0 -181 -29 -222 -91c-28 -42 -42 -100 -42 -173v-53h377
c4 0 7 -3 7 -7s-3 -7 -7 -7h-377v-58c0 -85 18 -149 57 -193c43 -48 111 -71 207 -71h163c4 0 7 -3 7 -7s-3 -7 -7 -7h-163c-103 0 -175 25 -221 78c-40 46 -59 112 -59 200v125c0 77 15 138 46 183c44 64 121 95 234 95h163c4 0 7 -3 7 -7z" />
    <glyph glyph-name="Edieresis.2" unicode="&#xe063;" horiz-adv-x="617" 
d="M98 273v-259h479c4 0 7 -3 7 -7s-3 -7 -7 -7h-487c-5 0 -8 4 -8 8v665c0 4 3 8 8 8h487c4 0 7 -3 7 -7s-3 -7 -7 -7h-479v-380h428c4 0 7 -3 7 -7s-3 -7 -7 -7h-428zM266 866c-7 0 -12 5 -12 12c0 6 5 11 12 11c6 0 11 -5 11 -11c0 -7 -5 -12 -11 -12zM410 866
c-7 0 -12 5 -12 12c0 6 5 11 12 11c6 0 11 -5 11 -11c0 -7 -5 -12 -11 -12z" />
    <glyph glyph-name="Edieresis.3" unicode="&#xe064;" horiz-adv-x="717" 
d="M656 350h-586c0 -93 25 -170 68 -228c57 -75 144 -118 248 -118c70 0 123 15 161 31c55 23 78 52 87 52c4 0 7 -3 7 -7c0 -10 -29 -33 -76 -53c-46 -20 -109 -37 -177 -37c-110 0 -200 43 -260 120c-46 60 -74 142 -74 239c0 90 25 173 79 237c53 63 131 104 237 104
c94 0 171 -41 221 -98c51 -58 78 -137 78 -230c0 -7 -2 -12 -13 -12zM70 364h584c-2 95 -30 166 -75 218c-46 54 -119 94 -209 94c-103 0 -179 -41 -230 -106c-42 -51 -67 -128 -70 -206zM302 866c-7 0 -12 5 -12 12c0 6 5 11 12 11c6 0 11 -5 11 -11c0 -7 -5 -12 -11 -12z
M446 866c-7 0 -12 5 -12 12c0 6 5 11 12 11c6 0 11 -5 11 -11c0 -7 -5 -12 -11 -12z" />
    <glyph glyph-name="Edotaccent" unicode="&#x116;" horiz-adv-x="577" 
d="M98 333v-319h439c4 0 7 -3 7 -7s-3 -7 -7 -7h-447c-5 0 -8 4 -8 8v665c0 4 3 8 8 8h447c4 0 7 -3 7 -7s-3 -7 -7 -7h-439v-320h388c4 0 7 -3 7 -7s-3 -7 -7 -7h-388zM309 871c-7 0 -12 5 -12 12c0 6 5 11 12 11c6 0 11 -5 11 -11c0 -7 -5 -12 -11 -12z" />
    <glyph glyph-name="Edotaccent.1" unicode="&#xe065;" horiz-adv-x="557" 
d="M524 674c0 -4 -3 -7 -7 -7h-163c-108 0 -181 -29 -222 -91c-28 -42 -42 -100 -42 -173v-53h377c4 0 7 -3 7 -7s-3 -7 -7 -7h-377v-58c0 -85 18 -149 57 -193c43 -48 111 -71 207 -71h163c4 0 7 -3 7 -7s-3 -7 -7 -7h-163c-103 0 -175 25 -221 78c-40 46 -59 112 -59 200
v125c0 77 15 138 46 183c44 64 121 95 234 95h163c4 0 7 -3 7 -7zM323 866c-7 0 -12 5 -12 12c0 6 5 11 12 11c6 0 11 -5 11 -11c0 -7 -5 -12 -11 -12z" />
    <glyph glyph-name="Edotaccent.2" unicode="&#xe066;" horiz-adv-x="617" 
d="M98 273v-259h479c4 0 7 -3 7 -7s-3 -7 -7 -7h-487c-5 0 -8 4 -8 8v665c0 4 3 8 8 8h487c4 0 7 -3 7 -7s-3 -7 -7 -7h-479v-380h428c4 0 7 -3 7 -7s-3 -7 -7 -7h-428zM339 871c-7 0 -12 5 -12 12c0 6 5 11 12 11c6 0 11 -5 11 -11c0 -7 -5 -12 -11 -12z" />
    <glyph glyph-name="Edotaccent.3" unicode="&#xe067;" horiz-adv-x="717" 
d="M656 350h-586c0 -93 25 -170 68 -228c57 -75 144 -118 248 -118c70 0 123 15 161 31c55 23 78 52 87 52c4 0 7 -3 7 -7c0 -10 -29 -33 -76 -53c-46 -20 -109 -37 -177 -37c-110 0 -200 43 -260 120c-46 60 -74 142 -74 239c0 90 25 173 79 237c53 63 131 104 237 104
c94 0 171 -41 221 -98c51 -58 78 -137 78 -230c0 -7 -2 -12 -13 -12zM70 364h584c-2 95 -30 166 -75 218c-46 54 -119 94 -209 94c-103 0 -179 -41 -230 -106c-42 -51 -67 -128 -70 -206zM374 871c-7 0 -12 5 -12 12c0 6 5 11 12 11c6 0 11 -5 11 -11c0 -7 -5 -12 -11 -12z
" />
    <glyph glyph-name="Egrave" unicode="&#xc8;" horiz-adv-x="577" 
d="M98 333v-319h439c4 0 7 -3 7 -7s-3 -7 -7 -7h-447c-5 0 -8 4 -8 8v665c0 4 3 8 8 8h447c4 0 7 -3 7 -7s-3 -7 -7 -7h-439v-320h388c4 0 7 -3 7 -7s-3 -7 -7 -7h-388zM348 782c0 -3 -3 -5 -6 -5c-4 0 -6 3 -9 8l-101 168c-3 5 -4 7 -4 9c0 4 3 8 8 8c3 0 7 -3 10 -9
l99 -171c2 -4 3 -6 3 -8z" />
    <glyph glyph-name="Egrave.1" unicode="&#xe068;" horiz-adv-x="557" 
d="M381 782c0 -3 -3 -5 -6 -5c-4 0 -6 3 -9 8l-101 168c-3 5 -4 7 -4 9c0 4 3 8 8 8c3 0 7 -3 10 -9l99 -171c2 -4 3 -6 3 -8zM524 674c0 -4 -3 -7 -7 -7h-163c-108 0 -181 -29 -222 -91c-28 -42 -42 -100 -42 -173v-53h377c4 0 7 -3 7 -7s-3 -7 -7 -7h-377v-58
c0 -85 18 -149 57 -193c43 -48 111 -71 207 -71h163c4 0 7 -3 7 -7s-3 -7 -7 -7h-163c-103 0 -175 25 -221 78c-40 46 -59 112 -59 200v125c0 77 15 138 46 183c44 64 121 95 234 95h163c4 0 7 -3 7 -7z" />
    <glyph glyph-name="Egrave.2" unicode="&#xe069;" horiz-adv-x="617" 
d="M98 273v-259h479c4 0 7 -3 7 -7s-3 -7 -7 -7h-487c-5 0 -8 4 -8 8v665c0 4 3 8 8 8h487c4 0 7 -3 7 -7s-3 -7 -7 -7h-479v-380h428c4 0 7 -3 7 -7s-3 -7 -7 -7h-428zM398 782c0 -3 -3 -5 -6 -5c-4 0 -6 3 -9 8l-101 168c-3 5 -4 7 -4 9c0 4 3 8 8 8c3 0 7 -3 10 -9
l99 -171c2 -4 3 -6 3 -8z" />
    <glyph glyph-name="Egrave.3" unicode="&#xe06a;" horiz-adv-x="717" 
d="M656 350h-586c0 -93 25 -170 68 -228c57 -75 144 -118 248 -118c70 0 123 15 161 31c55 23 78 52 87 52c4 0 7 -3 7 -7c0 -10 -29 -33 -76 -53c-46 -20 -109 -37 -177 -37c-110 0 -200 43 -260 120c-46 60 -74 142 -74 239c0 90 25 173 79 237c53 63 131 104 237 104
c94 0 171 -41 221 -98c51 -58 78 -137 78 -230c0 -7 -2 -12 -13 -12zM70 364h584c-2 95 -30 166 -75 218c-46 54 -119 94 -209 94c-103 0 -179 -41 -230 -106c-42 -51 -67 -128 -70 -206zM438 782c0 -3 -3 -5 -6 -5c-4 0 -6 3 -9 8l-101 168c-3 5 -4 7 -4 9c0 4 3 8 8 8
c3 0 7 -3 10 -9l99 -171c2 -4 3 -6 3 -8z" />
    <glyph glyph-name="Emacron" unicode="&#x112;" horiz-adv-x="577" 
d="M98 333v-319h439c4 0 7 -3 7 -7s-3 -7 -7 -7h-447c-5 0 -8 4 -8 8v665c0 4 3 8 8 8h447c4 0 7 -3 7 -7s-3 -7 -7 -7h-439v-320h388c4 0 7 -3 7 -7s-3 -7 -7 -7h-388zM432 891c0 -4 -3 -6 -6 -6h-231c-3 0 -6 2 -6 6c0 3 3 6 6 6h231c3 0 6 -3 6 -6z" />
    <glyph glyph-name="Emacron.1" unicode="&#xe06b;" horiz-adv-x="557" 
d="M440 891c0 -4 -3 -6 -6 -6h-231c-3 0 -6 2 -6 6c0 3 3 6 6 6h231c3 0 6 -3 6 -6zM524 674c0 -4 -3 -7 -7 -7h-163c-108 0 -181 -29 -222 -91c-28 -42 -42 -100 -42 -173v-53h377c4 0 7 -3 7 -7s-3 -7 -7 -7h-377v-58c0 -85 18 -149 57 -193c43 -48 111 -71 207 -71h163
c4 0 7 -3 7 -7s-3 -7 -7 -7h-163c-103 0 -175 25 -221 78c-40 46 -59 112 -59 200v125c0 77 15 138 46 183c44 64 121 95 234 95h163c4 0 7 -3 7 -7z" />
    <glyph glyph-name="Emacron.2" unicode="&#xe06c;" horiz-adv-x="617" 
d="M98 273v-259h479c4 0 7 -3 7 -7s-3 -7 -7 -7h-487c-5 0 -8 4 -8 8v665c0 4 3 8 8 8h487c4 0 7 -3 7 -7s-3 -7 -7 -7h-479v-380h428c4 0 7 -3 7 -7s-3 -7 -7 -7h-428zM452 891c0 -4 -3 -6 -6 -6h-231c-3 0 -6 2 -6 6c0 3 3 6 6 6h231c3 0 6 -3 6 -6z" />
    <glyph glyph-name="Emacron.3" unicode="&#xe06d;" horiz-adv-x="717" 
d="M656 350h-586c0 -93 25 -170 68 -228c57 -75 144 -118 248 -118c70 0 123 15 161 31c55 23 78 52 87 52c4 0 7 -3 7 -7c0 -10 -29 -33 -76 -53c-46 -20 -109 -37 -177 -37c-110 0 -200 43 -260 120c-46 60 -74 142 -74 239c0 90 25 173 79 237c53 63 131 104 237 104
c94 0 171 -41 221 -98c51 -58 78 -137 78 -230c0 -7 -2 -12 -13 -12zM70 364h584c-2 95 -30 166 -75 218c-46 54 -119 94 -209 94c-103 0 -179 -41 -230 -106c-42 -51 -67 -128 -70 -206zM495 891c0 -4 -3 -6 -6 -6h-231c-3 0 -6 2 -6 6c0 3 3 6 6 6h231c3 0 6 -3 6 -6z" />
    <glyph glyph-name="Eogonek" unicode="&#x118;" horiz-adv-x="577" 
d="M98 333v-319h439c4 0 7 -3 7 -7s-3 -7 -7 -7h-105c-18 -38 -33 -79 -33 -110c0 -26 6 -63 87 -63c34 0 45 9 51 9c4 0 7 -3 7 -7s-3 -6 -8 -8c-11 -4 -33 -8 -50 -8c-87 0 -101 40 -101 77c0 25 14 71 33 110h-328c-5 0 -8 4 -8 8v665c0 4 3 8 8 8h447c4 0 7 -3 7 -7
s-3 -7 -7 -7h-439v-320h388c4 0 7 -3 7 -7s-3 -7 -7 -7h-388z" />
    <glyph glyph-name="Eogonek.1" unicode="&#xe06e;" horiz-adv-x="557" 
d="M524 674c0 -7 -4 -6 -8 -6h-159c-88 0 -163 -26 -211 -90c-36 -47 -58 -116 -58 -211v-21h379c4 0 8 0 8 -7c0 -6 -4 -6 -8 -6h-379v-21c0 -104 25 -176 68 -223c49 -53 119 -76 201 -76h159c4 0 8 0 8 -7c0 -6 -4 -6 -8 -6h-104c-19 -39 -33 -78 -33 -110
c0 -26 6 -63 87 -63c34 0 45 9 51 9c4 0 7 -3 7 -7s-3 -6 -8 -8c-11 -4 -33 -8 -50 -8c-87 0 -101 40 -101 77c0 26 13 70 33 110h-40c-81 0 -151 20 -202 68c-52 49 -82 126 -82 236v73c0 98 25 170 67 219c51 59 128 85 217 85h158c4 0 8 -1 8 -7z" />
    <glyph glyph-name="Eogonek.2" unicode="&#xe06f;" horiz-adv-x="617" 
d="M98 273v-259h479c4 0 7 -3 7 -7s-3 -7 -7 -7h-105c-18 -38 -33 -79 -33 -110c0 -26 6 -63 87 -63c34 0 45 9 51 9c4 0 7 -3 7 -7s-3 -6 -8 -8c-11 -4 -33 -8 -50 -8c-87 0 -101 40 -101 77c0 25 14 71 33 110h-368c-5 0 -8 4 -8 8v665c0 4 3 8 8 8h487c4 0 7 -3 7 -7
s-3 -7 -7 -7h-479v-380h428c4 0 7 -3 7 -7s-3 -7 -7 -7h-428z" />
    <glyph glyph-name="Eogonek.3" unicode="&#xe070;" horiz-adv-x="717" 
d="M656 350h-586c0 -93 25 -170 68 -228c57 -75 144 -118 248 -118c70 0 123 15 161 31c55 23 78 52 87 52c4 0 7 -3 7 -7c0 -10 -29 -33 -76 -53c-9 -4 -19 -8 -29 -11c-17 -34 -40 -83 -40 -126c0 -26 6 -63 87 -63c34 0 45 9 51 9c4 0 7 -3 7 -7s-3 -6 -8 -8
c-11 -4 -33 -8 -50 -8c-87 0 -101 40 -101 77s18 82 40 121c-39 -12 -86 -21 -134 -21c-110 0 -200 43 -260 120c-46 60 -74 142 -74 239c0 90 25 173 79 237c53 63 131 104 237 104c94 0 171 -41 221 -98c51 -58 78 -137 78 -230c0 -7 -2 -12 -13 -12zM70 364h584
c-2 95 -30 166 -75 218c-46 54 -119 94 -209 94c-103 0 -179 -41 -230 -106c-42 -51 -67 -128 -70 -206z" />
    <glyph glyph-name="Esmall" unicode="&#xf765;" horiz-adv-x="467" 
d="M94 266v-254h351c3 0 6 -3 6 -6c0 -4 -3 -6 -6 -6h-358c-4 0 -7 3 -7 7v530c0 4 3 7 7 7h358c3 0 6 -3 6 -6c0 -4 -3 -6 -6 -6h-351v-254h312c3 0 6 -3 6 -6c0 -4 -3 -6 -6 -6h-312z" />
    <glyph glyph-name="Esmall.1" unicode="&#xe071;" horiz-adv-x="469" 
d="M98 471c35 51 98 75 188 75h161c3 0 6 -3 6 -6c0 -4 -3 -6 -6 -6h-161c-88 0 -145 -23 -177 -69c-22 -33 -33 -80 -33 -140v-44h331c3 0 6 -3 6 -6c0 -4 -3 -6 -6 -6h-331v-47c0 -60 11 -107 33 -140c32 -46 89 -70 177 -70h161c3 0 6 -2 6 -6c0 -3 -3 -6 -6 -6h-161
c-90 0 -153 24 -188 75c-25 36 -36 86 -36 148v100c0 62 11 112 36 148z" />
    <glyph glyph-name="Esmall.2" unicode="&#xe072;" horiz-adv-x="497" 
d="M94 218v-206h381c3 0 6 -3 6 -6c0 -4 -3 -6 -6 -6h-388c-4 0 -7 3 -7 7v530c0 4 3 7 7 7h388c3 0 6 -3 6 -6c0 -4 -3 -6 -6 -6h-381v-302h342c3 0 6 -3 6 -6c0 -4 -3 -6 -6 -6h-342z" />
    <glyph glyph-name="Esmall.3" unicode="&#xe073;" horiz-adv-x="593" 
d="M319 6c56 0 98 12 128 25c42 19 62 42 69 42c4 0 7 -3 7 -8c0 -8 -25 -28 -63 -44c-37 -16 -86 -29 -141 -29c-89 0 -161 34 -208 96c-37 48 -59 113 -59 191c0 74 20 139 63 191c43 50 104 82 190 82c74 0 139 -34 178 -78c40 -45 62 -110 62 -185c0 -6 -1 -11 -10 -11
h-469c1 -68 20 -133 54 -178c45 -60 115 -94 199 -94zM66 291h465c-2 70 -22 132 -59 173s-99 74 -166 74c-83 0 -143 -32 -184 -84c-34 -43 -53 -103 -56 -163z" />
    <glyph glyph-name="Esmallacute" unicode="&#xe074;" horiz-adv-x="471" 
d="M98 266v-254h351c3 0 6 -3 6 -6c0 -4 -3 -6 -6 -6h-358c-4 0 -7 3 -7 7v530c0 4 3 7 7 7h358c3 0 6 -3 6 -6c0 -4 -3 -6 -6 -6h-351v-254h312c3 0 6 -3 6 -6c0 -4 -3 -6 -6 -6h-312zM209 638c0 2 1 4 3 8l99 171c3 6 7 9 10 9c5 0 8 -4 8 -8c0 -2 -1 -4 -4 -9l-101 -168
c-3 -5 -5 -8 -9 -8c-3 0 -6 2 -6 5z" />
    <glyph glyph-name="Esmallacute.1" unicode="&#xe075;" horiz-adv-x="469" 
d="M98 471c35 51 98 75 188 75h161c3 0 6 -3 6 -6c0 -4 -3 -6 -6 -6h-161c-88 0 -145 -23 -177 -69c-22 -33 -33 -80 -33 -140v-44h331c3 0 6 -3 6 -6c0 -4 -3 -6 -6 -6h-331v-47c0 -60 11 -107 33 -140c32 -46 89 -70 177 -70h161c3 0 6 -2 6 -6c0 -3 -3 -6 -6 -6h-161
c-90 0 -153 24 -188 75c-25 36 -36 86 -36 148v100c0 62 11 112 36 148zM238 638c0 2 1 4 3 8l99 171c3 6 7 9 10 9c5 0 8 -4 8 -8c0 -2 -1 -4 -4 -9l-101 -168c-3 -5 -5 -8 -9 -8c-3 0 -6 2 -6 5z" />
    <glyph glyph-name="Esmallacute.2" unicode="&#xe076;" horiz-adv-x="497" 
d="M94 218v-206h381c3 0 6 -3 6 -6c0 -4 -3 -6 -6 -6h-388c-4 0 -7 3 -7 7v530c0 4 3 7 7 7h388c3 0 6 -3 6 -6c0 -4 -3 -6 -6 -6h-381v-302h342c3 0 6 -3 6 -6c0 -4 -3 -6 -6 -6h-342zM229 638c0 2 1 4 3 8l99 171c3 6 7 9 10 9c5 0 8 -4 8 -8c0 -2 -1 -4 -4 -9l-101 -168
c-3 -5 -5 -8 -9 -8c-3 0 -6 2 -6 5z" />
    <glyph glyph-name="Esmallacute.3" unicode="&#xe077;" horiz-adv-x="593" 
d="M319 6c56 0 98 12 128 25c42 19 62 42 69 42c4 0 7 -3 7 -8c0 -8 -25 -28 -63 -44c-37 -16 -86 -29 -141 -29c-89 0 -161 34 -208 96c-37 48 -59 113 -59 191c0 74 20 139 63 191c43 50 104 82 190 82c74 0 139 -34 178 -78c40 -45 62 -110 62 -185c0 -6 -1 -11 -10 -11
h-469c1 -68 20 -133 54 -178c45 -60 115 -94 199 -94zM66 291h465c-2 70 -22 132 -59 173s-99 74 -166 74c-83 0 -143 -32 -184 -84c-34 -43 -53 -103 -56 -163zM245 638c0 2 1 4 3 8l99 171c3 6 7 9 10 9c5 0 8 -4 8 -8c0 -2 -1 -4 -4 -9l-101 -168c-3 -5 -5 -8 -9 -8
c-3 0 -6 2 -6 5z" />
    <glyph glyph-name="Esmallcaron" unicode="&#xe078;" horiz-adv-x="471" 
d="M98 266v-254h351c3 0 6 -3 6 -6c0 -4 -3 -6 -6 -6h-358c-4 0 -7 3 -7 7v530c0 4 3 7 7 7h358c3 0 6 -3 6 -6c0 -4 -3 -6 -6 -6h-351v-254h312c3 0 6 -3 6 -6c0 -4 -3 -6 -6 -6h-312zM115 818c0 4 3 7 7 7c2 0 4 -1 6 -3l141 -152l141 152c2 2 4 3 6 3c4 0 7 -3 7 -7
c0 -2 -1 -4 -3 -6l-140 -153c-3 -3 -6 -7 -11 -7s-8 4 -11 7l-140 153c-2 2 -3 4 -3 6z" />
    <glyph glyph-name="Esmallcaron.1" unicode="&#xe079;" horiz-adv-x="469" 
d="M98 471c35 51 98 75 188 75h161c3 0 6 -3 6 -6c0 -4 -3 -6 -6 -6h-161c-88 0 -145 -23 -177 -69c-22 -33 -33 -80 -33 -140v-44h331c3 0 6 -3 6 -6c0 -4 -3 -6 -6 -6h-331v-47c0 -60 11 -107 33 -140c32 -46 89 -70 177 -70h161c3 0 6 -2 6 -6c0 -3 -3 -6 -6 -6h-161
c-90 0 -153 24 -188 75c-25 36 -36 86 -36 148v100c0 62 11 112 36 148zM125 818c0 4 3 7 7 7c2 0 4 -1 6 -3l141 -152l141 152c2 2 4 3 6 3c4 0 7 -3 7 -7c0 -2 -1 -4 -3 -6l-140 -153c-3 -3 -6 -7 -11 -7s-8 4 -11 7l-140 153c-2 2 -3 4 -3 6z" />
    <glyph glyph-name="Esmallcaron.2" unicode="&#xe07a;" horiz-adv-x="497" 
d="M94 218v-206h381c3 0 6 -3 6 -6c0 -4 -3 -6 -6 -6h-388c-4 0 -7 3 -7 7v530c0 4 3 7 7 7h388c3 0 6 -3 6 -6c0 -4 -3 -6 -6 -6h-381v-302h342c3 0 6 -3 6 -6c0 -4 -3 -6 -6 -6h-342zM129 818c0 4 3 7 7 7c2 0 4 -1 6 -3l141 -152l141 152c2 2 4 3 6 3c4 0 7 -3 7 -7
c0 -2 -1 -4 -3 -6l-140 -153c-3 -3 -6 -7 -11 -7s-8 4 -11 7l-140 153c-2 2 -3 4 -3 6z" />
    <glyph glyph-name="Esmallcaron.3" unicode="&#xe07b;" horiz-adv-x="593" 
d="M319 6c56 0 98 12 128 25c42 19 62 42 69 42c4 0 7 -3 7 -8c0 -8 -25 -28 -63 -44c-37 -16 -86 -29 -141 -29c-89 0 -161 34 -208 96c-37 48 -59 113 -59 191c0 74 20 139 63 191c43 50 104 82 190 82c74 0 139 -34 178 -78c40 -45 62 -110 62 -185c0 -6 -1 -11 -10 -11
h-469c1 -68 20 -133 54 -178c45 -60 115 -94 199 -94zM66 291h465c-2 70 -22 132 -59 173s-99 74 -166 74c-83 0 -143 -32 -184 -84c-34 -43 -53 -103 -56 -163zM155 818c0 4 3 7 7 7c2 0 4 -1 6 -3l141 -152l141 152c2 2 4 3 6 3c4 0 7 -3 7 -7c0 -2 -1 -4 -3 -6l-140 -153
c-3 -3 -6 -7 -11 -7s-8 4 -11 7l-140 153c-2 2 -3 4 -3 6z" />
    <glyph glyph-name="Esmallcircumflex" unicode="&#xe07c;" horiz-adv-x="471" 
d="M98 266v-254h351c3 0 6 -3 6 -6c0 -4 -3 -6 -6 -6h-358c-4 0 -7 3 -7 7v530c0 4 3 7 7 7h358c3 0 6 -3 6 -6c0 -4 -3 -6 -6 -6h-351v-254h312c3 0 6 -3 6 -6c0 -4 -3 -6 -6 -6h-312zM263 825c5 0 8 -4 11 -7l140 -153c2 -2 3 -4 3 -6c0 -4 -3 -7 -7 -7c-2 0 -4 1 -6 3
l-141 152l-141 -152c-2 -2 -4 -3 -6 -3c-4 0 -7 3 -7 7c0 2 1 4 3 6l140 153c3 3 6 7 11 7z" />
    <glyph glyph-name="Esmallcircumflex.1" unicode="&#xe07d;" horiz-adv-x="469" 
d="M98 471c35 51 98 75 188 75h161c3 0 6 -3 6 -6c0 -4 -3 -6 -6 -6h-161c-88 0 -145 -23 -177 -69c-22 -33 -33 -80 -33 -140v-44h331c3 0 6 -3 6 -6c0 -4 -3 -6 -6 -6h-331v-47c0 -60 11 -107 33 -140c32 -46 89 -70 177 -70h161c3 0 6 -2 6 -6c0 -3 -3 -6 -6 -6h-161
c-90 0 -153 24 -188 75c-25 36 -36 86 -36 148v100c0 62 11 112 36 148zM277 825c5 0 8 -4 11 -7l140 -153c2 -2 3 -4 3 -6c0 -4 -3 -7 -7 -7c-2 0 -4 1 -6 3l-141 152l-141 -152c-2 -2 -4 -3 -6 -3c-4 0 -7 3 -7 7c0 2 1 4 3 6l140 153c3 3 6 7 11 7z" />
    <glyph glyph-name="Esmallcircumflex.2" unicode="&#xe07e;" horiz-adv-x="497" 
d="M94 218v-206h381c3 0 6 -3 6 -6c0 -4 -3 -6 -6 -6h-388c-4 0 -7 3 -7 7v530c0 4 3 7 7 7h388c3 0 6 -3 6 -6c0 -4 -3 -6 -6 -6h-381v-302h342c3 0 6 -3 6 -6c0 -4 -3 -6 -6 -6h-342zM276 825c5 0 8 -4 11 -7l140 -153c2 -2 3 -4 3 -6c0 -4 -3 -7 -7 -7c-2 0 -4 1 -6 3
l-141 152l-141 -152c-2 -2 -4 -3 -6 -3c-4 0 -7 3 -7 7c0 2 1 4 3 6l140 153c3 3 6 7 11 7z" />
    <glyph glyph-name="Esmallcircumflex.3" unicode="&#xe07f;" horiz-adv-x="593" 
d="M319 6c56 0 98 12 128 25c42 19 62 42 69 42c4 0 7 -3 7 -8c0 -8 -25 -28 -63 -44c-37 -16 -86 -29 -141 -29c-89 0 -161 34 -208 96c-37 48 -59 113 -59 191c0 74 20 139 63 191c43 50 104 82 190 82c74 0 139 -34 178 -78c40 -45 62 -110 62 -185c0 -6 -1 -11 -10 -11
h-469c1 -68 20 -133 54 -178c45 -60 115 -94 199 -94zM66 291h465c-2 70 -22 132 -59 173s-99 74 -166 74c-83 0 -143 -32 -184 -84c-34 -43 -53 -103 -56 -163zM302 825c5 0 8 -4 11 -7l140 -153c2 -2 3 -4 3 -6c0 -4 -3 -7 -7 -7c-2 0 -4 1 -6 3l-141 152l-141 -152
c-2 -2 -4 -3 -6 -3c-4 0 -7 3 -7 7c0 2 1 4 3 6l140 153c3 3 6 7 11 7z" />
    <glyph glyph-name="Esmalldieresis" unicode="&#xe080;" horiz-adv-x="471" 
d="M98 266v-254h351c3 0 6 -3 6 -6c0 -4 -3 -6 -6 -6h-358c-4 0 -7 3 -7 7v530c0 4 3 7 7 7h358c3 0 6 -3 6 -6c0 -4 -3 -6 -6 -6h-351v-254h312c3 0 6 -3 6 -6c0 -4 -3 -6 -6 -6h-312zM196 722c-7 0 -12 5 -12 12c0 6 5 11 12 11c6 0 11 -5 11 -11c0 -7 -5 -12 -11 -12z
M340 722c-7 0 -12 5 -12 12c0 6 5 11 12 11c6 0 11 -5 11 -11c0 -7 -5 -12 -11 -12z" />
    <glyph glyph-name="Esmalldieresis.1" unicode="&#xe081;" horiz-adv-x="469" 
d="M98 471c35 51 98 75 188 75h161c3 0 6 -3 6 -6c0 -4 -3 -6 -6 -6h-161c-88 0 -145 -23 -177 -69c-22 -33 -33 -80 -33 -140v-44h331c3 0 6 -3 6 -6c0 -4 -3 -6 -6 -6h-331v-47c0 -60 11 -107 33 -140c32 -46 89 -70 177 -70h161c3 0 6 -2 6 -6c0 -3 -3 -6 -6 -6h-161
c-90 0 -153 24 -188 75c-25 36 -36 86 -36 148v100c0 62 11 112 36 148zM226 722c-7 0 -12 5 -12 12c0 6 5 11 12 11c6 0 11 -5 11 -11c0 -7 -5 -12 -11 -12zM370 722c-7 0 -12 5 -12 12c0 6 5 11 12 11c6 0 11 -5 11 -11c0 -7 -5 -12 -11 -12z" />
    <glyph glyph-name="Esmalldieresis.2" unicode="&#xe082;" horiz-adv-x="497" 
d="M94 218v-206h381c3 0 6 -3 6 -6c0 -4 -3 -6 -6 -6h-388c-4 0 -7 3 -7 7v530c0 4 3 7 7 7h388c3 0 6 -3 6 -6c0 -4 -3 -6 -6 -6h-381v-302h342c3 0 6 -3 6 -6c0 -4 -3 -6 -6 -6h-342zM210 722c-7 0 -12 5 -12 12c0 6 5 11 12 11c6 0 11 -5 11 -11c0 -7 -5 -12 -11 -12z
M354 722c-7 0 -12 5 -12 12c0 6 5 11 12 11c6 0 11 -5 11 -11c0 -7 -5 -12 -11 -12z" />
    <glyph glyph-name="Esmalldieresis.3" unicode="&#xe083;" horiz-adv-x="593" 
d="M319 6c56 0 98 12 128 25c42 19 62 42 69 42c4 0 7 -3 7 -8c0 -8 -25 -28 -63 -44c-37 -16 -86 -29 -141 -29c-89 0 -161 34 -208 96c-37 48 -59 113 -59 191c0 74 20 139 63 191c43 50 104 82 190 82c74 0 139 -34 178 -78c40 -45 62 -110 62 -185c0 -6 -1 -11 -10 -11
h-469c1 -68 20 -133 54 -178c45 -60 115 -94 199 -94zM66 291h465c-2 70 -22 132 -59 173s-99 74 -166 74c-83 0 -143 -32 -184 -84c-34 -43 -53 -103 -56 -163zM229 722c-7 0 -12 5 -12 12c0 6 5 11 12 11c6 0 11 -5 11 -11c0 -7 -5 -12 -11 -12zM373 722
c-7 0 -12 5 -12 12c0 6 5 11 12 11c6 0 11 -5 11 -11c0 -7 -5 -12 -11 -12z" />
    <glyph glyph-name="Esmalldotaccent" unicode="&#xe084;" horiz-adv-x="471" 
d="M98 266v-254h351c3 0 6 -3 6 -6c0 -4 -3 -6 -6 -6h-358c-4 0 -7 3 -7 7v530c0 4 3 7 7 7h358c3 0 6 -3 6 -6c0 -4 -3 -6 -6 -6h-351v-254h312c3 0 6 -3 6 -6c0 -4 -3 -6 -6 -6h-312zM277 722c-7 0 -12 5 -12 12c0 6 5 11 12 11c6 0 11 -5 11 -11c0 -7 -5 -12 -11 -12z
" />
    <glyph glyph-name="Esmalldotaccent.1" unicode="&#xe085;" horiz-adv-x="469" 
d="M98 471c35 51 98 75 188 75h161c3 0 6 -3 6 -6c0 -4 -3 -6 -6 -6h-161c-88 0 -145 -23 -177 -69c-22 -33 -33 -80 -33 -140v-44h331c3 0 6 -3 6 -6c0 -4 -3 -6 -6 -6h-331v-47c0 -60 11 -107 33 -140c32 -46 89 -70 177 -70h161c3 0 6 -2 6 -6c0 -3 -3 -6 -6 -6h-161
c-90 0 -153 24 -188 75c-25 36 -36 86 -36 148v100c0 62 11 112 36 148zM293 722c-7 0 -12 5 -12 12c0 6 5 11 12 11c6 0 11 -5 11 -11c0 -7 -5 -12 -11 -12z" />
    <glyph glyph-name="Esmalldotaccent.2" unicode="&#xe086;" horiz-adv-x="497" 
d="M94 218v-206h381c3 0 6 -3 6 -6c0 -4 -3 -6 -6 -6h-388c-4 0 -7 3 -7 7v530c0 4 3 7 7 7h388c3 0 6 -3 6 -6c0 -4 -3 -6 -6 -6h-381v-302h342c3 0 6 -3 6 -6c0 -4 -3 -6 -6 -6h-342zM282 722c-7 0 -12 5 -12 12c0 6 5 11 12 11c6 0 11 -5 11 -11c0 -7 -5 -12 -11 -12z
" />
    <glyph glyph-name="Esmalldotaccent.3" unicode="&#xe087;" horiz-adv-x="593" 
d="M319 6c56 0 98 12 128 25c42 19 62 42 69 42c4 0 7 -3 7 -8c0 -8 -25 -28 -63 -44c-37 -16 -86 -29 -141 -29c-89 0 -161 34 -208 96c-37 48 -59 113 -59 191c0 74 20 139 63 191c43 50 104 82 190 82c74 0 139 -34 178 -78c40 -45 62 -110 62 -185c0 -6 -1 -11 -10 -11
h-469c1 -68 20 -133 54 -178c45 -60 115 -94 199 -94zM66 291h465c-2 70 -22 132 -59 173s-99 74 -166 74c-83 0 -143 -32 -184 -84c-34 -43 -53 -103 -56 -163zM299 722c-7 0 -12 5 -12 12c0 6 5 11 12 11c6 0 11 -5 11 -11c0 -7 -5 -12 -11 -12z" />
    <glyph glyph-name="Esmallgrave" unicode="&#xe088;" horiz-adv-x="471" 
d="M98 266v-254h351c3 0 6 -3 6 -6c0 -4 -3 -6 -6 -6h-358c-4 0 -7 3 -7 7v530c0 4 3 7 7 7h358c3 0 6 -3 6 -6c0 -4 -3 -6 -6 -6h-351v-254h312c3 0 6 -3 6 -6c0 -4 -3 -6 -6 -6h-312zM339 638c0 -3 -3 -5 -6 -5c-4 0 -6 3 -9 8l-101 168c-3 5 -4 7 -4 9c0 4 3 8 8 8
c3 0 7 -3 10 -9l99 -171c2 -4 3 -6 3 -8z" />
    <glyph glyph-name="Esmallgrave.1" unicode="&#xe089;" horiz-adv-x="469" 
d="M98 471c35 51 98 75 188 75h161c3 0 6 -3 6 -6c0 -4 -3 -6 -6 -6h-161c-88 0 -145 -23 -177 -69c-22 -33 -33 -80 -33 -140v-44h331c3 0 6 -3 6 -6c0 -4 -3 -6 -6 -6h-331v-47c0 -60 11 -107 33 -140c32 -46 89 -70 177 -70h161c3 0 6 -2 6 -6c0 -3 -3 -6 -6 -6h-161
c-90 0 -153 24 -188 75c-25 36 -36 86 -36 148v100c0 62 11 112 36 148zM347 638c0 -3 -3 -5 -6 -5c-4 0 -6 3 -9 8l-101 168c-3 5 -4 7 -4 9c0 4 3 8 8 8c3 0 7 -3 10 -9l99 -171c2 -4 3 -6 3 -8z" />
    <glyph glyph-name="Esmallgrave.2" unicode="&#xe08a;" horiz-adv-x="497" 
d="M94 218v-206h381c3 0 6 -3 6 -6c0 -4 -3 -6 -6 -6h-388c-4 0 -7 3 -7 7v530c0 4 3 7 7 7h388c3 0 6 -3 6 -6c0 -4 -3 -6 -6 -6h-381v-302h342c3 0 6 -3 6 -6c0 -4 -3 -6 -6 -6h-342zM349 638c0 -3 -3 -5 -6 -5c-4 0 -6 3 -9 8l-101 168c-3 5 -4 7 -4 9c0 4 3 8 8 8
c3 0 7 -3 10 -9l99 -171c2 -4 3 -6 3 -8z" />
    <glyph glyph-name="Esmallgrave.3" unicode="&#xe08b;" horiz-adv-x="593" 
d="M319 6c56 0 98 12 128 25c42 19 62 42 69 42c4 0 7 -3 7 -8c0 -8 -25 -28 -63 -44c-37 -16 -86 -29 -141 -29c-89 0 -161 34 -208 96c-37 48 -59 113 -59 191c0 74 20 139 63 191c43 50 104 82 190 82c74 0 139 -34 178 -78c40 -45 62 -110 62 -185c0 -6 -1 -11 -10 -11
h-469c1 -68 20 -133 54 -178c45 -60 115 -94 199 -94zM66 291h465c-2 70 -22 132 -59 173s-99 74 -166 74c-83 0 -143 -32 -184 -84c-34 -43 -53 -103 -56 -163zM364 638c0 -3 -3 -5 -6 -5c-4 0 -6 3 -9 8l-101 168c-3 5 -4 7 -4 9c0 4 3 8 8 8c3 0 7 -3 10 -9l99 -171
c2 -4 3 -6 3 -8z" />
    <glyph glyph-name="Esmallmacron" unicode="&#xe08c;" horiz-adv-x="471" 
d="M98 266v-254h351c3 0 6 -3 6 -6c0 -4 -3 -6 -6 -6h-358c-4 0 -7 3 -7 7v530c0 4 3 7 7 7h358c3 0 6 -3 6 -6c0 -4 -3 -6 -6 -6h-351v-254h312c3 0 6 -3 6 -6c0 -4 -3 -6 -6 -6h-312zM391 728c0 -4 -3 -6 -6 -6h-231c-3 0 -6 2 -6 6c0 3 3 6 6 6h231c3 0 6 -3 6 -6z" />
    <glyph glyph-name="Esmallmacron.1" unicode="&#xe08d;" horiz-adv-x="469" 
d="M98 471c35 51 98 75 188 75h161c3 0 6 -3 6 -6c0 -4 -3 -6 -6 -6h-161c-88 0 -145 -23 -177 -69c-22 -33 -33 -80 -33 -140v-44h331c3 0 6 -3 6 -6c0 -4 -3 -6 -6 -6h-331v-47c0 -60 11 -107 33 -140c32 -46 89 -70 177 -70h161c3 0 6 -2 6 -6c0 -3 -3 -6 -6 -6h-161
c-90 0 -153 24 -188 75c-25 36 -36 86 -36 148v100c0 62 11 112 36 148zM405 728c0 -4 -3 -6 -6 -6h-231c-3 0 -6 2 -6 6c0 3 3 6 6 6h231c3 0 6 -3 6 -6z" />
    <glyph glyph-name="Esmallmacron.2" unicode="&#xe08e;" horiz-adv-x="497" 
d="M94 218v-206h381c3 0 6 -3 6 -6c0 -4 -3 -6 -6 -6h-388c-4 0 -7 3 -7 7v530c0 4 3 7 7 7h388c3 0 6 -3 6 -6c0 -4 -3 -6 -6 -6h-381v-302h342c3 0 6 -3 6 -6c0 -4 -3 -6 -6 -6h-342zM403 728c0 -4 -3 -6 -6 -6h-231c-3 0 -6 2 -6 6c0 3 3 6 6 6h231c3 0 6 -3 6 -6z" />
    <glyph glyph-name="Esmallmacron.3" unicode="&#xe08f;" horiz-adv-x="593" 
d="M319 6c56 0 98 12 128 25c42 19 62 42 69 42c4 0 7 -3 7 -8c0 -8 -25 -28 -63 -44c-37 -16 -86 -29 -141 -29c-89 0 -161 34 -208 96c-37 48 -59 113 -59 191c0 74 20 139 63 191c43 50 104 82 190 82c74 0 139 -34 178 -78c40 -45 62 -110 62 -185c0 -6 -1 -11 -10 -11
h-469c1 -68 20 -133 54 -178c45 -60 115 -94 199 -94zM66 291h465c-2 70 -22 132 -59 173s-99 74 -166 74c-83 0 -143 -32 -184 -84c-34 -43 -53 -103 -56 -163zM428 728c0 -4 -3 -6 -6 -6h-231c-3 0 -6 2 -6 6c0 3 3 6 6 6h231c3 0 6 -3 6 -6z" />
    <glyph glyph-name="Esmallogonek" unicode="&#xe090;" horiz-adv-x="471" 
d="M98 266v-254h351c3 0 6 -3 6 -6c0 -4 -3 -6 -6 -6h-106c-19 -39 -33 -78 -33 -110c0 -26 6 -63 87 -63c34 0 45 9 51 9c4 0 7 -3 7 -7s-3 -6 -8 -8c-11 -4 -33 -8 -50 -8c-87 0 -101 40 -101 77c0 26 13 70 33 110h-238c-4 0 -7 3 -7 7v530c0 4 3 7 7 7h358
c3 0 6 -3 6 -6c0 -4 -3 -6 -6 -6h-351v-254h312c3 0 6 -3 6 -6c0 -4 -3 -6 -6 -6h-312z" />
    <glyph glyph-name="Esmallogonek.1" unicode="&#xe091;" horiz-adv-x="469" 
d="M98 471c35 51 98 75 188 75h161c3 0 6 -3 6 -6c0 -4 -3 -6 -6 -6h-161c-88 0 -145 -23 -177 -69c-22 -33 -33 -80 -33 -140v-44h331c3 0 6 -3 6 -6c0 -4 -3 -6 -6 -6h-331v-47c0 -60 11 -107 33 -140c32 -46 89 -70 177 -70h161c3 0 6 -2 6 -6c0 -3 -3 -6 -6 -6h-107
c-19 -39 -33 -78 -33 -110c0 -26 6 -63 87 -63c34 0 45 9 51 9c4 0 7 -3 7 -7s-3 -6 -8 -8c-11 -4 -33 -8 -50 -8c-87 0 -101 40 -101 77c0 26 13 70 33 110h-40c-90 0 -153 24 -188 75c-25 36 -36 86 -36 148v100c0 62 11 112 36 148z" />
    <glyph glyph-name="Esmallogonek.2" unicode="&#xe092;" horiz-adv-x="497" 
d="M94 218v-206h381c3 0 6 -3 6 -6c0 -4 -3 -6 -6 -6h-107c-19 -39 -33 -78 -33 -110c0 -26 6 -63 87 -63c34 0 45 9 51 9c4 0 7 -3 7 -7s-3 -6 -8 -8c-11 -4 -33 -8 -50 -8c-87 0 -101 40 -101 77c0 26 13 70 33 110h-267c-4 0 -7 3 -7 7v530c0 4 3 7 7 7h388
c3 0 6 -3 6 -6c0 -4 -3 -6 -6 -6h-381v-302h342c3 0 6 -3 6 -6c0 -4 -3 -6 -6 -6h-342z" />
    <glyph glyph-name="Esmallogonek.3" unicode="&#xe093;" horiz-adv-x="593" 
d="M319 6c56 0 98 12 128 25c42 19 62 42 69 42c4 0 7 -3 7 -8c0 -8 -25 -28 -63 -44c-14 -6 -30 -12 -48 -17c-18 -39 -34 -82 -34 -114c0 -26 6 -63 87 -63c34 0 45 9 51 9c4 0 7 -3 7 -7s-3 -6 -8 -8c-11 -4 -33 -8 -50 -8c-87 0 -101 40 -101 77c0 25 14 71 33 110
c-24 -5 -51 -8 -78 -8c-89 0 -161 34 -208 96c-37 48 -59 113 -59 191c0 74 20 139 63 191c43 50 104 82 190 82c74 0 139 -34 178 -78c40 -45 62 -110 62 -185c0 -6 -1 -11 -10 -11h-469c1 -68 20 -133 54 -178c45 -60 115 -94 199 -94zM66 291h465c-2 70 -22 132 -59 173
s-99 74 -166 74c-83 0 -143 -32 -184 -84c-34 -43 -53 -103 -56 -163z" />
    <glyph glyph-name="Eth" unicode="&#xd0;" horiz-adv-x="734" 
d="M295 334h-197v-320h198c79 0 153 13 216 47c93 50 152 145 152 279c0 94 -28 166 -75 220c-61 72 -159 107 -277 107h-214v-321h197c3 0 6 -3 6 -6c0 -4 -3 -6 -6 -6zM82 8v326h-99c-3 0 -6 2 -6 6c0 3 3 6 6 6h99v327c0 4 3 8 8 8h227c123 0 223 -37 287 -111
c48 -56 76 -132 76 -230c0 -140 -60 -238 -156 -291c-64 -35 -141 -49 -223 -49h-211c-5 0 -8 4 -8 8z" />
    <glyph glyph-name="Euro" unicode="&#x20ac;" 
d="M1 282h57c-3 19 -4 38 -4 59c0 19 1 39 5 58h-58c-4 0 -7 3 -7 7s3 7 7 7h61c33 154 171 277 332 277c76 0 135 -20 177 -42c22 -12 36 -19 36 -30c0 -4 -3 -7 -7 -7c-13 0 -30 25 -78 43c-31 11 -71 22 -127 22c-153 0 -283 -117 -316 -263h436c4 0 7 -3 7 -7
s-3 -7 -7 -7h-439c-3 -19 -5 -39 -5 -58c0 -21 1 -40 4 -59h380c4 0 7 -3 7 -7s-3 -7 -7 -7h-377c31 -162 166 -264 318 -264c55 0 94 9 125 21c50 20 66 43 79 43c4 0 7 -3 7 -7c0 -11 -14 -18 -36 -30c-42 -22 -100 -41 -176 -41c-159 0 -303 108 -335 278h-59
c-4 0 -7 3 -7 7s3 7 7 7z" />
    <glyph glyph-name="F" unicode="F" horiz-adv-x="542" 
d="M90 681h415c4 0 7 -3 7 -7s-3 -7 -7 -7h-407v-320h354c4 0 7 -3 7 -7s-3 -7 -7 -7h-354v-335c0 -4 -3 -8 -8 -8s-8 4 -8 8v675c0 4 3 8 8 8z" />
    <glyph glyph-name="F.1" unicode="&#xe094;" horiz-adv-x="537" 
d="M507 674c0 -4 -3 -7 -7 -7h-146c-108 0 -181 -29 -222 -91c-28 -42 -42 -100 -42 -173v-53h357c4 0 7 -3 7 -7s-3 -7 -7 -7h-357v-338c0 -4 -3 -8 -8 -8s-8 4 -8 8v405c0 77 15 138 46 183c44 64 121 95 234 95h146c4 0 7 -3 7 -7z" />
    <glyph glyph-name="F.2" unicode="&#xe095;" horiz-adv-x="582" 
d="M90 681h455c4 0 7 -3 7 -7s-3 -7 -7 -7h-447v-380h394c4 0 7 -3 7 -7s-3 -7 -7 -7h-394v-275c0 -4 -3 -8 -8 -8s-8 4 -8 8v675c0 4 3 8 8 8z" />
    <glyph glyph-name="Fsmall" unicode="&#xf766;" horiz-adv-x="443" 
d="M87 544h333c3 0 6 -3 6 -6c0 -4 -3 -6 -6 -6h-326v-254h283c3 0 6 -3 6 -6c0 -4 -3 -6 -6 -6h-283v-267c0 -4 -3 -7 -7 -7s-7 3 -7 7v538c0 4 3 7 7 7z" />
    <glyph glyph-name="Fsmall.1" unicode="&#xe096;" horiz-adv-x="435" 
d="M62 -1v324c0 62 11 112 36 148c35 51 98 75 188 75h137c3 0 6 -3 6 -6c0 -4 -3 -6 -6 -6h-137c-88 0 -145 -23 -177 -69c-22 -33 -33 -80 -33 -140v-44h307c3 0 6 -3 6 -6c0 -4 -3 -6 -6 -6h-307v-270c0 -4 -3 -7 -7 -7s-7 3 -7 7z" />
    <glyph glyph-name="Fsmall.2" unicode="&#xe097;" horiz-adv-x="473" 
d="M87 544h363c3 0 6 -3 6 -6c0 -4 -3 -6 -6 -6h-356v-302h313c3 0 6 -3 6 -6c0 -4 -3 -6 -6 -6h-313v-219c0 -4 -3 -7 -7 -7s-7 3 -7 7v538c0 4 3 7 7 7z" />
    <glyph glyph-name="G" unicode="G" horiz-adv-x="734" 
d="M370 308h276c5 0 8 -4 8 -8v-302c0 -5 -3 -8 -7 -8s-7 3 -7 8v78c-53 -47 -137 -86 -237 -86c-186 0 -349 127 -349 351c0 186 156 349 345 349c78 0 135 -19 180 -42c23 -12 37 -19 37 -30c0 -4 -3 -7 -7 -7c-18 0 -28 22 -92 46c-32 11 -69 19 -116 19
c-181 0 -331 -156 -331 -335c0 -211 153 -337 331 -337c96 0 185 37 239 90v200h-270c-4 0 -7 3 -7 7s3 7 7 7z" />
    <glyph glyph-name="G.2" unicode="&#xe098;" horiz-adv-x="792" 
d="M422 287h312c5 0 8 -3 8 -8c0 -100 -45 -177 -114 -226c-58 -41 -133 -63 -213 -63c-194 0 -361 127 -361 351c0 198 159 349 357 349c81 0 140 -19 186 -42c24 -12 39 -19 39 -30c0 -4 -3 -7 -8 -7c-18 0 -29 22 -95 46c-33 11 -71 19 -120 19
c-188 0 -343 -142 -343 -335c0 -211 160 -337 345 -337c80 0 154 22 210 64c60 45 99 114 102 205h-305c-4 0 -7 3 -7 7s3 7 7 7z" />
    <glyph glyph-name="Gbreve" unicode="&#x11e;" horiz-adv-x="734" 
d="M370 308h276c5 0 8 -4 8 -8v-302c0 -5 -3 -8 -7 -8s-7 3 -7 8v78c-53 -47 -137 -86 -237 -86c-186 0 -349 127 -349 351c0 186 156 349 345 349c78 0 135 -19 180 -42c23 -12 37 -19 37 -30c0 -4 -3 -7 -7 -7c-18 0 -28 22 -92 46c-32 11 -69 19 -116 19
c-181 0 -331 -156 -331 -335c0 -211 153 -337 331 -337c96 0 185 37 239 90v200h-270c-4 0 -7 3 -7 7s3 7 7 7zM368 838c43 0 71 23 89 47c17 23 23 44 31 44c4 0 8 -3 8 -7c0 -6 -10 -22 -20 -36c-25 -36 -59 -62 -108 -62s-83 26 -108 62c-10 14 -20 30 -20 36
c0 4 4 7 8 7c8 0 14 -21 31 -44c18 -24 46 -47 89 -47z" />
    <glyph glyph-name="Gbreve.2" unicode="&#xe099;" horiz-adv-x="792" 
d="M422 287h312c5 0 8 -3 8 -8c0 -100 -45 -177 -114 -226c-58 -41 -133 -63 -213 -63c-194 0 -361 127 -361 351c0 198 159 349 357 349c81 0 140 -19 186 -42c24 -12 39 -19 39 -30c0 -4 -3 -7 -8 -7c-18 0 -29 22 -95 46c-33 11 -71 19 -120 19
c-188 0 -343 -142 -343 -335c0 -211 160 -337 345 -337c80 0 154 22 210 64c60 45 99 114 102 205h-305c-4 0 -7 3 -7 7s3 7 7 7zM406 838c43 0 71 23 89 47c17 23 23 44 31 44c4 0 8 -3 8 -7c0 -6 -10 -22 -20 -36c-25 -36 -59 -62 -108 -62s-83 26 -108 62
c-10 14 -20 30 -20 36c0 4 4 7 8 7c8 0 14 -21 31 -44c18 -24 46 -47 89 -47z" />
    <glyph glyph-name="Gcommaaccent" unicode="&#x122;" horiz-adv-x="734" 
d="M370 308h276c5 0 8 -4 8 -8v-302c0 -5 -3 -8 -7 -8s-7 3 -7 8v78c-53 -47 -137 -86 -237 -86c-186 0 -349 127 -349 351c0 186 156 349 345 349c78 0 135 -19 180 -42c23 -12 37 -19 37 -30c0 -4 -3 -7 -7 -7c-18 0 -28 22 -92 46c-32 11 -69 19 -116 19
c-181 0 -331 -156 -331 -335c0 -211 153 -337 331 -337c96 0 185 37 239 90v200h-270c-4 0 -7 3 -7 7s3 7 7 7zM386 -124c0 7 9 11 9 25c0 10 -10 13 -10 23c0 7 5 13 13 13c11 0 16 -9 16 -23c0 -22 -14 -42 -24 -42c-2 0 -4 1 -4 4z" />
    <glyph glyph-name="Gcommaaccent.2" unicode="&#xe09a;" horiz-adv-x="792" 
d="M422 287h312c5 0 8 -3 8 -8c0 -100 -45 -177 -114 -226c-58 -41 -133 -63 -213 -63c-194 0 -361 127 -361 351c0 198 159 349 357 349c81 0 140 -19 186 -42c24 -12 39 -19 39 -30c0 -4 -3 -7 -8 -7c-18 0 -29 22 -95 46c-33 11 -71 19 -120 19
c-188 0 -343 -142 -343 -335c0 -211 160 -337 345 -337c80 0 154 22 210 64c60 45 99 114 102 205h-305c-4 0 -7 3 -7 7s3 7 7 7zM406 -124c0 7 9 11 9 25c0 10 -10 13 -10 23c0 7 5 13 13 13c11 0 16 -9 16 -23c0 -22 -14 -42 -24 -42c-2 0 -4 1 -4 4z" />
    <glyph glyph-name="Gsmall" unicode="&#xf767;" horiz-adv-x="613" 
d="M330 552c53 0 103 -11 138 -29c22 -11 37 -21 37 -29c0 -4 -3 -7 -7 -7c-11 0 -25 16 -56 30c-25 11 -62 21 -112 21c-82 0 -157 -40 -206 -102c-36 -46 -58 -103 -58 -163c0 -77 26 -142 72 -189c49 -50 122 -78 194 -78c93 0 155 36 188 67v163h-216c-3 0 -6 2 -6 6
c0 3 3 6 6 6h223c4 0 7 -3 7 -7v-242c0 -4 -3 -7 -7 -7s-7 3 -7 7v55c-37 -30 -103 -62 -188 -62c-75 0 -150 28 -202 80c-49 49 -78 119 -78 201c0 65 24 126 63 174c51 63 129 105 215 105z" />
    <glyph glyph-name="Gsmall.2" unicode="&#xe09b;" horiz-adv-x="649" 
d="M338 552c62 0 112 -16 148 -33c26 -12 33 -16 33 -24c0 -4 -3 -7 -8 -7c-12 0 -33 19 -73 34c-25 9 -57 17 -99 17c-149 0 -273 -113 -273 -266c0 -167 128 -268 275 -268c67 0 126 20 170 54c49 38 79 93 79 159h-216c-3 0 -6 2 -6 6c0 3 3 6 6 6h223c4 0 7 -3 7 -7
c0 -77 -33 -136 -84 -175c-49 -37 -112 -56 -179 -56c-156 0 -289 102 -289 281c0 159 126 279 286 279z" />
    <glyph glyph-name="Gsmallbreve" unicode="&#xe09c;" horiz-adv-x="619" 
d="M336 552c53 0 103 -11 138 -29c22 -11 37 -21 37 -29c0 -4 -3 -7 -7 -7c-11 0 -25 16 -56 30c-25 11 -62 21 -112 21c-82 0 -157 -40 -206 -102c-36 -46 -58 -103 -58 -163c0 -77 26 -142 72 -189c49 -50 122 -78 194 -78c93 0 155 36 188 67v163h-216c-3 0 -6 2 -6 6
c0 3 3 6 6 6h223c4 0 7 -3 7 -7v-242c0 -4 -3 -7 -7 -7s-7 3 -7 7v55c-37 -30 -103 -62 -188 -62c-75 0 -150 28 -202 80c-49 49 -78 119 -78 201c0 65 24 126 63 174c51 63 129 105 215 105zM334 675c43 0 71 23 89 47c17 23 23 44 31 44c4 0 8 -3 8 -7
c0 -6 -10 -22 -20 -36c-25 -36 -59 -62 -108 -62s-83 26 -108 62c-10 14 -20 30 -20 36c0 4 4 7 8 7c8 0 14 -21 31 -44c18 -24 46 -47 89 -47z" />
    <glyph glyph-name="Gsmallbreve.2" unicode="&#xe09d;" horiz-adv-x="649" 
d="M338 552c62 0 112 -16 148 -33c26 -12 33 -16 33 -24c0 -4 -3 -7 -8 -7c-12 0 -33 19 -73 34c-25 9 -57 17 -99 17c-149 0 -273 -113 -273 -266c0 -167 128 -268 275 -268c67 0 126 20 170 54c49 38 79 93 79 159h-216c-3 0 -6 2 -6 6c0 3 3 6 6 6h223c4 0 7 -3 7 -7
c0 -77 -33 -136 -84 -175c-49 -37 -112 -56 -179 -56c-156 0 -289 102 -289 281c0 159 126 279 286 279zM344 675c43 0 71 23 89 47c17 23 23 44 31 44c4 0 8 -3 8 -7c0 -6 -10 -22 -20 -36c-25 -36 -59 -62 -108 -62s-83 26 -108 62c-10 14 -20 30 -20 36c0 4 4 7 8 7
c8 0 14 -21 31 -44c18 -24 46 -47 89 -47z" />
    <glyph glyph-name="Gsmallcommaaccent" unicode="&#xe09e;" horiz-adv-x="619" 
d="M336 552c53 0 103 -11 138 -29c22 -11 37 -21 37 -29c0 -4 -3 -7 -7 -7c-11 0 -25 16 -56 30c-25 11 -62 21 -112 21c-82 0 -157 -40 -206 -102c-36 -46 -58 -103 -58 -163c0 -77 26 -142 72 -189c49 -50 122 -78 194 -78c93 0 155 36 188 67v163h-216c-3 0 -6 2 -6 6
c0 3 3 6 6 6h223c4 0 7 -3 7 -7v-242c0 -4 -3 -7 -7 -7s-7 3 -7 7v55c-37 -30 -103 -62 -188 -62c-75 0 -150 28 -202 80c-49 49 -78 119 -78 201c0 65 24 126 63 174c51 63 129 105 215 105zM327 -124c0 7 9 11 9 25c0 10 -10 13 -10 23c0 7 5 13 13 13c11 0 16 -9 16 -23
c0 -22 -14 -42 -24 -42c-2 0 -4 1 -4 4z" />
    <glyph glyph-name="Gsmallcommaaccent.2" unicode="&#xe09f;" horiz-adv-x="649" 
d="M338 552c62 0 112 -16 148 -33c26 -12 33 -16 33 -24c0 -4 -3 -7 -8 -7c-12 0 -33 19 -73 34c-25 9 -57 17 -99 17c-149 0 -273 -113 -273 -266c0 -167 128 -268 275 -268c67 0 126 20 170 54c49 38 79 93 79 159h-216c-3 0 -6 2 -6 6c0 3 3 6 6 6h223c4 0 7 -3 7 -7
c0 -77 -33 -136 -84 -175c-49 -37 -112 -56 -179 -56c-156 0 -289 102 -289 281c0 159 126 279 286 279zM333 -124c0 7 9 11 9 25c0 10 -10 13 -10 23c0 7 5 13 13 13c11 0 16 -9 16 -23c0 -22 -14 -42 -24 -42c-2 0 -4 1 -4 4z" />
    <glyph glyph-name="H" unicode="H" horiz-adv-x="704" 
d="M82 -2v684c0 4 3 8 8 8s8 -4 8 -8v-334h508v334c0 4 3 8 8 8s8 -4 8 -8v-684c0 -4 -3 -8 -8 -8s-8 4 -8 8v336h-508v-336c0 -4 -3 -8 -8 -8s-8 4 -8 8z" />
    <glyph glyph-name="H.2" unicode="&#xe0a0;" horiz-adv-x="744" 
d="M82 -2v684c0 4 3 8 8 8s8 -4 8 -8v-395h548v395c0 4 3 8 8 8s8 -4 8 -8v-684c0 -4 -3 -8 -8 -8s-8 4 -8 8v275h-548v-275c0 -4 -3 -8 -8 -8s-8 4 -8 8z" />
    <glyph glyph-name="Hsmall" unicode="&#xf768;" horiz-adv-x="594" 
d="M80 -1v546c0 4 3 7 7 7s7 -3 7 -7v-267h406v267c0 4 3 7 7 7s7 -3 7 -7v-546c0 -4 -3 -7 -7 -7s-7 3 -7 7v267h-406v-267c0 -4 -3 -7 -7 -7s-7 3 -7 7z" />
    <glyph glyph-name="Hsmall.2" unicode="&#xe0a1;" horiz-adv-x="624" 
d="M80 -1v546c0 4 3 7 7 7s7 -3 7 -7v-315h436v315c0 4 3 7 7 7s7 -3 7 -7v-546c0 -4 -3 -7 -7 -7s-7 3 -7 7v219h-436v-219c0 -4 -3 -7 -7 -7s-7 3 -7 7z" />
    <glyph glyph-name="I" unicode="I" horiz-adv-x="180" 
d="M82 -2v684c0 4 3 8 8 8s8 -4 8 -8v-684c0 -4 -3 -8 -8 -8s-8 4 -8 8z" />
    <glyph glyph-name="Iacute" unicode="&#xcd;" horiz-adv-x="180" 
d="M82 -2v684c0 4 3 8 8 8s8 -4 8 -8v-684c0 -4 -3 -8 -8 -8s-8 4 -8 8zM33 782c0 2 1 4 3 8l99 171c3 6 7 9 10 9c5 0 8 -4 8 -8c0 -2 -1 -4 -4 -9l-101 -168c-3 -5 -5 -8 -9 -8c-3 0 -6 2 -6 5z" />
    <glyph glyph-name="Icircumflex" unicode="&#xce;" horiz-adv-x="180" 
d="M82 -2v684c0 4 3 8 8 8s8 -4 8 -8v-684c0 -4 -3 -8 -8 -8s-8 4 -8 8zM93 969c5 0 8 -4 11 -7l140 -153c2 -2 3 -4 3 -6c0 -4 -3 -7 -7 -7c-2 0 -4 1 -6 3l-141 152l-141 -152c-2 -2 -4 -3 -6 -3c-4 0 -7 3 -7 7c0 2 1 4 3 6l140 153c3 3 6 7 11 7z" />
    <glyph glyph-name="Idieresis" unicode="&#xcf;" horiz-adv-x="180" 
d="M82 -2v684c0 4 3 8 8 8s8 -4 8 -8v-684c0 -4 -3 -8 -8 -8s-8 4 -8 8zM21 866c-7 0 -12 5 -12 12c0 6 5 11 12 11c6 0 11 -5 11 -11c0 -7 -5 -12 -11 -12zM165 866c-7 0 -12 5 -12 12c0 6 5 11 12 11c6 0 11 -5 11 -11c0 -7 -5 -12 -11 -12z" />
    <glyph glyph-name="Idotaccent" unicode="&#x130;" horiz-adv-x="180" 
d="M82 -2v684c0 4 3 8 8 8s8 -4 8 -8v-684c0 -4 -3 -8 -8 -8s-8 4 -8 8zM91 871c-7 0 -12 5 -12 12c0 6 5 11 12 11c6 0 11 -5 11 -11c0 -7 -5 -12 -11 -12z" />
    <glyph glyph-name="Igrave" unicode="&#xcc;" horiz-adv-x="180" 
d="M82 -2v684c0 4 3 8 8 8s8 -4 8 -8v-684c0 -4 -3 -8 -8 -8s-8 4 -8 8zM153 782c0 -3 -3 -5 -6 -5c-4 0 -6 3 -9 8l-101 168c-3 5 -4 7 -4 9c0 4 3 8 8 8c3 0 7 -3 10 -9l99 -171c2 -4 3 -6 3 -8z" />
    <glyph glyph-name="Imacron" unicode="&#x12a;" horiz-adv-x="180" 
d="M212 891c0 -4 -3 -6 -6 -6h-231c-3 0 -6 2 -6 6c0 3 3 6 6 6h231c3 0 6 -3 6 -6zM82 -2v684c0 4 3 8 8 8s8 -4 8 -8v-684c0 -4 -3 -8 -8 -8s-8 4 -8 8z" />
    <glyph glyph-name="Iogonek" unicode="&#x12e;" horiz-adv-x="180" 
d="M46 -110c0 31 16 74 36 114v678c0 4 3 8 8 8s8 -4 8 -8v-684c0 -4 -3 -8 -8 -8c-1 0 -2 0 -3 1c-18 -39 -27 -69 -27 -101c0 -26 6 -63 87 -63c34 0 45 9 51 9c4 0 7 -3 7 -7s-3 -6 -8 -8c-11 -4 -33 -8 -50 -8c-87 0 -101 40 -101 77z" />
    <glyph glyph-name="Ismall" unicode="&#xf769;" horiz-adv-x="174" 
d="M80 -1v546c0 4 3 7 7 7s7 -3 7 -7v-546c0 -4 -3 -7 -7 -7s-7 3 -7 7z" />
    <glyph glyph-name="Ismallacute" unicode="&#xe0a2;" horiz-adv-x="182" 
d="M84 -1v546c0 4 3 7 7 7s7 -3 7 -7v-546c0 -4 -3 -7 -7 -7s-7 3 -7 7zM31 638c0 2 1 4 3 8l99 171c3 6 7 9 10 9c5 0 8 -4 8 -8c0 -2 -1 -4 -4 -9l-101 -168c-3 -5 -5 -8 -9 -8c-3 0 -6 2 -6 5z" />
    <glyph glyph-name="Ismallcircumflex" unicode="&#xe0a3;" horiz-adv-x="182" 
d="M84 -1v546c0 4 3 7 7 7s7 -3 7 -7v-546c0 -4 -3 -7 -7 -7s-7 3 -7 7zM91 825c5 0 8 -4 11 -7l140 -153c2 -2 3 -4 3 -6c0 -4 -3 -7 -7 -7c-2 0 -4 1 -6 3l-141 152l-141 -152c-2 -2 -4 -3 -6 -3c-4 0 -7 3 -7 7c0 2 1 4 3 6l140 153c3 3 6 7 11 7z" />
    <glyph glyph-name="Ismalldieresis" unicode="&#xe0a4;" horiz-adv-x="182" 
d="M84 -1v546c0 4 3 7 7 7s7 -3 7 -7v-546c0 -4 -3 -7 -7 -7s-7 3 -7 7zM20 722c-7 0 -12 5 -12 12c0 6 5 11 12 11c6 0 11 -5 11 -11c0 -7 -5 -12 -11 -12zM164 722c-7 0 -12 5 -12 12c0 6 5 11 12 11c6 0 11 -5 11 -11c0 -7 -5 -12 -11 -12z" />
    <glyph glyph-name="Ismallgrave" unicode="&#xe0a5;" horiz-adv-x="182" 
d="M84 -1v546c0 4 3 7 7 7s7 -3 7 -7v-546c0 -4 -3 -7 -7 -7s-7 3 -7 7zM151 638c0 -3 -3 -5 -6 -5c-4 0 -6 3 -9 8l-101 168c-3 5 -4 7 -4 9c0 4 3 8 8 8c3 0 7 -3 10 -9l99 -171c2 -4 3 -6 3 -8z" />
    <glyph glyph-name="Ismallmacron" unicode="&#xe0a6;" horiz-adv-x="182" 
d="M84 -1v546c0 4 3 7 7 7s7 -3 7 -7v-546c0 -4 -3 -7 -7 -7s-7 3 -7 7zM213 728c0 -4 -3 -6 -6 -6h-231c-3 0 -6 2 -6 6c0 3 3 6 6 6h231c3 0 6 -3 6 -6z" />
    <glyph glyph-name="Ismallogonek" unicode="&#xe0a7;" horiz-adv-x="182" 
d="M84 2v543c0 4 3 7 7 7s7 -3 7 -7v-546c0 -3 -2 -5 -5 -6c-17 -37 -29 -73 -29 -103c0 -26 6 -63 87 -63c34 0 45 9 51 9c4 0 7 -3 7 -7s-3 -6 -8 -8c-11 -4 -33 -8 -50 -8c-87 0 -101 40 -101 77c0 26 14 71 34 112z" />
    <glyph glyph-name="J" unicode="J" horiz-adv-x="493" 
d="M415 682v-438c0 -83 -26 -142 -65 -183c-48 -49 -115 -71 -178 -71c-57 0 -113 24 -155 59c-4 4 -5 6 -5 9c0 4 4 7 8 7c3 0 5 -1 8 -4c41 -36 91 -57 144 -57c61 0 124 21 169 70c35 38 58 94 58 169v439c0 4 3 8 8 8s8 -4 8 -8z" />
    <glyph glyph-name="Jsmall" unicode="&#xf76a;" horiz-adv-x="422" 
d="M343 545v-348c0 -60 -16 -105 -41 -137c-38 -48 -97 -68 -153 -68c-41 0 -78 12 -100 24c-18 10 -29 18 -29 24c0 4 3 7 7 7c6 0 16 -9 34 -19c19 -11 48 -22 88 -22c50 0 103 17 138 58c26 30 42 73 42 133v348c0 4 3 7 7 7s7 -3 7 -7z" />
    <glyph glyph-name="K" unicode="K" horiz-adv-x="567" 
d="M507 674l-306 -294l335 -377c2 -2 3 -5 3 -7c0 -3 -2 -6 -6 -6c-6 0 -9 4 -15 10l-328 369l-92 -88v-283c0 -4 -3 -8 -8 -8s-8 4 -8 8v684c0 4 3 8 8 8s8 -4 8 -8v-384l398 387c3 3 5 5 10 5c3 0 6 -3 6 -7c0 -2 -1 -5 -5 -9z" />
    <glyph glyph-name="K.2" unicode="&#xe0a8;" horiz-adv-x="641" 
d="M82 -2v684c0 4 3 8 8 8s8 -4 8 -8v-446l450 449c3 3 5 5 10 5c3 0 6 -3 6 -7c0 -2 -1 -5 -5 -9l-331 -329c102 -5 188 -34 249 -87c67 -58 104 -145 104 -260c0 -4 -3 -8 -8 -8s-8 3 -8 8c0 109 -36 193 -101 250c-60 53 -146 82 -249 85l-117 -117v-218
c0 -4 -3 -8 -8 -8s-8 4 -8 8z" />
    <glyph glyph-name="Kcommaaccent" unicode="&#x136;" horiz-adv-x="567" 
d="M507 674l-306 -294l335 -377c2 -2 3 -5 3 -7c0 -3 -2 -6 -6 -6c-6 0 -9 4 -15 10l-328 369l-92 -88v-283c0 -4 -3 -8 -8 -8s-8 4 -8 8v684c0 4 3 8 8 8s8 -4 8 -8v-384l398 387c3 3 5 5 10 5c3 0 6 -3 6 -7c0 -2 -1 -5 -5 -9zM277 -124c0 7 9 11 9 25c0 10 -10 13 -10 23
c0 7 5 13 13 13c11 0 16 -9 16 -23c0 -22 -14 -42 -24 -42c-2 0 -4 1 -4 4z" />
    <glyph glyph-name="Kcommaaccent.2" unicode="&#xe0a9;" horiz-adv-x="641" 
d="M82 -2v684c0 4 3 8 8 8s8 -4 8 -8v-446l450 449c3 3 5 5 10 5c3 0 6 -3 6 -7c0 -2 -1 -5 -5 -9l-331 -329c102 -5 188 -34 249 -87c67 -58 104 -145 104 -260c0 -4 -3 -8 -8 -8s-8 3 -8 8c0 109 -36 193 -101 250c-60 53 -146 82 -249 85l-117 -117v-218
c0 -4 -3 -8 -8 -8s-8 4 -8 8zM320 -124c0 7 9 11 9 25c0 10 -10 13 -10 23c0 7 5 13 13 13c11 0 16 -9 16 -23c0 -22 -14 -42 -24 -42c-2 0 -4 1 -4 4z" />
    <glyph glyph-name="Ksmall" unicode="&#xf76b;" horiz-adv-x="487" 
d="M417 535l-238 -231l267 -294c4 -4 6 -8 6 -11s-2 -7 -6 -7c-3 0 -5 2 -7 4l-270 298l-75 -72v-223c0 -4 -3 -7 -7 -7s-7 3 -7 7v546c0 4 3 7 7 7s7 -3 7 -7v-307l316 310c2 2 4 4 7 4c4 0 6 -4 6 -7s-2 -6 -6 -10z" />
    <glyph glyph-name="Ksmall.2" unicode="&#xe0aa;" horiz-adv-x="527" 
d="M80 -1v546c0 4 3 7 7 7s7 -3 7 -7v-355l358 358c2 2 4 4 7 4c4 0 6 -4 6 -7s-2 -6 -6 -10l-260 -258c79 -4 145 -27 193 -69c54 -47 85 -117 85 -209c0 -4 -3 -7 -7 -7s-7 3 -7 7c0 87 -30 154 -82 199c-48 42 -115 65 -194 67l-93 -93v-173c0 -4 -3 -7 -7 -7s-7 3 -7 7z
" />
    <glyph glyph-name="Ksmallcommaaccent" unicode="&#xe0ab;" horiz-adv-x="491" 
d="M421 535l-238 -231l267 -294c4 -4 6 -8 6 -11s-2 -7 -6 -7c-3 0 -5 2 -7 4l-270 298l-75 -72v-223c0 -4 -3 -7 -7 -7s-7 3 -7 7v546c0 4 3 7 7 7s7 -3 7 -7v-307l316 310c2 2 4 4 7 4c4 0 6 -4 6 -7s-2 -6 -6 -10zM242 -124c0 7 9 11 9 25c0 10 -10 13 -10 23
c0 7 5 13 13 13c11 0 16 -9 16 -23c0 -22 -14 -42 -24 -42c-2 0 -4 1 -4 4z" />
    <glyph glyph-name="Ksmallcommaaccent.2" unicode="&#xe0ac;" horiz-adv-x="527" 
d="M80 -1v546c0 4 3 7 7 7s7 -3 7 -7v-355l358 358c2 2 4 4 7 4c4 0 6 -4 6 -7s-2 -6 -6 -10l-260 -258c79 -4 145 -27 193 -69c54 -47 85 -117 85 -209c0 -4 -3 -7 -7 -7s-7 3 -7 7c0 87 -30 154 -82 199c-48 42 -115 65 -194 67l-93 -93v-173c0 -4 -3 -7 -7 -7s-7 3 -7 7z
M258 -124c0 7 9 11 9 25c0 10 -10 13 -10 23c0 7 5 13 13 13c11 0 16 -9 16 -23c0 -22 -14 -42 -24 -42c-2 0 -4 1 -4 4z" />
    <glyph glyph-name="L" unicode="L" horiz-adv-x="524" 
d="M82 8v674c0 4 3 8 8 8s8 -4 8 -8v-668h400c4 0 7 -3 7 -7s-3 -7 -7 -7h-408c-5 0 -8 4 -8 8z" />
    <glyph glyph-name="L.1" unicode="&#xe0ad;" horiz-adv-x="516" 
d="M74 278v404c0 4 3 8 8 8s8 -4 8 -8v-404c0 -85 17 -150 56 -194c43 -48 112 -70 208 -70h136c4 0 7 -3 7 -7s-3 -7 -7 -7h-136c-103 0 -176 24 -222 77c-40 46 -58 113 -58 201z" />
    <glyph glyph-name="Lacute" unicode="&#x139;" horiz-adv-x="524" 
d="M82 782c0 2 1 4 3 8l99 171c3 6 7 9 10 9c5 0 8 -4 8 -8c0 -2 -1 -4 -4 -9l-101 -168c-3 -5 -5 -8 -9 -8c-3 0 -6 2 -6 5zM82 8v674c0 4 3 8 8 8s8 -4 8 -8v-668h400c4 0 7 -3 7 -7s-3 -7 -7 -7h-408c-5 0 -8 4 -8 8z" />
    <glyph glyph-name="Lacute.1" unicode="&#xe0ae;" horiz-adv-x="516" 
d="M74 278v404c0 4 3 8 8 8s8 -4 8 -8v-404c0 -85 17 -150 56 -194c43 -48 112 -70 208 -70h136c4 0 7 -3 7 -7s-3 -7 -7 -7h-136c-103 0 -176 24 -222 77c-40 46 -58 113 -58 201zM74 782c0 2 1 4 3 8l99 171c3 6 7 9 10 9c5 0 8 -4 8 -8c0 -2 -1 -4 -4 -9l-101 -168
c-3 -5 -5 -8 -9 -8c-3 0 -6 2 -6 5z" />
    <glyph glyph-name="Lcaron" unicode="&#x13d;" horiz-adv-x="524" 
d="M82 8v674c0 4 3 8 8 8s8 -4 8 -8v-668h400c4 0 7 -3 7 -7s-3 -7 -7 -7h-408c-5 0 -8 4 -8 8zM273 630c0 7 9 11 9 25c0 10 -10 13 -10 23c0 7 5 13 13 13c11 0 16 -9 16 -23c0 -22 -14 -42 -24 -42c-2 0 -4 1 -4 4z" />
    <glyph glyph-name="Lcaron.1" unicode="&#xe0af;" horiz-adv-x="516" 
d="M74 278v404c0 4 3 8 8 8s8 -4 8 -8v-404c0 -85 17 -150 56 -194c43 -48 112 -70 208 -70h136c4 0 7 -3 7 -7s-3 -7 -7 -7h-136c-103 0 -176 24 -222 77c-40 46 -58 113 -58 201zM265 630c0 7 9 11 9 25c0 10 -10 13 -10 23c0 7 5 13 13 13c11 0 16 -9 16 -23
c0 -22 -14 -42 -24 -42c-2 0 -4 1 -4 4z" />
    <glyph glyph-name="Lcommaaccent" unicode="&#x13b;" horiz-adv-x="524" 
d="M82 8v674c0 4 3 8 8 8s8 -4 8 -8v-668h400c4 0 7 -3 7 -7s-3 -7 -7 -7h-408c-5 0 -8 4 -8 8zM282 -124c0 7 9 11 9 25c0 10 -10 13 -10 23c0 7 5 13 13 13c11 0 16 -9 16 -23c0 -22 -14 -42 -24 -42c-2 0 -4 1 -4 4z" />
    <glyph glyph-name="Lcommaaccent.1" unicode="&#xe0b0;" horiz-adv-x="516" 
d="M74 278v404c0 4 3 8 8 8s8 -4 8 -8v-404c0 -85 17 -150 56 -194c43 -48 112 -70 208 -70h136c4 0 7 -3 7 -7s-3 -7 -7 -7h-136c-103 0 -176 24 -222 77c-40 46 -58 113 -58 201zM274 -124c0 7 9 11 9 25c0 10 -10 13 -10 23c0 7 5 13 13 13c11 0 16 -9 16 -23
c0 -22 -14 -42 -24 -42c-2 0 -4 1 -4 4z" />
    <glyph glyph-name="Lslash" unicode="&#x141;" horiz-adv-x="531" 
d="M84 8v284l-97 -62c-5 -3 -7 -4 -9 -4c-3 0 -5 3 -5 6c0 2 1 4 6 7l105 67v376c0 4 3 8 8 8s8 -4 8 -8v-366l124 79c4 3 7 4 9 4c3 0 5 -3 5 -6c0 -2 -1 -4 -6 -7l-132 -84v-288h400c4 0 7 -3 7 -7s-3 -7 -7 -7h-408c-5 0 -8 4 -8 8z" />
    <glyph glyph-name="Lsmall" unicode="&#xf76c;" horiz-adv-x="439" 
d="M80 7v538c0 4 3 7 7 7s7 -3 7 -7v-533h319c3 0 6 -3 6 -6c0 -4 -3 -6 -6 -6h-326c-4 0 -7 3 -7 7z" />
    <glyph glyph-name="Lsmall.1" unicode="&#xe0b1;" horiz-adv-x="420" 
d="M76 545v-323c0 -60 11 -107 33 -140c32 -46 89 -70 177 -70h108c3 0 6 -2 6 -6c0 -3 -3 -6 -6 -6h-108c-90 0 -153 24 -188 75c-25 36 -36 86 -36 148v322c0 4 3 7 7 7s7 -3 7 -7z" />
    <glyph glyph-name="Lsmallacute" unicode="&#xe0b2;" horiz-adv-x="443" 
d="M84 7v538c0 4 3 7 7 7s7 -3 7 -7v-533h319c3 0 6 -3 6 -6c0 -4 -3 -6 -6 -6h-326c-4 0 -7 3 -7 7zM84 638c0 2 1 4 3 8l99 171c3 6 7 9 10 9c5 0 8 -4 8 -8c0 -2 -1 -4 -4 -9l-101 -168c-3 -5 -5 -8 -9 -8c-3 0 -6 2 -6 5z" />
    <glyph glyph-name="Lsmallacute.1" unicode="&#xe0b3;" horiz-adv-x="420" 
d="M76 545v-323c0 -60 11 -107 33 -140c32 -46 89 -70 177 -70h108c3 0 6 -2 6 -6c0 -3 -3 -6 -6 -6h-108c-90 0 -153 24 -188 75c-25 36 -36 86 -36 148v322c0 4 3 7 7 7s7 -3 7 -7zM62 638c0 2 1 4 3 8l99 171c3 6 7 9 10 9c5 0 8 -4 8 -8c0 -2 -1 -4 -4 -9l-101 -168
c-3 -5 -5 -8 -9 -8c-3 0 -6 2 -6 5z" />
    <glyph glyph-name="Lsmallcaron" unicode="&#xe0b4;" horiz-adv-x="443" 
d="M84 7v538c0 4 3 7 7 7s7 -3 7 -7v-533h319c3 0 6 -3 6 -6c0 -4 -3 -6 -6 -6h-326c-4 0 -7 3 -7 7zM251 492c0 7 9 11 9 25c0 10 -10 13 -10 23c0 7 5 13 13 13c11 0 16 -9 16 -23c0 -22 -14 -42 -24 -42c-2 0 -4 1 -4 4z" />
    <glyph glyph-name="Lsmallcaron.1" unicode="&#xe0b5;" horiz-adv-x="420" 
d="M76 545v-323c0 -60 11 -107 33 -140c32 -46 89 -70 177 -70h108c3 0 6 -2 6 -6c0 -3 -3 -6 -6 -6h-108c-90 0 -153 24 -188 75c-25 36 -36 86 -36 148v322c0 4 3 7 7 7s7 -3 7 -7zM229 492c0 7 9 11 9 25c0 10 -10 13 -10 23c0 7 5 13 13 13c11 0 16 -9 16 -23
c0 -22 -14 -42 -24 -42c-2 0 -4 1 -4 4z" />
    <glyph glyph-name="Lsmallcommaaccent" unicode="&#xe0b6;" horiz-adv-x="443" 
d="M84 7v538c0 4 3 7 7 7s7 -3 7 -7v-533h319c3 0 6 -3 6 -6c0 -4 -3 -6 -6 -6h-326c-4 0 -7 3 -7 7zM238 -124c0 7 9 11 9 25c0 10 -10 13 -10 23c0 7 5 13 13 13c11 0 16 -9 16 -23c0 -22 -14 -42 -24 -42c-2 0 -4 1 -4 4z" />
    <glyph glyph-name="Lsmallcommaaccent.1" unicode="&#xe0b7;" horiz-adv-x="420" 
d="M76 545v-323c0 -60 11 -107 33 -140c32 -46 89 -70 177 -70h108c3 0 6 -2 6 -6c0 -3 -3 -6 -6 -6h-108c-90 0 -153 24 -188 75c-25 36 -36 86 -36 148v322c0 4 3 7 7 7s7 -3 7 -7zM227 -124c0 7 9 11 9 25c0 10 -10 13 -10 23c0 7 5 13 13 13c11 0 16 -9 16 -23
c0 -22 -14 -42 -24 -42c-2 0 -4 1 -4 4z" />
    <glyph glyph-name="M" unicode="M" horiz-adv-x="825" 
d="M82 681c0 4 3 9 8 9s7 -3 9 -6l313 -502l314 502c2 3 4 6 9 6s8 -5 8 -9v-683c0 -4 -3 -8 -8 -8s-8 4 -8 8v656l-307 -488c-2 -3 -4 -5 -8 -5s-6 2 -8 5l-306 488v-656c0 -4 -3 -8 -8 -8s-8 4 -8 8v683z" />
    <glyph glyph-name="M.2" unicode="&#xe0b8;" horiz-adv-x="959" 
d="M82 681c0 4 3 9 8 9s7 -3 9 -6l380 -673l381 673c2 3 4 6 9 6s8 -5 8 -9v-683c0 -4 -3 -8 -8 -8s-8 4 -8 8v656l-374 -659c-2 -3 -4 -5 -8 -5s-6 2 -8 5l-373 659v-656c0 -4 -3 -8 -8 -8s-8 4 -8 8v683z" />
    <glyph glyph-name="M.3" unicode="&#xe0b9;" horiz-adv-x="1183" 
d="M1087 -2v385c0 166 -62 292 -243 292c-69 0 -131 -21 -176 -69c-40 -42 -68 -112 -68 -215v-393c0 -4 -3 -8 -8 -8s-8 4 -8 8v392c0 91 -26 187 -90 238c-37 30 -88 47 -153 47c-69 0 -131 -21 -176 -69c-42 -44 -67 -114 -67 -225v-383c0 -4 -3 -8 -8 -8s-8 4 -8 8v684
c0 4 3 8 8 8s8 -4 8 -8v-171c12 44 31 78 56 104c48 52 115 75 187 75s127 -19 167 -53c45 -38 72 -93 84 -159c11 60 33 104 64 137c49 52 116 75 188 75c190 0 259 -134 259 -308v-384c0 -4 -3 -8 -8 -8s-8 4 -8 8z" />
    <glyph glyph-name="Msmall" unicode="&#xf76d;" horiz-adv-x="682" 
d="M80 -1v546c0 4 3 7 7 7c3 0 5 -2 7 -5l247 -402l247 402c2 3 4 5 7 5c4 0 7 -3 7 -7v-546c0 -4 -3 -7 -7 -7s-7 3 -7 7v522l-239 -389c-2 -3 -4 -6 -8 -6s-6 3 -8 6l-239 389v-522c0 -4 -3 -7 -7 -7s-7 3 -7 7z" />
    <glyph glyph-name="Msmall.2" unicode="&#xe0ba;" horiz-adv-x="825" 
d="M80 -1v546c0 4 3 7 7 7c3 0 5 -2 7 -5l319 -535l318 535c2 3 4 5 7 5c4 0 7 -3 7 -7v-546c0 -4 -3 -7 -7 -7s-7 3 -7 7v522l-310 -522c-2 -3 -4 -6 -8 -6s-6 3 -8 6l-311 522v-522c0 -4 -3 -7 -7 -7s-7 3 -7 7z" />
    <glyph glyph-name="Msmall.3" unicode="&#xe0bb;" horiz-adv-x="951" 
d="M864 -1v337c0 75 -19 125 -53 157s-82 45 -133 45c-54 0 -112 -16 -149 -66c-29 -39 -42 -90 -42 -157v-316c0 -4 -3 -7 -7 -7s-7 3 -7 7v337c0 75 -21 125 -54 157c-33 33 -82 45 -134 45c-53 0 -112 -17 -148 -66c-24 -32 -43 -83 -43 -144v-329c0 -4 -3 -7 -7 -7
s-7 3 -7 7v546c0 4 3 7 7 7s7 -3 7 -7v-124c15 47 41 77 67 95c39 28 83 36 124 36c58 0 111 -15 148 -51c24 -23 40 -55 49 -97c9 38 28 80 71 112c37 28 84 36 125 36c55 0 107 -15 145 -51c34 -34 55 -86 55 -165v-337c0 -4 -3 -7 -7 -7s-7 3 -7 7z" />
    <glyph glyph-name="N" unicode="N" horiz-adv-x="737" 
d="M655 682v-684c0 -5 -3 -8 -8 -8c-4 0 -6 2 -11 8l-538 661v-661c0 -4 -3 -8 -8 -8s-8 4 -8 8v684c0 4 3 8 8 8c4 0 5 -2 10 -8l539 -662v662c0 4 3 8 8 8s8 -4 8 -8z" />
    <glyph glyph-name="N.2" unicode="&#xe0bc;" horiz-adv-x="767" 
d="M669 -2c0 94 -219 272 -291 335c-71 62 -139 121 -202 188c-34 36 -62 71 -78 103v-626c0 -4 -3 -8 -8 -8s-8 4 -8 8v684c0 4 3 8 8 8s8 -4 8 -8c0 -81 145 -209 291 -335c70 -60 139 -121 202 -188c33 -36 61 -71 78 -103v626c0 4 3 8 8 8s8 -4 8 -8v-684
c0 -4 -3 -8 -8 -8s-8 4 -8 8z" />
    <glyph glyph-name="N.3" unicode="&#xe0bd;" horiz-adv-x="722" 
d="M626 -2v398c0 105 -23 178 -76 225c-40 36 -98 55 -177 55c-97 0 -177 -37 -228 -119c-33 -54 -47 -119 -47 -180v-379c0 -4 -3 -8 -8 -8s-8 4 -8 8v684c0 4 3 8 8 8s8 -4 8 -8v-191c17 52 48 105 93 141c43 35 106 58 182 58c84 0 143 -19 187 -57
c56 -48 82 -130 82 -239v-396c0 -4 -3 -8 -8 -8s-8 4 -8 8z" />
    <glyph glyph-name="Nacute" unicode="&#x143;" horiz-adv-x="737" 
d="M311 782c0 2 1 4 3 8l99 171c3 6 7 9 10 9c5 0 8 -4 8 -8c0 -2 -1 -4 -4 -9l-101 -168c-3 -5 -5 -8 -9 -8c-3 0 -6 2 -6 5zM655 682v-684c0 -5 -3 -8 -8 -8c-4 0 -6 2 -11 8l-538 661v-661c0 -4 -3 -8 -8 -8s-8 4 -8 8v684c0 4 3 8 8 8c4 0 5 -2 10 -8l539 -662v662
c0 4 3 8 8 8s8 -4 8 -8z" />
    <glyph glyph-name="Nacute.2" unicode="&#xe0be;" horiz-adv-x="767" 
d="M669 -2c0 94 -219 272 -291 335c-71 62 -139 121 -202 188c-34 36 -62 71 -78 103v-626c0 -4 -3 -8 -8 -8s-8 4 -8 8v684c0 4 3 8 8 8s8 -4 8 -8c0 -81 145 -209 291 -335c70 -60 139 -121 202 -188c33 -36 61 -71 78 -103v626c0 4 3 8 8 8s8 -4 8 -8v-684
c0 -4 -3 -8 -8 -8s-8 4 -8 8zM337 782c0 2 1 4 3 8l99 171c3 6 7 9 10 9c5 0 8 -4 8 -8c0 -2 -1 -4 -4 -9l-101 -168c-3 -5 -5 -8 -9 -8c-3 0 -6 2 -6 5z" />
    <glyph glyph-name="Nacute.3" unicode="&#xe0bf;" horiz-adv-x="722" 
d="M626 -2v398c0 105 -23 178 -76 225c-40 36 -98 55 -177 55c-97 0 -177 -37 -228 -119c-31 -50 -45 -109 -47 -166v-393c0 -4 -3 -8 -8 -8s-8 4 -8 8v684c0 4 3 8 8 8s8 -4 8 -8v-191c17 52 48 105 93 141c43 35 106 58 182 58c84 0 143 -19 187 -57
c56 -48 82 -130 82 -239v-396c0 -4 -3 -8 -8 -8s-8 4 -8 8zM301 782c0 2 1 4 3 8l99 171c3 6 7 9 10 9c5 0 8 -4 8 -8c0 -2 -1 -4 -4 -9l-101 -168c-3 -5 -5 -8 -9 -8c-3 0 -6 2 -6 5z" />
    <glyph glyph-name="Ncaron" unicode="&#x147;" horiz-adv-x="737" 
d="M217 962c0 4 3 7 7 7c2 0 4 -1 6 -3l141 -152l141 152c2 2 4 3 6 3c4 0 7 -3 7 -7c0 -2 -1 -4 -3 -6l-140 -153c-3 -3 -6 -7 -11 -7s-8 4 -11 7l-140 153c-2 2 -3 4 -3 6zM655 682v-684c0 -5 -3 -8 -8 -8c-4 0 -6 2 -11 8l-538 661v-661c0 -4 -3 -8 -8 -8s-8 4 -8 8v684
c0 4 3 8 8 8c4 0 5 -2 10 -8l539 -662v662c0 4 3 8 8 8s8 -4 8 -8z" />
    <glyph glyph-name="Ncaron.2" unicode="&#xe0c0;" horiz-adv-x="767" 
d="M669 -2c0 94 -219 272 -291 335c-71 62 -139 121 -202 188c-34 36 -62 71 -78 103v-626c0 -4 -3 -8 -8 -8s-8 4 -8 8v684c0 4 3 8 8 8s8 -4 8 -8c0 -81 145 -209 291 -335c70 -60 139 -121 202 -188c33 -36 61 -71 78 -103v626c0 4 3 8 8 8s8 -4 8 -8v-684
c0 -4 -3 -8 -8 -8s-8 4 -8 8zM245 962c0 4 3 7 7 7c2 0 4 -1 6 -3l141 -152l141 152c2 2 4 3 6 3c4 0 7 -3 7 -7c0 -2 -1 -4 -3 -6l-140 -153c-3 -3 -6 -7 -11 -7s-8 4 -11 7l-140 153c-2 2 -3 4 -3 6z" />
    <glyph glyph-name="Ncaron.3" unicode="&#xe0c1;" horiz-adv-x="722" 
d="M626 -2v398c0 105 -23 178 -76 225c-40 36 -98 55 -177 55c-97 0 -177 -37 -228 -119c-31 -50 -45 -109 -47 -166v-393c0 -4 -3 -8 -8 -8s-8 4 -8 8v684c0 4 3 8 8 8s8 -4 8 -8v-191c17 52 48 105 93 141c43 35 106 58 182 58c84 0 143 -19 187 -57
c56 -48 82 -130 82 -239v-396c0 -4 -3 -8 -8 -8s-8 4 -8 8zM230 962c0 4 3 7 7 7c2 0 4 -1 6 -3l141 -152l141 152c2 2 4 3 6 3c4 0 7 -3 7 -7c0 -2 -1 -4 -3 -6l-140 -153c-3 -3 -6 -7 -11 -7s-8 4 -11 7l-140 153c-2 2 -3 4 -3 6z" />
    <glyph glyph-name="Ncommaaccent" unicode="&#x145;" horiz-adv-x="737" 
d="M655 682v-684c0 -5 -3 -8 -8 -8c-4 0 -6 2 -11 8l-538 661v-661c0 -4 -3 -8 -8 -8s-8 4 -8 8v684c0 4 3 8 8 8c4 0 5 -2 10 -8l539 -662v662c0 4 3 8 8 8s8 -4 8 -8zM358 -124c0 7 9 11 9 25c0 10 -10 13 -10 23c0 7 5 13 13 13c11 0 16 -9 16 -23c0 -22 -14 -42 -24 -42
c-2 0 -4 1 -4 4z" />
    <glyph glyph-name="Ncommaaccent.2" unicode="&#xe0c2;" horiz-adv-x="767" 
d="M669 -2c0 94 -219 272 -291 335c-71 62 -139 121 -202 188c-34 36 -62 71 -78 103v-626c0 -4 -3 -8 -8 -8s-8 4 -8 8v684c0 4 3 8 8 8s8 -4 8 -8c0 -81 145 -209 291 -335c70 -60 139 -121 202 -188c33 -36 61 -71 78 -103v626c0 4 3 8 8 8s8 -4 8 -8v-684
c0 -4 -3 -8 -8 -8s-8 4 -8 8zM373 -124c0 7 9 11 9 25c0 10 -10 13 -10 23c0 7 5 13 13 13c11 0 16 -9 16 -23c0 -22 -14 -42 -24 -42c-2 0 -4 1 -4 4z" />
    <glyph glyph-name="Ncommaaccent.3" unicode="&#xe0c3;" horiz-adv-x="722" 
d="M626 -2v398c0 105 -23 178 -76 225c-40 36 -98 55 -177 55c-97 0 -177 -37 -228 -119c-31 -50 -45 -109 -47 -166v-393c0 -4 -3 -8 -8 -8s-8 4 -8 8v684c0 4 3 8 8 8s8 -4 8 -8v-191c17 52 48 105 93 141c43 35 106 58 182 58c84 0 143 -19 187 -57
c56 -48 82 -130 82 -239v-396c0 -4 -3 -8 -8 -8s-8 4 -8 8zM362 -124c0 7 9 11 9 25c0 10 -10 13 -10 23c0 7 5 13 13 13c11 0 16 -9 16 -23c0 -22 -14 -42 -24 -42c-2 0 -4 1 -4 4z" />
    <glyph glyph-name="Nsmall" unicode="&#xf76e;" horiz-adv-x="624" 
d="M544 545v-546c0 -4 -3 -7 -7 -7s-9 7 -10 8l-433 525v-526c0 -4 -3 -7 -7 -7s-7 3 -7 7v546c0 4 3 7 7 7s9 -7 10 -8l433 -526v527c0 4 3 7 7 7s7 -3 7 -7z" />
    <glyph glyph-name="Nsmall.2" unicode="&#xe0c4;" horiz-adv-x="645" 
d="M565 545v-546c0 -4 -3 -7 -7 -7s-7 3 -7 7c0 63 -119 171 -233 268c-78 67 -179 150 -224 232v-500c0 -4 -3 -7 -7 -7s-7 3 -7 7v546c0 4 3 7 7 7s7 -3 7 -7c0 -63 119 -171 233 -268c78 -67 179 -150 224 -232v500c0 4 3 7 7 7s7 -3 7 -7z" />
    <glyph glyph-name="Nsmall.3" unicode="&#xe0c5;" horiz-adv-x="605" 
d="M518 -1v316c0 83 -18 141 -60 179c-33 29 -79 44 -143 44c-78 0 -142 -30 -183 -95c-27 -44 -38 -96 -38 -144v-300c0 -4 -3 -7 -7 -7s-7 3 -7 7v546c0 4 3 7 7 7s7 -3 7 -7v-149c14 41 39 80 75 109c35 28 85 47 146 47c66 0 116 -16 151 -46c45 -39 66 -104 66 -191
v-316c0 -4 -3 -7 -7 -7s-7 3 -7 7z" />
    <glyph glyph-name="Nsmallacute" unicode="&#xe0c6;" horiz-adv-x="632" 
d="M548 545v-546c0 -4 -3 -7 -7 -7s-9 7 -10 8l-433 525v-526c0 -4 -3 -7 -7 -7s-7 3 -7 7v546c0 4 3 7 7 7s9 -7 10 -8l433 -526v527c0 4 3 7 7 7s7 -3 7 -7zM266 638c0 2 1 4 3 8l99 171c3 6 7 9 10 9c5 0 8 -4 8 -8c0 -2 -1 -4 -4 -9l-101 -168c-3 -5 -5 -8 -9 -8
c-3 0 -6 2 -6 5z" />
    <glyph glyph-name="Nsmallacute.2" unicode="&#xe0c7;" horiz-adv-x="645" 
d="M565 545v-546c0 -4 -3 -7 -7 -7s-7 3 -7 7c0 63 -119 171 -233 268c-78 67 -179 150 -224 232v-500c0 -4 -3 -7 -7 -7s-7 3 -7 7v546c0 4 3 7 7 7s7 -3 7 -7c0 -63 119 -171 233 -268c78 -67 179 -150 224 -232v500c0 4 3 7 7 7s7 -3 7 -7zM276 638c0 2 1 4 3 8l99 171
c3 6 7 9 10 9c5 0 8 -4 8 -8c0 -2 -1 -4 -4 -9l-101 -168c-3 -5 -5 -8 -9 -8c-3 0 -6 2 -6 5z" />
    <glyph glyph-name="Nsmallacute.3" unicode="&#xe0c8;" horiz-adv-x="605" 
d="M518 -1v316c0 83 -18 141 -60 179c-33 29 -79 44 -143 44c-78 0 -142 -30 -183 -95c-25 -41 -37 -88 -38 -133v-311c0 -4 -3 -7 -7 -7s-7 3 -7 7v546c0 4 3 7 7 7s7 -3 7 -7v-149c14 41 39 80 75 109c35 28 85 47 146 47c66 0 116 -16 151 -46c45 -39 66 -104 66 -191
v-316c0 -4 -3 -7 -7 -7s-7 3 -7 7zM255 638c0 2 1 4 3 8l99 171c3 6 7 9 10 9c5 0 8 -4 8 -8c0 -2 -1 -4 -4 -9l-101 -168c-3 -5 -5 -8 -9 -8c-3 0 -6 2 -6 5z" />
    <glyph glyph-name="Nsmallcaron" unicode="&#xe0c9;" horiz-adv-x="632" 
d="M548 545v-546c0 -4 -3 -7 -7 -7s-9 7 -10 8l-433 525v-526c0 -4 -3 -7 -7 -7s-7 3 -7 7v546c0 4 3 7 7 7s9 -7 10 -8l433 -526v527c0 4 3 7 7 7s7 -3 7 -7zM162 818c0 4 3 7 7 7c2 0 4 -1 6 -3l141 -152l141 152c2 2 4 3 6 3c4 0 7 -3 7 -7c0 -2 -1 -4 -3 -6l-140 -153
c-3 -3 -6 -7 -11 -7s-8 4 -11 7l-140 153c-2 2 -3 4 -3 6z" />
    <glyph glyph-name="Nsmallcaron.2" unicode="&#xe0ca;" horiz-adv-x="645" 
d="M565 545v-546c0 -4 -3 -7 -7 -7s-7 3 -7 7c0 63 -119 171 -233 268c-78 67 -179 150 -224 232v-500c0 -4 -3 -7 -7 -7s-7 3 -7 7v546c0 4 3 7 7 7s7 -3 7 -7c0 -63 119 -171 233 -268c78 -67 179 -150 224 -232v500c0 4 3 7 7 7s7 -3 7 -7zM168 818c0 4 3 7 7 7
c2 0 4 -1 6 -3l141 -152l141 152c2 2 4 3 6 3c4 0 7 -3 7 -7c0 -2 -1 -4 -3 -6l-140 -153c-3 -3 -6 -7 -11 -7s-8 4 -11 7l-140 153c-2 2 -3 4 -3 6z" />
    <glyph glyph-name="Nsmallcaron.3" unicode="&#xe0cb;" horiz-adv-x="605" 
d="M518 -1v316c0 83 -18 141 -60 179c-33 29 -79 44 -143 44c-78 0 -142 -30 -183 -95c-25 -41 -37 -88 -38 -133v-311c0 -4 -3 -7 -7 -7s-7 3 -7 7v546c0 4 3 7 7 7s7 -3 7 -7v-149c14 41 39 80 75 109c35 28 85 47 146 47c66 0 116 -16 151 -46c45 -39 66 -104 66 -191
v-316c0 -4 -3 -7 -7 -7s-7 3 -7 7zM161 818c0 4 3 7 7 7c2 0 4 -1 6 -3l141 -152l141 152c2 2 4 3 6 3c4 0 7 -3 7 -7c0 -2 -1 -4 -3 -6l-140 -153c-3 -3 -6 -7 -11 -7s-8 4 -11 7l-140 153c-2 2 -3 4 -3 6z" />
    <glyph glyph-name="Nsmallcommaaccent" unicode="&#xe0cc;" horiz-adv-x="632" 
d="M548 545v-546c0 -4 -3 -7 -7 -7s-9 7 -10 8l-433 525v-526c0 -4 -3 -7 -7 -7s-7 3 -7 7v546c0 4 3 7 7 7s9 -7 10 -8l433 -526v527c0 4 3 7 7 7s7 -3 7 -7zM303 -124c0 7 9 11 9 25c0 10 -10 13 -10 23c0 7 5 13 13 13c11 0 16 -9 16 -23c0 -22 -14 -42 -24 -42
c-2 0 -4 1 -4 4z" />
    <glyph glyph-name="Nsmallcommaaccent.2" unicode="&#xe0cd;" horiz-adv-x="645" 
d="M565 545v-546c0 -4 -3 -7 -7 -7s-7 3 -7 7c0 63 -119 171 -233 268c-78 67 -179 150 -224 232v-500c0 -4 -3 -7 -7 -7s-7 3 -7 7v546c0 4 3 7 7 7s7 -3 7 -7c0 -63 119 -171 233 -268c78 -67 179 -150 224 -232v500c0 4 3 7 7 7s7 -3 7 -7zM317 -124c0 7 9 11 9 25
c0 10 -10 13 -10 23c0 7 5 13 13 13c11 0 16 -9 16 -23c0 -22 -14 -42 -24 -42c-2 0 -4 1 -4 4z" />
    <glyph glyph-name="Nsmallcommaaccent.3" unicode="&#xe0ce;" horiz-adv-x="605" 
d="M518 -1v316c0 83 -18 141 -60 179c-33 29 -79 44 -143 44c-78 0 -142 -30 -183 -95c-25 -41 -37 -88 -38 -133v-311c0 -4 -3 -7 -7 -7s-7 3 -7 7v546c0 4 3 7 7 7s7 -3 7 -7v-149c14 41 39 80 75 109c35 28 85 47 146 47c66 0 116 -16 151 -46c45 -39 66 -104 66 -191
v-316c0 -4 -3 -7 -7 -7s-7 3 -7 7zM300 -124c0 7 9 11 9 25c0 10 -10 13 -10 23c0 7 5 13 13 13c11 0 16 -9 16 -23c0 -22 -14 -42 -24 -42c-2 0 -4 1 -4 4z" />
    <glyph glyph-name="Nsmalltilde" unicode="&#xe0cf;" horiz-adv-x="632" 
d="M548 545v-546c0 -4 -3 -7 -7 -7s-9 7 -10 8l-433 525v-526c0 -4 -3 -7 -7 -7s-7 3 -7 7v546c0 4 3 7 7 7s9 -7 10 -8l433 -526v527c0 4 3 7 7 7s7 -3 7 -7zM463 740c0 -8 -11 -19 -19 -26c-14 -12 -35 -20 -60 -20c-27 0 -48 14 -70 27c-20 12 -40 24 -66 24
c-21 0 -34 -6 -44 -13c-15 -11 -20 -26 -27 -26c-4 0 -8 3 -8 8c0 8 11 19 19 26c14 12 35 20 60 20c29 0 52 -13 72 -25c21 -13 40 -26 64 -26c20 0 33 5 43 12c16 11 21 27 28 27c4 0 8 -3 8 -8z" />
    <glyph glyph-name="Nsmalltilde.2" unicode="&#xe0d0;" horiz-adv-x="645" 
d="M565 545v-546c0 -4 -3 -7 -7 -7s-7 3 -7 7c0 63 -119 171 -233 268c-78 67 -179 150 -224 232v-500c0 -4 -3 -7 -7 -7s-7 3 -7 7v546c0 4 3 7 7 7s7 -3 7 -7c0 -63 119 -171 233 -268c78 -67 179 -150 224 -232v500c0 4 3 7 7 7s7 -3 7 -7zM469 740c0 -8 -11 -19 -19 -26
c-14 -12 -35 -20 -60 -20c-27 0 -48 14 -70 27c-20 12 -40 24 -66 24c-21 0 -34 -6 -44 -13c-15 -11 -20 -26 -27 -26c-4 0 -8 3 -8 8c0 8 11 19 19 26c14 12 35 20 60 20c29 0 52 -13 72 -25c21 -13 40 -26 64 -26c20 0 33 5 43 12c16 11 21 27 28 27c4 0 8 -3 8 -8z" />
    <glyph glyph-name="Nsmalltilde.3" unicode="&#xe0d1;" horiz-adv-x="605" 
d="M518 -1v316c0 83 -18 141 -60 179c-33 29 -79 44 -143 44c-78 0 -142 -30 -183 -95c-27 -44 -38 -96 -38 -144v-300c0 -4 -3 -7 -7 -7s-7 3 -7 7v546c0 4 3 7 7 7s7 -3 7 -7v-149c14 41 39 80 75 109c35 28 85 47 146 47c66 0 116 -16 151 -46c45 -39 66 -104 66 -191
v-316c0 -4 -3 -7 -7 -7s-7 3 -7 7zM463 740c0 -8 -11 -19 -19 -26c-14 -12 -35 -20 -60 -20c-27 0 -48 14 -70 27c-20 12 -40 24 -66 24c-21 0 -34 -6 -44 -13c-15 -11 -20 -26 -27 -26c-4 0 -8 3 -8 8c0 8 11 19 19 26c14 12 35 20 60 20c29 0 52 -13 72 -25
c21 -13 40 -26 64 -26c20 0 33 5 43 12c16 11 21 27 28 27c4 0 8 -3 8 -8z" />
    <glyph glyph-name="Ntilde" unicode="&#xd1;" horiz-adv-x="737" 
d="M655 682v-684c0 -5 -3 -8 -8 -8c-4 0 -6 2 -11 8l-538 661v-661c0 -4 -3 -8 -8 -8s-8 4 -8 8v684c0 4 3 8 8 8c4 0 5 -2 10 -8l539 -662v662c0 4 3 8 8 8s8 -4 8 -8zM518 924c0 -8 -11 -19 -19 -26c-14 -12 -35 -20 -60 -20c-27 0 -48 14 -70 27c-20 12 -40 24 -66 24
c-21 0 -34 -6 -44 -13c-15 -11 -20 -26 -27 -26c-4 0 -8 3 -8 8c0 8 11 19 19 26c14 12 35 20 60 20c29 0 52 -13 72 -25c21 -13 40 -26 64 -26c20 0 33 5 43 12c16 11 21 27 28 27c4 0 8 -3 8 -8z" />
    <glyph glyph-name="Ntilde.2" unicode="&#xe0d2;" horiz-adv-x="767" 
d="M669 -2c0 94 -219 272 -291 335c-71 62 -139 121 -202 188c-34 36 -62 71 -78 103v-626c0 -4 -3 -8 -8 -8s-8 4 -8 8v684c0 4 3 8 8 8s8 -4 8 -8c0 -81 145 -209 291 -335c70 -60 139 -121 202 -188c33 -36 61 -71 78 -103v626c0 4 3 8 8 8s8 -4 8 -8v-684
c0 -4 -3 -8 -8 -8s-8 4 -8 8zM530 924c0 -8 -11 -19 -19 -26c-14 -12 -35 -20 -60 -20c-27 0 -48 14 -70 27c-20 12 -40 24 -66 24c-21 0 -34 -6 -44 -13c-15 -11 -20 -26 -27 -26c-4 0 -8 3 -8 8c0 8 11 19 19 26c14 12 35 20 60 20c29 0 52 -13 72 -25
c21 -13 40 -26 64 -26c20 0 33 5 43 12c16 11 21 27 28 27c4 0 8 -3 8 -8z" />
    <glyph glyph-name="Ntilde.3" unicode="&#xe0d3;" horiz-adv-x="722" 
d="M626 -2v398c0 105 -23 178 -76 225c-40 36 -98 55 -177 55c-97 0 -177 -37 -228 -119c-33 -54 -47 -119 -47 -180v-379c0 -4 -3 -8 -8 -8s-8 4 -8 8v684c0 4 3 8 8 8s8 -4 8 -8v-191c17 52 48 105 93 141c43 35 106 58 182 58c84 0 143 -19 187 -57
c56 -48 82 -130 82 -239v-396c0 -4 -3 -8 -8 -8s-8 4 -8 8zM527 924c0 -8 -11 -19 -19 -26c-14 -12 -35 -20 -60 -20c-27 0 -48 14 -70 27c-20 12 -40 24 -66 24c-21 0 -34 -6 -44 -13c-15 -11 -20 -26 -27 -26c-4 0 -8 3 -8 8c0 8 11 19 19 26c14 12 35 20 60 20
c29 0 52 -13 72 -25c21 -13 40 -26 64 -26c20 0 33 5 43 12c16 11 21 27 28 27c4 0 8 -3 8 -8z" />
    <glyph glyph-name="O" unicode="O" horiz-adv-x="803" 
d="M749 339c0 -187 -155 -349 -348 -349s-347 161 -347 349s154 351 347 351s348 -163 348 -351zM733 339c0 180 -147 336 -332 336c-184 0 -331 -156 -331 -336c0 -181 147 -335 331 -335c185 0 332 155 332 335z" />
    <glyph glyph-name="OE" unicode="&#x152;" horiz-adv-x="1229" 
d="M750 333v-319h439c4 0 7 -3 7 -7s-3 -7 -7 -7h-447c-5 0 -8 4 -8 8v231c-44 -141 -176 -249 -332 -249c-193 0 -348 161 -348 349s155 352 348 352c156 0 288 -109 332 -252v234c0 4 3 8 8 8h447c4 0 7 -3 7 -7s-3 -7 -7 -7h-439v-320h388c4 0 7 -3 7 -7s-3 -7 -7 -7
h-388zM733 339c0 180 -147 337 -332 337c-184 0 -331 -157 -331 -337c0 -181 147 -335 331 -335c185 0 332 155 332 335z" />
    <glyph glyph-name="OE.1" unicode="&#xe0d4;" horiz-adv-x="1217" 
d="M1184 674c0 -4 -3 -7 -7 -7h-163c-108 0 -181 -29 -222 -91c-28 -42 -42 -100 -42 -173v-53h377c4 0 7 -3 7 -7s-3 -7 -7 -7h-377v-58c0 -85 18 -149 57 -193c43 -48 111 -71 207 -71h163c4 0 7 -3 7 -7s-3 -7 -7 -7h-163c-103 0 -175 25 -221 78c-35 39 -54 94 -58 165
c-42 -143 -175 -253 -333 -253c-193 0 -348 161 -348 349s155 352 348 352c157 0 290 -111 333 -255c4 62 18 111 45 150c44 64 121 95 234 95h163c4 0 7 -3 7 -7zM733 339c0 180 -147 337 -332 337c-184 0 -331 -157 -331 -337c0 -181 147 -335 331 -335
c185 0 332 155 332 335z" />
    <glyph glyph-name="OE.2" unicode="&#xe0d5;" horiz-adv-x="1269" 
d="M750 273v-259h479c4 0 7 -3 7 -7s-3 -7 -7 -7h-487c-5 0 -8 4 -8 8v231c-44 -141 -176 -249 -332 -249c-193 0 -348 161 -348 349s155 352 348 352c156 0 288 -109 332 -252v234c0 4 3 8 8 8h487c4 0 7 -3 7 -7s-3 -7 -7 -7h-479v-380h428c4 0 7 -3 7 -7s-3 -7 -7 -7
h-428zM733 339c0 180 -147 337 -332 337c-184 0 -331 -157 -331 -337c0 -181 147 -335 331 -335c185 0 332 155 332 335z" />
    <glyph glyph-name="OE.3" unicode="&#xe0d6;" horiz-adv-x="1396" 
d="M1335 350h-586c0 -93 25 -170 68 -228c57 -75 144 -118 248 -118c70 0 123 15 161 31c55 23 78 52 87 52c4 0 7 -3 7 -7c0 -10 -29 -33 -76 -53c-46 -20 -109 -37 -177 -37c-110 0 -200 43 -260 120c-32 41 -55 93 -67 154c-35 -153 -173 -274 -338 -274
c-193 0 -348 161 -348 349s155 352 348 352c163 0 299 -119 337 -270c10 62 34 118 73 165c53 63 131 104 237 104c94 0 171 -41 221 -98c51 -58 78 -137 78 -230c0 -7 -2 -12 -13 -12zM733 339c0 180 -147 337 -332 337c-184 0 -331 -157 -331 -337
c0 -181 147 -335 331 -335c185 0 332 155 332 335zM749 364h584c-2 95 -30 166 -75 218c-46 54 -119 94 -209 94c-103 0 -179 -41 -230 -106c-42 -51 -67 -128 -70 -206z" />
    <glyph glyph-name="OEsmall" unicode="&#xf6fa;" horiz-adv-x="989" 
d="M616 266v-254h351c3 0 6 -3 6 -6c0 -4 -3 -6 -6 -6h-358c-4 0 -7 3 -7 7v175c-12 -36 -31 -69 -55 -97c-51 -58 -125 -93 -210 -93s-159 35 -210 93c-43 49 -69 115 -69 187s26 138 69 187c51 58 125 93 210 93s159 -35 210 -93c24 -28 43 -61 55 -98v176c0 4 3 7 7 7
h358c3 0 6 -3 6 -6c0 -4 -3 -6 -6 -6h-351v-254h312c3 0 6 -3 6 -6c0 -4 -3 -6 -6 -6h-312zM72 272c0 -69 24 -130 65 -177c48 -55 119 -89 200 -89s152 34 200 89c39 44 65 108 65 177s-24 130 -65 177c-48 55 -119 89 -200 89s-152 -34 -200 -89
c-41 -47 -65 -108 -65 -177z" />
    <glyph glyph-name="OEsmall.2" unicode="&#xe0d7;" horiz-adv-x="1019" 
d="M616 218v-206h381c3 0 6 -3 6 -6c0 -4 -3 -6 -6 -6h-388c-4 0 -7 3 -7 7v175c-12 -36 -31 -69 -55 -97c-51 -58 -125 -93 -210 -93s-159 35 -210 93c-43 49 -69 115 -69 187s26 138 69 187c51 58 125 93 210 93s159 -35 210 -93c24 -28 43 -61 55 -98v176c0 4 3 7 7 7
h388c3 0 6 -3 6 -6c0 -4 -3 -6 -6 -6h-381v-302h342c3 0 6 -3 6 -6c0 -4 -3 -6 -6 -6h-342zM72 272c0 -69 24 -130 65 -177c48 -55 119 -89 200 -89s152 34 200 89c39 44 65 108 65 177s-24 130 -65 177c-48 55 -119 89 -200 89s-152 -34 -200 -89
c-41 -47 -65 -108 -65 -177z" />
    <glyph glyph-name="OEsmall.3" unicode="&#xe0d8;" horiz-adv-x="1137" 
d="M863 6c56 0 98 12 128 25c42 19 62 42 69 42c4 0 7 -3 7 -8c0 -8 -25 -28 -63 -44c-37 -16 -86 -29 -141 -29c-89 0 -161 34 -208 96c-25 32 -43 73 -52 119c-10 -46 -33 -89 -62 -122c-51 -58 -125 -93 -210 -93s-159 35 -210 93c-43 49 -69 115 -69 187s26 138 69 187
c51 58 125 93 210 93s159 -35 210 -93c28 -33 49 -73 60 -117c9 48 27 91 58 128c42 51 104 82 190 82c74 0 139 -34 178 -78c40 -45 62 -110 62 -185c0 -6 -1 -11 -10 -11h-469c1 -70 21 -134 54 -178c45 -60 115 -94 199 -94zM66 272c0 -69 24 -130 65 -177
c48 -55 119 -89 200 -89s152 34 200 89c40 46 65 108 65 177s-26 131 -65 177c-48 55 -119 89 -200 89s-152 -34 -200 -89c-41 -47 -65 -108 -65 -177zM610 291h465c-2 70 -22 132 -59 173s-99 74 -166 74c-83 0 -143 -32 -184 -84c-34 -43 -53 -103 -56 -163z" />
    <glyph glyph-name="Oacute" unicode="&#xd3;" horiz-adv-x="803" 
d="M749 339c0 -187 -155 -349 -348 -349s-347 161 -347 349s154 351 347 351s348 -163 348 -351zM733 339c0 180 -147 336 -332 336c-184 0 -331 -156 -331 -336c0 -181 147 -335 331 -335c185 0 332 155 332 335zM342 782c0 2 1 4 3 8l99 171c3 6 7 9 10 9c5 0 8 -4 8 -8
c0 -2 -1 -4 -4 -9l-101 -168c-3 -5 -5 -8 -9 -8c-3 0 -6 2 -6 5z" />
    <glyph glyph-name="Ocircumflex" unicode="&#xd4;" horiz-adv-x="803" 
d="M749 339c0 -187 -155 -349 -348 -349s-347 161 -347 349s154 351 347 351s348 -163 348 -351zM733 339c0 180 -147 336 -332 336c-184 0 -331 -156 -331 -336c0 -181 147 -335 331 -335c185 0 332 155 332 335zM401 969c5 0 8 -4 11 -7l140 -153c2 -2 3 -4 3 -6
c0 -4 -3 -7 -7 -7c-2 0 -4 1 -6 3l-141 152l-141 -152c-2 -2 -4 -3 -6 -3c-4 0 -7 3 -7 7c0 2 1 4 3 6l140 153c3 3 6 7 11 7z" />
    <glyph glyph-name="Odieresis" unicode="&#xd6;" horiz-adv-x="803" 
d="M749 339c0 -187 -155 -349 -348 -349s-347 161 -347 349s154 351 347 351s348 -163 348 -351zM733 339c0 180 -147 336 -332 336c-184 0 -331 -156 -331 -336c0 -181 147 -335 331 -335c185 0 332 155 332 335zM330 866c-7 0 -12 5 -12 12c0 6 5 11 12 11
c6 0 11 -5 11 -11c0 -7 -5 -12 -11 -12zM474 866c-7 0 -12 5 -12 12c0 6 5 11 12 11c6 0 11 -5 11 -11c0 -7 -5 -12 -11 -12z" />
    <glyph glyph-name="Ograve" unicode="&#xd2;" horiz-adv-x="803" 
d="M749 339c0 -187 -155 -349 -348 -349s-347 161 -347 349s154 351 347 351s348 -163 348 -351zM733 339c0 180 -147 336 -332 336c-184 0 -331 -156 -331 -336c0 -181 147 -335 331 -335c185 0 332 155 332 335zM461 782c0 -3 -3 -5 -6 -5c-4 0 -6 3 -9 8l-101 168
c-3 5 -4 7 -4 9c0 4 3 8 8 8c3 0 7 -3 10 -9l99 -171c2 -4 3 -6 3 -8z" />
    <glyph glyph-name="Ohungarumlaut" unicode="&#x150;" horiz-adv-x="803" 
d="M749 339c0 -187 -155 -349 -348 -349s-347 161 -347 349s154 351 347 351s348 -163 348 -351zM733 339c0 180 -147 336 -332 336c-184 0 -331 -156 -331 -336c0 -181 147 -335 331 -335c185 0 332 155 332 335zM259 783c0 2 1 4 3 8l99 171c3 6 7 9 10 9c5 0 8 -4 8 -8
c0 -2 -1 -4 -4 -9l-101 -168c-3 -5 -5 -8 -9 -8c-3 0 -6 2 -6 5zM423 783c0 2 1 4 3 8l99 171c3 6 7 9 10 9c5 0 8 -4 8 -8c0 -2 -1 -4 -4 -9l-101 -168c-3 -5 -5 -8 -9 -8c-3 0 -6 2 -6 5z" />
    <glyph glyph-name="Omacron" unicode="&#x14c;" horiz-adv-x="803" 
d="M524 891c0 -4 -3 -6 -6 -6h-231c-3 0 -6 2 -6 6c0 3 3 6 6 6h231c3 0 6 -3 6 -6zM749 339c0 -187 -155 -349 -348 -349s-347 161 -347 349s154 351 347 351s348 -163 348 -351zM733 339c0 180 -147 336 -332 336c-184 0 -331 -156 -331 -336c0 -181 147 -335 331 -335
c185 0 332 155 332 335z" />
    <glyph glyph-name="Omega" unicode="&#x2126;" horiz-adv-x="759" 
d="M379 690c163 0 276 -91 276 -279c0 -120 -53 -203 -110 -266c-60 -67 -97 -97 -104 -131h222c4 0 7 -3 7 -7s-3 -7 -7 -7h-227c-4 0 -8 2 -8 10c0 37 41 68 106 143c51 57 107 141 107 258c0 180 -101 266 -262 266c-160 0 -262 -86 -262 -266c0 -117 57 -201 107 -258
c66 -75 107 -106 107 -143c0 -8 -4 -10 -9 -10h-226c-4 0 -7 3 -7 7s3 7 7 7h222c-7 34 -44 64 -104 131c-57 63 -111 146 -111 266c0 188 113 279 276 279z" />
    <glyph glyph-name="Oslash" unicode="&#xd8;" horiz-adv-x="803" 
d="M685 681c2 2 4 4 7 4s6 -2 6 -7c0 -2 -2 -5 -3 -6l-63 -73c72 -65 117 -159 117 -260c0 -187 -155 -349 -347 -349c-85 0 -162 30 -222 81l-64 -75c-2 -2 -4 -4 -7 -4s-6 2 -6 7c0 2 2 5 3 6l64 75c-72 64 -116 158 -116 259c0 188 155 351 348 351c84 0 160 -31 220 -82
zM733 339c0 96 -43 186 -111 248l-432 -505c57 -49 130 -78 211 -78c185 0 332 155 332 335zM70 339c0 -97 42 -186 109 -248l433 505c-57 49 -130 79 -211 79c-184 0 -331 -156 -331 -336z" />
    <glyph glyph-name="Osmall" unicode="&#xf76f;" horiz-adv-x="662" 
d="M66 272c0 -69 24 -130 65 -177c48 -55 119 -89 200 -89s152 34 200 89c41 47 65 108 65 177s-24 130 -65 177c-48 55 -119 89 -200 89s-152 -34 -200 -89c-41 -47 -65 -108 -65 -177zM52 272c0 72 26 138 69 187c51 58 125 93 210 93s159 -35 210 -93
c43 -49 69 -115 69 -187s-26 -138 -69 -187c-51 -58 -125 -93 -210 -93s-159 35 -210 93c-43 49 -69 115 -69 187z" />
    <glyph glyph-name="Osmallacute" unicode="&#xe0d9;" horiz-adv-x="674" 
d="M72 272c0 -69 24 -130 65 -177c48 -55 119 -89 200 -89s152 34 200 89c41 47 65 108 65 177s-24 130 -65 177c-48 55 -119 89 -200 89s-152 -34 -200 -89c-41 -47 -65 -108 -65 -177zM58 272c0 72 26 138 69 187c51 58 125 93 210 93s159 -35 210 -93
c43 -49 69 -115 69 -187s-26 -138 -69 -187c-51 -58 -125 -93 -210 -93s-159 35 -210 93c-43 49 -69 115 -69 187zM277 638c0 2 1 4 3 8l99 171c3 6 7 9 10 9c5 0 8 -4 8 -8c0 -2 -1 -4 -4 -9l-101 -168c-3 -5 -5 -8 -9 -8c-3 0 -6 2 -6 5z" />
    <glyph glyph-name="Osmallcircumflex" unicode="&#xe0da;" horiz-adv-x="674" 
d="M72 272c0 -69 24 -130 65 -177c48 -55 119 -89 200 -89s152 34 200 89c41 47 65 108 65 177s-24 130 -65 177c-48 55 -119 89 -200 89s-152 -34 -200 -89c-41 -47 -65 -108 -65 -177zM58 272c0 72 26 138 69 187c51 58 125 93 210 93s159 -35 210 -93
c43 -49 69 -115 69 -187s-26 -138 -69 -187c-51 -58 -125 -93 -210 -93s-159 35 -210 93c-43 49 -69 115 -69 187zM337 825c5 0 8 -4 11 -7l140 -153c2 -2 3 -4 3 -6c0 -4 -3 -7 -7 -7c-2 0 -4 1 -6 3l-141 152l-141 -152c-2 -2 -4 -3 -6 -3c-4 0 -7 3 -7 7c0 2 1 4 3 6
l140 153c3 3 6 7 11 7z" />
    <glyph glyph-name="Osmalldieresis" unicode="&#xe0db;" horiz-adv-x="674" 
d="M72 272c0 -69 24 -130 65 -177c48 -55 119 -89 200 -89s152 34 200 89c41 47 65 108 65 177s-24 130 -65 177c-48 55 -119 89 -200 89s-152 -34 -200 -89c-41 -47 -65 -108 -65 -177zM58 272c0 72 26 138 69 187c51 58 125 93 210 93s159 -35 210 -93
c43 -49 69 -115 69 -187s-26 -138 -69 -187c-51 -58 -125 -93 -210 -93s-159 35 -210 93c-43 49 -69 115 -69 187zM266 722c-7 0 -12 5 -12 12c0 6 5 11 12 11c6 0 11 -5 11 -11c0 -7 -5 -12 -11 -12zM410 722c-7 0 -12 5 -12 12c0 6 5 11 12 11c6 0 11 -5 11 -11
c0 -7 -5 -12 -11 -12z" />
    <glyph glyph-name="Osmallgrave" unicode="&#xe0dc;" horiz-adv-x="674" 
d="M72 272c0 -69 24 -130 65 -177c48 -55 119 -89 200 -89s152 34 200 89c41 47 65 108 65 177s-24 130 -65 177c-48 55 -119 89 -200 89s-152 -34 -200 -89c-41 -47 -65 -108 -65 -177zM58 272c0 72 26 138 69 187c51 58 125 93 210 93s159 -35 210 -93
c43 -49 69 -115 69 -187s-26 -138 -69 -187c-51 -58 -125 -93 -210 -93s-159 35 -210 93c-43 49 -69 115 -69 187zM397 638c0 -3 -3 -5 -6 -5c-4 0 -6 3 -9 8l-101 168c-3 5 -4 7 -4 9c0 4 3 8 8 8c3 0 7 -3 10 -9l99 -171c2 -4 3 -6 3 -8z" />
    <glyph glyph-name="Osmallhungarumlaut" unicode="&#xe0dd;" horiz-adv-x="674" 
d="M72 272c0 -69 24 -130 65 -177c48 -55 119 -89 200 -89s152 34 200 89c41 47 65 108 65 177s-24 130 -65 177c-48 55 -119 89 -200 89s-152 -34 -200 -89c-41 -47 -65 -108 -65 -177zM58 272c0 72 26 138 69 187c51 58 125 93 210 93s159 -35 210 -93
c43 -49 69 -115 69 -187s-26 -138 -69 -187c-51 -58 -125 -93 -210 -93s-159 35 -210 93c-43 49 -69 115 -69 187zM166 638c0 2 1 4 3 8l99 171c3 6 7 9 10 9c5 0 8 -4 8 -8c0 -2 -1 -4 -4 -9l-101 -168c-3 -5 -5 -8 -9 -8c-3 0 -6 2 -6 5zM330 638c0 2 1 4 3 8l99 171
c3 6 7 9 10 9c5 0 8 -4 8 -8c0 -2 -1 -4 -4 -9l-101 -168c-3 -5 -5 -8 -9 -8c-3 0 -6 2 -6 5z" />
    <glyph glyph-name="Osmallmacron" unicode="&#xe0de;" horiz-adv-x="674" 
d="M72 272c0 -69 24 -130 65 -177c48 -55 119 -89 200 -89s152 34 200 89c41 47 65 108 65 177s-24 130 -65 177c-48 55 -119 89 -200 89s-152 -34 -200 -89c-41 -47 -65 -108 -65 -177zM58 272c0 72 26 138 69 187c51 58 125 93 210 93s159 -35 210 -93
c43 -49 69 -115 69 -187s-26 -138 -69 -187c-51 -58 -125 -93 -210 -93s-159 35 -210 93c-43 49 -69 115 -69 187zM459 728c0 -4 -3 -6 -6 -6h-231c-3 0 -6 2 -6 6c0 3 3 6 6 6h231c3 0 6 -3 6 -6z" />
    <glyph glyph-name="Osmalltilde" unicode="&#xe0df;" horiz-adv-x="674" 
d="M72 272c0 -69 24 -130 65 -177c48 -55 119 -89 200 -89s152 34 200 89c41 47 65 108 65 177s-24 130 -65 177c-48 55 -119 89 -200 89s-152 -34 -200 -89c-41 -47 -65 -108 -65 -177zM58 272c0 72 26 138 69 187c51 58 125 93 210 93s159 -35 210 -93
c43 -49 69 -115 69 -187s-26 -138 -69 -187c-51 -58 -125 -93 -210 -93s-159 35 -210 93c-43 49 -69 115 -69 187zM484 740c0 -8 -11 -19 -19 -26c-14 -12 -35 -20 -60 -20c-27 0 -48 14 -70 27c-20 12 -40 24 -66 24c-21 0 -34 -6 -44 -13c-15 -11 -20 -26 -27 -26
c-4 0 -8 3 -8 8c0 8 11 19 19 26c14 12 35 20 60 20c29 0 52 -13 72 -25c21 -13 40 -26 64 -26c20 0 33 5 43 12c16 11 21 27 28 27c4 0 8 -3 8 -8z" />
    <glyph glyph-name="Otilde" unicode="&#xd5;" horiz-adv-x="803" 
d="M749 339c0 -187 -155 -349 -348 -349s-347 161 -347 349s154 351 347 351s348 -163 348 -351zM733 339c0 180 -147 336 -332 336c-184 0 -331 -156 -331 -336c0 -181 147 -335 331 -335c185 0 332 155 332 335zM548 924c0 -8 -11 -19 -19 -26c-14 -12 -35 -20 -60 -20
c-27 0 -48 14 -70 27c-20 12 -40 24 -66 24c-21 0 -34 -6 -44 -13c-15 -11 -20 -26 -27 -26c-4 0 -8 3 -8 8c0 8 11 19 19 26c14 12 35 20 60 20c29 0 52 -13 72 -25c21 -13 40 -26 64 -26c20 0 33 5 43 12c16 11 21 27 28 27c4 0 8 -3 8 -8z" />
    <glyph glyph-name="P" unicode="P" horiz-adv-x="605" 
d="M90 681h248c61 0 107 -11 151 -44c49 -36 77 -91 77 -166c0 -72 -31 -134 -83 -170c-47 -33 -105 -40 -165 -40h-220v-263c0 -4 -3 -8 -8 -8s-8 4 -8 8v675c0 4 3 8 8 8zM550 471c0 70 -27 122 -73 155c-41 30 -86 41 -144 41h-235v-392h217c56 0 112 6 156 36
c49 34 79 93 79 160z" />
    <glyph glyph-name="P.2" unicode="&#xe0e0;" horiz-adv-x="635" 
d="M90 681h278c61 0 107 -11 151 -44c49 -36 77 -91 77 -166c0 -72 -31 -134 -83 -170c-47 -33 -105 -40 -165 -40h-250v-263c0 -4 -3 -8 -8 -8s-8 4 -8 8v675c0 4 3 8 8 8zM580 471c0 70 -27 122 -73 155c-41 30 -86 41 -144 41h-265v-392h247c56 0 111 7 155 37
c49 34 80 92 80 159z" />
    <glyph glyph-name="Psmall" unicode="&#xf770;" horiz-adv-x="505" 
d="M454 377c0 56 -23 95 -57 122c-34 26 -74 33 -121 33h-182v-311h175c49 0 94 10 127 34c36 25 58 65 58 122zM87 544h189c49 0 91 -7 129 -36c38 -28 63 -72 63 -131c0 -60 -24 -102 -60 -129c-37 -27 -87 -39 -139 -39h-175v-210c0 -4 -3 -7 -7 -7s-7 3 -7 7v538
c0 4 3 7 7 7z" />
    <glyph glyph-name="Psmall.2" unicode="&#xe0e1;" horiz-adv-x="535" 
d="M484 377c0 56 -23 95 -57 122c-34 26 -74 33 -121 33h-212v-311h205c49 0 94 10 127 34c36 25 58 65 58 122zM87 544h219c49 0 91 -7 129 -36c38 -28 63 -72 63 -131c0 -60 -24 -102 -60 -129c-37 -27 -87 -39 -139 -39h-205v-210c0 -4 -3 -7 -7 -7s-7 3 -7 7v538
c0 4 3 7 7 7z" />
    <glyph glyph-name="Q" unicode="Q" horiz-adv-x="803" 
d="M380 -12v3c-183 10 -326 167 -326 348c0 188 154 351 347 351s348 -163 348 -351c0 -182 -147 -340 -332 -348c0 -3 2 -6 9 -9c46 -16 117 -39 164 -53c72 -23 137 -41 176 -49c6 -1 9 -4 9 -9s-3 -8 -10 -8c-25 0 -201 59 -375 114c-6 2 -10 6 -10 11zM733 339
c0 180 -147 336 -332 336c-184 0 -331 -156 -331 -336c0 -181 147 -335 331 -335c185 0 332 155 332 335z" />
    <glyph glyph-name="Qsmall" unicode="&#xf771;" horiz-adv-x="662" 
d="M52 272c0 72 26 138 69 187c51 58 125 93 210 93s159 -35 210 -93c43 -49 69 -115 69 -187s-26 -138 -69 -187c-48 -54 -115 -88 -192 -92c0 -4 1 -6 8 -9c42 -14 106 -35 149 -48c66 -20 122 -37 160 -45c5 -1 8 -2 8 -7s-3 -8 -9 -8c-23 0 -186 54 -344 104
c-6 2 -10 6 -10 10v3c-77 5 -143 38 -190 92c-43 49 -69 115 -69 187zM66 272c0 -69 24 -130 65 -177c48 -55 119 -89 200 -89s152 34 200 89c41 47 65 108 65 177s-24 130 -65 177c-48 55 -119 89 -200 89s-152 -34 -200 -89c-41 -47 -65 -108 -65 -177z" />
    <glyph glyph-name="R" unicode="R" horiz-adv-x="625" 
d="M98 295v-297c0 -4 -3 -8 -8 -8s-8 4 -8 8v675c0 4 3 8 8 8h244c64 0 113 -4 160 -32c48 -28 81 -78 81 -162s-36 -132 -82 -160c-47 -28 -96 -32 -160 -32h-2l241 -289c3 -4 4 -6 4 -9c0 -4 -3 -7 -9 -7c-4 0 -6 2 -8 4l-250 301h-211zM326 667h-228v-358h227
c62 0 112 3 156 28c45 26 78 72 78 150s-32 126 -77 152c-44 25 -94 28 -156 28z" />
    <glyph glyph-name="R.2" unicode="&#xe0e2;" horiz-adv-x="688" 
d="M610 6c62 0 64 30 77 30c5 0 9 -4 9 -9c0 -14 -34 -37 -86 -37c-133 0 -231 170 -280 283h-1h-231v-275c0 -4 -3 -8 -8 -8s-8 4 -8 8v674c0 5 4 9 9 9h238c73 0 130 -4 184 -34c55 -31 93 -81 93 -170s-38 -139 -93 -170c-49 -28 -101 -33 -165 -34
c46 -107 142 -267 262 -267zM329 667h-231v-380h231c73 0 127 4 177 32c49 27 84 75 84 158s-35 131 -84 158c-50 28 -104 32 -177 32z" />
    <glyph glyph-name="Racute" unicode="&#x154;" horiz-adv-x="623" 
d="M98 295v-297c0 -4 -3 -8 -8 -8s-8 4 -8 8v675c0 4 3 8 8 8h244c64 0 113 -4 160 -32c48 -28 81 -78 81 -162s-36 -132 -82 -160c-47 -28 -96 -32 -160 -32h-2l241 -289c3 -4 4 -6 4 -9c0 -4 -3 -7 -9 -7c-4 0 -6 2 -8 4l-250 301h-211zM326 667h-228v-358h227
c62 0 112 3 156 28c45 26 78 72 78 150s-32 126 -77 152c-44 25 -94 28 -156 28zM251 782c0 2 1 4 3 8l99 171c3 6 7 9 10 9c5 0 8 -4 8 -8c0 -2 -1 -4 -4 -9l-101 -168c-3 -5 -5 -8 -9 -8c-3 0 -6 2 -6 5z" />
    <glyph glyph-name="Racute.2" unicode="&#xe0e3;" horiz-adv-x="688" 
d="M610 6c62 0 64 30 77 30c5 0 9 -4 9 -9c0 -14 -34 -37 -86 -37c-133 0 -231 170 -280 283h-1h-231v-275c0 -4 -3 -8 -8 -8s-8 4 -8 8v674c0 5 4 9 9 9h238c73 0 130 -4 184 -34c55 -31 93 -81 93 -170s-38 -139 -93 -170c-49 -28 -101 -33 -165 -34
c46 -107 142 -267 262 -267zM329 667h-231v-380h231c73 0 127 4 177 32c49 27 84 75 84 158s-35 131 -84 158c-50 28 -104 32 -177 32zM267 782c0 2 1 4 3 8l99 171c3 6 7 9 10 9c5 0 8 -4 8 -8c0 -2 -1 -4 -4 -9l-101 -168c-3 -5 -5 -8 -9 -8c-3 0 -6 2 -6 5z" />
    <glyph glyph-name="Rcaron" unicode="&#x158;" horiz-adv-x="623" 
d="M98 295v-297c0 -4 -3 -8 -8 -8s-8 4 -8 8v675c0 4 3 8 8 8h244c64 0 113 -4 160 -32c48 -28 81 -78 81 -162s-36 -132 -82 -160c-47 -28 -96 -32 -160 -32h-2l241 -289c3 -4 4 -6 4 -9c0 -4 -3 -7 -9 -7c-4 0 -6 2 -8 4l-250 301h-211zM326 667h-228v-358h227
c62 0 112 3 156 28c45 26 78 72 78 150s-32 126 -77 152c-44 25 -94 28 -156 28zM156 962c0 4 3 7 7 7c2 0 4 -1 6 -3l141 -152l141 152c2 2 4 3 6 3c4 0 7 -3 7 -7c0 -2 -1 -4 -3 -6l-140 -153c-3 -3 -6 -7 -11 -7s-8 4 -11 7l-140 153c-2 2 -3 4 -3 6z" />
    <glyph glyph-name="Rcaron.2" unicode="&#xe0e4;" horiz-adv-x="688" 
d="M610 6c62 0 64 30 77 30c5 0 9 -4 9 -9c0 -14 -34 -37 -86 -37c-133 0 -231 170 -280 283h-1h-231v-275c0 -4 -3 -8 -8 -8s-8 4 -8 8v674c0 5 4 9 9 9h238c73 0 130 -4 184 -34c55 -31 93 -81 93 -170s-38 -139 -93 -170c-49 -28 -101 -33 -165 -34
c46 -107 142 -267 262 -267zM329 667h-231v-380h231c73 0 127 4 177 32c49 27 84 75 84 158s-35 131 -84 158c-50 28 -104 32 -177 32zM176 962c0 4 3 7 7 7c2 0 4 -1 6 -3l141 -152l141 152c2 2 4 3 6 3c4 0 7 -3 7 -7c0 -2 -1 -4 -3 -6l-140 -153c-3 -3 -6 -7 -11 -7
s-8 4 -11 7l-140 153c-2 2 -3 4 -3 6z" />
    <glyph glyph-name="Rcommaaccent" unicode="&#x156;" horiz-adv-x="623" 
d="M98 295v-297c0 -4 -3 -8 -8 -8s-8 4 -8 8v675c0 4 3 8 8 8h244c64 0 113 -4 160 -32c48 -28 81 -78 81 -162s-36 -132 -82 -160c-47 -28 -96 -32 -160 -32h-2l241 -289c3 -4 4 -6 4 -9c0 -4 -3 -7 -9 -7c-4 0 -6 2 -8 4l-250 301h-211zM326 667h-228v-358h227
c62 0 112 3 156 28c45 26 78 72 78 150s-32 126 -77 152c-44 25 -94 28 -156 28zM291 -124c0 7 9 11 9 25c0 10 -10 13 -10 23c0 7 5 13 13 13c11 0 16 -9 16 -23c0 -22 -14 -42 -24 -42c-2 0 -4 1 -4 4z" />
    <glyph glyph-name="Rcommaaccent.2" unicode="&#xe0e5;" horiz-adv-x="688" 
d="M610 6c62 0 64 30 77 30c5 0 9 -4 9 -9c0 -14 -34 -37 -86 -37c-133 0 -231 170 -280 283h-1h-231v-275c0 -4 -3 -8 -8 -8s-8 4 -8 8v674c0 5 4 9 9 9h238c73 0 130 -4 184 -34c55 -31 93 -81 93 -170s-38 -139 -93 -170c-49 -28 -101 -33 -165 -34
c46 -107 142 -267 262 -267zM329 667h-231v-380h231c73 0 127 4 177 32c49 27 84 75 84 158s-35 131 -84 158c-50 28 -104 32 -177 32zM321 -124c0 7 9 11 9 25c0 10 -10 13 -10 23c0 7 5 13 13 13c11 0 16 -9 16 -23c0 -22 -14 -42 -24 -42c-2 0 -4 1 -4 4z" />
    <glyph glyph-name="Rsmall" unicode="&#xf772;" horiz-adv-x="536" 
d="M282 234l187 -225c4 -5 6 -8 6 -11c0 -4 -3 -6 -7 -6c-3 0 -5 2 -6 3l-198 239h-170v-235c0 -4 -3 -7 -7 -7s-7 3 -7 7v538c0 4 3 7 7 7h199c94 0 189 -28 189 -155c0 -126 -97 -154 -193 -155zM286 532h-192v-286h189c93 0 178 28 178 143c0 116 -83 143 -175 143z" />
    <glyph glyph-name="Rsmall.2" unicode="&#xe0e6;" horiz-adv-x="556" 
d="M484 5c51 0 52 24 62 24c4 0 7 -4 7 -7c0 -10 -24 -30 -69 -30c-83 0 -162 88 -220 217h-170v-210c0 -4 -3 -7 -7 -7s-7 3 -7 7v538c0 4 3 7 7 7h202c49 0 91 -7 129 -36c38 -28 63 -72 63 -131c0 -60 -24 -102 -60 -129c-37 -27 -87 -39 -139 -39h-3
c57 -125 131 -204 205 -204zM467 377c0 56 -23 95 -57 122c-34 26 -74 33 -121 33h-195v-311h188c49 0 94 10 127 34c36 25 58 65 58 122z" />
    <glyph glyph-name="Rsmallacute" unicode="&#xe0e7;" horiz-adv-x="536" 
d="M282 234l187 -225c4 -5 6 -8 6 -11c0 -4 -3 -6 -7 -6c-3 0 -5 2 -6 3l-198 239h-170v-235c0 -4 -3 -7 -7 -7s-7 3 -7 7v538c0 4 3 7 7 7h199c94 0 189 -28 189 -155c0 -126 -97 -154 -193 -155zM286 532h-192v-286h189c93 0 178 28 178 143c0 116 -83 143 -175 143z
M202 638c0 2 1 4 3 8l99 171c3 6 7 9 10 9c5 0 8 -4 8 -8c0 -2 -1 -4 -4 -9l-101 -168c-3 -5 -5 -8 -9 -8c-3 0 -6 2 -6 5z" />
    <glyph glyph-name="Rsmallacute.2" unicode="&#xe0e8;" horiz-adv-x="556" 
d="M484 5c51 0 52 24 62 24c4 0 7 -4 7 -7c0 -10 -24 -30 -69 -30c-83 0 -162 88 -220 217h-170v-210c0 -4 -3 -7 -7 -7s-7 3 -7 7v538c0 4 3 7 7 7h202c49 0 91 -7 129 -36c38 -28 63 -72 63 -131c0 -60 -24 -102 -60 -129c-37 -27 -87 -39 -139 -39h-3
c57 -125 131 -204 205 -204zM467 377c0 56 -23 95 -57 122c-34 26 -74 33 -121 33h-195v-311h188c49 0 94 10 127 34c36 25 58 65 58 122zM226 638c0 2 1 4 3 8l99 171c3 6 7 9 10 9c5 0 8 -4 8 -8c0 -2 -1 -4 -4 -9l-101 -168c-3 -5 -5 -8 -9 -8c-3 0 -6 2 -6 5z" />
    <glyph glyph-name="Rsmallcaron" unicode="&#xe0e9;" horiz-adv-x="536" 
d="M282 234l187 -225c4 -5 6 -8 6 -11c0 -4 -3 -6 -7 -6c-3 0 -5 2 -6 3l-198 239h-170v-235c0 -4 -3 -7 -7 -7s-7 3 -7 7v538c0 4 3 7 7 7h199c94 0 189 -28 189 -155c0 -126 -97 -154 -193 -155zM286 532h-192v-286h189c93 0 178 28 178 143c0 116 -83 143 -175 143z
M117 818c0 4 3 7 7 7c2 0 4 -1 6 -3l141 -152l141 152c2 2 4 3 6 3c4 0 7 -3 7 -7c0 -2 -1 -4 -3 -6l-140 -153c-3 -3 -6 -7 -11 -7s-8 4 -11 7l-140 153c-2 2 -3 4 -3 6z" />
    <glyph glyph-name="Rsmallcaron.2" unicode="&#xe0ea;" horiz-adv-x="556" 
d="M484 5c51 0 52 24 62 24c4 0 7 -4 7 -7c0 -10 -24 -30 -69 -30c-83 0 -162 88 -220 217h-170v-210c0 -4 -3 -7 -7 -7s-7 3 -7 7v538c0 4 3 7 7 7h202c49 0 91 -7 129 -36c38 -28 63 -72 63 -131c0 -60 -24 -102 -60 -129c-37 -27 -87 -39 -139 -39h-3
c57 -125 131 -204 205 -204zM467 377c0 56 -23 95 -57 122c-34 26 -74 33 -121 33h-195v-311h188c49 0 94 10 127 34c36 25 58 65 58 122zM138 818c0 4 3 7 7 7c2 0 4 -1 6 -3l141 -152l141 152c2 2 4 3 6 3c4 0 7 -3 7 -7c0 -2 -1 -4 -3 -6l-140 -153c-3 -3 -6 -7 -11 -7
s-8 4 -11 7l-140 153c-2 2 -3 4 -3 6z" />
    <glyph glyph-name="Rsmallcommaaccent" unicode="&#xe0eb;" horiz-adv-x="536" 
d="M282 234l187 -225c4 -5 6 -8 6 -11c0 -4 -3 -6 -7 -6c-3 0 -5 2 -6 3l-198 239h-170v-235c0 -4 -3 -7 -7 -7s-7 3 -7 7v538c0 4 3 7 7 7h199c94 0 189 -28 189 -155c0 -126 -97 -154 -193 -155zM286 532h-192v-286h189c93 0 178 28 178 143c0 116 -83 143 -175 143z
M243 -124c0 7 9 11 9 25c0 10 -10 13 -10 23c0 7 5 13 13 13c11 0 16 -9 16 -23c0 -22 -14 -42 -24 -42c-2 0 -4 1 -4 4z" />
    <glyph glyph-name="Rsmallcommaaccent.2" unicode="&#xe0ec;" horiz-adv-x="556" 
d="M484 5c51 0 52 24 62 24c4 0 7 -4 7 -7c0 -10 -24 -30 -69 -30c-83 0 -162 88 -220 217h-170v-210c0 -4 -3 -7 -7 -7s-7 3 -7 7v538c0 4 3 7 7 7h202c49 0 91 -7 129 -36c38 -28 63 -72 63 -131c0 -60 -24 -102 -60 -129c-37 -27 -87 -39 -139 -39h-3
c57 -125 131 -204 205 -204zM467 377c0 56 -23 95 -57 122c-34 26 -74 33 -121 33h-195v-311h188c49 0 94 10 127 34c36 25 58 65 58 122zM267 -124c0 7 9 11 9 25c0 10 -10 13 -10 23c0 7 5 13 13 13c11 0 16 -9 16 -23c0 -22 -14 -42 -24 -42c-2 0 -4 1 -4 4z" />
    <glyph glyph-name="S" unicode="S" horiz-adv-x="534" 
d="M269 4c131 0 206 66 206 174c0 63 -37 104 -88 129c-64 32 -130 37 -215 70c-68 26 -118 69 -118 142c0 113 80 171 224 171c62 0 118 -15 152 -31c13 -6 29 -12 29 -20c0 -4 -3 -7 -8 -7c-11 0 -25 15 -60 26c-31 10 -68 18 -113 18c-139 0 -208 -56 -208 -157
c0 -63 42 -101 110 -128c76 -30 143 -35 213 -69c49 -24 98 -69 98 -142c0 -122 -85 -190 -222 -190c-94 0 -169 33 -208 62c-5 3 -10 10 -10 15c0 6 4 9 10 9c13 0 17 -20 75 -46c34 -15 79 -26 133 -26z" />
    <glyph glyph-name="Sacute" unicode="&#x15a;" horiz-adv-x="534" 
d="M209 782c0 2 1 4 3 8l99 171c3 6 7 9 10 9c5 0 8 -4 8 -8c0 -2 -1 -4 -4 -9l-101 -168c-3 -5 -5 -8 -9 -8c-3 0 -6 2 -6 5zM269 4c131 0 206 66 206 174c0 63 -37 104 -88 129c-64 32 -130 37 -215 70c-68 26 -118 69 -118 142c0 113 80 171 224 171
c62 0 118 -15 152 -31c13 -6 29 -12 29 -20c0 -4 -3 -7 -8 -7c-11 0 -25 15 -60 26c-31 10 -68 18 -113 18c-139 0 -208 -56 -208 -157c0 -63 42 -101 110 -128c76 -30 143 -35 213 -69c49 -24 98 -69 98 -142c0 -122 -85 -190 -222 -190c-94 0 -169 33 -208 62
c-5 3 -10 10 -10 15c0 6 4 9 10 9c13 0 17 -20 75 -46c34 -15 79 -26 133 -26z" />
    <glyph glyph-name="Scaron" unicode="&#x160;" horiz-adv-x="534" 
d="M269 4c131 0 206 66 206 174c0 63 -37 104 -88 129c-64 32 -130 37 -215 70c-68 26 -118 69 -118 142c0 113 80 171 224 171c62 0 118 -15 152 -31c13 -6 29 -12 29 -20c0 -4 -3 -7 -8 -7c-11 0 -25 15 -60 26c-31 10 -68 18 -113 18c-139 0 -208 -56 -208 -157
c0 -63 42 -101 110 -128c76 -30 143 -35 213 -69c49 -24 98 -69 98 -142c0 -122 -85 -190 -222 -190c-94 0 -169 33 -208 62c-5 3 -10 10 -10 15c0 6 4 9 10 9c13 0 17 -20 75 -46c34 -15 79 -26 133 -26zM113 962c0 4 3 7 7 7c2 0 4 -1 6 -3l141 -152l141 152c2 2 4 3 6 3
c4 0 7 -3 7 -7c0 -2 -1 -4 -3 -6l-140 -153c-3 -3 -6 -7 -11 -7s-8 4 -11 7l-140 153c-2 2 -3 4 -3 6z" />
    <glyph glyph-name="Scedilla" unicode="&#x15e;" horiz-adv-x="534" 
d="M269 4c131 0 206 66 206 174c0 63 -37 104 -88 129c-64 32 -130 37 -215 70c-68 26 -118 69 -118 142c0 113 80 171 224 171c62 0 118 -15 152 -31c13 -6 29 -12 29 -20c0 -4 -3 -7 -8 -7c-11 0 -25 15 -60 26c-31 10 -68 18 -113 18c-139 0 -208 -56 -208 -157
c0 -63 42 -101 110 -128c76 -30 143 -35 213 -69c49 -24 98 -69 98 -142c0 -120 -83 -188 -216 -190v-32c42 0 87 -16 87 -64c0 -58 -62 -75 -102 -75c-13 0 -22 1 -31 3c-5 1 -7 4 -7 7c0 4 3 7 7 7c8 0 14 -3 33 -3c39 0 86 17 86 61c0 38 -39 51 -71 51
c-13 0 -17 4 -16 16l2 29c-91 2 -164 33 -202 62c-5 3 -10 10 -10 15c0 6 4 9 10 9c13 0 17 -20 75 -46c34 -15 79 -26 133 -26z" />
    <glyph glyph-name="Scommaaccent" unicode="&#x218;" horiz-adv-x="534" 
d="M269 4c131 0 206 66 206 174c0 63 -37 104 -88 129c-64 32 -130 37 -215 70c-68 26 -118 69 -118 142c0 113 80 171 224 171c62 0 118 -15 152 -31c13 -6 29 -12 29 -20c0 -4 -3 -7 -8 -7c-11 0 -25 15 -60 26c-31 10 -68 18 -113 18c-139 0 -208 -56 -208 -157
c0 -63 42 -101 110 -128c76 -30 143 -35 213 -69c49 -24 98 -69 98 -142c0 -122 -85 -190 -222 -190c-94 0 -169 33 -208 62c-5 3 -10 10 -10 15c0 6 4 9 10 9c13 0 17 -20 75 -46c34 -15 79 -26 133 -26zM252 -124c0 7 9 11 9 25c0 10 -10 13 -10 23c0 7 5 13 13 13
c11 0 16 -9 16 -23c0 -22 -14 -42 -24 -42c-2 0 -4 1 -4 4z" />
    <glyph glyph-name="Ssmall" unicode="&#xf773;" horiz-adv-x="441" 
d="M371 506c0 -4 -3 -7 -7 -7c-10 0 -20 13 -52 25c-20 7 -47 15 -86 15c-106 0 -166 -37 -166 -121c0 -60 40 -88 93 -108c60 -22 137 -34 188 -67c33 -22 56 -52 56 -101c0 -96 -69 -150 -178 -150c-53 0 -95 11 -128 27c-24 12 -46 27 -46 36c0 4 3 7 7 7
c11 0 21 -16 54 -33c29 -15 65 -24 113 -24c104 0 164 52 164 137c0 66 -48 96 -107 116c-57 20 -124 31 -171 59c-35 21 -59 52 -59 101c0 93 67 134 180 134c42 0 86 -10 114 -23c19 -9 31 -15 31 -23z" />
    <glyph glyph-name="Ssmallacute" unicode="&#xe0ed;" horiz-adv-x="441" 
d="M371 506c0 -4 -3 -7 -7 -7c-10 0 -20 13 -52 25c-20 7 -47 15 -86 15c-106 0 -166 -37 -166 -121c0 -60 40 -88 93 -108c60 -22 137 -34 188 -67c33 -22 56 -52 56 -101c0 -96 -69 -150 -178 -150c-53 0 -95 11 -128 27c-24 12 -46 27 -46 36c0 4 3 7 7 7
c11 0 21 -16 54 -33c29 -15 65 -24 113 -24c104 0 164 52 164 137c0 66 -48 96 -107 116c-57 20 -124 31 -171 59c-35 21 -59 52 -59 101c0 93 67 134 180 134c42 0 86 -10 114 -23c19 -9 31 -15 31 -23zM160 638c0 2 1 4 3 8l99 171c3 6 7 9 10 9c5 0 8 -4 8 -8
c0 -2 -1 -4 -4 -9l-101 -168c-3 -5 -5 -8 -9 -8c-3 0 -6 2 -6 5z" />
    <glyph glyph-name="Ssmallcaron" unicode="&#xe0ee;" horiz-adv-x="441" 
d="M371 506c0 -4 -3 -7 -7 -7c-10 0 -20 13 -52 25c-20 7 -47 15 -86 15c-106 0 -166 -37 -166 -121c0 -60 40 -88 93 -108c60 -22 137 -34 188 -67c33 -22 56 -52 56 -101c0 -96 -69 -150 -178 -150c-53 0 -95 11 -128 27c-24 12 -46 27 -46 36c0 4 3 7 7 7
c11 0 21 -16 54 -33c29 -15 65 -24 113 -24c104 0 164 52 164 137c0 66 -48 96 -107 116c-57 20 -124 31 -171 59c-35 21 -59 52 -59 101c0 93 67 134 180 134c42 0 86 -10 114 -23c19 -9 31 -15 31 -23zM66 818c0 4 3 7 7 7c2 0 4 -1 6 -3l141 -152l141 152c2 2 4 3 6 3
c4 0 7 -3 7 -7c0 -2 -1 -4 -3 -6l-140 -153c-3 -3 -6 -7 -11 -7s-8 4 -11 7l-140 153c-2 2 -3 4 -3 6z" />
    <glyph glyph-name="Ssmallcedilla" unicode="&#xe0ef;" horiz-adv-x="441" 
d="M371 506c0 -4 -3 -7 -7 -7c-10 0 -20 13 -52 25c-20 7 -47 15 -86 15c-106 0 -166 -37 -166 -121c0 -60 40 -88 93 -108c60 -22 137 -34 188 -67c33 -22 56 -52 56 -101c0 -95 -68 -148 -174 -150v-34c42 0 87 -16 87 -64c0 -58 -62 -75 -102 -75c-13 0 -22 1 -31 3
c-5 1 -7 4 -7 7c0 4 3 7 7 7c8 0 14 -3 33 -3c39 0 86 17 86 61c0 38 -39 51 -71 51c-13 0 -17 4 -16 16l2 31c-49 1 -89 12 -120 27c-24 12 -46 27 -46 36c0 4 3 7 7 7c11 0 21 -16 54 -33c29 -15 65 -24 113 -24c104 0 164 52 164 137c0 66 -48 96 -107 116
c-57 20 -124 31 -171 59c-35 21 -59 52 -59 101c0 93 67 134 180 134c42 0 86 -10 114 -23c19 -9 31 -15 31 -23z" />
    <glyph glyph-name="Ssmallcommaaccent" unicode="&#xe0f0;" horiz-adv-x="441" 
d="M371 506c0 -4 -3 -7 -7 -7c-10 0 -20 13 -52 25c-20 7 -47 15 -86 15c-106 0 -166 -37 -166 -121c0 -60 40 -88 93 -108c60 -22 137 -34 188 -67c33 -22 56 -52 56 -101c0 -96 -69 -150 -178 -150c-53 0 -95 11 -128 27c-24 12 -46 27 -46 36c0 4 3 7 7 7
c11 0 21 -16 54 -33c29 -15 65 -24 113 -24c104 0 164 52 164 137c0 66 -48 96 -107 116c-57 20 -124 31 -171 59c-35 21 -59 52 -59 101c0 93 67 134 180 134c42 0 86 -10 114 -23c19 -9 31 -15 31 -23zM217 -124c0 7 9 11 9 25c0 10 -10 13 -10 23c0 7 5 13 13 13
c11 0 16 -9 16 -23c0 -22 -14 -42 -24 -42c-2 0 -4 1 -4 4z" />
    <glyph glyph-name="T" unicode="T" horiz-adv-x="530" 
d="M523 667h-250v-669c0 -4 -3 -8 -8 -8s-8 4 -8 8v669h-250c-4 0 -7 3 -7 7s3 7 7 7h516c4 0 7 -3 7 -7s-3 -7 -7 -7z" />
    <glyph glyph-name="T.2" unicode="&#xe0f1;" horiz-adv-x="642" 
d="M237 681h398c4 0 7 -3 7 -7s-3 -7 -7 -7h-280v-669c0 -4 -3 -8 -8 -8s-8 4 -8 8v669h-102c-138 0 -210 -17 -210 -71c0 -24 19 -40 46 -40c7 0 8 1 13 1s8 -3 8 -8c0 -7 -9 -9 -21 -9c-32 0 -62 20 -62 54c0 71 90 87 226 87z" />
    <glyph glyph-name="Tcaron" unicode="&#x164;" horiz-adv-x="530" 
d="M113 962c0 4 3 7 7 7c2 0 4 -1 6 -3l141 -152l141 152c2 2 4 3 6 3c4 0 7 -3 7 -7c0 -2 -1 -4 -3 -6l-140 -153c-3 -3 -6 -7 -11 -7s-8 4 -11 7l-140 153c-2 2 -3 4 -3 6zM523 667h-250v-669c0 -4 -3 -8 -8 -8s-8 4 -8 8v669h-250c-4 0 -7 3 -7 7s3 7 7 7h516
c4 0 7 -3 7 -7s-3 -7 -7 -7z" />
    <glyph glyph-name="Tcaron.2" unicode="&#xe0f2;" horiz-adv-x="642" 
d="M237 681h398c4 0 7 -3 7 -7s-3 -7 -7 -7h-280v-669c0 -4 -3 -8 -8 -8s-8 4 -8 8v669h-102c-138 0 -210 -17 -210 -71c0 -24 19 -40 46 -40c7 0 8 1 13 1s8 -3 8 -8c0 -7 -9 -9 -21 -9c-32 0 -62 20 -62 54c0 71 90 87 226 87zM193 962c0 4 3 7 7 7c2 0 4 -1 6 -3
l141 -152l141 152c2 2 4 3 6 3c4 0 7 -3 7 -7c0 -2 -1 -4 -3 -6l-140 -153c-3 -3 -6 -7 -11 -7s-8 4 -11 7l-140 153c-2 2 -3 4 -3 6z" />
    <glyph glyph-name="Tcommaaccent" unicode="&#x162;" horiz-adv-x="530" 
d="M523 667h-250v-669c0 -4 -3 -8 -8 -8s-8 4 -8 8v669h-250c-4 0 -7 3 -7 7s3 7 7 7h516c4 0 7 -3 7 -7s-3 -7 -7 -7zM252 -124c0 7 9 11 9 25c0 10 -10 13 -10 23c0 7 5 13 13 13c11 0 16 -9 16 -23c0 -22 -14 -42 -24 -42c-2 0 -4 1 -4 4z" />
    <glyph glyph-name="Tcommaaccent.2" unicode="&#xe0f3;" horiz-adv-x="642" 
d="M237 681h398c4 0 7 -3 7 -7s-3 -7 -7 -7h-280v-669c0 -4 -3 -8 -8 -8s-8 4 -8 8v669h-102c-138 0 -210 -17 -210 -71c0 -24 19 -40 46 -40c7 0 8 1 13 1s8 -3 8 -8c0 -7 -9 -9 -21 -9c-32 0 -62 20 -62 54c0 71 90 87 226 87zM335 -124c0 7 9 11 9 25c0 10 -10 13 -10 23
c0 7 5 13 13 13c11 0 16 -9 16 -23c0 -22 -14 -42 -24 -42c-2 0 -4 1 -4 4z" />
    <glyph glyph-name="Thorn" unicode="&#xde;" horiz-adv-x="606" 
d="M82 -147v829c0 4 3 8 8 8s8 -4 8 -8v-155h240c61 0 107 -11 151 -44c49 -36 77 -91 77 -166c0 -72 -31 -134 -83 -170c-47 -33 -105 -40 -165 -40h-220v-254c0 -4 -3 -8 -8 -8s-8 4 -8 8zM550 317c0 70 -27 122 -73 155c-41 30 -86 41 -144 41h-235v-392h217
c56 0 112 7 156 37c49 34 79 92 79 159z" />
    <glyph glyph-name="Tsmall" unicode="&#xf774;" horiz-adv-x="442" 
d="M428 532h-200v-533c0 -4 -3 -7 -7 -7s-7 3 -7 7v533h-200c-3 0 -6 2 -6 6s3 6 6 6h414c3 0 6 -2 6 -6s-3 -6 -6 -6z" />
    <glyph glyph-name="Tsmall.2" unicode="&#xe0f4;" horiz-adv-x="541" 
d="M195 544h332c3 0 6 -2 6 -6s-3 -6 -6 -6h-236v-533c0 -4 -3 -7 -7 -7s-7 3 -7 7v533h-82c-115 0 -174 -14 -174 -59c0 -19 16 -33 38 -33l12 1c3 0 6 -2 6 -6c0 -5 -7 -8 -18 -8c-27 0 -51 17 -51 46c0 58 74 71 187 71z" />
    <glyph glyph-name="Tsmallcaron" unicode="&#xe0f5;" horiz-adv-x="442" 
d="M428 532h-200v-533c0 -4 -3 -7 -7 -7s-7 3 -7 7v533h-200c-3 0 -6 2 -6 6s3 6 6 6h414c3 0 6 -2 6 -6s-3 -6 -6 -6zM67 818c0 4 3 7 7 7c2 0 4 -1 6 -3l141 -152l141 152c2 2 4 3 6 3c4 0 7 -3 7 -7c0 -2 -1 -4 -3 -6l-140 -153c-3 -3 -6 -7 -11 -7s-8 4 -11 7l-140 153
c-2 2 -3 4 -3 6z" />
    <glyph glyph-name="Tsmallcaron.2" unicode="&#xe0f6;" horiz-adv-x="541" 
d="M195 544h332c3 0 6 -2 6 -6s-3 -6 -6 -6h-236v-533c0 -4 -3 -7 -7 -7s-7 3 -7 7v533h-82c-115 0 -174 -14 -174 -59c0 -19 16 -33 38 -33l12 1c3 0 6 -2 6 -6c0 -5 -7 -8 -18 -8c-27 0 -51 17 -51 46c0 58 74 71 187 71zM130 818c0 4 3 7 7 7c2 0 4 -1 6 -3l141 -152
l141 152c2 2 4 3 6 3c4 0 7 -3 7 -7c0 -2 -1 -4 -3 -6l-140 -153c-3 -3 -6 -7 -11 -7s-8 4 -11 7l-140 153c-2 2 -3 4 -3 6z" />
    <glyph glyph-name="Tsmallcommaaccent" unicode="&#xe0f7;" horiz-adv-x="442" 
d="M428 532h-200v-533c0 -4 -3 -7 -7 -7s-7 3 -7 7v533h-200c-3 0 -6 2 -6 6s3 6 6 6h414c3 0 6 -2 6 -6s-3 -6 -6 -6zM208 -124c0 7 9 11 9 25c0 10 -10 13 -10 23c0 7 5 13 13 13c11 0 16 -9 16 -23c0 -22 -14 -42 -24 -42c-2 0 -4 1 -4 4z" />
    <glyph glyph-name="Tsmallcommaaccent.2" unicode="&#xe0f8;" horiz-adv-x="541" 
d="M195 544h332c3 0 6 -2 6 -6s-3 -6 -6 -6h-236v-533c0 -4 -3 -7 -7 -7s-7 3 -7 7v533h-82c-115 0 -174 -14 -174 -59c0 -19 16 -33 38 -33l12 1c3 0 6 -2 6 -6c0 -5 -7 -8 -18 -8c-27 0 -51 17 -51 46c0 58 74 71 187 71zM271 -124c0 7 9 11 9 25c0 10 -10 13 -10 23
c0 7 5 13 13 13c11 0 16 -9 16 -23c0 -22 -14 -42 -24 -42c-2 0 -4 1 -4 4z" />
    <glyph glyph-name="U" unicode="U" horiz-adv-x="720" 
d="M360 4c85 0 151 27 196 74c44 47 68 114 68 195v409c0 4 3 8 8 8s8 -4 8 -8v-413c0 -82 -24 -151 -69 -199c-48 -51 -120 -80 -211 -80s-163 29 -211 80c-45 48 -69 117 -69 199v413c0 4 3 8 8 8s8 -4 8 -8v-409c0 -81 24 -148 68 -195c45 -47 111 -74 196 -74z" />
    <glyph glyph-name="Uacute" unicode="&#xda;" horiz-adv-x="720" 
d="M360 4c85 0 151 27 196 74c44 47 68 114 68 195v409c0 4 3 8 8 8s8 -4 8 -8v-413c0 -82 -24 -151 -69 -199c-48 -51 -120 -80 -211 -80s-163 29 -211 80c-45 48 -69 117 -69 199v413c0 4 3 8 8 8s8 -4 8 -8v-409c0 -81 24 -148 68 -195c45 -47 111 -74 196 -74zM300 782
c0 2 1 4 3 8l99 171c3 6 7 9 10 9c5 0 8 -4 8 -8c0 -2 -1 -4 -4 -9l-101 -168c-3 -5 -5 -8 -9 -8c-3 0 -6 2 -6 5z" />
    <glyph glyph-name="Ucircumflex" unicode="&#xdb;" horiz-adv-x="720" 
d="M360 4c85 0 151 27 196 74c44 47 68 114 68 195v409c0 4 3 8 8 8s8 -4 8 -8v-413c0 -82 -24 -151 -69 -199c-48 -51 -120 -80 -211 -80s-163 29 -211 80c-45 48 -69 117 -69 199v413c0 4 3 8 8 8s8 -4 8 -8v-409c0 -81 24 -148 68 -195c45 -47 111 -74 196 -74zM360 969
c5 0 8 -4 11 -7l140 -153c2 -2 3 -4 3 -6c0 -4 -3 -7 -7 -7c-2 0 -4 1 -6 3l-141 152l-141 -152c-2 -2 -4 -3 -6 -3c-4 0 -7 3 -7 7c0 2 1 4 3 6l140 153c3 3 6 7 11 7z" />
    <glyph glyph-name="Udieresis" unicode="&#xdc;" horiz-adv-x="720" 
d="M360 4c85 0 151 27 196 74c44 47 68 114 68 195v409c0 4 3 8 8 8s8 -4 8 -8v-413c0 -82 -24 -151 -69 -199c-48 -51 -120 -80 -211 -80s-163 29 -211 80c-45 48 -69 117 -69 199v413c0 4 3 8 8 8s8 -4 8 -8v-409c0 -81 24 -148 68 -195c45 -47 111 -74 196 -74zM289 866
c-7 0 -12 5 -12 12c0 6 5 11 12 11c6 0 11 -5 11 -11c0 -7 -5 -12 -11 -12zM433 866c-7 0 -12 5 -12 12c0 6 5 11 12 11c6 0 11 -5 11 -11c0 -7 -5 -12 -11 -12z" />
    <glyph glyph-name="Ugrave" unicode="&#xd9;" horiz-adv-x="720" 
d="M360 4c85 0 151 27 196 74c44 47 68 114 68 195v409c0 4 3 8 8 8s8 -4 8 -8v-413c0 -82 -24 -151 -69 -199c-48 -51 -120 -80 -211 -80s-163 29 -211 80c-45 48 -69 117 -69 199v413c0 4 3 8 8 8s8 -4 8 -8v-409c0 -81 24 -148 68 -195c45 -47 111 -74 196 -74zM418 782
c0 -3 -3 -5 -6 -5c-4 0 -6 3 -9 8l-101 168c-3 5 -4 7 -4 9c0 4 3 8 8 8c3 0 7 -3 10 -9l99 -171c2 -4 3 -6 3 -8z" />
    <glyph glyph-name="Uhungarumlaut" unicode="&#x170;" horiz-adv-x="720" 
d="M360 4c85 0 151 27 196 74c44 47 68 114 68 195v409c0 4 3 8 8 8s8 -4 8 -8v-413c0 -82 -24 -151 -69 -199c-48 -51 -120 -80 -211 -80s-163 29 -211 80c-45 48 -69 117 -69 199v413c0 4 3 8 8 8s8 -4 8 -8v-409c0 -81 24 -148 68 -195c45 -47 111 -74 196 -74zM218 783
c0 2 1 4 3 8l99 171c3 6 7 9 10 9c5 0 8 -4 8 -8c0 -2 -1 -4 -4 -9l-101 -168c-3 -5 -5 -8 -9 -8c-3 0 -6 2 -6 5zM382 783c0 2 1 4 3 8l99 171c3 6 7 9 10 9c5 0 8 -4 8 -8c0 -2 -1 -4 -4 -9l-101 -168c-3 -5 -5 -8 -9 -8c-3 0 -6 2 -6 5z" />
    <glyph glyph-name="Umacron" unicode="&#x16a;" horiz-adv-x="720" 
d="M481 891c0 -4 -3 -6 -6 -6h-231c-3 0 -6 2 -6 6c0 3 3 6 6 6h231c3 0 6 -3 6 -6zM360 4c85 0 151 27 196 74c44 47 68 114 68 195v409c0 4 3 8 8 8s8 -4 8 -8v-413c0 -82 -24 -151 -69 -199c-48 -51 -120 -80 -211 -80s-163 29 -211 80c-45 48 -69 117 -69 199v413
c0 4 3 8 8 8s8 -4 8 -8v-409c0 -81 24 -148 68 -195c45 -47 111 -74 196 -74z" />
    <glyph glyph-name="Uogonek" unicode="&#x172;" horiz-adv-x="720" 
d="M360 4c85 0 151 27 196 74c44 47 68 114 68 195v409c0 4 3 8 8 8s8 -4 8 -8v-413c0 -82 -24 -151 -69 -199c-47 -50 -117 -79 -206 -80c-17 -38 -26 -69 -26 -100c0 -26 6 -63 87 -63c34 0 45 9 51 9c4 0 7 -3 7 -7s-3 -6 -8 -8c-11 -4 -33 -8 -50 -8
c-87 0 -101 40 -101 77c0 26 11 63 28 100c-88 2 -157 30 -204 80c-45 48 -69 117 -69 199v413c0 4 3 8 8 8s8 -4 8 -8v-409c0 -81 24 -148 68 -195c45 -47 111 -74 196 -74z" />
    <glyph glyph-name="Uring" unicode="&#x16e;" horiz-adv-x="720" 
d="M264 867c0 -54 43 -97 96 -97c52 0 95 42 95 97c0 53 -43 96 -95 96c-53 0 -96 -43 -96 -96zM250 867c0 61 49 110 110 110c60 0 109 -49 109 -110c0 -62 -49 -111 -109 -111c-61 0 -110 49 -110 111zM360 4c85 0 151 27 196 74c44 47 68 114 68 195v409c0 4 3 8 8 8
s8 -4 8 -8v-413c0 -82 -24 -151 -69 -199c-48 -51 -120 -80 -211 -80s-163 29 -211 80c-45 48 -69 117 -69 199v413c0 4 3 8 8 8s8 -4 8 -8v-409c0 -81 24 -148 68 -195c45 -47 111 -74 196 -74z" />
    <glyph glyph-name="Usmall" unicode="&#xf775;" horiz-adv-x="610" 
d="M305 6c66 0 118 17 154 49c42 37 64 92 64 160v330c0 4 3 7 7 7s7 -3 7 -7v-330c0 -72 -24 -132 -69 -171c-39 -34 -94 -52 -163 -52s-124 18 -163 52c-45 39 -69 99 -69 171v330c0 4 3 7 7 7s7 -3 7 -7v-330c0 -68 22 -123 64 -160c36 -32 88 -49 154 -49z" />
    <glyph glyph-name="Usmallacute" unicode="&#xe0f9;" horiz-adv-x="610" 
d="M305 6c66 0 118 17 154 49c42 37 64 92 64 160v330c0 4 3 7 7 7s7 -3 7 -7v-330c0 -72 -24 -132 -69 -171c-39 -34 -94 -52 -163 -52s-124 18 -163 52c-45 39 -69 99 -69 171v330c0 4 3 7 7 7s7 -3 7 -7v-330c0 -68 22 -123 64 -160c36 -32 88 -49 154 -49zM245 638
c0 2 1 4 3 8l99 171c3 6 7 9 10 9c5 0 8 -4 8 -8c0 -2 -1 -4 -4 -9l-101 -168c-3 -5 -5 -8 -9 -8c-3 0 -6 2 -6 5z" />
    <glyph glyph-name="Usmallcircumflex" unicode="&#xe0fa;" horiz-adv-x="610" 
d="M305 6c66 0 118 17 154 49c42 37 64 92 64 160v330c0 4 3 7 7 7s7 -3 7 -7v-330c0 -72 -24 -132 -69 -171c-39 -34 -94 -52 -163 -52s-124 18 -163 52c-45 39 -69 99 -69 171v330c0 4 3 7 7 7s7 -3 7 -7v-330c0 -68 22 -123 64 -160c36 -32 88 -49 154 -49zM305 825
c5 0 8 -4 11 -7l140 -153c2 -2 3 -4 3 -6c0 -4 -3 -7 -7 -7c-2 0 -4 1 -6 3l-141 152l-141 -152c-2 -2 -4 -3 -6 -3c-4 0 -7 3 -7 7c0 2 1 4 3 6l140 153c3 3 6 7 11 7z" />
    <glyph glyph-name="Usmalldieresis" unicode="&#xe0fb;" horiz-adv-x="610" 
d="M305 6c66 0 118 17 154 49c42 37 64 92 64 160v330c0 4 3 7 7 7s7 -3 7 -7v-330c0 -72 -24 -132 -69 -171c-39 -34 -94 -52 -163 -52s-124 18 -163 52c-45 39 -69 99 -69 171v330c0 4 3 7 7 7s7 -3 7 -7v-330c0 -68 22 -123 64 -160c36 -32 88 -49 154 -49zM234 722
c-7 0 -12 5 -12 12c0 6 5 11 12 11c6 0 11 -5 11 -11c0 -7 -5 -12 -11 -12zM378 722c-7 0 -12 5 -12 12c0 6 5 11 12 11c6 0 11 -5 11 -11c0 -7 -5 -12 -11 -12z" />
    <glyph glyph-name="Usmallgrave" unicode="&#xe0fc;" horiz-adv-x="610" 
d="M305 6c66 0 118 17 154 49c42 37 64 92 64 160v330c0 4 3 7 7 7s7 -3 7 -7v-330c0 -72 -24 -132 -69 -171c-39 -34 -94 -52 -163 -52s-124 18 -163 52c-45 39 -69 99 -69 171v330c0 4 3 7 7 7s7 -3 7 -7v-330c0 -68 22 -123 64 -160c36 -32 88 -49 154 -49zM365 638
c0 -3 -3 -5 -6 -5c-4 0 -6 3 -9 8l-101 168c-3 5 -4 7 -4 9c0 4 3 8 8 8c3 0 7 -3 10 -9l99 -171c2 -4 3 -6 3 -8z" />
    <glyph glyph-name="Usmallhungarumlaut" unicode="&#xe0fd;" horiz-adv-x="610" 
d="M305 6c66 0 118 17 154 49c42 37 64 92 64 160v330c0 4 3 7 7 7s7 -3 7 -7v-330c0 -72 -24 -132 -69 -171c-39 -34 -94 -52 -163 -52s-124 18 -163 52c-45 39 -69 99 -69 171v330c0 4 3 7 7 7s7 -3 7 -7v-330c0 -68 22 -123 64 -160c36 -32 88 -49 154 -49zM188 638
c0 2 1 4 3 8l99 171c3 6 7 9 10 9c5 0 8 -4 8 -8c0 -2 -1 -4 -4 -9l-101 -168c-3 -5 -5 -8 -9 -8c-3 0 -6 2 -6 5zM352 638c0 2 1 4 3 8l99 171c3 6 7 9 10 9c5 0 8 -4 8 -8c0 -2 -1 -4 -4 -9l-101 -168c-3 -5 -5 -8 -9 -8c-3 0 -6 2 -6 5z" />
    <glyph glyph-name="Usmallmacron" unicode="&#xe0fe;" horiz-adv-x="610" 
d="M305 6c66 0 118 17 154 49c42 37 64 92 64 160v330c0 4 3 7 7 7s7 -3 7 -7v-330c0 -72 -24 -132 -69 -171c-39 -34 -94 -52 -163 -52s-124 18 -163 52c-45 39 -69 99 -69 171v330c0 4 3 7 7 7s7 -3 7 -7v-330c0 -68 22 -123 64 -160c36 -32 88 -49 154 -49zM427 728
c0 -4 -3 -6 -6 -6h-231c-3 0 -6 2 -6 6c0 3 3 6 6 6h231c3 0 6 -3 6 -6z" />
    <glyph glyph-name="Usmallogonek" unicode="&#xe0ff;" horiz-adv-x="610" 
d="M305 6c66 0 118 17 154 49c42 37 64 92 64 160v330c0 4 3 7 7 7s7 -3 7 -7v-330c0 -72 -24 -132 -69 -171c-36 -31 -84 -48 -145 -51c-17 -37 -29 -73 -29 -103c0 -26 6 -63 87 -63c34 0 45 9 51 9c4 0 7 -3 7 -7s-3 -6 -8 -8c-11 -4 -33 -8 -50 -8
c-87 0 -101 40 -101 77c0 24 11 64 29 102h-4c-69 0 -124 18 -163 52c-45 39 -69 99 -69 171v330c0 4 3 7 7 7s7 -3 7 -7v-330c0 -68 22 -123 64 -160c36 -32 88 -49 154 -49z" />
    <glyph glyph-name="Usmallring" unicode="&#xe100;" horiz-adv-x="610" 
d="M305 6c66 0 118 17 154 49c42 37 64 92 64 160v330c0 4 3 7 7 7s7 -3 7 -7v-330c0 -72 -24 -132 -69 -171c-39 -34 -94 -52 -163 -52s-124 18 -163 52c-45 39 -69 99 -69 171v330c0 4 3 7 7 7s7 -3 7 -7v-330c0 -68 22 -123 64 -160c36 -32 88 -49 154 -49zM210 717
c0 -54 43 -97 96 -97c52 0 95 42 95 97c0 53 -43 96 -95 96c-53 0 -96 -43 -96 -96zM196 717c0 61 49 110 110 110c60 0 109 -49 109 -110c0 -62 -49 -111 -109 -111c-61 0 -110 49 -110 111z" />
    <glyph glyph-name="V" unicode="V" horiz-adv-x="590" 
d="M295 16l274 666c2 5 4 8 9 8c4 0 7 -3 7 -8c0 -2 -2 -6 -3 -9l-278 -675c-2 -5 -4 -8 -9 -8s-7 3 -9 8l-278 675c-1 3 -3 7 -3 9c0 5 3 8 7 8c5 0 7 -3 9 -8z" />
    <glyph glyph-name="Vsmall" unicode="&#xf776;" horiz-adv-x="526" 
d="M263 10l235 536c2 4 4 6 7 6c5 0 7 -3 7 -6c0 -2 -1 -5 -4 -11l-237 -536c-2 -4 -4 -7 -8 -7s-6 3 -8 7l-237 536c-2 5 -4 9 -4 11c0 3 2 6 7 6c3 0 5 -2 7 -6z" />
    <glyph glyph-name="W" unicode="W" horiz-adv-x="1100" 
d="M550 189c-16 -71 -50 -120 -91 -152c-42 -33 -93 -47 -141 -47c-69 0 -138 21 -183 76c-34 41 -55 101 -55 184v432c0 4 3 8 8 8s8 -4 8 -8v-434c0 -81 20 -137 53 -175c44 -50 108 -68 172 -68c49 0 96 17 133 48c52 44 88 117 88 209v420c0 4 3 8 8 8s8 -4 8 -8v-420
c0 -92 36 -165 88 -209c37 -31 84 -48 133 -48c64 0 128 18 172 68c33 38 53 94 53 175v434c0 4 3 8 8 8s8 -4 8 -8v-432c0 -83 -21 -143 -55 -184c-45 -55 -114 -76 -183 -76c-48 0 -99 14 -141 47c-41 32 -75 81 -91 152z" />
    <glyph glyph-name="W.2" unicode="&#xe101;" horiz-adv-x="980" 
d="M685 16l274 666c2 5 4 8 9 8c4 0 7 -3 7 -8c0 -2 -2 -6 -3 -9l-278 -675c-2 -5 -4 -8 -9 -8s-7 3 -9 8l-186 451l-186 -451c-2 -5 -4 -8 -9 -8s-7 3 -9 8l-278 675c-1 3 -3 7 -3 9c0 5 3 8 7 8c5 0 7 -3 9 -8l274 -666l186 454l-83 203c-1 3 -3 7 -3 9c0 5 3 8 7 8
c5 0 7 -3 9 -8z" />
    <glyph glyph-name="W.calt" unicode="&#xe102;" horiz-adv-x="1021" 
d="M759 16l241 666c2 5 4 8 9 8c4 0 7 -3 7 -7c0 -2 -1 -4 -3 -10l-245 -675c-2 -5 -4 -8 -9 -8s-7 3 -9 8l-240 664l-240 -664c-2 -5 -4 -8 -9 -8s-7 3 -9 8l-244 675c-2 5 -3 8 -3 10c0 4 3 7 7 7c5 0 7 -3 9 -8l240 -666l241 666c2 5 4 8 8 8c5 0 7 -2 9 -8z" />
    <glyph glyph-name="Wcircumflex" unicode="&#x174;" horiz-adv-x="1100" 
d="M550 189c-16 -71 -50 -120 -91 -152c-42 -33 -93 -47 -141 -47c-69 0 -138 21 -183 76c-34 41 -55 101 -55 184v432c0 4 3 8 8 8s8 -4 8 -8v-434c0 -81 20 -137 53 -175c44 -50 108 -68 172 -68c49 0 96 17 133 48c52 44 88 117 88 209v420c0 4 3 8 8 8s8 -4 8 -8v-420
c0 -92 36 -165 88 -209c37 -31 84 -48 133 -48c64 0 128 18 172 68c33 38 53 94 53 175v434c0 4 3 8 8 8s8 -4 8 -8v-432c0 -83 -21 -143 -55 -184c-45 -55 -114 -76 -183 -76c-48 0 -99 14 -141 47c-41 32 -75 81 -91 152zM550 969c5 0 8 -4 11 -7l140 -153c2 -2 3 -4 3 -6
c0 -4 -3 -7 -7 -7c-2 0 -4 1 -6 3l-141 152l-141 -152c-2 -2 -4 -3 -6 -3c-4 0 -7 3 -7 7c0 2 1 4 3 6l140 153c3 3 6 7 11 7z" />
    <glyph glyph-name="Wcircumflex.2" unicode="&#xe103;" horiz-adv-x="980" 
d="M685 16l274 666c2 5 4 8 9 8c4 0 7 -3 7 -8c0 -2 -2 -6 -3 -9l-278 -675c-2 -5 -4 -8 -9 -8s-7 3 -9 8l-186 451l-186 -451c-2 -5 -4 -8 -9 -8s-7 3 -9 8l-278 675c-1 3 -3 7 -3 9c0 5 3 8 7 8c5 0 7 -3 9 -8l274 -666l186 454l-83 203c-1 3 -3 7 -3 9c0 5 3 8 7 8
c5 0 7 -3 9 -8zM489 969c5 0 8 -4 11 -7l140 -153c2 -2 3 -4 3 -6c0 -4 -3 -7 -7 -7c-2 0 -4 1 -6 3l-141 152l-141 -152c-2 -2 -4 -3 -6 -3c-4 0 -7 3 -7 7c0 2 1 4 3 6l140 153c3 3 6 7 11 7z" />
    <glyph glyph-name="Wsmall" unicode="&#xf777;" horiz-adv-x="914" 
d="M450 215v330c0 4 3 7 7 7s7 -3 7 -7v-330c0 -68 19 -122 54 -159c30 -32 73 -50 128 -50s98 18 128 50c35 37 53 91 53 159v330c0 4 3 7 7 7s7 -3 7 -7v-330c0 -72 -20 -131 -58 -170c-33 -34 -79 -53 -137 -53s-104 19 -137 53c-25 26 -43 60 -52 101
c-8 -41 -26 -75 -51 -101c-33 -34 -79 -53 -137 -53s-104 19 -137 53c-39 39 -59 98 -59 170v330c0 4 3 7 7 7s7 -3 7 -7v-330c0 -68 19 -122 54 -159c30 -32 73 -50 128 -50s98 18 128 50c35 37 53 91 53 159z" />
    <glyph glyph-name="Wsmall.2" unicode="&#xe104;" horiz-adv-x="891" 
d="M628 10l235 536c2 4 4 6 7 6c5 0 7 -3 7 -6c0 -2 -1 -5 -4 -11l-237 -536c-2 -4 -4 -7 -8 -7s-6 3 -8 7l-175 394l-174 -394c-2 -4 -4 -7 -8 -7s-6 3 -8 7l-237 536c-2 5 -4 9 -4 11c0 3 2 6 7 6c3 0 5 -2 7 -6l235 -536l175 400l-55 125c-2 5 -4 9 -4 11c0 3 2 6 7 6
c3 0 5 -2 7 -6z" />
    <glyph glyph-name="Wsmall.calt" unicode="&#xe105;" horiz-adv-x="842" 
d="M428 547l191 -530l201 530c1 3 3 5 6 5c5 0 7 -4 7 -7c0 -4 -1 -6 -2 -9l-204 -537c-2 -5 -4 -7 -8 -7s-6 2 -8 7l-190 526l-193 -526c-2 -5 -4 -7 -8 -7s-6 2 -8 7l-201 537c-1 3 -2 5 -2 9c0 3 2 7 7 7c3 0 5 -2 6 -5l198 -530l194 530c1 3 4 5 7 5s6 -2 7 -5z" />
    <glyph glyph-name="Wsmallcircumflex" unicode="&#xe106;" horiz-adv-x="914" 
d="M450 215v330c0 4 3 7 7 7s7 -3 7 -7v-330c0 -68 19 -122 54 -159c30 -32 73 -50 128 -50s98 18 128 50c35 37 53 91 53 159v330c0 4 3 7 7 7s7 -3 7 -7v-330c0 -72 -20 -131 -58 -170c-33 -34 -79 -53 -137 -53s-104 19 -137 53c-25 26 -43 60 -52 101
c-8 -41 -26 -75 -51 -101c-33 -34 -79 -53 -137 -53s-104 19 -137 53c-39 39 -59 98 -59 170v330c0 4 3 7 7 7s7 -3 7 -7v-330c0 -68 19 -122 54 -159c30 -32 73 -50 128 -50s98 18 128 50c35 37 53 91 53 159zM457 825c5 0 8 -4 11 -7l140 -153c2 -2 3 -4 3 -6
c0 -4 -3 -7 -7 -7c-2 0 -4 1 -6 3l-141 152l-141 -152c-2 -2 -4 -3 -6 -3c-4 0 -7 3 -7 7c0 2 1 4 3 6l140 153c3 3 6 7 11 7z" />
    <glyph glyph-name="Wsmallcircumflex.2" unicode="&#xe107;" horiz-adv-x="891" 
d="M628 10l235 536c2 4 4 6 7 6c5 0 7 -3 7 -6c0 -2 -1 -5 -4 -11l-237 -536c-2 -4 -4 -7 -8 -7s-6 3 -8 7l-175 394l-174 -394c-2 -4 -4 -7 -8 -7s-6 3 -8 7l-237 536c-2 5 -4 9 -4 11c0 3 2 6 7 6c3 0 5 -2 7 -6l235 -536l175 400l-55 125c-2 5 -4 9 -4 11c0 3 2 6 7 6
c3 0 5 -2 7 -6zM445 825c5 0 8 -4 11 -7l140 -153c2 -2 3 -4 3 -6c0 -4 -3 -7 -7 -7c-2 0 -4 1 -6 3l-141 152l-141 -152c-2 -2 -4 -3 -6 -3c-4 0 -7 3 -7 7c0 2 1 4 3 6l140 153c3 3 6 7 11 7z" />
    <glyph glyph-name="X" unicode="X" horiz-adv-x="595" 
d="M18 681l280 -329l280 329c6 7 7 9 11 9s8 -4 8 -8s-3 -8 -6 -11l-283 -331l283 -331c3 -3 6 -7 6 -11s-4 -8 -8 -8s-5 2 -11 9l-280 329l-280 -329c-6 -7 -7 -9 -11 -9s-8 4 -8 8s3 8 6 11l283 331l-283 331c-3 3 -6 7 -6 11s4 8 8 8s5 -2 11 -9z" />
    <glyph glyph-name="Xsmall" unicode="&#xf778;" horiz-adv-x="515" 
d="M30 547l228 -269l228 269c3 4 5 5 8 5c2 0 5 -2 5 -6c0 -3 -3 -7 -7 -12l-226 -264l229 -261c4 -4 7 -8 7 -11c0 -4 -3 -6 -5 -6c-4 0 -6 2 -9 5l-230 265l-230 -265c-3 -3 -5 -5 -9 -5c-2 0 -5 2 -5 6c0 3 3 7 7 11l229 261l-226 264c-4 5 -7 9 -7 12c0 4 3 6 5 6
c3 0 5 -1 8 -5z" />
    <glyph glyph-name="Y" unicode="Y" horiz-adv-x="559" 
d="M555 674l-268 -359v-317c0 -4 -3 -8 -8 -8s-8 4 -8 8v317l-267 359c-2 3 -4 5 -4 9c0 3 3 7 7 7s6 -2 10 -8l262 -352l263 352c4 6 6 8 10 8s7 -4 7 -7c0 -4 -2 -6 -4 -9z" />
    <glyph glyph-name="Y.2" unicode="&#xe108;" horiz-adv-x="615" 
d="M611 674l-296 -397v-279c0 -4 -3 -8 -8 -8s-8 4 -8 8v279l-295 397c-2 3 -4 5 -4 9c0 3 3 7 7 7s6 -2 10 -8l290 -390l291 390c4 6 6 8 10 8s7 -4 7 -7c0 -4 -2 -6 -4 -9z" />
    <glyph glyph-name="Y.3" unicode="&#xe109;" horiz-adv-x="555" 
d="M51 4c116 0 173 73 228 176l-265 496c-1 2 -2 4 -2 7c0 4 3 7 7 7c5 0 7 -3 8 -5l260 -490l247 488c2 4 4 7 9 7c3 0 6 -2 6 -6c0 -3 -2 -7 -3 -9l-238 -470c-59 -117 -120 -215 -257 -215c-6 0 -9 3 -9 7s3 7 9 7z" />
    <glyph glyph-name="Yacute" unicode="&#xdd;" horiz-adv-x="559" 
d="M555 674l-268 -359v-317c0 -4 -3 -8 -8 -8s-8 4 -8 8v317l-267 359c-2 3 -4 5 -4 9c0 3 3 7 7 7s6 -2 10 -8l262 -352l263 352c4 6 6 8 10 8s7 -4 7 -7c0 -4 -2 -6 -4 -9zM219 782c0 2 1 4 3 8l99 171c3 6 7 9 10 9c5 0 8 -4 8 -8c0 -2 -1 -4 -4 -9l-101 -168
c-3 -5 -5 -8 -9 -8c-3 0 -6 2 -6 5z" />
    <glyph glyph-name="Yacute.2" unicode="&#xe10a;" horiz-adv-x="615" 
d="M611 674l-296 -397v-279c0 -4 -3 -8 -8 -8s-8 4 -8 8v279l-295 397c-2 3 -4 5 -4 9c0 3 3 7 7 7s6 -2 10 -8l290 -390l291 390c4 6 6 8 10 8s7 -4 7 -7c0 -4 -2 -6 -4 -9zM247 782c0 2 1 4 3 8l99 171c3 6 7 9 10 9c5 0 8 -4 8 -8c0 -2 -1 -4 -4 -9l-101 -168
c-3 -5 -5 -8 -9 -8c-3 0 -6 2 -6 5z" />
    <glyph glyph-name="Yacute.3" unicode="&#xe10b;" horiz-adv-x="555" 
d="M51 4c116 0 173 73 228 176l-265 496c-1 2 -2 4 -2 7c0 4 3 7 7 7c5 0 7 -3 8 -5l260 -490l247 488c2 4 4 7 9 7c3 0 6 -2 6 -6c0 -3 -2 -7 -3 -9l-238 -470c-59 -117 -120 -215 -257 -215c-6 0 -9 3 -9 7s3 7 9 7zM223 782c0 2 1 4 3 8l99 171c3 6 7 9 10 9
c5 0 8 -4 8 -8c0 -2 -1 -4 -4 -9l-101 -168c-3 -5 -5 -8 -9 -8c-3 0 -6 2 -6 5z" />
    <glyph glyph-name="Ycircumflex" unicode="&#x176;" horiz-adv-x="559" 
d="M555 674l-268 -359v-317c0 -4 -3 -8 -8 -8s-8 4 -8 8v317l-267 359c-2 3 -4 5 -4 9c0 3 3 7 7 7s6 -2 10 -8l262 -352l263 352c4 6 6 8 10 8s7 -4 7 -7c0 -4 -2 -6 -4 -9zM279 969c5 0 8 -4 11 -7l140 -153c2 -2 3 -4 3 -6c0 -4 -3 -7 -7 -7c-2 0 -4 1 -6 3l-141 152
l-141 -152c-2 -2 -4 -3 -6 -3c-4 0 -7 3 -7 7c0 2 1 4 3 6l140 153c3 3 6 7 11 7z" />
    <glyph glyph-name="Ycircumflex.2" unicode="&#xe10c;" horiz-adv-x="615" 
d="M611 674l-296 -397v-279c0 -4 -3 -8 -8 -8s-8 4 -8 8v279l-295 397c-2 3 -4 5 -4 9c0 3 3 7 7 7s6 -2 10 -8l290 -390l291 390c4 6 6 8 10 8s7 -4 7 -7c0 -4 -2 -6 -4 -9zM307 969c5 0 8 -4 11 -7l140 -153c2 -2 3 -4 3 -6c0 -4 -3 -7 -7 -7c-2 0 -4 1 -6 3l-141 152
l-141 -152c-2 -2 -4 -3 -6 -3c-4 0 -7 3 -7 7c0 2 1 4 3 6l140 153c3 3 6 7 11 7z" />
    <glyph glyph-name="Ycircumflex.3" unicode="&#xe10d;" horiz-adv-x="555" 
d="M51 4c116 0 173 73 228 176l-265 496c-1 2 -2 4 -2 7c0 4 3 7 7 7c5 0 7 -3 8 -5l260 -490l247 488c2 4 4 7 9 7c3 0 6 -2 6 -6c0 -3 -2 -7 -3 -9l-238 -470c-59 -117 -120 -215 -257 -215c-6 0 -9 3 -9 7s3 7 9 7zM282 969c5 0 8 -4 11 -7l140 -153c2 -2 3 -4 3 -6
c0 -4 -3 -7 -7 -7c-2 0 -4 1 -6 3l-141 152l-141 -152c-2 -2 -4 -3 -6 -3c-4 0 -7 3 -7 7c0 2 1 4 3 6l140 153c3 3 6 7 11 7z" />
    <glyph glyph-name="Ydieresis" unicode="&#x178;" horiz-adv-x="559" 
d="M555 674l-268 -359v-317c0 -4 -3 -8 -8 -8s-8 4 -8 8v317l-267 359c-2 3 -4 5 -4 9c0 3 3 7 7 7s6 -2 10 -8l262 -352l263 352c4 6 6 8 10 8s7 -4 7 -7c0 -4 -2 -6 -4 -9zM208 906c-7 0 -12 5 -12 12c0 6 5 11 12 11c6 0 11 -5 11 -11c0 -7 -5 -12 -11 -12zM352 906
c-7 0 -12 5 -12 12c0 6 5 11 12 11c6 0 11 -5 11 -11c0 -7 -5 -12 -11 -12z" />
    <glyph glyph-name="Ydieresis.2" unicode="&#xe10e;" horiz-adv-x="615" 
d="M611 674l-296 -397v-279c0 -4 -3 -8 -8 -8s-8 4 -8 8v279l-295 397c-2 3 -4 5 -4 9c0 3 3 7 7 7s6 -2 10 -8l290 -390l291 390c4 6 6 8 10 8s7 -4 7 -7c0 -4 -2 -6 -4 -9zM236 866c-7 0 -12 5 -12 12c0 6 5 11 12 11c6 0 11 -5 11 -11c0 -7 -5 -12 -11 -12zM380 866
c-7 0 -12 5 -12 12c0 6 5 11 12 11c6 0 11 -5 11 -11c0 -7 -5 -12 -11 -12z" />
    <glyph glyph-name="Ydieresis.3" unicode="&#xe10f;" horiz-adv-x="555" 
d="M51 4c116 0 173 73 228 176l-265 496c-1 2 -2 4 -2 7c0 4 3 7 7 7c5 0 7 -3 8 -5l260 -490l247 488c2 4 4 7 9 7c3 0 6 -2 6 -6c0 -3 -2 -7 -3 -9l-238 -470c-59 -117 -120 -215 -257 -215c-6 0 -9 3 -9 7s3 7 9 7zM215 866c-7 0 -12 5 -12 12c0 6 5 11 12 11
c6 0 11 -5 11 -11c0 -7 -5 -12 -11 -12zM359 866c-7 0 -12 5 -12 12c0 6 5 11 12 11c6 0 11 -5 11 -11c0 -7 -5 -12 -11 -12z" />
    <glyph glyph-name="Ysmall" unicode="&#xf779;" horiz-adv-x="470" 
d="M452 533l-210 -281v-253c0 -4 -3 -7 -7 -7s-7 3 -7 7v253l-210 281c-4 5 -7 10 -7 13c0 4 3 6 5 6c3 0 5 -1 8 -5l211 -283l211 283c3 4 5 5 8 5c2 0 5 -2 5 -6c0 -3 -3 -8 -7 -13z" />
    <glyph glyph-name="Ysmall.2" unicode="&#xe110;" horiz-adv-x="518" 
d="M500 534l-234 -313v-222c0 -4 -3 -7 -7 -7s-7 3 -7 7v222l-234 313c-4 5 -7 9 -7 12c0 4 3 6 5 6c3 0 5 -1 8 -5l235 -315l235 315c3 4 5 5 8 5c2 0 5 -2 5 -6c0 -3 -3 -7 -7 -12z" />
    <glyph glyph-name="Ysmall.3" unicode="&#xe111;" horiz-adv-x="455" 
d="M43 5c92 0 139 59 182 138l-210 393c-1 2 -4 6 -4 9s2 7 7 7c4 0 6 -3 7 -5l208 -389l197 389c1 2 3 5 7 5s7 -2 7 -6c0 -1 0 -3 -2 -7l-191 -375c-48 -94 -98 -172 -208 -172c-6 0 -9 2 -9 7c0 4 3 6 9 6z" />
    <glyph glyph-name="Ysmallacute" unicode="&#xe112;" horiz-adv-x="470" 
d="M452 533l-210 -281v-253c0 -4 -3 -7 -7 -7s-7 3 -7 7v253l-210 281c-4 5 -7 10 -7 13c0 4 3 6 5 6c3 0 5 -1 8 -5l211 -283l211 283c3 4 5 5 8 5c2 0 5 -2 5 -6c0 -3 -3 -8 -7 -13zM175 638c0 2 1 4 3 8l99 171c3 6 7 9 10 9c5 0 8 -4 8 -8c0 -2 -1 -4 -4 -9l-101 -168
c-3 -5 -5 -8 -9 -8c-3 0 -6 2 -6 5z" />
    <glyph glyph-name="Ysmallacute.2" unicode="&#xe113;" horiz-adv-x="518" 
d="M500 534l-234 -313v-222c0 -4 -3 -7 -7 -7s-7 3 -7 7v222l-234 313c-4 5 -7 9 -7 12c0 4 3 6 5 6c3 0 5 -1 8 -5l235 -315l235 315c3 4 5 5 8 5c2 0 5 -2 5 -6c0 -3 -3 -7 -7 -12zM199 638c0 2 1 4 3 8l99 171c3 6 7 9 10 9c5 0 8 -4 8 -8c0 -2 -1 -4 -4 -9l-101 -168
c-3 -5 -5 -8 -9 -8c-3 0 -6 2 -6 5z" />
    <glyph glyph-name="Ysmallacute.3" unicode="&#xe114;" horiz-adv-x="455" 
d="M43 5c92 0 139 59 182 138l-210 393c-1 2 -4 6 -4 9s2 7 7 7c4 0 6 -3 7 -5l208 -389l197 389c1 2 3 5 7 5s7 -2 7 -6c0 -1 0 -3 -2 -7l-191 -375c-48 -94 -98 -172 -208 -172c-6 0 -9 2 -9 7c0 4 3 6 9 6zM172 638c0 2 1 4 3 8l99 171c3 6 7 9 10 9c5 0 8 -4 8 -8
c0 -2 -1 -4 -4 -9l-101 -168c-3 -5 -5 -8 -9 -8c-3 0 -6 2 -6 5z" />
    <glyph glyph-name="Ysmallcircumflex" unicode="&#xe115;" horiz-adv-x="470" 
d="M452 533l-210 -281v-253c0 -4 -3 -7 -7 -7s-7 3 -7 7v253l-210 281c-4 5 -7 10 -7 13c0 4 3 6 5 6c3 0 5 -1 8 -5l211 -283l211 283c3 4 5 5 8 5c2 0 5 -2 5 -6c0 -3 -3 -8 -7 -13zM235 825c5 0 8 -4 11 -7l140 -153c2 -2 3 -4 3 -6c0 -4 -3 -7 -7 -7c-2 0 -4 1 -6 3
l-141 152l-141 -152c-2 -2 -4 -3 -6 -3c-4 0 -7 3 -7 7c0 2 1 4 3 6l140 153c3 3 6 7 11 7z" />
    <glyph glyph-name="Ysmallcircumflex.2" unicode="&#xe116;" horiz-adv-x="518" 
d="M500 534l-234 -313v-222c0 -4 -3 -7 -7 -7s-7 3 -7 7v222l-234 313c-4 5 -7 9 -7 12c0 4 3 6 5 6c3 0 5 -1 8 -5l235 -315l235 315c3 4 5 5 8 5c2 0 5 -2 5 -6c0 -3 -3 -7 -7 -12zM259 825c5 0 8 -4 11 -7l140 -153c2 -2 3 -4 3 -6c0 -4 -3 -7 -7 -7c-2 0 -4 1 -6 3
l-141 152l-141 -152c-2 -2 -4 -3 -6 -3c-4 0 -7 3 -7 7c0 2 1 4 3 6l140 153c3 3 6 7 11 7z" />
    <glyph glyph-name="Ysmallcircumflex.3" unicode="&#xe117;" horiz-adv-x="455" 
d="M43 5c92 0 139 59 182 138l-210 393c-1 2 -4 6 -4 9s2 7 7 7c4 0 6 -3 7 -5l208 -389l197 389c1 2 3 5 7 5s7 -2 7 -6c0 -1 0 -3 -2 -7l-191 -375c-48 -94 -98 -172 -208 -172c-6 0 -9 2 -9 7c0 4 3 6 9 6zM226 825c5 0 8 -4 11 -7l140 -153c2 -2 3 -4 3 -6
c0 -4 -3 -7 -7 -7c-2 0 -4 1 -6 3l-141 152l-141 -152c-2 -2 -4 -3 -6 -3c-4 0 -7 3 -7 7c0 2 1 4 3 6l140 153c3 3 6 7 11 7z" />
    <glyph glyph-name="Ysmalldieresis" unicode="&#xe118;" horiz-adv-x="470" 
d="M452 533l-210 -281v-253c0 -4 -3 -7 -7 -7s-7 3 -7 7v253l-210 281c-4 5 -7 10 -7 13c0 4 3 6 5 6c3 0 5 -1 8 -5l211 -283l211 283c3 4 5 5 8 5c2 0 5 -2 5 -6c0 -3 -3 -8 -7 -13zM164 722c-7 0 -12 5 -12 12c0 6 5 11 12 11c6 0 11 -5 11 -11c0 -7 -5 -12 -11 -12z
M308 722c-7 0 -12 5 -12 12c0 6 5 11 12 11c6 0 11 -5 11 -11c0 -7 -5 -12 -11 -12z" />
    <glyph glyph-name="Ysmalldieresis.2" unicode="&#xe119;" horiz-adv-x="518" 
d="M500 534l-234 -313v-222c0 -4 -3 -7 -7 -7s-7 3 -7 7v222l-234 313c-4 5 -7 9 -7 12c0 4 3 6 5 6c3 0 5 -1 8 -5l235 -315l235 315c3 4 5 5 8 5c2 0 5 -2 5 -6c0 -3 -3 -7 -7 -12zM188 722c-7 0 -12 5 -12 12c0 6 5 11 12 11c6 0 11 -5 11 -11c0 -7 -5 -12 -11 -12z
M332 722c-7 0 -12 5 -12 12c0 6 5 11 12 11c6 0 11 -5 11 -11c0 -7 -5 -12 -11 -12z" />
    <glyph glyph-name="Ysmalldieresis.3" unicode="&#xe11a;" horiz-adv-x="455" 
d="M43 5c92 0 139 59 182 138l-210 393c-1 2 -4 6 -4 9s2 7 7 7c4 0 6 -3 7 -5l208 -389l197 389c1 2 3 5 7 5s7 -2 7 -6c0 -1 0 -3 -2 -7l-191 -375c-48 -94 -98 -172 -208 -172c-6 0 -9 2 -9 7c0 4 3 6 9 6zM156 722c-7 0 -12 5 -12 12c0 6 5 11 12 11c6 0 11 -5 11 -11
c0 -7 -5 -12 -11 -12zM300 722c-7 0 -12 5 -12 12c0 6 5 11 12 11c6 0 11 -5 11 -11c0 -7 -5 -12 -11 -12z" />
    <glyph glyph-name="Z" unicode="Z" horiz-adv-x="526" 
d="M8 681h489c6 0 9 -3 9 -7c0 -3 -1 -6 -3 -9l-466 -651h478c4 0 7 -3 7 -7s-3 -7 -7 -7h-491c-5 0 -8 3 -8 7c0 3 2 6 4 9l466 651h-478c-4 0 -7 3 -7 7s3 7 7 7z" />
    <glyph glyph-name="Zacute" unicode="&#x179;" horiz-adv-x="526" 
d="M204 782c0 2 1 4 3 8l99 171c3 6 7 9 10 9c5 0 8 -4 8 -8c0 -2 -1 -4 -4 -9l-101 -168c-3 -5 -5 -8 -9 -8c-3 0 -6 2 -6 5zM8 681h489c6 0 9 -3 9 -7c0 -3 -1 -6 -3 -9l-466 -651h478c4 0 7 -3 7 -7s-3 -7 -7 -7h-491c-5 0 -8 3 -8 7c0 3 2 6 4 9l466 651h-478
c-4 0 -7 3 -7 7s3 7 7 7z" />
    <glyph glyph-name="Zcaron" unicode="&#x17d;" horiz-adv-x="526" 
d="M8 681h489c6 0 9 -3 9 -7c0 -3 -1 -6 -3 -9l-466 -651h478c4 0 7 -3 7 -7s-3 -7 -7 -7h-491c-5 0 -8 3 -8 7c0 3 2 6 4 9l466 651h-478c-4 0 -7 3 -7 7s3 7 7 7zM108 962c0 4 3 7 7 7c2 0 4 -1 6 -3l141 -152l141 152c2 2 4 3 6 3c4 0 7 -3 7 -7c0 -2 -1 -4 -3 -6
l-140 -153c-3 -3 -6 -7 -11 -7s-8 4 -11 7l-140 153c-2 2 -3 4 -3 6z" />
    <glyph glyph-name="Zdotaccent" unicode="&#x17b;" horiz-adv-x="526" 
d="M8 681h489c6 0 9 -3 9 -7c0 -3 -1 -6 -3 -9l-466 -651h478c4 0 7 -3 7 -7s-3 -7 -7 -7h-491c-5 0 -8 3 -8 7c0 3 2 6 4 9l466 651h-478c-4 0 -7 3 -7 7s3 7 7 7zM264 871c-7 0 -12 5 -12 12c0 6 5 11 12 11c6 0 11 -5 11 -11c0 -7 -5 -12 -11 -12z" />
    <glyph glyph-name="Zsmall" unicode="&#xf77a;" horiz-adv-x="428" 
d="M18 544h382c4 0 7 -2 7 -6s-3 -8 -5 -11l-375 -515h383c3 0 6 -2 6 -6s-3 -6 -6 -6h-393c-4 0 -7 2 -7 6s3 8 5 11l375 515h-372c-3 0 -6 2 -6 6s3 6 6 6z" />
    <glyph glyph-name="Zsmallacute" unicode="&#xe11b;" horiz-adv-x="428" 
d="M18 544h382c4 0 7 -2 7 -6s-3 -8 -5 -11l-375 -515h383c3 0 6 -2 6 -6s-3 -6 -6 -6h-393c-4 0 -7 2 -7 6s3 8 5 11l375 515h-372c-3 0 -6 2 -6 6s3 6 6 6zM154 638c0 2 1 4 3 8l99 171c3 6 7 9 10 9c5 0 8 -4 8 -8c0 -2 -1 -4 -4 -9l-101 -168c-3 -5 -5 -8 -9 -8
c-3 0 -6 2 -6 5z" />
    <glyph glyph-name="Zsmallcaron" unicode="&#xe11c;" horiz-adv-x="428" 
d="M18 544h382c4 0 7 -2 7 -6s-3 -8 -5 -11l-375 -515h383c3 0 6 -2 6 -6s-3 -6 -6 -6h-393c-4 0 -7 2 -7 6s3 8 5 11l375 515h-372c-3 0 -6 2 -6 6s3 6 6 6zM60 818c0 4 3 7 7 7c2 0 4 -1 6 -3l141 -152l141 152c2 2 4 3 6 3c4 0 7 -3 7 -7c0 -2 -1 -4 -3 -6l-140 -153
c-3 -3 -6 -7 -11 -7s-8 4 -11 7l-140 153c-2 2 -3 4 -3 6z" />
    <glyph glyph-name="Zsmalldotaccent" unicode="&#xe11d;" horiz-adv-x="428" 
d="M18 544h382c4 0 7 -2 7 -6s-3 -8 -5 -11l-375 -515h383c3 0 6 -2 6 -6s-3 -6 -6 -6h-393c-4 0 -7 2 -7 6s3 8 5 11l375 515h-372c-3 0 -6 2 -6 6s3 6 6 6zM213 722c-7 0 -12 5 -12 12c0 6 5 11 12 11c6 0 11 -5 11 -11c0 -7 -5 -12 -11 -12z" />
    <glyph glyph-name="a" unicode="a" horiz-adv-x="464" 
d="M51 115c0 65 41 100 101 120c63 21 147 25 225 30v19c0 57 -11 91 -33 117c-28 34 -71 41 -108 41c-45 0 -75 -8 -105 -20c-31 -12 -42 -25 -49 -25c-4 0 -7 3 -7 7c0 7 19 16 38 25c31 14 69 25 123 25c41 0 88 -8 120 -46c21 -26 35 -65 35 -124v-287c0 -4 -3 -7 -7 -7
s-7 3 -7 7v31c-50 -27 -96 -38 -153 -38c-76 0 -173 31 -173 125zM224 2c58 0 105 11 153 39v212c-60 -4 -145 -6 -211 -26c-58 -18 -102 -50 -102 -111c0 -82 84 -114 160 -114z" />
    <glyph glyph-name="a.1" unicode="&#xe11e;" horiz-adv-x="553" 
d="M276 454c58 0 114 -15 153 -62c31 -38 51 -96 51 -181v-214c0 -4 -3 -7 -7 -7s-7 3 -7 7v72c-54 -55 -110 -79 -195 -79c-72 0 -125 25 -161 64c-39 43 -58 104 -58 170c0 54 18 112 53 155c37 45 93 75 171 75zM271 2c93 0 143 31 195 85v124c0 82 -19 138 -48 173
c-36 44 -89 58 -142 58c-75 0 -130 -31 -164 -76c-31 -40 -46 -92 -46 -142c0 -63 17 -119 53 -160c34 -38 84 -62 152 -62z" />
    <glyph glyph-name="a.salt" unicode="&#xe4c0;" horiz-adv-x="527" 
d="M433 447c0 4 3 7 7 7s7 -3 7 -7v-450c0 -4 -3 -7 -7 -7s-7 3 -7 7v38c-53 -33 -112 -45 -161 -45c-63 0 -123 22 -165 68c-34 38 -55 93 -55 165c0 61 18 113 49 151c41 51 103 80 172 80c75 0 124 -20 160 -39v32zM272 2c49 0 110 14 161 49v350c-36 20 -84 41 -160 41
c-66 0 -126 -29 -164 -80c-27 -36 -43 -83 -43 -139c0 -67 19 -118 50 -154c39 -46 96 -67 156 -67z" />
    <glyph glyph-name="aacute" unicode="&#xe1;" horiz-adv-x="464" 
d="M51 115c0 65 41 100 101 120c63 21 147 25 225 30v19c0 57 -11 91 -33 117c-28 34 -71 41 -108 41c-45 0 -75 -8 -105 -20c-31 -12 -42 -25 -49 -25c-4 0 -7 3 -7 7c0 7 19 16 38 25c31 14 69 25 123 25c41 0 88 -8 120 -46c21 -26 35 -65 35 -124v-287c0 -4 -3 -7 -7 -7
s-7 3 -7 7v31c-50 -27 -96 -38 -153 -38c-76 0 -173 31 -173 125zM224 2c58 0 105 11 153 39v212c-60 -4 -145 -6 -211 -26c-58 -18 -102 -50 -102 -111c0 -82 84 -114 160 -114zM173 578c0 2 1 4 3 8l99 171c3 6 7 9 10 9c5 0 8 -4 8 -8c0 -2 -1 -4 -4 -9l-101 -168
c-3 -5 -5 -8 -9 -8c-3 0 -6 2 -6 5z" />
    <glyph glyph-name="aacute.1" unicode="&#xe11f;" horiz-adv-x="553" 
d="M276 454c58 0 114 -15 153 -62c31 -38 51 -96 51 -181v-214c0 -4 -3 -7 -7 -7s-7 3 -7 7v72c-54 -55 -110 -79 -195 -79c-72 0 -125 25 -161 64c-39 43 -58 104 -58 170c0 54 18 112 53 155c37 45 93 75 171 75zM271 2c93 0 143 31 195 85v124c0 82 -19 138 -48 173
c-36 44 -89 58 -142 58c-75 0 -130 -31 -164 -76c-31 -40 -46 -92 -46 -142c0 -63 17 -119 53 -160c34 -38 84 -62 152 -62zM217 578c0 2 1 4 3 8l99 171c3 6 7 9 10 9c5 0 8 -4 8 -8c0 -2 -1 -4 -4 -9l-101 -168c-3 -5 -5 -8 -9 -8c-3 0 -6 2 -6 5z" />
    <glyph glyph-name="aacute.salt" unicode="&#xe120;" horiz-adv-x="527" 
d="M433 447c0 4 3 7 7 7s7 -3 7 -7v-450c0 -4 -3 -7 -7 -7s-7 3 -7 7v38c-53 -33 -112 -45 -161 -45c-63 0 -123 22 -165 68c-34 38 -55 93 -55 165c0 61 18 113 49 151c41 51 103 80 172 80c75 0 124 -20 160 -39v32zM272 2c49 0 110 14 161 49v350c-36 20 -84 41 -160 41
c-66 0 -126 -29 -164 -80c-27 -36 -43 -83 -43 -139c0 -67 19 -118 50 -154c39 -46 96 -67 156 -67zM202 578c0 2 1 4 3 8l99 171c3 6 7 9 10 9c5 0 8 -4 8 -8c0 -2 -1 -4 -4 -9l-101 -168c-3 -5 -5 -8 -9 -8c-3 0 -6 2 -6 5z" />
    <glyph glyph-name="abreve" unicode="&#x103;" horiz-adv-x="464" 
d="M51 115c0 65 41 100 101 120c63 21 147 25 225 30v19c0 57 -11 91 -33 117c-28 34 -71 41 -108 41c-45 0 -75 -8 -105 -20c-31 -12 -42 -25 -49 -25c-4 0 -7 3 -7 7c0 7 19 16 38 25c31 14 69 25 123 25c41 0 88 -8 120 -46c21 -26 35 -65 35 -124v-287c0 -4 -3 -7 -7 -7
s-7 3 -7 7v31c-50 -27 -96 -38 -153 -38c-76 0 -173 31 -173 125zM224 2c58 0 105 11 153 39v212c-60 -4 -145 -6 -211 -26c-58 -18 -102 -50 -102 -111c0 -82 84 -114 160 -114zM232 615c43 0 71 23 89 47c17 23 23 44 31 44c4 0 8 -3 8 -7c0 -6 -10 -22 -20 -36
c-25 -36 -59 -62 -108 -62s-83 26 -108 62c-10 14 -20 30 -20 36c0 4 4 7 8 7c8 0 14 -21 31 -44c18 -24 46 -47 89 -47z" />
    <glyph glyph-name="abreve.1" unicode="&#xe121;" horiz-adv-x="553" 
d="M276 454c58 0 114 -15 153 -62c31 -38 51 -96 51 -181v-214c0 -4 -3 -7 -7 -7s-7 3 -7 7v72c-54 -55 -110 -79 -195 -79c-72 0 -125 25 -161 64c-39 43 -58 104 -58 170c0 54 18 112 53 155c37 45 93 75 171 75zM271 2c93 0 143 31 195 85v124c0 82 -19 138 -48 173
c-36 44 -89 58 -142 58c-75 0 -130 -31 -164 -76c-31 -40 -46 -92 -46 -142c0 -63 17 -119 53 -160c34 -38 84 -62 152 -62zM273 615c43 0 71 23 89 47c17 23 23 44 31 44c4 0 8 -3 8 -7c0 -6 -10 -22 -20 -36c-25 -36 -59 -62 -108 -62s-83 26 -108 62
c-10 14 -20 30 -20 36c0 4 4 7 8 7c8 0 14 -21 31 -44c18 -24 46 -47 89 -47z" />
    <glyph glyph-name="abreve.salt" unicode="&#xe122;" horiz-adv-x="527" 
d="M433 447c0 4 3 7 7 7s7 -3 7 -7v-450c0 -4 -3 -7 -7 -7s-7 3 -7 7v38c-53 -33 -112 -45 -161 -45c-63 0 -123 22 -165 68c-34 38 -55 93 -55 165c0 61 18 113 49 151c41 51 103 80 172 80c75 0 124 -20 160 -39v32zM272 2c49 0 110 14 161 49v350c-36 20 -84 41 -160 41
c-66 0 -126 -29 -164 -80c-27 -36 -43 -83 -43 -139c0 -67 19 -118 50 -154c39 -46 96 -67 156 -67zM266 615c43 0 71 23 89 47c17 23 23 44 31 44c4 0 8 -3 8 -7c0 -6 -10 -22 -20 -36c-25 -36 -59 -62 -108 -62s-83 26 -108 62c-10 14 -20 30 -20 36c0 4 4 7 8 7
c8 0 14 -21 31 -44c18 -24 46 -47 89 -47z" />
    <glyph glyph-name="acircumflex" unicode="&#xe2;" horiz-adv-x="464" 
d="M51 115c0 65 41 100 101 120c63 21 147 25 225 30v19c0 57 -11 91 -33 117c-28 34 -71 41 -108 41c-45 0 -75 -8 -105 -20c-31 -12 -42 -25 -49 -25c-4 0 -7 3 -7 7c0 7 19 16 38 25c31 14 69 25 123 25c41 0 88 -8 120 -46c21 -26 35 -65 35 -124v-287c0 -4 -3 -7 -7 -7
s-7 3 -7 7v31c-50 -27 -96 -38 -153 -38c-76 0 -173 31 -173 125zM224 2c58 0 105 11 153 39v212c-60 -4 -145 -6 -211 -26c-58 -18 -102 -50 -102 -111c0 -82 84 -114 160 -114zM234 765c5 0 8 -4 11 -7l140 -153c2 -2 3 -4 3 -6c0 -4 -3 -7 -7 -7c-2 0 -4 1 -6 3l-141 152
l-141 -152c-2 -2 -4 -3 -6 -3c-4 0 -7 3 -7 7c0 2 1 4 3 6l140 153c3 3 6 7 11 7z" />
    <glyph glyph-name="acircumflex.1" unicode="&#xe123;" horiz-adv-x="553" 
d="M276 454c58 0 114 -15 153 -62c31 -38 51 -96 51 -181v-214c0 -4 -3 -7 -7 -7s-7 3 -7 7v72c-54 -55 -110 -79 -195 -79c-72 0 -125 25 -161 64c-39 43 -58 104 -58 170c0 54 18 112 53 155c37 45 93 75 171 75zM271 2c93 0 143 31 195 85v124c0 82 -19 138 -48 173
c-36 44 -89 58 -142 58c-75 0 -130 -31 -164 -76c-31 -40 -46 -92 -46 -142c0 -63 17 -119 53 -160c34 -38 84 -62 152 -62zM273 765c5 0 8 -4 11 -7l140 -153c2 -2 3 -4 3 -6c0 -4 -3 -7 -7 -7c-2 0 -4 1 -6 3l-141 152l-141 -152c-2 -2 -4 -3 -6 -3c-4 0 -7 3 -7 7
c0 2 1 4 3 6l140 153c3 3 6 7 11 7z" />
    <glyph glyph-name="acircumflex.salt" unicode="&#xe124;" horiz-adv-x="527" 
d="M433 447c0 4 3 7 7 7s7 -3 7 -7v-450c0 -4 -3 -7 -7 -7s-7 3 -7 7v38c-53 -33 -112 -45 -161 -45c-63 0 -123 22 -165 68c-34 38 -55 93 -55 165c0 61 18 113 49 151c41 51 103 80 172 80c75 0 124 -20 160 -39v32zM272 2c49 0 110 14 161 49v350c-36 20 -84 41 -160 41
c-66 0 -126 -29 -164 -80c-27 -36 -43 -83 -43 -139c0 -67 19 -118 50 -154c39 -46 96 -67 156 -67zM271 765c5 0 8 -4 11 -7l140 -153c2 -2 3 -4 3 -6c0 -4 -3 -7 -7 -7c-2 0 -4 1 -6 3l-141 152l-141 -152c-2 -2 -4 -3 -6 -3c-4 0 -7 3 -7 7c0 2 1 4 3 6l140 153
c3 3 6 7 11 7z" />
    <glyph glyph-name="acute" unicode="&#xb4;" horiz-adv-x="368" 
d="M124 578c0 2 1 4 3 8l99 171c3 6 7 9 10 9c5 0 8 -4 8 -8c0 -2 -1 -4 -4 -9l-101 -168c-3 -5 -5 -8 -9 -8c-3 0 -6 2 -6 5z" />
    <glyph glyph-name="adieresis" unicode="&#xe4;" horiz-adv-x="464" 
d="M51 115c0 65 41 100 101 120c63 21 147 25 225 30v19c0 57 -11 91 -33 117c-28 34 -71 41 -108 41c-45 0 -75 -8 -105 -20c-31 -12 -42 -25 -49 -25c-4 0 -7 3 -7 7c0 7 19 16 38 25c31 14 69 25 123 25c41 0 88 -8 120 -46c21 -26 35 -65 35 -124v-287c0 -4 -3 -7 -7 -7
s-7 3 -7 7v31c-50 -27 -96 -38 -153 -38c-76 0 -173 31 -173 125zM224 2c58 0 105 11 153 39v212c-60 -4 -145 -6 -211 -26c-58 -18 -102 -50 -102 -111c0 -82 84 -114 160 -114zM162 662c-7 0 -12 5 -12 12c0 6 5 11 12 11c6 0 11 -5 11 -11c0 -7 -5 -12 -11 -12zM306 662
c-7 0 -12 5 -12 12c0 6 5 11 12 11c6 0 11 -5 11 -11c0 -7 -5 -12 -11 -12z" />
    <glyph glyph-name="adieresis.1" unicode="&#xe125;" horiz-adv-x="553" 
d="M276 454c58 0 114 -15 153 -62c31 -38 51 -96 51 -181v-214c0 -4 -3 -7 -7 -7s-7 3 -7 7v72c-54 -55 -110 -79 -195 -79c-72 0 -125 25 -161 64c-39 43 -58 104 -58 170c0 54 18 112 53 155c37 45 93 75 171 75zM271 2c93 0 143 31 195 85v124c0 82 -19 138 -48 173
c-36 44 -89 58 -142 58c-75 0 -130 -31 -164 -76c-31 -40 -46 -92 -46 -142c0 -63 17 -119 53 -160c34 -38 84 -62 152 -62zM205 662c-7 0 -12 5 -12 12c0 6 5 11 12 11c6 0 11 -5 11 -11c0 -7 -5 -12 -11 -12zM349 662c-7 0 -12 5 -12 12c0 6 5 11 12 11c6 0 11 -5 11 -11
c0 -7 -5 -12 -11 -12z" />
    <glyph glyph-name="adieresis.salt" unicode="&#xe126;" horiz-adv-x="527" 
d="M433 447c0 4 3 7 7 7s7 -3 7 -7v-450c0 -4 -3 -7 -7 -7s-7 3 -7 7v38c-53 -33 -112 -45 -161 -45c-63 0 -123 22 -165 68c-34 38 -55 93 -55 165c0 61 18 113 49 151c41 51 103 80 172 80c75 0 124 -20 160 -39v32zM272 2c49 0 110 14 161 49v350c-36 20 -84 41 -160 41
c-66 0 -126 -29 -164 -80c-27 -36 -43 -83 -43 -139c0 -67 19 -118 50 -154c39 -46 96 -67 156 -67zM195 662c-7 0 -12 5 -12 12c0 6 5 11 12 11c6 0 11 -5 11 -11c0 -7 -5 -12 -11 -12zM339 662c-7 0 -12 5 -12 12c0 6 5 11 12 11c6 0 11 -5 11 -11c0 -7 -5 -12 -11 -12z
" />
    </font>
</defs>
</svg>
