<?xml version="1.0" standalone="no"?>
<!DOCTYPE svg PUBLIC "-//W3C//DTD SVG 1.1//EN" "http://www.w3.org/Graphics/SVG/1.1/DTD/svg11.dtd" >
<svg xmlns="http://www.w3.org/2000/svg" xmlns:xlink="http://www.w3.org/1999/xlink" version="1.1">
<metadata>
Created by FontForge 20190801 at Thu Sep 18 14:45:53 2008
 By Jimmy Wärting
Copyright (c) 2008 by G-Type Designed and digitized by Nick Cooke. All rights reserved.
</metadata>
<defs>
<font id="HouschkaRounded-Bold" horiz-adv-x="600" >
  <font-face 
    font-family="Houschka Rounded Bold"
    font-weight="700"
    font-stretch="normal"
    units-per-em="1000"
    panose-1="2 15 5 3 0 0 0 2 0 3"
    ascent="760"
    descent="-240"
    x-height="459"
    cap-height="681"
    bbox="-168 -342 1277 982"
    underline-thickness="50"
    underline-position="-100"
    unicode-range="U+0020-FB06"
  />
<missing-glyph horiz-adv-x="500" 
d="M0 690h500v-690h-500v690zM250 301l-181 -249h361zM69 638l181 -249l180 249h-361zM218 345l-166 229v-458zM282 345l166 -229v458z" />
    <glyph glyph-name="ff" unicode="ff" horiz-adv-x="679" 
d="M219 458h166v34c0 103 37 197 152 197c41 0 78 -7 106 -19c34 -14 56 -33 56 -64c0 -27 -22 -50 -50 -50c-14 0 -25 8 -39 14c-16 7 -30 9 -44 9c-38 0 -49 -22 -49 -75v-46h86c28 0 50 -25 50 -52c0 -29 -22 -52 -50 -52h-86v-300c0 -35 -30 -64 -66 -64s-66 29 -66 64
v300h-166v-300c0 -35 -30 -64 -66 -64s-66 29 -66 64v300h-33c-28 0 -51 23 -51 52c0 27 23 52 51 52h33v46c0 87 38 175 149 175c36 0 64 -5 90 -16c31 -13 52 -33 52 -63c0 -28 -19 -50 -43 -50c-11 0 -19 3 -30 7s-22 7 -35 7c-40 0 -51 -34 -51 -70v-36z" />
    <glyph glyph-name="ffi" unicode="ffi" horiz-adv-x="854" 
d="M87 458v54c0 87 38 175 149 175c36 0 64 -5 90 -16c31 -13 52 -33 52 -63c0 -28 -19 -50 -43 -50c-11 0 -19 3 -30 7s-22 7 -35 7c-40 0 -51 -34 -51 -70v-44h166v52c0 89 37 179 180 179c54 0 100 -8 135 -22c41 -15 66 -36 66 -68c0 -30 -19 -54 -63 -54
c-18 0 -34 7 -53 16c-20 9 -42 18 -65 18c-52 0 -68 -34 -68 -89v-32h206c43 0 66 -29 66 -64v-340c0 -35 -31 -64 -66 -64c-37 0 -66 29 -66 64v300h-140v-300c0 -35 -30 -64 -66 -64s-66 29 -66 64v300h-166v-300c0 -35 -30 -64 -66 -64s-66 29 -66 64v300h-33
c-28 0 -51 23 -51 52c0 27 23 52 51 52h33z" />
    <glyph glyph-name="ffj" unicode="ffj" horiz-adv-x="854" 
d="M219 458h166v52c0 89 37 179 180 179c54 0 100 -8 135 -22c41 -15 66 -36 66 -68c0 -30 -19 -54 -63 -54c-18 0 -34 7 -53 16c-20 9 -42 18 -65 18c-52 0 -68 -34 -68 -89v-32h206c36 0 66 -29 66 -64v-383c0 -80 -16 -150 -50 -196c-24 -33 -58 -53 -99 -53
c-38 0 -69 17 -69 54c0 43 31 40 63 88c17 25 23 62 23 131v319h-140v-300c0 -35 -30 -64 -66 -64s-66 29 -66 64v300h-166v-300c0 -35 -30 -64 -66 -64s-66 29 -66 64v300h-33c-28 0 -51 23 -51 52c0 27 23 52 51 52h33v54c0 87 38 175 149 175c36 0 64 -5 90 -16
c31 -13 52 -33 52 -63c0 -28 -19 -50 -43 -50c-11 0 -19 3 -30 7s-22 7 -35 7c-40 0 -51 -34 -51 -70v-44z" />
    <glyph glyph-name="ffl" unicode="ffl" horiz-adv-x="854" 
d="M219 458h166v52c0 89 37 179 180 179c53 0 99 -8 134 -21c69 -26 90 -59 90 -124v-490c0 -35 -30 -64 -66 -64s-66 29 -66 64v487c0 23 -32 38 -69 38c-52 0 -71 -32 -71 -89v-32h63c28 0 50 -25 50 -52c0 -29 -22 -52 -50 -52h-63v-300c0 -35 -30 -64 -66 -64
s-66 29 -66 64v300h-166v-300c0 -35 -30 -64 -66 -64s-66 29 -66 64v300h-33c-28 0 -51 23 -51 52c0 27 23 52 51 52h33v54c0 87 38 175 149 175c36 0 64 -5 90 -16c31 -13 52 -33 52 -63c0 -28 -19 -50 -43 -50c-11 0 -19 3 -30 7s-22 7 -35 7c-40 0 -51 -34 -51 -70v-44z
" />
    <glyph glyph-name="fi" unicode="fi" horiz-adv-x="556" 
d="M219 458h206c44 0 66 -29 66 -64v-340c0 -35 -31 -64 -66 -64c-37 0 -66 29 -66 64v300h-140v-300c0 -35 -30 -64 -66 -64s-66 29 -66 64v300h-33c-28 0 -51 23 -51 52c0 27 23 52 51 52h33v52c0 89 37 179 181 179c53 0 99 -8 134 -21c42 -16 66 -37 66 -69
c0 -30 -18 -54 -62 -54c-18 0 -34 7 -54 16s-42 18 -65 18c-52 0 -68 -34 -68 -89v-32z" />
    <glyph glyph-name="fj" unicode="fj" horiz-adv-x="557" 
d="M219 458h206c36 0 66 -29 66 -64v-383c0 -80 -16 -150 -49 -196c-24 -33 -59 -53 -99 -53c-39 0 -70 17 -70 54c0 43 31 40 63 88c17 25 23 62 23 131v319h-140v-300c0 -35 -30 -64 -66 -64s-66 29 -66 64v300h-33c-28 0 -51 23 -51 52c0 27 23 52 51 52h33v52
c0 89 37 179 181 179c53 0 99 -8 134 -22c42 -15 66 -36 66 -68c0 -30 -18 -54 -62 -54c-18 0 -34 7 -54 16s-42 18 -65 18c-52 0 -68 -34 -68 -89v-32z" />
    <glyph glyph-name="fl" unicode="fl" horiz-adv-x="557" 
d="M492 544v-490c0 -35 -31 -64 -66 -64c-36 0 -67 29 -67 64v487c0 23 -32 38 -69 38c-51 0 -71 -32 -71 -89v-32h65c28 0 50 -25 50 -52c0 -29 -22 -52 -50 -52h-65v-300c0 -35 -30 -64 -66 -64s-66 29 -66 64v300h-33c-28 0 -51 23 -51 52c0 27 23 52 51 52h33v52
c0 89 42 179 186 179c53 0 102 -8 137 -21c69 -26 82 -59 82 -124z" />
    <glyph glyph-name=".notdef" horiz-adv-x="500" 
d="M0 690h500v-690h-500v690zM250 301l-181 -249h361zM69 638l181 -249l180 249h-361zM218 345l-166 229v-458zM282 345l166 -229v458z" />
    <glyph glyph-name="A" unicode="A" horiz-adv-x="694" 
d="M346 556c-35 0 -70 -11 -95 -36c-26 -25 -41 -66 -41 -120v-64h273v64c0 54 -14 95 -40 120c-25 24 -60 36 -97 36zM627 406v-346c0 -39 -33 -70 -72 -70c-40 0 -72 31 -72 70v148h-273v-148c0 -39 -33 -70 -72 -70c-40 0 -72 31 -72 70v346c0 82 32 166 100 223
c44 36 105 61 180 61c77 0 138 -24 182 -61c69 -57 99 -141 99 -223z" />
    <glyph glyph-name="A.2" unicode="&#xe000;" horiz-adv-x="694" 
d="M210 400v-63h273v63c0 54 -14 95 -40 120c-25 24 -60 36 -97 36c-35 0 -70 -11 -95 -36c-26 -25 -41 -66 -41 -120zM627 406v-346c0 -39 -33 -70 -72 -70c-40 0 -72 31 -72 70v150h-273v-150c0 -39 -33 -70 -72 -70c-40 0 -72 31 -72 70v346c0 82 32 166 100 223
c44 36 105 61 180 61c77 0 138 -24 182 -61c69 -57 99 -141 99 -223z" />
    <glyph glyph-name="A.3" unicode="&#xe001;" horiz-adv-x="659" 
d="M72 578c0 35 28 59 66 75c67 30 129 37 197 37c87 0 156 -23 201 -75c37 -43 57 -105 57 -187v-368c0 -39 -32 -70 -72 -70c-31 0 -57 18 -67 44c-50 -30 -103 -44 -188 -44c-111 0 -220 69 -220 196c0 77 35 131 97 167c72 42 180 60 306 66c-1 86 -34 141 -126 141
c-85 0 -120 -49 -183 -49c-39 0 -68 29 -68 67zM201 193c0 -59 52 -83 118 -83c44 0 90 14 130 41v156c-66 -3 -134 -11 -179 -30c-42 -18 -69 -45 -69 -84z" />
    <glyph glyph-name="A.calt" unicode="&#xe002;" horiz-adv-x="617" 
d="M309 510l-89 -256h176zM466 38l-35 100h-247l-35 -100c-10 -30 -32 -48 -71 -48c-43 0 -69 31 -69 66c0 9 5 23 8 32l192 528c15 41 41 75 101 75c59 0 88 -34 102 -75l189 -528c3 -8 7 -23 7 -32c0 -41 -31 -66 -73 -66c-35 0 -60 17 -69 48z" />
    <glyph glyph-name="AE" unicode="&#xc6;" horiz-adv-x="977" 
d="M612 279v-151h273c34 0 62 -31 62 -64c0 -35 -28 -64 -62 -64h-345c-40 0 -72 31 -72 70v138h-258v-148c0 -39 -33 -70 -72 -70c-40 0 -72 31 -72 70v346c0 82 31 167 97 223c43 37 102 61 176 61c56 0 104 -14 143 -37c13 17 34 28 58 28h345c34 0 62 -30 62 -64
c0 -35 -28 -64 -62 -64h-273v-147h220c34 0 62 -30 62 -64c0 -35 -28 -63 -62 -63h-220zM339 556c-35 0 -66 -12 -90 -36c-24 -26 -39 -66 -39 -120v-64h258v64c0 54 -15 94 -39 120c-23 24 -55 36 -90 36z" />
    <glyph glyph-name="AE.3" unicode="&#xe003;" horiz-adv-x="1136" 
d="M46 186c0 92 56 146 132 178c82 35 188 44 272 47v8c0 52 -12 87 -32 110c-24 27 -58 35 -95 35c-46 0 -77 -15 -104 -28c-26 -13 -48 -25 -79 -25c-39 0 -67 29 -67 67c0 35 27 59 65 75c67 30 129 37 197 37c88 0 157 -23 202 -75c4 -5 8 -10 11 -16
c54 54 135 91 237 91c107 0 183 -37 232 -88c62 -65 83 -139 83 -208c0 -73 -41 -104 -91 -104h-399c10 -50 31 -89 62 -118c36 -34 86 -52 142 -52c47 0 80 8 105 17c41 15 62 35 89 35c37 0 63 -29 63 -67c0 -39 -35 -66 -81 -84c-57 -23 -127 -31 -178 -31
c-123 0 -207 36 -267 96c-66 -54 -143 -96 -273 -96c-117 0 -226 69 -226 196zM319 110c71 0 129 36 165 67c-15 34 -26 72 -31 113c-59 0 -130 -4 -182 -22c-41 -14 -69 -37 -69 -75c0 -59 52 -83 117 -83zM612 414h336c-4 41 -19 74 -41 98c-28 29 -69 45 -121 45
c-54 0 -99 -20 -130 -53c-22 -23 -37 -55 -44 -90z" />
    <glyph glyph-name="AE.calt" unicode="&#xe004;" horiz-adv-x="989" 
d="M624 279v-151h274c33 0 61 -31 61 -64c0 -35 -28 -64 -61 -64h-346c-40 0 -72 31 -72 70v68h-252l-77 -100c-23 -30 -35 -48 -74 -48c-42 0 -68 26 -68 67c0 17 7 35 21 53l393 503c32 42 60 68 118 68h357c33 0 61 -30 61 -64c0 -35 -28 -64 -61 -64h-274v-147h220
c35 0 63 -30 63 -64c0 -35 -28 -63 -63 -63h-220zM316 254h164v215z" />
    <glyph glyph-name="AEsmall" unicode="&#xf7e6;" horiz-adv-x="848" 
d="M534 215v-97h239c32 0 58 -24 58 -59s-26 -59 -58 -59h-305c-36 0 -66 29 -66 64v98h-204v-106c0 -35 -30 -64 -66 -64s-66 29 -66 64v267c0 58 21 120 64 164c38 38 94 65 169 65c53 0 91 -12 121 -28c9 9 26 20 48 20h305c32 0 58 -24 58 -59s-26 -59 -58 -59h-239v-94
h198c33 0 59 -23 59 -58c0 -36 -26 -59 -59 -59h-198zM299 429c-28 0 -56 -11 -75 -32c-16 -19 -26 -45 -26 -79v-43h204v43c0 34 -10 60 -26 79c-20 22 -47 32 -77 32z" />
    <glyph glyph-name="AEsmall.3" unicode="&#xe005;" horiz-adv-x="916" 
d="M654 112c35 0 60 5 80 13c31 11 49 26 70 26c34 0 58 -27 58 -61c0 -33 -26 -57 -75 -75c-45 -18 -98 -23 -137 -23c-91 0 -155 25 -202 68c-55 -39 -114 -68 -213 -68c-104 0 -186 59 -186 163c0 153 179 176 314 179c-1 35 -6 59 -21 76c-15 18 -37 23 -64 23
c-35 0 -59 -12 -82 -24c-20 -10 -37 -18 -58 -18c-38 0 -64 27 -64 63c0 35 25 54 57 68c54 24 104 30 156 30c71 0 128 -19 164 -64c43 38 104 64 179 64c86 0 148 -31 188 -72c49 -51 66 -112 66 -167c0 -63 -36 -87 -80 -87h-292c7 -31 19 -55 38 -75
c26 -27 63 -39 104 -39zM263 105c50 0 91 18 124 41c-10 24 -17 52 -21 81c-79 -3 -181 -11 -181 -67c0 -40 38 -55 78 -55zM513 330h233c-2 30 -14 56 -32 73c-20 18 -48 29 -81 29c-35 0 -64 -11 -85 -33c-17 -18 -30 -42 -35 -69z" />
    <glyph glyph-name="Aacute" unicode="&#xc1;" horiz-adv-x="694" 
d="M346 556c-35 0 -70 -11 -95 -36c-26 -25 -41 -66 -41 -120v-64h273v64c0 54 -14 95 -40 120c-25 24 -60 36 -97 36zM627 406v-346c0 -39 -33 -70 -72 -70c-40 0 -72 31 -72 70v148h-273v-148c0 -39 -33 -70 -72 -70c-40 0 -72 31 -72 70v346c0 82 32 166 100 223
c44 36 105 61 180 61c77 0 138 -24 182 -61c69 -57 99 -141 99 -223zM266 805c0 11 3 20 9 31l53 105c9 19 23 33 47 33c27 0 52 -22 52 -49c0 -11 -4 -19 -13 -34l-61 -100c-11 -17 -24 -28 -43 -28c-23 0 -44 18 -44 42z" />
    <glyph glyph-name="Aacute.2" unicode="&#xe006;" horiz-adv-x="694" 
d="M210 400v-63h273v63c0 54 -14 95 -40 120c-25 24 -60 36 -97 36c-35 0 -70 -11 -95 -36c-26 -25 -41 -66 -41 -120zM627 406v-346c0 -39 -33 -70 -72 -70c-40 0 -72 31 -72 70v150h-273v-150c0 -39 -33 -70 -72 -70c-40 0 -72 31 -72 70v346c0 82 32 166 100 223
c44 36 105 61 180 61c77 0 138 -24 182 -61c69 -57 99 -141 99 -223zM266 805c0 11 3 20 9 31l53 105c9 19 23 33 47 33c27 0 52 -22 52 -49c0 -11 -4 -19 -13 -34l-61 -100c-11 -17 -24 -28 -43 -28c-23 0 -44 18 -44 42z" />
    <glyph glyph-name="Aacute.3" unicode="&#xe007;" horiz-adv-x="659" 
d="M72 578c0 35 28 59 66 75c67 30 129 37 197 37c87 0 156 -23 201 -75c37 -43 57 -105 57 -187v-368c0 -39 -32 -70 -72 -70c-31 0 -57 18 -67 44c-50 -30 -103 -44 -188 -44c-111 0 -220 69 -220 196c0 77 35 131 97 167c72 42 180 60 306 66c-1 86 -34 141 -126 141
c-85 0 -120 -49 -183 -49c-39 0 -68 29 -68 67zM201 193c0 -59 52 -83 118 -83c44 0 90 14 130 41v156c-66 -3 -134 -11 -179 -30c-42 -18 -69 -45 -69 -84zM243 805c0 11 3 20 9 31l53 105c9 19 23 33 47 33c27 0 52 -22 52 -49c0 -11 -4 -19 -13 -34l-61 -100
c-11 -17 -24 -28 -43 -28c-23 0 -44 18 -44 42z" />
    <glyph glyph-name="Aacute.calt" unicode="&#xe008;" horiz-adv-x="617" 
d="M309 510l-89 -256h176zM466 38l-35 100h-247l-35 -100c-10 -30 -32 -48 -71 -48c-43 0 -69 31 -69 66c0 9 5 23 8 32l192 528c15 41 41 75 101 75c59 0 88 -34 102 -75l189 -528c3 -8 7 -23 7 -32c0 -41 -31 -66 -73 -66c-35 0 -60 17 -69 48zM229 805c0 11 3 20 9 31
l53 105c9 19 23 33 47 33c27 0 52 -22 52 -49c0 -11 -4 -19 -13 -34l-61 -100c-11 -17 -24 -28 -43 -28c-23 0 -44 18 -44 42z" />
    <glyph glyph-name="Abreve" unicode="&#x102;" horiz-adv-x="694" 
d="M346 556c-35 0 -70 -11 -95 -36c-26 -25 -41 -66 -41 -120v-64h273v64c0 54 -14 95 -40 120c-25 24 -60 36 -97 36zM627 406v-346c0 -39 -33 -70 -72 -70c-40 0 -72 31 -72 70v148h-273v-148c0 -39 -33 -70 -72 -70c-40 0 -72 31 -72 70v346c0 82 32 166 100 223
c44 36 105 61 180 61c77 0 138 -24 182 -61c69 -57 99 -141 99 -223zM347 897c66 0 63 78 114 78c26 0 48 -20 48 -46c0 -72 -83 -126 -162 -126s-162 54 -162 126c0 26 22 46 48 46c51 0 48 -78 114 -78z" />
    <glyph glyph-name="Abreve.2" unicode="&#xe009;" horiz-adv-x="694" 
d="M210 400v-63h273v63c0 54 -14 95 -40 120c-25 24 -60 36 -97 36c-35 0 -70 -11 -95 -36c-26 -25 -41 -66 -41 -120zM627 406v-346c0 -39 -33 -70 -72 -70c-40 0 -72 31 -72 70v150h-273v-150c0 -39 -33 -70 -72 -70c-40 0 -72 31 -72 70v346c0 82 32 166 100 223
c44 36 105 61 180 61c77 0 138 -24 182 -61c69 -57 99 -141 99 -223zM347 897c66 0 63 78 114 78c26 0 48 -20 48 -46c0 -72 -83 -126 -162 -126s-162 54 -162 126c0 26 22 46 48 46c51 0 48 -78 114 -78z" />
    <glyph glyph-name="Abreve.3" unicode="&#xe00a;" horiz-adv-x="659" 
d="M72 578c0 35 28 59 66 75c67 30 129 37 197 37c87 0 156 -23 201 -75c37 -43 57 -105 57 -187v-368c0 -39 -32 -70 -72 -70c-31 0 -57 18 -67 44c-50 -30 -103 -44 -188 -44c-111 0 -220 69 -220 196c0 77 35 131 97 167c72 42 180 60 306 66c-1 86 -34 141 -126 141
c-85 0 -120 -49 -183 -49c-39 0 -68 29 -68 67zM201 193c0 -59 52 -83 118 -83c44 0 90 14 130 41v156c-66 -3 -134 -11 -179 -30c-42 -18 -69 -45 -69 -84zM327 897c66 0 63 78 114 78c26 0 48 -20 48 -46c0 -72 -83 -126 -162 -126s-162 54 -162 126c0 26 22 46 48 46
c51 0 48 -78 114 -78z" />
    <glyph glyph-name="Abreve.calt" unicode="&#xe00b;" horiz-adv-x="617" 
d="M309 510l-89 -256h176zM466 38l-35 100h-247l-35 -100c-10 -30 -32 -48 -71 -48c-43 0 -69 31 -69 66c0 9 5 23 8 32l192 528c15 41 41 75 101 75c59 0 88 -34 102 -75l189 -528c3 -8 7 -23 7 -32c0 -41 -31 -66 -73 -66c-35 0 -60 17 -69 48zM303 897c66 0 63 78 114 78
c26 0 48 -20 48 -46c0 -72 -83 -126 -162 -126s-162 54 -162 126c0 26 22 46 48 46c51 0 48 -78 114 -78z" />
    <glyph glyph-name="Acircumflex" unicode="&#xc2;" horiz-adv-x="694" 
d="M346 556c-35 0 -70 -11 -95 -36c-26 -25 -41 -66 -41 -120v-64h273v64c0 54 -14 95 -40 120c-25 24 -60 36 -97 36zM627 406v-346c0 -39 -33 -70 -72 -70c-40 0 -72 31 -72 70v148h-273v-148c0 -39 -33 -70 -72 -70c-40 0 -72 31 -72 70v346c0 82 32 166 100 223
c44 36 105 61 180 61c77 0 138 -24 182 -61c69 -57 99 -141 99 -223zM346 972c16 0 27 -7 37 -16l106 -101c13 -12 22 -24 22 -38c0 -29 -22 -47 -47 -47c-14 0 -25 5 -35 15l-83 80l-83 -80c-10 -10 -21 -15 -35 -15c-25 0 -47 18 -47 47c0 14 9 26 22 38l106 101
c10 9 21 16 37 16z" />
    <glyph glyph-name="Acircumflex.2" unicode="&#xe00c;" horiz-adv-x="694" 
d="M210 400v-63h273v63c0 54 -14 95 -40 120c-25 24 -60 36 -97 36c-35 0 -70 -11 -95 -36c-26 -25 -41 -66 -41 -120zM627 406v-346c0 -39 -33 -70 -72 -70c-40 0 -72 31 -72 70v150h-273v-150c0 -39 -33 -70 -72 -70c-40 0 -72 31 -72 70v346c0 82 32 166 100 223
c44 36 105 61 180 61c77 0 138 -24 182 -61c69 -57 99 -141 99 -223zM346 972c16 0 27 -7 37 -16l106 -101c13 -12 22 -24 22 -38c0 -29 -22 -47 -47 -47c-14 0 -25 5 -35 15l-83 80l-83 -80c-10 -10 -21 -15 -35 -15c-25 0 -47 18 -47 47c0 14 9 26 22 38l106 101
c10 9 21 16 37 16z" />
    <glyph glyph-name="Acircumflex.3" unicode="&#xe00d;" horiz-adv-x="659" 
d="M72 578c0 35 28 59 66 75c67 30 129 37 197 37c87 0 156 -23 201 -75c37 -43 57 -105 57 -187v-368c0 -39 -32 -70 -72 -70c-31 0 -57 18 -67 44c-50 -30 -103 -44 -188 -44c-111 0 -220 69 -220 196c0 77 35 131 97 167c72 42 180 60 306 66c-1 86 -34 141 -126 141
c-85 0 -120 -49 -183 -49c-39 0 -68 29 -68 67zM201 193c0 -59 52 -83 118 -83c44 0 90 14 130 41v156c-66 -3 -134 -11 -179 -30c-42 -18 -69 -45 -69 -84zM336 972c16 0 27 -7 37 -16l106 -101c13 -12 22 -24 22 -38c0 -29 -22 -47 -47 -47c-14 0 -25 5 -35 15l-83 80
l-83 -80c-10 -10 -21 -15 -35 -15c-25 0 -47 18 -47 47c0 14 9 26 22 38l106 101c10 9 21 16 37 16z" />
    <glyph glyph-name="Acircumflex.calt" unicode="&#xe00e;" horiz-adv-x="617" 
d="M309 510l-89 -256h176zM466 38l-35 100h-247l-35 -100c-10 -30 -32 -48 -71 -48c-43 0 -69 31 -69 66c0 9 5 23 8 32l192 528c15 41 41 75 101 75c59 0 88 -34 102 -75l189 -528c3 -8 7 -23 7 -32c0 -41 -31 -66 -73 -66c-35 0 -60 17 -69 48zM308 972c16 0 27 -7 37 -16
l106 -101c13 -12 22 -24 22 -38c0 -29 -22 -47 -47 -47c-14 0 -25 5 -35 15l-83 80l-83 -80c-10 -10 -21 -15 -35 -15c-25 0 -47 18 -47 47c0 14 9 26 22 38l106 101c10 9 21 16 37 16z" />
    <glyph glyph-name="Adieresis" unicode="&#xc4;" horiz-adv-x="694" 
d="M346 556c-35 0 -70 -11 -95 -36c-26 -25 -41 -66 -41 -120v-64h273v64c0 54 -14 95 -40 120c-25 24 -60 36 -97 36zM627 406v-346c0 -39 -33 -70 -72 -70c-40 0 -72 31 -72 70v148h-273v-148c0 -39 -33 -70 -72 -70c-40 0 -72 31 -72 70v346c0 82 32 166 100 223
c44 36 105 61 180 61c77 0 138 -24 182 -61c69 -57 99 -141 99 -223zM230 784c-42 0 -76 35 -76 77s34 76 76 76c43 0 76 -34 76 -76s-33 -77 -76 -77zM462 784c-42 0 -76 35 -76 77s34 76 76 76s76 -34 76 -76s-34 -77 -76 -77z" />
    <glyph glyph-name="Adieresis.2" unicode="&#xe00f;" horiz-adv-x="694" 
d="M210 400v-63h273v63c0 54 -14 95 -40 120c-25 24 -60 36 -97 36c-35 0 -70 -11 -95 -36c-26 -25 -41 -66 -41 -120zM627 406v-346c0 -39 -33 -70 -72 -70c-40 0 -72 31 -72 70v150h-273v-150c0 -39 -33 -70 -72 -70c-40 0 -72 31 -72 70v346c0 82 32 166 100 223
c44 36 105 61 180 61c77 0 138 -24 182 -61c69 -57 99 -141 99 -223zM231 784c-42 0 -76 35 -76 77s34 76 76 76c43 0 76 -34 76 -76s-33 -77 -76 -77zM463 784c-42 0 -76 35 -76 77s34 76 76 76s76 -34 76 -76s-34 -77 -76 -77z" />
    <glyph glyph-name="Adieresis.3" unicode="&#xe010;" horiz-adv-x="659" 
d="M72 578c0 35 28 59 66 75c67 30 129 37 197 37c87 0 156 -23 201 -75c37 -43 57 -105 57 -187v-368c0 -39 -32 -70 -72 -70c-31 0 -57 18 -67 44c-50 -30 -103 -44 -188 -44c-111 0 -220 69 -220 196c0 77 35 131 97 167c72 42 180 60 306 66c-1 86 -34 141 -126 141
c-85 0 -120 -49 -183 -49c-39 0 -68 29 -68 67zM201 193c0 -59 52 -83 118 -83c44 0 90 14 130 41v156c-66 -3 -134 -11 -179 -30c-42 -18 -69 -45 -69 -84zM217 784c-42 0 -76 35 -76 77s34 76 76 76c43 0 76 -34 76 -76s-33 -77 -76 -77zM449 784c-42 0 -76 35 -76 77
s34 76 76 76s76 -34 76 -76s-34 -77 -76 -77z" />
    <glyph glyph-name="Adieresis.calt" unicode="&#xe011;" horiz-adv-x="617" 
d="M309 510l-89 -256h176zM466 38l-35 100h-247l-35 -100c-10 -30 -32 -48 -71 -48c-43 0 -69 31 -69 66c0 9 5 23 8 32l192 528c15 41 41 75 101 75c59 0 88 -34 102 -75l189 -528c3 -8 7 -23 7 -32c0 -41 -31 -66 -73 -66c-35 0 -60 17 -69 48zM193 784
c-42 0 -76 35 -76 77s34 76 76 76c43 0 76 -34 76 -76s-33 -77 -76 -77zM425 784c-42 0 -76 35 -76 77s34 76 76 76s76 -34 76 -76s-34 -77 -76 -77z" />
    <glyph glyph-name="Agrave" unicode="&#xc0;" horiz-adv-x="694" 
d="M346 556c-35 0 -70 -11 -95 -36c-26 -25 -41 -66 -41 -120v-64h273v64c0 54 -14 95 -40 120c-25 24 -60 36 -97 36zM627 406v-346c0 -39 -33 -70 -72 -70c-40 0 -72 31 -72 70v148h-273v-148c0 -39 -33 -70 -72 -70c-40 0 -72 31 -72 70v346c0 82 32 166 100 223
c44 36 105 61 180 61c77 0 138 -24 182 -61c69 -57 99 -141 99 -223zM427 805c0 -24 -21 -42 -45 -42c-18 0 -31 10 -42 28l-61 100c-10 15 -13 23 -13 34c0 27 25 49 52 49c24 0 38 -14 47 -33l53 -105c5 -11 9 -20 9 -31z" />
    <glyph glyph-name="Agrave.2" unicode="&#xe012;" horiz-adv-x="694" 
d="M210 400v-63h273v63c0 54 -14 95 -40 120c-25 24 -60 36 -97 36c-35 0 -70 -11 -95 -36c-26 -25 -41 -66 -41 -120zM627 406v-346c0 -39 -33 -70 -72 -70c-40 0 -72 31 -72 70v150h-273v-150c0 -39 -33 -70 -72 -70c-40 0 -72 31 -72 70v346c0 82 32 166 100 223
c44 36 105 61 180 61c77 0 138 -24 182 -61c69 -57 99 -141 99 -223zM427 805c0 -24 -21 -42 -45 -42c-18 0 -31 10 -42 28l-61 100c-10 15 -13 23 -13 34c0 27 25 49 52 49c24 0 38 -14 47 -33l53 -105c5 -11 9 -20 9 -31z" />
    <glyph glyph-name="Agrave.3" unicode="&#xe013;" horiz-adv-x="659" 
d="M72 578c0 35 28 59 66 75c67 30 129 37 197 37c87 0 156 -23 201 -75c37 -43 57 -105 57 -187v-368c0 -39 -32 -70 -72 -70c-31 0 -57 18 -67 44c-50 -30 -103 -44 -188 -44c-111 0 -220 69 -220 196c0 77 35 131 97 167c72 42 180 60 306 66c-1 86 -34 141 -126 141
c-85 0 -120 -49 -183 -49c-39 0 -68 29 -68 67zM201 193c0 -59 52 -83 118 -83c44 0 90 14 130 41v156c-66 -3 -134 -11 -179 -30c-42 -18 -69 -45 -69 -84zM408 805c0 -24 -21 -42 -45 -42c-18 0 -31 10 -42 28l-61 100c-10 15 -13 23 -13 34c0 27 25 49 52 49
c24 0 38 -14 47 -33l53 -105c5 -11 9 -20 9 -31z" />
    <glyph glyph-name="Agrave.calt" unicode="&#xe014;" horiz-adv-x="617" 
d="M309 510l-89 -256h176zM466 38l-35 100h-247l-35 -100c-10 -30 -32 -48 -71 -48c-43 0 -69 31 -69 66c0 9 5 23 8 32l192 528c15 41 41 75 101 75c59 0 88 -34 102 -75l189 -528c3 -8 7 -23 7 -32c0 -41 -31 -66 -73 -66c-35 0 -60 17 -69 48zM388 805
c0 -24 -21 -42 -45 -42c-18 0 -31 10 -42 28l-61 100c-10 15 -13 23 -13 34c0 27 25 49 52 49c24 0 38 -14 47 -33l53 -105c5 -11 9 -20 9 -31z" />
    <glyph glyph-name="Amacron" unicode="&#x100;" horiz-adv-x="694" 
d="M346 556c-35 0 -70 -11 -95 -36c-26 -25 -41 -66 -41 -120v-64h273v64c0 54 -14 95 -40 120c-25 24 -60 36 -97 36zM627 406v-346c0 -39 -33 -70 -72 -70c-40 0 -72 31 -72 70v148h-273v-148c0 -39 -33 -70 -72 -70c-40 0 -72 31 -72 70v346c0 82 32 166 100 223
c44 36 105 61 180 61c77 0 138 -24 182 -61c69 -57 99 -141 99 -223zM490 870c0 -29 -24 -53 -53 -53h-182c-30 0 -54 24 -54 53c0 30 24 54 54 54h182c29 0 53 -24 53 -54z" />
    <glyph glyph-name="Amacron.2" unicode="&#xe015;" horiz-adv-x="694" 
d="M210 400v-63h273v63c0 54 -14 95 -40 120c-25 24 -60 36 -97 36c-35 0 -70 -11 -95 -36c-26 -25 -41 -66 -41 -120zM627 406v-346c0 -39 -33 -70 -72 -70c-40 0 -72 31 -72 70v150h-273v-150c0 -39 -33 -70 -72 -70c-40 0 -72 31 -72 70v346c0 82 32 166 100 223
c44 36 105 61 180 61c77 0 138 -24 182 -61c69 -57 99 -141 99 -223zM491 870c0 -29 -24 -53 -53 -53h-182c-30 0 -54 24 -54 53c0 30 24 54 54 54h182c29 0 53 -24 53 -54z" />
    <glyph glyph-name="Amacron.3" unicode="&#xe016;" horiz-adv-x="659" 
d="M72 578c0 35 28 59 66 75c67 30 129 37 197 37c87 0 156 -23 201 -75c37 -43 57 -105 57 -187v-368c0 -39 -32 -70 -72 -70c-31 0 -57 18 -67 44c-50 -30 -103 -44 -188 -44c-111 0 -220 69 -220 196c0 77 35 131 97 167c72 42 180 60 306 66c-1 86 -34 141 -126 141
c-85 0 -120 -49 -183 -49c-39 0 -68 29 -68 67zM201 193c0 -59 52 -83 118 -83c44 0 90 14 130 41v156c-66 -3 -134 -11 -179 -30c-42 -18 -69 -45 -69 -84zM479 870c0 -29 -24 -53 -53 -53h-182c-30 0 -54 24 -54 53c0 30 24 54 54 54h182c29 0 53 -24 53 -54z" />
    <glyph glyph-name="Amacron.calt" unicode="&#xe017;" horiz-adv-x="617" 
d="M309 510l-89 -256h176zM466 38l-35 100h-247l-35 -100c-10 -30 -32 -48 -71 -48c-43 0 -69 31 -69 66c0 9 5 23 8 32l192 528c15 41 41 75 101 75c59 0 88 -34 102 -75l189 -528c3 -8 7 -23 7 -32c0 -41 -31 -66 -73 -66c-35 0 -60 17 -69 48zM453 870
c0 -29 -24 -53 -53 -53h-182c-30 0 -54 24 -54 53c0 30 24 54 54 54h182c29 0 53 -24 53 -54z" />
    <glyph glyph-name="Aogonek" unicode="&#x104;" horiz-adv-x="694" 
d="M627 406v-346c0 -39 -33 -70 -72 -70c-10 0 -20 2 -29 6c-6 -19 -11 -42 -11 -60c0 -26 10 -53 62 -53c17 0 31 6 47 6c25 0 36 -16 36 -38c0 -24 -11 -39 -37 -48c-18 -6 -39 -9 -57 -9c-93 0 -136 39 -136 108c0 52 27 111 53 159v147h-273v-148c0 -39 -33 -70 -72 -70
c-40 0 -72 31 -72 70v346c0 82 32 166 100 223c44 36 105 61 180 61c77 0 138 -24 182 -61c69 -57 99 -141 99 -223zM346 556c-35 0 -70 -11 -95 -36c-26 -25 -41 -66 -41 -120v-64h273v64c0 54 -14 95 -40 120c-25 24 -60 36 -97 36z" />
    <glyph glyph-name="Aogonek.2" unicode="&#xe018;" horiz-adv-x="694" 
d="M627 406v-346c0 -39 -33 -70 -72 -70c-10 0 -20 2 -29 6c-6 -19 -11 -42 -11 -60c0 -26 10 -53 62 -53c17 0 31 6 47 6c25 0 36 -16 36 -38c0 -24 -11 -39 -37 -48c-18 -6 -39 -9 -57 -9c-93 0 -136 39 -136 108c0 52 27 111 53 159v149h-273v-150c0 -39 -33 -70 -72 -70
c-40 0 -72 31 -72 70v346c0 82 32 166 100 223c44 36 105 61 180 61c77 0 138 -24 182 -61c69 -57 99 -141 99 -223zM210 400v-63h273v63c0 54 -14 95 -40 120c-25 24 -60 36 -97 36c-35 0 -70 -11 -95 -36c-26 -25 -41 -66 -41 -120z" />
    <glyph glyph-name="Aogonek.3" unicode="&#xe019;" horiz-adv-x="659" 
d="M72 578c0 35 28 59 66 75c67 30 129 37 197 37c87 0 156 -23 201 -75c37 -43 57 -105 57 -187v-368c0 -35 -26 -63 -60 -69c-6 -18 -10 -37 -10 -55c0 -26 10 -53 62 -53c17 0 31 6 47 6c25 0 37 -16 37 -38c0 -24 -11 -39 -38 -48c-17 -6 -39 -9 -56 -9
c-94 0 -137 39 -137 108c0 36 12 75 29 111c-6 6 -10 13 -13 21c-50 -30 -103 -44 -188 -44c-111 0 -220 69 -220 196c0 77 35 131 97 167c72 42 180 60 306 66c-1 86 -34 141 -126 141c-85 0 -120 -49 -183 -49c-39 0 -68 29 -68 67zM201 193c0 -59 52 -83 118 -83
c44 0 90 14 130 41v156c-66 -3 -134 -11 -179 -30c-42 -18 -69 -45 -69 -84z" />
    <glyph glyph-name="Aogonek.calt" unicode="&#xe01a;" horiz-adv-x="617" 
d="M424 -98c0 43 20 94 41 138l-34 98h-247l-35 -100c-10 -30 -32 -48 -71 -48c-43 0 -69 31 -69 66c0 9 5 23 8 32l192 528c15 41 41 75 101 75c59 0 88 -34 102 -75l189 -528c3 -8 7 -23 7 -32c0 -41 -31 -66 -73 -66c-6 0 -12 1 -17 2c-7 -19 -10 -39 -10 -56
c0 -26 10 -53 62 -53c17 0 32 6 47 6c25 0 37 -16 37 -38c0 -24 -11 -39 -38 -48c-17 -6 -38 -9 -56 -9c-94 0 -136 39 -136 108zM309 510l-89 -256h176z" />
    <glyph glyph-name="Aring" unicode="&#xc5;" horiz-adv-x="694" 
d="M346 556c-35 0 -70 -11 -95 -36c-26 -25 -41 -66 -41 -120v-64h273v64c0 54 -14 95 -40 120c-25 24 -60 36 -97 36zM627 406v-346c0 -39 -33 -70 -72 -70c-40 0 -72 31 -72 70v148h-273v-148c0 -39 -33 -70 -72 -70c-40 0 -72 31 -72 70v346c0 82 32 166 100 223
c44 36 105 61 180 61c77 0 138 -24 182 -61c69 -57 99 -141 99 -223zM468 858c0 -67 -55 -121 -121 -121c-68 0 -122 54 -122 121c0 68 54 122 122 122c66 0 121 -54 121 -122zM410 858c0 36 -29 64 -63 64c-36 0 -63 -28 -63 -64c0 -35 27 -64 63 -64c34 0 63 29 63 64z
" />
    <glyph glyph-name="Aring.2" unicode="&#xe01b;" horiz-adv-x="694" 
d="M210 400v-63h273v63c0 54 -14 95 -40 120c-25 24 -60 36 -97 36c-35 0 -70 -11 -95 -36c-26 -25 -41 -66 -41 -120zM627 406v-346c0 -39 -33 -70 -72 -70c-40 0 -72 31 -72 70v150h-273v-150c0 -39 -33 -70 -72 -70c-40 0 -72 31 -72 70v346c0 82 32 166 100 223
c44 36 105 61 180 61c77 0 138 -24 182 -61c69 -57 99 -141 99 -223zM468 858c0 -67 -55 -121 -121 -121c-68 0 -122 54 -122 121c0 68 54 122 122 122c66 0 121 -54 121 -122zM410 858c0 36 -29 64 -63 64c-36 0 -63 -28 -63 -64c0 -35 27 -64 63 -64c34 0 63 29 63 64z
" />
    <glyph glyph-name="Aring.3" unicode="&#xe01c;" horiz-adv-x="659" 
d="M72 578c0 35 28 59 66 75c67 30 129 37 197 37c87 0 156 -23 201 -75c37 -43 57 -105 57 -187v-368c0 -39 -32 -70 -72 -70c-31 0 -57 18 -67 44c-50 -30 -103 -44 -188 -44c-111 0 -220 69 -220 196c0 77 35 131 97 167c72 42 180 60 306 66c-1 86 -34 141 -126 141
c-85 0 -120 -49 -183 -49c-39 0 -68 29 -68 67zM201 193c0 -59 52 -83 118 -83c44 0 90 14 130 41v156c-66 -3 -134 -11 -179 -30c-42 -18 -69 -45 -69 -84zM455 858c0 -67 -55 -121 -121 -121c-68 0 -122 54 -122 121c0 68 54 122 122 122c66 0 121 -54 121 -122zM397 858
c0 36 -29 64 -63 64c-36 0 -63 -28 -63 -64c0 -35 27 -64 63 -64c34 0 63 29 63 64z" />
    <glyph glyph-name="Aring.calt" unicode="&#xe01d;" horiz-adv-x="617" 
d="M309 510l-89 -256h176zM466 38l-35 100h-247l-35 -100c-10 -30 -32 -48 -71 -48c-43 0 -69 31 -69 66c0 9 5 23 8 32l192 528c15 41 41 75 101 75c59 0 88 -34 102 -75l189 -528c3 -8 7 -23 7 -32c0 -41 -31 -66 -73 -66c-35 0 -60 17 -69 48zM430 858
c0 -67 -55 -121 -121 -121c-68 0 -122 54 -122 121c0 68 54 122 122 122c66 0 121 -54 121 -122zM372 858c0 36 -29 64 -63 64c-36 0 -63 -28 -63 -64c0 -35 27 -64 63 -64c34 0 63 29 63 64z" />
    <glyph glyph-name="Asmall" unicode="&#xf761;" horiz-adv-x="599" 
d="M298 429c-28 0 -56 -11 -75 -32c-16 -19 -26 -45 -26 -79v-43h204v43c0 34 -9 60 -26 79c-19 22 -47 32 -77 32zM534 323v-267c0 -35 -31 -64 -67 -64s-66 29 -66 64v106h-204v-106c0 -35 -30 -64 -66 -64s-66 29 -66 64v267c0 58 21 120 64 164c38 38 94 65 169 65
c78 0 133 -27 172 -65c44 -43 64 -106 64 -164z" />
    <glyph glyph-name="Asmall.2" unicode="&#xe01e;" horiz-adv-x="598" 
d="M298 429c-28 0 -56 -11 -75 -32c-16 -19 -26 -45 -26 -79v-50h204v50c0 34 -9 60 -26 79c-19 22 -47 32 -77 32zM534 323v-267c0 -35 -31 -64 -67 -64s-66 29 -66 64v98h-204v-98c0 -35 -30 -64 -66 -64s-66 29 -66 64v267c0 58 21 120 64 164c38 38 94 65 169 65
c78 0 133 -27 172 -65c44 -43 64 -106 64 -164z" />
    <glyph glyph-name="Asmall.3" unicode="&#xe01f;" horiz-adv-x="561" 
d="M49 155c0 75 39 119 96 146c62 30 147 36 218 39c-1 32 -8 54 -21 70c-16 17 -36 23 -61 23c-29 0 -54 -10 -78 -20c-25 -11 -44 -22 -65 -22c-38 0 -64 27 -64 63c0 35 25 54 57 68c54 24 104 30 156 30c70 0 126 -19 163 -62c30 -35 46 -84 46 -152v-282
c0 -37 -30 -64 -66 -64c-27 0 -50 15 -61 36c-45 -27 -84 -36 -142 -36c-94 0 -178 59 -178 163zM263 105c39 0 70 11 100 29v99c-41 -2 -91 -7 -127 -19c-30 -11 -51 -27 -51 -54c0 -40 38 -55 78 -55z" />
    <glyph glyph-name="Asmall.calt" unicode="&#xe020;" horiz-adv-x="514" 
d="M377 35l-26 72h-189l-26 -73c-9 -24 -32 -42 -64 -42c-39 0 -62 26 -62 61c0 6 4 22 6 28l155 405c12 33 36 66 88 66s77 -33 89 -67l149 -403c2 -5 6 -20 6 -28c0 -36 -25 -62 -62 -62c-31 0 -56 18 -64 43zM258 381l-63 -171h125z" />
    <glyph glyph-name="Asmallacute" unicode="&#xe021;" horiz-adv-x="598" 
d="M298 429c-28 0 -56 -11 -75 -32c-16 -19 -26 -45 -26 -79v-43h204v43c0 34 -9 60 -26 79c-19 22 -47 32 -77 32zM534 323v-267c0 -35 -31 -64 -67 -64s-66 29 -66 64v106h-204v-106c0 -35 -30 -64 -66 -64s-66 29 -66 64v267c0 58 21 120 64 164c38 38 94 65 169 65
c78 0 133 -27 172 -65c44 -43 64 -106 64 -164zM219 665c0 11 3 20 9 31l53 105c9 19 23 33 47 33c27 0 52 -22 52 -49c0 -11 -4 -19 -13 -34l-61 -100c-11 -17 -24 -28 -43 -28c-23 0 -44 18 -44 42z" />
    <glyph glyph-name="Asmallacute.2" unicode="&#xe022;" horiz-adv-x="598" 
d="M298 429c-28 0 -56 -11 -75 -32c-16 -19 -26 -45 -26 -79v-50h204v50c0 34 -9 60 -26 79c-19 22 -47 32 -77 32zM534 323v-267c0 -35 -31 -64 -67 -64s-66 29 -66 64v98h-204v-98c0 -35 -30 -64 -66 -64s-66 29 -66 64v267c0 58 21 120 64 164c38 38 94 65 169 65
c78 0 133 -27 172 -65c44 -43 64 -106 64 -164zM228 665c0 11 3 20 9 31l53 105c9 19 23 33 47 33c27 0 52 -22 52 -49c0 -11 -4 -19 -13 -34l-61 -100c-11 -17 -24 -28 -43 -28c-23 0 -44 18 -44 42z" />
    <glyph glyph-name="Asmallacute.3" unicode="&#xe023;" horiz-adv-x="561" 
d="M49 155c0 75 39 119 96 146c62 30 147 36 218 39c-1 32 -8 54 -21 70c-16 17 -36 23 -61 23c-29 0 -54 -10 -78 -20c-25 -11 -44 -22 -65 -22c-38 0 -64 27 -64 63c0 35 25 54 57 68c54 24 104 30 156 30c70 0 126 -19 163 -62c30 -35 46 -84 46 -152v-282
c0 -37 -30 -64 -66 -64c-27 0 -50 15 -61 36c-45 -27 -84 -36 -142 -36c-94 0 -178 59 -178 163zM263 105c39 0 70 11 100 29v99c-41 -2 -91 -7 -127 -19c-30 -11 -51 -27 -51 -54c0 -40 38 -55 78 -55zM199 665c0 11 3 20 9 31l53 105c9 19 23 33 47 33c27 0 52 -22 52 -49
c0 -11 -4 -19 -13 -34l-61 -100c-11 -17 -24 -28 -43 -28c-23 0 -44 18 -44 42z" />
    <glyph glyph-name="Asmallacute.calt" unicode="&#xe024;" horiz-adv-x="514" 
d="M377 35l-26 72h-189l-26 -73c-9 -24 -32 -42 -64 -42c-39 0 -62 26 -62 61c0 6 4 22 6 28l155 405c12 33 36 66 88 66s77 -33 89 -67l149 -403c2 -5 6 -20 6 -28c0 -36 -25 -62 -62 -62c-31 0 -56 18 -64 43zM258 381l-63 -171h125zM168 665c0 11 3 20 9 31l53 105
c9 19 23 33 47 33c27 0 52 -22 52 -49c0 -11 -4 -19 -13 -34l-61 -100c-11 -17 -24 -28 -43 -28c-23 0 -44 18 -44 42z" />
    <glyph glyph-name="Asmallbreve" horiz-adv-x="599" 
d="M298 429c-28 0 -56 -11 -75 -32c-16 -19 -26 -45 -26 -79v-43h204v43c0 34 -9 60 -26 79c-19 22 -47 32 -77 32zM534 323v-267c0 -35 -31 -64 -67 -64s-66 29 -66 64v106h-204v-106c0 -35 -30 -64 -66 -64s-66 29 -66 64v267c0 58 21 120 64 164c38 38 94 65 169 65
c78 0 133 -27 172 -65c44 -43 64 -106 64 -164zM298 725c66 0 63 78 114 78c26 0 48 -20 48 -46c0 -72 -83 -126 -162 -126s-162 54 -162 126c0 26 22 46 48 46c51 0 48 -78 114 -78z" />
    <glyph glyph-name="Asmallbreve.2" unicode="&#xe026;" horiz-adv-x="599" 
d="M298 725c66 0 63 78 114 78c26 0 48 -20 48 -46c0 -72 -83 -126 -162 -126s-162 54 -162 126c0 26 22 46 48 46c51 0 48 -78 114 -78zM298 429c-28 0 -56 -11 -75 -32c-16 -19 -26 -45 -26 -79v-50h204v50c0 34 -9 60 -26 79c-19 22 -47 32 -77 32zM534 323v-267
c0 -35 -31 -64 -67 -64s-66 29 -66 64v98h-204v-98c0 -35 -30 -64 -66 -64s-66 29 -66 64v267c0 58 21 120 64 164c38 38 94 65 169 65c78 0 133 -27 172 -65c44 -43 64 -106 64 -164z" />
    <glyph glyph-name="Asmallbreve.3" unicode="&#xe027;" horiz-adv-x="561" 
d="M281 725c66 0 63 78 114 78c26 0 48 -20 48 -46c0 -72 -83 -126 -162 -126s-162 54 -162 126c0 26 22 46 48 46c51 0 48 -78 114 -78zM49 155c0 75 39 119 96 146c62 30 147 36 218 39c-1 32 -8 54 -21 70c-16 17 -36 23 -61 23c-29 0 -54 -10 -78 -20
c-25 -11 -44 -22 -65 -22c-38 0 -64 27 -64 63c0 35 25 54 57 68c54 24 104 30 156 30c70 0 126 -19 163 -62c30 -35 46 -84 46 -152v-282c0 -37 -30 -64 -66 -64c-27 0 -50 15 -61 36c-45 -27 -84 -36 -142 -36c-94 0 -178 59 -178 163zM263 105c39 0 70 11 100 29v99
c-41 -2 -91 -7 -127 -19c-30 -11 -51 -27 -51 -54c0 -40 38 -55 78 -55z" />
    <glyph glyph-name="Asmallbreve.calt" unicode="&#xe028;" horiz-adv-x="514" 
d="M260 725c66 0 63 78 114 78c26 0 48 -20 48 -46c0 -72 -83 -126 -162 -126s-162 54 -162 126c0 26 22 46 48 46c51 0 48 -78 114 -78zM377 35l-26 72h-189l-26 -73c-9 -24 -32 -42 -64 -42c-39 0 -62 26 -62 61c0 6 4 22 6 28l155 405c12 33 36 66 88 66s77 -33 89 -67
l149 -403c2 -5 6 -20 6 -28c0 -36 -25 -62 -62 -62c-31 0 -56 18 -64 43zM258 381l-63 -171h125z" />
    <glyph glyph-name="Asmallcircumflex" unicode="&#xe029;" horiz-adv-x="598" 
d="M298 429c-28 0 -56 -11 -75 -32c-16 -19 -26 -45 -26 -79v-43h204v43c0 34 -9 60 -26 79c-19 22 -47 32 -77 32zM534 323v-267c0 -35 -31 -64 -67 -64s-66 29 -66 64v106h-204v-106c0 -35 -30 -64 -66 -64s-66 29 -66 64v267c0 58 21 120 64 164c38 38 94 65 169 65
c78 0 133 -27 172 -65c44 -43 64 -106 64 -164zM299 832c16 0 27 -7 37 -16l106 -101c13 -12 22 -24 22 -38c0 -29 -22 -47 -47 -47c-14 0 -25 5 -35 15l-83 80l-83 -80c-10 -10 -21 -15 -35 -15c-25 0 -47 18 -47 47c0 14 9 26 22 38l106 101c10 9 21 16 37 16z" />
    <glyph glyph-name="Asmallcircumflex.2" unicode="&#xe02a;" horiz-adv-x="598" 
d="M298 429c-28 0 -56 -11 -75 -32c-16 -19 -26 -45 -26 -79v-50h204v50c0 34 -9 60 -26 79c-19 22 -47 32 -77 32zM534 323v-267c0 -35 -31 -64 -67 -64s-66 29 -66 64v98h-204v-98c0 -35 -30 -64 -66 -64s-66 29 -66 64v267c0 58 21 120 64 164c38 38 94 65 169 65
c78 0 133 -27 172 -65c44 -43 64 -106 64 -164zM300 832c16 0 27 -7 37 -16l106 -101c13 -12 22 -24 22 -38c0 -29 -22 -47 -47 -47c-14 0 -25 5 -35 15l-83 80l-83 -80c-10 -10 -21 -15 -35 -15c-25 0 -47 18 -47 47c0 14 9 26 22 38l106 101c10 9 21 16 37 16z" />
    <glyph glyph-name="Asmallcircumflex.3" unicode="&#xe02b;" horiz-adv-x="561" 
d="M49 155c0 75 39 119 96 146c62 30 147 36 218 39c-1 32 -8 54 -21 70c-16 17 -36 23 -61 23c-29 0 -54 -10 -78 -20c-25 -11 -44 -22 -65 -22c-38 0 -64 27 -64 63c0 35 25 54 57 68c54 24 104 30 156 30c70 0 126 -19 163 -62c30 -35 46 -84 46 -152v-282
c0 -37 -30 -64 -66 -64c-27 0 -50 15 -61 36c-45 -27 -84 -36 -142 -36c-94 0 -178 59 -178 163zM263 105c39 0 70 11 100 29v99c-41 -2 -91 -7 -127 -19c-30 -11 -51 -27 -51 -54c0 -40 38 -55 78 -55zM276 832c16 0 27 -7 37 -16l106 -101c13 -12 22 -24 22 -38
c0 -29 -22 -47 -47 -47c-14 0 -25 5 -35 15l-83 80l-83 -80c-10 -10 -21 -15 -35 -15c-25 0 -47 18 -47 47c0 14 9 26 22 38l106 101c10 9 21 16 37 16z" />
    <glyph glyph-name="Asmallcircumflex.calt" unicode="&#xe02c;" horiz-adv-x="514" 
d="M377 35l-26 72h-189l-26 -73c-9 -24 -32 -42 -64 -42c-39 0 -62 26 -62 61c0 6 4 22 6 28l155 405c12 33 36 66 88 66s77 -33 89 -67l149 -403c2 -5 6 -20 6 -28c0 -36 -25 -62 -62 -62c-31 0 -56 18 -64 43zM258 381l-63 -171h125zM256 832c16 0 27 -7 37 -16l106 -101
c13 -12 22 -24 22 -38c0 -29 -22 -47 -47 -47c-14 0 -25 5 -35 15l-83 80l-83 -80c-10 -10 -21 -15 -35 -15c-25 0 -47 18 -47 47c0 14 9 26 22 38l106 101c10 9 21 16 37 16z" />
    <glyph glyph-name="Asmalldieresis" unicode="&#xe02d;" horiz-adv-x="598" 
d="M298 429c-28 0 -56 -11 -75 -32c-16 -19 -26 -45 -26 -79v-43h204v43c0 34 -9 60 -26 79c-19 22 -47 32 -77 32zM534 323v-267c0 -35 -31 -64 -67 -64s-66 29 -66 64v106h-204v-106c0 -35 -30 -64 -66 -64s-66 29 -66 64v267c0 58 21 120 64 164c38 38 94 65 169 65
c78 0 133 -27 172 -65c44 -43 64 -106 64 -164zM183 644c-42 0 -76 35 -76 77s34 76 76 76c43 0 76 -34 76 -76s-33 -77 -76 -77zM415 644c-42 0 -76 35 -76 77s34 76 76 76s76 -34 76 -76s-34 -77 -76 -77z" />
    <glyph glyph-name="Asmalldieresis.2" unicode="&#xe02e;" horiz-adv-x="598" 
d="M298 429c-28 0 -56 -11 -75 -32c-16 -19 -26 -45 -26 -79v-50h204v50c0 34 -9 60 -26 79c-19 22 -47 32 -77 32zM534 323v-267c0 -35 -31 -64 -67 -64s-66 29 -66 64v98h-204v-98c0 -35 -30 -64 -66 -64s-66 29 -66 64v267c0 58 21 120 64 164c38 38 94 65 169 65
c78 0 133 -27 172 -65c44 -43 64 -106 64 -164zM184 644c-42 0 -76 35 -76 77s34 76 76 76c43 0 76 -34 76 -76s-33 -77 -76 -77zM416 644c-42 0 -76 35 -76 77s34 76 76 76s76 -34 76 -76s-34 -77 -76 -77z" />
    <glyph glyph-name="Asmalldieresis.3" unicode="&#xe02f;" horiz-adv-x="561" 
d="M49 155c0 75 39 119 96 146c62 30 147 36 218 39c-1 32 -8 54 -21 70c-16 17 -36 23 -61 23c-29 0 -54 -10 -78 -20c-25 -11 -44 -22 -65 -22c-38 0 -64 27 -64 63c0 35 25 54 57 68c54 24 104 30 156 30c70 0 126 -19 163 -62c30 -35 46 -84 46 -152v-282
c0 -37 -30 -64 -66 -64c-27 0 -50 15 -61 36c-45 -27 -84 -36 -142 -36c-94 0 -178 59 -178 163zM263 105c39 0 70 11 100 29v99c-41 -2 -91 -7 -127 -19c-30 -11 -51 -27 -51 -54c0 -40 38 -55 78 -55zM159 644c-42 0 -76 35 -76 77s34 76 76 76c43 0 76 -34 76 -76
s-33 -77 -76 -77zM391 644c-42 0 -76 35 -76 77s34 76 76 76s76 -34 76 -76s-34 -77 -76 -77z" />
    <glyph glyph-name="Asmalldieresis.calt" unicode="&#xe030;" horiz-adv-x="514" 
d="M377 35l-26 72h-189l-26 -73c-9 -24 -32 -42 -64 -42c-39 0 -62 26 -62 61c0 6 4 22 6 28l155 405c12 33 36 66 88 66s77 -33 89 -67l149 -403c2 -5 6 -20 6 -28c0 -36 -25 -62 -62 -62c-31 0 -56 18 -64 43zM258 381l-63 -171h125zM140 644c-42 0 -76 35 -76 77
s34 76 76 76c43 0 76 -34 76 -76s-33 -77 -76 -77zM372 644c-42 0 -76 35 -76 77s34 76 76 76s76 -34 76 -76s-34 -77 -76 -77z" />
    <glyph glyph-name="Asmallgrave" unicode="&#xe031;" horiz-adv-x="598" 
d="M298 429c-28 0 -56 -11 -75 -32c-16 -19 -26 -45 -26 -79v-43h204v43c0 34 -9 60 -26 79c-19 22 -47 32 -77 32zM534 323v-267c0 -35 -31 -64 -67 -64s-66 29 -66 64v106h-204v-106c0 -35 -30 -64 -66 -64s-66 29 -66 64v267c0 58 21 120 64 164c38 38 94 65 169 65
c78 0 133 -27 172 -65c44 -43 64 -106 64 -164zM380 665c0 -24 -21 -42 -45 -42c-18 0 -31 10 -42 28l-61 100c-10 15 -13 23 -13 34c0 27 25 49 52 49c24 0 38 -14 47 -33l53 -105c5 -11 9 -20 9 -31z" />
    <glyph glyph-name="Asmallgrave.2" unicode="&#xe032;" horiz-adv-x="598" 
d="M298 429c-28 0 -56 -11 -75 -32c-16 -19 -26 -45 -26 -79v-50h204v50c0 34 -9 60 -26 79c-19 22 -47 32 -77 32zM534 323v-267c0 -35 -31 -64 -67 -64s-66 29 -66 64v98h-204v-98c0 -35 -30 -64 -66 -64s-66 29 -66 64v267c0 58 21 120 64 164c38 38 94 65 169 65
c78 0 133 -27 172 -65c44 -43 64 -106 64 -164zM381 665c0 -24 -21 -42 -45 -42c-18 0 -31 10 -42 28l-61 100c-10 15 -13 23 -13 34c0 27 25 49 52 49c24 0 38 -14 47 -33l53 -105c5 -11 9 -20 9 -31z" />
    <glyph glyph-name="Asmallgrave.3" unicode="&#xe033;" horiz-adv-x="561" 
d="M49 155c0 75 39 119 96 146c62 30 147 36 218 39c-1 32 -8 54 -21 70c-16 17 -36 23 -61 23c-29 0 -54 -10 -78 -20c-25 -11 -44 -22 -65 -22c-38 0 -64 27 -64 63c0 35 25 54 57 68c54 24 104 30 156 30c70 0 126 -19 163 -62c30 -35 46 -84 46 -152v-282
c0 -37 -30 -64 -66 -64c-27 0 -50 15 -61 36c-45 -27 -84 -36 -142 -36c-94 0 -178 59 -178 163zM263 105c39 0 70 11 100 29v99c-41 -2 -91 -7 -127 -19c-30 -11 -51 -27 -51 -54c0 -40 38 -55 78 -55zM358 665c0 -24 -21 -42 -45 -42c-18 0 -31 10 -42 28l-61 100
c-10 15 -13 23 -13 34c0 27 25 49 52 49c24 0 38 -14 47 -33l53 -105c5 -11 9 -20 9 -31z" />
    <glyph glyph-name="Asmallgrave.calt" unicode="&#xe034;" horiz-adv-x="514" 
d="M377 35l-26 72h-189l-26 -73c-9 -24 -32 -42 -64 -42c-39 0 -62 26 -62 61c0 6 4 22 6 28l155 405c12 33 36 66 88 66s77 -33 89 -67l149 -403c2 -5 6 -20 6 -28c0 -36 -25 -62 -62 -62c-31 0 -56 18 -64 43zM258 381l-63 -171h125zM338 665c0 -24 -21 -42 -45 -42
c-18 0 -31 10 -42 28l-61 100c-10 15 -13 23 -13 34c0 27 25 49 52 49c24 0 38 -14 47 -33l53 -105c5 -11 9 -20 9 -31z" />
    <glyph glyph-name="Asmallmacron" unicode="&#xe035;" horiz-adv-x="598" 
d="M298 429c-28 0 -56 -11 -75 -32c-16 -19 -26 -45 -26 -79v-43h204v43c0 34 -9 60 -26 79c-19 22 -47 32 -77 32zM534 323v-267c0 -35 -31 -64 -67 -64s-66 29 -66 64v106h-204v-106c0 -35 -30 -64 -66 -64s-66 29 -66 64v267c0 58 21 120 64 164c38 38 94 65 169 65
c78 0 133 -27 172 -65c44 -43 64 -106 64 -164zM443 707c0 -29 -24 -53 -53 -53h-182c-30 0 -54 24 -54 53c0 30 24 54 54 54h182c29 0 53 -24 53 -54z" />
    <glyph glyph-name="Asmallmacron.2" unicode="&#xe036;" horiz-adv-x="598" 
d="M298 429c-28 0 -56 -11 -75 -32c-16 -19 -26 -45 -26 -79v-50h204v50c0 34 -9 60 -26 79c-19 22 -47 32 -77 32zM534 323v-267c0 -35 -31 -64 -67 -64s-66 29 -66 64v98h-204v-98c0 -35 -30 -64 -66 -64s-66 29 -66 64v267c0 58 21 120 64 164c38 38 94 65 169 65
c78 0 133 -27 172 -65c44 -43 64 -106 64 -164zM444 707c0 -29 -24 -53 -53 -53h-182c-30 0 -54 24 -54 53c0 30 24 54 54 54h182c29 0 53 -24 53 -54z" />
    <glyph glyph-name="Asmallmacron.3" unicode="&#xe037;" horiz-adv-x="561" 
d="M49 155c0 75 39 119 96 146c62 30 147 36 218 39c-1 32 -7 54 -21 70c-15 18 -36 23 -61 23c-29 0 -54 -10 -78 -20c-25 -11 -44 -22 -65 -22c-38 0 -64 27 -64 63c0 35 25 54 57 68c54 24 104 30 156 30c70 0 126 -19 163 -62c30 -35 46 -84 46 -152v-282
c0 -37 -30 -64 -66 -64c-27 0 -50 15 -61 36c-45 -27 -84 -36 -142 -36c-94 0 -178 59 -178 163zM263 105c39 0 70 11 100 29v99c-41 -2 -91 -7 -127 -19c-30 -11 -51 -27 -51 -54c0 -40 38 -55 78 -55zM420 707c0 -29 -24 -53 -53 -53h-182c-30 0 -54 24 -54 53
c0 30 24 54 54 54h182c29 0 53 -24 53 -54z" />
    <glyph glyph-name="Asmallmacron.calt" unicode="&#xe038;" horiz-adv-x="514" 
d="M377 35l-26 72h-189l-26 -73c-9 -24 -32 -42 -64 -42c-39 0 -62 26 -62 61c0 6 4 22 6 28l155 405c12 33 36 66 88 66s77 -33 89 -67l149 -403c2 -5 6 -20 6 -28c0 -36 -25 -62 -62 -62c-31 0 -56 18 -64 43zM258 381l-63 -171h125zM400 707c0 -29 -24 -53 -53 -53h-182
c-30 0 -54 24 -54 53c0 30 24 54 54 54h182c29 0 53 -24 53 -54z" />
    <glyph glyph-name="Asmallogonek" unicode="&#xe039;" horiz-adv-x="598" 
d="M534 323v-267c0 -32 -26 -59 -58 -63c-7 -21 -11 -37 -11 -57c0 -26 10 -53 62 -53c17 0 31 6 47 6c25 0 37 -16 37 -38c0 -24 -11 -39 -38 -48c-17 -6 -39 -9 -56 -9c-94 0 -137 39 -137 108c0 32 13 70 36 113c-9 11 -15 25 -15 41v106h-204v-106
c0 -35 -30 -64 -66 -64s-66 29 -66 64v267c0 58 21 120 64 164c38 38 94 65 169 65c78 0 133 -27 172 -65c44 -43 64 -106 64 -164zM298 429c-28 0 -56 -11 -75 -32c-16 -19 -26 -45 -26 -79v-43h204v43c0 34 -9 60 -26 79c-19 22 -47 32 -77 32z" />
    <glyph glyph-name="Asmallogonek.2" unicode="&#xe03a;" horiz-adv-x="598" 
d="M534 323v-267c0 -33 -26 -59 -59 -63c-7 -21 -11 -37 -11 -57c0 -26 10 -53 62 -53c17 0 31 6 47 6c25 0 37 -16 37 -38c0 -24 -11 -39 -38 -48c-17 -6 -39 -9 -56 -9c-94 0 -137 39 -137 108c0 32 13 70 37 114c-10 11 -15 25 -15 40v98h-204v-98c0 -35 -30 -64 -66 -64
s-66 29 -66 64v267c0 58 21 120 64 164c38 38 94 65 169 65c78 0 133 -27 172 -65c44 -43 64 -106 64 -164zM298 429c-28 0 -56 -11 -75 -32c-16 -19 -26 -45 -26 -79v-50h204v50c0 34 -9 60 -26 79c-19 22 -47 32 -77 32z" />
    <glyph glyph-name="Asmallogonek.3" unicode="&#xe03b;" horiz-adv-x="561" 
d="M49 155c0 75 39 119 96 146c62 30 147 36 218 39c-1 32 -8 54 -21 70c-16 17 -36 23 -61 23c-29 0 -54 -10 -78 -20c-25 -11 -44 -22 -65 -22c-38 0 -64 27 -64 63c0 35 25 54 57 68c54 24 104 30 156 30c70 0 126 -19 163 -62c30 -35 46 -84 46 -152v-282
c0 -31 -21 -55 -49 -62c-6 -19 -12 -39 -12 -58c0 -26 10 -53 62 -53c18 0 32 6 47 6c25 0 37 -16 37 -38c0 -24 -11 -39 -38 -48c-17 -6 -38 -9 -56 -9c-93 0 -136 39 -136 108c0 36 12 75 28 111c-4 4 -7 9 -10 15c-45 -27 -84 -36 -142 -36c-94 0 -178 59 -178 163z
M263 105c39 0 70 11 100 29v99c-41 -2 -91 -7 -127 -19c-30 -11 -51 -27 -51 -54c0 -40 38 -55 78 -55z" />
    <glyph glyph-name="Asmallogonek.calt" unicode="&#xe03c;" horiz-adv-x="514" 
d="M377 35l-26 72h-189l-26 -73c-9 -24 -32 -42 -64 -42c-39 0 -62 26 -62 61c0 6 4 22 6 28l155 405c12 33 36 66 88 66s77 -33 89 -67l149 -403c2 -5 6 -20 6 -28c0 -35 -23 -60 -58 -62c-7 -20 -11 -36 -11 -56c0 -26 10 -53 62 -53c17 0 31 6 47 6c25 0 37 -16 37 -38
c0 -24 -11 -39 -38 -48c-17 -6 -39 -9 -56 -9c-94 0 -137 39 -137 108c0 32 14 71 37 115c-4 5 -7 11 -9 18zM258 381l-63 -171h125z" />
    <glyph glyph-name="Asmallring" unicode="&#xe03d;" horiz-adv-x="598" 
d="M298 429c-28 0 -56 -11 -75 -32c-16 -19 -26 -45 -26 -79v-43h204v43c0 34 -9 60 -26 79c-19 22 -47 32 -77 32zM534 323v-267c0 -35 -31 -64 -67 -64s-66 29 -66 64v106h-204v-106c0 -35 -30 -64 -66 -64s-66 29 -66 64v267c0 58 21 120 64 164c38 38 94 65 169 65
c78 0 133 -27 172 -65c44 -43 64 -106 64 -164zM421 727c0 -67 -55 -121 -121 -121c-68 0 -122 54 -122 121c0 68 54 122 122 122c66 0 121 -54 121 -122zM363 727c0 36 -29 64 -63 64c-36 0 -63 -28 -63 -64c0 -35 27 -64 63 -64c34 0 63 29 63 64z" />
    <glyph glyph-name="Asmallring.2" unicode="&#xe03e;" horiz-adv-x="598" 
d="M298 429c-28 0 -56 -11 -75 -32c-16 -19 -26 -45 -26 -79v-50h204v50c0 34 -9 60 -26 79c-19 22 -47 32 -77 32zM534 323v-267c0 -35 -31 -64 -67 -64s-66 29 -66 64v98h-204v-98c0 -35 -30 -64 -66 -64s-66 29 -66 64v267c0 58 21 120 64 164c38 38 94 65 169 65
c78 0 133 -27 172 -65c44 -43 64 -106 64 -164zM422 727c0 -67 -55 -121 -121 -121c-68 0 -122 54 -122 121c0 68 54 122 122 122c66 0 121 -54 121 -122zM364 727c0 36 -29 64 -63 64c-36 0 -63 -28 -63 -64c0 -35 27 -64 63 -64c34 0 63 29 63 64z" />
    <glyph glyph-name="Asmallring.3" unicode="&#xe03f;" horiz-adv-x="561" 
d="M49 155c0 75 39 119 96 146c62 30 147 36 218 39c-1 32 -8 54 -21 70c-16 17 -36 23 -61 23c-29 0 -54 -10 -78 -20c-25 -11 -44 -22 -65 -22c-38 0 -64 27 -64 63c0 35 25 54 57 68c54 24 104 30 156 30c70 0 126 -19 163 -62c30 -35 46 -84 46 -152v-282
c0 -37 -30 -64 -66 -64c-27 0 -50 15 -61 36c-45 -27 -84 -36 -142 -36c-94 0 -178 59 -178 163zM263 105c39 0 70 11 100 29v99c-41 -2 -91 -7 -127 -19c-30 -11 -51 -27 -51 -54c0 -40 38 -55 78 -55zM399 727c0 -67 -55 -121 -121 -121c-68 0 -122 54 -122 121
c0 68 54 122 122 122c66 0 121 -54 121 -122zM341 727c0 36 -29 64 -63 64c-36 0 -63 -28 -63 -64c0 -35 27 -64 63 -64c34 0 63 29 63 64z" />
    <glyph glyph-name="Asmallring.calt" unicode="&#xe040;" horiz-adv-x="514" 
d="M377 35l-26 72h-189l-26 -73c-9 -24 -32 -42 -64 -42c-39 0 -62 26 -62 61c0 6 4 22 6 28l155 405c12 33 36 66 88 66s77 -33 89 -67l149 -403c2 -5 6 -20 6 -28c0 -36 -25 -62 -62 -62c-31 0 -56 18 -64 43zM258 381l-63 -171h125zM378 727c0 -67 -55 -121 -121 -121
c-68 0 -122 54 -122 121c0 68 54 122 122 122c66 0 121 -54 121 -122zM320 727c0 36 -29 64 -63 64c-36 0 -63 -28 -63 -64c0 -35 27 -64 63 -64c34 0 63 29 63 64z" />
    <glyph glyph-name="Asmalltilde" unicode="&#xe041;" horiz-adv-x="598" 
d="M298 429c-28 0 -56 -11 -75 -32c-16 -19 -26 -45 -26 -79v-43h204v43c0 34 -9 60 -26 79c-19 22 -47 32 -77 32zM534 323v-267c0 -35 -31 -64 -67 -64s-66 29 -66 64v106h-204v-106c0 -35 -30 -64 -66 -64s-66 29 -66 64v267c0 58 21 120 64 164c38 38 94 65 169 65
c78 0 133 -27 172 -65c44 -43 64 -106 64 -164zM481 748c0 -22 -10 -43 -23 -58c-21 -23 -52 -37 -82 -37c-35 0 -59 13 -79 27c-23 15 -41 31 -64 31c-37 0 -30 -50 -74 -50c-27 0 -41 20 -41 46c0 22 10 43 24 58c20 23 51 37 82 37c34 0 59 -13 79 -27
c22 -15 41 -32 63 -32c38 0 32 51 75 51c26 0 40 -20 40 -46z" />
    <glyph glyph-name="Asmalltilde.2" unicode="&#xe042;" horiz-adv-x="598" 
d="M298 429c-28 0 -56 -11 -75 -32c-16 -19 -26 -45 -26 -79v-50h204v50c0 34 -9 60 -26 79c-19 22 -47 32 -77 32zM534 323v-267c0 -35 -31 -64 -67 -64s-66 29 -66 64v98h-204v-98c0 -35 -30 -64 -66 -64s-66 29 -66 64v267c0 58 21 120 64 164c38 38 94 65 169 65
c78 0 133 -27 172 -65c44 -43 64 -106 64 -164zM481 748c0 -22 -10 -43 -23 -58c-21 -23 -52 -37 -82 -37c-35 0 -59 13 -79 27c-23 15 -41 31 -64 31c-37 0 -30 -50 -74 -50c-27 0 -41 20 -41 46c0 22 10 43 24 58c20 23 51 37 82 37c34 0 59 -13 79 -27
c22 -15 41 -32 63 -32c38 0 32 51 75 51c26 0 40 -20 40 -46z" />
    <glyph glyph-name="Asmalltilde.3" unicode="&#xe043;" horiz-adv-x="561" 
d="M49 155c0 75 39 119 96 146c62 30 147 36 218 39c-1 32 -8 54 -21 70c-16 17 -36 23 -61 23c-29 0 -54 -10 -78 -20c-25 -11 -44 -22 -65 -22c-38 0 -64 27 -64 63c0 35 25 54 57 68c54 24 104 30 156 30c70 0 126 -19 163 -62c30 -35 46 -84 46 -152v-282
c0 -37 -30 -64 -66 -64c-27 0 -50 15 -61 36c-45 -27 -84 -36 -142 -36c-94 0 -178 59 -178 163zM263 105c39 0 70 11 100 29v99c-41 -2 -91 -7 -127 -19c-30 -11 -51 -27 -51 -54c0 -40 38 -55 78 -55zM456 748c0 -22 -10 -43 -23 -58c-21 -23 -52 -37 -82 -37
c-35 0 -59 13 -79 27c-23 15 -41 31 -64 31c-37 0 -30 -50 -74 -50c-27 0 -41 20 -41 46c0 22 10 43 24 58c20 23 51 37 82 37c34 0 59 -13 79 -27c22 -15 41 -32 63 -32c38 0 32 51 75 51c26 0 40 -20 40 -46z" />
    <glyph glyph-name="Asmalltilde.calt" unicode="&#xe044;" horiz-adv-x="514" 
d="M377 35l-26 72h-189l-26 -73c-9 -24 -32 -42 -64 -42c-39 0 -62 26 -62 61c0 6 4 22 6 28l155 405c12 33 36 66 88 66s77 -33 89 -67l149 -403c2 -5 6 -20 6 -28c0 -36 -25 -62 -62 -62c-31 0 -56 18 -64 43zM258 381l-63 -171h125zM438 748c0 -22 -10 -43 -23 -58
c-21 -23 -52 -37 -82 -37c-35 0 -59 13 -79 27c-23 15 -41 31 -64 31c-37 0 -30 -50 -74 -50c-27 0 -41 20 -41 46c0 22 10 43 24 58c20 23 51 37 82 37c34 0 59 -13 79 -27c22 -15 41 -32 63 -32c38 0 32 51 75 51c26 0 40 -20 40 -46z" />
    <glyph glyph-name="Atilde" unicode="&#xc3;" horiz-adv-x="694" 
d="M346 556c-35 0 -70 -11 -95 -36c-26 -25 -41 -66 -41 -120v-64h273v64c0 54 -14 95 -40 120c-25 24 -60 36 -97 36zM627 406v-346c0 -39 -33 -70 -72 -70c-40 0 -72 31 -72 70v148h-273v-148c0 -39 -33 -70 -72 -70c-40 0 -72 31 -72 70v346c0 82 32 166 100 223
c44 36 105 61 180 61c77 0 138 -24 182 -61c69 -57 99 -141 99 -223zM528 896c0 -22 -10 -43 -23 -58c-21 -23 -52 -37 -82 -37c-35 0 -59 13 -79 27c-23 15 -41 31 -64 31c-37 0 -30 -50 -74 -50c-27 0 -41 20 -41 46c0 22 10 43 24 58c20 23 51 37 82 37
c34 0 59 -13 79 -27c22 -15 41 -32 63 -32c38 0 32 51 75 51c26 0 40 -20 40 -46z" />
    <glyph glyph-name="Atilde.2" unicode="&#xe045;" horiz-adv-x="694" 
d="M210 400v-63h273v63c0 54 -14 95 -40 120c-25 24 -60 36 -97 36c-35 0 -70 -11 -95 -36c-26 -25 -41 -66 -41 -120zM627 406v-346c0 -39 -33 -70 -72 -70c-40 0 -72 31 -72 70v150h-273v-150c0 -39 -33 -70 -72 -70c-40 0 -72 31 -72 70v346c0 82 32 166 100 223
c44 36 105 61 180 61c77 0 138 -24 182 -61c69 -57 99 -141 99 -223zM528 896c0 -22 -10 -43 -23 -58c-21 -23 -52 -37 -82 -37c-35 0 -59 13 -79 27c-23 15 -41 31 -64 31c-37 0 -30 -50 -74 -50c-27 0 -41 20 -41 46c0 22 10 43 24 58c20 23 51 37 82 37
c34 0 59 -13 79 -27c22 -15 41 -32 63 -32c38 0 32 51 75 51c26 0 40 -20 40 -46z" />
    <glyph glyph-name="Atilde.3" unicode="&#xe046;" horiz-adv-x="659" 
d="M72 578c0 35 28 59 66 75c67 30 129 37 197 37c87 0 156 -23 201 -75c37 -43 57 -105 57 -187v-368c0 -39 -32 -70 -72 -70c-31 0 -57 18 -67 44c-50 -30 -103 -44 -188 -44c-111 0 -220 69 -220 196c0 77 35 131 97 167c72 42 180 60 306 66c-1 86 -34 141 -126 141
c-85 0 -120 -49 -183 -49c-39 0 -68 29 -68 67zM201 193c0 -59 52 -83 118 -83c44 0 90 14 130 41v156c-66 -3 -134 -11 -179 -30c-42 -18 -69 -45 -69 -84zM504 896c0 -22 -10 -43 -23 -58c-21 -23 -52 -37 -82 -37c-35 0 -59 13 -79 27c-23 15 -41 31 -64 31
c-37 0 -30 -50 -74 -50c-27 0 -41 20 -41 46c0 22 10 43 24 58c20 23 51 37 82 37c34 0 59 -13 79 -27c22 -15 41 -32 63 -32c38 0 32 51 75 51c26 0 40 -20 40 -46z" />
    <glyph glyph-name="Atilde.calt" unicode="&#xe047;" horiz-adv-x="617" 
d="M309 510l-89 -256h176zM466 38l-35 100h-247l-35 -100c-10 -30 -32 -48 -71 -48c-43 0 -69 31 -69 66c0 9 5 23 8 32l192 528c15 41 41 75 101 75c59 0 88 -34 102 -75l189 -528c3 -8 7 -23 7 -32c0 -41 -31 -66 -73 -66c-35 0 -60 17 -69 48zM490 896
c0 -22 -10 -43 -23 -58c-21 -23 -52 -37 -82 -37c-35 0 -59 13 -79 27c-23 15 -41 31 -64 31c-37 0 -30 -50 -74 -50c-27 0 -41 20 -41 46c0 22 10 43 24 58c20 23 51 37 82 37c34 0 59 -13 79 -27c22 -15 41 -32 63 -32c38 0 32 51 75 51c26 0 40 -20 40 -46z" />
    <glyph glyph-name="B" unicode="B" horiz-adv-x="619" 
d="M577 185c0 -127 -114 -185 -227 -185h-210c-41 0 -72 31 -72 70v541c0 39 31 70 72 70h174c101 0 207 -55 207 -173c0 -69 -30 -121 -85 -146v-2c98 -23 141 -86 141 -175zM377 489c0 50 -40 76 -89 76h-76v-161h75c37 0 90 15 90 85zM430 203c0 50 -34 86 -117 86h-101
v-172h106c59 0 112 17 112 86z" />
    <glyph glyph-name="B.2" unicode="&#xe048;" horiz-adv-x="665" 
d="M623 185c0 -127 -114 -185 -227 -185h-256c-41 0 -72 31 -72 70v541c0 39 31 70 72 70h220c101 0 207 -55 207 -173c0 -69 -30 -121 -85 -146v-2c98 -23 141 -86 141 -175zM423 489c0 50 -40 76 -89 76h-122v-161h121c37 0 90 15 90 85zM476 203c0 50 -34 86 -117 86
h-147v-172h152c59 0 112 17 112 86z" />
    <glyph glyph-name="Bsmall" unicode="&#xf762;" horiz-adv-x="539" 
d="M504 151c0 -108 -87 -151 -187 -151h-186c-37 0 -66 28 -66 64v415c0 36 21 65 63 65h158c95 0 175 -48 175 -144c0 -46 -21 -86 -53 -110c67 -22 96 -69 96 -139zM329 384c0 34 -30 49 -61 49h-71v-101h72c27 0 60 11 60 52zM370 166c0 31 -21 55 -78 55h-95v-110h95
c38 0 78 10 78 55z" />
    <glyph glyph-name="Bsmall.2" unicode="&#xe049;" horiz-adv-x="567" 
d="M532 151c0 -108 -87 -151 -187 -151h-214c-37 0 -66 28 -66 64v415c0 36 21 65 63 65h186c95 0 175 -48 175 -144c0 -46 -21 -86 -53 -110c67 -22 96 -69 96 -139zM357 384c0 34 -30 49 -61 49h-99v-101h100c27 0 60 11 60 52zM398 166c0 31 -21 55 -78 55h-123v-110h123
c38 0 78 10 78 55z" />
    <glyph glyph-name="C" unicode="C" horiz-adv-x="654" 
d="M619 596c0 -40 -30 -67 -67 -67c-44 0 -60 32 -149 32c-116 0 -212 -95 -212 -220c0 -129 93 -220 212 -220c97 0 116 34 159 34c37 0 67 -28 67 -67c0 -33 -28 -57 -60 -70c-45 -17 -100 -28 -165 -28c-208 0 -364 136 -364 351c0 199 170 349 366 349
c64 0 111 -9 155 -25c35 -13 58 -36 58 -69z" />
    <glyph glyph-name="C.2" unicode="&#xe04a;" horiz-adv-x="696" 
d="M416 121c39 0 76 7 99 14c38 10 61 23 83 23c39 0 64 -27 64 -68c0 -34 -32 -58 -64 -70c-47 -17 -109 -30 -177 -30c-235 0 -381 135 -381 351c0 206 164 349 374 349c102 0 252 -36 252 -171c0 -90 -59 -138 -120 -138c-42 0 -73 22 -73 60c0 48 49 38 49 74
c0 28 -43 48 -105 48c-132 0 -226 -92 -226 -222c0 -131 88 -220 225 -220z" />
    <glyph glyph-name="Cacute" unicode="&#x106;" horiz-adv-x="654" 
d="M619 596c0 -40 -30 -67 -67 -67c-44 0 -60 32 -149 32c-116 0 -212 -95 -212 -220c0 -129 93 -220 212 -220c97 0 116 34 159 34c37 0 67 -28 67 -67c0 -33 -28 -57 -60 -70c-45 -17 -100 -28 -165 -28c-208 0 -364 136 -364 351c0 199 170 349 366 349
c64 0 111 -9 155 -25c35 -13 58 -36 58 -69zM287 805c0 11 3 20 9 31l53 105c9 19 23 33 47 33c27 0 52 -22 52 -49c0 -11 -4 -19 -13 -34l-61 -100c-11 -17 -24 -28 -43 -28c-23 0 -44 18 -44 42z" />
    <glyph glyph-name="Cacute.2" unicode="&#xe04b;" horiz-adv-x="696" 
d="M416 121c39 0 76 7 99 14c38 10 61 23 83 23c39 0 64 -27 64 -68c0 -34 -32 -58 -64 -70c-47 -17 -109 -30 -177 -30c-235 0 -381 135 -381 351c0 206 164 349 374 349c102 0 252 -36 252 -171c0 -90 -59 -138 -120 -138c-42 0 -73 22 -73 60c0 48 49 38 49 74
c0 28 -43 48 -105 48c-132 0 -226 -92 -226 -222c0 -131 88 -220 225 -220zM317 805c0 11 3 20 9 31l53 105c9 19 23 33 47 33c27 0 52 -22 52 -49c0 -11 -4 -19 -13 -34l-61 -100c-11 -17 -24 -28 -43 -28c-23 0 -44 18 -44 42z" />
    <glyph glyph-name="Ccaron" unicode="&#x10c;" horiz-adv-x="654" 
d="M619 596c0 -40 -30 -67 -67 -67c-44 0 -60 32 -149 32c-116 0 -212 -95 -212 -220c0 -129 93 -220 212 -220c97 0 116 34 159 34c37 0 67 -28 67 -67c0 -33 -28 -57 -60 -70c-45 -17 -100 -28 -165 -28c-208 0 -364 136 -364 351c0 199 170 349 366 349
c64 0 111 -9 155 -25c35 -13 58 -36 58 -69zM382 770c-16 0 -27 7 -37 16l-106 101c-13 12 -22 24 -22 38c0 29 22 47 47 47c14 0 25 -5 35 -15l83 -80l83 80c10 10 21 15 35 15c25 0 47 -18 47 -47c0 -14 -9 -26 -22 -38l-106 -101c-10 -9 -21 -16 -37 -16z" />
    <glyph glyph-name="Ccaron.2" unicode="&#xe04c;" horiz-adv-x="696" 
d="M416 121c39 0 76 7 99 14c38 10 61 23 83 23c39 0 64 -27 64 -68c0 -34 -32 -58 -64 -70c-47 -17 -109 -30 -177 -30c-235 0 -381 135 -381 351c0 206 164 349 374 349c102 0 252 -36 252 -171c0 -90 -59 -138 -120 -138c-42 0 -73 22 -73 60c0 48 49 38 49 74
c0 28 -43 48 -105 48c-132 0 -226 -92 -226 -222c0 -131 88 -220 225 -220zM392 770c-16 0 -27 7 -37 16l-106 101c-13 12 -22 24 -22 38c0 29 22 47 47 47c14 0 25 -5 35 -15l83 -80l83 80c10 10 21 15 35 15c25 0 47 -18 47 -47c0 -14 -9 -26 -22 -38l-106 -101
c-10 -9 -21 -16 -37 -16z" />
    <glyph glyph-name="Ccedilla" unicode="&#xc7;" horiz-adv-x="654" 
d="M523 -114c0 -75 -72 -101 -147 -101c-12 0 -26 1 -38 4c-19 4 -31 16 -31 34s16 34 34 34c11 0 23 -4 39 -4c27 0 57 7 57 35c0 22 -21 34 -53 34c-14 0 -28 10 -26 31l4 39c-187 17 -322 148 -322 349c0 199 170 349 366 349c64 0 111 -9 155 -25c35 -13 58 -36 58 -69
c0 -40 -30 -67 -67 -67c-44 0 -60 32 -149 32c-116 0 -212 -95 -212 -220c0 -129 93 -220 212 -220c97 0 116 34 159 34c37 0 67 -28 67 -67c0 -33 -28 -57 -60 -70c-39 -15 -85 -25 -138 -27l1 -19c60 -8 91 -45 91 -86z" />
    <glyph glyph-name="Ccedilla.2" unicode="&#xe04d;" horiz-adv-x="696" 
d="M539 -114c0 -75 -72 -101 -147 -101c-12 0 -26 1 -38 4c-19 4 -31 16 -31 34s16 34 34 34c11 0 23 -4 39 -4c27 0 57 7 57 35c0 22 -21 34 -53 34c-14 0 -28 10 -26 31l4 39c-210 15 -338 146 -338 349c0 206 164 349 374 349c102 0 252 -36 252 -171
c0 -90 -59 -138 -120 -138c-42 0 -73 22 -73 60c0 48 49 38 49 74c0 28 -43 48 -105 48c-132 0 -226 -92 -226 -222c0 -131 88 -220 225 -220c39 0 76 7 99 14c38 10 61 23 83 23c39 0 64 -27 64 -68c0 -34 -32 -58 -64 -70c-41 -15 -93 -26 -151 -29l1 -19
c60 -8 91 -45 91 -86z" />
    <glyph glyph-name="Csmall" unicode="&#xf763;" horiz-adv-x="528" 
d="M331 552c46 0 92 -7 125 -22c31 -13 51 -33 51 -62c0 -35 -27 -63 -62 -63c-38 0 -55 25 -117 25c-46 0 -88 -22 -116 -56c-22 -27 -36 -62 -36 -102c0 -46 17 -85 45 -113c27 -28 67 -44 109 -44c69 0 85 27 126 27c34 0 58 -27 58 -64c0 -30 -25 -51 -60 -65
c-36 -15 -82 -21 -125 -21c-83 0 -156 27 -208 75c-52 49 -83 119 -83 206c0 72 28 136 73 184c54 59 134 95 220 95z" />
    <glyph glyph-name="Csmall.2" unicode="&#xe04e;" horiz-adv-x="546" 
d="M336 432c-48 0 -95 -20 -124 -55c-23 -28 -36 -63 -36 -103c0 -48 16 -89 45 -116c30 -28 70 -44 115 -44c31 0 55 5 73 12c25 8 38 15 59 15c35 0 61 -26 61 -63c0 -30 -26 -51 -61 -65c-37 -15 -86 -21 -130 -21c-85 0 -163 26 -216 75c-54 49 -84 119 -84 207
c0 70 26 134 70 182c55 60 136 97 225 97c82 0 195 -36 195 -147c0 -73 -48 -112 -99 -112c-34 0 -54 17 -54 42c0 31 35 34 35 58c0 21 -25 38 -74 38z" />
    <glyph glyph-name="Csmallacute" unicode="&#xe04f;" horiz-adv-x="529" 
d="M332 552c47 0 92 -7 125 -22c31 -13 51 -33 51 -62c0 -35 -27 -62 -62 -62c-18 0 -33 8 -55 16c-16 5 -35 10 -61 10c-46 0 -89 -22 -117 -56c-22 -28 -36 -63 -36 -103c0 -47 17 -87 45 -115s67 -44 109 -44c29 0 52 5 70 12c22 8 37 15 56 15c34 0 58 -26 58 -63
c0 -30 -25 -51 -60 -65c-35 -15 -82 -21 -125 -21c-83 0 -156 27 -208 75c-52 49 -83 119 -83 206c0 72 28 136 73 184c54 59 134 95 220 95zM227 665c0 11 3 20 8 31l54 105c9 18 23 33 47 33c27 0 52 -22 52 -49c0 -11 -4 -19 -13 -34l-61 -100c-11 -17 -24 -28 -43 -28
c-24 0 -44 18 -44 42z" />
    <glyph glyph-name="Csmallacute.2" unicode="&#xe050;" horiz-adv-x="546" 
d="M336 432c-48 0 -95 -20 -124 -55c-23 -28 -36 -63 -36 -103c0 -48 16 -89 45 -116c30 -28 70 -44 115 -44c31 0 55 5 73 12c25 8 38 15 59 15c35 0 61 -26 61 -63c0 -30 -26 -51 -61 -65c-37 -15 -86 -21 -130 -21c-85 0 -163 26 -216 75c-54 49 -84 119 -84 207
c0 70 26 134 70 182c55 60 136 97 225 97c82 0 195 -36 195 -147c0 -73 -48 -112 -99 -112c-34 0 -54 17 -54 42c0 31 35 34 35 58c0 21 -25 38 -74 38zM244 665c0 11 3 20 9 31l53 105c9 19 23 33 47 33c27 0 52 -22 52 -49c0 -11 -4 -19 -13 -34l-61 -100
c-11 -17 -24 -28 -43 -28c-23 0 -44 18 -44 42z" />
    <glyph glyph-name="Csmallcaron" unicode="&#xe051;" horiz-adv-x="529" 
d="M332 552c47 0 92 -7 125 -22c31 -13 51 -33 51 -62c0 -35 -27 -62 -62 -62c-18 0 -33 8 -55 16c-16 5 -35 10 -61 10c-46 0 -89 -22 -117 -56c-22 -28 -36 -63 -36 -103c0 -47 17 -87 45 -115s67 -44 109 -44c29 0 52 5 70 12c22 8 37 15 56 15c34 0 58 -26 58 -63
c0 -30 -25 -51 -60 -65c-35 -15 -82 -21 -125 -21c-83 0 -156 27 -208 75c-52 49 -83 119 -83 206c0 72 28 136 73 184c54 59 134 95 220 95zM145 785c0 29 21 47 46 47c13 0 24 -3 33 -12l85 -83l86 83c9 9 19 12 33 12c24 0 46 -18 46 -47c0 -14 -9 -26 -22 -39l-106 -101
c-9 -9 -21 -15 -37 -15c-15 0 -27 6 -36 15l-107 101c-13 12 -21 25 -21 39z" />
    <glyph glyph-name="Csmallcaron.2" unicode="&#xe052;" horiz-adv-x="546" 
d="M336 432c-48 0 -95 -20 -124 -55c-23 -28 -36 -63 -36 -103c0 -48 16 -89 45 -116c30 -28 70 -44 115 -44c31 0 55 5 73 12c25 8 38 15 59 15c35 0 61 -26 61 -63c0 -30 -26 -51 -61 -65c-37 -15 -86 -21 -130 -21c-85 0 -163 26 -216 75c-54 49 -84 119 -84 207
c0 70 26 134 70 182c55 60 136 97 225 97c82 0 195 -36 195 -147c0 -73 -48 -112 -99 -112c-34 0 -54 17 -54 42c0 31 35 34 35 58c0 21 -25 38 -74 38zM317 630c-16 0 -27 7 -37 16l-106 101c-13 12 -22 24 -22 38c0 29 22 47 47 47c14 0 25 -5 35 -15l83 -80l83 80
c10 10 21 15 35 15c25 0 47 -18 47 -47c0 -14 -9 -26 -22 -38l-106 -101c-10 -9 -21 -16 -37 -16z" />
    <glyph glyph-name="Csmallcedilla" unicode="&#xe053;" horiz-adv-x="529" 
d="M441 -114c0 -75 -72 -101 -147 -101c-12 0 -26 1 -38 4c-19 4 -31 16 -31 34s16 34 34 34c11 0 23 -4 39 -4c27 0 57 7 57 35c0 22 -21 34 -53 34c-14 0 -28 10 -26 31l4 42c-62 8 -117 34 -158 72c-52 49 -83 119 -83 206c0 72 28 136 73 184c54 59 134 95 220 95
c46 0 92 -7 125 -22c31 -13 51 -33 51 -62c0 -35 -27 -63 -62 -63c-38 0 -55 25 -117 25c-46 0 -88 -22 -116 -56c-22 -27 -36 -62 -36 -102c0 -46 17 -85 45 -113c27 -28 67 -44 109 -44c69 0 85 27 126 27c34 0 58 -27 58 -64c0 -30 -25 -51 -60 -65
c-31 -13 -69 -19 -106 -20l1 -21c60 -8 91 -45 91 -86z" />
    <glyph glyph-name="Csmallcedilla.2" unicode="&#xe054;" horiz-adv-x="546" 
d="M453 -114c0 -75 -72 -101 -147 -101c-12 0 -26 1 -38 4c-19 4 -31 16 -31 34s16 34 34 34c11 0 23 -4 39 -4c27 0 57 7 57 35c0 22 -21 34 -53 34c-14 0 -28 10 -26 31l4 42c-67 7 -127 32 -170 72c-54 49 -84 119 -84 207c0 70 26 134 70 182c55 60 136 97 225 97
c82 0 195 -36 195 -147c0 -73 -48 -112 -99 -112c-34 0 -54 17 -54 42c0 31 35 34 35 58c0 21 -25 38 -74 38c-48 0 -95 -20 -124 -55c-23 -28 -36 -63 -36 -103c0 -48 16 -89 45 -116c30 -28 70 -44 115 -44c31 0 55 5 73 12c25 8 38 15 59 15c35 0 61 -26 61 -63
c0 -30 -26 -51 -61 -65c-31 -13 -69 -18 -107 -20l1 -21c60 -8 91 -45 91 -86z" />
    <glyph glyph-name="D" unicode="D" horiz-adv-x="742" 
d="M702 341c0 -116 -40 -197 -98 -251c-80 -74 -183 -90 -279 -90h-185c-41 0 -72 31 -72 70v541c0 39 31 70 72 70h199c104 0 201 -20 280 -104c50 -53 83 -129 83 -236zM212 560v-439h102c77 0 140 19 184 63c35 35 56 87 56 157s-19 120 -52 155c-42 45 -106 64 -184 64
h-106z" />
    <glyph glyph-name="Dcaron" unicode="&#x10e;" horiz-adv-x="742" 
d="M702 341c0 -116 -40 -197 -98 -251c-80 -74 -183 -90 -279 -90h-185c-41 0 -72 31 -72 70v541c0 39 31 70 72 70h199c104 0 201 -20 280 -104c50 -53 83 -129 83 -236zM212 560v-439h102c77 0 140 19 184 63c35 35 56 87 56 157s-19 120 -52 155c-42 45 -106 64 -184 64
h-106zM367 770c-16 0 -27 7 -37 16l-106 101c-13 12 -22 24 -22 38c0 29 22 47 47 47c14 0 25 -5 35 -15l83 -80l83 80c10 10 21 15 35 15c25 0 47 -18 47 -47c0 -14 -9 -26 -22 -38l-106 -101c-10 -9 -21 -16 -37 -16z" />
    <glyph glyph-name="Dcroat" unicode="&#x110;" horiz-adv-x="752" 
d="M312 279h-90v-158h103c60 0 114 11 155 37c53 34 85 93 85 183c0 69 -19 119 -52 154c-42 45 -107 65 -185 65h-106v-157h90c32 0 59 -30 59 -62c0 -35 -27 -62 -59 -62zM78 70v209h-38c-34 0 -61 27 -61 62c0 32 27 62 61 62h38v208c0 39 32 70 72 70h199
c105 0 201 -20 281 -104c49 -53 82 -129 82 -236c0 -116 -39 -197 -97 -251c-81 -74 -184 -90 -280 -90h-185c-40 0 -72 31 -72 70z" />
    <glyph glyph-name="Delta" unicode="&#x394;" horiz-adv-x="646" 
d="M530 0h-414c-53 0 -81 34 -81 72c0 11 4 23 7 33l187 513c20 55 53 72 94 72s74 -17 94 -72l187 -513c3 -10 7 -22 7 -33c0 -38 -28 -72 -81 -72zM323 477l-122 -352h245z" />
    <glyph glyph-name="Delta" unicode="&#x2206;" horiz-adv-x="646" 
d="M530 0h-414c-53 0 -81 34 -81 72c0 11 4 23 7 33l187 513c20 55 53 72 94 72s74 -17 94 -72l187 -513c3 -10 7 -22 7 -33c0 -38 -28 -72 -81 -72zM323 477l-122 -352h245z" />
    <glyph glyph-name="Dsmall" unicode="&#xf764;" horiz-adv-x="612" 
d="M575 272c0 -220 -166 -272 -301 -272h-143c-37 0 -66 28 -66 64v415c0 36 29 65 66 65h153c135 0 291 -61 291 -272zM197 429v-316h69c105 0 174 46 174 159c0 109 -65 157 -171 157h-72z" />
    <glyph glyph-name="Dsmallcaron" unicode="&#xe055;" horiz-adv-x="615" 
d="M576 272c0 -220 -166 -272 -302 -272h-142c-37 0 -66 28 -66 64v415c0 36 29 65 66 65h153c135 0 291 -61 291 -272zM198 429v-316h69c105 0 173 46 173 159c0 109 -64 157 -170 157h-72zM128 785c0 29 22 47 46 47c14 0 24 -3 33 -12l86 -83l85 83c9 9 20 12 33 12
c25 0 46 -18 46 -47c0 -14 -8 -27 -21 -39l-107 -101c-9 -9 -21 -15 -36 -15c-16 0 -28 6 -37 15l-106 101c-13 13 -22 25 -22 39z" />
    <glyph glyph-name="E" unicode="E" horiz-adv-x="627" 
d="M212 279v-151h323c35 0 62 -30 62 -64c0 -35 -27 -64 -62 -64h-395c-41 0 -72 31 -72 70v541c0 39 31 70 72 70h395c35 0 62 -29 62 -64s-27 -64 -62 -64h-323v-147h271c34 0 61 -29 61 -64s-27 -63 -61 -63h-271z" />
    <glyph glyph-name="E.1" unicode="&#xe056;" horiz-adv-x="579" 
d="M550 617c0 -35 -27 -64 -62 -64h-148c-56 0 -93 -16 -115 -44c-18 -22 -26 -51 -26 -84v-18h237c34 0 61 -30 61 -64c0 -35 -27 -64 -61 -64h-238v-19c0 -38 11 -73 35 -97c23 -22 58 -35 106 -35h149c35 0 62 -30 62 -64c0 -35 -27 -64 -62 -64h-152
c-92 0 -169 27 -219 86c-41 48 -64 118 -64 213v83c0 94 23 164 63 212c50 60 127 87 220 87h152c35 0 62 -29 62 -64z" />
    <glyph glyph-name="E.2" unicode="&#xe057;" horiz-adv-x="659" 
d="M212 239v-111h355c35 0 62 -30 62 -64c0 -35 -27 -64 -62 -64h-427c-41 0 -72 31 -72 70v541c0 39 31 70 72 70h427c35 0 62 -29 62 -64s-27 -64 -62 -64h-355v-187h290c34 0 61 -29 61 -64s-27 -63 -61 -63h-290z" />
    <glyph glyph-name="E.3" unicode="&#xe058;" horiz-adv-x="727" 
d="M600 290h-399c10 -50 31 -89 62 -118c36 -34 85 -52 141 -52c48 0 81 8 106 17c41 15 61 35 89 35c37 0 63 -29 63 -67c0 -39 -35 -66 -81 -84c-57 -23 -127 -31 -179 -31c-123 0 -207 37 -267 98s-95 152 -95 261c0 102 36 184 95 246c54 56 135 95 241 95
c107 0 183 -37 232 -88c62 -65 83 -139 83 -208c0 -73 -41 -104 -91 -104zM203 414h336c-4 41 -19 74 -42 98c-27 29 -68 45 -120 45c-54 0 -99 -20 -131 -53c-21 -23 -36 -55 -43 -90z" />
    <glyph glyph-name="Eacute" unicode="&#xc9;" horiz-adv-x="627" 
d="M212 279v-151h323c35 0 62 -30 62 -64c0 -35 -27 -64 -62 -64h-395c-41 0 -72 31 -72 70v541c0 39 31 70 72 70h395c35 0 62 -29 62 -64s-27 -64 -62 -64h-323v-147h271c34 0 61 -29 61 -64s-27 -63 -61 -63h-271zM236 805c0 11 3 20 9 31l53 105c9 19 23 33 47 33
c27 0 52 -22 52 -49c0 -11 -4 -19 -13 -34l-61 -100c-11 -17 -24 -28 -43 -28c-23 0 -44 18 -44 42z" />
    <glyph glyph-name="Eacute.1" unicode="&#xe059;" horiz-adv-x="580" 
d="M550 617c0 -35 -27 -64 -62 -64h-148c-56 0 -93 -16 -115 -44c-18 -22 -26 -51 -26 -84v-18h237c34 0 61 -30 61 -64c0 -35 -27 -64 -61 -64h-238v-19c0 -38 11 -73 35 -97c23 -22 58 -35 106 -35h149c35 0 62 -30 62 -64c0 -35 -27 -64 -62 -64h-152
c-92 0 -169 27 -219 86c-41 48 -64 118 -64 213v83c0 94 23 164 63 212c50 60 127 87 220 87h152c35 0 62 -29 62 -64zM242 805c0 11 3 20 9 31l53 105c9 19 23 33 47 33c27 0 52 -22 52 -49c0 -11 -4 -19 -13 -34l-61 -100c-11 -17 -24 -28 -43 -28c-23 0 -44 18 -44 42z
" />
    <glyph glyph-name="Eacute.2" unicode="&#xe05a;" horiz-adv-x="659" 
d="M212 239v-111h355c35 0 62 -30 62 -64c0 -35 -27 -64 -62 -64h-427c-41 0 -72 31 -72 70v541c0 39 31 70 72 70h427c35 0 62 -29 62 -64s-27 -64 -62 -64h-355v-187h290c34 0 61 -29 61 -64s-27 -63 -61 -63h-290zM277 805c0 11 3 20 9 31l53 105c9 19 23 33 47 33
c27 0 52 -22 52 -49c0 -11 -4 -19 -13 -34l-61 -100c-11 -17 -24 -28 -43 -28c-23 0 -44 18 -44 42z" />
    <glyph glyph-name="Eacute.3" unicode="&#xe05b;" horiz-adv-x="727" 
d="M600 290h-399c10 -50 31 -89 62 -118c36 -34 85 -52 141 -52c48 0 81 8 106 17c41 15 61 35 89 35c37 0 63 -29 63 -67c0 -39 -35 -66 -81 -84c-57 -23 -127 -31 -179 -31c-123 0 -207 37 -267 98s-95 152 -95 261c0 102 36 184 95 246c54 56 135 95 241 95
c107 0 183 -37 232 -88c62 -65 83 -139 83 -208c0 -73 -41 -104 -91 -104zM203 414h336c-4 41 -19 74 -42 98c-27 29 -68 45 -120 45c-54 0 -99 -20 -131 -53c-21 -23 -36 -55 -43 -90zM299 805c0 11 3 20 9 31l53 105c9 19 23 33 47 33c27 0 52 -22 52 -49
c0 -11 -4 -19 -13 -34l-61 -100c-11 -17 -24 -28 -43 -28c-23 0 -44 18 -44 42z" />
    <glyph glyph-name="Ecaron" unicode="&#x11a;" horiz-adv-x="627" 
d="M212 279v-151h323c35 0 62 -30 62 -64c0 -35 -27 -64 -62 -64h-395c-41 0 -72 31 -72 70v541c0 39 31 70 72 70h395c35 0 62 -29 62 -64s-27 -64 -62 -64h-323v-147h271c34 0 61 -29 61 -64s-27 -63 -61 -63h-271zM330 770c-16 0 -27 7 -37 16l-106 101
c-13 12 -22 24 -22 38c0 29 22 47 47 47c14 0 25 -5 35 -15l83 -80l83 80c10 10 21 15 35 15c25 0 47 -18 47 -47c0 -14 -9 -26 -22 -38l-106 -101c-10 -9 -21 -16 -37 -16z" />
    <glyph glyph-name="Ecaron.1" unicode="&#xe05c;" horiz-adv-x="580" 
d="M550 617c0 -35 -27 -64 -62 -64h-148c-56 0 -93 -16 -115 -44c-18 -22 -26 -51 -26 -84v-18h237c34 0 61 -30 61 -64c0 -35 -27 -64 -61 -64h-238v-19c0 -38 11 -73 35 -97c23 -22 58 -35 106 -35h149c35 0 62 -30 62 -64c0 -35 -27 -64 -62 -64h-152
c-92 0 -169 27 -219 86c-41 48 -64 118 -64 213v83c0 94 23 164 63 212c50 60 127 87 220 87h152c35 0 62 -29 62 -64zM337 770c-16 0 -27 7 -37 16l-106 101c-13 12 -22 24 -22 38c0 29 22 47 47 47c14 0 25 -5 35 -15l83 -80l83 80c10 10 21 15 35 15c25 0 47 -18 47 -47
c0 -14 -9 -26 -22 -38l-106 -101c-10 -9 -21 -16 -37 -16z" />
    <glyph glyph-name="Ecaron.2" unicode="&#xe05d;" horiz-adv-x="659" 
d="M212 239v-111h355c35 0 62 -30 62 -64c0 -35 -27 -64 -62 -64h-427c-41 0 -72 31 -72 70v541c0 39 31 70 72 70h427c35 0 62 -29 62 -64s-27 -64 -62 -64h-355v-187h290c34 0 61 -29 61 -64s-27 -63 -61 -63h-290zM357 770c-16 0 -27 7 -37 16l-106 101
c-13 12 -22 24 -22 38c0 29 22 47 47 47c14 0 25 -5 35 -15l83 -80l83 80c10 10 21 15 35 15c25 0 47 -18 47 -47c0 -14 -9 -26 -22 -38l-106 -101c-10 -9 -21 -16 -37 -16z" />
    <glyph glyph-name="Ecaron.3" unicode="&#xe05e;" horiz-adv-x="727" 
d="M600 290h-399c10 -50 31 -89 62 -118c36 -34 85 -52 141 -52c48 0 81 8 106 17c41 15 61 35 89 35c37 0 63 -29 63 -67c0 -39 -35 -66 -81 -84c-57 -23 -127 -31 -179 -31c-123 0 -207 37 -267 98s-95 152 -95 261c0 102 36 184 95 246c54 56 135 95 241 95
c107 0 183 -37 232 -88c62 -65 83 -139 83 -208c0 -73 -41 -104 -91 -104zM203 414h336c-4 41 -19 74 -42 98c-27 29 -68 45 -120 45c-54 0 -99 -20 -131 -53c-21 -23 -36 -55 -43 -90zM380 770c-16 0 -27 7 -37 16l-106 101c-13 12 -22 24 -22 38c0 29 22 47 47 47
c14 0 25 -5 35 -15l83 -80l83 80c10 10 21 15 35 15c25 0 47 -18 47 -47c0 -14 -9 -26 -22 -38l-106 -101c-10 -9 -21 -16 -37 -16z" />
    <glyph glyph-name="Ecircumflex" unicode="&#xca;" horiz-adv-x="627" 
d="M212 279v-151h323c35 0 62 -30 62 -64c0 -35 -27 -64 -62 -64h-395c-41 0 -72 31 -72 70v541c0 39 31 70 72 70h395c35 0 62 -29 62 -64s-27 -64 -62 -64h-323v-147h271c34 0 61 -29 61 -64s-27 -63 -61 -63h-271zM315 972c16 0 27 -7 37 -16l106 -101
c13 -12 22 -24 22 -38c0 -29 -22 -47 -47 -47c-14 0 -25 5 -35 15l-83 80l-83 -80c-10 -10 -21 -15 -35 -15c-25 0 -47 18 -47 47c0 14 9 26 22 38l106 101c10 9 21 16 37 16z" />
    <glyph glyph-name="Ecircumflex.1" unicode="&#xe05f;" horiz-adv-x="580" 
d="M550 617c0 -35 -27 -64 -62 -64h-148c-56 0 -93 -16 -115 -44c-18 -22 -26 -51 -26 -84v-18h237c34 0 61 -30 61 -64c0 -35 -27 -64 -61 -64h-238v-19c0 -38 11 -73 35 -97c23 -22 58 -35 106 -35h149c35 0 62 -30 62 -64c0 -35 -27 -64 -62 -64h-152
c-92 0 -169 27 -219 86c-41 48 -64 118 -64 213v83c0 94 23 164 63 212c50 60 127 87 220 87h152c35 0 62 -29 62 -64zM321 972c16 0 27 -7 37 -16l106 -101c13 -12 22 -24 22 -38c0 -29 -22 -47 -47 -47c-14 0 -25 5 -35 15l-83 80l-83 -80c-10 -10 -21 -15 -35 -15
c-25 0 -47 18 -47 47c0 14 9 26 22 38l106 101c10 9 21 16 37 16z" />
    <glyph glyph-name="Ecircumflex.2" unicode="&#xe060;" horiz-adv-x="659" 
d="M212 239v-111h355c35 0 62 -30 62 -64c0 -35 -27 -64 -62 -64h-427c-41 0 -72 31 -72 70v541c0 39 31 70 72 70h427c35 0 62 -29 62 -64s-27 -64 -62 -64h-355v-187h290c34 0 61 -29 61 -64s-27 -63 -61 -63h-290zM353 972c16 0 27 -7 37 -16l106 -101
c13 -12 22 -24 22 -38c0 -29 -22 -47 -47 -47c-14 0 -25 5 -35 15l-83 80l-83 -80c-10 -10 -21 -15 -35 -15c-25 0 -47 18 -47 47c0 14 9 26 22 38l106 101c10 9 21 16 37 16z" />
    <glyph glyph-name="Ecircumflex.3" unicode="&#xe061;" horiz-adv-x="727" 
d="M600 290h-399c10 -50 31 -89 62 -118c36 -34 85 -52 141 -52c48 0 81 8 106 17c41 15 61 35 89 35c37 0 63 -29 63 -67c0 -39 -35 -66 -81 -84c-57 -23 -127 -31 -179 -31c-123 0 -207 37 -267 98s-95 152 -95 261c0 102 36 184 95 246c54 56 135 95 241 95
c107 0 183 -37 232 -88c62 -65 83 -139 83 -208c0 -73 -41 -104 -91 -104zM203 414h336c-4 41 -19 74 -42 98c-27 29 -68 45 -120 45c-54 0 -99 -20 -131 -53c-21 -23 -36 -55 -43 -90zM381 972c16 0 27 -7 37 -16l106 -101c13 -12 22 -24 22 -38c0 -29 -22 -47 -47 -47
c-14 0 -25 5 -35 15l-83 80l-83 -80c-10 -10 -21 -15 -35 -15c-25 0 -47 18 -47 47c0 14 9 26 22 38l106 101c10 9 21 16 37 16z" />
    <glyph glyph-name="Edieresis" unicode="&#xcb;" horiz-adv-x="627" 
d="M212 279v-151h323c35 0 62 -30 62 -64c0 -35 -27 -64 -62 -64h-395c-41 0 -72 31 -72 70v541c0 39 31 70 72 70h395c35 0 62 -29 62 -64s-27 -64 -62 -64h-323v-147h271c34 0 61 -29 61 -64s-27 -63 -61 -63h-271zM200 784c-42 0 -76 35 -76 77s34 76 76 76
c43 0 76 -34 76 -76s-33 -77 -76 -77zM432 784c-42 0 -76 35 -76 77s34 76 76 76s76 -34 76 -76s-34 -77 -76 -77z" />
    <glyph glyph-name="Edieresis.1" unicode="&#xe062;" horiz-adv-x="580" 
d="M550 617c0 -35 -27 -64 -62 -64h-148c-56 0 -93 -16 -115 -44c-18 -22 -26 -51 -26 -84v-18h237c34 0 61 -30 61 -64c0 -35 -27 -64 -61 -64h-238v-19c0 -38 11 -73 35 -97c23 -22 58 -35 106 -35h149c35 0 62 -30 62 -64c0 -35 -27 -64 -62 -64h-152
c-92 0 -169 27 -219 86c-41 48 -64 118 -64 213v83c0 94 23 164 63 212c50 60 127 87 220 87h152c35 0 62 -29 62 -64zM194 784c-42 0 -76 35 -76 77s34 76 76 76c43 0 76 -34 76 -76s-33 -77 -76 -77zM426 784c-42 0 -76 35 -76 77s34 76 76 76s76 -34 76 -76
s-34 -77 -76 -77z" />
    <glyph glyph-name="Edieresis.2" unicode="&#xe063;" horiz-adv-x="659" 
d="M212 239v-111h355c35 0 62 -30 62 -64c0 -35 -27 -64 -62 -64h-427c-41 0 -72 31 -72 70v541c0 39 31 70 72 70h427c35 0 62 -29 62 -64s-27 -64 -62 -64h-355v-187h290c34 0 61 -29 61 -64s-27 -63 -61 -63h-290zM231 784c-42 0 -76 35 -76 77s34 76 76 76
c43 0 76 -34 76 -76s-33 -77 -76 -77zM463 784c-42 0 -76 35 -76 77s34 76 76 76s76 -34 76 -76s-34 -77 -76 -77z" />
    <glyph glyph-name="Edieresis.3" unicode="&#xe064;" horiz-adv-x="727" 
d="M600 290h-399c10 -50 31 -89 62 -118c36 -34 85 -52 141 -52c48 0 81 8 106 17c41 15 61 35 89 35c37 0 63 -29 63 -67c0 -39 -35 -66 -81 -84c-57 -23 -127 -31 -179 -31c-123 0 -207 37 -267 98s-95 152 -95 261c0 102 36 184 95 246c54 56 135 95 241 95
c107 0 183 -37 232 -88c62 -65 83 -139 83 -208c0 -73 -41 -104 -91 -104zM203 414h336c-4 41 -19 74 -42 98c-27 29 -68 45 -120 45c-54 0 -99 -20 -131 -53c-21 -23 -36 -55 -43 -90zM262 784c-42 0 -76 35 -76 77s34 76 76 76c43 0 76 -34 76 -76s-33 -77 -76 -77z
M494 784c-42 0 -76 35 -76 77s34 76 76 76s76 -34 76 -76s-34 -77 -76 -77z" />
    <glyph glyph-name="Edotaccent" unicode="&#x116;" horiz-adv-x="627" 
d="M212 279v-151h323c35 0 62 -30 62 -64c0 -35 -27 -64 -62 -64h-395c-41 0 -72 31 -72 70v541c0 39 31 70 72 70h395c35 0 62 -29 62 -64s-27 -64 -62 -64h-323v-147h271c34 0 61 -29 61 -64s-27 -63 -61 -63h-271zM330 790c-42 0 -76 34 -76 76s34 76 76 76
s76 -34 76 -76s-34 -76 -76 -76z" />
    <glyph glyph-name="Edotaccent.1" unicode="&#xe065;" horiz-adv-x="580" 
d="M550 617c0 -35 -27 -64 -62 -64h-148c-56 0 -93 -16 -115 -44c-18 -22 -26 -51 -26 -84v-18h237c34 0 61 -30 61 -64c0 -35 -27 -64 -61 -64h-238v-19c0 -38 11 -73 35 -97c23 -22 58 -35 106 -35h149c35 0 62 -30 62 -64c0 -35 -27 -64 -62 -64h-152
c-92 0 -169 27 -219 86c-41 48 -64 118 -64 213v83c0 94 23 164 63 212c50 60 127 87 220 87h152c35 0 62 -29 62 -64zM325 785c-42 0 -76 34 -76 76s34 76 76 76s76 -34 76 -76s-34 -76 -76 -76z" />
    <glyph glyph-name="Edotaccent.2" unicode="&#xe066;" horiz-adv-x="659" 
d="M212 239v-111h355c35 0 62 -30 62 -64c0 -35 -27 -64 -62 -64h-427c-41 0 -72 31 -72 70v541c0 39 31 70 72 70h427c35 0 62 -29 62 -64s-27 -64 -62 -64h-355v-187h290c34 0 61 -29 61 -64s-27 -63 -61 -63h-290zM359 790c-42 0 -76 34 -76 76s34 76 76 76
s76 -34 76 -76s-34 -76 -76 -76z" />
    <glyph glyph-name="Edotaccent.3" unicode="&#xe067;" horiz-adv-x="727" 
d="M600 290h-399c10 -50 31 -89 62 -118c36 -34 85 -52 141 -52c48 0 81 8 106 17c41 15 61 35 89 35c37 0 63 -29 63 -67c0 -39 -35 -66 -81 -84c-57 -23 -127 -31 -179 -31c-123 0 -207 37 -267 98s-95 152 -95 261c0 102 36 184 95 246c54 56 135 95 241 95
c107 0 183 -37 232 -88c62 -65 83 -139 83 -208c0 -73 -41 -104 -91 -104zM203 414h336c-4 41 -19 74 -42 98c-27 29 -68 45 -120 45c-54 0 -99 -20 -131 -53c-21 -23 -36 -55 -43 -90zM383 790c-42 0 -76 34 -76 76s34 76 76 76s76 -34 76 -76s-34 -76 -76 -76z" />
    <glyph glyph-name="Egrave" unicode="&#xc8;" horiz-adv-x="627" 
d="M212 279v-151h323c35 0 62 -30 62 -64c0 -35 -27 -64 -62 -64h-395c-41 0 -72 31 -72 70v541c0 39 31 70 72 70h395c35 0 62 -29 62 -64s-27 -64 -62 -64h-323v-147h271c34 0 61 -29 61 -64s-27 -63 -61 -63h-271zM393 805c0 -24 -21 -42 -45 -42c-18 0 -31 10 -42 28
l-61 100c-10 15 -13 23 -13 34c0 27 25 49 52 49c24 0 38 -14 47 -33l53 -105c5 -11 9 -20 9 -31z" />
    <glyph glyph-name="Egrave.1" unicode="&#xe068;" horiz-adv-x="580" 
d="M550 617c0 -35 -27 -64 -62 -64h-148c-56 0 -93 -16 -115 -44c-18 -22 -26 -51 -26 -84v-18h237c34 0 61 -30 61 -64c0 -35 -27 -64 -61 -64h-238v-19c0 -38 11 -73 35 -97c23 -22 58 -35 106 -35h149c35 0 62 -30 62 -64c0 -35 -27 -64 -62 -64h-152
c-92 0 -169 27 -219 86c-41 48 -64 118 -64 213v83c0 94 23 164 63 212c50 60 127 87 220 87h152c35 0 62 -29 62 -64zM398 805c0 -24 -21 -42 -45 -42c-18 0 -31 10 -42 28l-61 100c-10 15 -13 23 -13 34c0 27 25 49 52 49c24 0 38 -14 47 -33l53 -105c5 -11 9 -20 9 -31z
" />
    <glyph glyph-name="Egrave.2" unicode="&#xe069;" horiz-adv-x="659" 
d="M212 239v-111h355c35 0 62 -30 62 -64c0 -35 -27 -64 -62 -64h-427c-41 0 -72 31 -72 70v541c0 39 31 70 72 70h427c35 0 62 -29 62 -64s-27 -64 -62 -64h-355v-187h290c34 0 61 -29 61 -64s-27 -63 -61 -63h-290zM428 805c0 -24 -21 -42 -45 -42c-18 0 -31 10 -42 28
l-61 100c-10 15 -13 23 -13 34c0 27 25 49 52 49c24 0 38 -14 47 -33l53 -105c5 -11 9 -20 9 -31z" />
    <glyph glyph-name="Egrave.3" unicode="&#xe06a;" horiz-adv-x="727" 
d="M600 290h-399c10 -50 31 -89 62 -118c36 -34 85 -52 141 -52c48 0 81 8 106 17c41 15 61 35 89 35c37 0 63 -29 63 -67c0 -39 -35 -66 -81 -84c-57 -23 -127 -31 -179 -31c-123 0 -207 37 -267 98s-95 152 -95 261c0 102 36 184 95 246c54 56 135 95 241 95
c107 0 183 -37 232 -88c62 -65 83 -139 83 -208c0 -73 -41 -104 -91 -104zM203 414h336c-4 41 -19 74 -42 98c-27 29 -68 45 -120 45c-54 0 -99 -20 -131 -53c-21 -23 -36 -55 -43 -90zM467 805c0 -24 -21 -42 -45 -42c-18 0 -31 10 -42 28l-61 100c-10 15 -13 23 -13 34
c0 27 25 49 52 49c24 0 38 -14 47 -33l53 -105c5 -11 9 -20 9 -31z" />
    <glyph glyph-name="Emacron" unicode="&#x112;" horiz-adv-x="627" 
d="M212 279v-151h323c35 0 62 -30 62 -64c0 -35 -27 -64 -62 -64h-395c-41 0 -72 31 -72 70v541c0 39 31 70 72 70h395c35 0 62 -29 62 -64s-27 -64 -62 -64h-323v-147h271c34 0 61 -29 61 -64s-27 -63 -61 -63h-271zM456 870c0 -29 -24 -53 -53 -53h-182
c-30 0 -54 24 -54 53c0 30 24 54 54 54h182c29 0 53 -24 53 -54z" />
    <glyph glyph-name="Emacron.1" unicode="&#xe06b;" horiz-adv-x="580" 
d="M550 617c0 -35 -27 -64 -62 -64h-148c-56 0 -93 -16 -115 -44c-18 -22 -26 -51 -26 -84v-18h237c34 0 61 -30 61 -64c0 -35 -27 -64 -61 -64h-238v-19c0 -38 11 -73 35 -97c23 -22 58 -35 106 -35h149c35 0 62 -30 62 -64c0 -35 -27 -64 -62 -64h-152
c-92 0 -169 27 -219 86c-41 48 -64 118 -64 213v83c0 94 23 164 63 212c50 60 127 87 220 87h152c35 0 62 -29 62 -64zM472 870c0 -29 -24 -53 -53 -53h-182c-30 0 -54 24 -54 53c0 30 24 54 54 54h182c29 0 53 -24 53 -54z" />
    <glyph glyph-name="Emacron.2" unicode="&#xe06c;" horiz-adv-x="659" 
d="M212 239v-111h355c35 0 62 -30 62 -64c0 -35 -27 -64 -62 -64h-427c-41 0 -72 31 -72 70v541c0 39 31 70 72 70h427c35 0 62 -29 62 -64s-27 -64 -62 -64h-355v-187h290c34 0 61 -29 61 -64s-27 -63 -61 -63h-290zM494 870c0 -29 -24 -53 -53 -53h-182
c-30 0 -54 24 -54 53c0 30 24 54 54 54h182c29 0 53 -24 53 -54z" />
    <glyph glyph-name="Emacron.3" unicode="&#xe06d;" horiz-adv-x="727" 
d="M600 290h-399c10 -50 31 -89 62 -118c36 -34 85 -52 141 -52c48 0 81 8 106 17c41 15 61 35 89 35c37 0 63 -29 63 -67c0 -39 -35 -66 -81 -84c-57 -23 -127 -31 -179 -31c-123 0 -207 37 -267 98s-95 152 -95 261c0 102 36 184 95 246c54 56 135 95 241 95
c107 0 183 -37 232 -88c62 -65 83 -139 83 -208c0 -73 -41 -104 -91 -104zM203 414h336c-4 41 -19 74 -42 98c-27 29 -68 45 -120 45c-54 0 -99 -20 -131 -53c-21 -23 -36 -55 -43 -90zM525 870c0 -29 -24 -53 -53 -53h-182c-30 0 -54 24 -54 53c0 30 24 54 54 54h182
c29 0 53 -24 53 -54z" />
    <glyph glyph-name="Eogonek" unicode="&#x118;" horiz-adv-x="627" 
d="M212 279v-151h323c35 0 62 -30 62 -64c0 -35 -27 -64 -62 -64h-69c-10 -23 -15 -42 -15 -64c0 -26 10 -53 62 -53c17 0 32 6 47 6c25 0 37 -16 37 -38c0 -24 -11 -39 -38 -48c-17 -6 -38 -9 -56 -9c-94 0 -136 39 -136 108c0 27 10 61 27 98h-254c-41 0 -72 31 -72 70
v541c0 39 31 70 72 70h395c35 0 62 -29 62 -64s-27 -64 -62 -64h-323v-147h271c34 0 61 -29 61 -64s-27 -63 -61 -63h-271z" />
    <glyph glyph-name="Eogonek.1" unicode="&#xe06e;" horiz-adv-x="580" 
d="M550 617c0 -36 -28 -63 -62 -63h-148c-51 0 -88 -17 -112 -45c-19 -23 -30 -54 -30 -92v-11h238c34 0 61 -29 61 -64s-27 -63 -61 -63h-238v-12c0 -42 12 -78 37 -103c24 -23 59 -37 104 -37h149c34 0 62 -28 62 -63c0 -36 -28 -64 -62 -64h-69c-8 -20 -15 -43 -15 -64
c0 -26 10 -53 62 -53c17 0 31 6 47 6c25 0 37 -16 37 -38c0 -24 -11 -39 -38 -48c-17 -6 -39 -9 -56 -9c-94 0 -137 39 -137 108c0 32 13 66 28 98h-10c-88 0 -164 26 -215 84c-44 49 -69 120 -69 220v73c0 98 25 170 67 219c51 59 128 85 217 85h151c34 0 62 -29 62 -64z
" />
    <glyph glyph-name="Eogonek.2" unicode="&#xe06f;" horiz-adv-x="659" 
d="M212 239v-111h355c35 0 62 -30 62 -64c0 -35 -27 -64 -62 -64h-69c-10 -23 -15 -42 -15 -64c0 -26 10 -53 62 -53c17 0 32 6 47 6c25 0 37 -16 37 -38c0 -24 -11 -39 -38 -48c-17 -6 -38 -9 -56 -9c-94 0 -136 39 -136 108c0 27 10 61 27 98h-286c-41 0 -72 31 -72 70
v541c0 39 31 70 72 70h427c35 0 62 -29 62 -64s-27 -64 -62 -64h-355v-187h290c34 0 61 -29 61 -64s-27 -63 -61 -63h-290z" />
    <glyph glyph-name="Eogonek.3" unicode="&#xe070;" horiz-adv-x="727" 
d="M600 290h-399c10 -50 31 -89 62 -118c36 -34 85 -52 141 -52c48 0 81 8 106 17c41 15 61 35 89 35c37 0 63 -29 63 -67c0 -39 -35 -66 -81 -84c-17 -7 -34 -12 -52 -17c-7 -21 -13 -46 -13 -68c0 -26 10 -53 62 -53c17 0 32 6 47 6c25 0 37 -16 37 -38
c0 -24 -11 -39 -38 -48c-17 -6 -38 -9 -56 -9c-94 0 -136 39 -136 108c0 29 8 60 20 90c-18 -1 -35 -2 -50 -2c-123 0 -207 37 -267 98s-95 152 -95 261c0 102 36 184 95 246c54 56 135 95 241 95c107 0 183 -37 232 -88c62 -65 83 -139 83 -208c0 -73 -41 -104 -91 -104z
M203 414h336c-4 41 -19 74 -42 98c-27 29 -68 45 -120 45c-54 0 -99 -20 -131 -53c-21 -23 -36 -55 -43 -90z" />
    <glyph glyph-name="Esmall" unicode="&#xf765;" horiz-adv-x="511" 
d="M197 215v-97h238c33 0 59 -24 59 -59s-26 -59 -59 -59h-304c-36 0 -66 29 -66 64v415c0 36 30 65 66 65h304c33 0 59 -24 59 -59s-26 -59 -59 -59h-238v-94h198c32 0 59 -23 59 -58c0 -36 -27 -59 -59 -59h-198z" />
    <glyph glyph-name="Esmall.1" unicode="&#xe071;" horiz-adv-x="499" 
d="M99 476c40 48 102 70 177 70h147c33 0 59 -28 59 -60c0 -33 -26 -59 -59 -59h-153c-34 0 -58 -7 -72 -24c-12 -14 -16 -31 -16 -53v-15h201c33 0 58 -28 58 -61s-25 -59 -58 -59h-201v-17c0 -23 5 -40 16 -53c15 -17 38 -26 73 -26h152c33 0 59 -27 59 -60
s-26 -59 -59 -59h-147c-79 0 -144 24 -184 77c-28 39 -44 92 -44 160v72c0 74 18 128 51 167z" />
    <glyph glyph-name="Esmall.2" unicode="&#xe072;" horiz-adv-x="540" 
d="M197 200v-82h268c33 0 59 -24 59 -59s-26 -59 -59 -59h-334c-36 0 -66 29 -66 64v415c0 36 30 65 66 65h334c33 0 59 -24 59 -59s-26 -59 -59 -59h-268v-108h212c32 0 59 -24 59 -59s-27 -59 -59 -59h-212z" />
    <glyph glyph-name="Esmall.3" unicode="&#xe073;" horiz-adv-x="591" 
d="M329 112c35 0 60 5 80 13c31 11 49 26 70 26c34 0 58 -27 58 -61c0 -33 -26 -56 -75 -75c-45 -17 -98 -23 -137 -23c-97 0 -164 29 -212 78c-49 50 -75 121 -75 208c0 82 28 149 75 198c43 45 109 76 192 76c86 0 148 -31 188 -72c49 -51 66 -112 66 -167
c0 -63 -36 -87 -80 -87h-292c7 -31 19 -55 38 -75c26 -27 63 -39 104 -39zM188 330h233c-2 30 -14 56 -32 73c-20 18 -48 29 -81 29c-35 0 -64 -11 -85 -33c-17 -18 -30 -42 -35 -69z" />
    <glyph glyph-name="Esmallacute" unicode="&#xe074;" horiz-adv-x="512" 
d="M198 215v-97h238c33 0 59 -24 59 -59s-26 -59 -59 -59h-304c-36 0 -66 29 -66 64v415c0 36 30 65 66 65h304c33 0 59 -24 59 -59s-26 -59 -59 -59h-238v-94h198c32 0 58 -23 58 -58c0 -36 -26 -59 -58 -59h-198zM207 665c0 11 4 20 9 31l53 105c9 19 23 33 47 33
c28 0 52 -22 52 -49c0 -11 -3 -19 -13 -34l-61 -100c-11 -17 -24 -28 -42 -28c-24 0 -45 18 -45 42z" />
    <glyph glyph-name="Esmallacute.1" unicode="&#xe075;" horiz-adv-x="499" 
d="M99 476c40 48 102 70 177 70h147c33 0 59 -28 59 -60c0 -33 -26 -59 -59 -59h-153c-34 0 -58 -7 -72 -24c-12 -14 -16 -31 -16 -53v-15h201c33 0 58 -28 58 -61s-25 -59 -58 -59h-201v-17c0 -23 5 -40 16 -53c15 -17 38 -26 73 -26h152c33 0 59 -27 59 -60
s-26 -59 -59 -59h-147c-79 0 -144 24 -184 77c-28 39 -44 92 -44 160v72c0 74 18 128 51 167zM222 665c0 11 3 20 9 31l53 105c9 19 23 33 47 33c27 0 52 -22 52 -49c0 -11 -4 -19 -13 -34l-61 -100c-11 -17 -24 -28 -43 -28c-23 0 -44 18 -44 42z" />
    <glyph glyph-name="Esmallacute.2" unicode="&#xe076;" horiz-adv-x="540" 
d="M197 200v-82h268c33 0 59 -24 59 -59s-26 -59 -59 -59h-334c-36 0 -66 29 -66 64v415c0 36 30 65 66 65h334c33 0 59 -24 59 -59s-26 -59 -59 -59h-268v-108h212c32 0 59 -24 59 -59s-27 -59 -59 -59h-212zM235 665c0 11 3 20 9 31l53 105c9 19 23 33 47 33
c27 0 52 -22 52 -49c0 -11 -4 -19 -13 -34l-61 -100c-11 -17 -24 -28 -43 -28c-23 0 -44 18 -44 42z" />
    <glyph glyph-name="Esmallacute.3" unicode="&#xe077;" horiz-adv-x="591" 
d="M329 112c35 0 60 5 80 13c31 11 49 26 70 26c34 0 58 -27 58 -61c0 -33 -26 -56 -75 -75c-45 -17 -98 -23 -137 -23c-97 0 -164 29 -212 78c-49 50 -75 121 -75 208c0 82 28 149 75 198c43 45 109 76 192 76c86 0 148 -31 188 -72c49 -51 66 -112 66 -167
c0 -63 -36 -87 -80 -87h-292c7 -31 19 -55 38 -75c26 -27 63 -39 104 -39zM188 330h233c-2 30 -14 56 -32 73c-20 18 -48 29 -81 29c-35 0 -64 -11 -85 -33c-17 -18 -30 -42 -35 -69zM222 665c0 11 3 20 9 31l53 105c9 19 23 33 47 33c27 0 52 -22 52 -49
c0 -11 -4 -19 -13 -34l-61 -100c-11 -17 -24 -28 -43 -28c-23 0 -44 18 -44 42z" />
    <glyph glyph-name="Esmallcaron" unicode="&#xe078;" horiz-adv-x="512" 
d="M198 215v-97h238c33 0 59 -24 59 -59s-26 -59 -59 -59h-304c-36 0 -66 29 -66 64v415c0 36 30 65 66 65h304c33 0 59 -24 59 -59s-26 -59 -59 -59h-238v-94h198c32 0 58 -23 58 -58c0 -36 -26 -59 -58 -59h-198zM117 785c0 29 21 47 46 47c13 0 23 -3 32 -12l86 -83
l86 83c9 9 19 12 32 12c25 0 46 -18 46 -47c0 -14 -8 -27 -21 -39l-106 -101c-10 -9 -22 -15 -37 -15s-27 6 -37 15l-106 101c-13 12 -21 25 -21 39z" />
    <glyph glyph-name="Esmallcaron.1" unicode="&#xe079;" horiz-adv-x="499" 
d="M99 476c40 48 102 70 177 70h147c33 0 59 -28 59 -60c0 -33 -26 -59 -59 -59h-153c-34 0 -58 -7 -72 -24c-12 -14 -16 -31 -16 -53v-15h201c33 0 58 -28 58 -61s-25 -59 -58 -59h-201v-17c0 -23 5 -40 16 -53c15 -17 38 -26 73 -26h152c33 0 59 -27 59 -60
s-26 -59 -59 -59h-147c-79 0 -144 24 -184 77c-28 39 -44 92 -44 160v72c0 74 18 128 51 167zM284 630c-16 0 -27 7 -37 16l-106 101c-13 12 -22 24 -22 38c0 29 22 47 47 47c14 0 25 -5 35 -15l83 -80l83 80c10 10 21 15 35 15c25 0 47 -18 47 -47c0 -14 -9 -26 -22 -38
l-106 -101c-10 -9 -21 -16 -37 -16z" />
    <glyph glyph-name="Esmallcaron.2" unicode="&#xe07a;" horiz-adv-x="540" 
d="M197 200v-82h268c33 0 59 -24 59 -59s-26 -59 -59 -59h-334c-36 0 -66 29 -66 64v415c0 36 30 65 66 65h334c33 0 59 -24 59 -59s-26 -59 -59 -59h-268v-108h212c32 0 59 -24 59 -59s-27 -59 -59 -59h-212zM292 630c-16 0 -27 7 -37 16l-106 101c-13 12 -22 24 -22 38
c0 29 22 47 47 47c14 0 25 -5 35 -15l83 -80l83 80c10 10 21 15 35 15c25 0 47 -18 47 -47c0 -14 -9 -26 -22 -38l-106 -101c-10 -9 -21 -16 -37 -16z" />
    <glyph glyph-name="Esmallcaron.3" unicode="&#xe07b;" horiz-adv-x="591" 
d="M329 112c35 0 60 5 80 13c31 11 49 26 70 26c34 0 58 -27 58 -61c0 -33 -26 -56 -75 -75c-45 -17 -98 -23 -137 -23c-97 0 -164 29 -212 78c-49 50 -75 121 -75 208c0 82 28 149 75 198c43 45 109 76 192 76c86 0 148 -31 188 -72c49 -51 66 -112 66 -167
c0 -63 -36 -87 -80 -87h-292c7 -31 19 -55 38 -75c26 -27 63 -39 104 -39zM188 330h233c-2 30 -14 56 -32 73c-20 18 -48 29 -81 29c-35 0 -64 -11 -85 -33c-17 -18 -30 -42 -35 -69zM310 630c-16 0 -27 7 -37 16l-106 101c-13 12 -22 24 -22 38c0 29 22 47 47 47
c14 0 25 -5 35 -15l83 -80l83 80c10 10 21 15 35 15c25 0 47 -18 47 -47c0 -14 -9 -26 -22 -38l-106 -101c-10 -9 -21 -16 -37 -16z" />
    <glyph glyph-name="Esmallcircumflex" unicode="&#xe07c;" horiz-adv-x="512" 
d="M197 215v-97h238c33 0 59 -24 59 -59s-26 -59 -59 -59h-304c-36 0 -66 29 -66 64v415c0 36 30 65 66 65h304c33 0 59 -24 59 -59s-26 -59 -59 -59h-238v-94h198c32 0 59 -23 59 -58c0 -36 -27 -59 -59 -59h-198zM280 832c16 0 27 -7 37 -16l106 -101
c13 -12 22 -24 22 -38c0 -29 -22 -47 -47 -47c-14 0 -25 5 -35 15l-83 80l-83 -80c-10 -10 -21 -15 -35 -15c-25 0 -47 18 -47 47c0 14 9 26 22 38l106 101c10 9 21 16 37 16z" />
    <glyph glyph-name="Esmallcircumflex.1" unicode="&#xe07d;" horiz-adv-x="499" 
d="M99 476c40 48 102 70 177 70h147c33 0 59 -28 59 -60c0 -33 -26 -59 -59 -59h-153c-34 0 -58 -7 -72 -24c-12 -14 -16 -31 -16 -53v-15h201c33 0 58 -28 58 -61s-25 -59 -58 -59h-201v-17c0 -23 5 -40 16 -53c15 -17 38 -26 73 -26h152c33 0 59 -27 59 -60
s-26 -59 -59 -59h-147c-79 0 -144 24 -184 77c-28 39 -44 92 -44 160v72c0 74 18 128 51 167zM283 832c16 0 27 -7 37 -16l106 -101c13 -12 22 -24 22 -38c0 -29 -22 -47 -47 -47c-14 0 -25 5 -35 15l-83 80l-83 -80c-10 -10 -21 -15 -35 -15c-25 0 -47 18 -47 47
c0 14 9 26 22 38l106 101c10 9 21 16 37 16z" />
    <glyph glyph-name="Esmallcircumflex.2" unicode="&#xe07e;" horiz-adv-x="540" 
d="M197 200v-82h268c33 0 59 -24 59 -59s-26 -59 -59 -59h-334c-36 0 -66 29 -66 64v415c0 36 30 65 66 65h334c33 0 59 -24 59 -59s-26 -59 -59 -59h-268v-108h212c32 0 59 -24 59 -59s-27 -59 -59 -59h-212zM297 832c16 0 27 -7 37 -16l106 -101c13 -12 22 -24 22 -38
c0 -29 -22 -47 -47 -47c-14 0 -25 5 -35 15l-83 80l-83 -80c-10 -10 -21 -15 -35 -15c-25 0 -47 18 -47 47c0 14 9 26 22 38l106 101c10 9 21 16 37 16z" />
    <glyph glyph-name="Esmallcircumflex.3" unicode="&#xe07f;" horiz-adv-x="591" 
d="M329 112c35 0 60 5 80 13c31 11 49 26 70 26c34 0 58 -27 58 -61c0 -33 -26 -56 -75 -75c-45 -17 -98 -23 -137 -23c-97 0 -164 29 -212 78c-49 50 -75 121 -75 208c0 82 28 149 75 198c43 45 109 76 192 76c86 0 148 -31 188 -72c49 -51 66 -112 66 -167
c0 -63 -36 -87 -80 -87h-292c7 -31 19 -55 38 -75c26 -27 63 -39 104 -39zM188 330h233c-2 30 -14 56 -32 73c-20 18 -48 29 -81 29c-35 0 -64 -11 -85 -33c-17 -18 -30 -42 -35 -69zM310 832c16 0 27 -7 37 -16l106 -101c13 -12 22 -24 22 -38c0 -29 -22 -47 -47 -47
c-14 0 -25 5 -35 15l-83 80l-83 -80c-10 -10 -21 -15 -35 -15c-25 0 -47 18 -47 47c0 14 9 26 22 38l106 101c10 9 21 16 37 16z" />
    <glyph glyph-name="Esmalldieresis" unicode="&#xe080;" horiz-adv-x="512" 
d="M197 215v-97h238c33 0 59 -24 59 -59s-26 -59 -59 -59h-304c-36 0 -66 29 -66 64v415c0 36 30 65 66 65h304c33 0 59 -24 59 -59s-26 -59 -59 -59h-238v-94h198c32 0 59 -23 59 -58c0 -36 -27 -59 -59 -59h-198zM161 644c-42 0 -76 35 -76 77s34 76 76 76
c43 0 76 -34 76 -76s-33 -77 -76 -77zM393 644c-42 0 -76 35 -76 77s34 76 76 76s76 -34 76 -76s-34 -77 -76 -77z" />
    <glyph glyph-name="Esmalldieresis.1" unicode="&#xe081;" horiz-adv-x="499" 
d="M99 476c40 48 102 70 177 70h147c33 0 59 -28 59 -60c0 -33 -26 -59 -59 -59h-153c-34 0 -58 -7 -72 -24c-12 -14 -16 -31 -16 -53v-15h201c33 0 58 -28 58 -61s-25 -59 -58 -59h-201v-17c0 -23 5 -40 16 -53c15 -17 38 -26 73 -26h152c33 0 59 -27 59 -60
s-26 -59 -59 -59h-147c-79 0 -144 24 -184 77c-28 39 -44 92 -44 160v72c0 74 18 128 51 167zM156 644c-42 0 -76 35 -76 77s34 76 76 76c43 0 76 -34 76 -76s-33 -77 -76 -77zM388 644c-42 0 -76 35 -76 77s34 76 76 76s76 -34 76 -76s-34 -77 -76 -77z" />
    <glyph glyph-name="Esmalldieresis.2" unicode="&#xe082;" horiz-adv-x="540" 
d="M197 200v-82h268c33 0 59 -24 59 -59s-26 -59 -59 -59h-334c-36 0 -66 29 -66 64v415c0 36 30 65 66 65h334c33 0 59 -24 59 -59s-26 -59 -59 -59h-268v-108h212c32 0 59 -24 59 -59s-27 -59 -59 -59h-212zM173 644c-42 0 -76 35 -76 77s34 76 76 76c43 0 76 -34 76 -76
s-33 -77 -76 -77zM405 644c-42 0 -76 35 -76 77s34 76 76 76s76 -34 76 -76s-34 -77 -76 -77z" />
    <glyph glyph-name="Esmalldieresis.3" unicode="&#xe083;" horiz-adv-x="591" 
d="M329 112c35 0 60 5 80 13c31 11 49 26 70 26c34 0 58 -27 58 -61c0 -33 -26 -56 -75 -75c-45 -17 -98 -23 -137 -23c-97 0 -164 29 -212 78c-49 50 -75 121 -75 208c0 82 28 149 75 198c43 45 109 76 192 76c86 0 148 -31 188 -72c49 -51 66 -112 66 -167
c0 -63 -36 -87 -80 -87h-292c7 -31 19 -55 38 -75c26 -27 63 -39 104 -39zM188 330h233c-2 30 -14 56 -32 73c-20 18 -48 29 -81 29c-35 0 -64 -11 -85 -33c-17 -18 -30 -42 -35 -69zM188 644c-42 0 -76 35 -76 77s34 76 76 76c43 0 76 -34 76 -76s-33 -77 -76 -77zM420 644
c-42 0 -76 35 -76 77s34 76 76 76s76 -34 76 -76s-34 -77 -76 -77z" />
    <glyph glyph-name="Esmalldotaccent" unicode="&#xe084;" horiz-adv-x="512" 
d="M197 215v-97h238c33 0 59 -24 59 -59s-26 -59 -59 -59h-304c-36 0 -66 29 -66 64v415c0 36 30 65 66 65h304c33 0 59 -24 59 -59s-26 -59 -59 -59h-238v-94h198c32 0 59 -23 59 -58c0 -36 -27 -59 -59 -59h-198zM286 645c-42 0 -76 34 -76 76s34 76 76 76s76 -34 76 -76
s-34 -76 -76 -76z" />
    <glyph glyph-name="Esmalldotaccent.1" unicode="&#xe085;" horiz-adv-x="499" 
d="M99 476c40 48 102 70 177 70h147c33 0 59 -28 59 -60c0 -33 -26 -59 -59 -59h-153c-34 0 -58 -7 -72 -24c-12 -14 -16 -31 -16 -53v-15h201c33 0 58 -28 58 -61s-25 -59 -58 -59h-201v-17c0 -23 5 -40 16 -53c15 -17 38 -26 73 -26h152c33 0 59 -27 59 -60
s-26 -59 -59 -59h-147c-79 0 -144 24 -184 77c-28 39 -44 92 -44 160v72c0 74 18 128 51 167zM289 645c-42 0 -76 34 -76 76s34 76 76 76s76 -34 76 -76s-34 -76 -76 -76z" />
    <glyph glyph-name="Esmalldotaccent.2" unicode="&#xe086;" horiz-adv-x="540" 
d="M197 200v-82h268c33 0 59 -24 59 -59s-26 -59 -59 -59h-334c-36 0 -66 29 -66 64v415c0 36 30 65 66 65h334c33 0 59 -24 59 -59s-26 -59 -59 -59h-268v-108h212c32 0 59 -24 59 -59s-27 -59 -59 -59h-212zM295 645c-42 0 -76 34 -76 76s34 76 76 76s76 -34 76 -76
s-34 -76 -76 -76z" />
    <glyph glyph-name="Esmalldotaccent.3" unicode="&#xe087;" horiz-adv-x="591" 
d="M329 112c35 0 60 5 80 13c31 11 49 26 70 26c34 0 58 -27 58 -61c0 -33 -26 -56 -75 -75c-45 -17 -98 -23 -137 -23c-97 0 -164 29 -212 78c-49 50 -75 121 -75 208c0 82 28 149 75 198c43 45 109 76 192 76c86 0 148 -31 188 -72c49 -51 66 -112 66 -167
c0 -63 -36 -87 -80 -87h-292c7 -31 19 -55 38 -75c26 -27 63 -39 104 -39zM188 330h233c-2 30 -14 56 -32 73c-20 18 -48 29 -81 29c-35 0 -64 -11 -85 -33c-17 -18 -30 -42 -35 -69zM306 645c-42 0 -76 34 -76 76s34 76 76 76s76 -34 76 -76s-34 -76 -76 -76z" />
    <glyph glyph-name="Esmallgrave" unicode="&#xe088;" horiz-adv-x="512" 
d="M198 215v-97h238c33 0 59 -24 59 -59s-26 -59 -59 -59h-304c-36 0 -66 29 -66 64v415c0 36 30 65 66 65h304c33 0 59 -24 59 -59s-26 -59 -59 -59h-238v-94h198c32 0 58 -23 58 -58c0 -36 -26 -59 -58 -59h-198zM354 665c0 -24 -20 -42 -44 -42c-19 0 -32 10 -43 28
l-61 100c-9 15 -13 23 -13 34c0 27 25 49 52 49c24 0 38 -15 47 -33l54 -105c5 -11 8 -20 8 -31z" />
    <glyph glyph-name="Esmallgrave.1" unicode="&#xe089;" horiz-adv-x="499" 
d="M99 476c40 48 102 70 177 70h147c33 0 59 -28 59 -60c0 -33 -26 -59 -59 -59h-153c-34 0 -58 -7 -72 -24c-12 -14 -16 -31 -16 -53v-15h201c33 0 58 -28 58 -61s-25 -59 -58 -59h-201v-17c0 -23 5 -40 16 -53c15 -17 38 -26 73 -26h152c33 0 59 -27 59 -60
s-26 -59 -59 -59h-147c-79 0 -144 24 -184 77c-28 39 -44 92 -44 160v72c0 74 18 128 51 167zM360 665c0 -24 -21 -42 -45 -42c-18 0 -31 10 -42 28l-61 100c-10 15 -13 23 -13 34c0 27 25 49 52 49c24 0 38 -14 47 -33l53 -105c5 -11 9 -20 9 -31z" />
    <glyph glyph-name="Esmallgrave.2" unicode="&#xe08a;" horiz-adv-x="540" 
d="M197 200v-82h268c33 0 59 -24 59 -59s-26 -59 -59 -59h-334c-36 0 -66 29 -66 64v415c0 36 30 65 66 65h334c33 0 59 -24 59 -59s-26 -59 -59 -59h-268v-108h212c32 0 59 -24 59 -59s-27 -59 -59 -59h-212zM372 665c0 -24 -21 -42 -45 -42c-18 0 -31 10 -42 28l-61 100
c-10 15 -13 23 -13 34c0 27 25 49 52 49c24 0 38 -14 47 -33l53 -105c5 -11 9 -20 9 -31z" />
    <glyph glyph-name="Esmallgrave.3" unicode="&#xe08b;" horiz-adv-x="591" 
d="M329 112c35 0 60 5 80 13c31 11 49 26 70 26c34 0 58 -27 58 -61c0 -33 -26 -56 -75 -75c-45 -17 -98 -23 -137 -23c-97 0 -164 29 -212 78c-49 50 -75 121 -75 208c0 82 28 149 75 198c43 45 109 76 192 76c86 0 148 -31 188 -72c49 -51 66 -112 66 -167
c0 -63 -36 -87 -80 -87h-292c7 -31 19 -55 38 -75c26 -27 63 -39 104 -39zM188 330h233c-2 30 -14 56 -32 73c-20 18 -48 29 -81 29c-35 0 -64 -11 -85 -33c-17 -18 -30 -42 -35 -69zM391 665c0 -24 -21 -42 -45 -42c-18 0 -31 10 -42 28l-61 100c-10 15 -13 23 -13 34
c0 27 25 49 52 49c24 0 38 -14 47 -33l53 -105c5 -11 9 -20 9 -31z" />
    <glyph glyph-name="Esmallmacron" unicode="&#xe08c;" horiz-adv-x="512" 
d="M197 215v-97h238c33 0 59 -24 59 -59s-26 -59 -59 -59h-304c-36 0 -66 29 -66 64v415c0 36 30 65 66 65h304c33 0 59 -24 59 -59s-26 -59 -59 -59h-238v-94h198c32 0 59 -23 59 -58c0 -36 -27 -59 -59 -59h-198zM423 707c0 -29 -24 -53 -53 -53h-182c-30 0 -54 24 -54 53
c0 30 24 54 54 54h182c29 0 53 -24 53 -54z" />
    <glyph glyph-name="Esmallmacron.1" unicode="&#xe08d;" horiz-adv-x="499" 
d="M99 476c40 48 102 70 177 70h147c33 0 59 -28 59 -60c0 -33 -26 -59 -59 -59h-153c-34 0 -58 -7 -72 -24c-12 -14 -16 -31 -16 -53v-15h201c33 0 58 -28 58 -61s-25 -59 -58 -59h-201v-17c0 -23 5 -40 16 -53c15 -17 38 -26 73 -26h152c33 0 59 -27 59 -60
s-26 -59 -59 -59h-147c-79 0 -144 24 -184 77c-28 39 -44 92 -44 160v72c0 74 18 128 51 167zM427 707c0 -29 -24 -53 -53 -53h-182c-30 0 -54 24 -54 53c0 30 24 54 54 54h182c29 0 53 -24 53 -54z" />
    <glyph glyph-name="Esmallmacron.2" unicode="&#xe08e;" horiz-adv-x="540" 
d="M197 200v-82h268c33 0 59 -24 59 -59s-26 -59 -59 -59h-334c-36 0 -66 29 -66 64v415c0 36 30 65 66 65h334c33 0 59 -24 59 -59s-26 -59 -59 -59h-268v-108h212c32 0 59 -24 59 -59s-27 -59 -59 -59h-212zM435 707c0 -29 -24 -53 -53 -53h-182c-30 0 -54 24 -54 53
c0 30 24 54 54 54h182c29 0 53 -24 53 -54z" />
    <glyph glyph-name="Esmallmacron.3" unicode="&#xe08f;" horiz-adv-x="591" 
d="M329 112c35 0 60 5 80 13c31 11 49 26 70 26c34 0 58 -27 58 -61c0 -33 -26 -56 -75 -75c-45 -17 -98 -23 -137 -23c-97 0 -164 29 -212 78c-49 50 -75 121 -75 208c0 82 28 149 75 198c43 45 109 76 192 76c86 0 148 -31 188 -72c49 -51 66 -112 66 -167
c0 -63 -36 -87 -80 -87h-292c7 -31 19 -55 38 -75c26 -27 63 -39 104 -39zM188 330h233c-2 30 -14 56 -32 73c-20 18 -48 29 -81 29c-35 0 -64 -11 -85 -33c-17 -18 -30 -42 -35 -69zM452 707c0 -29 -24 -53 -53 -53h-182c-30 0 -54 24 -54 53c0 30 24 54 54 54h182
c29 0 53 -24 53 -54z" />
    <glyph glyph-name="Esmallogonek" unicode="&#xe090;" horiz-adv-x="512" 
d="M197 215v-97h238c33 0 59 -24 59 -59s-26 -59 -59 -59h-74c-9 -24 -14 -42 -14 -64c0 -26 10 -53 62 -53c17 0 31 6 47 6c25 0 37 -16 37 -38c0 -24 -11 -39 -38 -48c-17 -6 -39 -9 -56 -9c-94 0 -137 39 -137 108c0 28 10 61 29 98h-160c-36 0 -66 29 -66 64v415
c0 36 30 65 66 65h304c33 0 59 -24 59 -59s-26 -59 -59 -59h-238v-94h198c32 0 59 -23 59 -58c0 -36 -27 -59 -59 -59h-198z" />
    <glyph glyph-name="Esmallogonek.1" unicode="&#xe091;" horiz-adv-x="499" 
d="M99 476c40 48 102 70 177 70h147c33 0 59 -28 59 -60c0 -33 -26 -59 -59 -59h-153c-34 0 -58 -7 -72 -24c-12 -14 -16 -31 -16 -53v-15h201c33 0 58 -28 58 -61s-25 -59 -58 -59h-201v-17c0 -23 5 -40 16 -53c15 -17 38 -26 73 -26h152c33 0 59 -27 59 -60
s-26 -59 -59 -59h-75c-9 -24 -14 -42 -14 -64c0 -26 10 -53 62 -53c17 0 31 6 47 6c25 0 37 -16 37 -38c0 -24 -11 -39 -38 -48c-17 -6 -39 -9 -56 -9c-94 0 -137 39 -137 108c0 28 10 61 29 98h-2c-79 0 -144 24 -184 77c-28 39 -44 92 -44 160v72c0 74 18 128 51 167z" />
    <glyph glyph-name="Esmallogonek.2" unicode="&#xe092;" horiz-adv-x="540" 
d="M197 200v-82h268c33 0 59 -24 59 -59s-26 -59 -59 -59h-76c-9 -24 -14 -42 -14 -64c0 -26 10 -53 62 -53c17 0 31 6 47 6c25 0 37 -16 37 -38c0 -24 -11 -39 -38 -48c-17 -6 -39 -9 -56 -9c-94 0 -137 39 -137 108c0 28 10 61 29 98h-188c-36 0 -66 29 -66 64v415
c0 36 30 65 66 65h334c33 0 59 -24 59 -59s-26 -59 -59 -59h-268v-108h212c32 0 59 -24 59 -59s-27 -59 -59 -59h-212z" />
    <glyph glyph-name="Esmallogonek.3" unicode="&#xe093;" horiz-adv-x="591" 
d="M329 112c35 0 60 5 80 13c31 11 49 26 70 26c34 0 58 -27 58 -61c0 -33 -26 -56 -75 -75c-19 -7 -38 -12 -58 -15c-8 -24 -13 -42 -13 -64c0 -26 10 -53 62 -53c17 0 31 6 47 6c25 0 37 -16 37 -38c0 -24 -11 -39 -38 -48c-17 -6 -39 -9 -56 -9c-94 0 -137 39 -137 108
c0 26 9 56 24 90h-5c-97 0 -164 29 -212 78c-49 50 -75 121 -75 208c0 82 28 149 75 198c43 45 109 76 192 76c86 0 148 -31 188 -72c49 -51 66 -112 66 -167c0 -63 -36 -87 -80 -87h-292c7 -31 19 -55 38 -75c26 -27 63 -39 104 -39zM188 330h233c-2 30 -14 56 -32 73
c-20 18 -48 29 -81 29c-35 0 -64 -11 -85 -33c-17 -18 -30 -42 -35 -69z" />
    <glyph glyph-name="Eth" unicode="&#xd0;" horiz-adv-x="752" 
d="M312 279h-90v-158h103c60 0 114 11 155 37c53 34 85 93 85 183c0 69 -19 119 -52 154c-42 45 -107 65 -185 65h-106v-157h90c32 0 59 -30 59 -62c0 -35 -27 -62 -59 -62zM78 70v209h-38c-34 0 -61 27 -61 62c0 32 27 62 61 62h38v208c0 39 32 70 72 70h199
c105 0 201 -20 281 -104c49 -53 82 -129 82 -236c0 -116 -39 -197 -97 -251c-81 -74 -184 -90 -280 -90h-185c-40 0 -72 31 -72 70z" />
    <glyph glyph-name="Euro" unicode="&#x20ac;" 
d="M19 308h26c-1 11 -1 22 -1 34l1 29h-26c-20 0 -35 16 -35 36s15 37 35 37h39c46 155 195 247 341 247c62 0 107 -10 150 -26c34 -13 57 -35 57 -69c0 -39 -29 -67 -65 -67c-39 0 -55 33 -146 33c-71 0 -147 -42 -184 -118h260c19 0 36 -17 36 -37s-17 -36 -36 -36h-280
c-1 -10 -2 -19 -2 -29c0 -12 0 -23 2 -34h228c19 0 36 -18 36 -38s-17 -36 -36 -36h-207c37 -75 111 -112 183 -112c34 0 60 4 81 10c36 11 59 24 78 24c36 0 62 -27 62 -67c0 -34 -27 -56 -59 -69c-43 -17 -98 -29 -160 -29c-161 0 -297 87 -339 243h-39
c-20 0 -35 16 -35 36s15 38 35 38z" />
    <glyph glyph-name="F" unicode="F" horiz-adv-x="578" 
d="M140 681h365c34 0 62 -29 62 -64s-28 -64 -62 -64h-293v-147h248c34 0 62 -29 62 -64s-28 -63 -62 -63h-248v-219c0 -39 -34 -70 -72 -70c-40 0 -72 31 -72 70v551c0 39 32 70 72 70z" />
    <glyph glyph-name="F.1" unicode="&#xe094;" horiz-adv-x="541" 
d="M530 617c0 -39 -29 -64 -66 -64h-126c-53 0 -91 -14 -113 -41c-20 -24 -26 -54 -26 -88v-17h212c37 0 66 -25 66 -64s-29 -64 -66 -64h-214v-219c0 -39 -33 -70 -72 -70s-72 31 -72 70v322c0 100 26 174 70 222c50 55 124 77 213 77h128c37 0 66 -25 66 -64z" />
    <glyph glyph-name="F.2" unicode="&#xe095;" horiz-adv-x="610" 
d="M140 681h397c34 0 62 -29 62 -64s-28 -64 -62 -64h-325v-187h272c34 0 62 -29 62 -64s-28 -63 -62 -63h-272v-179c0 -39 -34 -70 -72 -70c-40 0 -72 31 -72 70v551c0 39 32 70 72 70z" />
    <glyph glyph-name="Fsmall" unicode="&#xf766;" horiz-adv-x="480" 
d="M131 544h281c33 0 59 -24 59 -59s-26 -59 -59 -59h-215v-94h181c32 0 59 -23 59 -58c0 -36 -27 -59 -59 -59h-181v-159c0 -35 -30 -64 -66 -64s-66 29 -66 64v423c0 36 30 65 66 65z" />
    <glyph glyph-name="Fsmall.1" unicode="&#xe096;" horiz-adv-x="465" 
d="M48 56v253c0 74 18 128 51 167c40 48 102 70 177 70h124c32 0 59 -28 59 -60c0 -33 -27 -59 -59 -59h-130c-34 0 -58 -7 -72 -24c-12 -14 -16 -31 -16 -53v-15h185c33 0 58 -28 58 -61s-25 -59 -58 -59h-186v-159c0 -35 -30 -64 -66 -64s-67 29 -67 64z" />
    <glyph glyph-name="Fsmall.2" unicode="&#xe097;" horiz-adv-x="510" 
d="M131 544h311c33 0 59 -24 59 -59s-26 -59 -59 -59h-245v-108h195c32 0 59 -24 59 -59s-27 -59 -59 -59h-195v-144c0 -35 -30 -64 -66 -64s-66 29 -66 64v423c0 36 30 65 66 65z" />
    <glyph glyph-name="G" unicode="G" horiz-adv-x="750" 
d="M444 368h175c43 0 65 -30 65 -70v-238c0 -39 -27 -70 -71 -70c-29 0 -51 13 -62 34c-40 -19 -97 -34 -158 -34c-202 0 -353 123 -353 351c0 198 164 349 365 349c65 0 111 -8 156 -24c33 -11 58 -35 58 -70c0 -40 -30 -67 -67 -67c-45 0 -67 31 -150 31
c-118 0 -212 -96 -212 -219c0 -130 87 -223 212 -223c56 0 105 14 140 31v91h-98c-34 0 -62 29 -62 64s28 64 62 64z" />
    <glyph glyph-name="G.2" unicode="&#xe098;" horiz-adv-x="778" 
d="M452 364h229c34 0 63 -21 63 -67c0 -89 -33 -167 -93 -222c-58 -53 -141 -85 -244 -85c-210 0 -367 123 -367 351c0 207 167 349 377 349c67 0 116 -9 163 -25c35 -11 62 -34 62 -69c0 -40 -30 -67 -69 -67c-24 0 -41 10 -78 21c-21 6 -47 10 -81 10
c-124 0 -223 -91 -223 -219c0 -129 89 -222 222 -222c42 0 79 9 110 27c33 20 57 50 67 90h-138c-33 0 -61 29 -61 64c0 34 28 64 61 64z" />
    <glyph glyph-name="Gbreve" unicode="&#x11e;" horiz-adv-x="750" 
d="M444 368h175c43 0 65 -30 65 -70v-238c0 -39 -27 -70 -71 -70c-29 0 -51 13 -62 34c-40 -19 -97 -34 -158 -34c-202 0 -353 123 -353 351c0 198 164 349 365 349c65 0 111 -8 156 -24c33 -11 58 -35 58 -70c0 -40 -30 -67 -67 -67c-45 0 -67 31 -150 31
c-118 0 -212 -96 -212 -219c0 -130 87 -223 212 -223c56 0 105 14 140 31v91h-98c-34 0 -62 29 -62 64s28 64 62 64zM373 876c66 0 63 78 114 78c26 0 48 -20 48 -46c0 -72 -83 -126 -162 -126s-162 54 -162 126c0 26 22 46 48 46c51 0 48 -78 114 -78z" />
    <glyph glyph-name="Gbreve.2" unicode="&#xe099;" horiz-adv-x="778" 
d="M452 364h229c34 0 63 -21 63 -67c0 -89 -33 -167 -93 -222c-58 -53 -141 -85 -244 -85c-210 0 -367 123 -367 351c0 207 167 349 377 349c67 0 116 -9 163 -25c35 -11 62 -34 62 -69c0 -40 -30 -67 -69 -67c-24 0 -41 10 -78 21c-21 6 -47 10 -81 10
c-124 0 -223 -91 -223 -219c0 -129 89 -222 222 -222c42 0 79 9 110 27c33 20 57 50 67 90h-138c-33 0 -61 29 -61 64c0 34 28 64 61 64zM398 876c66 0 63 78 114 78c26 0 48 -20 48 -46c0 -72 -83 -126 -162 -126s-162 54 -162 126c0 26 22 46 48 46c51 0 48 -78 114 -78z
" />
    <glyph glyph-name="Gcommaaccent" unicode="&#x122;" horiz-adv-x="750" 
d="M444 368h175c43 0 65 -30 65 -70v-238c0 -39 -27 -70 -71 -70c-29 0 -51 13 -62 34c-40 -19 -97 -34 -158 -34c-202 0 -353 123 -353 351c0 198 164 349 365 349c65 0 111 -8 156 -24c33 -11 58 -35 58 -70c0 -40 -30 -67 -67 -67c-45 0 -67 31 -150 31
c-118 0 -212 -96 -212 -219c0 -130 87 -223 212 -223c56 0 105 14 140 31v91h-98c-34 0 -62 29 -62 64s28 64 62 64zM314 -318c0 34 58 42 58 85c0 40 -61 31 -61 99c0 39 26 76 82 76c60 0 96 -44 96 -111c0 -108 -105 -173 -150 -173c-15 0 -25 11 -25 24z" />
    <glyph glyph-name="Gcommaaccent.2" unicode="&#xe09a;" horiz-adv-x="778" 
d="M452 364h229c34 0 63 -21 63 -67c0 -89 -33 -167 -93 -222c-58 -53 -141 -85 -244 -85c-210 0 -367 123 -367 351c0 207 167 349 377 349c67 0 116 -9 163 -25c35 -11 62 -34 62 -69c0 -40 -30 -67 -69 -67c-24 0 -41 10 -78 21c-21 6 -47 10 -81 10
c-124 0 -223 -91 -223 -219c0 -129 89 -222 222 -222c42 0 79 9 110 27c33 20 57 50 67 90h-138c-33 0 -61 29 -61 64c0 34 28 64 61 64zM325 -318c0 34 58 42 58 85c0 40 -61 31 -61 99c0 39 26 76 82 76c60 0 96 -44 96 -111c0 -108 -105 -173 -150 -173
c-15 0 -25 11 -25 24z" />
    <glyph glyph-name="Gsmall" unicode="&#xf767;" horiz-adv-x="610" 
d="M331 552c46 0 93 -6 126 -21c31 -13 50 -34 50 -63c0 -35 -27 -62 -62 -62c-38 0 -53 26 -117 26c-46 0 -89 -22 -117 -56c-22 -28 -36 -63 -36 -103c0 -47 16 -90 45 -118c27 -27 66 -42 109 -42c41 0 73 10 95 22v51h-66c-32 0 -58 24 -58 59s26 59 58 59h131
c38 0 66 -23 66 -63v-186c0 -39 -30 -63 -66 -63c-21 0 -39 8 -51 21c-31 -13 -70 -21 -113 -21c-83 0 -154 24 -206 73s-81 121 -81 208c0 72 28 136 73 184c54 59 134 95 220 95z" />
    <glyph glyph-name="Gsmall.2" unicode="&#xe09b;" horiz-adv-x="635" 
d="M339 552c52 0 92 -8 129 -20c31 -10 56 -31 56 -63c0 -36 -28 -62 -64 -62c-21 0 -37 8 -60 15c-17 5 -37 10 -64 10c-90 0 -162 -67 -162 -160c0 -95 66 -161 162 -161c30 0 56 6 77 18c23 13 37 31 44 54h-85c-32 0 -58 23 -58 59c0 35 26 58 58 58h171
c33 0 59 -19 59 -62c0 -78 -32 -146 -88 -191c-46 -36 -108 -57 -183 -57c-168 0 -293 100 -293 282c0 166 133 280 301 280z" />
    <glyph glyph-name="Gsmallbreve" unicode="&#xe09c;" horiz-adv-x="611" 
d="M331 552c46 0 93 -6 126 -21c31 -13 50 -34 50 -63c0 -35 -27 -62 -62 -62c-38 0 -53 26 -117 26c-46 0 -89 -22 -117 -56c-22 -28 -36 -63 -36 -103c0 -47 16 -90 45 -118c27 -27 66 -42 109 -42c41 0 73 10 95 22v51h-66c-32 0 -58 24 -58 59s26 59 58 59h131
c38 0 66 -23 66 -63v-186c0 -39 -30 -63 -66 -63c-21 0 -39 8 -51 21c-31 -13 -70 -21 -113 -21c-83 0 -154 24 -206 73s-81 121 -81 208c0 72 28 136 73 184c54 59 134 95 220 95zM330 725c66 0 63 78 114 78c26 0 48 -20 48 -46c0 -72 -83 -126 -162 -126
s-162 54 -162 126c0 26 22 46 48 46c51 0 48 -78 114 -78z" />
    <glyph glyph-name="Gsmallbreve.2" unicode="&#xe09d;" horiz-adv-x="635" 
d="M339 552c52 0 92 -8 129 -20c31 -10 56 -31 56 -63c0 -36 -28 -62 -64 -62c-21 0 -37 8 -60 15c-17 5 -37 10 -64 10c-90 0 -162 -67 -162 -160c0 -95 66 -161 162 -161c30 0 56 6 77 18c23 13 37 31 44 54h-85c-32 0 -58 23 -58 59c0 35 26 58 58 58h171
c33 0 59 -19 59 -62c0 -78 -32 -146 -88 -191c-46 -36 -108 -57 -183 -57c-168 0 -293 100 -293 282c0 166 133 280 301 280zM332 725c66 0 63 78 114 78c26 0 48 -20 48 -46c0 -72 -83 -126 -162 -126s-162 54 -162 126c0 26 22 46 48 46c51 0 48 -78 114 -78z" />
    <glyph glyph-name="Gsmallcommaaccent" unicode="&#xe09e;" horiz-adv-x="611" 
d="M233 -318c0 34 57 42 57 85c0 40 -61 31 -61 99c0 39 26 76 82 76c61 0 96 -44 96 -111c0 -108 -105 -173 -150 -173c-14 0 -24 11 -24 24zM331 552c46 0 93 -6 126 -21c31 -13 50 -34 50 -63c0 -35 -27 -62 -62 -62c-38 0 -53 26 -117 26c-46 0 -89 -22 -117 -56
c-22 -28 -36 -63 -36 -103c0 -47 16 -90 45 -118c27 -27 66 -42 109 -42c41 0 73 10 95 22v51h-66c-32 0 -58 24 -58 59s26 59 58 59h131c38 0 66 -23 66 -63v-186c0 -39 -30 -63 -66 -63c-21 0 -39 8 -51 21c-31 -13 -70 -21 -113 -21c-83 0 -154 24 -206 73
s-81 121 -81 208c0 72 28 136 73 184c54 59 134 95 220 95z" />
    <glyph glyph-name="Gsmallcommaaccent.2" unicode="&#xe09f;" horiz-adv-x="635" 
d="M339 552c52 0 92 -8 129 -20c31 -10 56 -31 56 -63c0 -36 -28 -62 -64 -62c-21 0 -37 8 -60 15c-17 5 -37 10 -64 10c-90 0 -162 -67 -162 -160c0 -95 66 -161 162 -161c30 0 56 6 77 18c23 13 37 31 44 54h-85c-32 0 -58 23 -58 59c0 35 26 58 58 58h171
c33 0 59 -19 59 -62c0 -78 -32 -146 -88 -191c-46 -36 -108 -57 -183 -57c-168 0 -293 100 -293 282c0 166 133 280 301 280zM245 -318c0 34 58 42 58 85c0 40 -61 31 -61 99c0 39 26 76 82 76c60 0 96 -44 96 -111c0 -108 -105 -173 -150 -173c-15 0 -25 11 -25 24z" />
    <glyph glyph-name="H" unicode="H" horiz-adv-x="733" 
d="M68 60v560c0 39 32 70 72 70s72 -31 72 -70v-214h309v214c0 39 33 70 72 70c40 0 72 -31 72 -70v-560c0 -39 -33 -70 -72 -70s-72 31 -72 70v219h-309v-219c0 -39 -34 -70 -72 -70c-40 0 -72 31 -72 70z" />
    <glyph glyph-name="H.2" unicode="&#xe0a0;" horiz-adv-x="773" 
d="M68 60v560c0 39 32 70 72 70s72 -31 72 -70v-253h349v253c0 39 33 70 72 70c40 0 72 -31 72 -70v-560c0 -39 -33 -70 -72 -70s-72 31 -72 70v179h-349v-179c0 -39 -34 -70 -72 -70c-40 0 -72 31 -72 70z" />
    <glyph glyph-name="Hsmall" unicode="&#xf768;" horiz-adv-x="611" 
d="M414 487c0 36 30 65 66 65c37 0 66 -29 66 -65v-431c0 -35 -30 -64 -66 -64s-66 29 -66 64v159h-217v-159c0 -35 -30 -64 -66 -64s-66 29 -66 64v431c0 36 30 65 66 65c37 0 66 -29 66 -65v-153h217v153z" />
    <glyph glyph-name="Hsmall.2" unicode="&#xe0a1;" horiz-adv-x="649" 
d="M65 56v431c0 36 30 65 66 65c37 0 66 -29 66 -65v-167h255v167c0 36 30 65 66 65c37 0 66 -29 66 -65v-431c0 -35 -30 -64 -66 -64s-66 29 -66 64v144h-255v-144c0 -35 -30 -64 -66 -64s-66 29 -66 64z" />
    <glyph glyph-name="I" unicode="I" horiz-adv-x="280" 
d="M68 60v560c0 39 32 70 72 70s72 -31 72 -70v-560c0 -39 -34 -70 -72 -70c-40 0 -72 31 -72 70z" />
    <glyph glyph-name="Iacute" unicode="&#xcd;" horiz-adv-x="279" 
d="M68 60v560c0 39 32 70 72 70s72 -31 72 -70v-560c0 -39 -34 -70 -72 -70c-40 0 -72 31 -72 70zM61 805c0 11 3 20 9 31l53 105c9 19 23 33 47 33c27 0 52 -22 52 -49c0 -11 -4 -19 -13 -34l-61 -100c-11 -17 -24 -28 -43 -28c-23 0 -44 18 -44 42z" />
    <glyph glyph-name="Icircumflex" unicode="&#xce;" horiz-adv-x="279" 
d="M68 60v560c0 39 32 70 72 70s72 -31 72 -70v-560c0 -39 -34 -70 -72 -70c-40 0 -72 31 -72 70zM141 972c16 0 27 -7 37 -16l106 -101c13 -12 22 -24 22 -38c0 -29 -22 -47 -47 -47c-14 0 -25 5 -35 15l-83 80l-83 -80c-10 -10 -21 -15 -35 -15c-25 0 -47 18 -47 47
c0 14 9 26 22 38l106 101c10 9 21 16 37 16z" />
    <glyph glyph-name="Idieresis" unicode="&#xcf;" horiz-adv-x="279" 
d="M68 60v560c0 39 32 70 72 70s72 -31 72 -70v-560c0 -39 -34 -70 -72 -70c-40 0 -72 31 -72 70zM25 784c-42 0 -76 35 -76 77s34 76 76 76c43 0 76 -34 76 -76s-33 -77 -76 -77zM257 784c-42 0 -76 35 -76 77s34 76 76 76s76 -34 76 -76s-34 -77 -76 -77z" />
    <glyph glyph-name="Idotaccent" unicode="&#x130;" horiz-adv-x="279" 
d="M68 60v560c0 39 32 70 72 70s72 -31 72 -70v-560c0 -39 -34 -70 -72 -70c-40 0 -72 31 -72 70zM140 790c-42 0 -76 34 -76 76s34 76 76 76s76 -34 76 -76s-34 -76 -76 -76z" />
    <glyph glyph-name="Igrave" unicode="&#xcc;" horiz-adv-x="279" 
d="M68 60v560c0 39 32 70 72 70s72 -31 72 -70v-560c0 -39 -34 -70 -72 -70c-40 0 -72 31 -72 70zM222 805c0 -24 -21 -42 -45 -42c-18 0 -31 10 -42 28l-61 100c-10 15 -13 23 -13 34c0 27 25 49 52 49c24 0 38 -14 47 -33l53 -105c5 -11 9 -20 9 -31z" />
    <glyph glyph-name="Imacron" unicode="&#x12a;" horiz-adv-x="279" 
d="M68 60v560c0 39 32 70 72 70s72 -31 72 -70v-560c0 -39 -34 -70 -72 -70c-40 0 -72 31 -72 70zM285 870c0 -29 -24 -53 -53 -53h-182c-30 0 -54 24 -54 53c0 30 24 54 54 54h182c29 0 53 -24 53 -54z" />
    <glyph glyph-name="Iogonek" unicode="&#x12e;" horiz-adv-x="279" 
d="M12 -98c0 54 30 112 56 159v559c0 39 32 70 72 70s72 -31 72 -70v-560c0 -39 -34 -70 -72 -70c-11 0 -22 2 -31 7c-8 -21 -13 -38 -13 -61c0 -26 10 -53 62 -53c17 0 32 6 47 6c25 0 37 -16 37 -38c0 -24 -11 -39 -38 -48c-17 -6 -38 -9 -56 -9c-94 0 -136 39 -136 108z
" />
    <glyph glyph-name="Ismall" unicode="&#xf769;" horiz-adv-x="262" 
d="M65 56v432c0 36 30 64 66 64c37 0 66 -28 66 -64v-432c0 -35 -30 -64 -66 -64s-66 29 -66 64z" />
    <glyph glyph-name="Ismallacute" unicode="&#xe0a2;" horiz-adv-x="264" 
d="M66 56v432c0 36 30 64 66 64c37 0 66 -28 66 -64v-432c0 -35 -30 -64 -66 -64s-66 29 -66 64zM52 665c0 11 3 20 8 31l54 105c8 19 23 33 47 33c27 0 52 -22 52 -49c0 -11 -4 -19 -13 -34l-61 -100c-11 -17 -24 -28 -43 -28c-24 0 -44 18 -44 42z" />
    <glyph glyph-name="Ismallcircumflex" unicode="&#xe0a3;" horiz-adv-x="264" 
d="M65 56v432c0 36 30 64 66 64c37 0 66 -28 66 -64v-432c0 -35 -30 -64 -66 -64s-66 29 -66 64zM132 832c16 0 27 -7 37 -16l106 -101c13 -12 22 -24 22 -38c0 -29 -22 -47 -47 -47c-14 0 -25 5 -35 15l-83 80l-83 -80c-10 -10 -21 -15 -35 -15c-25 0 -47 18 -47 47
c0 14 9 26 22 38l106 101c10 9 21 16 37 16z" />
    <glyph glyph-name="Ismalldieresis" unicode="&#xe0a4;" horiz-adv-x="264" 
d="M65 56v432c0 36 30 64 66 64c37 0 66 -28 66 -64v-432c0 -35 -30 -64 -66 -64s-66 29 -66 64zM17 644c-42 0 -76 35 -76 77s34 76 76 76c43 0 76 -34 76 -76s-33 -77 -76 -77zM249 644c-42 0 -76 35 -76 77s34 76 76 76s76 -34 76 -76s-34 -77 -76 -77z" />
    <glyph glyph-name="Ismallgrave" unicode="&#xe0a5;" horiz-adv-x="264" 
d="M66 56v432c0 36 30 64 66 64c37 0 66 -28 66 -64v-432c0 -35 -30 -64 -66 -64s-66 29 -66 64zM213 665c0 -24 -21 -42 -45 -42c-18 0 -32 10 -42 28l-61 100c-10 15 -13 23 -13 34c0 27 24 49 52 49c24 0 38 -14 47 -33l53 -105c5 -11 9 -20 9 -31z" />
    <glyph glyph-name="Ismallmacron" unicode="&#xe0a6;" horiz-adv-x="264" 
d="M65 56v432c0 36 30 64 66 64c37 0 66 -28 66 -64v-432c0 -35 -30 -64 -66 -64s-66 29 -66 64zM277 707c0 -29 -24 -53 -53 -53h-182c-30 0 -54 24 -54 53c0 30 24 54 54 54h182c29 0 53 -24 53 -54z" />
    <glyph glyph-name="Ismallogonek" unicode="&#xe0a7;" horiz-adv-x="264" 
d="M65 56v432c0 36 30 64 66 64c37 0 66 -28 66 -64v-432c0 -14 -5 -28 -14 -38h1c-13 -34 -21 -55 -21 -82c0 -26 10 -53 62 -53c17 0 31 6 47 6c25 0 37 -16 37 -38c0 -24 -11 -39 -38 -48c-17 -6 -39 -9 -56 -9c-94 0 -137 39 -137 108c0 27 10 59 27 95
c-23 10 -40 32 -40 59z" />
    <glyph glyph-name="J" unicode="J" horiz-adv-x="533" 
d="M467 620v-373c0 -96 -31 -162 -82 -203c-46 -37 -108 -54 -178 -54c-54 0 -121 17 -170 57c-17 15 -29 35 -29 59c0 38 29 66 66 66c48 0 63 -54 132 -54c33 0 61 8 81 26c27 25 36 61 36 115v361c0 39 33 70 72 70c40 0 72 -31 72 -70z" />
    <glyph glyph-name="Jsmall" unicode="&#xf76a;" horiz-adv-x="452" 
d="M389 488v-287c0 -68 -18 -117 -49 -151c-38 -40 -96 -58 -161 -58c-36 0 -83 10 -117 30c-28 16 -48 38 -48 68c0 36 27 62 61 62c17 0 30 -8 43 -16c16 -11 33 -24 59 -24c27 0 49 8 62 26c12 15 17 39 17 72v278c0 36 30 64 68 64c36 0 65 -28 65 -64z" />
    <glyph glyph-name="K" unicode="K" horiz-adv-x="618" 
d="M556 576l-187 -190l215 -285c8 -11 12 -25 12 -38c0 -37 -32 -73 -73 -73c-26 0 -44 12 -59 32l-192 263l-60 -61v-164c0 -39 -34 -70 -72 -70c-40 0 -72 31 -72 70v560c0 39 32 70 72 70s72 -31 72 -70v-211l242 259c13 14 31 22 50 22c36 0 69 -31 69 -70
c0 -16 -5 -32 -17 -44z" />
    <glyph glyph-name="K.2" unicode="&#xe0a8;" horiz-adv-x="696" 
d="M68 60v560c0 39 32 70 72 70s72 -31 72 -70v-260l286 309c13 14 31 22 50 22c36 0 69 -31 69 -70c0 -16 -5 -32 -17 -45l-190 -194c68 -19 124 -51 165 -98c46 -51 72 -120 72 -204c0 -63 -35 -90 -74 -90c-51 0 -73 37 -73 70c0 61 -17 109 -46 143
c-34 40 -85 61 -149 70l-93 -97v-116c0 -39 -34 -70 -72 -70c-40 0 -72 31 -72 70z" />
    <glyph glyph-name="Kcommaaccent" unicode="&#x136;" horiz-adv-x="618" 
d="M556 576l-187 -190l215 -285c8 -11 12 -25 12 -38c0 -37 -32 -73 -73 -73c-26 0 -44 12 -59 32l-192 263l-60 -61v-164c0 -39 -34 -70 -72 -70c-40 0 -72 31 -72 70v560c0 39 32 70 72 70s72 -31 72 -70v-211l242 259c13 14 31 22 50 22c36 0 69 -31 69 -70
c0 -16 -5 -32 -17 -44zM240 -318c0 34 58 42 58 85c0 40 -61 31 -61 99c0 39 26 76 82 76c60 0 96 -44 96 -111c0 -108 -105 -173 -150 -173c-15 0 -25 11 -25 24z" />
    <glyph glyph-name="Kcommaaccent.2" unicode="&#xe0a9;" horiz-adv-x="696" 
d="M68 60v560c0 39 32 70 72 70s72 -31 72 -70v-260l286 309c13 14 31 22 50 22c36 0 69 -31 69 -70c0 -16 -5 -32 -17 -45l-190 -194c68 -19 124 -51 165 -98c46 -51 72 -120 72 -204c0 -63 -35 -90 -74 -90c-51 0 -73 37 -73 70c0 61 -17 109 -46 143
c-34 40 -85 61 -149 70l-93 -97v-116c0 -39 -34 -70 -72 -70c-40 0 -72 31 -72 70zM270 -318c0 34 58 42 58 85c0 40 -61 31 -61 99c0 39 26 76 82 76c60 0 96 -44 96 -111c0 -108 -105 -173 -150 -173c-15 0 -25 11 -25 24z" />
    <glyph glyph-name="Ksmall" unicode="&#xf76b;" horiz-adv-x="505" 
d="M459 445l-137 -139l154 -203c10 -13 18 -28 18 -44c0 -38 -30 -67 -66 -67c-27 0 -43 11 -55 29l-141 188l-35 -33v-120c0 -35 -30 -64 -66 -64s-66 29 -66 64v432c0 36 30 64 66 64c37 0 66 -28 66 -64v-133l168 177c13 14 29 20 46 20c35 0 64 -27 64 -65
c0 -13 -5 -30 -16 -42z" />
    <glyph glyph-name="Ksmall.2" unicode="&#xe0aa;" horiz-adv-x="576" 
d="M65 56v432c0 36 30 64 66 64c37 0 66 -28 66 -64v-177l205 219c11 13 27 23 47 23c40 0 68 -29 68 -65c0 -16 -8 -31 -20 -43l-136 -138c52 -16 94 -42 125 -78c34 -41 53 -94 53 -158c0 -56 -31 -79 -67 -79c-50 0 -69 33 -69 63c0 50 -15 88 -41 113
c-24 22 -58 36 -98 41l-67 -68v-85c0 -35 -30 -64 -66 -64s-66 29 -66 64z" />
    <glyph glyph-name="Ksmallcommaaccent" unicode="&#xe0ab;" horiz-adv-x="506" 
d="M459 445l-136 -139l154 -203c10 -13 18 -28 18 -44c0 -38 -30 -67 -67 -67c-27 0 -42 11 -55 29l-140 188l-35 -33v-120c0 -35 -30 -64 -66 -64s-66 29 -66 64v432c0 36 30 64 66 64c37 0 66 -28 66 -64v-133l168 177c13 13 29 20 46 20c35 0 64 -27 64 -65
c0 -13 -5 -30 -17 -42zM188 -318c0 34 58 42 58 85c0 40 -61 31 -61 99c0 39 26 76 82 76c60 0 96 -44 96 -111c0 -108 -105 -173 -150 -173c-15 0 -25 11 -25 24z" />
    <glyph glyph-name="Ksmallcommaaccent.2" unicode="&#xe0ac;" horiz-adv-x="576" 
d="M65 56v432c0 36 30 64 66 64c37 0 66 -28 66 -64v-177l205 219c11 13 27 23 47 23c40 0 68 -29 68 -65c0 -16 -8 -31 -20 -43l-136 -138c52 -16 94 -42 125 -78c34 -41 53 -94 53 -158c0 -56 -31 -79 -67 -79c-50 0 -69 33 -69 63c0 50 -15 88 -41 113
c-24 22 -58 36 -98 41l-67 -68v-85c0 -35 -30 -64 -66 -64s-66 29 -66 64zM216 -318c0 34 58 42 58 85c0 40 -61 31 -61 99c0 39 26 76 82 76c60 0 96 -44 96 -111c0 -108 -105 -173 -150 -173c-15 0 -25 11 -25 24z" />
    <glyph glyph-name="L" unicode="L" horiz-adv-x="542" 
d="M68 70v550c0 39 31 70 72 70c40 0 72 -31 72 -70v-492h252c35 0 62 -30 62 -64c0 -35 -27 -64 -62 -64h-324c-41 0 -72 31 -72 70z" />
    <glyph glyph-name="L.1" unicode="&#xe0ad;" horiz-adv-x="527" 
d="M53 289v331c0 39 32 70 72 70s72 -31 72 -70v-352c0 -41 8 -75 28 -99c22 -27 58 -41 110 -41h115c34 0 61 -30 61 -64c0 -35 -27 -64 -61 -64h-118c-102 0 -181 25 -229 91c-33 45 -50 109 -50 198z" />
    <glyph glyph-name="Lacute" unicode="&#x139;" horiz-adv-x="542" 
d="M68 70v550c0 39 31 70 72 70c40 0 72 -31 72 -70v-492h252c35 0 62 -30 62 -64c0 -35 -27 -64 -62 -64h-324c-41 0 -72 31 -72 70zM82 805c0 11 3 20 9 31l53 105c9 19 23 33 47 33c27 0 52 -22 52 -49c0 -11 -4 -19 -13 -34l-61 -100c-11 -17 -24 -28 -43 -28
c-23 0 -44 18 -44 42z" />
    <glyph glyph-name="Lacute.1" unicode="&#xe0ae;" horiz-adv-x="527" 
d="M53 289v331c0 39 32 70 72 70s72 -31 72 -70v-352c0 -41 8 -75 28 -99c22 -27 58 -41 110 -41h115c34 0 61 -30 61 -64c0 -35 -27 -64 -61 -64h-118c-102 0 -181 25 -229 91c-33 45 -50 109 -50 198zM68 805c0 11 3 20 9 31l53 105c9 19 23 33 47 33c27 0 52 -22 52 -49
c0 -11 -4 -19 -13 -34l-61 -100c-11 -17 -24 -28 -43 -28c-23 0 -44 18 -44 42z" />
    <glyph glyph-name="Lcaron" unicode="&#x13d;" horiz-adv-x="542" 
d="M68 70v550c0 39 31 70 72 70c40 0 72 -31 72 -70v-492h252c35 0 62 -30 62 -64c0 -35 -27 -64 -62 -64h-324c-41 0 -72 31 -72 70zM305 430c0 34 58 42 58 85c0 40 -61 31 -61 99c0 39 26 76 82 76c60 0 96 -44 96 -111c0 -108 -105 -173 -150 -173c-15 0 -25 11 -25 24z
" />
    <glyph glyph-name="Lcaron.1" unicode="&#xe0af;" horiz-adv-x="527" 
d="M53 289v331c0 39 32 70 72 70s72 -31 72 -70v-352c0 -41 8 -75 28 -99c22 -27 58 -41 110 -41h115c34 0 61 -30 61 -64c0 -35 -27 -64 -61 -64h-118c-102 0 -181 25 -229 91c-33 45 -50 109 -50 198zM291 430c0 34 58 42 58 85c0 40 -61 31 -61 99c0 39 26 76 82 76
c60 0 96 -44 96 -111c0 -108 -105 -173 -150 -173c-15 0 -25 11 -25 24z" />
    <glyph glyph-name="Lcommaaccent" unicode="&#x13b;" horiz-adv-x="542" 
d="M68 70v550c0 39 31 70 72 70c40 0 72 -31 72 -70v-492h252c35 0 62 -30 62 -64c0 -35 -27 -64 -62 -64h-324c-41 0 -72 31 -72 70zM208 -318c0 34 58 42 58 85c0 40 -61 31 -61 99c0 39 26 76 82 76c60 0 96 -44 96 -111c0 -108 -105 -173 -150 -173c-15 0 -25 11 -25 24
z" />
    <glyph glyph-name="Lcommaaccent.1" unicode="&#xe0b0;" horiz-adv-x="527" 
d="M53 289v331c0 39 32 70 72 70s72 -31 72 -70v-352c0 -41 8 -75 28 -99c22 -27 58 -41 110 -41h115c34 0 61 -30 61 -64c0 -35 -27 -64 -61 -64h-118c-102 0 -181 25 -229 91c-33 45 -50 109 -50 198zM194 -318c0 34 58 42 58 85c0 40 -61 31 -61 99c0 39 26 76 82 76
c60 0 96 -44 96 -111c0 -108 -105 -173 -150 -173c-15 0 -25 11 -25 24z" />
    <glyph glyph-name="Lslash" unicode="&#x141;" horiz-adv-x="554" 
d="M78 70v148l-24 -15c-10 -6 -21 -10 -32 -10c-33 0 -56 26 -56 57c0 19 9 37 26 48l86 56v267c0 39 32 70 72 70c41 0 72 -31 72 -70v-175l50 32c10 7 21 10 31 10c33 0 57 -25 57 -57c0 -18 -9 -37 -26 -48l-112 -72v-186h253c35 0 62 -29 62 -62c0 -35 -27 -63 -62 -63
h-325c-40 0 -72 31 -72 70z" />
    <glyph glyph-name="Lsmall" unicode="&#xf76c;" horiz-adv-x="447" 
d="M65 65v423c0 35 30 64 66 64s66 -29 66 -64v-370h184c33 0 59 -24 59 -59s-26 -59 -59 -59h-250c-36 0 -66 29 -66 65z" />
    <glyph glyph-name="Lsmall.1" unicode="&#xe0b1;" horiz-adv-x="456" 
d="M181 488v-284c0 -24 5 -44 15 -58c14 -18 36 -27 70 -27h124c33 0 59 -27 59 -60s-26 -59 -59 -59h-114c-79 0 -144 19 -187 77c-30 40 -41 92 -41 160v251c0 35 31 64 67 64s66 -29 66 -64z" />
    <glyph glyph-name="Lsmallacute" unicode="&#xe0b2;" horiz-adv-x="448" 
d="M66 65v423c0 35 30 64 66 64s66 -29 66 -64v-370h184c32 0 59 -24 59 -59s-27 -59 -59 -59h-250c-36 0 -66 29 -66 65zM63 665c0 11 4 20 9 31l53 105c9 19 23 33 47 33c27 0 52 -22 52 -49c0 -11 -3 -19 -13 -34l-61 -100c-11 -17 -24 -28 -42 -28c-24 0 -45 18 -45 42z
" />
    <glyph glyph-name="Lsmallacute.1" unicode="&#xe0b3;" horiz-adv-x="458" 
d="M48 665c0 11 4 20 9 31l53 105c9 19 23 33 47 33c28 0 52 -22 52 -49c0 -11 -3 -19 -13 -34l-61 -100c-11 -17 -24 -28 -42 -28c-24 0 -45 18 -45 42zM183 488v-284c0 -24 6 -44 16 -58c13 -18 35 -27 69 -27h124c33 0 59 -27 59 -60s-26 -59 -59 -59h-114
c-79 0 -143 19 -186 77c-30 40 -41 92 -41 160v251c0 35 30 64 66 64s66 -29 66 -64z" />
    <glyph glyph-name="Lsmallcaron" unicode="&#xe0b4;" horiz-adv-x="448" 
d="M66 65v423c0 35 30 64 66 64s66 -29 66 -64v-370h184c32 0 59 -24 59 -59s-27 -59 -59 -59h-250c-36 0 -66 29 -66 65zM257 293c0 33 57 41 57 85c0 40 -61 30 -61 98c0 39 26 76 82 76c61 0 96 -44 96 -111c0 -107 -105 -172 -150 -172c-14 0 -24 10 -24 24z" />
    <glyph glyph-name="Lsmallcaron.1" unicode="&#xe0b5;" horiz-adv-x="456" 
d="M181 488v-284c0 -24 5 -44 15 -58c14 -18 36 -27 70 -27h124c33 0 59 -27 59 -60s-26 -59 -59 -59h-114c-79 0 -144 19 -187 77c-30 40 -41 92 -41 160v251c0 35 31 64 67 64s66 -29 66 -64zM239 292c0 34 58 42 58 85c0 40 -61 31 -61 99c0 39 26 76 82 76
c60 0 96 -44 96 -111c0 -108 -105 -173 -150 -173c-15 0 -25 11 -25 24z" />
    <glyph glyph-name="Lsmallcommaaccent" unicode="&#xe0b6;" horiz-adv-x="448" 
d="M66 65v423c0 35 30 64 66 64s66 -29 66 -64v-370h184c32 0 59 -24 59 -59s-27 -59 -59 -59h-250c-36 0 -66 29 -66 65zM167 -318c0 34 58 42 58 85c0 40 -62 31 -62 99c0 39 26 76 82 76c61 0 96 -44 96 -111c0 -108 -105 -173 -149 -173c-15 0 -25 11 -25 24z" />
    <glyph glyph-name="Lsmallcommaaccent.1" unicode="&#xe0b7;" horiz-adv-x="456" 
d="M181 488v-284c0 -24 5 -44 15 -58c14 -18 36 -27 70 -27h124c33 0 59 -27 59 -60s-26 -59 -59 -59h-114c-79 0 -144 19 -187 77c-30 40 -41 92 -41 160v251c0 35 31 64 67 64s66 -29 66 -64zM162 -318c0 34 58 42 58 85c0 40 -61 31 -61 99c0 39 26 76 82 76
c60 0 96 -44 96 -111c0 -108 -105 -173 -150 -173c-15 0 -25 11 -25 24z" />
    <glyph glyph-name="M" unicode="M" horiz-adv-x="840" 
d="M68 602c0 49 35 88 90 88c36 0 63 -18 79 -45l182 -317l184 317c15 27 42 45 78 45c55 0 91 -39 91 -88v-545c0 -37 -28 -67 -70 -67s-69 30 -69 67v374l-143 -241c-14 -24 -36 -44 -70 -44s-56 20 -70 44l-143 241v-374c0 -37 -28 -67 -70 -67s-69 30 -69 67v545z" />
    <glyph glyph-name="M.2" unicode="&#xe0b8;" horiz-adv-x="987" 
d="M68 602c0 49 35 88 90 88c36 0 64 -18 79 -45l256 -464l257 464c16 27 43 45 79 45c55 0 90 -39 90 -88v-545c0 -37 -27 -67 -69 -67s-70 30 -70 67v366l-216 -389c-14 -24 -36 -44 -71 -44c-34 0 -56 20 -70 44l-216 389v-366c0 -37 -28 -67 -70 -67s-69 30 -69 67v545z
" />
    <glyph glyph-name="M.3" unicode="&#xe0b9;" horiz-adv-x="1167" 
d="M957 60v320c0 100 -34 182 -150 182c-42 0 -78 -12 -105 -39c-28 -29 -46 -79 -46 -150v-313c0 -39 -33 -70 -72 -70s-72 31 -72 70v321c0 54 -12 105 -41 137c-23 27 -58 44 -108 44c-46 0 -84 -14 -111 -45c-29 -34 -40 -86 -40 -146v-311c0 -39 -34 -70 -72 -70
c-40 0 -72 31 -72 70v560c0 39 32 70 72 70c34 0 62 -23 70 -53c43 33 99 53 169 53c52 0 96 -10 135 -32c34 -20 62 -48 85 -87c17 29 40 54 67 74c41 29 95 45 158 45c175 0 277 -101 277 -306v-324c0 -39 -34 -70 -72 -70c-40 0 -72 31 -72 70z" />
    <glyph glyph-name="Msmall" unicode="&#xf76d;" horiz-adv-x="693" 
d="M65 54v421c0 44 32 77 80 77c32 0 56 -16 69 -39l132 -227l131 227c13 23 37 39 70 39c48 0 81 -33 81 -77v-421c0 -33 -27 -62 -65 -62s-65 29 -65 62v261c-12 -23 -74 -125 -88 -148c-12 -20 -31 -39 -63 -39s-54 19 -65 39l-88 148v-261c0 -33 -26 -62 -65 -62
s-64 29 -64 62z" />
    <glyph glyph-name="Msmall.2" unicode="&#xe0ba;" horiz-adv-x="829" 
d="M65 54v421c0 44 32 77 80 77c32 0 56 -16 69 -39l200 -363l199 363c13 24 38 39 71 39c48 0 80 -33 80 -77v-421c0 -33 -26 -62 -64 -62c-39 0 -65 29 -65 62v261l-157 -284c-13 -21 -31 -39 -63 -39s-54 18 -65 39l-156 284v-261c0 -33 -26 -62 -65 -62s-64 29 -64 62z
" />
    <glyph glyph-name="Msmall.3" unicode="&#xe0bb;" horiz-adv-x="945" 
d="M756 57v242c0 38 -7 78 -27 102c-14 18 -38 32 -78 32s-67 -19 -84 -45c-17 -31 -24 -72 -24 -120v-211c0 -36 -31 -65 -66 -65c-37 0 -66 29 -66 65v242c0 38 -8 78 -27 102c-15 18 -39 32 -79 32c-39 0 -68 -19 -83 -45c-17 -29 -25 -73 -25 -117v-214
c0 -36 -31 -65 -66 -65c-37 0 -66 29 -66 65v430c0 36 29 65 66 65c29 0 53 -18 62 -44c44 32 99 44 142 44c36 0 71 -7 100 -22c29 -14 51 -34 65 -56c16 19 41 41 73 56c29 15 64 22 103 22c58 0 114 -17 153 -55c35 -35 59 -87 59 -166v-274c0 -36 -31 -65 -66 -65
c-37 0 -66 29 -66 65z" />
    <glyph glyph-name="N" unicode="N" horiz-adv-x="743" 
d="M675 624v-556c0 -44 -37 -78 -83 -78c-29 0 -54 14 -70 36l-317 415v-386c0 -36 -31 -65 -69 -65s-68 29 -68 65v557c0 43 36 78 82 78c29 0 54 -15 70 -37l317 -414v385c0 36 31 66 69 66s69 -30 69 -66z" />
    <glyph glyph-name="N.2" unicode="&#xe0bc;" horiz-adv-x="785" 
d="M579 56c0 65 -105 138 -190 198c-40 28 -80 58 -119 89c-24 19 -46 39 -65 59v-346c0 -36 -30 -66 -68 -66s-69 30 -69 66v568c0 36 31 66 69 66s68 -31 68 -66c0 -62 90 -126 190 -198c39 -28 80 -58 119 -91c24 -19 46 -39 65 -59v348c0 36 31 66 70 66
c38 0 68 -30 68 -66v-568c0 -36 -30 -66 -68 -66c-39 0 -70 33 -70 66z" />
    <glyph glyph-name="N.3" unicode="&#xe0bd;" horiz-adv-x="725" 
d="M523 60v322c0 55 -8 106 -37 137c-22 22 -54 38 -99 38c-67 0 -112 -27 -140 -71c-25 -40 -35 -87 -35 -139v-287c0 -39 -34 -70 -72 -70c-40 0 -72 31 -72 70v560c0 39 32 70 72 70s72 -31 72 -70v-12c46 52 119 82 192 82c72 0 139 -19 188 -65c46 -43 75 -112 75 -213
v-352c0 -39 -34 -70 -72 -70c-40 0 -72 31 -72 70z" />
    <glyph glyph-name="Nacute" unicode="&#x143;" horiz-adv-x="743" 
d="M675 624v-556c0 -44 -37 -78 -83 -78c-29 0 -54 14 -70 36l-317 415v-386c0 -36 -31 -65 -69 -65s-68 29 -68 65v557c0 43 36 78 82 78c29 0 54 -15 70 -37l317 -414v385c0 36 31 66 69 66s69 -30 69 -66zM290 805c0 11 3 20 9 31l53 105c9 19 23 33 47 33
c27 0 52 -22 52 -49c0 -11 -4 -19 -13 -34l-61 -100c-11 -17 -24 -28 -43 -28c-23 0 -44 18 -44 42z" />
    <glyph glyph-name="Nacute.2" unicode="&#xe0be;" horiz-adv-x="785" 
d="M331 805c0 11 3 20 9 31l53 105c9 19 23 33 47 33c27 0 52 -22 52 -49c0 -11 -4 -19 -13 -34l-61 -100c-11 -17 -24 -28 -43 -28c-23 0 -44 18 -44 42zM579 56c0 65 -105 138 -190 198c-40 28 -80 58 -119 89c-24 19 -46 39 -65 59v-346c0 -36 -30 -66 -68 -66
s-69 30 -69 66v568c0 36 31 66 69 66s68 -31 68 -66c0 -62 90 -126 190 -198c39 -28 80 -58 119 -91c24 -19 46 -39 65 -59v348c0 36 31 66 70 66c38 0 68 -30 68 -66v-568c0 -36 -30 -66 -68 -66c-39 0 -70 33 -70 66z" />
    <glyph glyph-name="Nacute.3" unicode="&#xe0bf;" horiz-adv-x="725" 
d="M523 60v322c0 55 -8 106 -37 137c-22 22 -54 38 -99 38c-67 0 -112 -27 -140 -71c-25 -40 -35 -87 -35 -139v-287c0 -39 -34 -70 -72 -70c-40 0 -72 31 -72 70v560c0 39 32 70 72 70s72 -31 72 -70v-12c46 52 119 82 192 82c72 0 139 -19 188 -65c46 -43 75 -112 75 -213
v-352c0 -39 -34 -70 -72 -70c-40 0 -72 31 -72 70zM318 805c0 11 3 20 9 31l53 105c9 19 23 33 47 33c27 0 52 -22 52 -49c0 -11 -4 -19 -13 -34l-61 -100c-11 -17 -24 -28 -43 -28c-23 0 -44 18 -44 42z" />
    <glyph glyph-name="Ncaron" unicode="&#x147;" horiz-adv-x="743" 
d="M675 624v-556c0 -44 -37 -78 -83 -78c-29 0 -54 14 -70 36l-317 415v-386c0 -36 -31 -65 -69 -65s-68 29 -68 65v557c0 43 36 78 82 78c29 0 54 -15 70 -37l317 -414v385c0 36 31 66 69 66s69 -30 69 -66zM372 770c-16 0 -27 7 -37 16l-106 101c-13 12 -22 24 -22 38
c0 29 22 47 47 47c14 0 25 -5 35 -15l83 -80l83 80c10 10 21 15 35 15c25 0 47 -18 47 -47c0 -14 -9 -26 -22 -38l-106 -101c-10 -9 -21 -16 -37 -16z" />
    <glyph glyph-name="Ncaron.2" unicode="&#xe0c0;" horiz-adv-x="785" 
d="M400 770c-16 0 -27 7 -37 16l-106 101c-13 12 -22 24 -22 38c0 29 22 47 47 47c14 0 25 -5 35 -15l83 -80l83 80c10 10 21 15 35 15c25 0 47 -18 47 -47c0 -14 -9 -26 -22 -38l-106 -101c-10 -9 -21 -16 -37 -16zM579 56c0 65 -105 138 -190 198c-40 28 -80 58 -119 89
c-24 19 -46 39 -65 59v-346c0 -36 -30 -66 -68 -66s-69 30 -69 66v568c0 36 31 66 69 66s68 -31 68 -66c0 -62 90 -126 190 -198c39 -28 80 -58 119 -91c24 -19 46 -39 65 -59v348c0 36 31 66 70 66c38 0 68 -30 68 -66v-568c0 -36 -30 -66 -68 -66c-39 0 -70 33 -70 66z
" />
    <glyph glyph-name="Ncaron.3" unicode="&#xe0c1;" horiz-adv-x="725" 
d="M523 60v322c0 55 -8 106 -37 137c-22 22 -54 38 -99 38c-67 0 -112 -27 -140 -71c-25 -40 -35 -87 -35 -139v-287c0 -39 -34 -70 -72 -70c-40 0 -72 31 -72 70v560c0 39 32 70 72 70s72 -31 72 -70v-12c46 52 119 82 192 82c72 0 139 -19 188 -65c46 -43 75 -112 75 -213
v-352c0 -39 -34 -70 -72 -70c-40 0 -72 31 -72 70zM402 770c-16 0 -27 7 -37 16l-106 101c-13 12 -22 24 -22 38c0 29 22 47 47 47c14 0 25 -5 35 -15l83 -80l83 80c10 10 21 15 35 15c25 0 47 -18 47 -47c0 -14 -9 -26 -22 -38l-106 -101c-10 -9 -21 -16 -37 -16z" />
    <glyph glyph-name="Ncommaaccent" unicode="&#x145;" horiz-adv-x="743" 
d="M675 624v-556c0 -44 -37 -78 -83 -78c-29 0 -54 14 -70 36l-317 415v-386c0 -36 -31 -65 -69 -65s-68 29 -68 65v557c0 43 36 78 82 78c29 0 54 -15 70 -37l317 -414v385c0 36 31 66 69 66s69 -30 69 -66zM286 -318c0 34 58 42 58 85c0 40 -61 31 -61 99
c0 39 26 76 82 76c60 0 96 -44 96 -111c0 -108 -105 -173 -150 -173c-15 0 -25 11 -25 24z" />
    <glyph glyph-name="Ncommaaccent.2" unicode="&#xe0c2;" horiz-adv-x="785" 
d="M316 -318c0 34 58 42 58 85c0 40 -61 31 -61 99c0 39 26 76 82 76c60 0 96 -44 96 -111c0 -108 -105 -173 -150 -173c-15 0 -25 11 -25 24zM579 56c0 65 -105 138 -190 198c-40 28 -80 58 -119 89c-24 19 -46 39 -65 59v-346c0 -36 -30 -66 -68 -66s-69 30 -69 66v568
c0 36 31 66 69 66s68 -31 68 -66c0 -62 90 -126 190 -198c39 -28 80 -58 119 -91c24 -19 46 -39 65 -59v348c0 36 31 66 70 66c38 0 68 -30 68 -66v-568c0 -36 -30 -66 -68 -66c-39 0 -70 33 -70 66z" />
    <glyph glyph-name="Ncommaaccent.3" unicode="&#xe0c3;" horiz-adv-x="725" 
d="M523 60v322c0 55 -8 106 -37 137c-22 22 -54 38 -99 38c-67 0 -112 -27 -140 -71c-25 -40 -35 -87 -35 -139v-287c0 -39 -34 -70 -72 -70c-40 0 -72 31 -72 70v560c0 39 32 70 72 70s72 -31 72 -70v-12c46 52 119 82 192 82c72 0 139 -19 188 -65c46 -43 75 -112 75 -213
v-352c0 -39 -34 -70 -72 -70c-40 0 -72 31 -72 70zM284 -318c0 34 58 42 58 85c0 40 -61 31 -61 99c0 39 26 76 82 76c60 0 96 -44 96 -111c0 -108 -105 -173 -150 -173c-15 0 -25 11 -25 24z" />
    <glyph glyph-name="Nsmall" unicode="&#xf76e;" horiz-adv-x="620" 
d="M555 492v-440c0 -33 -29 -60 -62 -60c-25 0 -41 12 -56 29l-246 299v-268c0 -32 -27 -60 -64 -60s-62 28 -62 60v440c0 33 29 60 62 60c25 0 42 -11 56 -29l246 -299v268c0 32 27 60 64 60s62 -28 62 -60z" />
    <glyph glyph-name="Nsmall.2" unicode="&#xe0c4;" horiz-adv-x="671" 
d="M607 492v-440c0 -32 -27 -60 -64 -60s-62 30 -62 60c0 51 -72 98 -147 146c-49 31 -103 67 -143 107v-253c0 -32 -27 -60 -64 -60s-62 28 -62 60v440c0 32 25 60 62 60s64 -30 64 -60c0 -50 69 -98 146 -147c49 -31 103 -66 144 -107v254c0 32 25 60 62 60s64 -28 64 -60
z" />
    <glyph glyph-name="Nsmall.3" unicode="&#xe0c5;" horiz-adv-x="622" 
d="M432 57v244c0 39 -7 79 -31 104c-15 16 -40 28 -74 28c-50 0 -82 -20 -103 -54c-18 -28 -27 -69 -27 -108v-214c0 -36 -31 -65 -66 -65c-37 0 -66 29 -66 65v430c0 36 29 65 66 65c36 0 65 -29 66 -64c39 41 99 64 160 64c58 0 111 -15 150 -52c36 -35 58 -91 58 -171
v-272c0 -36 -31 -65 -66 -65c-37 0 -67 29 -67 65z" />
    <glyph glyph-name="Nsmallacute" unicode="&#xe0c6;" horiz-adv-x="622" 
d="M556 492v-440c0 -33 -29 -60 -62 -60c-25 0 -42 11 -56 29l-246 299v-268c0 -32 -27 -60 -64 -60s-62 28 -62 60v440c0 33 29 60 62 60c25 0 41 -12 55 -29l247 -299v268c0 32 27 60 64 60s62 -28 62 -60zM232 665c0 11 4 20 9 31l53 105c9 19 23 33 47 33
c28 0 52 -22 52 -49c0 -11 -3 -19 -13 -34l-61 -100c-11 -17 -24 -28 -42 -28c-24 0 -45 18 -45 42z" />
    <glyph glyph-name="Nsmallacute.2" unicode="&#xe0c7;" horiz-adv-x="671" 
d="M271 665c0 11 3 20 9 31l53 105c9 19 23 33 47 33c27 0 52 -22 52 -49c0 -11 -4 -19 -13 -34l-61 -100c-11 -17 -24 -28 -43 -28c-23 0 -44 18 -44 42zM607 492v-440c0 -32 -27 -60 -64 -60s-62 30 -62 60c0 51 -72 98 -147 146c-49 31 -103 67 -143 107v-253
c0 -32 -27 -60 -64 -60s-62 28 -62 60v440c0 32 25 60 62 60s64 -30 64 -60c0 -50 69 -98 146 -147c49 -31 103 -66 144 -107v254c0 32 25 60 62 60s64 -28 64 -60z" />
    <glyph glyph-name="Nsmallacute.3" unicode="&#xe0c8;" horiz-adv-x="622" 
d="M432 57v244c0 39 -7 79 -31 104c-15 16 -40 28 -74 28c-50 0 -82 -20 -103 -54c-18 -28 -27 -69 -27 -108v-214c0 -36 -31 -65 -66 -65c-37 0 -66 29 -66 65v430c0 36 29 65 66 65c36 0 65 -29 66 -64c39 41 99 64 160 64c58 0 111 -15 150 -52c36 -35 58 -91 58 -171
v-272c0 -36 -31 -65 -66 -65c-37 0 -67 29 -67 65zM270 665c0 11 3 20 9 31l53 105c9 19 23 33 47 33c27 0 52 -22 52 -49c0 -11 -4 -19 -13 -34l-61 -100c-11 -17 -24 -28 -43 -28c-23 0 -44 18 -44 42z" />
    <glyph glyph-name="Nsmallcaron" unicode="&#xe0c9;" horiz-adv-x="622" 
d="M556 492v-440c0 -33 -29 -60 -62 -60c-25 0 -41 12 -56 29l-246 299v-268c0 -32 -27 -60 -64 -60s-62 28 -62 60v440c0 33 29 60 62 60c25 0 41 -12 55 -29l247 -299v268c0 32 27 60 64 60s62 -28 62 -60zM146 785c0 29 21 47 46 47c13 0 24 -3 33 -12l85 -83l86 83
c9 9 19 12 33 12c24 0 46 -18 46 -47c0 -14 -9 -26 -22 -39l-106 -101c-9 -9 -21 -15 -37 -15c-15 0 -27 6 -36 15l-107 101c-13 12 -21 25 -21 39z" />
    <glyph glyph-name="Nsmallcaron.2" unicode="&#xe0ca;" horiz-adv-x="671" 
d="M335 630c-16 0 -27 7 -37 16l-106 101c-13 12 -22 24 -22 38c0 29 22 47 47 47c14 0 25 -5 35 -15l83 -80l83 80c10 10 21 15 35 15c25 0 47 -18 47 -47c0 -14 -9 -26 -22 -38l-106 -101c-10 -9 -21 -16 -37 -16zM607 492v-440c0 -32 -27 -60 -64 -60s-62 30 -62 60
c0 51 -72 98 -147 146c-49 31 -103 67 -143 107v-253c0 -32 -27 -60 -64 -60s-62 28 -62 60v440c0 32 25 60 62 60s64 -30 64 -60c0 -50 69 -98 146 -147c49 -31 103 -66 144 -107v254c0 32 25 60 62 60s64 -28 64 -60z" />
    <glyph glyph-name="Nsmallcaron.3" unicode="&#xe0cb;" horiz-adv-x="622" 
d="M432 57v244c0 39 -7 79 -31 104c-15 16 -40 28 -74 28c-50 0 -82 -20 -103 -54c-18 -28 -27 -69 -27 -108v-214c0 -36 -31 -65 -66 -65c-37 0 -66 29 -66 65v430c0 36 29 65 66 65c36 0 65 -29 66 -64c39 41 99 64 160 64c58 0 111 -15 150 -52c36 -35 58 -91 58 -171
v-272c0 -36 -31 -65 -66 -65c-37 0 -67 29 -67 65zM322 630c-16 0 -27 7 -37 16l-106 101c-13 12 -22 24 -22 38c0 29 22 47 47 47c14 0 25 -5 35 -15l83 -80l83 80c10 10 21 15 35 15c25 0 47 -18 47 -47c0 -14 -9 -26 -22 -38l-106 -101c-10 -9 -21 -16 -37 -16z" />
    <glyph glyph-name="Nsmallcommaaccent" unicode="&#xe0cc;" horiz-adv-x="622" 
d="M556 492v-440c0 -33 -29 -60 -62 -60c-25 0 -41 12 -56 29l-246 299v-268c0 -32 -27 -60 -64 -60s-62 28 -62 60v440c0 33 29 60 62 60c25 0 41 -12 55 -29l247 -299v268c0 32 27 60 64 60s62 -28 62 -60zM233 -318c0 34 57 42 57 85c0 40 -61 31 -61 99
c0 39 26 76 82 76c61 0 96 -44 96 -111c0 -108 -105 -173 -150 -173c-14 0 -24 11 -24 24z" />
    <glyph glyph-name="Nsmallcommaaccent.2" unicode="&#xe0cd;" horiz-adv-x="671" 
d="M607 492v-440c0 -32 -27 -60 -64 -60s-62 28 -62 60c0 53 -71 103 -147 153c-49 33 -103 71 -143 112v-265c0 -32 -27 -60 -64 -60s-62 28 -62 60v440c0 32 25 60 62 60s64 -28 64 -60c0 -52 69 -103 146 -153c50 -32 103 -70 144 -112v265c0 32 25 60 62 60
s64 -28 64 -60zM259 -318c0 34 58 42 58 85c0 40 -61 31 -61 99c0 39 26 76 82 76c60 0 96 -44 96 -111c0 -108 -105 -173 -150 -173c-15 0 -25 11 -25 24z" />
    <glyph glyph-name="Nsmallcommaaccent.3" unicode="&#xe0ce;" horiz-adv-x="622" 
d="M432 57v244c0 39 -7 79 -31 104c-15 16 -40 28 -74 28c-50 0 -82 -20 -103 -54c-18 -28 -27 -69 -27 -108v-214c0 -36 -31 -65 -66 -65c-37 0 -66 29 -66 65v430c0 36 29 65 66 65c36 0 65 -29 66 -64c39 41 99 64 160 64c58 0 111 -15 150 -52c36 -35 58 -91 58 -171
v-272c0 -36 -31 -65 -66 -65c-37 0 -67 29 -67 65zM230 -318c0 34 58 42 58 85c0 40 -61 31 -61 99c0 39 26 76 82 76c60 0 96 -44 96 -111c0 -108 -105 -173 -150 -173c-15 0 -25 11 -25 24z" />
    <glyph glyph-name="Nsmalltilde" unicode="&#xe0cf;" horiz-adv-x="622" 
d="M556 492v-440c0 -33 -29 -60 -62 -60c-25 0 -41 12 -56 29l-246 299v-268c0 -32 -27 -60 -64 -60s-62 28 -62 60v440c0 33 29 60 62 60c25 0 41 -12 55 -29l247 -299v268c0 32 27 60 64 60s62 -28 62 -60zM492 748c0 -22 -10 -43 -23 -58c-21 -23 -52 -37 -82 -37
c-35 0 -59 13 -79 27c-23 15 -41 31 -64 31c-37 0 -30 -50 -74 -50c-27 0 -41 20 -41 46c0 22 10 43 24 58c20 23 51 37 82 37c34 0 59 -13 79 -27c22 -15 41 -32 63 -32c38 0 32 51 75 51c26 0 40 -20 40 -46z" />
    <glyph glyph-name="Nsmalltilde.2" unicode="&#xe0d0;" horiz-adv-x="671" 
d="M517 748c0 -22 -10 -43 -23 -58c-21 -23 -52 -37 -82 -37c-35 0 -59 13 -79 27c-23 15 -41 31 -64 31c-37 0 -30 -50 -74 -50c-27 0 -41 20 -41 46c0 22 10 43 24 58c20 23 51 37 82 37c34 0 59 -13 79 -27c22 -15 41 -32 63 -32c38 0 32 51 75 51c26 0 40 -20 40 -46z
M607 492v-440c0 -32 -27 -60 -64 -60s-62 30 -62 60c0 51 -72 98 -147 146c-49 31 -103 67 -143 107v-253c0 -32 -27 -60 -64 -60s-62 28 -62 60v440c0 32 25 60 62 60s64 -30 64 -60c0 -50 69 -98 146 -147c49 -31 103 -66 144 -107v254c0 32 25 60 62 60s64 -28 64 -60z
" />
    <glyph glyph-name="Nsmalltilde.3" unicode="&#xe0d1;" horiz-adv-x="622" 
d="M432 57v244c0 39 -7 79 -31 104c-15 16 -40 28 -74 28c-50 0 -82 -20 -103 -54c-18 -28 -27 -69 -27 -108v-214c0 -36 -31 -65 -66 -65c-37 0 -66 29 -66 65v430c0 36 29 65 66 65c36 0 65 -29 66 -64c39 41 99 64 160 64c58 0 111 -15 150 -52c36 -35 58 -91 58 -171
v-272c0 -36 -31 -65 -66 -65c-37 0 -67 29 -67 65zM504 748c0 -22 -10 -43 -23 -58c-21 -23 -52 -37 -82 -37c-35 0 -59 13 -79 27c-23 15 -41 31 -64 31c-37 0 -30 -50 -74 -50c-27 0 -41 20 -41 46c0 22 10 43 24 58c20 23 51 37 82 37c34 0 59 -13 79 -27
c22 -15 41 -32 63 -32c38 0 32 51 75 51c26 0 40 -20 40 -46z" />
    <glyph glyph-name="Ntilde" unicode="&#xd1;" horiz-adv-x="743" 
d="M675 624v-556c0 -44 -37 -78 -83 -78c-29 0 -54 14 -70 36l-317 415v-386c0 -36 -31 -65 -69 -65s-68 29 -68 65v557c0 43 36 78 82 78c29 0 54 -15 70 -37l317 -414v385c0 36 31 66 69 66s69 -30 69 -66zM552 896c0 -22 -10 -43 -23 -58c-21 -23 -52 -37 -82 -37
c-35 0 -59 13 -79 27c-23 15 -41 31 -64 31c-37 0 -30 -50 -74 -50c-27 0 -41 20 -41 46c0 22 10 43 24 58c20 23 51 37 82 37c34 0 59 -13 79 -27c22 -15 41 -32 63 -32c38 0 32 51 75 51c26 0 40 -20 40 -46z" />
    <glyph glyph-name="Ntilde.2" unicode="&#xe0d2;" horiz-adv-x="785" 
d="M573 896c0 -22 -10 -43 -23 -58c-21 -23 -52 -37 -82 -37c-35 0 -59 13 -79 27c-23 15 -41 31 -64 31c-37 0 -30 -50 -74 -50c-27 0 -41 20 -41 46c0 22 10 43 24 58c20 23 51 37 82 37c34 0 59 -13 79 -27c22 -15 41 -32 63 -32c38 0 32 51 75 51c26 0 40 -20 40 -46z
M579 56c0 65 -105 138 -190 198c-40 28 -80 58 -119 89c-24 19 -46 39 -65 59v-346c0 -36 -30 -66 -68 -66s-69 30 -69 66v568c0 36 31 66 69 66s68 -31 68 -66c0 -62 90 -126 190 -198c39 -28 80 -58 119 -91c24 -19 46 -39 65 -59v348c0 36 31 66 70 66
c38 0 68 -30 68 -66v-568c0 -36 -30 -66 -68 -66c-39 0 -70 33 -70 66z" />
    <glyph glyph-name="Ntilde.3" unicode="&#xe0d3;" horiz-adv-x="725" 
d="M523 60v322c0 55 -8 106 -37 137c-22 22 -54 38 -99 38c-67 0 -112 -27 -140 -71c-25 -40 -35 -87 -35 -139v-287c0 -39 -34 -70 -72 -70c-40 0 -72 31 -72 70v560c0 39 32 70 72 70s72 -31 72 -70v-12c46 52 119 82 192 82c72 0 139 -19 188 -65c46 -43 75 -112 75 -213
v-352c0 -39 -34 -70 -72 -70c-40 0 -72 31 -72 70zM575 896c0 -22 -10 -43 -23 -58c-21 -23 -52 -37 -82 -37c-35 0 -59 13 -79 27c-23 15 -41 31 -64 31c-37 0 -30 -50 -74 -50c-27 0 -41 20 -41 46c0 22 10 43 24 58c20 23 51 37 82 37c34 0 59 -13 79 -27
c22 -15 41 -32 63 -32c38 0 32 51 75 51c26 0 40 -20 40 -46z" />
    <glyph glyph-name="O" unicode="O" horiz-adv-x="809" 
d="M769 339c0 -210 -160 -349 -364 -349s-365 138 -365 349s161 351 365 351s364 -141 364 -351zM616 339c0 122 -89 216 -211 216s-212 -94 -212 -216c0 -123 90 -215 212 -215s211 93 211 215z" />
    <glyph glyph-name="OE" unicode="&#x152;" horiz-adv-x="1180" 
d="M1035 279h-271v-151h323c35 0 63 -31 63 -64c0 -35 -28 -64 -63 -64h-395c-34 0 -63 22 -70 53c-60 -41 -135 -63 -217 -63c-204 0 -365 138 -365 349s161 351 365 351c82 0 157 -23 217 -63c7 31 35 54 70 54h395c35 0 63 -30 63 -64c0 -35 -28 -64 -63 -64h-323v-147
h271c34 0 62 -30 62 -64c0 -35 -28 -63 -62 -63zM616 339c0 128 -89 216 -211 216s-212 -94 -212 -216c0 -123 90 -215 212 -215s211 87 211 215z" />
    <glyph glyph-name="OE.1" unicode="&#xe0d4;" horiz-adv-x="1147" 
d="M1117 617c0 -35 -27 -64 -62 -64h-148c-55 0 -93 -16 -115 -44c-18 -22 -26 -51 -26 -84v-18h237c34 0 61 -30 61 -64c0 -35 -27 -64 -61 -64h-238v-19c0 -38 11 -73 36 -97c23 -22 57 -35 105 -35h149c35 0 62 -30 62 -64c0 -35 -27 -64 -62 -64h-151
c-93 0 -170 27 -220 86c-3 3 -6 7 -9 11c-66 -68 -162 -107 -270 -107c-204 0 -365 138 -365 349s161 351 365 351c108 0 203 -40 269 -108l9 12c50 60 127 87 221 87h151c35 0 62 -29 62 -64zM616 339c0 122 -89 216 -211 216s-212 -94 -212 -216c0 -123 90 -215 212 -215
s211 93 211 215z" />
    <glyph glyph-name="OE.2" unicode="&#xe0d5;" horiz-adv-x="1215" 
d="M768 239v-111h355c35 0 62 -30 62 -64c0 -35 -27 -64 -62 -64h-427c-36 0 -64 23 -71 55c-61 -42 -137 -65 -220 -65c-204 0 -365 138 -365 349s161 351 365 351c83 0 159 -24 220 -66c6 32 34 57 71 57h427c35 0 62 -29 62 -64s-27 -64 -62 -64h-355v-187h290
c34 0 61 -29 61 -64s-27 -63 -61 -63h-290zM616 339c0 122 -89 216 -211 216s-212 -94 -212 -216c0 -123 90 -215 212 -215s211 93 211 215z" />
    <glyph glyph-name="OE.3" unicode="&#xe0d6;" horiz-adv-x="1300" 
d="M1177 290h-399c9 -50 30 -89 61 -118c37 -34 86 -52 142 -52c48 0 81 8 106 17c40 15 61 35 88 35c37 0 63 -29 63 -67c0 -39 -34 -66 -80 -84c-58 -23 -128 -31 -179 -31c-124 0 -207 37 -267 98c-8 8 -16 16 -23 25c-66 -78 -168 -123 -284 -123
c-204 0 -365 138 -365 349s161 351 365 351c115 0 216 -45 282 -122c7 9 15 18 24 27c55 56 136 95 241 95c108 0 183 -37 232 -88c63 -65 83 -139 83 -208c0 -73 -40 -104 -90 -104zM616 339c0 122 -89 216 -211 216s-212 -94 -212 -216c0 -123 90 -215 212 -215
s211 93 211 215zM779 414h336c-3 41 -18 74 -41 98c-28 29 -69 45 -120 45c-54 0 -99 -20 -131 -53c-21 -23 -37 -55 -44 -90z" />
    <glyph glyph-name="OEsmall" unicode="&#xf6fa;" horiz-adv-x="931" 
d="M618 215v-97h238c32 0 59 -24 59 -59s-27 -59 -59 -59h-305c-25 0 -47 13 -58 33c-46 -27 -101 -41 -162 -41c-105 0 -191 42 -242 115c-32 45 -50 100 -50 165s18 120 50 165c51 73 137 115 242 115c61 0 117 -15 162 -42c12 20 33 34 58 34h305c32 0 59 -24 59 -59
s-27 -59 -59 -59h-238v-94h197c33 0 59 -23 59 -58c0 -36 -26 -59 -59 -59h-197zM177 272c0 -39 12 -74 33 -101c27 -35 70 -57 121 -57c50 0 93 22 120 57c21 27 33 62 33 101s-12 74 -33 101c-27 35 -70 57 -120 57c-51 0 -94 -22 -121 -57c-21 -27 -33 -62 -33 -101z" />
    <glyph glyph-name="OEsmall.2" unicode="&#xe0d7;" horiz-adv-x="961" 
d="M618 200v-82h268c32 0 59 -24 59 -59s-27 -59 -59 -59h-335c-25 0 -47 13 -58 33c-46 -27 -101 -41 -162 -41c-105 0 -191 42 -242 115c-32 45 -50 100 -50 165s18 120 50 165c51 73 137 115 242 115c61 0 117 -15 162 -42c12 20 33 34 58 34h335c32 0 59 -24 59 -59
s-27 -59 -59 -59h-268v-102c0 -2 0 -4 1 -6h210c33 0 59 -24 59 -59s-26 -59 -59 -59h-211zM177 272c0 -39 12 -74 33 -101c27 -35 70 -57 121 -57c50 0 93 22 120 57c21 27 33 62 33 101s-12 74 -33 101c-27 35 -70 57 -120 57c-51 0 -94 -22 -121 -57
c-21 -27 -33 -62 -33 -101z" />
    <glyph glyph-name="OEsmall.3" unicode="&#xe0d8;" horiz-adv-x="1036" 
d="M774 112c35 0 61 5 81 13c31 11 48 26 70 26c33 0 57 -27 57 -61c0 -33 -26 -57 -74 -75c-45 -18 -98 -23 -137 -23c-98 0 -164 29 -212 78c-4 3 -7 6 -10 10c-52 -57 -129 -88 -220 -88c-104 0 -191 42 -242 115c-31 45 -49 100 -49 165s18 120 49 165
c51 73 138 115 242 115c90 0 167 -31 219 -87c3 4 6 7 10 11c44 45 110 76 193 76c86 0 147 -31 187 -72c50 -51 66 -112 66 -167c0 -63 -35 -87 -79 -87h-293c8 -31 20 -55 38 -75c27 -27 63 -39 104 -39zM176 272c0 -39 12 -74 33 -101c27 -35 70 -57 120 -57
c51 0 94 22 121 57c21 27 33 62 33 101s-12 74 -33 101c-27 35 -70 57 -121 57c-50 0 -93 -22 -120 -57c-21 -27 -33 -62 -33 -101zM633 330h234c-3 30 -14 56 -33 73c-19 18 -47 29 -81 29s-63 -12 -85 -33c-17 -18 -29 -42 -35 -69z" />
    <glyph glyph-name="Oacute" unicode="&#xd3;" horiz-adv-x="809" 
d="M769 339c0 -210 -160 -349 -364 -349s-365 138 -365 349s161 351 365 351s364 -141 364 -351zM616 339c0 122 -89 216 -211 216s-212 -94 -212 -216c0 -123 90 -215 212 -215s211 93 211 215zM324 805c0 11 3 20 9 31l53 105c9 19 23 33 47 33c27 0 52 -22 52 -49
c0 -11 -4 -19 -13 -34l-61 -100c-11 -17 -24 -28 -43 -28c-23 0 -44 18 -44 42z" />
    <glyph glyph-name="Ocircumflex" unicode="&#xd4;" horiz-adv-x="809" 
d="M769 339c0 -210 -160 -349 -364 -349s-365 138 -365 349s161 351 365 351s364 -141 364 -351zM616 339c0 122 -89 216 -211 216s-212 -94 -212 -216c0 -123 90 -215 212 -215s211 93 211 215zM404 972c16 0 27 -7 37 -16l106 -101c13 -12 22 -24 22 -38
c0 -29 -22 -47 -47 -47c-14 0 -25 5 -35 15l-83 80l-83 -80c-10 -10 -21 -15 -35 -15c-25 0 -47 18 -47 47c0 14 9 26 22 38l106 101c10 9 21 16 37 16z" />
    <glyph glyph-name="Odieresis" unicode="&#xd6;" horiz-adv-x="809" 
d="M769 339c0 -210 -160 -349 -364 -349s-365 138 -365 349s161 351 365 351s364 -141 364 -351zM616 339c0 122 -89 216 -211 216s-212 -94 -212 -216c0 -123 90 -215 212 -215s211 93 211 215zM288 784c-42 0 -76 35 -76 77s34 76 76 76c43 0 76 -34 76 -76
s-33 -77 -76 -77zM520 784c-42 0 -76 35 -76 77s34 76 76 76s76 -34 76 -76s-34 -77 -76 -77z" />
    <glyph glyph-name="Ograve" unicode="&#xd2;" horiz-adv-x="809" 
d="M769 339c0 -210 -160 -349 -364 -349s-365 138 -365 349s161 351 365 351s364 -141 364 -351zM616 339c0 122 -89 216 -211 216s-212 -94 -212 -216c0 -123 90 -215 212 -215s211 93 211 215zM485 805c0 -24 -21 -42 -45 -42c-18 0 -31 10 -42 28l-61 100
c-10 15 -13 23 -13 34c0 27 25 49 52 49c24 0 38 -14 47 -33l53 -105c5 -11 9 -20 9 -31z" />
    <glyph glyph-name="Ohungarumlaut" unicode="&#x150;" horiz-adv-x="809" 
d="M769 339c0 -210 -160 -349 -364 -349s-365 138 -365 349s161 351 365 351s364 -141 364 -351zM616 339c0 122 -89 216 -211 216s-212 -94 -212 -216c0 -123 90 -215 212 -215s211 93 211 215zM221 804c0 11 4 20 9 31l53 105c9 19 23 33 47 33c28 0 52 -22 52 -49
c0 -11 -3 -19 -13 -34l-61 -100c-11 -17 -24 -28 -42 -28c-24 0 -45 18 -45 42zM427 804c0 11 3 20 9 31l53 105c9 19 23 33 47 33c27 0 52 -22 52 -49c0 -11 -4 -19 -13 -34l-61 -100c-11 -17 -24 -28 -43 -28c-23 0 -44 18 -44 42z" />
    <glyph glyph-name="Omacron" unicode="&#x14c;" horiz-adv-x="809" 
d="M769 339c0 -210 -160 -349 -364 -349s-365 138 -365 349s161 351 365 351s364 -141 364 -351zM616 339c0 122 -89 216 -211 216s-212 -94 -212 -216c0 -123 90 -215 212 -215s211 93 211 215zM550 870c0 -29 -24 -53 -53 -53h-182c-30 0 -54 24 -54 53c0 30 24 54 54 54
h182c29 0 53 -24 53 -54z" />
    <glyph glyph-name="Omega" unicode="&#x3a9;" horiz-adv-x="748" 
d="M374 690c186 0 306 -102 306 -290c0 -75 -24 -138 -54 -188c-27 -43 -54 -74 -76 -100h88c31 0 57 -27 57 -56c0 -31 -26 -56 -57 -56h-164c-39 0 -60 26 -60 55c0 36 27 66 58 116c28 46 56 109 56 203c0 119 -56 186 -154 186c-97 0 -154 -67 -154 -186
c0 -94 29 -157 57 -203c31 -50 57 -80 57 -116c0 -29 -21 -55 -59 -55h-165c-31 0 -56 25 -56 56c0 29 25 56 56 56h89c-22 26 -48 57 -75 100c-32 50 -55 113 -55 188c0 188 119 290 305 290z" />
    <glyph glyph-name="Omega" unicode="&#x2126;" horiz-adv-x="748" 
d="M374 690c186 0 306 -102 306 -290c0 -75 -24 -138 -54 -188c-27 -43 -54 -74 -76 -100h88c31 0 57 -27 57 -56c0 -31 -26 -56 -57 -56h-164c-39 0 -60 26 -60 55c0 36 27 66 58 116c28 46 56 109 56 203c0 119 -56 186 -154 186c-97 0 -154 -67 -154 -186
c0 -94 29 -157 57 -203c31 -50 57 -80 57 -116c0 -29 -21 -55 -59 -55h-165c-31 0 -56 25 -56 56c0 29 25 56 56 56h89c-22 26 -48 57 -75 100c-32 50 -55 113 -55 188c0 188 119 290 305 290z" />
    <glyph glyph-name="Oslash" unicode="&#xd8;" horiz-adv-x="809" 
d="M769 339c0 -210 -160 -349 -364 -349c-73 0 -141 18 -198 50l-26 -30c-9 -10 -22 -16 -35 -16c-26 0 -48 22 -48 48c0 11 4 22 11 30l23 27c-57 60 -92 142 -92 240c0 211 161 351 365 351c73 0 141 -18 197 -51l26 29c9 11 22 16 35 16c26 0 48 -20 48 -48
c0 -10 -4 -21 -11 -30l-23 -27c57 -60 92 -143 92 -240zM616 339c0 48 -14 91 -38 127l-276 -317c30 -16 65 -25 103 -25c122 0 211 93 211 215zM349 349l158 181c-30 16 -65 25 -102 25c-122 0 -212 -94 -212 -216c0 -48 14 -92 38 -127z" />
    <glyph glyph-name="Osmall" unicode="&#xf76f;" horiz-adv-x="658" 
d="M176 272c0 -39 12 -74 33 -101c27 -35 70 -57 120 -57c51 0 94 22 121 57c21 27 33 62 33 101s-12 74 -33 101c-27 35 -70 57 -121 57c-50 0 -93 -22 -120 -57c-21 -27 -33 -62 -33 -101zM38 272c0 65 18 120 49 165c51 73 138 115 242 115c105 0 191 -42 242 -115
c32 -45 50 -100 50 -165s-18 -120 -50 -165c-51 -73 -137 -115 -242 -115c-104 0 -191 42 -242 115c-31 45 -49 100 -49 165z" />
    <glyph glyph-name="Osmallacute" unicode="&#xe0d9;" horiz-adv-x="661" 
d="M177 272c0 -39 12 -74 33 -101c27 -35 70 -57 121 -57c50 0 93 22 120 57c21 27 33 62 33 101s-12 74 -33 101c-27 35 -70 57 -120 57c-51 0 -94 -22 -121 -57c-21 -27 -33 -62 -33 -101zM39 272c0 65 18 120 50 165c51 73 137 115 242 115c104 0 191 -42 242 -115
c31 -45 49 -100 49 -165s-18 -120 -49 -165c-51 -73 -138 -115 -242 -115c-105 0 -191 42 -242 115c-32 45 -50 100 -50 165zM251 665c0 11 3 20 8 31l54 105c8 19 23 33 46 33c28 0 52 -22 52 -49c0 -11 -3 -19 -12 -34l-61 -100c-11 -17 -25 -28 -43 -28
c-24 0 -44 18 -44 42z" />
    <glyph glyph-name="Osmallcircumflex" unicode="&#xe0da;" horiz-adv-x="661" 
d="M177 272c0 -39 12 -74 33 -101c27 -35 70 -57 120 -57c51 0 94 22 121 57c21 27 33 62 33 101s-12 74 -33 101c-27 35 -70 57 -121 57c-50 0 -93 -22 -120 -57c-21 -27 -33 -62 -33 -101zM39 272c0 65 18 120 49 165c51 73 138 115 242 115c105 0 191 -42 242 -115
c32 -45 50 -100 50 -165s-18 -120 -50 -165c-51 -73 -137 -115 -242 -115c-104 0 -191 42 -242 115c-31 45 -49 100 -49 165zM330 832c16 0 27 -7 37 -16l106 -101c13 -12 22 -24 22 -38c0 -29 -22 -47 -47 -47c-14 0 -25 5 -35 15l-83 80l-83 -80c-10 -10 -21 -15 -35 -15
c-25 0 -47 18 -47 47c0 14 9 26 22 38l106 101c10 9 21 16 37 16z" />
    <glyph glyph-name="Osmalldieresis" unicode="&#xe0db;" horiz-adv-x="661" 
d="M177 272c0 -39 12 -74 33 -101c27 -35 70 -57 120 -57c51 0 94 22 121 57c21 27 33 62 33 101s-12 74 -33 101c-27 35 -70 57 -121 57c-50 0 -93 -22 -120 -57c-21 -27 -33 -62 -33 -101zM39 272c0 65 18 120 49 165c51 73 138 115 242 115c105 0 191 -42 242 -115
c32 -45 50 -100 50 -165s-18 -120 -50 -165c-51 -73 -137 -115 -242 -115c-104 0 -191 42 -242 115c-31 45 -49 100 -49 165zM215 644c-42 0 -76 35 -76 77s34 76 76 76c43 0 76 -34 76 -76s-33 -77 -76 -77zM447 644c-42 0 -76 35 -76 77s34 76 76 76s76 -34 76 -76
s-34 -77 -76 -77z" />
    <glyph glyph-name="Osmallgrave" unicode="&#xe0dc;" horiz-adv-x="661" 
d="M177 272c0 -39 12 -74 33 -101c27 -35 70 -57 121 -57c50 0 93 22 120 57c21 27 33 62 33 101s-12 74 -33 101c-27 35 -70 57 -120 57c-51 0 -94 -22 -121 -57c-21 -27 -33 -62 -33 -101zM39 272c0 65 18 120 50 165c51 73 137 115 242 115c104 0 191 -42 242 -115
c31 -45 49 -100 49 -165s-18 -120 -49 -165c-51 -73 -138 -115 -242 -115c-105 0 -191 42 -242 115c-32 45 -50 100 -50 165zM411 665c0 -24 -20 -42 -44 -42c-18 0 -32 10 -43 28l-61 100c-9 15 -12 23 -12 34c0 27 24 49 52 49c23 0 38 -14 46 -33l54 -105
c5 -11 8 -20 8 -31z" />
    <glyph glyph-name="Osmallhungarumlaut" unicode="&#xe0dd;" horiz-adv-x="661" 
d="M177 272c0 -39 12 -74 33 -101c27 -35 70 -57 120 -57c51 0 94 22 121 57c21 27 33 62 33 101s-12 74 -33 101c-27 35 -70 57 -121 57c-50 0 -93 -22 -120 -57c-21 -27 -33 -62 -33 -101zM39 272c0 65 18 120 49 165c51 73 138 115 242 115c105 0 191 -42 242 -115
c32 -45 50 -100 50 -165s-18 -120 -50 -165c-51 -73 -137 -115 -242 -115c-104 0 -191 42 -242 115c-31 45 -49 100 -49 165zM162 665c0 11 4 20 9 31l53 105c9 19 23 33 47 33c28 0 52 -22 52 -49c0 -11 -3 -19 -13 -34l-61 -100c-11 -17 -24 -28 -42 -28
c-24 0 -45 18 -45 42zM368 665c0 11 3 20 9 31l53 105c9 19 23 33 47 33c27 0 52 -22 52 -49c0 -11 -4 -19 -13 -34l-61 -100c-11 -17 -24 -28 -43 -28c-23 0 -44 18 -44 42z" />
    <glyph glyph-name="Osmallmacron" unicode="&#xe0de;" horiz-adv-x="661" 
d="M177 272c0 -39 12 -74 33 -101c27 -35 70 -57 120 -57c51 0 94 22 121 57c21 27 33 62 33 101s-12 74 -33 101c-27 35 -70 57 -121 57c-50 0 -93 -22 -120 -57c-21 -27 -33 -62 -33 -101zM39 272c0 65 18 120 49 165c51 73 138 115 242 115c105 0 191 -42 242 -115
c32 -45 50 -100 50 -165s-18 -120 -50 -165c-51 -73 -137 -115 -242 -115c-104 0 -191 42 -242 115c-31 45 -49 100 -49 165zM475 707c0 -29 -24 -53 -53 -53h-182c-30 0 -54 24 -54 53c0 30 24 54 54 54h182c29 0 53 -24 53 -54z" />
    <glyph glyph-name="Osmalltilde" unicode="&#xe0df;" horiz-adv-x="661" 
d="M177 272c0 -39 12 -74 33 -101c27 -35 70 -57 121 -57c50 0 93 22 120 57c21 27 33 62 33 101s-12 74 -33 101c-27 35 -70 57 -120 57c-51 0 -94 -22 -121 -57c-21 -27 -33 -62 -33 -101zM39 272c0 65 18 120 50 165c51 73 137 115 242 115c104 0 191 -42 242 -115
c31 -45 49 -100 49 -165s-18 -120 -49 -165c-51 -73 -138 -115 -242 -115c-105 0 -191 42 -242 115c-32 45 -50 100 -50 165zM513 748c0 -22 -10 -43 -24 -58c-20 -23 -52 -37 -80 -37c-34 0 -58 13 -79 27c-22 15 -41 31 -63 31c-21 0 -29 -13 -38 -25
c-9 -13 -18 -25 -39 -25c-26 0 -41 20 -41 46c0 22 10 43 24 58c20 23 52 37 80 37c35 0 59 -13 79 -27c23 -15 41 -32 63 -32c20 0 29 13 38 26s18 25 39 25c26 0 41 -20 41 -46z" />
    <glyph glyph-name="Otilde" unicode="&#xd5;" horiz-adv-x="809" 
d="M769 339c0 -210 -160 -349 -364 -349s-365 138 -365 349s161 351 365 351s364 -141 364 -351zM616 339c0 122 -89 216 -211 216s-212 -94 -212 -216c0 -123 90 -215 212 -215s211 93 211 215zM584 896c0 -22 -10 -43 -23 -58c-21 -23 -52 -37 -82 -37
c-35 0 -59 13 -79 27c-23 15 -41 31 -64 31c-37 0 -30 -50 -74 -50c-27 0 -41 20 -41 46c0 22 10 43 24 58c20 23 51 37 82 37c34 0 59 -13 79 -27c22 -15 41 -32 63 -32c38 0 32 51 75 51c26 0 40 -20 40 -46z" />
    <glyph glyph-name="P" unicode="P" horiz-adv-x="647" 
d="M140 681h226c57 0 114 -11 163 -51c51 -42 83 -107 83 -187c0 -82 -35 -150 -90 -192c-48 -37 -102 -46 -156 -46h-154v-145c0 -39 -34 -70 -72 -70c-40 0 -72 31 -72 70v551c0 39 32 70 72 70zM466 443c0 45 -17 75 -43 92c-21 15 -47 20 -76 20h-135v-224h132
c28 0 56 4 77 18c28 18 45 49 45 94z" />
    <glyph glyph-name="P.2" unicode="&#xe0e0;" horiz-adv-x="685" 
d="M140 681h264c57 0 114 -11 163 -51c51 -42 83 -107 83 -187c0 -82 -35 -150 -90 -192c-48 -37 -102 -46 -156 -46h-192v-145c0 -39 -34 -70 -72 -70c-40 0 -72 31 -72 70v551c0 39 32 70 72 70zM504 443c0 45 -17 75 -43 92c-21 15 -47 20 -76 20h-173v-224h170
c28 0 56 5 77 19c28 17 45 48 45 93z" />
    <glyph glyph-name="Psmall" unicode="&#xf770;" horiz-adv-x="530" 
d="M132 544h169c69 0 120 -20 156 -56c33 -34 50 -81 50 -136c0 -62 -20 -112 -58 -145c-37 -33 -90 -49 -155 -49h-97v-102c0 -35 -30 -64 -65 -64c-37 0 -67 29 -67 64v423c0 36 30 65 67 65zM372 352c0 27 -9 45 -23 58c-17 17 -43 20 -64 20h-89v-158h87
c21 0 42 4 59 15c19 12 30 33 30 65z" />
    <glyph glyph-name="Psmall.2" unicode="&#xe0e1;" horiz-adv-x="560" 
d="M402 352c0 27 -9 45 -23 58c-17 17 -43 20 -64 20h-119v-158h117c21 0 42 4 59 15c19 11 30 33 30 65zM132 544h199c69 0 120 -20 156 -56c33 -34 50 -81 50 -136c0 -62 -20 -112 -58 -145c-37 -33 -90 -49 -155 -49h-127v-102c0 -35 -30 -64 -65 -64
c-37 0 -67 29 -67 64v423c0 36 30 65 67 65z" />
    <glyph glyph-name="Q" unicode="Q" horiz-adv-x="809" 
d="M769 339c0 -174 -110 -299 -263 -337c1 -7 10 -9 25 -14c78 -26 130 -34 198 -51c34 -9 65 -18 65 -67c0 -41 -34 -65 -75 -65c-68 0 -214 59 -383 124c-23 9 -36 21 -36 45c0 11 3 20 8 27c-156 36 -268 161 -268 338c0 211 161 351 365 351s364 -141 364 -351zM616 339
c0 122 -89 216 -211 216s-212 -94 -212 -216c0 -123 90 -215 212 -215s211 93 211 215z" />
    <glyph glyph-name="Qsmall" unicode="&#xf771;" horiz-adv-x="660" 
d="M38 272c0 169 124 280 292 280c169 0 292 -112 292 -280c0 -148 -93 -248 -224 -273c2 -6 8 -8 16 -11c80 -23 149 -39 196 -46c38 -6 65 -20 65 -61c0 -38 -34 -58 -71 -58c-60 0 -204 50 -316 93c-25 10 -47 20 -47 50c0 15 6 26 13 34c-126 27 -216 125 -216 272z
M176 272c0 -90 63 -158 154 -158c90 0 154 68 154 158c0 89 -63 158 -154 158s-154 -69 -154 -158z" />
    <glyph glyph-name="R" unicode="R" horiz-adv-x="675" 
d="M212 237v-177c0 -39 -34 -70 -72 -70c-41 0 -72 31 -72 70v551c0 39 31 70 72 70h235c66 0 126 -12 172 -46c50 -37 79 -101 79 -175c0 -65 -25 -123 -76 -167c-16 -13 -32 -23 -48 -31l112 -161c9 -13 12 -26 12 -38c0 -41 -32 -73 -72 -73c-28 0 -47 13 -61 34
l-141 213h-140zM364 559h-152v-201h150c29 0 56 4 77 17c25 16 41 43 41 83s-15 66 -38 82c-22 14 -49 19 -78 19z" />
    <glyph glyph-name="R.2" unicode="&#xe0e2;" horiz-adv-x="768" 
d="M211 232v-173c0 -38 -33 -69 -72 -69c-40 0 -72 31 -72 69v551c0 39 32 71 72 71h217l69 -1c145 0 245 -78 245 -223c0 -65 -24 -125 -77 -169c-35 -29 -71 -43 -108 -50c30 -64 69 -120 125 -120c54 0 60 30 94 30c32 0 56 -27 56 -61c0 -58 -63 -95 -152 -95
c-158 0 -222 111 -276 240h-121zM402 559h-191v-206h203c59 0 110 30 110 103c0 78 -56 103 -122 103z" />
    <glyph glyph-name="Racute" unicode="&#x154;" horiz-adv-x="674" 
d="M212 237v-177c0 -39 -34 -70 -72 -70c-41 0 -72 31 -72 70v551c0 39 31 70 72 70h235c66 0 126 -12 172 -46c50 -37 79 -101 79 -175c0 -65 -25 -123 -76 -167c-16 -13 -32 -23 -48 -31l112 -161c9 -13 12 -26 12 -38c0 -41 -32 -73 -72 -73c-28 0 -47 13 -61 34
l-141 213h-140zM364 559h-152v-201h150c29 0 56 4 77 17c25 16 41 43 41 83s-15 66 -38 82c-22 14 -49 19 -78 19zM251 805c0 11 3 20 9 31l53 105c9 19 23 33 47 33c27 0 52 -22 52 -49c0 -11 -4 -19 -13 -34l-61 -100c-11 -17 -24 -28 -43 -28c-23 0 -44 18 -44 42z" />
    <glyph glyph-name="Racute.2" unicode="&#xe0e3;" horiz-adv-x="768" 
d="M211 232v-173c0 -38 -33 -69 -72 -69c-40 0 -72 31 -72 69v551c0 39 32 71 72 71h217l69 -1c145 0 245 -78 245 -223c0 -65 -24 -125 -77 -169c-35 -29 -71 -43 -108 -50c30 -64 69 -120 125 -120c54 0 60 30 94 30c32 0 56 -27 56 -61c0 -58 -63 -95 -152 -95
c-158 0 -222 111 -276 240h-121zM402 559h-191v-206h203c59 0 110 30 110 103c0 78 -56 103 -122 103zM290 805c0 11 3 20 9 31l53 105c9 19 23 33 47 33c27 0 52 -22 52 -49c0 -11 -4 -19 -13 -34l-61 -100c-11 -17 -24 -28 -43 -28c-23 0 -44 18 -44 42z" />
    <glyph glyph-name="Rcaron" unicode="&#x158;" horiz-adv-x="674" 
d="M212 237v-177c0 -39 -34 -70 -72 -70c-41 0 -72 31 -72 70v551c0 39 31 70 72 70h235c66 0 126 -12 172 -46c50 -37 79 -101 79 -175c0 -65 -25 -123 -76 -167c-16 -13 -32 -23 -48 -31l112 -161c9 -13 12 -26 12 -38c0 -41 -32 -73 -72 -73c-28 0 -47 13 -61 34
l-141 213h-140zM364 559h-152v-201h150c29 0 56 4 77 17c25 16 41 43 41 83s-15 66 -38 82c-22 14 -49 19 -78 19zM331 770c-16 0 -27 7 -37 16l-106 101c-13 12 -22 24 -22 38c0 29 22 47 47 47c14 0 25 -5 35 -15l83 -80l83 80c10 10 21 15 35 15c25 0 47 -18 47 -47
c0 -14 -9 -26 -22 -38l-106 -101c-10 -9 -21 -16 -37 -16z" />
    <glyph glyph-name="Rcaron.2" unicode="&#xe0e4;" horiz-adv-x="768" 
d="M211 232v-173c0 -38 -33 -69 -72 -69c-40 0 -72 31 -72 69v551c0 39 32 71 72 71h217l69 -1c145 0 245 -78 245 -223c0 -65 -24 -125 -77 -169c-35 -29 -71 -43 -108 -50c30 -64 69 -120 125 -120c54 0 60 30 94 30c32 0 56 -27 56 -61c0 -58 -63 -95 -152 -95
c-158 0 -222 111 -276 240h-121zM402 559h-191v-206h203c59 0 110 30 110 103c0 78 -56 103 -122 103zM363 770c-16 0 -27 7 -37 16l-106 101c-13 12 -22 24 -22 38c0 29 22 47 47 47c14 0 25 -5 35 -15l83 -80l83 80c10 10 21 15 35 15c25 0 47 -18 47 -47
c0 -14 -9 -26 -22 -38l-106 -101c-10 -9 -21 -16 -37 -16z" />
    <glyph glyph-name="Rcommaaccent" unicode="&#x156;" horiz-adv-x="674" 
d="M212 237v-177c0 -39 -34 -70 -72 -70c-41 0 -72 31 -72 70v551c0 39 31 70 72 70h235c66 0 126 -12 172 -46c50 -37 79 -101 79 -175c0 -65 -25 -123 -76 -167c-16 -13 -32 -23 -48 -31l112 -161c9 -13 12 -26 12 -38c0 -41 -32 -73 -72 -73c-28 0 -47 13 -61 34
l-141 213h-140zM364 559h-152v-201h150c29 0 56 4 77 17c25 16 41 43 41 83s-15 66 -38 82c-22 14 -49 19 -78 19zM258 -318c0 34 58 42 58 85c0 40 -61 31 -61 99c0 39 26 76 82 76c60 0 96 -44 96 -111c0 -108 -105 -173 -150 -173c-15 0 -25 11 -25 24z" />
    <glyph glyph-name="Rcommaaccent.2" unicode="&#xe0e5;" horiz-adv-x="768" 
d="M211 232v-173c0 -38 -33 -69 -72 -69c-40 0 -72 31 -72 69v551c0 39 32 71 72 71h217l69 -1c145 0 245 -78 245 -223c0 -65 -24 -125 -77 -169c-35 -29 -71 -43 -108 -50c30 -64 69 -120 125 -120c54 0 60 30 94 30c32 0 56 -27 56 -61c0 -58 -63 -95 -152 -95
c-158 0 -222 111 -276 240h-121zM402 559h-191v-206h203c59 0 110 30 110 103c0 78 -56 103 -122 103zM315 -318c0 34 58 42 58 85c0 40 -61 31 -61 99c0 39 26 76 82 76c60 0 96 -44 96 -111c0 -108 -105 -173 -150 -173c-15 0 -25 11 -25 24z" />
    <glyph glyph-name="Rsmall" unicode="&#xf772;" horiz-adv-x="549" 
d="M394 23l-104 159h-93v-126c0 -35 -30 -64 -65 -64c-38 0 -67 29 -67 64v423c0 36 29 65 67 65h181c122 0 204 -62 204 -181c0 -74 -36 -126 -93 -155l76 -107c13 -18 17 -30 17 -45c0 -40 -31 -64 -67 -64c-27 0 -43 11 -56 31zM306 430h-109v-134h107c43 0 78 15 78 67
s-37 67 -76 67z" />
    <glyph glyph-name="Rsmall.2" unicode="&#xe0e6;" horiz-adv-x="606" 
d="M493 97c36 0 38 20 68 20c25 0 45 -21 45 -48c0 -40 -43 -78 -130 -78c-100 4 -153 59 -200 166h-79v-102c0 -36 -29 -63 -66 -63c-36 0 -67 27 -67 63v423c0 37 31 66 67 66h196c135 0 206 -79 206 -192c0 -95 -46 -158 -126 -183c31 -54 56 -72 86 -72zM399 352
c0 59 -47 77 -88 77h-115v-157h114c41 0 89 15 89 80z" />
    <glyph glyph-name="Rsmallacute" unicode="&#xe0e7;" horiz-adv-x="549" 
d="M394 23l-104 159h-93v-126c0 -35 -30 -64 -65 -64c-38 0 -67 29 -67 64v423c0 36 29 65 67 65h181c122 0 204 -62 204 -181c0 -74 -36 -126 -93 -155l76 -107c13 -18 17 -30 17 -45c0 -40 -31 -64 -67 -64c-27 0 -43 11 -56 31zM306 430h-109v-134h107c43 0 78 15 78 67
s-37 67 -76 67zM209 665c0 11 3 20 9 31l53 105c9 19 23 33 47 33c27 0 52 -22 52 -49c0 -11 -4 -19 -13 -34l-61 -100c-11 -17 -24 -28 -43 -28c-23 0 -44 18 -44 42z" />
    <glyph glyph-name="Rsmallacute.2" unicode="&#xe0e8;" horiz-adv-x="606" 
d="M493 97c36 0 38 20 68 20c25 0 45 -21 45 -48c0 -40 -43 -78 -130 -78c-100 4 -153 59 -200 166h-79v-102c0 -36 -29 -63 -66 -63c-36 0 -67 27 -67 63v423c0 37 31 66 67 66h196c135 0 206 -79 206 -192c0 -95 -46 -158 -126 -183c31 -54 56 -72 86 -72zM399 352
c0 59 -47 77 -88 77h-115v-157h114c41 0 89 15 89 80zM228 665c0 11 3 20 9 31l53 105c9 19 23 33 47 33c27 0 52 -22 52 -49c0 -11 -4 -19 -13 -34l-61 -100c-11 -17 -24 -28 -43 -28c-23 0 -44 18 -44 42z" />
    <glyph glyph-name="Rsmallcaron" unicode="&#xe0e9;" horiz-adv-x="549" 
d="M394 23l-104 159h-93v-126c0 -35 -30 -64 -65 -64c-38 0 -67 29 -67 64v423c0 36 29 65 67 65h181c122 0 204 -62 204 -181c0 -74 -36 -126 -93 -155l76 -107c13 -18 17 -30 17 -45c0 -40 -31 -64 -67 -64c-27 0 -43 11 -56 31zM306 430h-109v-134h107c43 0 78 15 78 67
s-37 67 -76 67zM285 630c-16 0 -27 7 -37 16l-106 101c-13 12 -22 24 -22 38c0 29 22 47 47 47c14 0 25 -5 35 -15l83 -80l83 80c10 10 21 15 35 15c25 0 47 -18 47 -47c0 -14 -9 -26 -22 -38l-106 -101c-10 -9 -21 -16 -37 -16z" />
    <glyph glyph-name="Rsmallcaron.2" unicode="&#xe0ea;" horiz-adv-x="606" 
d="M493 97c36 0 38 20 68 20c25 0 45 -21 45 -48c0 -40 -43 -78 -130 -78c-100 4 -153 59 -200 166h-79v-102c0 -36 -29 -63 -66 -63c-36 0 -67 27 -67 63v423c0 37 31 66 67 66h196c135 0 206 -79 206 -192c0 -95 -46 -158 -126 -183c31 -54 56 -72 86 -72zM399 352
c0 59 -47 77 -88 77h-115v-157h114c41 0 89 15 89 80zM308 630c-16 0 -27 7 -37 16l-106 101c-13 12 -22 24 -22 38c0 29 22 47 47 47c14 0 25 -5 35 -15l83 -80l83 80c10 10 21 15 35 15c25 0 47 -18 47 -47c0 -14 -9 -26 -22 -38l-106 -101c-10 -9 -21 -16 -37 -16z" />
    <glyph glyph-name="Rsmallcommaaccent" unicode="&#xe0eb;" horiz-adv-x="549" 
d="M394 23l-104 159h-93v-126c0 -35 -30 -64 -65 -64c-38 0 -67 29 -67 64v423c0 36 29 65 67 65h181c122 0 204 -62 204 -181c0 -74 -36 -126 -93 -155l76 -107c13 -18 17 -30 17 -45c0 -40 -31 -64 -67 -64c-27 0 -43 11 -56 31zM306 430h-109v-134h107c43 0 78 15 78 67
s-37 67 -76 67zM198 -318c0 34 58 42 58 85c0 40 -61 31 -61 99c0 39 26 76 82 76c60 0 96 -44 96 -111c0 -108 -105 -173 -150 -173c-15 0 -25 11 -25 24z" />
    <glyph glyph-name="Rsmallcommaaccent.2" unicode="&#xe0ec;" horiz-adv-x="606" 
d="M493 97c36 0 38 20 68 20c25 0 45 -21 45 -48c0 -40 -43 -78 -130 -78c-100 4 -153 59 -200 166h-79v-102c0 -36 -29 -63 -66 -63c-36 0 -67 27 -67 63v423c0 37 31 66 67 66h196c135 0 206 -79 206 -192c0 -95 -46 -158 -126 -183c31 -54 56 -72 86 -72zM399 352
c0 59 -47 77 -88 77h-115v-157h114c41 0 89 15 89 80zM229 -318c0 34 58 42 58 85c0 40 -61 31 -61 99c0 39 26 76 82 76c60 0 96 -44 96 -111c0 -108 -105 -173 -150 -173c-15 0 -25 11 -25 24z" />
    <glyph glyph-name="S" unicode="S" horiz-adv-x="579" 
d="M520 589c0 -37 -29 -67 -68 -67c-50 0 -87 44 -164 44c-67 0 -99 -23 -99 -63c0 -37 36 -57 87 -74c60 -19 134 -32 190 -72c44 -31 78 -78 78 -153c0 -135 -114 -214 -262 -214c-53 0 -124 10 -181 34c-38 16 -67 40 -67 77c0 39 31 69 69 69c44 0 87 -56 177 -56
c86 0 107 43 107 78c0 41 -36 63 -85 80c-54 20 -122 32 -180 69c-49 31 -85 80 -85 159c0 110 90 190 259 190c45 0 111 -6 160 -27c36 -15 64 -38 64 -74z" />
    <glyph glyph-name="Sacute" unicode="&#x15a;" horiz-adv-x="579" 
d="M520 589c0 -37 -29 -67 -68 -67c-50 0 -87 44 -164 44c-67 0 -99 -23 -99 -63c0 -37 36 -57 87 -74c60 -19 134 -32 190 -72c44 -31 78 -78 78 -153c0 -135 -114 -214 -262 -214c-53 0 -124 10 -181 34c-38 16 -67 40 -67 77c0 39 31 69 69 69c44 0 87 -56 177 -56
c86 0 107 43 107 78c0 41 -36 63 -85 80c-54 20 -122 32 -180 69c-49 31 -85 80 -85 159c0 110 90 190 259 190c45 0 111 -6 160 -27c36 -15 64 -38 64 -74zM205 805c0 11 3 20 9 31l53 105c9 19 23 33 47 33c27 0 52 -22 52 -49c0 -11 -4 -19 -13 -34l-61 -100
c-11 -17 -24 -28 -43 -28c-23 0 -44 18 -44 42z" />
    <glyph glyph-name="Scaron" unicode="&#x160;" horiz-adv-x="579" 
d="M520 589c0 -37 -29 -67 -68 -67c-50 0 -87 44 -164 44c-67 0 -99 -23 -99 -63c0 -37 36 -57 87 -74c60 -19 134 -32 190 -72c44 -31 78 -78 78 -153c0 -135 -114 -214 -262 -214c-53 0 -124 10 -181 34c-38 16 -67 40 -67 77c0 39 31 69 69 69c44 0 87 -56 177 -56
c86 0 107 43 107 78c0 41 -36 63 -85 80c-54 20 -122 32 -180 69c-49 31 -85 80 -85 159c0 110 90 190 259 190c45 0 111 -6 160 -27c36 -15 64 -38 64 -74zM289 770c-16 0 -27 7 -37 16l-106 101c-13 12 -22 24 -22 38c0 29 22 47 47 47c14 0 25 -5 35 -15l83 -80l83 80
c10 10 21 15 35 15c25 0 47 -18 47 -47c0 -14 -9 -26 -22 -38l-106 -101c-10 -9 -21 -16 -37 -16z" />
    <glyph glyph-name="Scedilla" unicode="&#x15e;" horiz-adv-x="579" 
d="M400 -114c0 -75 -72 -101 -147 -101c-12 0 -26 1 -38 4c-19 4 -31 16 -31 34s16 34 34 34c11 0 23 -4 39 -4c27 0 57 7 57 35c0 22 -21 34 -53 34c-14 0 -28 10 -26 31l4 39c-45 4 -96 14 -138 32c-38 16 -67 40 -67 77c0 39 31 69 69 69c44 0 87 -56 177 -56
c86 0 107 43 107 78c0 41 -36 63 -85 80c-54 20 -122 32 -180 69c-49 31 -85 80 -85 159c0 110 90 190 259 190c45 0 111 -6 160 -27c36 -15 64 -38 64 -74c0 -37 -29 -67 -68 -67c-50 0 -87 44 -164 44c-67 0 -99 -23 -99 -63c0 -37 36 -57 87 -74c60 -19 134 -32 190 -72
c44 -31 78 -78 78 -153c0 -127 -101 -204 -236 -213l1 -19c60 -8 91 -45 91 -86z" />
    <glyph glyph-name="Scommaaccent" unicode="&#x218;" horiz-adv-x="579" 
d="M520 589c0 -37 -29 -67 -68 -67c-50 0 -87 44 -164 44c-67 0 -99 -23 -99 -63c0 -37 36 -57 87 -74c60 -19 134 -32 190 -72c44 -31 78 -78 78 -153c0 -135 -114 -214 -262 -214c-53 0 -124 10 -181 34c-38 16 -67 40 -67 77c0 39 31 69 69 69c44 0 87 -56 177 -56
c86 0 107 43 107 78c0 41 -36 63 -85 80c-54 20 -122 32 -180 69c-49 31 -85 80 -85 159c0 110 90 190 259 190c45 0 111 -6 160 -27c36 -15 64 -38 64 -74zM208 -318c0 34 58 42 58 85c0 40 -61 31 -61 99c0 39 26 76 82 76c60 0 96 -44 96 -111
c0 -108 -105 -173 -150 -173c-15 0 -25 11 -25 24z" />
    <glyph glyph-name="Ssmall" unicode="&#xf773;" horiz-adv-x="464" 
d="M418 468c0 -32 -24 -55 -57 -55c-20 0 -39 9 -60 17c-25 10 -44 16 -72 16c-48 0 -73 -17 -73 -46c0 -32 30 -44 67 -56c50 -15 106 -25 151 -55c37 -24 63 -64 63 -125c0 -108 -91 -172 -212 -172c-39 0 -99 6 -144 27c-32 14 -54 36 -54 65c0 33 25 56 55 56
c23 0 42 -11 66 -23c21 -10 48 -20 79 -20c51 0 79 22 79 58c0 35 -35 51 -76 64c-51 15 -104 28 -149 62c-33 25 -53 61 -53 119c0 88 72 152 209 152c33 0 85 -4 124 -20c32 -12 57 -32 57 -64z" />
    <glyph glyph-name="Ssmallacute" unicode="&#xe0ed;" horiz-adv-x="463" 
d="M418 468c0 -32 -24 -55 -57 -55c-20 0 -39 9 -60 17c-25 10 -44 16 -72 16c-48 0 -73 -17 -73 -46c0 -32 30 -44 67 -56c50 -15 106 -25 151 -55c37 -24 63 -64 63 -125c0 -108 -91 -172 -212 -172c-39 0 -99 6 -144 27c-32 14 -54 36 -54 65c0 33 25 56 55 56
c23 0 42 -11 66 -23c21 -10 48 -20 79 -20c51 0 79 22 79 58c0 35 -35 51 -76 64c-51 15 -104 28 -149 62c-33 25 -53 61 -53 119c0 88 72 152 209 152c33 0 85 -4 124 -20c32 -12 57 -32 57 -64zM152 665c0 11 3 20 9 31l53 105c9 19 23 33 47 33c27 0 52 -22 52 -49
c0 -11 -4 -19 -13 -34l-61 -100c-11 -17 -24 -28 -43 -28c-23 0 -44 18 -44 42z" />
    <glyph glyph-name="Ssmallcaron" unicode="&#xe0ee;" horiz-adv-x="463" 
d="M418 468c0 -32 -24 -55 -57 -55c-20 0 -39 9 -60 17c-25 10 -44 16 -72 16c-48 0 -73 -17 -73 -46c0 -32 30 -44 67 -56c50 -15 106 -25 151 -55c37 -24 63 -64 63 -125c0 -108 -91 -172 -212 -172c-39 0 -99 6 -144 27c-32 14 -54 36 -54 65c0 33 25 56 55 56
c23 0 42 -11 66 -23c21 -10 48 -20 79 -20c51 0 79 22 79 58c0 35 -35 51 -76 64c-51 15 -104 28 -149 62c-33 25 -53 61 -53 119c0 88 72 152 209 152c33 0 85 -4 124 -20c32 -12 57 -32 57 -64zM233 630c-16 0 -27 7 -37 16l-106 101c-13 12 -22 24 -22 38
c0 29 22 47 47 47c14 0 25 -5 35 -15l83 -80l83 80c10 10 21 15 35 15c25 0 47 -18 47 -47c0 -14 -9 -26 -22 -38l-106 -101c-10 -9 -21 -16 -37 -16z" />
    <glyph glyph-name="Ssmallcedilla" unicode="&#xe0ef;" horiz-adv-x="463" 
d="M348 -114c0 -75 -72 -101 -147 -101c-12 0 -26 1 -38 4c-19 4 -31 16 -31 34s16 34 34 34c11 0 23 -4 39 -4c27 0 57 7 57 35c0 22 -21 34 -53 34c-14 0 -28 10 -26 31l4 41c-34 3 -74 10 -106 25c-32 14 -54 36 -54 65c0 33 25 56 55 56c23 0 42 -11 66 -23
c21 -10 48 -20 79 -20c51 0 79 22 79 58c0 35 -35 51 -76 64c-51 15 -104 28 -149 62c-33 25 -53 61 -53 119c0 88 72 152 209 152c33 0 85 -4 124 -20c32 -12 57 -32 57 -64s-24 -55 -57 -55c-20 0 -39 9 -60 17c-25 10 -44 16 -72 16c-48 0 -73 -17 -73 -46
c0 -32 30 -44 67 -56c50 -15 106 -25 151 -55c37 -24 63 -64 63 -125c0 -99 -76 -161 -181 -170l1 -22c60 -8 91 -45 91 -86z" />
    <glyph glyph-name="Ssmallcommaaccent" unicode="&#xe0f0;" horiz-adv-x="514" 
d="M377 35l-26 72h-189l-26 -73c-9 -24 -32 -42 -64 -42c-39 0 -62 26 -62 61c0 6 4 22 6 28l155 405c12 33 36 66 88 66s77 -33 89 -67l149 -403c2 -5 6 -20 6 -28c0 -36 -25 -62 -62 -62c-31 0 -56 18 -64 43zM258 381l-63 -171h125zM255 725c66 0 63 78 114 78
c26 0 48 -20 48 -46c0 -72 -83 -126 -162 -126s-162 54 -162 126c0 26 22 46 48 46c51 0 48 -78 114 -78z" />
    <glyph glyph-name="T" unicode="T" horiz-adv-x="599" 
d="M537 553h-166v-493c0 -39 -33 -70 -72 -70s-72 31 -72 70v493h-165c-34 0 -62 29 -62 64s28 64 62 64h475c34 0 62 -29 62 -64s-28 -64 -62 -64z" />
    <glyph glyph-name="T.2" unicode="&#xe0f1;" horiz-adv-x="763" 
d="M261 681h440c34 0 62 -29 62 -64s-28 -64 -62 -64h-196v-493c0 -39 -33 -70 -72 -70s-72 31 -72 70v493h-104c-62 0 -103 -13 -103 -41c0 -35 50 -27 50 -74c0 -38 -32 -60 -74 -60c-61 0 -120 48 -120 138c0 135 149 165 251 165z" />
    <glyph glyph-name="Tcaron" unicode="&#x164;" horiz-adv-x="599" 
d="M537 553h-166v-493c0 -39 -33 -70 -72 -70s-72 31 -72 70v493h-165c-34 0 -62 29 -62 64s28 64 62 64h475c34 0 62 -29 62 -64s-28 -64 -62 -64zM299 770c-16 0 -27 7 -37 16l-106 101c-13 12 -22 24 -22 38c0 29 22 47 47 47c14 0 25 -5 35 -15l83 -80l83 80
c10 10 21 15 35 15c25 0 47 -18 47 -47c0 -14 -9 -26 -22 -38l-106 -101c-10 -9 -21 -16 -37 -16z" />
    <glyph glyph-name="Tcaron.2" unicode="&#xe0f2;" horiz-adv-x="763" 
d="M261 681h440c34 0 62 -29 62 -64s-28 -64 -62 -64h-196v-493c0 -39 -33 -70 -72 -70s-72 31 -72 70v493h-104c-62 0 -103 -13 -103 -41c0 -35 50 -27 50 -74c0 -38 -32 -60 -74 -60c-61 0 -120 48 -120 138c0 135 149 165 251 165zM434 770c-16 0 -27 7 -37 16l-106 101
c-13 12 -22 24 -22 38c0 29 22 47 47 47c14 0 25 -5 35 -15l83 -80l83 80c10 10 21 15 35 15c25 0 47 -18 47 -47c0 -14 -9 -26 -22 -38l-106 -101c-10 -9 -21 -16 -37 -16z" />
    <glyph glyph-name="Tcommaaccent" unicode="&#x162;" horiz-adv-x="599" 
d="M537 553h-166v-493c0 -39 -33 -70 -72 -70s-72 31 -72 70v493h-165c-34 0 -62 29 -62 64s28 64 62 64h475c34 0 62 -29 62 -64s-28 -64 -62 -64zM215 -318c0 34 58 42 58 85c0 40 -61 31 -61 99c0 39 26 76 82 76c60 0 96 -44 96 -111c0 -108 -105 -173 -150 -173
c-15 0 -25 11 -25 24z" />
    <glyph glyph-name="Tcommaaccent.2" unicode="&#xe0f3;" horiz-adv-x="763" 
d="M261 681h440c34 0 62 -29 62 -64s-28 -64 -62 -64h-196v-493c0 -39 -33 -70 -72 -70s-72 31 -72 70v493h-104c-62 0 -103 -13 -103 -41c0 -35 50 -27 50 -74c0 -38 -32 -60 -74 -60c-61 0 -120 48 -120 138c0 135 149 165 251 165zM349 -318c0 34 58 42 58 85
c0 40 -61 31 -61 99c0 39 26 76 82 76c60 0 96 -44 96 -111c0 -108 -105 -173 -150 -173c-15 0 -25 11 -25 24z" />
    <glyph glyph-name="Thorn" unicode="&#xde;" horiz-adv-x="647" 
d="M68 -66v686c0 39 32 70 72 70s72 -31 72 -70v-67h154c57 0 114 -11 163 -51c51 -41 83 -107 83 -187c0 -81 -35 -150 -90 -191c-48 -37 -102 -47 -156 -47h-154v-143c0 -39 -34 -70 -72 -70c-40 0 -72 31 -72 70zM466 315c0 38 -12 66 -31 83c-23 22 -54 29 -88 29h-135
v-224h132c31 0 62 5 85 24c23 18 37 48 37 88z" />
    <glyph glyph-name="Tsmall" unicode="&#xf774;" horiz-adv-x="487" 
d="M426 426h-116v-370c0 -35 -31 -64 -67 -64s-66 29 -66 64v370h-117c-31 0 -58 25 -58 58c0 32 27 60 58 60h366c32 0 59 -28 59 -60c0 -33 -27 -58 -59 -58z" />
    <glyph glyph-name="Tsmall.2" unicode="&#xe0f4;" horiz-adv-x="661" 
d="M239 544h362c31 0 58 -28 58 -60c0 -33 -27 -58 -58 -58h-168v-370c0 -35 -31 -64 -67 -64s-66 29 -66 64v370h-65c-55 0 -91 -14 -91 -38c0 -32 44 -25 44 -68c0 -36 -29 -55 -68 -55c-56 0 -110 44 -110 127c0 125 136 152 229 152z" />
    <glyph glyph-name="Tsmallcaron" unicode="&#xe0f5;" horiz-adv-x="477" 
d="M74 785c0 29 22 47 46 47c14 0 24 -3 33 -12l86 -83l85 83c9 9 20 12 33 12c25 0 46 -18 46 -47c0 -14 -8 -27 -21 -39l-107 -101c-9 -9 -21 -15 -36 -15c-16 0 -28 6 -37 15l-106 101c-13 13 -22 25 -22 39zM422 426h-116v-370c0 -35 -31 -64 -67 -64s-66 29 -66 64v370
h-117c-31 0 -58 25 -58 58c0 32 27 60 58 60h366c32 0 59 -28 59 -60c0 -33 -27 -58 -59 -58z" />
    <glyph glyph-name="Tsmallcaron.2" unicode="&#xe0f6;" horiz-adv-x="661" 
d="M239 544h362c31 0 58 -28 58 -60c0 -33 -27 -58 -58 -58h-168v-370c0 -35 -31 -64 -67 -64s-66 29 -66 64v370h-65c-55 0 -91 -14 -91 -38c0 -32 44 -25 44 -68c0 -36 -29 -55 -68 -55c-56 0 -110 44 -110 127c0 125 136 152 229 152zM367 630c-16 0 -27 7 -37 16
l-106 101c-13 12 -22 24 -22 38c0 29 22 47 47 47c14 0 25 -5 35 -15l83 -80l83 80c10 10 21 15 35 15c25 0 47 -18 47 -47c0 -14 -9 -26 -22 -38l-106 -101c-10 -9 -21 -16 -37 -16z" />
    <glyph glyph-name="Tsmallcommaaccent" unicode="&#xe0f7;" horiz-adv-x="487" 
d="M426 426h-116v-370c0 -35 -31 -64 -67 -64s-66 29 -66 64v370h-117c-31 0 -58 25 -58 58c0 32 27 60 58 60h366c32 0 59 -28 59 -60c0 -33 -27 -58 -59 -58zM159 -318c0 34 58 42 58 85c0 40 -61 31 -61 99c0 39 26 76 82 76c60 0 96 -44 96 -111
c0 -108 -105 -173 -150 -173c-15 0 -25 11 -25 24z" />
    <glyph glyph-name="Tsmallcommaaccent.2" unicode="&#xe0f8;" horiz-adv-x="661" 
d="M239 544h362c31 0 58 -28 58 -60c0 -33 -27 -58 -58 -58h-168v-370c0 -35 -31 -64 -67 -64s-66 29 -66 64v370h-65c-55 0 -91 -14 -91 -38c0 -32 44 -25 44 -68c0 -36 -29 -55 -68 -55c-56 0 -110 44 -110 127c0 125 136 152 229 152zM282 -318c0 34 58 42 58 85
c0 40 -61 31 -61 99c0 39 26 76 82 76c60 0 96 -44 96 -111c0 -108 -105 -173 -150 -173c-15 0 -25 11 -25 24z" />
    <glyph glyph-name="U" unicode="U" horiz-adv-x="724" 
d="M361 122c51 0 91 13 119 48c22 27 34 65 34 116v334c0 39 31 70 72 70c39 0 72 -31 72 -70v-351c0 -76 -22 -141 -62 -188c-51 -58 -131 -91 -234 -91s-183 33 -234 91c-40 47 -62 112 -62 188v351c0 39 33 70 72 70c41 0 72 -31 72 -70v-334c0 -51 12 -89 34 -116
c28 -35 68 -48 117 -48z" />
    <glyph glyph-name="Uacute" unicode="&#xda;" horiz-adv-x="724" 
d="M361 122c51 0 91 13 119 48c22 27 34 65 34 116v334c0 39 31 70 72 70c39 0 72 -31 72 -70v-351c0 -76 -22 -141 -62 -188c-51 -58 -131 -91 -234 -91s-183 33 -234 91c-40 47 -62 112 -62 188v351c0 39 33 70 72 70c41 0 72 -31 72 -70v-334c0 -51 12 -89 34 -116
c28 -35 68 -48 117 -48zM281 805c0 11 3 20 9 31l53 105c9 19 23 33 47 33c27 0 52 -22 52 -49c0 -11 -4 -19 -13 -34l-61 -100c-11 -17 -24 -28 -43 -28c-23 0 -44 18 -44 42z" />
    <glyph glyph-name="Ucircumflex" unicode="&#xdb;" horiz-adv-x="724" 
d="M361 122c51 0 91 13 119 48c22 27 34 65 34 116v334c0 39 31 70 72 70c39 0 72 -31 72 -70v-351c0 -76 -22 -141 -62 -188c-51 -58 -131 -91 -234 -91s-183 33 -234 91c-40 47 -62 112 -62 188v351c0 39 33 70 72 70c41 0 72 -31 72 -70v-334c0 -51 12 -89 34 -116
c28 -35 68 -48 117 -48zM361 972c16 0 27 -7 37 -16l106 -101c13 -12 22 -24 22 -38c0 -29 -22 -47 -47 -47c-14 0 -25 5 -35 15l-83 80l-83 -80c-10 -10 -21 -15 -35 -15c-25 0 -47 18 -47 47c0 14 9 26 22 38l106 101c10 9 21 16 37 16z" />
    <glyph glyph-name="Udieresis" unicode="&#xdc;" horiz-adv-x="724" 
d="M361 122c51 0 91 13 119 48c22 27 34 65 34 116v334c0 39 31 70 72 70c39 0 72 -31 72 -70v-351c0 -76 -22 -141 -62 -188c-51 -58 -131 -91 -234 -91s-183 33 -234 91c-40 47 -62 112 -62 188v351c0 39 33 70 72 70c41 0 72 -31 72 -70v-334c0 -51 12 -89 34 -116
c28 -35 68 -48 117 -48zM233 784c-42 0 -76 35 -76 77s34 76 76 76c43 0 76 -34 76 -76s-33 -77 -76 -77zM465 784c-42 0 -76 35 -76 77s34 76 76 76s76 -34 76 -76s-34 -77 -76 -77z" />
    <glyph glyph-name="Ugrave" unicode="&#xd9;" horiz-adv-x="724" 
d="M361 122c51 0 91 13 119 48c22 27 34 65 34 116v334c0 39 31 70 72 70c39 0 72 -31 72 -70v-351c0 -76 -22 -141 -62 -188c-51 -58 -131 -91 -234 -91s-183 33 -234 91c-40 47 -62 112 -62 188v351c0 39 33 70 72 70c41 0 72 -31 72 -70v-334c0 -51 12 -89 34 -116
c28 -35 68 -48 117 -48zM442 805c0 -24 -21 -42 -45 -42c-18 0 -31 10 -42 28l-61 100c-10 15 -13 23 -13 34c0 27 25 49 52 49c24 0 38 -14 47 -33l53 -105c5 -11 9 -20 9 -31z" />
    <glyph glyph-name="Uhungarumlaut" unicode="&#x170;" horiz-adv-x="724" 
d="M361 122c51 0 91 13 119 48c22 27 34 65 34 116v334c0 39 31 70 72 70c39 0 72 -31 72 -70v-351c0 -76 -22 -141 -62 -188c-51 -58 -131 -91 -234 -91s-183 33 -234 91c-40 47 -62 112 -62 188v351c0 39 33 70 72 70c41 0 72 -31 72 -70v-334c0 -51 12 -89 34 -116
c28 -35 68 -48 117 -48zM178 804c0 11 4 20 9 31l53 105c9 19 23 33 47 33c28 0 52 -22 52 -49c0 -11 -3 -19 -13 -34l-61 -100c-11 -17 -24 -28 -42 -28c-24 0 -45 18 -45 42zM384 804c0 11 3 20 9 31l53 105c9 19 23 33 47 33c27 0 52 -22 52 -49c0 -11 -4 -19 -13 -34
l-61 -100c-11 -17 -24 -28 -43 -28c-23 0 -44 18 -44 42z" />
    <glyph glyph-name="Umacron" unicode="&#x16a;" horiz-adv-x="724" 
d="M361 122c51 0 91 13 119 48c22 27 34 65 34 116v334c0 39 31 70 72 70c39 0 72 -31 72 -70v-351c0 -76 -22 -141 -62 -188c-51 -58 -131 -91 -234 -91s-183 33 -234 91c-40 47 -62 112 -62 188v351c0 39 33 70 72 70c41 0 72 -31 72 -70v-334c0 -51 12 -89 34 -116
c28 -35 68 -48 117 -48zM505 870c0 -29 -24 -53 -53 -53h-182c-30 0 -54 24 -54 53c0 30 24 54 54 54h182c29 0 53 -24 53 -54z" />
    <glyph glyph-name="Uogonek" unicode="&#x172;" horiz-adv-x="724" 
d="M361 122c51 0 91 13 119 48c22 27 34 65 34 116v334c0 39 31 70 72 70c39 0 72 -31 72 -70v-351c0 -76 -22 -141 -62 -188c-45 -51 -112 -82 -198 -89c-7 -20 -11 -36 -11 -56c0 -26 10 -53 62 -53c17 0 31 6 47 6c25 0 37 -16 37 -38c0 -24 -11 -39 -38 -48
c-17 -6 -39 -9 -56 -9c-94 0 -137 39 -137 108c0 26 9 56 24 90c-86 7 -153 38 -198 89c-40 47 -62 112 -62 188v351c0 39 33 70 72 70c41 0 72 -31 72 -70v-334c0 -51 12 -89 34 -116c28 -35 68 -48 117 -48z" />
    <glyph glyph-name="Uring" unicode="&#x16e;" horiz-adv-x="724" 
d="M361 122c51 0 91 13 119 48c22 27 34 65 34 116v334c0 39 31 70 72 70c39 0 72 -31 72 -70v-351c0 -76 -22 -141 -62 -188c-51 -58 -131 -91 -234 -91s-183 33 -234 91c-40 47 -62 112 -62 188v351c0 39 33 70 72 70c41 0 72 -31 72 -70v-334c0 -51 12 -89 34 -116
c28 -35 68 -48 117 -48zM483 858c0 -67 -55 -121 -121 -121c-68 0 -122 54 -122 121c0 68 54 122 122 122c66 0 121 -54 121 -122zM425 858c0 36 -29 64 -63 64c-36 0 -63 -28 -63 -64c0 -35 27 -64 63 -64c34 0 63 29 63 64z" />
    <glyph glyph-name="Usmall" unicode="&#xf775;" horiz-adv-x="605" 
d="M303 113c31 0 62 8 80 25c23 21 32 47 32 86v264c0 35 29 64 65 64c38 0 68 -29 68 -64v-271c0 -71 -22 -128 -66 -167c-42 -38 -102 -58 -179 -58c-78 0 -138 20 -180 58c-44 39 -66 96 -66 167v271c0 35 30 64 68 64c36 0 65 -29 65 -64v-264c0 -39 10 -66 32 -86
c19 -17 49 -25 81 -25z" />
    <glyph glyph-name="Usmallacute" unicode="&#xe0f9;" horiz-adv-x="615" 
d="M235 665c0 11 4 20 9 31l53 105c9 19 23 33 47 33c28 0 52 -22 52 -49c0 -11 -3 -19 -13 -34l-61 -100c-11 -17 -24 -28 -42 -28c-24 0 -45 18 -45 42zM307 113c32 0 62 8 81 25c23 21 32 47 32 86v264c0 35 29 64 65 64c38 0 68 -29 68 -64v-271
c0 -71 -22 -128 -66 -167c-42 -38 -102 -58 -180 -58c-77 0 -137 20 -179 58c-44 39 -66 96 -66 167v271c0 35 30 64 68 64c36 0 65 -29 65 -64v-264c0 -39 10 -66 32 -86c18 -17 49 -25 80 -25z" />
    <glyph glyph-name="Usmallcircumflex" unicode="&#xe0fa;" horiz-adv-x="615" 
d="M307 113c31 0 62 8 80 25c23 21 32 47 32 86v264c0 35 29 64 65 64c38 0 68 -29 68 -64v-271c0 -71 -22 -128 -66 -167c-42 -38 -102 -58 -179 -58c-78 0 -138 20 -180 58c-44 39 -66 96 -66 167v271c0 35 30 64 68 64c36 0 65 -29 65 -64v-264c0 -39 10 -66 32 -86
c19 -17 49 -25 81 -25zM307 832c16 0 27 -7 37 -16l106 -101c13 -12 22 -24 22 -38c0 -29 -22 -47 -47 -47c-14 0 -25 5 -35 15l-83 80l-83 -80c-10 -10 -21 -15 -35 -15c-25 0 -47 18 -47 47c0 14 9 26 22 38l106 101c10 9 21 16 37 16z" />
    <glyph glyph-name="Usmalldieresis" unicode="&#xe0fb;" horiz-adv-x="615" 
d="M307 113c31 0 62 8 80 25c23 21 32 47 32 86v264c0 35 29 64 65 64c38 0 68 -29 68 -64v-271c0 -71 -22 -128 -66 -167c-42 -38 -102 -58 -179 -58c-78 0 -138 20 -180 58c-44 39 -66 96 -66 167v271c0 35 30 64 68 64c36 0 65 -29 65 -64v-264c0 -39 10 -66 32 -86
c19 -17 49 -25 81 -25zM191 644c-42 0 -76 35 -76 77s34 76 76 76c43 0 76 -34 76 -76s-33 -77 -76 -77zM423 644c-42 0 -76 35 -76 77s34 76 76 76s76 -34 76 -76s-34 -77 -76 -77z" />
    <glyph glyph-name="Usmallgrave" unicode="&#xe0fc;" horiz-adv-x="615" 
d="M378 665c0 -24 -21 -42 -45 -42c-18 0 -31 10 -42 28l-61 100c-10 15 -13 23 -13 34c0 27 25 49 52 49c24 0 38 -14 47 -33l53 -105c5 -11 9 -20 9 -31zM307 113c32 0 62 8 81 25c23 21 32 47 32 86v264c0 35 29 64 65 64c38 0 68 -29 68 -64v-271
c0 -71 -22 -128 -66 -167c-42 -38 -102 -58 -180 -58c-77 0 -137 20 -179 58c-44 39 -66 96 -66 167v271c0 35 30 64 68 64c36 0 65 -29 65 -64v-264c0 -39 10 -66 32 -86c18 -17 49 -25 80 -25z" />
    <glyph glyph-name="Usmallhungarumlaut" unicode="&#xe0fd;" horiz-adv-x="615" 
d="M307 113c31 0 62 8 80 25c23 21 32 47 32 86v264c0 35 29 64 65 64c38 0 68 -29 68 -64v-271c0 -71 -22 -128 -66 -167c-42 -38 -102 -58 -179 -58c-78 0 -138 20 -180 58c-44 39 -66 96 -66 167v271c0 35 30 64 68 64c36 0 65 -29 65 -64v-264c0 -39 10 -66 32 -86
c19 -17 49 -25 81 -25zM129 665c0 11 4 20 9 31l53 105c9 19 23 33 47 33c28 0 52 -22 52 -49c0 -11 -3 -19 -13 -34l-61 -100c-11 -17 -24 -28 -42 -28c-24 0 -45 18 -45 42zM335 665c0 11 3 20 9 31l53 105c9 19 23 33 47 33c27 0 52 -22 52 -49c0 -11 -4 -19 -13 -34
l-61 -100c-11 -17 -24 -28 -43 -28c-23 0 -44 18 -44 42z" />
    <glyph glyph-name="Usmallmacron" unicode="&#xe0fe;" horiz-adv-x="615" 
d="M307 113c31 0 62 8 80 25c23 21 32 47 32 86v264c0 35 29 64 65 64c38 0 68 -29 68 -64v-271c0 -71 -22 -128 -66 -167c-42 -38 -102 -58 -179 -58c-78 0 -138 20 -180 58c-44 39 -66 96 -66 167v271c0 35 30 64 68 64c36 0 65 -29 65 -64v-264c0 -39 10 -66 32 -86
c19 -17 49 -25 81 -25zM451 707c0 -29 -24 -53 -53 -53h-182c-30 0 -54 24 -54 53c0 30 24 54 54 54h182c29 0 53 -24 53 -54z" />
    <glyph glyph-name="Usmallogonek" unicode="&#xe0ff;" horiz-adv-x="615" 
d="M307 113c31 0 62 8 80 25c23 21 32 47 32 86v264c0 35 29 64 65 64c38 0 68 -29 68 -64v-271c0 -71 -22 -128 -66 -167c-36 -33 -85 -51 -146 -56c-7 -21 -11 -38 -11 -58c0 -26 10 -53 62 -53c17 0 31 6 47 6c25 0 37 -16 37 -38c0 -24 -11 -39 -38 -48
c-17 -6 -39 -9 -56 -9c-94 0 -137 39 -137 108c0 26 9 57 26 92c-61 6 -108 24 -143 56c-44 39 -66 96 -66 167v271c0 35 30 64 68 64c36 0 65 -29 65 -64v-264c0 -39 10 -66 32 -86c19 -17 49 -25 81 -25z" />
    <glyph glyph-name="Usmallring" unicode="&#xe100;" horiz-adv-x="615" 
d="M429 727c0 -67 -54 -121 -121 -121s-122 54 -122 121c0 68 55 122 122 122s121 -54 121 -122zM371 727c0 36 -28 64 -63 64s-63 -28 -63 -64c0 -35 28 -64 63 -64s63 29 63 64zM307 113c32 0 62 8 81 25c23 21 32 47 32 86v264c0 35 29 64 65 64c38 0 68 -29 68 -64v-271
c0 -71 -22 -128 -66 -167c-42 -38 -102 -58 -180 -58c-77 0 -137 20 -179 58c-44 39 -66 96 -66 167v271c0 35 30 64 68 64c36 0 65 -29 65 -64v-264c0 -39 10 -66 32 -86c18 -17 49 -25 80 -25z" />
    <glyph glyph-name="V" unicode="V" horiz-adv-x="646" 
d="M321 175l170 467c11 30 40 48 72 48c40 0 74 -27 74 -70c0 -8 -2 -17 -5 -25l-209 -531c-15 -41 -49 -74 -103 -74c-56 0 -88 33 -104 74l-202 530c-3 8 -5 16 -5 25c0 39 32 71 75 71c31 0 58 -18 69 -49z" />
    <glyph glyph-name="Vsmall" unicode="&#xf776;" horiz-adv-x="532" 
d="M265 170l127 338c10 28 32 44 65 44c42 0 69 -25 69 -64c0 -9 -4 -19 -8 -29l-164 -403c-17 -43 -41 -64 -91 -64s-74 21 -90 64l-161 407c-3 7 -5 15 -5 24c0 36 29 65 70 65c29 0 52 -16 62 -45z" />
    <glyph glyph-name="W" unicode="W" horiz-adv-x="1045" 
d="M523 79c-23 -31 -52 -53 -82 -67c-36 -15 -75 -21 -111 -21c-72 0 -144 19 -195 68c-42 40 -69 101 -69 187v374c0 39 33 70 72 70c41 0 72 -31 72 -70v-372c0 -43 11 -74 31 -94c23 -23 57 -31 90 -31c40 0 68 12 87 33c22 24 33 62 33 111v353c0 39 32 70 72 70
s72 -31 72 -70v-353c0 -49 11 -87 33 -111c18 -21 47 -33 87 -33c33 0 67 8 90 31c19 20 30 51 30 94v372c0 39 32 70 72 70s72 -31 72 -70v-374c0 -86 -26 -147 -68 -187c-51 -49 -123 -68 -195 -68c-36 0 -75 6 -111 21c-31 14 -59 36 -82 67z" />
    <glyph glyph-name="W.2" unicode="&#xe101;" horiz-adv-x="1029" 
d="M703 175l171 467c11 30 39 48 72 48c40 0 74 -27 74 -70c0 -8 -3 -17 -6 -25l-208 -531c-16 -41 -50 -74 -103 -74c-56 0 -88 33 -104 74l-87 224l-89 -224c-16 -41 -49 -74 -103 -74c-56 0 -88 33 -104 74l-202 530c-3 8 -5 16 -5 25c0 39 32 71 75 71
c31 0 58 -18 69 -49l168 -466l115 316l-40 103c-3 8 -4 16 -4 25c0 39 32 71 75 71c31 0 58 -18 69 -49z" />
    <glyph glyph-name="W.calt" unicode="&#xe102;" horiz-adv-x="1017" 
d="M732 175l130 467c8 31 40 48 72 48c40 0 74 -27 74 -69c0 -9 -3 -20 -6 -29l-168 -528c-13 -41 -46 -74 -103 -74s-89 33 -103 74l-121 352l-115 -352c-14 -41 -46 -74 -104 -74s-90 33 -103 74l-171 530c-3 8 -5 17 -5 25c0 39 32 71 75 71c37 0 61 -21 70 -52l135 -463
l142 461c9 30 33 54 78 54c46 0 66 -24 76 -55z" />
    <glyph glyph-name="Wcircumflex" unicode="&#x174;" horiz-adv-x="1045" 
d="M523 79c-23 -31 -52 -53 -82 -67c-36 -15 -75 -21 -111 -21c-72 0 -144 19 -195 68c-42 40 -69 101 -69 187v374c0 39 33 70 72 70c41 0 72 -31 72 -70v-372c0 -43 11 -74 31 -94c23 -23 57 -31 90 -31c40 0 68 12 87 33c22 24 33 62 33 111v353c0 39 32 70 72 70
s72 -31 72 -70v-353c0 -49 11 -87 33 -111c18 -21 47 -33 87 -33c33 0 67 8 90 31c19 20 30 51 30 94v372c0 39 32 70 72 70s72 -31 72 -70v-374c0 -86 -26 -147 -68 -187c-51 -49 -123 -68 -195 -68c-36 0 -75 6 -111 21c-31 14 -59 36 -82 67zM522 972c16 0 27 -7 37 -16
l106 -101c13 -12 22 -24 22 -38c0 -29 -22 -47 -47 -47c-14 0 -25 5 -35 15l-83 80l-83 -80c-10 -10 -21 -15 -35 -15c-25 0 -47 18 -47 47c0 14 9 26 22 38l106 101c10 9 21 16 37 16z" />
    <glyph glyph-name="Wcircumflex.2" unicode="&#xe103;" horiz-adv-x="1029" 
d="M703 175l171 467c11 30 39 48 72 48c40 0 74 -27 74 -70c0 -8 -3 -17 -6 -25l-208 -531c-16 -41 -50 -74 -103 -74c-56 0 -88 33 -104 74l-87 224l-89 -224c-16 -41 -49 -74 -103 -74c-56 0 -88 33 -104 74l-202 530c-3 8 -5 16 -5 25c0 39 32 71 75 71
c31 0 58 -18 69 -49l168 -466l115 316l-40 103c-3 8 -4 16 -4 25c0 39 32 71 75 71c31 0 58 -18 69 -49zM511 972c16 0 27 -7 37 -16l106 -101c13 -12 22 -24 22 -38c0 -29 -22 -47 -47 -47c-14 0 -25 5 -35 15l-83 80l-83 -80c-10 -10 -21 -15 -35 -15c-25 0 -47 18 -47 47
c0 14 9 26 22 38l106 101c10 9 21 16 37 16z" />
    <glyph glyph-name="Wsmall" unicode="&#xf777;" horiz-adv-x="863" 
d="M365 224v264c0 35 30 64 68 64c36 0 65 -29 65 -64v-264c0 -39 9 -68 25 -86c15 -17 38 -25 62 -25c25 0 47 8 63 25c16 18 25 47 25 86v264c0 35 30 64 67 64c36 0 66 -29 66 -64v-271c0 -71 -20 -128 -59 -167c-38 -37 -92 -58 -161 -58c-38 0 -70 8 -98 22
c-22 11 -40 25 -55 43c-16 -18 -37 -34 -61 -45c-27 -13 -59 -20 -94 -20c-70 0 -124 21 -161 58c-40 39 -60 96 -60 167v271c0 35 30 64 68 64c36 0 65 -29 65 -64v-264c0 -39 9 -68 25 -86c15 -17 38 -25 63 -25c24 0 47 8 62 25c16 18 25 47 25 86z" />
    <glyph glyph-name="Wsmall.2" unicode="&#xe104;" horiz-adv-x="869" 
d="M602 170l127 338c10 28 32 44 65 44c42 0 69 -25 69 -64c0 -9 -4 -19 -8 -29l-164 -403c-17 -43 -41 -64 -91 -64s-73 21 -90 64l-77 194l-79 -194c-17 -43 -41 -64 -91 -64s-73 21 -90 64l-161 407c-3 7 -5 15 -5 24c0 36 29 65 70 65c29 0 51 -16 62 -45l126 -337
l97 259l-13 34c-3 7 -5 15 -5 24c0 36 29 65 70 65c29 0 51 -16 62 -45z" />
    <glyph glyph-name="Wsmall.calt" unicode="&#xe105;" horiz-adv-x="825" 
d="M486 492l95 -328l97 332c8 29 28 56 68 56c45 0 69 -34 69 -69c0 -12 -4 -30 -10 -48l-126 -378c-11 -33 -34 -65 -94 -65c-61 0 -86 32 -96 65l-77 242l-76 -242c-10 -33 -38 -65 -96 -65s-83 32 -94 65l-125 379c-6 17 -11 35 -11 47c0 35 26 69 69 69
c35 0 58 -21 69 -59l95 -329l95 328c8 28 24 60 73 60c50 0 67 -32 75 -60z" />
    <glyph glyph-name="Wsmallcircumflex" unicode="&#xe106;" horiz-adv-x="863" 
d="M365 224v264c0 35 30 64 68 64c36 0 65 -29 65 -64v-264c0 -39 9 -68 25 -86c15 -17 38 -25 62 -25c25 0 47 8 63 25c16 18 25 47 25 86v264c0 35 30 64 67 64c36 0 66 -29 66 -64v-271c0 -71 -20 -128 -59 -167c-38 -37 -92 -58 -161 -58c-38 0 -70 8 -98 22
c-22 11 -40 25 -55 43c-16 -18 -37 -34 -61 -45c-27 -13 -59 -20 -94 -20c-70 0 -124 21 -161 58c-40 39 -60 96 -60 167v271c0 35 30 64 68 64c36 0 65 -29 65 -64v-264c0 -39 9 -68 25 -86c15 -17 38 -25 63 -25c24 0 47 8 62 25c16 18 25 47 25 86zM431 832
c16 0 27 -7 37 -16l106 -101c13 -12 22 -24 22 -38c0 -29 -22 -47 -47 -47c-14 0 -25 5 -35 15l-83 80l-83 -80c-10 -10 -21 -15 -35 -15c-25 0 -47 18 -47 47c0 14 9 26 22 38l106 101c10 9 21 16 37 16z" />
    <glyph glyph-name="Wsmallcircumflex.2" unicode="&#xe107;" horiz-adv-x="869" 
d="M602 170l127 338c10 28 32 44 65 44c42 0 69 -25 69 -64c0 -9 -4 -19 -8 -29l-164 -403c-17 -43 -41 -64 -91 -64s-73 21 -90 64l-77 194l-79 -194c-17 -43 -41 -64 -91 -64s-73 21 -90 64l-161 407c-3 7 -5 15 -5 24c0 36 29 65 70 65c29 0 51 -16 62 -45l126 -337
l97 259l-13 34c-3 7 -5 15 -5 24c0 36 29 65 70 65c29 0 51 -16 62 -45zM429 832c16 0 27 -7 37 -16l106 -101c13 -12 22 -24 22 -38c0 -29 -22 -47 -47 -47c-14 0 -25 5 -35 15l-83 80l-83 -80c-10 -10 -21 -15 -35 -15c-25 0 -47 18 -47 47c0 14 9 26 22 38l106 101
c10 9 21 16 37 16z" />
    <glyph glyph-name="X" unicode="X" horiz-adv-x="645" 
d="M172 659l152 -204l150 204c15 21 37 31 63 31c41 0 83 -31 83 -76c0 -15 -6 -30 -16 -43l-187 -229l193 -234c11 -12 16 -27 16 -42c0 -42 -39 -76 -83 -76c-26 0 -48 10 -63 31l-156 208l-159 -208c-16 -21 -37 -31 -64 -31c-40 0 -82 30 -82 75c0 15 5 31 16 43
l196 231l-189 232c-10 13 -17 28 -17 43c0 42 40 76 84 76c28 0 48 -10 63 -31z" />
    <glyph glyph-name="Xsmall" unicode="&#xf778;" horiz-adv-x="494" 
d="M140 524l109 -145l109 145c13 19 34 28 56 28c40 0 75 -27 75 -68c0 -15 -6 -29 -15 -40l-139 -171c32 -40 112 -134 144 -173c9 -10 14 -25 14 -40c0 -38 -31 -68 -74 -68c-22 0 -43 11 -56 28c-25 35 -88 112 -113 148l-115 -148c-15 -20 -35 -28 -58 -28
c-41 0 -74 28 -74 68c0 14 4 28 15 40l147 171l-142 173c-10 12 -15 25 -15 40c0 36 31 68 75 68c23 0 43 -10 57 -28z" />
    <glyph glyph-name="Y" unicode="Y" horiz-adv-x="584" 
d="M562 575l-199 -292v-223c0 -39 -33 -70 -72 -70s-72 31 -72 70v224l-197 292c-9 13 -14 29 -14 45c0 40 31 69 71 69c24 0 47 -11 60 -32l151 -230l154 231c14 20 37 31 61 31c40 0 71 -30 71 -69c0 -16 -5 -33 -14 -46z" />
    <glyph glyph-name="Y.2" unicode="&#xe108;" horiz-adv-x="629" 
d="M608 575l-223 -326v-189c0 -39 -33 -70 -72 -70s-72 31 -72 70v190l-219 326c-9 13 -14 29 -14 45c0 40 31 69 71 69c24 0 47 -11 60 -32l174 -264l177 265c14 20 36 31 60 31c40 0 71 -30 71 -69c0 -16 -4 -33 -13 -46z" />
    <glyph glyph-name="Y.3" unicode="&#xe109;" horiz-adv-x="573" 
d="M96 115c53 0 92 22 125 67l-201 393c-7 14 -12 29 -12 44c0 41 33 72 72 72c36 0 56 -17 73 -53l142 -295l129 295c15 38 37 53 73 53c38 0 70 -30 70 -70c0 -15 -5 -28 -11 -43l-168 -378c-70 -158 -170 -210 -288 -210c-49 0 -74 28 -74 62c0 35 25 63 70 63z" />
    <glyph glyph-name="Yacute" unicode="&#xdd;" horiz-adv-x="584" 
d="M562 575l-199 -292v-223c0 -39 -33 -70 -72 -70s-72 31 -72 70v224l-197 292c-9 13 -14 29 -14 45c0 40 31 69 71 69c24 0 47 -11 60 -32l151 -230l154 231c14 20 37 31 61 31c40 0 71 -30 71 -69c0 -16 -5 -33 -14 -46zM221 805c0 11 3 20 9 31l53 105c9 19 23 33 47 33
c27 0 52 -22 52 -49c0 -11 -4 -19 -13 -34l-61 -100c-11 -17 -24 -28 -43 -28c-23 0 -44 18 -44 42z" />
    <glyph glyph-name="Yacute.2" unicode="&#xe10a;" horiz-adv-x="629" 
d="M608 575l-223 -326v-189c0 -39 -33 -70 -72 -70s-72 31 -72 70v190l-219 326c-9 13 -14 29 -14 45c0 40 31 69 71 69c24 0 47 -11 60 -32l174 -264l177 265c14 20 36 31 60 31c40 0 71 -30 71 -69c0 -16 -4 -33 -13 -46zM242 805c0 11 3 20 9 31l53 105c9 19 23 33 47 33
c27 0 52 -22 52 -49c0 -11 -4 -19 -13 -34l-61 -100c-11 -17 -24 -28 -43 -28c-23 0 -44 18 -44 42z" />
    <glyph glyph-name="Yacute.3" unicode="&#xe10b;" horiz-adv-x="573" 
d="M96 115c53 0 92 22 125 67l-201 393c-7 14 -12 29 -12 44c0 41 33 72 72 72c36 0 56 -17 73 -53l142 -295l129 295c15 38 37 53 73 53c38 0 70 -30 70 -70c0 -15 -5 -28 -11 -43l-168 -378c-70 -158 -170 -210 -288 -210c-49 0 -74 28 -74 62c0 35 25 63 70 63zM210 805
c0 11 3 20 9 31l53 105c9 19 23 33 47 33c27 0 52 -22 52 -49c0 -11 -4 -19 -13 -34l-61 -100c-11 -17 -24 -28 -43 -28c-23 0 -44 18 -44 42z" />
    <glyph glyph-name="Ycircumflex" unicode="&#x176;" horiz-adv-x="584" 
d="M562 575l-199 -292v-223c0 -39 -33 -70 -72 -70s-72 31 -72 70v224l-197 292c-9 13 -14 29 -14 45c0 40 31 69 71 69c24 0 47 -11 60 -32l151 -230l154 231c14 20 37 31 61 31c40 0 71 -30 71 -69c0 -16 -5 -33 -14 -46zM290 972c16 0 27 -7 37 -16l106 -101
c13 -12 22 -24 22 -38c0 -29 -22 -47 -47 -47c-14 0 -25 5 -35 15l-83 80l-83 -80c-10 -10 -21 -15 -35 -15c-25 0 -47 18 -47 47c0 14 9 26 22 38l106 101c10 9 21 16 37 16z" />
    <glyph glyph-name="Ycircumflex.2" unicode="&#xe10c;" horiz-adv-x="629" 
d="M608 575l-223 -326v-189c0 -39 -33 -70 -72 -70s-72 31 -72 70v190l-219 326c-9 13 -14 29 -14 45c0 40 31 69 71 69c24 0 47 -11 60 -32l174 -264l177 265c14 20 36 31 60 31c40 0 71 -30 71 -69c0 -16 -4 -33 -13 -46zM312 972c16 0 27 -7 37 -16l106 -101
c13 -12 22 -24 22 -38c0 -29 -22 -47 -47 -47c-14 0 -25 5 -35 15l-83 80l-83 -80c-10 -10 -21 -15 -35 -15c-25 0 -47 18 -47 47c0 14 9 26 22 38l106 101c10 9 21 16 37 16z" />
    <glyph glyph-name="Ycircumflex.3" unicode="&#xe10d;" horiz-adv-x="573" 
d="M96 115c53 0 92 22 125 67l-201 393c-7 14 -12 29 -12 44c0 41 33 72 72 72c36 0 56 -17 73 -53l142 -295l129 295c15 38 37 53 73 53c38 0 70 -30 70 -70c0 -15 -5 -28 -11 -43l-168 -378c-70 -158 -170 -210 -288 -210c-49 0 -74 28 -74 62c0 35 25 63 70 63zM286 972
c16 0 27 -7 37 -16l106 -101c13 -12 22 -24 22 -38c0 -29 -22 -47 -47 -47c-14 0 -25 5 -35 15l-83 80l-83 -80c-10 -10 -21 -15 -35 -15c-25 0 -47 18 -47 47c0 14 9 26 22 38l106 101c10 9 21 16 37 16z" />
    <glyph glyph-name="Ydieresis" unicode="&#x178;" horiz-adv-x="584" 
d="M562 575l-199 -292v-223c0 -39 -33 -70 -72 -70s-72 31 -72 70v224l-197 292c-9 13 -14 29 -14 45c0 40 31 69 71 69c24 0 47 -11 60 -32l151 -230l154 231c14 20 37 31 61 31c40 0 71 -30 71 -69c0 -16 -5 -33 -14 -46zM176 792c-42 0 -76 35 -76 77s34 76 76 76
c43 0 76 -34 76 -76s-33 -77 -76 -77zM408 792c-42 0 -76 35 -76 77s34 76 76 76s76 -34 76 -76s-34 -77 -76 -77z" />
    <glyph glyph-name="Ydieresis.2" unicode="&#xe10e;" horiz-adv-x="629" 
d="M608 575l-223 -326v-189c0 -39 -33 -70 -72 -70s-72 31 -72 70v190l-219 326c-9 13 -14 29 -14 45c0 40 31 69 71 69c24 0 47 -11 60 -32l174 -264l177 265c14 20 36 31 60 31c40 0 71 -30 71 -69c0 -16 -4 -33 -13 -46zM198 784c-42 0 -76 35 -76 77s34 76 76 76
c43 0 76 -34 76 -76s-33 -77 -76 -77zM430 784c-42 0 -76 35 -76 77s34 76 76 76s76 -34 76 -76s-34 -77 -76 -77z" />
    <glyph glyph-name="Ydieresis.3" unicode="&#xe10f;" horiz-adv-x="573" 
d="M96 115c53 0 92 22 125 67l-201 393c-7 14 -12 29 -12 44c0 41 33 72 72 72c36 0 56 -17 73 -53l142 -295l129 295c15 38 37 53 73 53c38 0 70 -30 70 -70c0 -15 -5 -28 -11 -43l-168 -378c-70 -158 -170 -210 -288 -210c-49 0 -74 28 -74 62c0 35 25 63 70 63zM168 784
c-42 0 -76 35 -76 77s34 76 76 76c43 0 76 -34 76 -76s-33 -77 -76 -77zM400 784c-42 0 -76 35 -76 77s34 76 76 76s76 -34 76 -76s-34 -77 -76 -77z" />
    <glyph glyph-name="Ysmall" unicode="&#xf779;" horiz-adv-x="481" 
d="M454 441l-147 -216v-169c0 -35 -26 -64 -67 -64c-42 0 -66 29 -66 64v169l-148 218c-8 11 -15 29 -15 46c0 37 28 63 65 63c32 0 46 -15 58 -34l105 -164l110 168c13 20 31 30 56 30c37 0 65 -27 65 -64c0 -18 -7 -34 -16 -47z" />
    <glyph glyph-name="Ysmall.2" unicode="&#xe110;" horiz-adv-x="516" 
d="M490 441l-166 -242v-143c0 -35 -25 -64 -67 -64c-41 0 -65 29 -65 64v143l-166 244c-8 11 -15 29 -15 46c0 37 28 63 65 63c32 0 46 -15 58 -34l123 -190l127 194c13 20 31 30 56 30c38 0 65 -27 65 -64c0 -18 -7 -34 -15 -47z" />
    <glyph glyph-name="Ysmall.3" unicode="&#xe111;" horiz-adv-x="475" 
d="M87 101c39 0 68 16 92 48l-158 304c-5 11 -10 25 -10 36c0 37 28 63 63 63c31 0 47 -17 61 -45l109 -219c19 47 79 173 97 220c13 31 32 44 63 44c34 0 60 -26 60 -61c0 -12 -3 -22 -9 -35l-133 -296c-53 -120 -139 -168 -233 -168c-43 0 -64 24 -64 55c0 30 21 54 62 54
z" />
    <glyph glyph-name="Ysmallacute" unicode="&#xe112;" horiz-adv-x="481" 
d="M454 441l-147 -216v-169c0 -35 -26 -64 -67 -64c-42 0 -66 29 -66 64v169l-148 218c-8 11 -15 29 -15 46c0 37 28 63 65 63c32 0 46 -15 58 -34l105 -164l110 168c13 20 31 30 56 30c37 0 65 -27 65 -64c0 -18 -7 -34 -16 -47zM159 665c0 11 3 20 9 31l53 105
c9 19 23 33 47 33c27 0 52 -22 52 -49c0 -11 -4 -19 -13 -34l-61 -100c-11 -17 -24 -28 -43 -28c-23 0 -44 18 -44 42z" />
    <glyph glyph-name="Ysmallacute.2" unicode="&#xe113;" horiz-adv-x="516" 
d="M490 441l-166 -242v-143c0 -35 -25 -64 -67 -64c-41 0 -65 29 -65 64v143l-166 244c-8 11 -15 29 -15 46c0 37 28 63 65 63c32 0 46 -15 58 -34l123 -190l127 194c13 20 31 30 56 30c38 0 65 -27 65 -64c0 -18 -7 -34 -15 -47zM178 665c0 11 3 20 9 31l53 105
c9 19 23 33 47 33c27 0 52 -22 52 -49c0 -11 -4 -19 -13 -34l-61 -100c-11 -17 -24 -28 -43 -28c-23 0 -44 18 -44 42z" />
    <glyph glyph-name="Ysmallacute.3" unicode="&#xe114;" horiz-adv-x="475" 
d="M87 101c39 0 68 16 92 48l-158 304c-5 11 -10 25 -10 36c0 37 28 63 63 63c31 0 47 -17 61 -45l109 -219c19 47 79 173 97 220c13 31 32 44 63 44c34 0 60 -26 60 -61c0 -12 -3 -22 -9 -35l-133 -296c-53 -120 -139 -168 -233 -168c-43 0 -64 24 -64 55c0 30 21 54 62 54
zM163 665c0 11 3 20 9 31l53 105c9 19 23 33 47 33c27 0 52 -22 52 -49c0 -11 -4 -19 -13 -34l-61 -100c-11 -17 -24 -28 -43 -28c-23 0 -44 18 -44 42z" />
    <glyph glyph-name="Ysmallcircumflex" unicode="&#xe115;" horiz-adv-x="481" 
d="M454 441l-147 -216v-169c0 -35 -26 -64 -67 -64c-42 0 -66 29 -66 64v169l-148 218c-8 11 -15 29 -15 46c0 37 28 63 65 63c32 0 46 -15 58 -34l105 -164l110 168c13 20 31 30 56 30c37 0 65 -27 65 -64c0 -18 -7 -34 -16 -47zM239 832c16 0 27 -7 37 -16l106 -101
c13 -12 22 -24 22 -38c0 -29 -22 -47 -47 -47c-14 0 -25 5 -35 15l-83 80l-83 -80c-10 -10 -21 -15 -35 -15c-25 0 -47 18 -47 47c0 14 9 26 22 38l106 101c10 9 21 16 37 16z" />
    <glyph glyph-name="Ysmallcircumflex.2" unicode="&#xe116;" horiz-adv-x="516" 
d="M490 441l-166 -242v-143c0 -35 -25 -64 -67 -64c-41 0 -65 29 -65 64v143l-166 244c-8 11 -15 29 -15 46c0 37 28 63 65 63c32 0 46 -15 58 -34l123 -190l127 194c13 20 31 30 56 30c38 0 65 -27 65 -64c0 -18 -7 -34 -15 -47zM258 832c16 0 27 -7 37 -16l106 -101
c13 -12 22 -24 22 -38c0 -29 -22 -47 -47 -47c-14 0 -25 5 -35 15l-83 80l-83 -80c-10 -10 -21 -15 -35 -15c-25 0 -47 18 -47 47c0 14 9 26 22 38l106 101c10 9 21 16 37 16z" />
    <glyph glyph-name="Ysmallcircumflex.3" unicode="&#xe117;" horiz-adv-x="475" 
d="M87 101c39 0 68 16 92 48l-158 304c-5 11 -10 25 -10 36c0 37 28 63 63 63c31 0 47 -17 61 -45l109 -219c19 47 79 173 97 220c13 31 32 44 63 44c34 0 60 -26 60 -61c0 -12 -3 -22 -9 -35l-133 -296c-53 -120 -139 -168 -233 -168c-43 0 -64 24 -64 55c0 30 21 54 62 54
zM238 832c16 0 27 -7 37 -16l106 -101c13 -12 22 -24 22 -38c0 -29 -22 -47 -47 -47c-14 0 -25 5 -35 15l-83 80l-83 -80c-10 -10 -21 -15 -35 -15c-25 0 -47 18 -47 47c0 14 9 26 22 38l106 101c10 9 21 16 37 16z" />
    <glyph glyph-name="Ysmalldieresis" unicode="&#xe118;" horiz-adv-x="481" 
d="M454 441l-147 -216v-169c0 -35 -26 -64 -67 -64c-42 0 -66 29 -66 64v169l-148 218c-8 11 -15 29 -15 46c0 37 28 63 65 63c32 0 46 -15 58 -34l105 -164l110 168c13 20 31 30 56 30c37 0 65 -27 65 -64c0 -18 -7 -34 -16 -47zM124 644c-42 0 -76 35 -76 77s34 76 76 76
c43 0 76 -34 76 -76s-33 -77 -76 -77zM356 644c-42 0 -76 35 -76 77s34 76 76 76s76 -34 76 -76s-34 -77 -76 -77z" />
    <glyph glyph-name="Ysmalldieresis.2" unicode="&#xe119;" horiz-adv-x="516" 
d="M490 441l-166 -242v-143c0 -35 -25 -64 -67 -64c-41 0 -65 29 -65 64v143l-166 244c-8 11 -15 29 -15 46c0 37 28 63 65 63c32 0 46 -15 58 -34l123 -190l127 194c13 20 31 30 56 30c38 0 65 -27 65 -64c0 -18 -7 -34 -15 -47zM142 644c-42 0 -76 35 -76 77s34 76 76 76
c43 0 76 -34 76 -76s-33 -77 -76 -77zM374 644c-42 0 -76 35 -76 77s34 76 76 76s76 -34 76 -76s-34 -77 -76 -77z" />
    </font>
</defs>
</svg>
